<?xml version="1.0" encoding="UTF-8" standalone="no"?>
<svg width="24px" height="24px" viewBox="0 0 24 24" version="1.1" xmlns="http://www.w3.org/2000/svg" xmlns:xlink="http://www.w3.org/1999/xlink">
    <!-- Generator: Sketch 46.2 (44496) - http://www.bohemiancoding.com/sketch -->
    <title>Icon/utility/Indigo/24px/Asset-Infographic</title>
    <desc>Created with Sketch.</desc>
    <defs></defs>
    <g id="Symbols" stroke="none" stroke-width="1" fill="none" fill-rule="evenodd">
        <g id="Icon/utility/Indigo/24px/Asset-Infographic" fill="#1F2555">
            <g id="Page-1" transform="translate(2.000000, 2.000000)">
                <path d="M6.5,6 C6.775,6 7,6.225 7,6.5 C7,6.775 6.775,7 6.5,7 C6.225,7 6,6.775 6,6.5 C6,6.225 6.225,6 6.5,6 M6.5,9 C7.881,9 9,7.881 9,6.5 C9,5.119 7.881,4 6.5,4 C5.119,4 4,5.119 4,6.5 C4,7.881 5.119,9 6.5,9" id="Fill-1"></path>
                <path d="M17,18 L5.412,18 L14,9.413 L18,13.413 L18,17.001 C18,17.551 17.55,18.001 17,18.001 L17,18 Z M2,3 C2,2.45 2.45,2 3,2 L17,2 C17.55,2 18,2.45 18,3 L18,10.587 L14.706,7.293 C14.319,6.906 13.681,6.906 13.293,7.293 L2.649,17.937 C2.268,17.793 1.999,17.431 1.999,16.999 L1.999,2.999 L2,3 Z M20,13 L20,3 C20,1.344 18.656,0 17,0 L3,0 C1.344,0 0,1.344 0,3 L0,17 C0,18.65 1.338,19.994 2.988,20 L3,20 L17,20 C18.656,20 20,18.656 20,17 L20,13 Z" id="Fill-3"></path>
            </g>
        </g>
    </g>
</svg>