<?xml version="1.0" encoding="UTF-8" standalone="no"?>
<svg width="24px" height="24px" viewBox="0 0 24 24" version="1.1" xmlns="http://www.w3.org/2000/svg" xmlns:xlink="http://www.w3.org/1999/xlink">
    <!-- Generator: Sketch 46.2 (44496) - http://www.bohemiancoding.com/sketch -->
    <title>Icon/utility/Indigo/24px/Asset-Data</title>
    <desc>Created with Sketch.</desc>
    <defs></defs>
    <g id="Symbols" stroke="none" stroke-width="1" fill="none" fill-rule="evenodd">
        <g id="Icon/utility/Indigo/24px/Asset-Data" fill="#1F2555">
            <g id="Page-1" transform="translate(1.000000, 2.000000)">
                <path d="M10,18 L12,18 L12,2 L10,2 L10,18 Z M12,0 L10,0 C8.9,0 8,0.9 8,2 L8,18 C8,19.1 8.9,20 10,20 L12,20 C13.1,20 14,19.1 14,18 L14,2 C14,0.9 13.1,0 12,0 L12,0 Z" id="Fill-1"></path>
                <path d="M18,18 L20,18 L20,7 L18,7 L18,18 Z M20,5 L18,5 C16.9,5 16,5.9 16,7 L16,18 C16,19.1 16.9,20 18,20 L20,20 C21.1,20 22,19.1 22,18 L22,7 C22,5.9 21.1,5 20,5 L20,5 Z" id="Fill-3"></path>
                <path d="M2,18 L4,18 L4,12 L2,12 L2,18 Z M4,10 L2,10 C0.9,10 0,10.9 0,12 L0,18 C0,19.1 0.9,20 2,20 L4,20 C5.1,20 6,19.1 6,18 L6,12 C6,10.9 5.1,10 4,10 L4,10 Z" id="Fill-4"></path>
            </g>
        </g>
    </g>
</svg>