<?xml version="1.0" encoding="utf-8"?>
<svg version="1.1" xmlns="http://www.w3.org/2000/svg" xmlns:xlink="http://www.w3.org/1999/xlink"
	 viewBox="0 0 24 24"
>
  <g fill="#FAFAFA">
    <path d="M12,0C5.4,0,0,5.4,0,12c0,6.6,5.4,12,12,12c6.6,0,12-5.4,12-12C24,5.4,18.6,0,12,0z M12,22.8
      C6,22.8,1.2,18,1.2,12C1.2,6,6,1.2,12,1.2S22.8,6,22.8,12C22.8,18,18,22.8,12,22.8z"/>
    <path d="M17.1,6.9c-0.2-0.2-0.6-0.2-0.8,0L12,11.2L7.7,6.9c-0.2-0.2-0.6-0.2-0.8,0c-0.2,0.2-0.2,0.6,0,0.8l4.3,4.3
      l-4.3,4.3c-0.2,0.2-0.2,0.6,0,0.8c0.1,0.1,0.3,0.2,0.4,0.2c0.2,0,0.3-0.1,0.4-0.2l4.3-4.3l4.3,4.3c0.1,0.1,0.3,0.2,0.4,0.2
      c0.2,0,0.3-0.1,0.4-0.2c0.2-0.2,0.2-0.6,0-0.8L12.8,12l4.3-4.3C17.3,7.5,17.3,7.1,17.1,6.9z"/>
  </g>
</svg>
