<?xml version="1.0" encoding="UTF-8" standalone="no"?>
<svg width="24px" height="24px" viewBox="0 0 24 24" version="1.1" xmlns="http://www.w3.org/2000/svg" xmlns:xlink="http://www.w3.org/1999/xlink">
    <!-- Generator: Sketch 46.2 (44496) - http://www.bohemiancoding.com/sketch -->
    <title>Icon/utility/Indigo/24px/Download</title>
    <desc>Created with Sketch.</desc>
    <defs>
        <polygon id="path-1" points="15.998 0.0488 15.998 1.9998 0.0005 1.9998 0.0005 0.0488 15.998 0.0488"></polygon>
    </defs>
    <g id="Symbols" stroke="none" stroke-width="1" fill="none" fill-rule="evenodd">
        <g id="Icon/utility/Indigo/24px/Download">
            <rect id="Rectangle-6" x="0" y="0" width="24" height="24"></rect>
            <g id="Page-1" transform="translate(4.000000, 3.000000)">
                <g id="Group-3" transform="translate(0.000000, 16.500000)">
                    <g id="Clip-2"></g>
                    <path d="M15.0225,0.0488 L0.9755,0.0488 C0.4395,0.0488 0.0005,0.4878 0.0005,1.0248 C0.0005,1.5608 0.4395,1.9998 0.9755,1.9998 L15.0225,1.9998 C15.5595,1.9998 15.9985,1.5608 15.9985,1.0248 C15.9985,0.4878 15.5595,0.0488 15.0225,0.0488" id="Fill-1" fill="#1F2555" mask="url(#mask-2)"></path>
                </g>
                <path d="M7.4083,14.73 C7.5493,14.9 7.7693,15 7.9983,15 C8.2283,15 8.4493,14.899 8.5893,14.73 L8.5893,14.73 L13.8383,8.447 C14.0163,8.237 14.0493,7.954 13.9233,7.714 C13.7973,7.474 13.5343,7.321 13.2483,7.321 L10.7213,7.321 L10.7213,0 L5.3883,0 L5.3883,7.321 L2.7493,7.321 C2.4633,7.321 2.2003,7.474 2.0743,7.714 C2.0223,7.81 1.9993,7.915 1.9993,8.02 C1.9993,8.172 2.0513,8.325 2.1583,8.447 L7.4083,14.73 Z" id="Fill-4" fill="#1F2555"></path>
            </g>
        </g>
    </g>
</svg>