<svg id="e5293faa-c71a-440b-8637-4d2e1f01f527" data-name="Layer 1" xmlns="http://www.w3.org/2000/svg" viewBox="0 0 32 32"><title>linkedin-solid</title><path d="M4.94,26.79H9.75V12.33H4.94ZM10.06,7.87a2.5,2.5,0,0,0-2.69-2.5,2.51,2.51,0,1,0-.06,5h0A2.51,2.51,0,0,0,10.06,7.87ZM22.25,26.79h4.81V18.5c0-4.44-2.37-6.5-5.54-6.5a4.74,4.74,0,0,0-4.35,2.44h0V12.33H12.4s.06,1.36,0,14.46h4.81V18.71a3.51,3.51,0,0,1,.14-1.17,2.67,2.67,0,0,1,2.48-1.75c1.73,0,2.42,1.31,2.42,3.27v7.73ZM32,6V26a6,6,0,0,1-6,6H6a6,6,0,0,1-6-6V6A6,6,0,0,1,6,0H26A6,6,0,0,1,32,6Z" fill="#1f2555"/></svg>