<?xml version="1.0" encoding="UTF-8" standalone="no"?>
<svg width="24px" height="24px" viewBox="0 0 24 24" version="1.1" xmlns="http://www.w3.org/2000/svg" xmlns:xlink="http://www.w3.org/1999/xlink">
    <!-- Generator: Sketch 46.2 (44496) - http://www.bohemiancoding.com/sketch -->
    <title>Icon/utility/Indigo/24px/Minus-open</title>
    <desc>Created with Sketch.</desc>
    <defs></defs>
    <g id="Symbols" stroke="none" stroke-width="1" fill="none" fill-rule="evenodd">
        <g id="Icon/utility/Indigo/24px/Minus-open">
            <rect id="Rectangle-6" x="0" y="0" width="24" height="24"></rect>
            <g id="Add" transform="translate(1.000000, 1.000000)" fill="#1F2555">
                <path d="M11,20 C6.038,20 2,15.962 2,11 C2,6.038 6.038,2 11,2 C15.962,2 20,6.038 20,11 C20,15.962 15.962,20 11,20 M11,0 C4.937,0 0,4.938 0,11 C0,17.062 4.938,22 11,22 C17.062,22 22,17.062 22,11 C22,4.938 17.062,0 11,0" id="Fill-1"></path>
                <path d="M15,10 L7,10 C6.45,10 6,10.45 6,11 C6,11.55 6.45,12 7,12 L15,12 C15.55,12 16,11.55 16,11 C16,10.45 15.55,10 15,10" id="Fill-3"></path>
            </g>
        </g>
    </g>
</svg>