<?xml version="1.0" encoding="UTF-8" standalone="no"?>
<svg width="24px" height="24px" viewBox="0 0 24 24" version="1.1" xmlns="http://www.w3.org/2000/svg" xmlns:xlink="http://www.w3.org/1999/xlink">
    <!-- Generator: Sketch 46.2 (44496) - http://www.bohemiancoding.com/sketch -->
    <title>Icon/utility/Indigo/24px/Pencil</title>
    <desc>Created with Sketch.</desc>
    <defs></defs>
    <g id="Symbols" stroke="none" stroke-width="1" fill="none" fill-rule="evenodd">
        <g id="Icon/utility/Indigo/24px/Pencil" fill="#1F2555">
            <path d="M19.2758,7.3285 L16.6658,4.7185 C18.1058,3.2785 19.1348,1.9695 20.5858,3.4095 C22.0258,4.8585 20.7148,5.8885 19.2758,7.3285 L19.2758,7.3285 Z M6.8758,19.7285 C5.4358,21.1685 2.9558,21.0385 2.9558,21.0385 C2.9558,21.0385 2.8258,18.5585 4.2648,17.1195 L12.7498,8.6345 L15.3598,11.2445 L6.8758,19.7285 Z M17.9698,8.6345 L16.6658,9.9395 L14.0548,7.3285 L15.3608,6.0235 L17.9698,8.6345 Z M21.8848,2.1085 C19.7258,-0.0515 17.5258,1.2485 15.3558,3.4095 L2.9558,15.8085 C0.7958,17.9785 1.0048,22.9885 1.0048,22.9885 C1.0048,22.9885 6.0148,23.1985 8.1858,21.0385 L20.5858,8.6395 C22.7458,6.4685 24.0458,4.2685 21.8848,2.1085 L21.8848,2.1085 Z" id="Fill-1"></path>
        </g>
    </g>
</svg>