<svg data-name="shape 2" xmlns="http://www.w3.org/2000/svg" viewBox="0 0 1403.08 1148.14"><path d="M145.6,1147.72a43,43,0,0,1-5.62-.38c-14.09-1.88-28.41-10.61-42.55-25.95-14.7-16-28.37-38.19-40.64-66.1-19.3-43.91-44-122.74-52-249-4.09-64.14-7-121.52-1.61-174.23,6.39-62,23.81-105.7,53.27-133.48,15.86-14.95,35.61-25.5,58.7-31.36,24.79-6.28,54.3-7.38,87.73-3.27,55.9,6.89,100.47,7.65,136.25,2.34,33.16-4.93,58.31-15.05,76.89-30.94,19.57-16.76,31.87-39.8,38.71-72.54,6.16-29.44,7.28-63.85,8.46-100.28.35-10.8.71-22,1.22-33.27,1.16-26.25,2.89-48.63,5.29-68.44,2.9-23.92,6.76-44.31,11.81-62.35,5.63-20.12,12.86-37.32,21.49-51.1,9.47-15.14,21-26.82,34.34-34.71C555.34,2,577.41-2.18,602.87.24c27.51,2.62,60,13.06,96.5,31,97.51,47.92,155.37,75.38,210.49,82.59,27,3.52,53.1,2.34,84.77-3.83,27.82-5.42,60.89-14.93,110.58-31.81,48.06-16.32,97-21.21,141.61-14.14,43,6.83,80.29,24.39,107.8,50.79a157.9,157.9,0,0,1,27.29,34.61,155.56,155.56,0,0,1,16.66,41.76c7.55,31.36,6,65.63-4.68,101.84C1376,354,1355,398.12,1336.45,437c-17,35.69-31.66,66.5-40.72,102.71-9.94,39.69-11.8,81.76-5.84,132.39,3.73,31.74,2.36,58.5-4.08,79.53-6,19.63-16.51,34.54-31.21,44.32-11,7.33-24.5,11.85-40.1,13.43-14.77,1.5-31.58.38-50-3.32-34.34-6.92-74.58-23-116.37-46.6-45.65-25.75-92.4-43.87-135.2-52.38-22.89-4.56-44.31-6.26-63.65-5.08-20.61,1.27-38.94,5.84-54.47,13.58C760.12,732.89,739.31,765.68,733,813c-6.7,50.25-20.08,97.84-37.69,134-9.76,20.06-20.79,36.69-32.78,49.45-13,13.79-27.09,23.07-42,27.58-19.27,5.83-40,3.75-61.68-6.19-23.62-10.84-48.62-31.19-74.33-60.49-24.54-28-48.71-47.82-71.82-59-21.23-10.28-42.08-13.49-62-9.55-31.39,6.22-61.16,30.3-88.48,71.56-21.5,32.48-41.47,75.47-59.33,127.79-7.19,21.07-16.45,36.88-27.51,47C166.3,1143.51,156.3,1147.72,145.6,1147.72ZM5,806.32c8.06,126.18,32.74,205,52,248.87,12.25,27.88,25.91,50.1,40.6,66,14.1,15.29,28.36,24,42.4,25.87,12.74,1.7,24.59-2.37,35.23-12.11,11-10.09,20.26-25.87,27.45-46.9,17.86-52.34,37.84-95.35,59.35-127.85,27.36-41.32,57.18-65.43,88.64-71.66,19.94-4,40.84-.73,62.11,9.57,23.15,11.2,47.34,31.07,71.9,59.06,25.69,29.27,50.67,49.6,74.25,60.43,21.6,9.91,42.29,12,61.51,6.18,14.86-4.5,28.95-13.76,41.89-27.52,12-12.73,23-29.34,32.74-49.37,17.59-36.13,31-83.68,37.66-133.91,6.33-47.45,27.18-80.31,62-97.65,15.56-7.75,33.92-12.33,54.56-13.6,19.38-1.19,40.81.52,63.72,5.08,42.82,8.52,89.6,26.65,135.28,52.42,41.76,23.55,82,39.65,116.29,46.57,18.36,3.69,35.15,4.81,49.9,3.32,15.55-1.58,29-6.09,40-13.4,14.64-9.74,25.11-24.61,31.1-44.18,6.43-21,7.8-47.72,4.07-79.43-6-50.66-4.1-92.76,5.84-132.48,9.08-36.23,23.75-67.06,40.75-102.76C1354.74,398,1375.72,354,1393.65,293c10.64-36.17,12.21-70.39,4.68-101.71a155.39,155.39,0,0,0-16.64-41.69A157.17,157.17,0,0,0,1354.45,115c-27.48-26.36-64.71-43.9-107.67-50.72-44.54-7.07-93.47-2.18-141.49,14.13-49.7,16.88-82.78,26.39-110.62,31.82-31.68,6.18-57.85,7.36-84.85,3.83-55.15-7.21-113-34.69-210.56-82.62-36.49-17.94-68.93-28.36-96.41-31-25.41-2.42-47.42,1.76-65.43,12.43-13.28,7.87-24.81,19.52-34.26,34.62-8.61,13.76-15.83,30.94-21.46,51-12,43-15.52,95.19-17.09,130.73-.51,11.29-.87,22.47-1.22,33.27-1.18,36.44-2.3,70.86-8.46,100.32-6.86,32.79-19.19,55.89-38.8,72.68-18.61,15.92-43.8,26.06-77,31-35.8,5.32-80.39,4.56-136.31-2.33-33.4-4.11-62.88-3-87.64,3.27-23,5.84-42.76,16.37-58.59,31.29C27.16,526.54,9.76,570.15,3.38,632.12-2,684.81.9,742.19,5,806.32Z" transform="translate(-0.18 0.42)"/><path d="M201.22,1090.33a37.58,37.58,0,0,1-5.05-.34c-12.69-1.69-25.58-9.55-38.3-23.36-13.24-14.35-25.55-34.37-36.59-59.49-17.37-39.52-39.6-110.47-46.85-224.08C70.75,725.33,68.1,673.68,73,626.25c5.74-55.84,21.42-95.14,47.94-120.14,14.27-13.46,32.05-22.95,52.83-28.22,22.31-5.65,48.87-6.64,79-2.94,50.31,6.2,90.43,6.88,122.63,2.1,29.85-4.43,52.48-13.54,69.19-27.84C483,416.29,484.84,359.48,487,293.71c.31-9.74.64-19.81,1.09-30,3-66.81,10.22-99.17,15.41-117.7,10.72-38.28,27.16-63.55,50.26-77.23,16.25-9.62,36.1-13.4,59-11.21,24.77,2.36,54,11.74,86.86,27.9,87.75,43.13,139.81,67.85,189.42,74.33,24.27,3.18,47.8,2.11,76.29-3.44,25-4.88,54.8-13.45,99.52-28.64,43.26-14.69,87.34-19.09,127.46-12.72,38.72,6.14,72.27,22,97,45.71a141.83,141.83,0,0,1,24.56,31.16,139.89,139.89,0,0,1,15,37.58c6.79,28.23,5.37,59.07-4.22,91.67-16.14,54.88-35,94.56-51.69,129.56-15.29,32.11-28.5,59.85-36.65,92.42-8.95,35.73-10.61,73.59-5.25,119.16,3.36,28.57,2.13,52.65-3.67,71.58-5.41,17.67-14.86,31.09-28.09,39.9-9.91,6.6-22.06,10.67-36.1,12.09-13.29,1.35-28.43.34-45-3-30.91-6.23-67.13-20.73-104.75-41.94-41.08-23.19-83.15-39.49-121.66-47.16-20.6-4.1-39.88-5.64-57.29-4.57-18.54,1.14-35,5.25-49,12.22-31.25,15.57-50,45.08-55.65,87.71-6,45.23-18.09,88.06-33.93,120.59-8.79,18-18.72,33-29.51,44.5C654.77,966.61,642.05,975,628.64,979c-17.35,5.25-36,3.37-55.52-5.58-21.25-9.75-43.76-28.07-66.89-54.43-22.09-25.17-43.84-43-64.64-53.11-19.11-9.24-37.86-12.14-55.75-8.59-28.25,5.6-55,27.26-79.62,64.39-19.36,29.23-37.33,67.92-53.41,115-6.47,19-14.8,33.19-24.75,42.3C219.85,1086.54,210.85,1090.33,201.22,1090.33ZM74.68,783.05c7.25,113.57,29.47,184.49,46.83,224,11,25.09,23.32,45.09,36.54,59.42,12.69,13.77,25.52,21.6,38.15,23.28,11.46,1.53,22.12-2.13,31.69-10.89,9.92-9.09,18.23-23.28,24.68-42.2,16.09-47.12,34.07-85.83,53.44-115.08,24.62-37.19,51.46-58.89,79.78-64.5,17.94-3.55,36.75-.65,55.91,8.62,20.83,10.08,42.61,28,64.72,53.16,23.11,26.34,45.59,44.64,66.8,54.38,19.44,8.92,38,10.79,55.34,5.56,13.38-4,26.06-12.38,37.7-24.76C677,942.57,687,927.62,695.73,909.59c15.84-32.51,27.88-75.31,33.91-120.52,5.69-42.71,24.46-72.29,55.79-87.9,14-7,30.53-11.09,49.11-12.24,17.43-1.06,36.73.47,57.35,4.58,38.54,7.67,80.63,24,121.73,47.18,37.6,21.2,73.79,35.69,104.68,41.92,16.53,3.32,31.63,4.33,44.91,3,14-1.42,26.1-5.47,36-12.05,13.18-8.77,22.59-22.15,28-39.76,5.79-18.9,7-42.94,3.66-71.48-5.37-45.6-3.7-83.49,5.26-119.25,8.16-32.6,21.37-60.34,36.66-92.47,16.66-35,35.55-74.66,51.68-129.52,9.58-32.55,11-63.35,4.22-91.54a140.22,140.22,0,0,0-15-37.52,142.15,142.15,0,0,0-24.52-31.1c-24.73-23.72-58.23-39.51-96.9-45.65-40.08-6.36-84.11-2-127.34,12.72-44.73,15.19-74.5,23.76-99.55,28.64-28.52,5.56-52.07,6.63-76.37,3.45-49.65-6.49-101.72-31.21-189.5-74.36-32.84-16.14-62-25.52-86.77-27.87-22.86-2.18-42.67,1.58-58.87,11.18-23,13.64-39.45,38.86-50.15,77.08-10.82,38.66-14,85.66-15.4,117.64-.45,10.18-.78,20.25-1.09,30-2.14,65.83-4,122.69-42.53,155.68-16.75,14.33-39.43,23.46-69.33,27.9-32.22,4.78-72.35,4.1-122.69-2.1-30.05-3.7-56.59-2.71-78.87,2.93-20.74,5.26-38.48,14.73-52.72,28.16-26.47,25-42.13,64.2-47.86,120C68.35,673.69,71,725.33,74.68,783.05Z" transform="translate(-0.18 0.42)"/><path d="M256.83,1032.93a32.84,32.84,0,0,1-4.5-.31c-11.28-1.5-22.74-8.49-34.06-20.77-11.76-12.76-22.7-30.55-32.52-52.88-15.43-35.13-35.19-98.2-41.63-199.17-3.28-51.32-5.63-97.22-1.29-139.39,5.11-49.64,19-84.57,42.62-106.8,12.69-12,28.49-20.41,47-25.09,19.83-5,43.45-5.9,70.19-2.61,44.72,5.5,80.37,6.11,109,1.86,26.53-3.93,46.64-12,61.49-24.74,34.19-29.25,35.84-79.72,37.75-138.17.28-8.67.57-17.63,1-26.69,2.63-59.4,9.07-88.17,13.68-104.64,9.52-34,24.14-56.5,44.67-68.66,14.45-8.56,32.1-11.91,52.47-10,22,2.1,48,10.44,77.21,24.81,78,38.33,124.29,60.3,168.38,66.07,21.57,2.82,42.49,1.87,67.81-3.07,22.26-4.33,48.72-12,88.46-25.45,38.46-13.06,77.64-17,113.32-11.3,34.42,5.46,64.25,19.52,86.25,40.64a123.35,123.35,0,0,1,35.16,61.11c6,25.09,4.77,52.51-3.76,81.49-14.35,48.77-31.13,84-45.94,115.14-13.59,28.55-25.32,53.2-32.57,82.16-8,31.75-9.43,65.41-4.67,105.91,3,25.4,1.89,46.81-3.27,63.64-4.81,15.71-13.21,27.65-25,35.47-17.3,11.52-41.55,14.24-72.08,8.09-27.47-5.54-59.67-18.44-93.1-37.3-36.53-20.6-73.93-35.08-108.16-41.89-18.31-3.64-35.44-5-50.91-4-16.49,1-31.14,4.67-43.56,10.86-27.77,13.84-44.41,40.06-49.46,77.94-5.36,40.21-16.08,78.27-30.16,107.19-7.81,16-16.64,29.35-26.23,39.56C660,923,648.69,930.38,636.77,934c-15.43,4.67-32,3-49.36-5-18.89-8.67-38.9-24.95-59.47-48.39-19.63-22.37-39-38.25-57.44-47.2-17-8.22-33.65-10.78-49.55-7.63C395.84,830.78,372,850,350.17,883,333,909,317,943.42,302.71,985.27c-5.75,16.85-13.16,29.51-22,37.61C273.4,1029.56,265.39,1032.93,256.83,1032.93ZM144.37,759.78c6.44,100.94,26.18,164,41.61,199.09,9.81,22.3,20.73,40.07,32.48,52.81,11.27,12.24,22.68,19.2,33.9,20.7,10.19,1.35,19.67-1.9,28.17-9.68,8.82-8.08,16.2-20.7,22-37.51,14.29-41.87,30.27-76.28,47.49-102.29,21.89-33.06,45.75-52.35,70.93-57.34,16-3.16,32.68-.58,49.7,7.66,18.52,9,37.88,24.86,57.53,47.26,20.55,23.41,40.53,39.67,59.38,48.32,17.27,7.93,33.82,9.59,49.18,5,11.89-3.6,23.16-11,33.51-22,9.57-10.19,18.38-23.48,26.19-39.5,14.07-28.89,24.77-66.93,30.14-107.11,5.06-38,21.74-64.26,49.58-78.14,12.46-6.2,27.14-9.87,43.66-10.88,15.5-1,32.65.41,51,4C905,687,942.43,701.48,979,722.09c33.41,18.85,65.58,31.74,93,37.27,30.46,6.14,54.65,3.43,71.9-8,11.71-7.8,20.08-19.69,24.88-35.34,5.14-16.8,6.24-38.18,3.25-63.54-4.76-40.54-3.28-74.22,4.68-106,7.25-29,19-53.65,32.59-82.2,14.8-31.11,31.58-66.36,45.92-115.11,8.52-28.94,9.78-56.31,3.76-81.36a123.18,123.18,0,0,0-35.09-61c-22-21.09-51.75-35.12-86.12-40.57-35.63-5.66-74.77-1.76-113.2,11.29C984.83,191,958.36,198.62,936.09,203c-25.35,4.94-46.29,5.89-67.89,3.06-44.13-5.77-90.43-27.74-168.46-66.09-29.19-14.35-55.14-22.69-77.12-24.78-20.32-1.94-37.92,1.41-52.32,9.93-20.48,12.13-35,34.54-44.56,68.52-9.62,34.37-12.41,76.14-13.67,104.58-.41,9.06-.7,18-1,26.69-1.92,58.5-3.57,109-37.83,138.35C458.37,476,438.21,484.08,411.63,488c-28.63,4.25-64.31,3.64-109-1.87-26.71-3.28-50.29-2.41-70.1,2.61-18.43,4.68-34.2,13.1-46.86,25C162.1,536,148.18,570.86,143.08,620.43,138.74,662.59,141.1,708.48,144.37,759.78Z" transform="translate(-0.18 0.42)"/><path d="M301.31,987a30.8,30.8,0,0,1-4-.27c-10.16-1.35-20.47-7.64-30.66-18.69-10.59-11.49-20.43-27.5-29.27-47.6-13.89-31.61-31.68-88.38-37.48-179.26-2.94-46.18-5.07-87.49-1.16-125.45,4.6-44.68,17.14-76.12,38.36-96.12,11.42-10.78,25.65-18.37,42.28-22.59,17.85-4.52,39.1-5.32,63.17-2.36,77.16,9.5,125.92,3,153.44-20.58,30.76-26.33,32.24-71.77,34-124.38.26-7.79.52-15.85.88-24,2.37-53.43,8.16-79.32,12.31-94.15,8.58-30.63,21.73-50.85,40.22-61.8,13-7.7,28.9-10.72,47.24-9,19.82,1.89,43.2,9.4,69.5,22.32,70.19,34.51,111.84,54.29,151.52,59.48,19.41,2.54,38.23,1.69,61-2.76,20-3.9,43.84-10.75,79.62-22.9,34.61-11.75,69.88-15.28,102-10.19,31,4.91,57.82,17.55,77.63,36.56a111.17,111.17,0,0,1,31.66,55c5.43,22.58,4.3,47.26-3.37,73.35-12.92,43.91-28,75.65-41.36,103.66-12.22,25.69-22.79,47.88-29.31,73.94-7.16,28.58-8.49,58.87-4.2,95.32,2.68,22.86,1.7,42.13-2.94,57.27-4.33,14.14-11.9,24.88-22.49,31.93-15.57,10.36-37.4,12.81-64.88,7.27-24.73-5-53.7-16.59-83.79-33.57-32.87-18.54-66.53-31.57-97.35-37.7-16.48-3.28-31.9-4.51-45.82-3.65-14.84.92-28,4.2-39.2,9.78-25,12.45-40,36-44.49,70.13-4.84,36.19-14.48,70.46-27.16,96.49-7,14.44-15,26.42-23.61,35.6C664.18,888,654,894.72,643.26,898c-13.88,4.2-28.83,2.7-44.43-4.46-17-7.81-35-22.46-53.52-43.55-17.67-20.13-35.06-34.43-51.7-42.48-15.28-7.4-30.28-9.71-44.59-6.88-22.59,4.47-44,21.8-63.69,51.5-15.48,23.38-29.85,54.33-42.72,92-5.18,15.18-11.84,26.57-19.81,33.86C316.23,984,309,987,301.31,987ZM200.11,741.17c5.8,90.84,23.57,147.57,37.46,179.17,8.82,20.07,18.66,36.06,29.23,47.53,10.14,11,20.41,17.27,30.5,18.61,9.16,1.23,17.69-1.7,25.33-8.7,7.94-7.27,14.58-18.63,19.74-33.76,12.88-37.69,27.26-68.66,42.76-92.06,19.7-29.75,41.18-47.12,63.84-51.61,14.36-2.84,29.42-.52,44.75,6.9,16.67,8.07,34.09,22.38,51.78,42.54,18.49,21.07,36.47,35.7,53.44,43.49,15.53,7.14,30.42,8.63,44.25,4.45,10.69-3.24,20.84-9.9,30.15-19.8,8.61-9.17,16.55-21.12,23.57-35.54,12.67-26,22.3-60.25,27.13-96.41,4.55-34.17,19.56-57.83,44.62-70.33,11.21-5.58,24.43-8.88,39.3-9.8,13.95-.85,29.39.37,45.89,3.65,30.84,6.13,64.53,19.18,97.42,37.74,30.07,17,59,28.56,83.72,33.54,27.41,5.52,49.17,3.09,64.69-7.24,22-14.65,30.54-44.58,25.32-89-4.29-36.48-3-66.8,4.21-95.41,6.53-26.09,17.09-48.29,29.33-74,13.33-28,28.43-59.73,41.34-103.62,7.65-26,8.79-50.68,3.36-73.23a110.82,110.82,0,0,0-31.59-54.88c-19.77-19-46.57-31.59-77.49-36.49-32.06-5.09-67.28-1.56-101.86,10.18-35.79,12.15-59.61,19-79.65,22.91-22.82,4.45-41.66,5.3-61.1,2.75-39.72-5.19-81.38-25-151.6-59.49-26.27-12.92-49.63-20.42-69.41-22.3-18.29-1.74-34.13,1.27-47.09,8.94C565,180.87,551.9,201,543.35,231.61c-8.66,30.93-11.17,68.52-12.31,94.1-.36,8.14-.62,16.21-.88,24-1.72,52.67-3.2,98.16-34,124.56-27.57,23.59-76.39,30.15-153.63,20.64-24-3-45.26-2.16-63.08,2.35-16.59,4.21-30.78,11.79-42.17,22.53-21.17,20-33.69,51.35-38.28,96C195.05,653.7,197.17,695,200.11,741.17Z" transform="translate(-0.18 0.42)"/></svg>
