<svg data-name="shape 01" xmlns="http://www.w3.org/2000/svg" viewBox="0 0 1377.25 825.18"><path d="M632.25,825.12c-45.81,0-87-5.16-122.77-18.61C449.79,784,405.05,737.6,353.24,683.89c-28.52-29.57-58-60.15-94-91.48-25.95-22.6-55.4-45.59-83.88-67.83C132.79,491.32,88.74,456.92,56,423.51c-17.63-18-30.69-34.27-39.95-49.81C5.67,356.26.31,340.21-.32,324.62c-.83-20.47,6.87-41.87,22.9-63.58,14.38-19.48,36-39.88,64.13-60.62C145.32,157.27,225.11,118,280,92.24,363.16,53,424.31,29.18,478.33,14.9,546.15-3,600.91-4.82,645.75,9.44,668.89,16.8,691.37,29,716.49,47.75c22.4,16.74,44.12,36.64,67.12,57.71,21,19.23,42.68,39.11,66.71,58.28,27.26,21.73,53.47,39.2,80.11,53.39,52.27,27.84,115.9,48.24,177.44,68,44,14.11,85.65,27.45,123.37,43.29a442.59,442.59,0,0,1,52.48,25.72c16.84,9.85,30.64,19.95,42.19,30.87a160.64,160.64,0,0,1,39.7,58.48,167.86,167.86,0,0,1,11.15,67.43c-1,29.29-9.27,59.58-23.82,87.59a238.25,238.25,0,0,1-26.64,40.46,252.42,252.42,0,0,1-35.77,35.84c-93.83,77.16-258.73,101.52-404.22,123l-18.91,2.8C780.82,813.37,701.34,825.12,632.25,825.12ZM579.92.19c-30.16,0-63.82,5-101.53,15-54,14.27-115.14,38.12-198.25,77.33C165.48,146.27,114.92,180,86.86,200.62s-49.72,41.11-64.08,60.57c-16,21.67-23.68,43-22.85,63.42.63,15.54,6,31.56,16.34,49,9.24,15.52,22.29,31.8,39.91,49.77,32.73,33.4,76.77,67.79,119.36,101,28.48,22.24,57.93,45.24,83.89,67.84,36,31.34,65.47,61.92,94,91.49,51.79,53.69,96.51,100.06,156.15,122.57,89.52,33.7,213.84,15.33,357.79-5.95l18.91-2.79c145.46-21.49,310.33-45.85,404.11-123a252.83,252.83,0,0,0,35.72-35.8,238.22,238.22,0,0,0,26.62-40.42c14.53-28,22.76-58.23,23.79-87.49a167.71,167.71,0,0,0-11.13-67.33,160.24,160.24,0,0,0-39.64-58.38c-11.53-10.91-25.32-21-42.15-30.84a440.52,440.52,0,0,0-52.45-25.71c-37.71-15.84-79.31-29.17-123.35-43.28-61.55-19.73-125.19-40.13-177.47-68-26.66-14.2-52.88-31.67-80.15-53.42-24-19.17-45.75-39.05-66.73-58.28-23-21.07-44.71-41-67.1-57.7C691.24,29.19,668.79,17,645.68,9.68,625.81,3.36,604,.19,579.92.19ZM636.3,795c-42.44,0-80.65-4.78-113.75-17.23-55.31-20.89-96.75-63.86-144.74-113.61-26.45-27.43-53.81-55.8-87.19-84.86-24.08-21-51.4-42.3-77.82-62.93-39.46-30.82-80.27-62.68-110.6-93.64-16.33-16.66-28.44-31.75-37-46.15-9.62-16.15-14.58-31-15.17-45.47-.77-19,6.38-38.81,21.24-58.94,13.33-18.06,33.33-37,59.45-56.19C185,176,259,139.57,309.88,115.67c77-36.35,133.72-58.46,183.79-71.7,62.86-16.62,113.63-18.27,155.2-5,21.45,6.82,42.28,18.1,65.56,35.5,20.76,15.51,40.9,34,62.21,53.49,37.9,34.72,80.85,74.08,136.1,103.5,48.45,25.82,107.43,44.73,164.47,63,40.82,13.08,79.37,25.44,114.33,40.12a412.06,412.06,0,0,1,48.64,23.84c15.61,9.13,28.4,18.49,39.1,28.61a148.73,148.73,0,0,1,36.8,54.19,155.68,155.68,0,0,1,10.33,62.49c-1,27.16-8.59,55.23-22.08,81.2a229.16,229.16,0,0,1-57.83,70.72c-87,71.52-239.83,94.1-374.68,114l-17.62,2.6C774,784.07,700.32,795,636.3,795ZM587.84,30.37c-28,0-59.16,4.61-94.1,13.84C443.68,57.45,387,79.56,310,115.9,203.71,165.78,156.85,197,130.86,216.13s-46.09,38.1-59.4,56.14c-14.83,20.08-22,39.86-21.19,58.78.59,14.4,5.54,29.24,15.14,45.36,8.56,14.37,20.65,29.45,37,46.1,30.32,30.94,71.12,62.8,110.58,93.61,26.42,20.63,53.74,42,77.82,62.94,33.39,29.07,60.75,57.44,87.21,84.87,48,49.74,89.4,92.69,144.65,113.56,83,31.21,198.15,14.19,331.53-5.53l17.62-2.6c134.81-19.91,287.62-42.48,374.55-114a228.81,228.81,0,0,0,57.77-70.64c13.47-25.93,21.1-54,22.05-81.09a155.19,155.19,0,0,0-10.32-62.39,148.43,148.43,0,0,0-36.73-54.1c-20.24-19.13-48.1-35.78-87.66-52.4-35-14.67-73.5-27-114.31-40.11-57.06-18.29-116.05-37.2-164.52-63-55.28-29.45-98.24-68.81-136.14-103.54-21.32-19.53-41.45-38-62.2-53.48C691,57.24,670.21,46,648.79,39.16,630.37,33.3,610.13,30.37,587.84,30.37Zm52.58,734.42c-39.11,0-74.31-4.41-104.8-15.88-51-19.24-89.14-58.83-133.35-104.68C377.91,619,352.73,592.85,322,566.09c-22.16-19.29-47.31-38.93-71.63-57.92-36.36-28.39-74-57.75-101.91-86.26-15-15.35-26.2-29.26-34.09-42.53-8.87-14.89-13.45-28.59-14-41.9-.71-17.48,5.87-35.74,19.56-54.28,12.28-16.63,30.7-34,54.76-51.76,50-36.83,118.16-70.34,165.05-92.34,70.93-33.48,123.14-53.85,169.28-66,57.9-15.31,104.67-16.83,143-4.65,19.76,6.29,39,16.68,60.39,32.7,19.13,14.29,37.68,31.29,57.32,49.28,34.89,32,74.45,68.21,125.32,95.32,44.62,23.77,99,41.18,151.49,58,37.6,12,73.11,23.43,105.31,36.95C1188.29,356,1214,371.34,1232.64,389a137.08,137.08,0,0,1,33.89,49.92,143.45,143.45,0,0,1,9.51,57.58c-.88,25-7.91,50.87-20.33,74.79a211,211,0,0,1-53.27,65.14c-80.08,65.86-220.82,86.65-345,105l-16.08,2.37C767.39,754.74,699.46,764.79,640.42,764.79ZM595.76,60.54c-25.75,0-54.48,4.24-86.66,12.75-46.13,12.19-98.33,32.56-169.24,66-113,53-242.26,123.43-239.23,198.14.54,13.27,5.11,26.93,14,41.79,7.89,13.24,19,27.14,34.06,42.47,28,28.51,65.53,57.86,101.88,86.24,24.33,19,49.48,38.63,71.65,57.93,30.73,26.77,55.92,52.89,80.27,78.15,44.2,45.83,82.36,85.41,133.26,104.62,76.48,28.77,182.68,13.06,305.65-5.13l16.07-2.37c124.14-18.34,264.83-39.12,344.86-104.94a210.88,210.88,0,0,0,53.21-65.06c12.4-23.89,19.43-49.71,20.3-74.69a143,143,0,0,0-9.5-57.48,136.59,136.59,0,0,0-33.83-49.83c-18.63-17.63-44.29-33-80.74-48.27C1119.53,327.39,1084,316,1046.43,304c-52.55-16.85-106.89-34.26-151.53-58-50.9-27.13-90.46-63.37-125.37-95.36-19.63-18-38.18-35-57.29-49.26-21.43-16-40.6-26.39-60.33-32.66C634.94,63.24,616.3,60.54,595.76,60.54Zm48.76,674.07c-35.76,0-67.95-4-95.84-14.52-46.56-17.58-81.46-53.76-121.87-95.66-22.29-23.1-45.33-47-73.45-71.47-20.26-17.64-43.24-35.59-65.47-53-33.24-26-67.62-52.81-93.18-78.89-13.75-14-24-26.75-31.18-38.88-8.11-13.62-12.29-26.15-12.78-38.32-.65-16,5.36-32.69,17.88-49.65,11.23-15.21,28.07-31.13,50.07-47.33,45.74-33.67,108-64.32,150.9-84.44,64.89-30.61,112.63-49.23,154.78-60.37,53-14,95.7-15.39,130.7-4.25,18.07,5.75,35.62,15.25,55.23,29.9,17.49,13.07,34.45,28.61,52.41,45.06,31.9,29.23,68.07,62.36,114.58,87.14h0c40.8,21.74,90.49,37.66,138.53,53.06,34.37,11,66.84,21.42,96.28,33.79,33.35,14,56.83,28,73.9,44.17a125.33,125.33,0,0,1,31,45.65,131,131,0,0,1,8.7,52.64c-.81,22.87-7.24,46.51-18.6,68.38a193.14,193.14,0,0,1-48.72,59.57c-73.18,60.2-201.79,79.22-315.26,96l-15.06,2.22C760.49,725.45,698.45,734.61,644.52,734.61ZM603.68,90.71c-23.54,0-49.81,3.88-79.23,11.66-42.14,11.14-89.86,29.76-154.75,60.36C266.42,211.2,148.22,275.6,151,343.91c.49,12.13,4.66,24.62,12.75,38.2,7.21,12.11,17.4,24.81,31.14,38.84,25.55,26.06,59.92,52.9,93.15,78.86,22.23,17.36,45.22,35.32,65.48,53,28.13,24.49,51.18,48.38,73.47,71.49,40.39,41.87,75.27,78,121.78,95.6,69.88,26.29,166.91,12,279.26-4.64L843.09,713c113.43-16.77,242-35.78,315.13-96a192.61,192.61,0,0,0,48.66-59.48c11.35-21.84,17.77-45.45,18.57-68.28a130.76,130.76,0,0,0-8.68-52.54,125.17,125.17,0,0,0-30.93-45.56c-17-16.11-40.5-30.13-73.82-44.12-29.43-12.36-61.9-22.77-96.27-33.78C967.7,297.88,918,282,877.18,260.2c-46.54-24.8-82.72-57.94-114.63-87.18-17.95-16.44-34.91-32-52.38-45-19.59-14.63-37.12-24.12-55.16-29.86C639.5,93.18,622.45,90.71,603.68,90.71Zm44.94,613.73c-32.4,0-61.58-3.65-86.85-13.16-42.23-15.95-73.88-48.76-110.52-86.75C431.06,583.6,410.2,562,384.74,539.8c-18.36-16-39.21-32.27-59.36-48-30.13-23.52-61.28-47.85-84.44-71.48-12.46-12.72-21.71-24.25-28.25-35.24-7.35-12.34-11.14-23.7-11.58-34.73-2.52-62,104.68-120.46,198.36-164.41,58.79-27.74,102-44.62,140.26-54.73,48-12.68,86.73-13.94,118.47-3.84,16.37,5.2,32.28,13.81,50,27.09,15.85,11.84,31.22,25.93,47.49,40.84,28.92,26.49,61.69,56.53,103.86,79h0c37,19.69,82,34.11,125.49,48.06,31.16,10,60.59,19.42,87.28,30.63,30.24,12.7,51.52,25.42,67,40a113.48,113.48,0,0,1,28.1,41.37,118.88,118.88,0,0,1,7.89,47.7c-.73,20.73-6.56,42.16-16.85,62a174.84,174.84,0,0,1-44.16,54c-66.36,54.55-182.94,71.8-285.8,87l-13.66,2C753.67,696.14,697.48,704.44,648.62,704.44Zm-37-583.56c-21.33,0-45.13,3.52-71.79,10.57-38.2,10.09-81.45,27-140.23,54.71C306,230.08,198.84,288.43,201.36,350.33c.44,11,4.22,22.31,11.54,34.61,6.54,11,15.77,22.49,28.22,35.2,23.15,23.61,54.29,47.94,84.41,71.45,20.16,15.75,41,32,59.38,48,25.46,22.18,46.33,43.82,66.52,64.74,36.62,38,68.25,70.77,110.43,86.69,63.3,23.83,151.21,10.84,253-4.19l13.65-2c102.83-15.21,219.38-32.44,285.69-87A174.89,174.89,0,0,0,1158.28,544c10.28-19.79,16.09-41.19,16.82-61.88a118.59,118.59,0,0,0-7.88-47.6,113.26,113.26,0,0,0-28-41.28c-15.44-14.6-36.71-27.32-66.91-40-26.68-11.2-56.11-20.63-87.27-30.62-43.53-13.95-88.55-28.38-125.53-48.08-42.19-22.48-75-52.52-103.91-79-16.26-14.9-31.63-29-47.47-40.82-17.75-13.26-33.63-21.86-50-27.05C644.06,123.12,628.61,120.88,611.59,120.88Zm41.16,553.39c-29.08,0-55.25-3.27-77.91-11.81-37.87-14.29-66.24-43.71-99.09-77.78-18.09-18.76-36.8-38.16-59.63-58-16.45-14.32-35.13-28.9-53.18-43-27-21.1-55-42.91-75.73-64.11-11.19-11.4-19.48-21.74-25.35-31.6-6.59-11.07-10-21.26-10.39-31.15-2.26-55.63,93.85-108,177.84-147.42,52.73-24.88,91.52-40,125.78-49.07,43-11.38,77.78-12.51,106.23-3.45,14.68,4.67,28.94,12.39,44.88,24.29,14.21,10.62,28,23.25,42.58,36.62,25.92,23.75,55.3,50.67,93.1,70.81,33.15,17.67,73.52,30.6,112.56,43.11,55.46,17.77,107.84,34.56,138.3,63.34a102,102,0,0,1,25.19,37.12,106.59,106.59,0,0,1,7.06,42.81,131.79,131.79,0,0,1-15.11,55.56,157,157,0,0,1-39.59,48.39c-59.54,49-164.17,64.42-256.49,78.05l-11.71,1.73C747.1,666.81,696.62,674.27,652.75,674.27ZM619.53,151.05c-19.13,0-40.47,3.16-64.38,9.48-34.24,9.05-73,24.18-125.73,49.06-83.92,39.38-180,91.7-177.7,147.18.4,9.85,3.79,20,10.36,31,5.86,9.84,14.13,20.16,25.3,31.56,20.77,21.18,48.7,43,75.71,64.08,18.06,14.1,36.74,28.68,53.2,43,22.83,19.89,41.54,39.3,59.64,58.06,32.83,34,61.18,63.45,99,77.72,56.81,21.39,135.73,9.71,227.12-3.8l11.71-1.73c92.29-13.63,196.89-29.08,256.37-78a156.52,156.52,0,0,0,39.52-48.3c9.22-17.74,14.44-36.91,15.09-55.46a106.23,106.23,0,0,0-7-42.7,101.5,101.5,0,0,0-25.13-37c-30.41-28.75-82.77-45.53-138.2-63.29-39.05-12.51-79.42-25.45-112.6-43.13-37.82-20.15-67.22-47.09-93.15-70.85-14.59-13.36-28.36-26-42.56-36.6-15.92-11.89-30.15-19.59-44.81-24.25A136.45,136.45,0,0,0,619.53,151.05ZM656.8,644.11c-25.71,0-48.85-2.9-68.9-10.44C554.41,621,529.31,595,500.25,564.86c-16-16.6-32.57-33.76-52.77-51.35-14.56-12.69-31.09-25.6-47.08-38.09-23.9-18.66-48.61-37.95-67-56.7-9.89-10.09-17.22-19.24-22.42-28-5.83-9.79-8.83-18.81-9.19-27.56-2-49.23,83.05-95.57,157.35-130.44,46.65-22,81-35.39,111.27-43.4,38.07-10.07,68.81-11.07,94-3.07,28.43,9.05,51.11,29.83,77.36,53.89,23,21,49,44.85,82.41,62.66,29.32,15.62,65,27.06,99.53,38.12,49.08,15.73,95.44,30.59,122.38,56.07a90.25,90.25,0,0,1,22.29,32.82,94.33,94.33,0,0,1,6.26,37.85,116.57,116.57,0,0,1-13.37,49.18,138.81,138.81,0,0,1-35,42.84c-52.67,43.32-145.22,57-226.88,69l-10.46,1.55C740.26,637.5,695.61,644.11,656.8,644.11Zm-29.34-462.9c-16.92,0-35.81,2.79-57,8.39-30.29,8-64.6,21.39-111.24,43.39C385,267.83,300.08,314.1,302.06,363.19c.35,8.71,3.35,17.69,9.16,27.44,5.18,8.71,12.5,17.84,22.38,27.92,18.36,18.73,43.06,38,66.95,56.68,16,12.49,32.53,25.4,47.1,38.09,20.21,17.6,36.77,34.77,52.78,51.37,29,30.11,54.12,56.11,87.56,68.75,50.26,18.9,120,8.57,200.87-3.38l10.45-1.55c81.63-12,174.15-25.7,226.76-69a138.69,138.69,0,0,0,35-42.76,116.47,116.47,0,0,0,13.34-49.08,94,94,0,0,0-6.25-37.75,89.85,89.85,0,0,0-22.23-32.73c-26.89-25.44-73.22-40.29-122.27-56-34.53-11.07-70.24-22.51-99.57-38.14-33.49-17.83-59.51-41.67-82.47-62.7-26.23-24-48.89-44.79-77.26-53.83A121.15,121.15,0,0,0,627.46,181.21Zm33.45,432.72c-22.36,0-42.49-2.51-59.92-9.07-29.15-11-51-33.65-76.26-59.86-13.92-14.44-28.31-29.36-45.86-44.65-12.67-11-27-22.25-40.94-33.1-20.78-16.23-42.28-33-58.26-49.32-8.6-8.77-15-16.73-19.5-24.31-5.07-8.52-7.69-16.36-8-24C350.44,326.82,424.4,286.52,489,256.19c40.54-19.14,70.38-30.78,96.76-37.76,33.11-8.75,59.85-9.62,81.74-2.66,24.72,7.87,44.45,25.94,67.29,46.87,19.95,18.28,42.56,39,71.64,54.48C832,330.71,863,340.67,893.05,350.3c42.67,13.67,83,26.59,106.41,48.75a78.48,78.48,0,0,1,19.38,28.54,82.12,82.12,0,0,1,5.44,32.91,101.48,101.48,0,0,1-11.62,42.79,120.88,120.88,0,0,1-30.47,37.27c-45.77,37.63-126.17,49.52-197.11,60l-9.47,1.4C733.38,608.21,694.61,613.93,660.91,613.93ZM635.38,211.38c-14.71,0-31.13,2.43-49.52,7.29-26.37,7-56.2,18.62-96.73,37.75C424.58,286.71,350.7,327,352.42,369.63c.58,14.15,9.55,29.89,27.43,48.13,16,16.29,37.46,33.07,58.23,49.29,13.9,10.86,28.28,22.08,40.95,33.11,17.56,15.3,32,30.22,45.88,44.66,25.26,26.2,47.08,48.82,76.17,59.8,43.65,16.43,104.29,7.47,174.5-2.89l9.46-1.4c70.91-10.49,151.27-22.38,197-60a120.57,120.57,0,0,0,30.41-37.2A101.3,101.3,0,0,0,1024,460.49a81.66,81.66,0,0,0-5.43-32.81,78,78,0,0,0-19.31-28.45c-23.4-22.12-63.67-35-106.31-48.7-30.05-9.63-61.11-19.58-86.63-33.18h0c-29.12-15.51-51.74-36.24-71.7-54.53-22.82-20.91-42.52-39-67.2-46.81A105.27,105.27,0,0,0,635.38,211.38ZM665,583.76c-19,0-36.11-2.14-50.94-7.72-24.76-9.35-43.32-28.59-64.8-50.86-11.84-12.28-24.08-25-39-38-10.77-9.37-23-18.91-34.8-28.14-17.67-13.8-35.94-28.07-49.53-41.93-15.24-15.55-22.89-29-23.39-41.06-1.47-36.42,61.4-70.68,116.34-96.46,34.51-16.28,59.88-26.18,82.28-32.1,28.15-7.45,50.88-8.19,69.5-2.27,21,6.69,37.78,22.05,57.19,39.84,17,15.53,36.18,33.14,60.91,46.32,21.67,11.54,48.07,20,73.59,28.19,36.28,11.62,70.55,22.61,90.47,41.44a66.79,66.79,0,0,1,16.49,24.29,69.75,69.75,0,0,1,4.62,28A86.09,86.09,0,0,1,964,489.7a102.53,102.53,0,0,1-25.91,31.67c-38.91,32-107.32,42.12-167.67,51l-8,1.18C726.56,578.9,693.63,583.76,665,583.76Zm-21.68-342.2c-12.51,0-26.47,2.06-42.11,6.2-22.38,5.92-47.74,15.81-82.23,32.09-54.87,25.74-117.66,59.95-116.2,96.22.5,12,8.12,25.39,23.32,40.9,13.57,13.85,31.84,28.11,49.5,41.9,11.82,9.23,24,18.78,34.81,28.15,14.94,13,27.18,25.71,39,38,21.46,22.26,40,41.48,64.71,50.81,37.1,14,88.6,6.35,148.24-2.45l8-1.19c60.32-8.92,128.68-19,167.55-51a102.34,102.34,0,0,0,25.83-31.59,85.82,85.82,0,0,0,9.86-36.27,69.26,69.26,0,0,0-4.61-27.9,66.28,66.28,0,0,0-16.42-24.2c-19.88-18.79-54.12-29.77-90.37-41.39-25.54-8.18-51.94-16.65-73.64-28.2-24.76-13.19-44-30.81-61-46.36-19.39-17.76-36.13-33.11-57.1-39.78A89.38,89.38,0,0,0,643.32,241.56Zm25.81,312c-15.68,0-29.78-1.76-42-6.36-20.41-7.71-35.7-23.56-53.41-41.92-9.74-10.1-19.82-20.55-32.11-31.25-8.86-7.72-18.92-15.57-28.65-23.17-14.55-11.37-29.61-23.12-40.8-34.54-12.56-12.82-18.86-23.89-19.26-33.85-1.22-30,50.58-58.24,95.84-79.48,28.41-13.4,49.31-21.55,67.76-26.43,23.18-6.13,41.91-6.74,57.24-1.86,17.34,5.52,31.16,18.18,47.16,32.85,14,12.79,29.78,27.28,50.13,38.13,17.85,9.51,39.59,16.47,60.62,23.21,29.88,9.58,58.11,18.63,74.54,34.14a55.71,55.71,0,0,1,17.38,43.08,71,71,0,0,1-8.15,30,84.79,84.79,0,0,1-21.34,26.11c-32,26.34-88.34,34.67-138,42l-6.45,1C720,549.57,692.77,553.59,669.13,553.59ZM651.22,271.73c-10.3,0-21.79,1.7-34.66,5.1-18.43,4.87-39.32,13-67.71,26.42-45.19,21.2-96.91,49.37-95.7,79.24.4,9.9,6.67,20.91,19.19,33.68,11.18,11.41,26.23,23.16,40.77,34.52,9.73,7.6,19.79,15.46,28.66,23.18,12.3,10.71,22.38,21.16,32.13,31.27,17.69,18.33,33,34.16,53.31,41.85,30.61,11.52,73.13,5.23,122.37-2l6.45-1c49.64-7.34,105.9-15.66,137.89-42a84.37,84.37,0,0,0,21.28-26,70.81,70.81,0,0,0,8.12-29.86A55.46,55.46,0,0,0,906,403.24c-16.38-15.47-44.58-24.51-74.44-34.08-21-6.74-42.79-13.71-60.66-23.23h0c-20.37-10.86-36.21-25.37-50.18-38.17-16-14.64-29.78-27.29-47.06-32.79A73.61,73.61,0,0,0,651.22,271.73Zm22,251.69c-12.31,0-23.4-1.39-33-5-16.05-6-28.08-18.52-42-33-7.65-7.93-15.57-16.14-25.22-24.55-7-6.06-14.86-12.23-22.5-18.19-11.44-8.93-23.28-18.17-32.08-27.15-9.88-10.08-14.83-18.78-15.15-26.62-1-23.58,39.74-45.78,75.33-62.49,22.32-10.54,38.74-16.95,53.26-20.79,18.23-4.82,32.95-5.29,45-1.45,13.62,4.33,24.48,14.28,37,25.8,11,10.06,23.42,21.46,39.42,30,14,7.46,31.09,12.94,47.59,18.23,23.51,7.53,45.71,14.65,58.62,26.86a43.77,43.77,0,0,1,13.68,33.85,56,56,0,0,1-6.4,23.57A66.45,66.45,0,0,1,850,483c-25.2,20.72-69.44,27.27-108.48,33l-5.1.75C713.17,520.26,691.79,523.42,673.21,523.42ZM659.14,301.9a107,107,0,0,0-27.22,4c-14.51,3.83-30.92,10.24-53.23,20.77-35.51,16.67-76.16,38.81-75.18,62.25.31,7.77,5.25,16.42,15.08,26.45,8.79,9,20.62,18.2,32,27.13,7.64,6,15.55,12.14,22.51,18.2,9.66,8.42,17.58,16.63,25.24,24.57,13.9,14.42,25.91,26.87,41.91,32.9,24,9.06,57.43,4.11,96.12-1.62l5.11-.75c39-5.77,83.2-12.3,108.35-33a66.5,66.5,0,0,0,16.72-20.45A55.64,55.64,0,0,0,873,438.92a43.53,43.53,0,0,0-13.6-33.66c-12.87-12.17-35-19.28-58.52-26.8-16.52-5.3-33.6-10.78-47.64-18.25h0c-16-8.54-28.48-19.95-39.47-30-12.55-11.5-23.39-21.43-37-25.74A57.73,57.73,0,0,0,659.14,301.9Zm18.12,191.35c-8.94,0-17-1-24-3.63-11.69-4.42-20.45-13.5-30.58-24-5.57-5.77-11.32-11.73-18.33-17.85-5.07-4.41-10.82-8.89-16.38-13.24-16.65-13-33.87-26.44-34.39-39.16-.68-17.18,28.95-33.33,54.83-45.48,25.62-12.09,52-22.42,71.55-16.19,9.91,3.15,17.81,10.39,27,18.78,8,7.31,17,15.6,28.66,21.8,10.2,5.44,22.63,9.42,34.66,13.27,17.09,5.48,33.23,10.65,42.62,19.53a31.92,31.92,0,0,1,10,24.7c-.41,11.76-6.73,23.76-16.89,32.09-18.37,15.11-50.66,19.87-79.15,24.06l-3.56.52C706.33,491,690.78,493.25,677.26,493.25ZM667,332.07c-17.43,0-38.19,8.46-58.47,18-25.82,12.12-55.36,28.21-54.69,45.24.51,12.6,17.69,26,34.3,39,5.56,4.34,11.31,8.83,16.38,13.24,7,6.12,12.78,12.09,18.35,17.87C633,475.92,641.73,485,653.37,489.39c17.47,6.56,41.75,3,69.87-1.19l3.56-.53c28.45-4.19,60.71-8.93,79-24,10.11-8.28,16.39-20.21,16.8-31.9a31.69,31.69,0,0,0-9.9-24.51c-9.35-8.84-25.47-14-42.53-19.47-12-3.85-24.47-7.84-34.7-13.29-11.66-6.21-20.72-14.51-28.71-21.84-9.13-8.36-17-15.59-26.88-18.72A42.35,42.35,0,0,0,667,332.07Z" transform="translate(0.38 0.06)"/></svg>
