<svg data-name="shape 3" xmlns="http://www.w3.org/2000/svg" viewBox="0 0 579.71 248.3"><path d="M528.12,247.93a.13.13,0,0,1-.13-.13c0-15.55,0-36.84-6.34-55.4-7.24-21.18-21.25-35.34-42.82-43.29-16.67-6.14-38.4.42-61.39,7.36-22,6.63-44.72,13.49-65.54,10.25-18.34-2.87-36.3-16.3-53.67-29.29-18.92-14.15-38.49-28.79-58.92-30.26-22.34-1.62-44.85,10.37-66.62,22-18.88,10.06-36.74,19.57-53.2,19.57h-.88c-35.45-.74-50.07-13.31-64.2-25.48C41.14,111.8,28.61,101-.31,102a.12.12,0,0,1-.13-.12.13.13,0,0,1,.12-.13c29-1,41.59,9.84,54.89,21.29,14.1,12.13,28.69,24.68,64,25.41,16.65.34,34.77-9.31,54-19.53,21.79-11.61,44.34-23.61,66.74-22,20.51,1.48,40.11,16.14,59.06,30.31,17.35,13,35.28,26.38,53.56,29.24,20.76,3.24,43.47-3.61,65.42-10.24,23-7,44.81-13.52,61.56-7.35,21.64,8,35.7,22.19,43,43.43,6.36,18.61,6.36,39.93,6.36,55.49A.12.12,0,0,1,528.12,247.93Z" transform="translate(0.44 0.37)"/><path d="M538.33,227.51a.12.12,0,0,1-.13-.12c0-15.55,0-36.84-6.35-55.4-7.23-21.18-21.24-35.34-42.81-43.29-16.67-6.14-38.39.41-61.39,7.35-22,6.64-44.72,13.51-65.54,10.25C343.76,143.44,325.8,130,308.43,117c-18.92-14.15-38.49-28.78-58.92-30.26-22.35-1.62-44.85,10.38-66.62,22-19.23,10.24-37.39,19.91-54.08,19.57-35.45-.74-50.06-13.32-64.2-25.48C51.34,91.39,38.81,80.6,9.9,81.59a.11.11,0,0,1-.13-.12.12.12,0,0,1,.12-.13c29-1,41.58,9.83,54.88,21.28,14.1,12.13,28.69,24.68,64.05,25.42,16.62.33,34.76-9.31,54-19.54,21.8-11.61,44.34-23.61,66.76-22,20.5,1.49,40.1,16.14,59,30.31,17.34,13,35.28,26.39,53.57,29.25,20.75,3.24,43.47-3.62,65.43-10.25,23-6.95,44.79-13.52,61.54-7.35,21.65,8,35.71,22.19,43,43.44,6.36,18.61,6.36,39.92,6.36,55.49A.12.12,0,0,1,538.33,227.51Z" transform="translate(0.44 0.37)"/><path d="M548.53,207.1a.12.12,0,0,1-.12-.13c0-15.54,0-36.83-6.35-55.4-7.24-21.18-21.25-35.34-42.82-43.29-16.67-6.14-38.39.42-61.38,7.36-22,6.64-44.73,13.5-65.54,10.25C354,123,336,109.59,318.63,96.6c-18.92-14.14-38.48-28.77-58.91-30.25-22.35-1.62-44.85,10.37-66.62,22-18.88,10.06-36.74,19.57-53.2,19.57H139C103.57,107.13,89,94.56,74.81,82.39,61.55,71,49,60.19,20.1,61.18a.14.14,0,0,1-.13-.13.13.13,0,0,1,.13-.12c29-1,41.57,9.82,54.88,21.27,14.1,12.14,28.69,24.69,64.05,25.42,16.64.35,34.76-9.3,53.95-19.53,21.8-11.61,44.35-23.62,66.76-22,20.5,1.48,40.09,16.13,59,30.3,17.35,13,35.29,26.39,53.58,29.24,20.76,3.24,43.46-3.61,65.42-10.24,23-7,44.8-13.52,61.54-7.35,21.65,8,35.71,22.19,43,43.44,6.36,18.6,6.36,39.92,6.36,55.48A.13.13,0,0,1,548.53,207.1Z" transform="translate(0.44 0.37)"/><path d="M558.74,186.7a.12.12,0,0,1-.12-.13c0-15.55,0-36.85-6.35-55.41C545,110,531,95.83,509.44,87.88c-16.67-6.15-38.39.41-61.39,7.35-22,6.63-44.72,13.5-65.53,10.24-18.34-2.86-36.31-16.29-53.68-29.28C309.92,62,290.35,47.41,269.92,45.93c-22.34-1.62-44.85,10.37-66.61,22-19.22,10.24-37.39,19.9-54.08,19.56C113.78,86.72,99.16,74.14,85,62,71.75,50.56,59.22,39.79,30.31,40.76a.12.12,0,0,1-.13-.12.12.12,0,0,1,.12-.13c29-1,41.58,9.83,54.88,21.28,14.11,12.13,28.69,24.68,64,25.42h.88c16.4,0,34.22-9.5,53.08-19.54,21.8-11.61,44.34-23.61,66.74-22C290.44,47.17,310,61.82,329,76c17.35,13,35.29,26.38,53.57,29.24C403.31,108.47,426,101.62,448,95c23-6.95,44.8-13.52,61.55-7.35,21.65,8,35.71,22.19,43,43.44,6.37,18.6,6.37,39.92,6.37,55.49A.13.13,0,0,1,558.74,186.7Z" transform="translate(0.44 0.37)"/><path d="M568.94,166.28a.12.12,0,0,1-.13-.12c0-15.56,0-36.85-6.34-55.41-7.24-21.18-21.24-35.33-42.82-43.29-16.67-6.14-38.39.42-61.39,7.36-22,6.64-44.72,13.5-65.53,10.25-18.35-2.86-36.31-16.3-53.68-29.29C320.13,41.63,300.56,27,280.12,25.52c-22.34-1.62-44.84,10.37-66.6,22-18.89,10.06-36.75,19.57-53.2,19.57h-.88C124,66.31,109.37,53.73,95.23,41.57,82,30.16,69.44,19.38,40.51,20.36a.13.13,0,0,1-.13-.12.12.12,0,0,1,.12-.13c29-1,41.58,9.82,54.89,21.27,14.11,12.13,28.69,24.68,64.05,25.41h.88c16.39,0,34.22-9.49,53.08-19.54,21.8-11.61,44.34-23.62,66.74-22,20.51,1.48,40.11,16.14,59.06,30.31,17.35,13,35.28,26.39,53.57,29.24,20.76,3.24,43.46-3.61,65.42-10.24,23-7,44.8-13.52,61.55-7.35,21.65,8,35.7,22.19,43,43.44,6.35,18.59,6.35,39.92,6.35,55.49A.12.12,0,0,1,568.94,166.28Z" transform="translate(0.44 0.37)"/><path d="M579.14,145.87a.13.13,0,0,1-.12-.13c0-15.55,0-36.84-6.34-55.4C565.44,69.16,551.43,55,529.86,47.05c-16.67-6.14-38.39.42-61.38,7.36-22,6.63-44.73,13.5-65.54,10.25-18.35-2.87-36.31-16.3-53.68-29.29C330.33,21.22,310.77,6.58,290.33,5.1c-22.34-1.6-44.84,10.38-66.61,22C204.83,37.14,187,46.65,170.51,46.65h-.87c-35.45-.74-50.07-13.32-64.2-25.48C92.17,9.75,79.64-1,50.72-.06a.12.12,0,0,1-.13-.12.12.12,0,0,1,.12-.13c29-1,41.58,9.83,54.89,21.28,14.1,12.14,28.69,24.68,64.05,25.42h.86c16.4,0,34.23-9.5,53.1-19.55,21.79-11.61,44.33-23.61,66.74-22,20.51,1.48,40.1,16.13,59.06,30.31,17.34,13,35.28,26.39,53.57,29.24,20.76,3.24,43.46-3.61,65.42-10.24,23-7,44.8-13.53,61.54-7.35,21.65,8,35.71,22.18,43,43.44,6.36,18.59,6.36,39.91,6.36,55.48A.13.13,0,0,1,579.14,145.87Z" transform="translate(0.44 0.37)"/></svg>
