<svg data-name="shape 6" xmlns="http://www.w3.org/2000/svg" viewBox="0 0 1292.18 1292.07"><path d="M695.9,7l-2.75-.2c-9-.65-18.23-1.13-27.31-1.39l-2.75-.09.15-5.48L666-.11c9.17.3,18.46.77,27.57,1.42l2.72.21ZM581,8.39l-.5-5.48,2.72-.26c9.09-.86,18.35-1.57,27.52-2.08l2.75-.14.3,5.47-2.76.15c-9.08.5-18.28,1.18-27.27,2.07ZM777.17,18.44l-2.69-.53c-8.91-1.8-18-3.43-27-4.88l-2.7-.41.86-5.42,2.69.42c9.09,1.45,18.23,3.07,27.19,4.91l2.7.53ZM500.1,21.88l-1.22-5.36,2.67-.62c9-2,18-3.94,27-5.59l2.69-.48,1,5.39-2.7.5c-8.93,1.63-18,3.49-26.8,5.54Zm356.19,18.4-2.61-.89c-8.61-3-17.39-5.74-26.09-8.31L825,30.31,826.49,25l2.64.77c8.78,2.6,17.66,5.42,26.33,8.37l2.6.89ZM421.54,45.63l-1.89-5.14,2.57-1c8.61-3.17,17.4-6.21,26.1-9l2.63-.83,1.66,5.23-2.6.83c-8.64,2.78-17.34,5.8-25.86,8.94ZM932,72.14l-2.46-1.24c-8.19-4-16.54-7.93-24.85-11.6l-2.52-1.09,2.22-5,2.52,1.09C915.28,58,923.71,61.91,932,66l2.45,1.21ZM346.81,79.3l-2.58-4.85,2.43-1.27c8.11-4.26,16.39-8.37,24.68-12.28l2.48-1.18,2.34,5-2.49,1.18c-8.19,3.85-16.42,8-24.44,12.16ZM1003,113.45l-2.28-1.54c-7.58-5-15.36-10-23.14-14.68l-2.34-1.42,2.84-4.7,2.34,1.42c7.84,4.76,15.71,9.73,23.34,14.82l2.28,1.51Zm-726,8.84-3.17-4.49,2.25-1.57c7.51-5.27,15.24-10.45,22.93-15.36l2.31-1.48L304.2,104l-2.3,1.48c-7.64,4.88-15.27,10-22.73,15.23Zm791.17,41.16-2.08-1.78c-6.86-6-14-11.86-21.06-17.51l-2.16-1.72,3.43-4.29,2.16,1.72c7.16,5.68,14.29,11.62,21.24,17.63l2.07,1.81Zm-855,10.38-3.7-4.05,2-1.84c6.78-6.18,13.79-12.27,20.8-18.16l2.1-1.75,3.55,4.2L235.71,154c-7,5.83-13.9,11.86-20.62,18Zm913.21,47.52-1.83-2.07c-6-6.78-12.31-13.52-18.64-20l-1.93-2,3.94-3.81,1.92,2c6.36,6.57,12.7,13.37,18.82,20.21l1.8,2Zm-970,11.77-4.17-3.55,1.78-2.1c5.91-7,12.1-13.93,18.34-20.65l1.83-2,4.06,3.73-1.87,2c-6.18,6.66-12.3,13.55-18.19,20.47Zm1020.38,53-1.54-2.25c-5.15-7.48-10.5-15-15.95-22.22l-1.66-2.21,4.38-3.29,1.66,2.19c5.5,7.34,10.92,14.88,16.1,22.43l1.53,2.25ZM107.45,299.16l-4.58-3,1.48-2.31c5-7.69,10.24-15.35,15.56-22.84l1.6-2.25L126,272l-1.57,2.25c-5.3,7.4-10.51,15-15.45,22.63Zm1110.86,57.6-1.25-2.42c-4.11-8-8.46-16.13-13-24.06l-1.36-2.39,4.77-2.72,1.36,2.39c4.52,8,8.93,16.16,13.07,24.26l1.25,2.46ZM67.48,370.91l-4.94-2.37,1.19-2.49c4-8.28,8.22-16.59,12.51-24.64l1.3-2.43,4.86,2.58L81.09,344c-4.26,8-8.46,16.25-12.42,24.47Zm1183.1,61.3-.91-2.57c-3.08-8.58-6.36-17.19-9.8-25.6l-1-2.51,5.09-2.07,1,2.51c3.46,8.49,6.78,17.16,9.88,25.8l.92,2.58Zm-1213.51,15-5.24-1.72.86-2.6c2.9-8.76,6-17.54,9.26-26.1l1-2.57,5.12,1.95-.95,2.58c-3.23,8.49-6.3,17.19-9.17,25.86Zm1235.82,64-.59-2.7c-2-8.87-4.11-17.84-6.42-26.62l-.68-2.64,5.3-1.42.71,2.67c2.33,8.84,4.49,17.89,6.45,26.83l.59,2.69ZM16.74,526.74l-5.38-1,.5-2.69c1.75-9,3.7-18.11,5.8-27l.65-2.66,5.33,1.27L23,497.3c-2.1,8.79-4,17.81-5.74,26.75Zm1268.1,65.65-.23-2.75c-.8-9-1.78-18.23-3-27.22l-.33-2.72,5.42-.71.35,2.75c1.19,9,2.19,18.28,3,27.43l.24,2.75ZM6.8,608.22l-5.5-.36.18-2.72C2,596,2.81,586.71,3.78,577.63l.27-2.72,5.47.56-.29,2.72c-1,9-1.72,18.19-2.28,27.28Zm1285,67.87-5.48-.24.09-2.72c.39-9.08.59-18.31.59-27.37v-4.2h5.48v4.17c0,9.18-.18,18.47-.56,27.64ZM1.74,690.65l-.17-2.75C1,678.75.59,669.46.38,660.32l-.06-2.75,5.51-.12,0,2.75c.18,9.09.6,18.29,1.19,27.37l.18,2.72Zm1281,67.72-5.41-.92.47-2.72c1.54-8.93,2.9-18.05,4.06-27.07l.32-2.72,5.45.68-.33,2.72c-1.18,9.11-2.54,18.31-4.08,27.31Zm-1270,14.32L12.16,770c-1.75-9-3.32-18.11-4.71-27.22L7,740.09l5.44-.83L12.9,742c1.36,9,2.93,18.08,4.64,27l.53,2.69Zm1250.5,66.1-5.24-1.6.8-2.63c2.69-8.67,5.21-17.52,7.51-26.34l.68-2.66,5.3,1.39-.68,2.66c-2.34,8.88-4.85,17.81-7.54,26.57ZM34.05,852.66l-.86-2.6c-2.9-8.7-5.65-17.58-8.16-26.39L24.29,821l5.26-1.5.74,2.63c2.52,8.76,5.24,17.54,8.11,26.15l.86,2.61Zm1199.34,63.46-5-2.27,1.13-2.49c3.78-8.28,7.42-16.74,10.86-25.21l1-2.54,5.09,2.07-1,2.54c-3.47,8.53-7.14,17.08-11,25.42ZM65.5,929.14l-1.18-2.48c-4-8.29-7.84-16.72-11.45-25.06l-1.1-2.52,5-2.19,1.1,2.55c3.58,8.25,7.39,16.63,11.36,24.82l1.18,2.49ZM1193.93,989l-4.65-2.9,1.45-2.34c4.79-7.69,9.5-15.62,14-23.58l1.36-2.4,4.79,2.72-1.36,2.37c-4.53,8-9.26,16-14.11,23.79ZM106.54,1001,105,998.67c-5-7.66-9.91-15.53-14.59-23.4l-1.39-2.37,4.71-2.78,1.39,2.34c4.64,7.81,9.52,15.62,14.46,23.22l1.51,2.28Zm1039,55.15-4.23-3.46,1.72-2.13c5.77-7,11.42-14.32,16.86-21.6l1.66-2.19,4.38,3.28-1.63,2.19c-5.5,7.34-11.21,14.68-17,21.78ZM156.42,1067l-1.77-2.11c-6-7-11.84-14.14-17.49-21.36l-1.69-2.16,4.32-3.37,1.69,2.16c5.62,7.16,11.45,14.29,17.34,21.18l1.77,2.1Zm932.5,49.55-3.78-4,2-1.9c6.57-6.21,13.11-12.69,19.44-19.23l1.92-2,3.93,3.82-1.89,2c-6.39,6.6-13,13.14-19.64,19.41Zm-874.63,9.62-2-1.84c-6.75-6.12-13.49-12.51-20-19l-1.95-1.92,3.84-3.91,2,1.92c6.48,6.42,13.16,12.76,19.88,18.85l2,1.83Zm810.85,43.11-3.23-4.41,2.22-1.63c7.34-5.39,14.64-11,21.72-16.63l2.16-1.71,3.4,4.29-2.13,1.71c-7.13,5.71-14.53,11.36-21.93,16.78Zm-745.88,8.25L277,1176c-7.51-5.23-15-10.71-22.33-16.3l-2.16-1.66,3.31-4.35,2.19,1.66c7.25,5.53,14.68,11,22.13,16.15l2.25,1.57Zm675.93,35.92-2.66-4.8,2.43-1.33c7.93-4.38,15.88-9,23.64-13.7l2.33-1.42,2.87,4.68-2.33,1.45c-7.84,4.73-15.86,9.38-23.88,13.79Zm-604.92,6.74-2.46-1.27c-8.07-4.23-16.24-8.7-24.23-13.31l-2.36-1.36,2.75-4.77,2.37,1.36c7.92,4.59,16,9,24,13.23l2.45,1.27Zm529.92,28.08-2-5.09,2.57-1c8.44-3.32,16.9-6.87,25.18-10.54l2.52-1.12,2.22,5-2.52,1.09c-8.34,3.7-16.89,7.28-25.41,10.62Zm-454,5.12-2.57-1c-8.64-3.16-17.31-6.57-25.77-10.09l-2.55-1.06,2.13-5.06,2.52,1.06c8.4,3.5,17,6.87,25.56,10l2.57,1Zm375.07,19.82-1.34-5.32,2.67-.68c8.78-2.19,17.66-4.62,26.39-7.22l2.63-.77,1.57,5.26-2.63.77c-8.82,2.61-17.76,5.06-26.63,7.28Zm-295.6,3.32-2.66-.63c-9-2-18-4.26-26.78-6.65l-2.66-.74,1.45-5.3,2.63.74c8.76,2.37,17.69,4.62,26.57,6.63l2.69.59Zm214.11,11.24-.65-5.45,2.73-.32c9.08-1.07,18.19-2.34,27.13-3.79l2.69-.41.89,5.41-2.73.42c-9,1.45-18.19,2.75-27.33,3.81Zm-132.31,1.48-2.75-.27c-9.11-.86-18.34-2-27.39-3.19l-2.73-.36.74-5.44,2.73.35c9,1.25,18.13,2.31,27.19,3.17l2.72.26Zm58.91,2.63c-2.19,0-4.35,0-6.54,0l-2.72,0,.06-5.5,2.72,0c9.11.09,18.34,0,27.4-.3L670,1286l.18,5.51-2.75.09c-7,.2-14.06.32-21.1.32" transform="translate(-0.32 0.17)"/></svg>
