<svg enable-background="new 0 0 32 32" viewBox="0 0 32 32" xmlns="http://www.w3.org/2000/svg"><g clip-rule="evenodd" fill="#151619" fill-rule="evenodd" transform="translate(1 2)"><path d="m13.5 25.6h2.9v-23.2h-2.9zm3-26.1h-2.9c-1.6 0-2.9 1.3-2.9 2.9v23.3c0 1.6 1.3 2.9 2.9 2.9h2.9c1.6 0 2.9-1.3 2.9-2.9v-23.3c0-1.6-1.3-2.9-2.9-2.9z"/><path d="m25.2 25.6h2.9v-16h-2.9zm2.9-18.9h-2.9c-1.6 0-2.9 1.3-2.9 2.9v16c0 1.6 1.3 2.9 2.9 2.9h2.9c1.6 0 2.9-1.3 2.9-2.9v-16c0-1.6-1.3-2.9-2.9-2.9z"/><path d="m1.9 25.6h2.9v-8.7h-2.9zm2.9-11.6h-2.9c-1.6 0-2.9 1.3-2.9 2.9v8.7c0 1.6 1.3 2.9 2.9 2.9h2.9c1.6 0 2.9-1.3 2.9-2.9v-8.7c0-1.6-1.3-2.9-2.9-2.9z"/></g></svg>