<?xml version="1.0" encoding="utf-8"?>
<!-- Generator: Adobe Illustrator 25.2.0, SVG Export Plug-In . SVG Version: 6.00 Build 0)  -->
<svg version="1.1" id="Layer_1" xmlns="http://www.w3.org/2000/svg" xmlns:xlink="http://www.w3.org/1999/xlink" x="0px" y="0px"
	 viewBox="0 0 32 32" style="enable-background:new 0 0 32 32;" xml:space="preserve">
<style type="text/css">
	.st0{fill:#151619;}
</style>
<g>
	<path class="st0" d="M15.9,21.2c-1.7,0-3.2-0.8-4.3-2.1l-1.5,1.1c1.3,1.9,3.5,2.9,5.7,2.9s4.4-1.1,5.7-2.9l-1.5-1.1
		C19.1,20.4,17.6,21.2,15.9,21.2z"/>
	<path class="st0" d="M12,12.8c0-1.1-0.8-1.9-1.9-1.9s-1.9,0.8-1.9,1.9s0.8,1.9,1.9,1.9S12,13.7,12,12.8z"/>
	<path class="st0" d="M21.3,10.9c-1.1,0-1.9,0.8-1.9,1.9s0.8,1.9,1.9,1.9s1.9-0.8,1.9-1.9S22.4,10.9,21.3,10.9z"/>
	<path class="st0" d="M16,0C7.2,0,0,7.2,0,16s7.2,16,16,16s16-7.2,16-16S24.8,0,16,0z M16,30.1C8.3,30.1,1.9,23.7,1.9,16
		S8.3,1.9,16,1.9S30.1,8.3,30.1,16S23.7,30.1,16,30.1z"/>
</g>
</svg>
