<?xml version="1.0" encoding="utf-8"?>
<!-- Generator: Adobe Illustrator 25.2.0, SVG Export Plug-In . SVG Version: 6.00 Build 0)  -->
<svg version="1.1" id="Layer_1" xmlns="http://www.w3.org/2000/svg" xmlns:xlink="http://www.w3.org/1999/xlink" x="0px" y="0px"
	 viewBox="0 0 32 32" style="enable-background:new 0 0 32 32;" xml:space="preserve">
<style type="text/css">
	.st0{fill:#151619;}
</style>
<path class="st0" d="M31.9,2.3c-0.2-0.5-0.8-0.8-1.3-0.8H1.5c-0.6,0-1.1,0.3-1.3,0.8S0,3.4,0.3,3.9l11.3,13.3v9
	c0,0.6,0.3,1.1,0.8,1.3l5.8,2.9c0.2,0.1,0.4,0.2,0.7,0.2c0.3,0,0.5-0.1,0.8-0.2c0.4-0.3,0.7-0.7,0.7-1.2V17.2L31.7,3.8
	C32,3.4,32.1,2.8,31.9,2.3L31.9,2.3z M17.8,15.7c-0.2,0.3-0.3,0.6-0.3,0.9v10.1l-2.9-1.5v-8.6c0-0.3-0.1-0.7-0.3-0.9L4.6,4.4h22.8
	L17.8,15.7L17.8,15.7z"/>
</svg>
