<?xml version="1.0" encoding="utf-8"?>
<!-- Generator: Adobe Illustrator 25.2.0, SVG Export Plug-In . SVG Version: 6.00 Build 0)  -->
<svg version="1.1" id="Layer_1" xmlns="http://www.w3.org/2000/svg" xmlns:xlink="http://www.w3.org/1999/xlink" x="0px" y="0px"
	 viewBox="0 0 32 32" style="enable-background:new 0 0 32 32;" xml:space="preserve">
<style type="text/css">
	.st0{fill:#151619;}
</style>
<path class="st0" d="M27.4,1.8c-0.3,0.1-0.6,0.2-0.9,0.3c-1.3,0.7-2.7,1-4.2,1c-0.4,0-0.9,0-1.4-0.2c-1.1-0.1-2.1-0.3-3.1-0.8
	c-1.1-0.5-2.1-1.1-3.3-1.5c-1.5-0.6-3.2-0.7-5-0.5C8,0.3,6.5,0.7,5,1.2C4.4,1.4,3.8,1.8,3.4,2.4C3,3.1,2.9,3.8,2.9,4.6v13L3,24.3
	v6.3c0,0.2,0,0.4,0.1,0.6c0.3,0.7,1.2,1,1.9,0.7c0.6-0.3,0.9-0.7,0.9-1.4V18.6C5.8,18.3,6,18.1,6.2,18c1-0.5,1.9-0.9,3-1
	c1.2-0.1,2.5-0.1,3.7,0.1c1.2,0.2,2.2,0.8,3.3,1.3c0.6,0.4,1.3,0.6,1.9,0.9c1,0.4,2.2,0.5,3.3,0.6c0.9,0.1,1.9,0,2.8-0.1
	c1.4-0.2,2.8-0.6,4.1-1.3c0.6-0.3,0.9-0.7,0.9-1.4V9.8V3.3C29,2.6,28.2,1.7,27.4,1.8z"/>
</svg>
