<svg enable-background="new 0 0 32 32" viewBox="0 0 32 32" xmlns="http://www.w3.org/2000/svg"><g clip-rule="evenodd" fill="#151619" fill-rule="evenodd" transform="translate(2 2)"><path d="m30-.5c0-.2 0-.4-.1-.5-.1-.2-.2-.3-.2-.4s-.1-.1-.1-.1c-.1-.1-.3-.2-.4-.2-.4-.2-.5-.3-.7-.3h-.1-9.6c-.9 0-1.6.7-1.6 1.6s.7 1.6 1.6 1.6h5.7l-8.5 8.5c-.6.6-.6 1.6 0 2.3.3.3.7.5 1.1.5s.8-.2 1.1-.5l8.5-8.5v5.7c0 .9.7 1.6 1.6 1.6s1.6-.7 1.6-1.6z"/><path d="m9.7 16.1-8.5 8.5v-5.7c0-.9-.7-1.6-1.6-1.6s-1.6.6-1.6 1.5v9.6c0 .2 0 .4.1.6.1.1.1.3.2.4s.1.1.1.1c.1.1.2.2.4.2.2.1.4.1.6.1h9.6c.9 0 1.6-.7 1.6-1.6s-.7-1.6-1.6-1.6h-5.5l8.5-8.5c.6-.6.6-1.6 0-2.3-.7-.4-1.7-.4-2.3.3z"/></g></svg>