<?xml version="1.0" encoding="utf-8"?>
<!-- Generator: Adobe Illustrator 25.2.0, SVG Export Plug-In . SVG Version: 6.00 Build 0)  -->
<svg version="1.1" id="Layer_1" xmlns="http://www.w3.org/2000/svg" xmlns:xlink="http://www.w3.org/1999/xlink" x="0px" y="0px"
	 viewBox="0 0 32 32" style="enable-background:new 0 0 32 32;" xml:space="preserve">
<style type="text/css">
	.st0{fill-rule:evenodd;clip-rule:evenodd;fill:#151619;}
</style>
<g>
	<path class="st0" d="M16,0c2.9,0,5.6,0.7,8,2.1s4.4,3.4,5.8,5.8c1.4,2.5,2.1,5.1,2.1,8s-0.7,5.6-2.1,8s-3.4,4.4-5.8,5.8
		c-2.5,1.4-5.1,2.1-8,2.1s-5.6-0.7-8-2.1S3.6,26.5,2.1,24S0,18.9,0,16s0.7-5.6,2.1-8S5.5,3.6,8,2.1S13.1,0,16,0z M21.7,10.9
		c0,0-0.1,0.1-0.2,0.2c-0.1,0.1-0.2,0.2-0.3,0.2c0,0,0.1,0,0.1-0.1c0-0.1,0.1-0.1,0.1-0.2c0-0.1,0.1-0.1,0.1-0.1
		c0.1-0.1,0.2-0.2,0.5-0.3c0.2-0.1,0.6-0.2,1.1-0.2c0.5-0.1,0.8,0,1.1,0.2c0,0,0-0.1,0.2-0.3s0.3-0.2,0.3-0.2c0,0,0.1-0.1,0.3-0.1
		c0.2,0,0.3-0.1,0.3-0.2l0-0.5c-0.2,0-0.3,0-0.4-0.1s-0.1-0.3-0.1-0.4c0,0,0,0.1-0.1,0.2c0-0.1,0-0.2-0.1-0.2c-0.1,0-0.1,0-0.2,0
		c-0.1,0-0.2,0-0.2,0c-0.1,0-0.2-0.1-0.3-0.2s-0.1-0.2-0.2-0.3c0-0.2-0.1-0.3-0.1-0.3c0-0.1-0.1-0.1-0.2-0.2s-0.2-0.2-0.2-0.2
		c0,0,0-0.1-0.1-0.1c0,0,0-0.1-0.1-0.1s0-0.1-0.1-0.1c0,0-0.1-0.1-0.1-0.1c0,0-0.1,0-0.1,0.1c-0.1,0.1-0.1,0.1-0.2,0.2
		c0,0.1-0.1,0.1-0.1,0.1c0,0-0.1,0-0.1,0c0,0-0.1,0-0.1,0c0,0-0.1,0-0.1,0.1c0,0-0.1,0.1-0.1,0.1c0,0-0.1,0-0.2,0.1
		c-0.1,0-0.1,0-0.2,0c0.2-0.1,0.2-0.1,0-0.2c-0.1-0.1-0.2-0.1-0.3-0.1c0.1-0.1,0.2-0.1,0.2-0.2c0-0.1-0.1-0.2-0.2-0.3h0.1
		c0-0.1-0.1-0.1-0.2-0.2S21,6.5,20.9,6.5s-0.2-0.1-0.3-0.1c-0.1-0.1-0.3-0.1-0.7-0.2c-0.4-0.1-0.6-0.1-0.7,0
		c-0.1,0.1-0.1,0.2-0.1,0.2c0,0.1,0,0.2,0.1,0.3c0,0.1,0.1,0.2,0.1,0.3c0,0.1,0,0.2-0.1,0.3S19,7.3,19,7.4c0,0.1,0.1,0.2,0.3,0.3
		c0.2,0.1,0.3,0.3,0.2,0.4c0,0.1-0.2,0.2-0.3,0.3c-0.2,0.1-0.3,0.2-0.3,0.2c-0.1,0.1-0.1,0.2,0,0.4c0,0.1,0.1,0.3,0.2,0.3
		c0,0,0,0.1,0,0.1c0,0,0,0.1-0.1,0.1c0,0-0.1,0.1-0.1,0.1s-0.1,0-0.1,0.1l-0.1,0c-0.2,0.1-0.3,0-0.4-0.1C18.1,9.6,18,9.4,18,9.2
		c-0.1-0.3-0.2-0.6-0.3-0.6c-0.3-0.1-0.5-0.1-0.6,0c-0.1-0.2-0.4-0.4-0.9-0.5C15.8,7.9,15.4,7.9,15,8c0.1,0,0.1-0.1,0-0.3
		c-0.1-0.2-0.2-0.3-0.4-0.2c0-0.1,0.1-0.2,0.1-0.4c0-0.2,0-0.3,0-0.3c0-0.2,0.1-0.3,0.2-0.5c0,0,0.1-0.1,0.1-0.2s0.1-0.2,0.2-0.3
		c0-0.1,0.1-0.1,0-0.1c0.5,0.1,0.8,0,1-0.2c0.1-0.1,0.1-0.2,0.2-0.4c0.1-0.2,0.2-0.3,0.2-0.4c0.1-0.1,0.2-0.1,0.3-0.1
		c0.1,0,0.2,0,0.3,0.1c0.1,0.1,0.2,0.1,0.3,0.1c0.2,0,0.3-0.1,0.3-0.2c0-0.2,0-0.3-0.2-0.4c0.2,0,0.2-0.1,0.1-0.4
		c-0.1-0.1-0.1-0.2-0.2-0.2c-0.2-0.1-0.4,0-0.6,0.1c-0.1,0.1-0.1,0.1,0,0.2c0,0-0.1,0.1-0.2,0.2c-0.1,0.2-0.2,0.3-0.3,0.4
		c-0.1,0.1-0.2,0-0.3-0.1c0,0-0.1-0.1-0.1-0.3S16.1,3.9,16,3.9c-0.1,0-0.2,0.1-0.3,0.3c0-0.1,0-0.2-0.2-0.3S15.1,3.7,15,3.7
		c0.3-0.2,0.2-0.4-0.2-0.6c-0.1-0.1-0.2-0.1-0.4-0.1c-0.2,0-0.3,0-0.4,0.1c-0.1,0.1-0.1,0.2-0.1,0.2c0,0.1,0,0.1,0.1,0.2
		c0.1,0,0.1,0.1,0.2,0.1c0.1,0,0.1,0.1,0.2,0.1c0.1,0,0.1,0,0.2,0.1c0.2,0.1,0.2,0.2,0.2,0.3c0,0-0.1,0-0.2,0.1s-0.2,0.1-0.2,0.1
		c-0.1,0-0.1,0.1-0.1,0.1c0,0.1,0,0.2,0,0.3c0,0.1,0,0.2,0,0.3c-0.1-0.1-0.1-0.2-0.2-0.4c-0.1-0.2-0.1-0.3-0.1-0.3
		c0.1,0.1-0.1,0.2-0.5,0.1l-0.2,0c-0.1,0-0.2,0-0.3,0c-0.2,0-0.3,0-0.4,0c-0.1,0-0.2-0.1-0.3-0.2C12,4.1,12,4,12.1,3.8
		c0-0.1,0-0.1,0.1,0c-0.1,0-0.1-0.1-0.2-0.2c-0.1-0.1-0.2-0.1-0.2-0.2c-0.6,0.2-1.3,0.5-2,0.9c0.1,0,0.2,0,0.2,0
		c0.1,0,0.2-0.1,0.3-0.1C10.4,4,10.5,4,10.5,4c0.5-0.2,0.8-0.2,0.9-0.1l0.1-0.1c0.2,0.2,0.3,0.4,0.4,0.5c-0.1-0.1-0.3-0.1-0.6,0
		c-0.3,0.1-0.4,0.2-0.5,0.2c0.1,0.2,0.1,0.3,0.1,0.4c-0.1,0-0.1-0.1-0.2-0.2c-0.1-0.1-0.2-0.2-0.3-0.2c-0.1-0.1-0.2-0.1-0.3-0.1
		c-0.2,0-0.4,0-0.5,0C7.6,5.4,5.9,7,4.7,8.9C4.8,9,4.9,9.1,5,9.1C5,9.1,5,9.2,5.1,9.3c0,0.1,0,0.2,0.1,0.2c0,0,0.1,0,0.2-0.1
		c0.1,0.1,0.1,0.2,0.1,0.4c0,0,0.3,0.2,0.9,0.6c0.3,0.2,0.4,0.4,0.4,0.4c0,0.2,0,0.3-0.2,0.4c0,0-0.1-0.1-0.2-0.2
		c-0.1-0.1-0.2-0.1-0.2-0.1c0,0.1,0,0.2,0,0.4c0,0.2,0.1,0.3,0.2,0.3c-0.1,0-0.2,0.1-0.2,0.3c0,0.2-0.1,0.5-0.1,0.7s0,0.4,0,0.5l0,0
		c0,0.2,0,0.4,0.1,0.7c0.1,0.3,0.3,0.4,0.4,0.4c-0.2,0,0,0.3,0.4,0.9c0.1,0.1,0.1,0.2,0.2,0.2c0,0,0.1,0.1,0.2,0.2
		c0.1,0.1,0.2,0.1,0.3,0.2C8,15.8,8,15.9,8.1,16c0.1,0.1,0.1,0.2,0.2,0.5s0.2,0.4,0.3,0.5c0,0.1,0,0.2,0.2,0.4C9,17.5,9,17.7,9,17.8
		c0,0,0,0-0.1,0c0,0,0,0-0.1,0c0,0.1,0.1,0.2,0.3,0.3c0.2,0.1,0.3,0.2,0.3,0.3c0,0,0,0.1,0,0.2c0,0.1,0,0.2,0.1,0.2
		c0,0.1,0.1,0.1,0.2,0c0-0.3-0.1-0.7-0.5-1.3C9.1,17.3,9,17.1,9,17c0-0.1-0.1-0.2-0.1-0.3s-0.1-0.2-0.1-0.3c0,0,0.1,0,0.1,0
		c0.1,0,0.1,0,0.2,0.1c0.1,0,0.1,0.1,0.2,0.1c0,0,0.1,0,0,0.1c0,0.1,0,0.2,0,0.4s0.2,0.3,0.2,0.4c0.1,0.1,0.2,0.2,0.4,0.4
		s0.2,0.2,0.2,0.3c0.1,0.1,0.2,0.2,0.3,0.4s0.1,0.3,0,0.3c0.1,0,0.3,0.1,0.4,0.2c0.2,0.1,0.3,0.3,0.4,0.4c0.1,0.1,0.1,0.3,0.2,0.5
		c0,0.3,0.1,0.4,0.1,0.5c0,0.1,0.1,0.2,0.2,0.3c0.1,0.1,0.2,0.2,0.3,0.2l0.3,0.2c0.1,0.1,0.2,0.1,0.3,0.1c0.1,0,0.2,0.1,0.4,0.2
		c0.2,0.1,0.3,0.2,0.4,0.2c0.1,0.1,0.2,0.1,0.3,0.1c0.1,0,0.2,0,0.3-0.1c0.1,0,0.2-0.1,0.3-0.1c0.2,0,0.4,0.1,0.6,0.3
		c0.2,0.2,0.3,0.4,0.4,0.4c0.5,0.3,0.9,0.3,1.1,0.2c0,0,0,0.1,0,0.2c0,0.1,0.1,0.2,0.2,0.3c0.1,0.1,0.1,0.2,0.2,0.3
		c0,0.1,0.1,0.1,0.1,0.2c0.1,0.1,0.2,0.2,0.4,0.3c0.2,0.1,0.3,0.2,0.4,0.3c0.1-0.1,0.1-0.1,0.1-0.2c0,0.1,0,0.2,0.1,0.4
		s0.3,0.2,0.4,0.2c0.2,0,0.3-0.3,0.3-0.7c-0.4,0.2-0.8,0.1-1-0.4c0,0,0-0.1-0.1-0.1c0-0.1-0.1-0.1-0.1-0.2c0-0.1,0-0.1-0.1-0.2
		c0-0.1,0-0.1,0-0.2c0,0,0-0.1,0.1-0.1c0.1,0,0.2,0,0.2-0.1c0,0,0-0.1,0-0.3c0-0.1-0.1-0.2-0.1-0.3c0-0.1-0.1-0.2-0.2-0.4
		c-0.1-0.2-0.2-0.3-0.2-0.3c-0.1,0.1-0.2,0.2-0.3,0.2c-0.2,0-0.3-0.1-0.3-0.2c0,0,0,0.1,0,0.1s0,0.1,0,0.1c-0.2,0-0.3,0-0.3,0
		c0,0,0-0.2,0.1-0.4c0-0.2,0-0.4,0.1-0.5c0-0.1,0.1-0.1,0.1-0.2c0.1-0.1,0.1-0.2,0.2-0.3c0-0.1,0.1-0.2,0.1-0.3s0-0.1-0.1-0.2
		c-0.1,0-0.2-0.1-0.4-0.1c-0.3,0-0.4,0.2-0.5,0.4c0,0,0,0.1-0.1,0.2s-0.1,0.2-0.1,0.2c0,0.1-0.1,0.1-0.2,0.1c-0.1,0-0.3,0.1-0.5,0
		s-0.4,0-0.5-0.1c-0.2-0.1-0.3-0.3-0.5-0.6c-0.1-0.3-0.2-0.5-0.2-0.8c0-0.1,0-0.3,0.1-0.6c0-0.2,0.1-0.4,0.1-0.5
		c0-0.1,0-0.3-0.1-0.5c0,0,0.1-0.1,0.2-0.2c0.1-0.1,0.2-0.2,0.2-0.2c0,0,0.1,0,0.1,0c0,0,0.1,0,0.1,0c0,0,0.1,0,0.1,0
		c0,0,0-0.1,0.1-0.1c0,0,0,0-0.1-0.1c0,0-0.1-0.1-0.1-0.1c0.1,0,0.3,0,0.6,0c0.3-0.1,0.5-0.1,0.6,0c0.2,0.2,0.4,0.1,0.5,0
		c0,0,0-0.1-0.1-0.2c0-0.1,0-0.2,0-0.3c0.1,0.4,0.3,0.4,0.6,0.2c0,0,0.1,0.1,0.3,0.1c0.2,0,0.3,0.1,0.4,0.1c0,0,0.1,0.1,0.1,0.1
		c0.1,0,0.1,0.1,0.1,0.1c0,0,0.1,0,0.1,0c0,0,0.1-0.1,0.2-0.1c0.1,0.2,0.2,0.4,0.2,0.5c0.2,0.6,0.3,0.9,0.4,0.9c0.1,0,0.2,0.1,0.2,0
		s0.1-0.1,0.1-0.2c0-0.1,0-0.2,0-0.3s0-0.2,0-0.3l0-0.2v-0.4l0-0.2c-0.2,0-0.3-0.1-0.4-0.2c0-0.1,0-0.3,0-0.4
		c0.1-0.1,0.2-0.3,0.3-0.4c0,0,0.1,0,0.2-0.1c0.1,0,0.2-0.1,0.3-0.1c0.1-0.1,0.2-0.1,0.3-0.2c0.3-0.3,0.4-0.5,0.3-0.7
		c0.1,0,0.2-0.1,0.2-0.2c0,0,0,0-0.1-0.1c-0.1,0-0.1-0.1-0.2-0.1c0,0-0.1,0-0.1,0c0.1-0.1,0.1-0.2,0-0.3c0.1,0,0.1-0.1,0.2-0.2
		c0-0.1,0.1-0.2,0.2-0.2c0.1,0.2,0.3,0.2,0.4,0c0.1-0.1,0.1-0.2,0-0.3c0.1-0.1,0.2-0.2,0.4-0.2c0.2,0,0.3-0.1,0.4-0.2
		c0.1,0,0.2,0,0.2,0c0-0.1,0-0.1,0-0.2s0-0.2,0.1-0.2c0.1-0.1,0.2-0.1,0.3-0.2c0.2-0.1,0.2-0.1,0.3-0.1l0.4-0.2c0-0.1,0-0.1,0-0.1
		c0.2,0,0.5,0,0.6-0.2c0.1-0.2,0.1-0.3-0.1-0.4c0-0.1,0-0.1-0.1-0.2c-0.1,0-0.2-0.1-0.3-0.1c0,0,0.1,0,0.2,0c0.1,0,0.2,0,0.2,0
		c0.2-0.1,0.2-0.2-0.1-0.3C22.4,10.5,22.1,10.6,21.7,10.9z M18.3,29.1c2.9-0.5,5.3-1.8,7.3-3.9c0,0-0.1-0.1-0.3-0.1
		c-0.1,0-0.2,0-0.3-0.1c-0.2-0.1-0.4-0.2-0.5-0.2c0-0.1,0-0.2-0.1-0.3c0-0.1-0.1-0.1-0.2-0.2s-0.1-0.1-0.3-0.2
		c-0.1-0.1-0.2-0.1-0.2-0.1c0,0-0.1-0.1-0.1-0.1c-0.1-0.1-0.1-0.1-0.1-0.1s-0.1-0.1-0.2-0.1c-0.1,0-0.1-0.1-0.2,0c0,0-0.1,0-0.2,0
		l-0.1,0c0,0-0.1,0-0.1,0.1c0,0-0.1,0-0.1,0.1c0,0-0.1,0-0.1,0.1c0,0,0,0,0,0.1c-0.3-0.2-0.5-0.4-0.8-0.5c-0.1,0-0.1-0.1-0.2-0.1
		s-0.2-0.1-0.2-0.1c-0.1,0-0.1,0-0.2,0c-0.1,0-0.2,0.1-0.2,0.1c-0.1,0.1-0.1,0.2-0.1,0.3c0,0.1,0,0.2,0,0.3c-0.1-0.1-0.1-0.2,0-0.4
		c0.1-0.2,0.1-0.3,0-0.4c0-0.1-0.1-0.1-0.2-0.1c-0.1,0-0.2,0.1-0.2,0.1s-0.1,0.1-0.2,0.2c-0.1,0.1-0.2,0.1-0.2,0.1
		c0,0-0.1,0.1-0.2,0.1s-0.1,0.1-0.2,0.2c0,0.1-0.1,0.1-0.1,0.2c0,0.1-0.1,0.2-0.1,0.2c0-0.1-0.1-0.1-0.2-0.1c-0.1,0-0.2-0.1-0.2-0.1
		c0,0.1,0.1,0.4,0.1,0.7c0,0.3,0.1,0.6,0.1,0.8c0.1,0.4,0,0.8-0.2,1c-0.4,0.3-0.6,0.6-0.6,0.8c-0.1,0.3,0,0.5,0.2,0.5
		c0,0.1-0.1,0.2-0.2,0.4c-0.1,0.2-0.2,0.3-0.1,0.4C18.3,28.9,18.3,29,18.3,29.1z"/>
</g>
</svg>
