<?xml version="1.0" encoding="utf-8"?>
<!-- Generator: Adobe Illustrator 25.2.0, SVG Export Plug-In . SVG Version: 6.00 Build 0)  -->
<svg version="1.1" id="Layer_1" xmlns="http://www.w3.org/2000/svg" xmlns:xlink="http://www.w3.org/1999/xlink" x="0px" y="0px"
	 viewBox="0 0 32 32" style="enable-background:new 0 0 32 32;" xml:space="preserve">
<style type="text/css">
	.st0{fill-rule:evenodd;clip-rule:evenodd;fill:#151619;}
</style>
<path class="st0" d="M17,17v10c0,0.6,0.4,1,1,1s1-0.4,1-1V17c0-0.6-0.4-1-1-1S17,16.4,17,17 M13,17v10c0,0.6,0.4,1,1,1s1-0.4,1-1V17
	c0-0.6-0.4-1-1-1S13,16.4,13,17 M3,17v10c0,0.5,0.4,1,0.9,1c0,0,0.1,0,0.1,0c0.5,0,1-0.4,1-0.9c0,0,0-0.1,0-0.1V17
	c0-0.5-0.4-1-0.9-1c0,0-0.1,0-0.1,0c-0.5,0-1,0.4-1,0.9C3,16.9,3,17,3,17 M30,30H2c-0.6,0-1,0.4-1,1s0.4,1,1,1h28c0.6,0,1-0.4,1-1
	S30.6,30,30,30 M7,17v10c0,0.5,0.4,1,0.9,1c0,0,0.1,0,0.1,0c0.5,0,1-0.4,1-0.9c0,0,0-0.1,0-0.1V17c0-0.5-0.4-1-0.9-1
	c0,0-0.1,0-0.1,0c-0.5,0-1,0.4-1,0.9C7,16.9,7,17,7,17 M2,14h28c0.6,0,1-0.4,1-1s-0.4-1-1-1H2c-0.6,0-1,0.4-1,1S1.4,14,2,14 M23,17
	v10c0,0.6,0.4,1,1,1s1-0.4,1-1V17c0-0.6-0.4-1-1-1S23,16.4,23,17 M16,6c2.4,0,4.4,1.7,4.9,4h2c-0.4-3.1-2.8-5.5-5.9-5.9V1
	c0-0.6-0.4-1-1-1c-0.6,0-1,0.4-1,1v3.1C11.9,4.5,9.5,6.9,9.1,10h2C11.6,7.7,13.6,6,16,6 M27,17v10c0,0.6,0.4,1,1,1s1-0.4,1-1V17
	c0-0.6-0.4-1-1-1S27,16.4,27,17"/>
</svg>
