<?xml version="1.0" encoding="utf-8"?>
<!-- Generator: Adobe Illustrator 25.2.0, SVG Export Plug-In . SVG Version: 6.00 Build 0)  -->
<svg version="1.1" id="Layer_1" xmlns="http://www.w3.org/2000/svg" xmlns:xlink="http://www.w3.org/1999/xlink" x="0px" y="0px"
	 viewBox="0 0 32 32" style="enable-background:new 0 0 32 32;" xml:space="preserve">
<style type="text/css">
	.st0{fill-rule:evenodd;clip-rule:evenodd;fill:#151619;}
</style>
<path class="st0" d="M2,22l2-7v1h24v-1l2,7H2z M30,28H2v-4h28V28z M6,8h4v1c0,0.5,0.4,1,0.9,1c0,0,0.1,0,0.1,0h10c0.5,0,1-0.4,1-0.9
	c0,0,0-0.1,0-0.1V8h4l1.7,6H4.3L6,8z M12,8h8V6h-8V8z M6,3c0-0.5,0.4-1,0.9-1C6.9,2,7,2,7,2h18c0.5,0,1,0.4,1,0.9c0,0,0,0.1,0,0.1v2
	c0,0.5-0.4,1-0.9,1c0,0-0.1,0-0.1,0h-3V5c0-0.5-0.4-1-0.9-1c0,0-0.1,0-0.1,0H11c-0.5,0-1,0.4-1,0.9c0,0,0,0.1,0,0.1v1H7
	C6.5,6,6,5.6,6,5.1C6,5.1,6,5,6,5V3z M31.6,22L28,6V2c0-1.1-0.9-2-2-2H6C4.9,0,4,0.9,4,2v4L0.4,22H0v8h2v2h2v-2h24v2h2v-2h2v-8H31.6
	z"/>
</svg>
