<svg enable-background="new 0 0 32 32" viewBox="0 0 32 32" xmlns="http://www.w3.org/2000/svg"><path clip-rule="evenodd" d="m2 22 2-7v1h24v-1l2 7zm28 6h-28v-4h28zm-24-20h4v1c0 .5.4 1 .9 1h.1 10c.5 0 1-.4 1-.9v-.1-1h4l1.7 6h-23.4zm6 0h8v-2h-8zm-6-5c0-.5.4-1 .9-1h.1 18c.5 0 1 .4 1 .9v.1 2c0 .5-.4 1-.9 1h-.1-3v-1c0-.5-.4-1-.9-1h-.1-10c-.5 0-1 .4-1 .9v.1 1h-3c-.5 0-1-.4-1-.9v-.1zm25.6 19-3.6-16v-4c0-1.1-.9-2-2-2h-20c-1.1 0-2 .9-2 2v4l-3.6 16h-.4v8h2v2h2v-2h24v2h2v-2h2v-8z" fill="#151619" fill-rule="evenodd"/></svg>