<?xml version="1.0" encoding="utf-8"?>
<!-- Generator: Adobe Illustrator 25.2.0, SVG Export Plug-In . SVG Version: 6.00 Build 0)  -->
<svg version="1.1" id="Layer_1" xmlns="http://www.w3.org/2000/svg" xmlns:xlink="http://www.w3.org/1999/xlink" x="0px" y="0px"
	 viewBox="0 0 32 32" style="enable-background:new 0 0 32 32;" xml:space="preserve">
<style type="text/css">
	.st0{fill-rule:evenodd;clip-rule:evenodd;fill:#151619;}
</style>
<g transform="matrix(-1 0 0 1 35 0)">
	<path class="st0" d="M25.9,19.7l-8,2.3c-0.5-0.9-1.3-1.9-2.5-2.6c-0.1,0-0.1-0.1-0.2-0.1c-2.5-1.1-4.4-3.2-5.2-5.7
		c-0.7-2.3-0.5-4.7,0.7-6.9s3.1-3.7,5.5-4.4c4.9-1.4,10.1,1.3,11.5,6.1c0.8,2.6,0.4,5.4-1.2,7.7C25.9,17.4,25.8,18.7,25.9,19.7
		 M17.7,24.1l9.6-2.8c0.5-0.1,0.8-0.6,0.7-1.1c-0.2-0.9-0.2-2.1,0.3-3.2c1.8-2.7,2.3-6.1,1.4-9.2c-1.8-5.8-8.1-9.1-14-7.4
		C12.8,1.2,10.4,3.2,9,5.8s-1.7,5.5-0.8,8.3c1,3.1,3.2,5.6,6.2,6.9c1.1,0.6,1.8,1.7,2.1,2.5c0.1,0.3,0.4,0.5,0.8,0.6
		C17.4,24.2,17.6,24.2,17.7,24.1"/>
	<path class="st0" d="M28.3,24.1c0.5-0.1,0.8-0.7,0.7-1.2c-0.1-0.2-0.2-0.4-0.5-0.6c-0.2-0.1-0.5-0.1-0.7-0.1L18.1,25
		c-0.5,0.1-0.8,0.7-0.7,1.2c0.1,0.2,0.2,0.4,0.5,0.6c0.1,0.1,0.2,0.1,0.3,0.1h0.4L28.3,24.1z"/>
	<path class="st0" d="M30.3,26.2c-0.2-0.5-0.7-0.8-1.2-0.6l-9.7,2.7c-0.3,0.1-0.5,0.2-0.6,0.5c-0.1,0.2-0.1,0.5-0.1,0.7
		c0.1,0.4,0.5,0.6,0.8,0.7h0.4l9.7-2.7c0.3-0.1,0.5-0.2,0.6-0.5C30.4,26.7,30.4,26.4,30.3,26.2"/>
	<path class="st0" d="M27,29.1l-4,1.1c-0.3,0.1-0.5,0.2-0.6,0.5c-0.1,0.2-0.1,0.5-0.1,0.7c0.1,0.4,0.5,0.6,0.8,0.6h0.4l4-1.1
		c0.3-0.1,0.5-0.2,0.6-0.5c0.1-0.2,0.1-0.5,0.1-0.7C28.1,29.2,27.5,29,27,29.1"/>
	<path class="st0" d="M20.5,14.1L19,14.5l-3-8.4l2.3-0.7L20.5,14.1z M19.3,17.4c-0.1-0.4-0.1-0.8,0-1c0.2-0.3,0.4-0.5,0.8-0.6
		c0.4-0.1,0.7-0.1,1,0.1s0.5,0.4,0.6,0.8c0.1,0.4,0.1,0.7,0,1c-0.1,0.3-0.4,0.5-0.8,0.6s-0.7,0.1-1-0.1
		C19.7,18.1,19.5,17.8,19.3,17.4z"/>
</g>
</svg>
