<?xml version="1.0" encoding="utf-8"?>
<!-- Generator: Adobe Illustrator 25.2.0, SVG Export Plug-In . SVG Version: 6.00 Build 0)  -->
<svg version="1.1" id="Layer_1" xmlns="http://www.w3.org/2000/svg" xmlns:xlink="http://www.w3.org/1999/xlink" x="0px" y="0px"
	 viewBox="0 0 32 32" style="enable-background:new 0 0 32 32;" xml:space="preserve">
<style type="text/css">
	.st0{fill-rule:evenodd;clip-rule:evenodd;fill:#151619;}
</style>
<g>
	<g transform="translate(1 1)">
		<path class="st0" d="M15,28.1C7.8,28.1,1.9,22.2,1.9,15S7.8,1.9,15,1.9S28.1,7.8,28.1,15S22.2,28.1,15,28.1 M15-1
			C6.2-1-1,6.2-1,15s7.2,16,16,16s16-7.2,16-16S23.8-1,15-1"/>
		<path class="st0" d="M15,13.5c-0.8,0-1.5,0.7-1.5,1.5v5.8c0,0.8,0.7,1.5,1.5,1.5s1.5-0.7,1.5-1.5V15C16.5,14.2,15.8,13.5,15,13.5"
			/>
		<path class="st0" d="M15,7.7c-0.4,0-0.8,0.2-1,0.4s-0.4,0.6-0.4,1s0.2,0.8,0.4,1c0.3,0.3,0.6,0.4,1,0.4s0.8-0.2,1-0.4
			c0.3-0.3,0.4-0.6,0.4-1s-0.2-0.8-0.4-1C15.8,7.9,15.4,7.7,15,7.7"/>
	</g>
</g>
</svg>
