<?xml version="1.0" encoding="utf-8"?>
<!-- Generator: Adobe Illustrator 25.2.0, SVG Export Plug-In . SVG Version: 6.00 Build 0)  -->
<svg version="1.1" id="Layer_1" xmlns="http://www.w3.org/2000/svg" xmlns:xlink="http://www.w3.org/1999/xlink" x="0px" y="0px"
	 viewBox="0 0 32 32" style="enable-background:new 0 0 32 32;" xml:space="preserve">
<style type="text/css">
	.st0{fill-rule:evenodd;clip-rule:evenodd;fill:#151619;}
</style>
<g transform="translate(1)">
	<path class="st0" d="M5.4,6.6c0-0.6-0.5-1.1-1.1-1.1H0.1C-0.5,5.6-1,6-1,6.6c0,0.6,0.5,1.1,1.1,1.1h4.3C4.9,7.7,5.4,7.2,5.4,6.6"/>
	<path class="st0" d="M31,6.6C31,6.6,31,6.6,31,6.6c0-0.3-0.1-0.5-0.3-0.7c0,0,0,0,0-0.1c0,0,0,0-0.1,0c0,0-0.1-0.1-0.1-0.1
		l-4.2-4.2c-0.4-0.4-1-0.4-1.4,0c-0.4,0.4-0.4,1,0,1.4l2.5,2.5H17.2c-0.1-2.3-2-4.2-4.4-4.2c-2.4,0-4.4,2-4.4,4.4v10.6L8.1,16
		c-1.4-1.4-3.9-1.4-5.4,0c-0.7,0.7-1.1,1.7-1.1,2.7c0,1,0.4,2,1,2.6l6.9,9c0.3,0.3,0.7,0.5,1.1,0.5c0.3,0,0.6-0.1,0.8-0.3
		c0.6-0.5,0.7-1.3,0.2-1.9l-7.1-9.1c-0.2-0.2-0.3-0.5-0.3-0.8c0-0.3,0.1-0.6,0.3-0.8c0.4-0.4,1.2-0.4,1.6,0l2.6,2.6
		c0.4,0.4,1,0.5,1.5,0.3c0.5-0.2,0.8-0.7,0.8-1.2V5.7c0-0.9,0.8-1.7,1.7-1.7c0.9,0,1.7,0.8,1.7,1.7v8.8c0,0.6,0.4,1.1,0.9,1.3l6,2
		c2,0.7,3.3,2.5,3.3,4.6v7.1c0,0.7,0.6,1.3,1.3,1.3c0.7,0,1.3-0.6,1.3-1.3v-7.1c0-3.2-2.1-6.1-5.1-7.1l-5.1-1.7V7.7h10.2l-2.5,2.5
		c-0.4,0.4-0.4,1,0,1.4c0.4,0.4,1,0.4,1.4,0l4.2-4.2c0,0,0.1-0.1,0.1-0.1c0,0,0,0,0.1,0s0,0,0-0.1C30.9,7.2,31,6.9,31,6.6
		C31,6.7,31,6.7,31,6.6C31,6.7,31,6.6,31,6.6C31,6.6,31,6.6,31,6.6"/>
</g>
</svg>
