<?xml version="1.0" encoding="utf-8"?>
<!-- Generator: Adobe Illustrator 25.2.0, SVG Export Plug-In . SVG Version: 6.00 Build 0)  -->
<svg version="1.1" id="Layer_1" xmlns="http://www.w3.org/2000/svg" xmlns:xlink="http://www.w3.org/1999/xlink" x="0px" y="0px"
	 viewBox="0 0 32 32" style="enable-background:new 0 0 32 32;" xml:space="preserve">
<style type="text/css">
	.st0{fill-rule:evenodd;clip-rule:evenodd;fill:#151619;}
</style>
<path class="st0" d="M0.9,2.1H8c0.5,0,1,0.4,1,0.9C9,3,9,3,9,3.1v26c0,0.5-0.4,0.9-0.9,1H0.9C0.4,30,0,29.6,0,29.1c0,0,0,0,0-0.1
	v-26C0,2.5,0.3,2.1,0.9,2.1C0.9,2.1,0.9,2.1,0.9,2.1z M2,28.1h5v-2H2V28.1z M2,6.1h5v-2H2V6.1z M2,24h5v-16H2V24z M10.9,2.1H18
	c0.5,0,1,0.4,1,0.9c0,0,0,0.1,0,0.1v26c0,0.5-0.4,0.9-0.9,1H11c-0.5,0-0.9-0.4-0.9-0.9c0,0,0,0,0-0.1v-26c-0.1-0.4,0.2-0.9,0.6-1
	C10.8,2.1,10.8,2.1,10.9,2.1z M12,28.1h5v-2h-5V28.1z M12,6.1h5v-2h-5V6.1z M12,24h5v-16h-5V24z M19.8,2.8l7-1.1
	c0.5-0.1,1,0.3,1.1,0.8L32,28.1c0.1,0.5-0.3,1-0.8,1.1l-7,1.1c-0.5,0.1-1-0.3-1.1-0.8L19,4C18.9,3.4,19.2,2.9,19.8,2.8
	C19.8,2.8,19.8,2.8,19.8,2.8z M24.9,28.3l4.9-0.8l-0.3-2l-4.9,0.8L24.9,28.3z M21.5,6.6l4.9-0.8l-0.3-2l-4.9,0.8L21.5,6.6z
	 M24.3,24.3l4.9-0.8L26.7,7.8l-4.9,0.8L24.3,24.3z"/>
</svg>
