<?xml version="1.0" encoding="utf-8"?>
<!-- Generator: Adobe Illustrator 25.2.0, SVG Export Plug-In . SVG Version: 6.00 Build 0)  -->
<svg version="1.1" id="Layer_1" xmlns="http://www.w3.org/2000/svg" xmlns:xlink="http://www.w3.org/1999/xlink" x="0px" y="0px"
	 viewBox="0 0 32 32" style="enable-background:new 0 0 32 32;" xml:space="preserve">
<style type="text/css">
	.st0{fill-rule:evenodd;clip-rule:evenodd;fill:#151619;}
</style>
<g>
	<path class="st0" d="M27.6,27.6c0,0.8-0.7,1.5-1.5,1.5H5.8c-0.8,0-1.5-0.7-1.5-1.5V17.5C4.4,16.7,5,16,5.8,16h20.4
		c0.8,0,1.5,0.7,1.5,1.5V27.6z M10.2,8.7c0-3.2,2.6-5.8,5.8-5.8s5.8,2.6,5.8,5.8v4.4H10.2V8.7z M26.2,13.1h-1.5V8.7
		C24.7,3.9,20.8,0,16,0S7.3,3.9,7.3,8.7v4.4H5.8c-2.4,0-4.4,2-4.4,4.4v10.2c0,2.4,2,4.4,4.4,4.4h20.4c2.4,0,4.4-2,4.4-4.4V17.5
		C30.5,15,28.6,13.1,26.2,13.1z"/>
</g>
</svg>
