<?xml version="1.0" encoding="utf-8"?>
<!-- Generator: Adobe Illustrator 25.2.0, SVG Export Plug-In . SVG Version: 6.00 Build 0)  -->
<svg version="1.1" id="Layer_1" xmlns="http://www.w3.org/2000/svg" xmlns:xlink="http://www.w3.org/1999/xlink" x="0px" y="0px"
	 viewBox="0 0 32 32" style="enable-background:new 0 0 32 32;" xml:space="preserve">
<style type="text/css">
	.st0{fill:#151619;}
</style>
<g>
	<path class="st0" d="M16,21.7c2.5,0,4.6-2,4.6-4.6s-2-4.6-4.6-4.6s-4.6,2-4.6,4.6S13.5,21.7,16,21.7L16,21.7z M16,14.4
		c1.5,0,2.7,1.2,2.7,2.7s-1.2,2.7-2.7,2.7c-1.5,0-2.7-1.2-2.7-2.7l0,0C13.3,15.6,14.5,14.4,16,14.4z"/>
	<path class="st0" d="M19.1,2.6c-0.3-1.7-2-2.9-3.7-2.5c-1.3,0.2-2.3,1.3-2.5,2.5c-8,1.7-13.1,9.6-11.4,17.7s9.6,13.1,17.7,11.4
		S32.3,22,30.5,14C29.3,8.3,24.8,3.8,19.1,2.6z M16,1.5c0.9,0,1.7,0.8,1.7,1.7S16.9,4.9,16,4.9c-0.9,0-1.7-0.8-1.7-1.7
		S15.1,1.5,16,1.5L16,1.5z M16,30.1c-7.2,0-13-5.8-13-13C3,11.1,7.2,5.8,13.1,4.4c0.7,1.6,2.6,2.4,4.2,1.7c0.8-0.3,1.4-0.9,1.7-1.7
		c7,1.5,11.5,8.4,10,15.5C27.6,26,22.2,30.3,16,30.1L16,30.1z"/>
	<path class="st0" d="M16,7.8c-5.2,0-9.3,4.2-9.3,9.4c0,1.7,0.5,3.4,1.4,4.8c-0.5,0.9-0.3,2,0.4,2.7c0.7,0.7,1.8,0.9,2.7,0.4
		c4.4,2.7,10.2,1.3,12.9-3.1s1.3-10.2-3.1-12.9C19.4,8.3,17.7,7.8,16,7.8L16,7.8z M11.7,21.5c-0.6-0.6-1.4-0.8-2.2-0.6
		c-2.1-3.6-0.8-8.2,2.8-10.2s8.2-0.8,10.2,2.8s0.8,8.2-2.8,10.2c-2.3,1.3-5.2,1.3-7.5,0C12.5,22.8,12.2,22,11.7,21.5z M9.3,22.3
		c0.4-0.4,1.1-0.4,1.6,0c0.4,0.4,0.4,1.1,0,1.6c0,0,0,0,0,0c-0.4,0.4-1.1,0.4-1.6,0C8.8,23.4,8.8,22.7,9.3,22.3
		C9.3,22.3,9.3,22.3,9.3,22.3z"/>
</g>
</svg>
