<svg enable-background="new 0 0 32 32" viewBox="0 0 32 32" xmlns="http://www.w3.org/2000/svg"><g fill="#151619"><path d="m12.1 11.8c.5-.5.6-1.1.6-1.9 0-1-.2-1.6-.6-1.9-.5-.6-1.1-.7-2.1-.7h-2.2v7.1h1.5v-1.9h.7c1-.1 1.6-.4 2.1-.7zm-2.9-3.1h.8c.5 0 .8 0 1.1.3.2.2.3.5.3.8 0 .5-.2.8-.3 1-.2.2-.5.3-1 .3h-1v-2.4z"/><path d="m22.1 25h-3.2v-7.3h-5.8v7.1h-3.2c-.3 0-.6.5-.3.8l6 6.1c.3.3.8.3 1.1 0l5.8-6c.3-.2-.1-.7-.4-.7z"/><path d="m18.3 8.2c-.6-.6-1.5-1-2.6-1h-2.1v7.1h2.1c1.1 0 1.9-.3 2.6-1 .5-.6.8-1.5.8-2.6s-.2-1.8-.8-2.5zm-1.2 4.2c-.3.3-.8.5-1.5.5h-.8v-4.2h.8c.6 0 1.1.2 1.5.5.3.5.5 1 .5 1.6s-.1 1.3-.5 1.6z"/><path d="m24.1 8.7v-1.3h-4.4v6.9h1.5v-2.9h2.7v-1.2h-2.7v-1.5z"/><path d="m25.8 0h-19.6c-1.2 0-2.1 1-2.1 2.1v24.8c0 1.1 1 2.1 2.1 2.1h4.5l-.7-.6-.6-.6h-3.2c-.5 0-.8-.3-.8-.8v-24.9c0-.5.3-.8.8-.8h19.8c.5 0 .8.3.8.8v24.8c0 .5-.3.8-.8.8h-2.9l-.6.6-.7.7h4c1.1 0 2.1-1 2.1-2.1v-24.8c0-1.1-.9-2.1-2.1-2.1z"/></g></svg>