<svg enable-background="new 0 0 32 32" viewBox="0 0 32 32" xmlns="http://www.w3.org/2000/svg"><g clip-rule="evenodd" fill="#151619" fill-rule="evenodd"><path d="m25.7 11.8c-.8 0-1.4.6-1.4 1.4v2.8c0 4.6-3.7 8.3-8.3 8.3s-8.3-3.7-8.3-8.3v-2.8c0-.8-.6-1.4-1.4-1.4s-1.4.6-1.4 1.4v2.8c0 5.7 4.3 10.4 9.7 11v2.2h-4.2c-.8 0-1.4.6-1.4 1.4s.6 1.4 1.4 1.4h11.1c.8 0 1.4-.6 1.4-1.4s-.6-1.4-1.4-1.4h-4.2v-2.2c5.5-.7 9.7-5.4 9.7-11v-2.8c.1-.7-.5-1.4-1.3-1.4"/><path d="m13.2 5.6c0-1.5 1.3-2.8 2.8-2.8s2.8 1.3 2.8 2.8v10.4c0 1.5-1.3 2.8-2.8 2.8s-2.8-1.3-2.8-2.8zm2.8 16c3.1 0 5.6-2.5 5.6-5.6v-10.4c-.1-3.1-2.6-5.6-5.6-5.6s-5.6 2.5-5.6 5.6v10.4c0 3.1 2.5 5.6 5.6 5.6z"/></g></svg>