<?xml version="1.0" encoding="utf-8"?>
<!-- Generator: Adobe Illustrator 25.2.0, SVG Export Plug-In . SVG Version: 6.00 Build 0)  -->
<svg version="1.1" id="Layer_1" xmlns="http://www.w3.org/2000/svg" xmlns:xlink="http://www.w3.org/1999/xlink" x="0px" y="0px"
	 viewBox="0 0 32 32" style="enable-background:new 0 0 32 32;" xml:space="preserve">
<style type="text/css">
	.st0{fill:none;}
	.st1{fill-rule:evenodd;clip-rule:evenodd;fill:#151619;}
</style>
<g>
	<path class="st0" d="M0,0h32v32H0V0z"/>
	<g>
		<path class="st1" d="M26.2,11.8c-0.8,0-1.4,0.6-1.4,1.4V16c0,4.6-3.7,8.3-8.3,8.3c-4.6,0-8.3-3.7-8.3-8.3v-2.8
			c0-0.8-0.6-1.4-1.4-1.4c-0.8,0-1.4,0.6-1.4,1.4V16c0,5.7,4.3,10.4,9.7,11v2.2h-4.2c-0.8,0-1.4,0.6-1.4,1.4c0,0.8,0.6,1.4,1.4,1.4
			H22c0.8,0,1.4-0.6,1.4-1.4c0-0.8-0.6-1.4-1.4-1.4h-4.2V27c5.5-0.7,9.7-5.4,9.7-11v-2.8C27.6,12.5,27,11.8,26.2,11.8"/>
		<path class="st1" d="M13.7,5.6c0-1.5,1.3-2.8,2.8-2.8c1.5,0,2.8,1.3,2.8,2.8V16c0,1.5-1.3,2.8-2.8,2.8c-1.5,0-2.8-1.3-2.8-2.8V5.6
			z M16.5,21.6c3.1,0,5.6-2.5,5.6-5.6V5.6C22,2.5,19.5,0,16.5,0s-5.6,2.5-5.6,5.6V16C10.9,19.1,13.4,21.6,16.5,21.6z"/>
	</g>
</g>
</svg>
