<?xml version="1.0" encoding="utf-8"?>
<!-- Generator: Adobe Illustrator 25.2.0, SVG Export Plug-In . SVG Version: 6.00 Build 0)  -->
<svg version="1.1" id="Layer_1" xmlns="http://www.w3.org/2000/svg" xmlns:xlink="http://www.w3.org/1999/xlink" x="0px" y="0px"
	 viewBox="0 0 32 32" style="enable-background:new 0 0 32 32;" xml:space="preserve">
<style type="text/css">
	.st0{fill-rule:evenodd;clip-rule:evenodd;fill:#151619;}
</style>
<g>
	<path class="st0" d="M29.1,21.8c0,0.8-0.7,1.5-1.5,1.5h-1.5v-4.4c0-0.8-0.7-1.5-1.5-1.5H7.3c-0.8,0-1.5,0.7-1.5,1.5v4.4H4.4
		c-0.8,0-1.5-0.7-1.5-1.5v-7.3c0-0.8,0.7-1.5,1.5-1.5h23.3c0.8,0,1.5,0.7,1.5,1.5V21.8z M8.7,29.1h14.5v-8.7H8.7V29.1z M8.7,10.2
		h14.5V2.9H8.7V10.2z M27.6,10.2h-1.5V1.5c0-0.8-0.7-1.5-1.5-1.5H7.3C6.5,0,5.8,0.7,5.8,1.5v8.7H4.4c-2.4,0-4.4,2-4.4,4.4v7.3
		c0,2.4,2,4.4,4.4,4.4h1.5v4.4c0,0.8,0.7,1.5,1.5,1.5h17.5c0.8,0,1.5-0.7,1.5-1.5v-4.4h1.5c2.4,0,4.4-2,4.4-4.4v-7.3
		C32,12.1,30,10.2,27.6,10.2z"/>
</g>
</svg>
