<?xml version="1.0" encoding="utf-8"?>
<!-- Generator: Adobe Illustrator 25.2.0, SVG Export Plug-In . SVG Version: 6.00 Build 0)  -->
<svg version="1.1" id="Layer_1" xmlns="http://www.w3.org/2000/svg" xmlns:xlink="http://www.w3.org/1999/xlink" x="0px" y="0px"
	 viewBox="0 0 32 32" style="enable-background:new 0 0 32 32;" xml:space="preserve">
<style type="text/css">
	.st0{fill-rule:evenodd;clip-rule:evenodd;fill:#151619;}
</style>
<path class="st0" d="M15,19.3v10.1L5,24.3V14.2L15,19.3z M26.9,14.2v10.1l-10,5.1V19.3L26.9,14.2z M28.9,25v0.2
	c0,0.1-0.1,0.1-0.1,0.2s-0.1,0.1-0.1,0.2s-0.1,0.1-0.2,0.1l-0.1,0.1l-12,6.1C16.3,32,16.1,32,16,32c-0.1,0-0.3,0-0.4-0.1l-12-6.1
	l-0.1-0.1c-0.1,0-0.1-0.1-0.2-0.1c-0.1-0.1-0.1-0.1-0.1-0.2c0-0.1-0.1-0.1-0.1-0.2V12.6c0-0.1,0-0.2,0.1-0.3v-0.1
	c0-0.1,0.1-0.2,0.2-0.3l0.2-0.2l8.7-5c0.4-0.3,1-0.2,1.2,0.2c0,0,0.1,0.1,0.1,0.2c0.3,0.5,0.1,1.1-0.3,1.4c0,0,0,0-0.1,0l-7.1,4.1
	l9.9,5l9.9-5l-7-4c-0.5-0.3-0.6-0.9-0.4-1.4c0.2-0.5,0.8-0.7,1.2-0.4c0,0,0.1,0,0.1,0l8.6,4.9c0.1,0,0.2,0.1,0.2,0.2
	c0.1,0.1,0.1,0.2,0.2,0.3v0.1c0,0.1,0.1,0.2,0.1,0.3L28.9,25L28.9,25z M13.3,5.2c-0.4,0.3-1.1,0.2-1.4-0.2c-0.3-0.4-0.3-0.8,0-1.2
	l3.4-3.5c0.1-0.1,0.2-0.2,0.3-0.2C15.6,0,15.7,0,15.9,0H16c0.1,0,0.3,0,0.4,0.1c0.1,0,0.2,0.1,0.2,0.2h0.1l3.4,3.5
	c0.4,0.4,0.4,1,0,1.4c-0.4,0.4-1,0.4-1.4,0L17,3.4v7.7c0,0.5-0.4,1-0.9,1c0,0-0.1,0-0.1,0c-0.6,0-1-0.4-1-1V3.4L13.3,5.2z"/>
</svg>
