<?xml version="1.0" encoding="utf-8"?>
<!-- Generator: Adobe Illustrator 25.2.0, SVG Export Plug-In . SVG Version: 6.00 Build 0)  -->
<svg version="1.1" id="Layer_1" xmlns="http://www.w3.org/2000/svg" xmlns:xlink="http://www.w3.org/1999/xlink" x="0px" y="0px"
	 viewBox="0 0 32 32" style="enable-background:new 0 0 32 32;" xml:space="preserve">
<style type="text/css">
	.st0{fill-rule:evenodd;clip-rule:evenodd;fill:#151619;}
</style>
<path class="st0" d="M29,29c0,0.5-0.4,1-0.9,1c0,0-0.1,0-0.1,0H17V11.4l6,2.6c1.1,0,2-0.9,2-2V7h3c0.5,0,1,0.4,1,0.9
	c0,0,0,0.1,0,0.1V29z M23,4.4V11c0,0.5-0.4,1-0.9,1c0,0-0.1,0-0.1,0l-4.4-2.2L23,4.4z M9.6,2.3L9.5,2.2C9.6,2.1,9.8,2,10,2h12
	c0.2,0,0.4,0.1,0.5,0.2c-0.1,0-0.1,0.1-0.2,0.1L16,8.6L9.6,2.3z M15,30H4c-0.5,0-1-0.4-1-0.9c0,0,0-0.1,0-0.1V8c0-0.5,0.4-1,0.9-1
	C3.9,7,4,7,4,7h3v5c0,1.1,0.9,2,2,2l6-2.6V30z M9,4.4l5.4,5.4L10,12c-0.5,0-1-0.4-1-0.9c0,0,0-0.1,0-0.1V4.4z M29,5h-4V2
	c0-1.1-0.9-2-2-2H9C7.9,0,7,0.9,7,2v3H3C1.9,5,1,5.9,1,7v23c0,1.1,0.9,2,2,2h26c1.1,0,2-0.9,2-2V7C31,5.9,30.1,5,29,5z M19,20h8v-2
	h-8V20z"/>
</svg>
