<?xml version="1.0" encoding="utf-8"?>
<!-- Generator: Adobe Illustrator 25.2.0, SVG Export Plug-In . SVG Version: 6.00 Build 0)  -->
<svg version="1.1" id="Layer_1" xmlns="http://www.w3.org/2000/svg" xmlns:xlink="http://www.w3.org/1999/xlink" x="0px" y="0px"
	 viewBox="0 0 32 32" style="enable-background:new 0 0 32 32;" xml:space="preserve">
<style type="text/css">
	.st0{fill-rule:evenodd;clip-rule:evenodd;fill:#151619;}
</style>
<path class="st0" d="M19.9,14.9h2v-2h-2V14.9z M19.9,10.9h-2v6h6v-6H19.9z M10,14.9h2v-2h-2V14.9z M14,16.9v-6H8v6H14z M11,22.9h9.9
	v-2H11V22.9z M28,22.9c0,1.6-1.4,2.9-3,3H7c-0.8,0-1.5-0.3-2.1-0.9C4.3,24.4,4,23.6,4,22.9V8.9c0-0.8,0.3-1.5,0.9-2.1
	C5.5,6.3,6.2,6,7,6h18c0.8,0,1.5,0.3,2.1,0.9C27.7,7.4,28,8.2,28,8.9V22.9z M12,30h8v-2h-8V30z M31.6,10.7c-0.2-0.2-0.4-0.3-0.7-0.3
	h-1V8.9c0-1.3-0.5-2.6-1.5-3.5c-0.9-1-2.2-1.5-3.5-1.5h-8V2h1c0.3,0,0.5-0.1,0.7-0.3c0.2-0.2,0.3-0.4,0.3-0.7c0-0.3-0.1-0.5-0.3-0.7
	C18.4,0.1,18.2,0,17.9,0h-4.1c-0.3,0-0.5,0.1-0.7,0.3C13,0.5,12.9,0.7,12.9,1c0,0.3,0.1,0.5,0.3,0.7C13.4,1.9,13.6,2,13.9,2h1v2H7
	c-1.3,0-2.6,0.5-3.5,1.5C2.5,6.4,2,7.6,2,8.9v1H1c-0.7,0-1,0.3-1,1v8c0,0.7,0.3,1,1,1h1v3c0,1.3,0.5,2.6,1.5,3.5
	c0.9,1,2.2,1.5,3.5,1.5h3V32h11.9v-4.2H25c1.3,0,2.6-0.5,3.5-1.5c1-0.9,1.5-2.2,1.5-3.5v-3h1c0.3,0,0.5-0.1,0.7-0.3
	c0.2-0.2,0.3-0.4,0.3-0.7v-7.6C31.9,11.1,31.7,10.9,31.6,10.7z"/>
</svg>
