<svg enable-background="new 0 0 32 32" viewBox="0 0 32 32" xmlns="http://www.w3.org/2000/svg"><path clip-rule="evenodd" d="m30 2.1h-28v3.9h28zm0-2c.5 0 1.1.2 1.4.6s.5.9.6 1.4v3.9c0 .5-.2 1.1-.6 1.4-.4.4-.9.6-1.4.6h-28c-.5 0-1.1-.2-1.4-.6-.4-.4-.6-.9-.6-1.4v-3.9c0-.5.2-1 .6-1.4s.9-.6 1.4-.6zm-4 14h-20v3.9h20zm0-2c.5 0 1.1.2 1.4.6s.5.9.6 1.4v3.9c0 .5-.2 1.1-.6 1.4s-.9.5-1.4.6h-20c-.5 0-1.1-.2-1.4-.6-.4-.4-.6-.9-.6-1.4v-3.9c0-.5.2-1 .6-1.4s.9-.6 1.4-.6zm-4 13.9h-12v3.9h12zm0-2c.5 0 1.1.2 1.4.6s.5.9.6 1.4v3.9c0 1.1-.9 2-2 2h-12c-.5 0-1.1-.2-1.4-.6s-.5-.8-.6-1.3v-3.9c0-.5.2-1.1.6-1.4s.9-.5 1.4-.6z" fill="#151619" fill-rule="evenodd"/></svg>