<?xml version="1.0" encoding="utf-8"?>
<!-- Generator: Adobe Illustrator 25.2.0, SVG Export Plug-In . SVG Version: 6.00 Build 0)  -->
<svg version="1.1" id="Layer_1" xmlns="http://www.w3.org/2000/svg" xmlns:xlink="http://www.w3.org/1999/xlink" x="0px" y="0px"
	 viewBox="0 0 32 32" style="enable-background:new 0 0 32 32;" xml:space="preserve">
<g>
	<g>
		<path d="M16,32C7.2,32,0,24.8,0,16C0,7.2,7.2,0,16,0c8.8,0,16,7.2,16,16C32,24.8,24.8,32,16,32z M16,2C8.3,2,2,8.3,2,16
			s6.3,14,14,14s14-6.3,14-14S23.7,2,16,2z"/>
	</g>
	<g>
		<path d="M9,16.7v2.9c0,1.1,0.9,2,2,1.9c0,0,0,0,0,0h1v-6.8h-1C9.9,14.8,9,15.6,9,16.7C9,16.7,9,16.7,9,16.7z"/>
	</g>
	<g>
		<path d="M23.8,15.8c0.1-0.3,0.2-0.6,0.2-0.9c0-0.3-0.2-0.6-0.4-0.9c-0.2-0.3-0.6-0.4-0.9-0.4h-4.3c0.8-2.3,1.1-3.9,1.1-4.6
			c0-0.4-0.2-0.8-0.6-0.9c-0.1,0-0.7,0-0.9,0c-0.5,0-0.8,0.4-1,1c-0.2,0.4-0.7,1.9-1.5,4.6L13,15.7v4.9l6.9,1.4
			c0.5,0.1,1.1-0.1,1.5-0.5c0.4-0.3,0.6-0.7,0.7-1.2c0-0.3,0-0.5-0.2-0.6c0.4,0,0.7-0.3,1.1-1c0.4-0.5,0.5-1.2,0.4-1.8
			c0-0.1,0-0.3-0.1-0.4c0-0.1-0.1-0.1-0.1-0.2h-0.1H23C23.3,16.4,23.6,16.2,23.8,15.8z"/>
	</g>
</g>
</svg>
