<svg enable-background="new 0 0 32 32" viewBox="0 0 32 32" xmlns="http://www.w3.org/2000/svg"><path clip-rule="evenodd" d="m12 6h8v-2h-8zm16 2h-24v-5c0-.5.4-1 .9-1h.1 22c.5 0 1 .4 1 .9v.1zm0 11v1h-24v-10h24zm-2 7c-1.1 0-2-.9-2-2s.9-2 2-2 2 .9 2 2-.9 2-2 2zm-3.4 0h-13.2c.3-.6.6-1.3.6-2s-.2-1.4-.6-2h13.1c-.3.6-.6 1.3-.6 2 .1.7.3 1.4.7 2zm-16.6 0c-1.1 0-2-.9-2-2s.9-2 2-2 2 .9 2 2-.9 2-2 2zm22-26h-24c-1.1 0-2 .9-2 2v22c0 1.4.7 2.7 2 3.4v3.6c0 .5.4 1 .9 1h.1c.5 0 1-.4 1-.9v-.1-3h20v3c0 .6.4 1 1 1s1-.4 1-1v-3.6c1.2-.7 2-2 2-3.4v-22c0-1.1-.9-2-2-2z" fill="#151619" fill-rule="evenodd"/></svg>