<?xml version="1.0" encoding="utf-8"?>
<!-- Generator: Adobe Illustrator 25.2.0, SVG Export Plug-In . SVG Version: 6.00 Build 0)  -->
<svg version="1.1" id="Layer_1" xmlns="http://www.w3.org/2000/svg" xmlns:xlink="http://www.w3.org/1999/xlink" x="0px" y="0px"
	 viewBox="0 0 32 32" style="enable-background:new 0 0 32 32;" xml:space="preserve">
<style type="text/css">
	.st0{fill-rule:evenodd;clip-rule:evenodd;fill:#151619;}
</style>
<path class="st0" d="M12,6h8V4h-8V6z M28,8H4V3c0-0.5,0.4-1,0.9-1C4.9,2,5,2,5,2h22c0.5,0,1,0.4,1,0.9c0,0,0,0.1,0,0.1V8z M28,19v1
	H4V10h24V19z M26,26c-1.1,0-2-0.9-2-2s0.9-2,2-2c1.1,0,2,0.9,2,2S27.1,26,26,26z M22.6,26H9.4c0.3-0.6,0.6-1.3,0.6-2
	c0-0.7-0.2-1.4-0.6-2h13.1c-0.3,0.6-0.6,1.3-0.6,2C22,24.7,22.2,25.4,22.6,26z M6,26c-1.1,0-2-0.9-2-2s0.9-2,2-2s2,0.9,2,2
	S7.1,26,6,26z M28,0H4C2.9,0,2,0.9,2,2v22c0,1.4,0.7,2.7,2,3.4V31c0,0.5,0.4,1,0.9,1c0,0,0.1,0,0.1,0c0.5,0,1-0.4,1-0.9
	c0,0,0-0.1,0-0.1v-3h20v3c0,0.6,0.4,1,1,1c0.6,0,1-0.4,1-1v-3.6c1.2-0.7,2-2,2-3.4V2C30,0.9,29.1,0,28,0z"/>
</svg>
