<?xml version="1.0" encoding="utf-8"?>
<!-- Generator: Adobe Illustrator 25.2.0, SVG Export Plug-In . SVG Version: 6.00 Build 0)  -->
<svg version="1.1" id="Layer_1" xmlns="http://www.w3.org/2000/svg" xmlns:xlink="http://www.w3.org/1999/xlink" x="0px" y="0px"
	 viewBox="0 0 32 32" style="enable-background:new 0 0 32 32;" xml:space="preserve">
<style type="text/css">
	.st0{fill:#151619;}
</style>
<path class="st0" d="M32,6.1c-0.9,1.3-2,2.5-3.3,3.4v0.9C28.7,19,22.1,29,10.1,29C6.5,29,3,28,0,26.1c0.5,0.1,1.1,0.1,1.6,0.1
	c3,0,5.8-1,8.1-2.8c-2.8-0.1-5.3-1.9-6.1-4.6c0.4,0.1,0.8,0.1,1.2,0.1c0.6,0,1.2-0.1,1.7-0.2c-3.1-0.6-5.3-3.3-5.3-6.4v-0.1
	c0.9,0.5,1.9,0.8,3,0.8c-2.9-1.9-3.7-5.8-2-8.8c3.3,4.1,8.3,6.6,13.5,6.9c-0.1-0.5-0.2-1-0.2-1.5C15.7,6,18.6,3,22.1,3
	c1.8,0,3.6,0.7,4.8,2.1c1.5-0.3,2.9-0.8,4.2-1.6c-0.5,1.5-1.5,2.8-2.9,3.6C29.5,7,30.8,6.6,32,6.1L32,6.1z"/>
</svg>
