<?xml version="1.0" encoding="utf-8"?>
<!-- Generator: Adobe Illustrator 25.2.0, SVG Export Plug-In . SVG Version: 6.00 Build 0)  -->
<svg version="1.1" id="Layer_1" xmlns="http://www.w3.org/2000/svg" xmlns:xlink="http://www.w3.org/1999/xlink" x="0px" y="0px"
	 viewBox="0 0 32 32" style="enable-background:new 0 0 32 32;" xml:space="preserve">
<style type="text/css">
	.st0{fill:none;}
	.st1{fill-rule:evenodd;clip-rule:evenodd;fill:#151619;}
</style>
<g>
	<path class="st0" d="M0,0h32v32H0V0z"/>
	<g>
		<path class="st1" d="M27.8,26.6H4.2c-0.8,0-1.4-0.6-1.4-1.4c0-0.2,0.1-0.5,0.2-0.7L14.8,4.8l0,0c0.3-0.4,0.7-0.7,1.2-0.7
			c0.5,0,0.9,0.3,1.2,0.7L29,24.5c0.1,0.2,0.2,0.5,0.2,0.7C29.2,26,28.6,26.6,27.8,26.6z M31.4,23.1L31.4,23.1L19.6,3.4c0,0,0,0,0,0
			c-0.8-1.3-2.1-2-3.6-2c-1.5,0-2.8,0.8-3.6,2c0,0,0,0,0,0L0.6,23.1c0,0,0,0,0,0C0.2,23.8,0,24.5,0,25.2c0,2.3,1.9,4.2,4.1,4.2h0
			h23.7h0c2.3,0,4.1-1.9,4.1-4.2C32,24.5,31.8,23.8,31.4,23.1L31.4,23.1z"/>
		<path class="st1" d="M16,9.9c-0.8,0-1.4,0.6-1.4,1.4v5.6c0,0.8,0.6,1.4,1.4,1.4c0.8,0,1.4-0.6,1.4-1.4v-5.6
			C17.4,10.5,16.8,9.9,16,9.9"/>
		<path class="st1" d="M16,21c-0.4,0-0.7,0.1-1,0.4s-0.4,0.6-0.4,1s0.1,0.7,0.4,1c0.3,0.3,0.6,0.4,1,0.4c0.4,0,0.7-0.1,1-0.4
			c0.3-0.3,0.4-0.6,0.4-1s-0.1-0.7-0.4-1C16.7,21.2,16.4,21,16,21"/>
	</g>
</g>
</svg>
