<?xml version="1.0" encoding="utf-8"?>
<!-- Generator: Adobe Illustrator 25.2.0, SVG Export Plug-In . SVG Version: 6.00 Build 0)  -->
<svg version="1.1" id="Layer_1" xmlns="http://www.w3.org/2000/svg" xmlns:xlink="http://www.w3.org/1999/xlink" x="0px" y="0px"
	 viewBox="0 0 32 32" style="enable-background:new 0 0 32 32;" xml:space="preserve">
<style type="text/css">
	.st0{fill:#151619;}
</style>
<path class="st0" d="M26.7,16c0-3.1-1.3-5.7-3.3-7.7l-0.4-4.7c-0.3-2-2-3.6-4-3.6h-5.9c-2,0-3.7,1.6-4,3.6L8.7,8.3
	c-2,1.9-3.3,4.7-3.3,7.7s1.3,5.9,3.3,7.7l0.4,4.7c0.3,2,2,3.6,4,3.6h5.7c2.1,0,3.7-1.6,4-3.6l0.4-4.5C25.3,21.9,26.7,19.1,26.7,16z
	 M11.7,3.9c0-0.7,0.7-1.2,1.3-1.2h5.9c0.7,0,1.3,0.5,1.3,1.2l0.3,2.4c-1.5-0.5-2.9-0.9-4.5-0.9s-3.1,0.4-4.4,0.9L11.7,3.9z
	 M20.3,28.1c0,0.7-0.7,1.2-1.3,1.2h-5.9c-0.7,0-1.2-0.5-1.3-1.2l-0.3-2.4c1.3,0.7,2.8,0.9,4.4,0.9s3.1-0.4,4.4-0.9V28.1z M16,24
	c-4.4,0-8-3.6-8-8c0-2.4,1.1-4.7,2.8-6.1C12.3,8.7,14,8,16,8c4.4,0,8,3.6,8,8S20.4,24,16,24z M17.3,15.5V12c0-0.8-0.7-1.3-1.3-1.3
	c-0.7,0-1.3,0.5-1.3,1.3v4c0,0.4,0.1,0.7,0.4,0.9l2,2c0.3,0.3,0.7,0.4,0.9,0.4s0.7-0.1,0.9-0.4c0.5-0.5,0.5-1.3,0-1.9L17.3,15.5z"/>
</svg>
