<?xml version="1.0" encoding="utf-8"?>
<!-- Generator: Adobe Illustrator 25.2.0, SVG Export Plug-In . SVG Version: 6.00 Build 0)  -->
<svg version="1.1" id="Layer_1" xmlns="http://www.w3.org/2000/svg" xmlns:xlink="http://www.w3.org/1999/xlink" x="0px" y="0px"
	 viewBox="0 0 32 32" style="enable-background:new 0 0 32 32;" xml:space="preserve">
<style type="text/css">
	.st0{fill:#151619;}
</style>
<path class="st0" d="M12.7,20.1l8.6-4.5l-8.6-4.5V20.1z M16,4.7c6.7,0,11.2,0.3,11.2,0.3c1.2,0,2.4,0.5,3.2,1.4
	c0.7,0.9,1.2,2,1.3,3.2c0.2,1.7,0.3,3.4,0.3,5.2v2.4c0,1.7-0.1,3.5-0.3,5.2c-0.1,1.2-0.5,2.3-1.3,3.2c-0.9,0.8-2,1.3-3.2,1.3
	c0,0-4.5,0.3-11.2,0.3C7.7,27.2,5.1,27,5.1,27c-1.3,0-2.6-0.5-3.5-1.4c-0.7-0.9-1.2-2-1.3-3.2C0.1,20.7,0,18.9,0,17.2v-2.4
	c0-1.7,0.1-3.5,0.3-5.2c0.1-1.2,0.5-2.3,1.3-3.2C2.4,5.5,3.6,5,4.8,5C4.8,5,9.3,4.7,16,4.7L16,4.7z"/>
</svg>
