<svg enable-background="new 0 0 32 32" viewBox="0 0 32 32" xmlns="http://www.w3.org/2000/svg"><path clip-rule="evenodd" d="m15 19.3v10.1l-10-5.1v-10.1zm11.9-5.1v10.1l-10 5.1v-10.1zm2 10.8v.2c0 .1-.1.1-.1.2s-.1.1-.1.2-.1.1-.2.1l-.1.1-12 6.1c-.1.1-.3.1-.4.1s-.3 0-.4-.1l-12-6.1-.1-.1c-.1 0-.1-.1-.2-.1-.1-.1-.1-.1-.1-.2s-.1-.1-.1-.2v-12.6c0-.1 0-.2.1-.3v-.1c0-.1.1-.2.2-.3l.2-.2 8.7-5c.4-.3 1-.2 1.2.2 0 0 .1.1.1.2.3.5.1 1.1-.3 1.4 0 0 0 0-.1 0l-7.1 4.1 9.9 5 9.9-5-7-4c-.5-.3-.6-.9-.4-1.4s.8-.7 1.2-.4h.1l8.6 4.9c.1 0 .2.1.2.2.1.1.1.2.2.3v.1c0 .1.1.2.1.3zm-15.6-19.8c-.4.3-1.1.2-1.4-.2s-.3-.8 0-1.2l3.4-3.5c.1-.1.2-.2.3-.2 0-.1.1-.1.3-.1h.1c.1 0 .3 0 .4.1.1 0 .2.1.2.2h.1l3.4 3.5c.4.4.4 1 0 1.4s-1 .4-1.4 0l-1.7-1.8v7.7c0 .5-.4 1-.9 1h-.1c-.6 0-1-.4-1-1v-7.7z" fill="#151619" fill-rule="evenodd"/></svg>