<?xml version="1.0" encoding="UTF-8"?>
<svg width="62px" height="54px" viewBox="0 0 62 54" version="1.1" xmlns="http://www.w3.org/2000/svg" xmlns:xlink="http://www.w3.org/1999/xlink">
    <!-- Generator: Sketch 48.2 (47327) - http://www.bohemiancoding.com/sketch -->
    <title>Bolt Logo</title>
    <desc>Created with Sketch.</desc>
    <defs></defs>
    <g id="Page-1" stroke="none" stroke-width="1" fill="none" fill-rule="evenodd">
        <g id="Bolt-wide" fill-rule="nonzero">
            <path d="M48.7282732,2.94118566 L61.1624414,23.9411857 C62.2791862,25.82725 62.2791862,28.17275 61.1624414,30.0588143 C59.3600838,33.1028065 58.0083155,35.3858007 57.1071367,36.9077968 C55.245167,40.0524673 52.4522125,44.7694732 48.7282732,51.0588143 C47.6487572,52.8820033 45.6883051,54 43.5707864,54 L18.4292136,54 C16.3116949,54 14.3512428,52.8820033 13.2717268,51.0588143 L0.837558594,30.0588143 C-0.279186198,28.17275 -0.279186198,25.82725 0.837558594,23.9411857 L13.2717268,2.94118566 C14.3512428,1.11799675 16.3116949,0 18.4292136,0 L43.5707864,0 C45.6883051,0 47.6487572,1.11799675 48.7282732,2.94118566 Z" id="Polygon" fill="#1F2656"></path>
            <g id="Group" transform="translate(19.000000, 12.000000)" fill="#FFCC4D">
                <polygon id="Combined-Shape" points="12 10 24 10 12 30 12 20 0 20 12 0"></polygon>
            </g>
        </g>
    </g>
</svg>