<?xml version="1.0" encoding="UTF-8"?>
<svg width="499px" height="218px" viewBox="0 0 499 218" version="1.1" xmlns="http://www.w3.org/2000/svg" xmlns:xlink="http://www.w3.org/1999/xlink">
    <!-- Generator: Sketch 46.2 (44496) - http://www.bohemiancoding.com/sketch -->
    <title>Artboard</title>
    <desc>Created with Sketch.</desc>
    <defs></defs>
    <g id="Page-1" stroke="none" stroke-width="1" fill="none" fill-rule="evenodd">
        <g id="Artboard">
            <g id="Group-3" transform="translate(24.000000, 24.000000)">
                <g id="Group-5" transform="translate(194.000000, 25.000000)">
                    <path d="M34.596,67.52 C33.604,62.56 29.512,56.112 18.848,56.112 C10.54,56.112 3.534,62.064 3.534,69.876 C3.534,76.51 8.06,81.036 15.066,82.462 L21.204,83.702 C24.614,84.384 26.536,86.368 26.536,88.91 C26.536,92.01 23.994,94.304 19.406,94.304 C13.206,94.304 10.168,90.398 9.796,86.058 L1.86,88.166 C2.542,94.428 7.688,101.93 19.344,101.93 C29.574,101.93 35.216,95.11 35.216,88.352 C35.216,82.152 30.938,76.944 22.94,75.394 L16.802,74.216 C13.578,73.596 12.028,71.674 12.028,69.256 C12.028,66.342 14.756,63.676 18.91,63.676 C24.49,63.676 26.474,67.458 26.908,69.876 L34.596,67.52 Z M72.4518953,71.496 L61.6638953,71.496 L51.1238953,82.842 L51.1238953,57.112 L42.8778953,57.112 L42.8778953,102 L51.1238953,102 L51.1238953,93.94 L54.5338953,90.344 L62.5938953,102 L72.6998953,102 L60.2378953,84.33 L72.4518953,71.496 Z M83.5237905,82.276 L97.1637905,82.276 C97.0397905,79.238 95.0557905,76.262 90.3437905,76.262 C86.0657905,76.262 83.7097905,79.486 83.5237905,82.276 Z M97.9697905,90.212 L104.851791,92.258 C103.301791,97.528 98.4657905,101.93 90.9637905,101.93 C82.5937905,101.93 75.2157905,95.916 75.2157905,85.624 C75.2157905,75.89 82.4077905,69.566 90.2197905,69.566 C99.6437905,69.566 105.285791,75.58 105.285791,85.376 C105.285791,86.554 105.161791,87.794 105.161791,87.918 L83.3377905,87.918 C83.5237905,91.948 86.9337905,94.862 91.0257905,94.862 C94.8697905,94.862 96.9777905,92.94 97.9697905,90.212 Z M121.379686,102 L121.379686,57.112 L113.133686,57.112 L113.133686,102 L121.379686,102 Z M137.535581,82.276 L151.175581,82.276 C151.051581,79.238 149.067581,76.262 144.355581,76.262 C140.077581,76.262 137.721581,79.486 137.535581,82.276 Z M151.981581,90.212 L158.863581,92.258 C157.313581,97.528 152.477581,101.93 144.975581,101.93 C136.605581,101.93 129.227581,95.916 129.227581,85.624 C129.227581,75.89 136.419581,69.566 144.231581,69.566 C153.655581,69.566 159.297581,75.58 159.297581,85.376 C159.297581,86.554 159.173581,87.794 159.173581,87.918 L137.349581,87.918 C137.535581,91.948 140.945581,94.862 145.037581,94.862 C148.881581,94.862 150.989581,92.94 151.981581,90.212 Z M177.311985,61.8800049 L169.871985,61.8800049 L169.871985,66.1580049 C169.871985,68.8860049 168.383985,70.9940049 165.159985,70.9940049 L163.609985,70.9940049 L163.609985,78.3100049 L169.127985,78.3100049 L169.127985,92.5080049 C169.127985,98.3980049 172.847985,101.932005 178.799985,101.932005 C181.217985,101.932005 182.705985,101.498005 183.449985,101.188005 L183.449985,94.3680049 C183.015985,94.4920049 181.899985,94.6160049 180.907985,94.6160049 C178.551985,94.6160049 177.311985,93.7480049 177.311985,91.0820049 L177.311985,78.3100049 L183.449985,78.3100049 L183.449985,70.9940049 L177.311985,70.9940049 L177.311985,61.8800049 Z M205.187372,94.428 C209.217372,94.428 212.937372,91.514 212.937372,85.748 C212.937372,79.982 209.217372,77.068 205.187372,77.068 C201.157372,77.068 197.437372,79.982 197.437372,85.748 C197.437372,91.452 201.157372,94.428 205.187372,94.428 Z M205.187372,69.566 C214.301372,69.566 221.183372,76.324 221.183372,85.748 C221.183372,95.11 214.301372,101.93 205.187372,101.93 C196.073372,101.93 189.191372,95.11 189.191372,85.748 C189.191372,76.324 196.073372,69.566 205.187372,69.566 Z M237.277267,84.454 C237.277267,80.92 239.385267,78.13 242.981267,78.13 C246.949267,78.13 248.623267,80.796 248.623267,84.206 L248.623267,102 L256.869267,102 L256.869267,82.78 C256.869267,76.084 253.397267,70.69 245.833267,70.69 C242.547267,70.69 238.889267,72.116 237.029267,75.278 L237.029267,71.496 L229.031267,71.496 L229.031267,102 L237.277267,102 L237.277267,84.454 Z" id="Skeleton" fill="#09162A"></path>
                    <text id="Polymer" font-family="CircularStd-Book, Circular Std" font-size="27" font-weight="300" line-spacing="61" letter-spacing="0.582631469" fill="#0D1F3B">
                        <tspan x="0" y="27">Polymer</tspan>
                    </text>
                </g>
                <g id="Group-2">
                    <rect id="Rectangle" fill="#BEF6E9" x="0" y="0" width="170" height="170"></rect>
                    <g id="polymer-2" transform="translate(85.500000, 85.000000) scale(-1, 1) rotate(-90.000000) translate(-85.500000, -85.000000) translate(25.500000, 43.500000)">
                        <g id="Group-4" transform="translate(24.000000, 0.000000)" fill-rule="nonzero">
                            <polygon id="Shape" fill="#142D55" points="47.3077519 81.9243326 0.0739767442 0.278481971 23.6922481 0.278481971 70.9264845 81.9243326"></polygon>
                            <polygon id="Shape" fill-opacity="0.2" fill="#FFFFFF" points="47.3077519 81.9243326 59.1155039 61.5127548 70.9264845 81.9243326"></polygon>
                            <polygon id="Shape" fill-opacity="0.1" fill="#FFFFFF" points="35.5 61.5127548 47.3077519 81.9243326 59.1155039 61.5127548"></polygon>
                            <polygon id="Shape" fill-opacity="0.1" fill="#000000" points="23.6922481 41.1011771 35.5 61.5127548 47.3077519 41.1011771 23.6922481 41.1011771"></polygon>
                            <polygon id="Shape" fill-opacity="0.2" fill="#000000" points="23.6922481 41.1011771 35.5 20.6895994 47.3077519 41.1011771 23.6922481 41.1011771"></polygon>
                            <polygon id="Shape" fill-opacity="0.3" fill="#000000" points="11.8844961 20.6895994 23.6922481 41.1011771 35.5004612 20.6895994 11.8849574 20.6895994"></polygon>
                            <polygon id="Shape" fill-opacity="0.4" fill="#000000" points="23.6922481 0.278481971 35.5004612 20.6895994 11.8849574 20.6895994"></polygon>
                            <polygon id="Shape" fill-opacity="0.5" fill="#000000" points="0.0739767442 0.278481971 11.8844961 20.6895994 23.6922481 0.278481971 0.0744379845 0.278481971"></polygon>
                        </g>
                        <g id="Group" transform="translate(0.000000, 20.253234)">
                            <polygon id="Shape" fill="#142D55" fill-rule="nonzero" points="24.0739767 61.6710983 0.455244186 20.8479429 12.2657636 0.436365138 47.6922481 61.6710983 24.0735155 61.6710983"></polygon>
                            <polygon id="Shape" fill-opacity="0.2" fill="#FFFFFF" fill-rule="nonzero" points="24.0739767 61.6710983 35.8844961 41.2595206 47.6922481 61.6710983 24.074438 61.6710983"></polygon>
                            <polygon id="Shape" fill-opacity="0.1" fill="#FFFFFF" fill-rule="nonzero" points="12.2657636 41.2595206 24.0735155 61.6710983 35.8844961 41.2595206"></polygon>
                            <polygon id="Shape" points="12.2657636 41.2595206 24.0735155 20.8479429 35.8844961 41.2595206"></polygon>
                            <polygon id="Shape" fill-opacity="0.1" fill="#000000" fill-rule="nonzero" points="0.455244186 20.8479429 12.2657636 41.2595206 24.0735155 20.8479429 0.455705426 20.8479429"></polygon>
                            <polygon id="Shape" fill-opacity="0.2" fill="#000000" fill-rule="nonzero" points="0.455244186 20.8479429 12.2657636 0.436365138 24.0735155 20.8479429 0.455705426 20.8479429"></polygon>
                        </g>
                        <g id="Group" transform="translate(11.992248, 0.000000)" fill-rule="nonzero">
                            <polygon id="Shape" fill="#142D55" points="12.0817287 41.1011771 0.273976744 20.6895994 12.0812674 0.278481971 23.8922481 20.6895994"></polygon>
                            <polygon id="Shape" fill-opacity="0.2" fill="#000000" points="23.8922481 20.6895994 12.0817287 0.278481971 0.273976744 20.6895994"></polygon>
                        </g>
                        <g id="Group" transform="translate(83.023256, 40.966769)" fill-rule="nonzero">
                            <polygon id="Shape" fill="#142D55" points="11.9027674 40.9575633 0.092248062 20.5459856 11.9027674 0.134407827 23.7105194 20.5459856 11.9027674 40.9575633"></polygon>
                            <polygon id="Shape" fill-opacity="0.2" fill="#000000" points="23.7109806 20.5459856 11.9032287 40.9575633 0.092248062 20.5459856"></polygon>
                        </g>
                        <g id="Group" transform="translate(71.031008, -0.000000)" fill-rule="nonzero">
                            <polygon id="Shape" fill="#142D55" points="35.7032287 61.5127548 0.276744186 0.278481971 23.8954767 0.278481971 47.5142093 41.1011771 35.7036899 61.5127548"></polygon>
                            <polygon id="Shape" fill-opacity="0.2" fill="#FFFFFF" points="23.8950155 41.1011771 35.7027674 61.5127548 47.5137481 41.1011771 23.8950155 41.1011771"></polygon>
                            <polygon id="Shape" fill-opacity="0.1" fill="#FFFFFF" points="23.8950155 41.1011771 35.7027674 20.6895994 47.5137481 41.1011771 23.8950155 41.1011771"></polygon>
                            <polygon id="Shape" fill-opacity="0.1" fill="#000000" points="12.0844961 20.6895994 23.8950155 0.278481971 35.7027674 20.6895994"></polygon>
                            <polygon id="Shape" fill-opacity="0.2" fill="#000000" points="0.276744186 0.278481971 12.0844961 20.6895994 23.895938 0.278481971"></polygon>
                        </g>
                    </g>
                </g>
            </g>
        </g>
    </g>
</svg>