<svg id="e93bb810-9d7e-4fbb-9ba1-c5b3cfcb64d3" data-name="Layer 1" xmlns="http://www.w3.org/2000/svg" viewBox="0 0 26.08 32.1"><title>energy</title><path id="f05b02e0-4006-41a7-b704-44f15c32cdbe" data-name="Fill-1" d="M6.8,15h5.9a.91.91,0,0,1,.8.4.78.78,0,0,1,.2.8L12,28.5,25.2,17.1H19.3a.91.91,0,0,1-.8-.4.78.78,0,0,1-.2-.8L20,3.6Zm3.9,17.1a.9.9,0,0,1-.5-.1.88.88,0,0,1-.5-1l1.9-13.8H4a1.2,1.2,0,0,1-1-.7,1.07,1.07,0,0,1,.3-1.1L20.6.4A1.12,1.12,0,0,1,21.9.1a.88.88,0,0,1,.5,1L20.5,15H28a1.2,1.2,0,0,1,1,.7,1.07,1.07,0,0,1-.3,1.1l-17.3,15a1.08,1.08,0,0,1-.7.3Z" transform="translate(-2.96 0)" fill="#1f2555" fill-rule="evenodd"/></svg>