<svg id="e9b68407-24ba-4b55-9949-7938db4443cd" data-name="Layer 1" xmlns="http://www.w3.org/2000/svg" viewBox="0 0 30 32"><title>government</title><path id="ed92c315-1a68-4a1a-b256-19e4c857be3b" data-name="Page-1" d="M17,17V27a1,1,0,0,0,2,0V17a1,1,0,0,0-2,0m-4,0V27a1,1,0,0,0,2,0V17a1,1,0,0,0-2,0M3,17V27a.94.94,0,0,0,1,1,.94.94,0,0,0,1-1V17a.94.94,0,0,0-1-1,.94.94,0,0,0-1,1M30,30H2a1,1,0,0,0,0,2H30a1,1,0,0,0,0-2M7,17V27a.94.94,0,0,0,1,1,.94.94,0,0,0,1-1V17a.94.94,0,0,0-1-1,.94.94,0,0,0-1,1M2,14H30a1,1,0,0,0,0-2H2a1,1,0,0,0,0,2m21,3V27a1,1,0,0,0,2,0V17a1,1,0,0,0-2,0M16,6a5,5,0,0,1,4.9,4h2A6.89,6.89,0,0,0,17,4.1V1a1,1,0,0,0-2,0V4.1A6.79,6.79,0,0,0,9.1,10h2A5,5,0,0,1,16,6M27,17V27a1,1,0,0,0,2,0V17a1,1,0,0,0-2,0" transform="translate(-1)" fill="#1f2555" fill-rule="evenodd"/></svg>