<?xml version="1.0" encoding="UTF-8" standalone="no"?>
<svg width="32px" height="32px" viewBox="0 0 32 32" version="1.1" xmlns="http://www.w3.org/2000/svg" xmlns:xlink="http://www.w3.org/1999/xlink">
    <!-- Generator: Sketch 46.2 (44496) - http://www.bohemiancoding.com/sketch -->
    <title>Icon/Industry/Life Sciences</title>
    <desc>Created with Sketch.</desc>
    <defs></defs>
    <g id="Symbols" stroke="none" stroke-width="1" fill="none" fill-rule="evenodd">
        <g id="Icon/Industry/Life-Sciences" fill="#1F2555">
            <g id="Page-1" transform="translate(3.000000, 0.000000)">
                <path d="M4.209,24.7969 L15.151,24.7969 L15.151,22.7969 L5.838,22.7969 C6.996,21.5779 8.321,20.5019 9.685,19.5009 L8.501,17.8879 C4.299,20.9729 0.003,25.0619 0.003,31.9959 L2.003,31.9959 C2.003,31.4219 2.046,30.8779 2.11,30.3469 L2.11,30.4819 L18.151,30.4819 L18.151,28.4819 L2.479,28.4819 C2.861,27.1139 3.458,25.8969 4.209,24.7969" id="Fill-1"></path>
                <path d="M21.7031,7.3345 L11.1101,7.3345 L11.1101,9.3345 L20.0351,9.3345 C18.8881,10.5185 17.5841,11.5685 16.2431,12.5465 L17.4231,14.1625 C21.6651,11.0645 26.0031,6.9605 26.0031,0.0005 L24.0031,0.0005 C24.0031,0.5735 23.9591,1.1185 23.8951,1.6495 L8.1101,1.6495 L8.1101,3.6495 L23.4881,3.6495 C23.0871,5.0175 22.4741,6.2355 21.7031,7.3345" id="Fill-3"></path>
                <path d="M13.5547,15.1689 C7.6127,11.2079 1.9997,7.4659 1.9997,0.0019 L-0.0003,0.0019 C-0.0003,8.5369 6.3267,12.7539 12.4457,16.8329 C18.3877,20.7939 23.9997,24.5359 23.9997,31.9999 L25.9997,31.9999 C25.9997,23.4649 19.6727,19.2479 13.5547,15.1689" id="Fill-6"></path>
            </g>
        </g>
    </g>
</svg>