<?xml version="1.0" encoding="UTF-8" standalone="no"?>
<svg width="32px" height="32px" viewBox="0 0 32 32" version="1.1" xmlns="http://www.w3.org/2000/svg" xmlns:xlink="http://www.w3.org/1999/xlink">
    <!-- Generator: Sketch 46.2 (44496) - http://www.bohemiancoding.com/sketch -->
    <title>Icon/product/Platform/Case-Management</title>
    <desc>Created with Sketch.</desc>
    <defs></defs>
    <g id="Symbols" stroke="none" stroke-width="1" fill="none" fill-rule="evenodd">
        <g id="Icon/product/Platform/Case-Management" fill="#1F2555">
            <g id="Page-1">
                <path d="M0,5e-05 L0,8.00055 L2.0005,8.00055 L2.0005,2.00055 L8,2.00055 L8,4.00005 L5,4.00005 L5,8.00055 L7,8.00055 L7,6.00105 L28,6.00105 L28,8.00055 L30,8.00055 L30,4.00005 L10,4.00005 L10,5e-05 L0,5e-05 Z M0,10.00005 L2.0005,32.00005 L30,32.00005 L32,10.00005 L0,10.00005 Z M2.0005,12.00055 L30,12.00055 L28,30.00055 L4,30.00055 L2.0005,12.00055 Z" id="Fill-1"></path>
                <g id="Group-6" transform="translate(7.000000, 14.500000)">
                    <path d="M6.2906,12.19435 C5.8971,11.80035 5.8971,11.16235 6.2906,10.76835 L16.2681,0.79135 C16.6616,0.39735 17.3001,0.39735 17.6936,0.79135 C18.0871,1.18485 18.0871,1.82435 17.6936,2.21585 L7.7161,12.19435 C7.3221,12.58785 6.6841,12.58785 6.2906,12.19435" id="Fill-2"></path>
                    <path d="M0.29255,5.79345 C0.66755,5.41795 1.27555,5.41795 1.65055,5.79345 L7.72305,10.86645 C8.09805,11.24195 8.09805,11.84895 7.72305,12.22295 C7.34805,12.59895 6.74055,12.59895 6.36555,12.22295 L0.29255,7.15045 C-0.08245,6.77545 -0.08245,6.16845 0.29255,5.79345" id="Fill-4"></path>
                </g>
            </g>
        </g>
    </g>
</svg>