<?xml version="1.0" encoding="UTF-8" standalone="no"?>
<svg width="32px" height="32px" viewBox="0 0 32 32" version="1.1" xmlns="http://www.w3.org/2000/svg" xmlns:xlink="http://www.w3.org/1999/xlink">
    <!-- Generator: Sketch 46.2 (44496) - http://www.bohemiancoding.com/sketch -->
    <title>Icon/product/Platform/Robo-auto</title>
    <desc>Created with Sketch.</desc>
    <defs></defs>
    <g id="Symbols" stroke="none" stroke-width="1" fill="none" fill-rule="evenodd">
        <g id="Icon/product/Platform/Robo-auto" fill="#1F2555">
            <g id="Page-1">
                <path d="M26.4050708,18.2134154 C26.1249477,19.7390769 25.5189169,21.1480615 24.6711631,22.3778462 L25.5011938,23.2078769 C26.2701785,23.9768615 26.2701785,25.2228923 25.5011938,25.9923692 C24.7322092,26.7613538 23.4851938,26.7613538 22.7162092,25.9923692 L21.8861785,25.1618462 C20.6568862,26.0091077 19.2479015,26.6141538 17.7232246,26.8952615 L17.7232246,28.0605538 C17.7232246,29.1480615 16.8415015,30.0307692 15.7539938,30.0307692 C14.6664862,30.0307692 13.7847631,29.1480615 13.7847631,28.0605538 L13.7847631,26.8952615 C12.2595938,26.6141538 10.8511015,26.0091077 9.62131692,25.1618462 L8.79128615,25.9923692 C8.02279385,26.7613538 6.77528615,26.7613538 6.00679385,25.9923692 C5.23731692,25.2228923 5.23731692,23.9768615 6.00679385,23.2078769 L6.83633231,22.3778462 C5.98857846,21.1480615 5.38304,19.7390769 5.10242462,18.2134154 L3.93860923,18.2134154 C2.85110154,18.2134154 1.96937846,17.3326769 1.96937846,16.2451692 C1.96937846,15.1576615 2.85110154,14.2769231 3.93860923,14.2769231 L5.10242462,14.2769231 C5.38304,12.7512615 5.98907077,11.3422769 6.83682462,10.1124923 L6.00679385,9.28246154 C5.23731692,8.51347692 5.23731692,7.26744615 6.00679385,6.49796923 C6.77528615,5.72898462 8.02279385,5.72898462 8.79128615,6.49796923 L9.62230154,7.32898462 C10.8515938,6.48270769 12.2600862,5.87716923 13.7847631,5.59704615 L13.7847631,4.43076923 C13.7847631,3.34227692 14.6664862,2.46153846 15.7539938,2.46153846 C16.8415015,2.46153846 17.7232246,3.34227692 17.7232246,4.43076923 L17.7232246,5.59704615 C19.2479015,5.87716923 20.6563938,6.48270769 21.8851938,7.32898462 L22.7162092,6.49796923 C23.4851938,5.72898462 24.7322092,5.72898462 25.5011938,6.49796923 C26.2701785,7.26744615 26.2701785,8.51347692 25.5011938,9.28246154 L24.6711631,10.1124923 C25.5189169,11.3422769 26.1249477,12.7512615 26.4050708,14.2769231 L27.5693785,14.2769231 C28.6568862,14.2769231 29.5386092,15.1576615 29.5386092,16.2451692 C29.5386092,17.3326769 28.6568862,18.2134154 27.5693785,18.2134154 L26.4050708,18.2134154 Z M31.50784,16.2451692 C31.50784,14.1961846 29.9408246,12.5124923 27.9400862,12.3254154 C27.7259323,11.6588308 27.4571323,11.0163692 27.1415631,10.4019692 C28.4255015,8.85513846 28.3437785,6.55606154 26.8939323,5.10572308 C25.4435938,3.65686154 23.1450092,3.57464615 21.5981785,4.8576 C20.9832862,4.54153846 20.3408246,4.27273846 19.6737477,4.05809231 C19.4856862,2.05686154 17.8029785,0.492307692 15.7539938,0.492307692 C13.7045169,0.492307692 12.0223015,2.05686154 11.83424,4.05809231 C11.1666708,4.27273846 10.5242092,4.54153846 9.90980923,4.8576 C8.36248615,3.57464615 6.06439385,3.65686154 4.61405538,5.10572308 C3.16420923,6.55606154 3.08248615,8.85513846 4.36642462,10.4019692 C4.05036308,11.0163692 3.78205538,11.6588308 3.56740923,12.3254154 C1.56667077,12.5124923 0.000147692308,14.1961846 0.000147692308,16.2451692 C0.000147692308,18.2956308 1.56667077,19.9768615 3.56740923,20.1639385 C3.78156308,20.8315077 4.05085538,21.4739692 4.36691692,22.0888615 C3.08248615,23.6366769 3.16420923,25.9342769 4.61405538,27.3846154 C6.06439385,28.8349538 8.36297846,28.9161846 9.91030154,27.6322462 C10.5247015,27.9478154 11.1671631,28.2166154 11.83424,28.4312615 C12.0213169,30.4329846 13.7040246,31.9990154 15.7539938,31.9990154 C17.8034708,31.9990154 19.4866708,30.4329846 19.6737477,28.4312615 C20.3408246,28.2166154 20.9832862,27.9478154 21.5971938,27.6322462 C23.1445169,28.9161846 25.4431015,28.8349538 26.8939323,27.3846154 C28.3437785,25.9342769 28.4255015,23.6366769 27.1410708,22.0888615 C27.4571323,21.4739692 27.7259323,20.8315077 27.9405785,20.1639385 C29.9413169,19.9768615 31.50784,18.2956308 31.50784,16.2451692 L31.50784,16.2451692 Z" id="Fill-1"></path>
                <path d="M15.7538462,21.8139077 C13.1657846,21.8139077 10.9956923,20.0450462 10.3714462,17.6524308 L12.0792615,17.6524308 L9.37156923,14.2688 L6.66436923,17.6524308 L8.50609231,17.6524308 C9.16381538,21.0572308 12.1565538,23.6295385 15.7538462,23.6295385 C18.6023385,23.6295385 21.0692923,22.0152615 22.3015385,19.6536615 L20.1511385,19.6536615 C19.1325538,20.9656615 17.5438769,21.8139077 15.7538462,21.8139077 M15.7538462,10.6759385 C18.3419077,10.6759385 20.5115077,12.4443077 21.1362462,14.8364308 L19.4279385,14.8364308 L22.1356308,18.2210462 L24.8433231,14.8364308 L23.0016,14.8364308 C22.3433846,11.4321231 19.3506462,8.85981538 15.7538462,8.85981538 C12.9058462,8.85981538 10.4384,10.4745846 9.20615385,12.8366769 L11.3565538,12.8366769 C12.3751385,11.5241846 13.9638154,10.6759385 15.7538462,10.6759385" id="Fill-4"></path>
            </g>
        </g>
    </g>
</svg>