<?xml version="1.0" encoding="UTF-8" standalone="no"?>
<svg width="32px" height="32px" viewBox="0 0 32 32" version="1.1" xmlns="http://www.w3.org/2000/svg" xmlns:xlink="http://www.w3.org/1999/xlink">
    <!-- Generator: Sketch 46.2 (44496) - http://www.bohemiancoding.com/sketch -->
    <title>Icon/product/CRM/Co-Browse</title>
    <desc>Created with Sketch.</desc>
    <defs></defs>
    <g id="Symbols" stroke="none" stroke-width="1" fill="none" fill-rule="evenodd">
        <g id="Icon/product/CRM/Co-Browse" fill="#1F2555">
            <path d="M30,12 L8,12 L8,10 C8,8.8955 8.8955,8.001 10,8.001 L28,8.001 C29.1045,8.001 30,8.8955 30,10 L30,12 Z M30,28 C30,29.1045 29.1045,30 28,30 L10,30 C8.8955,30 8,29.1045 8,28 L8,14 L30,14 L30,28 Z M28,6 L26,6 L24,6 L10,6 C7.791,6 6,7.791 6,10 L6,12 L6,14 L6,24 L6,26 L6,28 C6,30.209 7.791,32 10,32 L28,32 C30.209,32 32,30.209 32,28 L32,14 L32,12 L32,10 C32,7.791 30.209,6 28,6 L28,6 Z M4,2.001 L22,2.001 C23.1045,2.001 24,2.8965 24,4 L26,4 C26,1.791 24.2095,0 22,0 L4,0 C1.791,0 0,1.791 0,4 L0,6 L0,8 L0,22 C0,24.21 1.791,26 4,26 L4,24 C2.8955,24 2,23.1045 2,22 L2,8 L4,8 L4,6 L2,6 L2,4 C2,2.8965 2.8955,2.001 4,2.001 L4,2.001 Z" id="Page-1"></path>
        </g>
    </g>
</svg>