<?xml version="1.0" encoding="UTF-8" standalone="no"?>
<svg width="32px" height="32px" viewBox="0 0 32 32" version="1.1" xmlns="http://www.w3.org/2000/svg" xmlns:xlink="http://www.w3.org/1999/xlink">
    <!-- Generator: Sketch 46.2 (44496) - http://www.bohemiancoding.com/sketch -->
    <title>Icon/product/CRM/Sales Automation</title>
    <desc>Created with Sketch.</desc>
    <defs></defs>
    <g id="Symbols" stroke="none" stroke-width="1" fill="none" fill-rule="evenodd">
        <g id="Icon/product/CRM/Sales-Automation" fill="#1F2555">
            <path d="M25,31 L31.0005,31 L31.0005,1 L25,1 L25,31 Z M27,28.9985 L29,28.9985 L29,3 L27,3 L27,28.9985 Z M9,31 L15,31 L15,4.999 L9,4.999 L9,31 Z M11,28.9985 L13.0005,28.9985 L13.0005,7 L11,7 L11,28.9985 Z M17,31 L23,31 L23,9 L17,9 L17,31 Z M19,28.999 L21,28.999 L21,10.999 L19,10.999 L19,28.999 Z M1,31 L7,31 L7,15 L1,15 L1,31 Z M3,28.9985 L5.0005,28.9985 L5.0005,16.999 L3,16.999 L3,28.9985 Z" id="Page-1"></path>
        </g>
    </g>
</svg>