<svg id="b8c937cc-f18e-4324-9f96-db15f4171b27" data-name="Layer 1" xmlns="http://www.w3.org/2000/svg" viewBox="0 0 30 30"><title>app-development</title><path id="bd6dbd14-854d-4f5f-9e78-91c51a2a275e" data-name="Page-1" d="M29,9H3V4A.94.94,0,0,1,4,3H28a.94.94,0,0,1,1,1Zm0,19a.94.94,0,0,1-1,1H4a.94.94,0,0,1-1-1V11H29ZM30,1H2A.94.94,0,0,0,1,2V30a.94.94,0,0,0,1,1H30a.94.94,0,0,0,1-1V2a.94.94,0,0,0-1-1ZM9,7h2V5H9Zm4,0h2V5H13ZM5,7H7V5H5ZM15,25h2V21h4V19H17V15H15v4H11v2h4Z" transform="translate(-1 -1)" fill="#1f2555" fill-rule="evenodd"/></svg>