<?xml version="1.0" encoding="utf-8"?>
<!-- Generator: Adobe Illustrator 24.0.3, SVG Export Plug-In . SVG Version: 6.00 Build 0)  -->
<svg version="1.1" id="b8c937cc-f18e-4324-9f96-db15f4171b27"
	 xmlns="http://www.w3.org/2000/svg" xmlns:xlink="http://www.w3.org/1999/xlink" x="0px" y="0px" viewBox="0 0 30 30"
	 enable-background="new 0 0 30 30" xml:space="preserve">
<path id="bd6dbd14-854d-4f5f-9e78-91c51a2a275e" fill-rule="evenodd" clip-rule="evenodd" d="M28,8H2V3c0-0.5,0.4-1,0.9-1
	C2.9,2,3,2,3,2h24c0.5,0,1,0.4,1,0.9c0,0,0,0.1,0,0.1V8z M28,27c0,0.5-0.4,1-0.9,1c0,0-0.1,0-0.1,0H3c-0.5,0-1-0.4-1-0.9
	c0,0,0-0.1,0-0.1V10h26V27z M29,0H1C0.5,0,0,0.4,0,0.9C0,0.9,0,1,0,1v28c0,0.5,0.4,1,0.9,1c0,0,0.1,0,0.1,0h28c0.5,0,1-0.4,1-0.9
	c0,0,0-0.1,0-0.1V1c0-0.5-0.4-1-0.9-1C29.1,0,29,0,29,0z M8,6h2V4H8V6z M12,6h2V4h-2V6z M4,6h2V4H4V6z M14,24h2v-4h4v-2h-4v-4h-2v4
	h-4v2h4V24z"/>
</svg>
