<svg version="1.1" id="b7f23ccb-728d-456a-b36f-f61d5da9f5a0"
	 xmlns="http://www.w3.org/2000/svg" xmlns:xlink="http://www.w3.org/1999/xlink" x="0px" y="0px" viewBox="0 0 32 30"
	 enable-background="new 0 0 32 30" xml:space="preserve">
<path id="b2f16f98-b45f-4cd4-8a2f-8a68feb84ba0" fill="#1f2555" fill-rule="evenodd" clip-rule="evenodd" d="M30,26c0,1.1-0.9,2-2,2H4
	c-1.1,0-2-0.9-2-2V8c0-1.1,0.9-2,2-2h24c1.1,0,2,0.9,2,2V26z M12,3c0-0.5,0.4-1,0.9-1c0,0,0.1,0,0.1,0h6c0.5,0,1,0.4,1,0.9
	c0,0,0,0.1,0,0.1v1h-8V3z M28,4h-6V1c0-0.5-0.4-1-0.9-1c0,0-0.1,0-0.1,0H11c-0.5,0-1,0.4-1,0.9c0,0,0,0.1,0,0.1v3H4C1.8,4,0,5.8,0,8
	v18c0,2.2,1.8,4,4,4h24c2.2,0,4-1.8,4-4V8C32,5.8,30.2,4,28,4z"/>
</svg>
