<svg id="b7f23ccb-728d-456a-b36f-f61d5da9f5a0" data-name="Layer 1" xmlns="http://www.w3.org/2000/svg" viewBox="0 0 32 30"><title>case-management</title><path id="b2f16f98-b45f-4cd4-8a2f-8a68feb84ba0" data-name="Page-1" d="M30,27a2,2,0,0,1-2,2H4a2,2,0,0,1-2-2V9A2,2,0,0,1,4,7H28a2,2,0,0,1,2,2ZM12,4a.94.94,0,0,1,1-1h6a.94.94,0,0,1,1,1V5H12ZM28,5H22V2a.94.94,0,0,0-1-1H11a.94.94,0,0,0-1,1V5H4A4,4,0,0,0,0,9V27a4,4,0,0,0,4,4H28a4,4,0,0,0,4-4V9a4,4,0,0,0-4-4Z" transform="translate(0 -1)" fill="#1f2555" fill-rule="evenodd"/></svg>