<svg id="eadccda3-dd9f-4190-a59e-0b8643dcf2bc" data-name="a2a1a4ef-b4e5-4856-808b-15912bee1329" xmlns="http://www.w3.org/2000/svg" viewBox="0 0 31.98 23.96"><title>cloud</title><path id="ac682504-8ea4-4483-aa1b-fe6f1a83e8f7" data-name="ab2e5896-d1c7-47c5-af04-4ac482a776f5" d="M23,22H9A7,7,0,0,1,9,8h.1A7,7,0,0,1,16,2a6.9,6.9,0,0,1,6.7,5A7.51,7.51,0,0,1,23,22M24.1,5.1a9,9,0,0,0-16.6,1A9.1,9.1,0,0,0,0,15a9,9,0,0,0,9,9H23A9.53,9.53,0,0,0,24.1,5.1" transform="translate(0 -0.04)" fill="#1f2555" fill-rule="evenodd"/></svg>