<?xml version="1.0" encoding="utf-8"?>
<!-- Generator: Adobe Illustrator 24.0.3, SVG Export Plug-In . SVG Version: 6.00 Build 0)  -->
<svg version="1.1" id="eadccda3-dd9f-4190-a59e-0b8643dcf2bc"
	 xmlns="http://www.w3.org/2000/svg" xmlns:xlink="http://www.w3.org/1999/xlink" x="0px" y="0px" viewBox="0 0 32 24"
	 enable-background="new 0 0 32 24" xml:space="preserve">
<path id="ac682504-8ea4-4483-aa1b-fe6f1a83e8f7" fill-rule="evenodd" clip-rule="evenodd" d="M23,22H9c-3.9,0-7-3.1-7-7s3.1-7,7-7
	h0.1c0.5-3.4,3.4-6,6.9-6c3.1,0,5.8,2,6.7,5c4.1,0.1,7.4,3.6,7.3,7.7C29.9,18.5,26.9,21.7,23,22 M24.1,5.1c-2.2-4.5-7.6-6.3-12-4.2
	c-2.1,1-3.8,2.9-4.6,5.2C3.2,6.8,0,10.6,0,15c0,5,4,9,9,9h14c5.3-0.3,9.3-4.8,9-10.1C31.7,9.5,28.5,5.8,24.1,5.1"/>
</svg>
