<?xml version="1.0" encoding="UTF-8" standalone="no"?>
<svg width="32px" height="32px" viewBox="0 0 32 32" version="1.1" xmlns="http://www.w3.org/2000/svg" xmlns:xlink="http://www.w3.org/1999/xlink">
    <!-- Generator: Sketch 47.1 (45422) - http://www.bohemiancoding.com/sketch -->
    <title>Icon/product/Platform/Data-Integrations</title>
    <desc>Created with Sketch.</desc>
    <defs></defs>
    <g id="Symbols" stroke="none" stroke-width="1" fill="none" fill-rule="evenodd">
        <g id="Icon/product/Platform/Data-Integrations" fill="#1F2555">
            <path d="M26,22.3125 C23.666,24.1045 20.333,25.0005 16,25.0005 C11.666,25.0005 8.333,24.1045 6,22.3125 L6,25.0005 C6,26.0835 6.979,27.0215 8.938,27.8125 C10.896,28.6045 13.25,28.9995 16,28.9995 C18.75,28.9995 21.104,28.6045 23.062,27.8125 C25.021,27.0215 26,26.0835 26,25.0005 L26,22.3125 Z M26,16.3125 C23.666,18.1045 20.333,18.9995 16,18.9995 C11.666,18.9995 8.333,18.1045 6,16.3125 L6,18.9995 C6,20.0835 6.979,21.0215 8.938,21.8125 C10.896,22.6045 13.25,22.9995 16,22.9995 C18.75,22.9995 21.104,22.6045 23.062,21.8125 C25.021,21.0215 26,20.0835 26,18.9995 L26,16.3125 Z M26,10.3125 C23.666,12.1045 20.333,12.9995 16,12.9995 C11.666,12.9995 8.333,12.1045 6,10.3125 L6,12.9995 C6,14.0835 6.979,15.0215 8.938,15.8125 C10.896,16.6045 13.25,17.0005 16,17.0005 C18.75,17.0005 21.104,16.6045 23.062,15.8125 C25.021,15.0215 26,14.0835 26,12.9995 L26,10.3125 Z M26,6.9995 C26,5.9165 25.021,4.9795 23.062,4.1875 C21.104,3.3965 18.75,3.0005 16,3.0005 C13.25,3.0005 10.896,3.3965 8.938,4.1875 C6.979,4.9795 6,5.9165 6,6.9995 C6,8.0835 6.979,9.0215 8.938,9.8125 C10.896,10.6045 13.25,10.9995 16,10.9995 C18.75,10.9995 21.104,10.6045 23.062,9.8125 C25.021,9.0215 26,8.0835 26,6.9995 L26,6.9995 Z M28,26.1255 C27.541,27.5415 26.166,28.7085 23.875,29.6245 C21.583,30.5415 18.958,31.0005 16,31.0005 C13.041,31.0005 10.416,30.5415 8.125,29.6245 C5.833,28.7085 4.458,27.5415 4,26.1255 L4,25.0005 L4,6.9995 C4,5.3335 5.166,3.9165 7.5,2.7505 C9.833,1.5835 12.666,1.0005 16,1.0005 C19.333,1.0005 22.166,1.5835 24.5,2.7505 C26.833,3.9165 28,5.3335 28,6.9995 L28,26.1255 Z" id="Fill-1"></path>
        </g>
    </g>
</svg>