<?xml version="1.0" encoding="utf-8"?>
<!-- Generator: Adobe Illustrator 24.0.3, SVG Export Plug-In . SVG Version: 6.00 Build 0)  -->
<svg version="1.1" id="ba27b727-9051-4bd8-b393-e9740cb45c1e"
	 xmlns="http://www.w3.org/2000/svg" xmlns:xlink="http://www.w3.org/1999/xlink" x="0px" y="0px" viewBox="0 0 24 30"
	 enable-background="new 0 0 24 30" xml:space="preserve">
<path id="bc082eba-85ec-42ab-a55d-60e98a203a6a" fill-rule="evenodd" clip-rule="evenodd" d="M22,21.3c-2.3,1.8-5.7,2.7-10,2.7
	s-7.7-0.9-10-2.7V24c0,1.1,1,2,2.9,2.8c2.3,0.9,4.7,1.3,7.1,1.2c2.4,0.1,4.8-0.3,7.1-1.2C21,26,22,25.1,22,24V21.3z M22,15.3
	c-2.3,1.8-5.7,2.7-10,2.7s-7.7-0.9-10-2.7V18c0,1.1,1,2,2.9,2.8c2.3,0.9,4.7,1.3,7.1,1.2c2.4,0.1,4.8-0.3,7.1-1.2
	C21,20,22,19.1,22,18V15.3z M22,9.3c-2.3,1.8-5.7,2.7-10,2.7S4.3,11.1,2,9.3V12c0,1.1,1,2,2.9,2.8c2.3,0.9,4.7,1.3,7.1,1.2
	c2.4,0.1,4.8-0.3,7.1-1.2C21,14,22,13.1,22,12V9.3z M22,6c0-1.1-1-2-2.9-2.8C16.8,2.3,14.4,1.9,12,2C9.6,1.9,7.2,2.3,4.9,3.2
	C3,4,2,4.9,2,6s1,2,2.9,2.8C7.2,9.7,9.6,10.1,12,10c2.4,0.1,4.8-0.3,7.1-1.2C21,8,22,7.1,22,6z M24,25.1c-0.5,1.4-1.8,2.6-4.1,3.5
	c-2.5,1-5.2,1.4-7.9,1.4c-2.7,0-5.4-0.4-7.9-1.4c-2.3-0.9-3.7-2.1-4.1-3.5V6c0-1.7,1.2-3.1,3.5-4.2C6.1,0.5,9.1-0.1,12,0
	c2.9-0.1,5.8,0.5,8.5,1.7C22.8,2.9,24,4.3,24,6V25.1z"/>
</svg>
