<svg version="1.1" id="fad33671-7c24-44d5-92cf-ff1251e09021"
	 xmlns="http://www.w3.org/2000/svg" xmlns:xlink="http://www.w3.org/1999/xlink" x="0px" y="0px" viewBox="0 0 32 30"
	 enable-background="new 0 0 32 30" xml:space="preserve">
<path id="bad714ce-3f36-450a-b83a-b4f19fc4d8b2" fill="#1f2555" fill-rule="evenodd" clip-rule="evenodd" d="M28.5,13.5c0-0.9-0.8-1.5-1.6-1.5
	c-0.4,0-0.7,0.2-1,0.4c-0.3,0.3-0.4,0.7-0.4,1.1v3c0,0.4,0.1,0.8,0.4,1.1c0.3,0.3,0.7,0.4,1.1,0.4c0.4,0,0.8-0.1,1.1-0.4
	c0.3-0.3,0.4-0.7,0.4-1.1V13.5z M20,27c0-0.7-0.3-1-1-1h-2c-0.7,0-1,0.3-1,1s0.3,1,1,1h2C19.7,28,20,27.7,20,27z M6.5,13.5
	c0-0.4-0.1-0.8-0.4-1.1C5.8,12.1,5.4,12,5,12c-0.4,0-0.8,0.1-1.1,0.4c-0.3,0.3-0.4,0.7-0.4,1.1v3c0,0.4,0.1,0.8,0.4,1.1
	C4.2,17.9,4.6,18,5,18c0.4,0,0.8-0.1,1.1-0.4c0.3-0.3,0.4-0.7,0.4-1.1V13.5z M31.7,12.3c0.2,0.2,0.3,0.4,0.3,0.7v4c0,0.7-0.3,1-1,1
	h-0.8c-0.4,1-1.3,1.7-2.4,1.9C27.1,23.2,25,26,22,27.6C21.6,29,20.4,30,19,30h-2c-1.7,0-3-1.3-3-3s1.3-3,3-3h2
	c1.1,0,2.1,0.5,2.6,1.5c2.1-1.3,3.6-3.4,4.1-5.8c-1.4-0.4-2.3-1.7-2.2-3.2v-3c0-0.8,0.2-1.5,0.7-2.1c0.4-0.6,1-1,1.7-1.2
	c-0.3-2.3-1.4-4.3-3.2-5.8C21,2.8,18.8,2,16.5,2h-1C13.2,2,11,2.8,9.3,4.3c-1.7,1.5-2.9,3.5-3.2,5.8c0.7,0.2,1.3,0.6,1.7,1.2
	c0.4,0.6,0.7,1.3,0.7,2.1v3c0,0.8-0.3,1.6-0.8,2.2c-0.5,0.6-1.2,1-2,1.2C5,20.1,4.2,20,3.5,19.7c-0.7-0.4-1.3-1-1.6-1.7H1
	c-0.7,0-1-0.3-1-1v-4c0-0.7,0.3-1,1-1h0.9c0.4-0.9,1.2-1.6,2.2-1.9c0.3-2.8,1.6-5.4,3.8-7.2C10,1,12.7,0,15.5,0h1
	c2.8,0,5.6,1,7.7,2.9c2.1,1.8,3.5,4.4,3.8,7.2c1,0.2,1.8,0.9,2.2,1.9H31C31.3,12,31.5,12.1,31.7,12.3z"/>
</svg>
