<svg id="fad33671-7c24-44d5-92cf-ff1251e09021" data-name="Layer 1" xmlns="http://www.w3.org/2000/svg" viewBox="0 0 32 30"><title>intelligent-virtual-assistant</title><path id="bad714ce-3f36-450a-b83a-b4f19fc4d8b2" data-name="Page-1" d="M28.5,14.5a1.56,1.56,0,0,0-2.6-1.1,1.37,1.37,0,0,0-.4,1.1v3a1.5,1.5,0,0,0,.4,1.1A1.37,1.37,0,0,0,27,19a1.5,1.5,0,0,0,1.1-.4,1.37,1.37,0,0,0,.4-1.1ZM20,28c0-.7-.3-1-1-1H17c-.7,0-1,.3-1,1s.3,1,1,1h2C19.7,29,20,28.7,20,28ZM6.5,14.5a1.5,1.5,0,0,0-.4-1.1A1.5,1.5,0,0,0,5,13a1.5,1.5,0,0,0-1.1.4,1.37,1.37,0,0,0-.4,1.1v3a1.5,1.5,0,0,0,.4,1.1A1.5,1.5,0,0,0,5,19a1.5,1.5,0,0,0,1.1-.4,1.37,1.37,0,0,0,.4-1.1Zm25.2-1.2a.91.91,0,0,1,.3.7v4c0,.7-.3,1-1,1h-.8a3.31,3.31,0,0,1-2.4,1.9A11.37,11.37,0,0,1,22,28.6,3.2,3.2,0,0,1,19,31H17a3,3,0,0,1,0-6h2a2.79,2.79,0,0,1,2.6,1.5,8.88,8.88,0,0,0,4.1-5.8,3.05,3.05,0,0,1-2.2-3.2v-3a3.32,3.32,0,0,1,.7-2.1,3,3,0,0,1,1.7-1.2,8.92,8.92,0,0,0-3.2-5.8A8.94,8.94,0,0,0,16.5,3h-1A9.33,9.33,0,0,0,9.3,5.3a9.65,9.65,0,0,0-3.2,5.8,3,3,0,0,1,1.7,1.2,3.77,3.77,0,0,1,.7,2.1v3a3.49,3.49,0,0,1-.8,2.2,3.74,3.74,0,0,1-2,1.2,2.81,2.81,0,0,1-2.2-.1A3.32,3.32,0,0,1,1.9,19H1c-.7,0-1-.3-1-1V14c0-.7.3-1,1-1h.9a3.45,3.45,0,0,1,2.2-1.9A10.69,10.69,0,0,1,7.9,3.9,11.09,11.09,0,0,1,15.5,1h1a11.52,11.52,0,0,1,7.7,2.9A11.12,11.12,0,0,1,28,11.1,3.19,3.19,0,0,1,30.2,13H31A1.08,1.08,0,0,1,31.7,13.3Z" transform="translate(0 -1)" fill="#1f2555" fill-rule="evenodd"/></svg>