<svg version="1.1" id="b94f5788-f994-4de3-8bc3-c5c66f732e70"
	 xmlns="http://www.w3.org/2000/svg" xmlns:xlink="http://www.w3.org/1999/xlink" x="0px" y="0px" viewBox="0 0 20 32"
	 enable-background="new 0 0 20 32" xml:space="preserve">
<path id="fc214323-3076-4b82-9bfd-b41192da17fa" fill="#1f2555" fill-rule="evenodd" clip-rule="evenodd" d="M8.6,27.4c-0.7-0.6-0.8-1.7-0.2-2.4
	c0.4-0.8,1.5-1.1,2.3-0.7l0,0c0.9,0.2,1.4,1.2,1.2,2.1c0,0,0,0,0,0c-0.1,1-0.7,1.5-1.8,1.6C9.5,28.1,9,27.8,8.6,27.4z M18,22H2v6
	c0,0.5,0.2,1.1,0.6,1.4C3,29.8,3.5,30,4,30h12c0.5,0,1.1-0.2,1.4-0.6C17.8,29,18,28.5,18,28V22z M18,4c0-0.5-0.2-1.1-0.6-1.4
	C17,2.2,16.5,2,16,2H4C3.5,2,2.9,2.2,2.6,2.6C2.2,3,2,3.5,2,4v16h16V4z M20,4v24c-0.1,2.2-1.8,3.9-4,4H4c-1.1,0-2.1-0.4-2.8-1.2
	C0.4,30.1,0,29.1,0,28V4c0-1.1,0.4-2.1,1.2-2.8C1.9,0.4,2.9,0,4,0h12c1.1,0,2.1,0.4,2.8,1.2C19.6,1.9,20,2.9,20,4z"/>
</svg>
