<svg version="1.1" id="baea1334-e77b-447e-a7e3-acc0c198eb3a"
	 xmlns="http://www.w3.org/2000/svg" xmlns:xlink="http://www.w3.org/1999/xlink" x="0px" y="0px" viewBox="0 0 32.1 32.2"
	 enable-background="new 0 0 32.1 32.2" xml:space="preserve">
<path id="bf6bae7d-afc6-4b28-97a4-da54927c0cb9" fill-rule="evenodd" clip-rule="evenodd" d="M20,15h2v-2h-2V15z M20,11h-2v6h6v-6
	H20z M10,15h2v-2h-2V15z M14,17v-6H8v6H14z M11,23h10v-2H11V23z M28.1,23c0,1.6-1.4,3-3,3H7c-0.8,0-1.6-0.3-2.1-0.9
	C4.3,24.6,4,23.8,4,23V9c0-0.8,0.3-1.6,0.9-2.1C5.4,6.3,6.2,6,7,6h18.1c0.8,0,1.6,0.3,2.1,0.9c0.6,0.5,0.9,1.3,0.9,2.1V23z M12,30.2
	h8v-2h-8V30.2z M31.7,10.8c-0.2-0.2-0.4-0.3-0.7-0.3h-1V9c0-1.3-0.5-2.6-1.5-3.5C27.6,4.5,26.3,4,25,4h-8V2h1c0.3,0,0.5-0.1,0.7-0.3
	C18.9,1.5,19,1.3,19,1c0-0.3-0.1-0.5-0.3-0.7C18.5,0.1,18.3,0,18,0h-4.1c-0.3,0-0.5,0.1-0.7,0.3C13,0.5,12.9,0.7,12.9,1
	c0,0.3,0.1,0.5,0.3,0.7C13.4,1.9,13.6,2,13.9,2h1v2H7C5.7,4,4.4,4.5,3.5,5.5C2.5,6.4,2,7.7,2,9v1H1c-0.7,0-1,0.3-1,1v8
	c0,0.7,0.3,1,1,1h1v3c0,1.3,0.5,2.6,1.5,3.5C4.4,27.5,5.7,28,7,28h3v4.2h12V28h3.1c1.3,0,2.6-0.5,3.5-1.5c1-0.9,1.5-2.2,1.5-3.5v-3
	h1c0.3,0,0.5-0.1,0.7-0.3c0.2-0.2,0.3-0.4,0.3-0.7v-7.6C32,11.2,31.9,11,31.7,10.8z"/>
</svg>
