<svg id="baea1334-e77b-447e-a7e3-acc0c198eb3a" data-name="Layer 1" xmlns="http://www.w3.org/2000/svg" viewBox="0 0 32.1 32.2"><title>robo-auto</title><path id="bf6bae7d-afc6-4b28-97a4-da54927c0cb9" data-name="Page-1" d="M20,15h2V13H20Zm0-4H18v6h6V11H20ZM10,15h2V13H10Zm4,2V11H8v6h6Zm-3,6H21V21H11Zm17.1,0a3.08,3.08,0,0,1-3,3H7a2.88,2.88,0,0,1-2.1-.9A2.88,2.88,0,0,1,4,23V9a2.88,2.88,0,0,1,.9-2.1A2.88,2.88,0,0,1,7,6H25.1a2.88,2.88,0,0,1,2.1.9A2.88,2.88,0,0,1,28.1,9ZM12,30.2h8v-2H12ZM31.7,10.8a.91.91,0,0,0-.7-.3H30V9a4.54,4.54,0,0,0-1.5-3.5A4.85,4.85,0,0,0,25,4H17V2h1a1.08,1.08,0,0,0,.7-.3A.91.91,0,0,0,19,1a.91.91,0,0,0-.3-.7A1.08,1.08,0,0,0,18,0H13.9a1.08,1.08,0,0,0-.7.3.91.91,0,0,0-.3.7.91.91,0,0,0,.3.7,1.33,1.33,0,0,0,.7.3h1V4H7A4.54,4.54,0,0,0,3.5,5.5,4.54,4.54,0,0,0,2,9v1H1c-.7,0-1,.3-1,1v8c0,.7.3,1,1,1H2v3a4.54,4.54,0,0,0,1.5,3.5A4.85,4.85,0,0,0,7,28h3v4.2H22V28h3.1a4.54,4.54,0,0,0,3.5-1.5A4.85,4.85,0,0,0,30.1,23V20h1a1.08,1.08,0,0,0,.7-.3.91.91,0,0,0,.3-.7V11.4a2.09,2.09,0,0,0-.4-.6Z" fill="#1f2555" fill-rule="evenodd"/></svg>