<svg version="1.1" id="ea7a4172-fb87-42f7-bc35-133d639c41a3"
	 xmlns="http://www.w3.org/2000/svg" xmlns:xlink="http://www.w3.org/1999/xlink" x="0px" y="0px" viewBox="0 0 32 32"
	 enable-background="new 0 0 32 32" xml:space="preserve">
<path fill-rule="evenodd" clip-rule="evenodd" d="M31.4,0.6C31.1,0.2,30.5,0,30,0H2C1.5,0,0.9,0.2,0.6,0.6C0.2,1,0,1.5,0,2v22
	c0,0.5,0.2,1.1,0.6,1.4C1,25.8,1.5,26,2,26h8v4H8v2h16v-2h-2v-4h8c0.5,0,1.1-0.2,1.4-0.6C31.8,25,32,24.5,32,24V2
	C32,1.5,31.8,0.9,31.4,0.6z M20,30h-8v-4h8V30z M30,18h-4.7l2,2H30v3c0,0.7-0.3,1-1,1H3c-0.7,0-1-0.3-1-1v-3h7.7
	c-0.7-0.6-1.4-1.2-1.9-2H2V3c0-0.7,0.3-1,1-1h26c0.7,0,1,0.3,1,1V18z M23.1,12.5C23,8.4,19.6,5,15.5,5S8,8.3,8,12.5s3.3,7.5,7.5,7.5
	c1.7,0,3.3-0.6,4.7-1.6l4.2,4.2c0.2,0.2,0.4,0.3,0.7,0.3c0.3,0,0.5-0.1,0.7-0.3c0.4-0.4,0.4-1,0-1.4l-4.2-4.1
	C22.5,15.8,23.1,14.2,23.1,12.5z M15.7,18c-0.1,0-0.1,0-0.2,0c-3,0-5.5-2.5-5.5-5.5S12.5,7,15.5,7S21,9.5,21,12.5S18.7,18,15.7,18z"
	/>
</svg>
