<svg id="Layer_1" data-name="Layer 1" xmlns="http://www.w3.org/2000/svg" viewBox="0 0 349.5 46.1"><title>hero-foreground--pegaworld-logo</title><path d="M219.8,91.1a3.4,3.4,0,0,1,1.1-2.9,6.6,6.6,0,0,1,7,0,3.4,3.4,0,0,1,1.2,2.9c0,2.6-1.6,3.8-4.7,3.8S219.8,93.7,219.8,91.1Zm8.9,31.6H220V97.4h8.7Z" transform="translate(-15.3 -87.2)" fill="#ffcc4c"/><path d="M266.4,122.7H254.8l-11.9-23h-.2c.3,3.6.4,6.4.4,8.3v14.7h-7.8V90h11.6l11.8,22.7h.2c-.2-3.3-.3-5.9-.3-7.9V90h7.8Z" transform="translate(-15.3 -87.2)" fill="#ffcc4c"/><path d="M34.2,100.3a8.6,8.6,0,0,1-3.1,7c-2.1,1.6-5,2.4-8.8,2.4H17.5v13H15.3V91.3H23C30.4,91.3,34.2,94.3,34.2,100.3Zm-16.7,7.5h4.3c3.5,0,6.1-.6,7.6-1.7s2.4-3.1,2.4-5.7A6.5,6.5,0,0,0,29.6,95q-2.2-1.8-6.9-1.8H17.5Z" transform="translate(-15.3 -87.2)" fill="#fff"/><path d="M48.6,123.1c-3.4,0-6-1-7.9-3.1s-2.9-5-2.9-8.8a13.6,13.6,0,0,1,2.8-9A9.1,9.1,0,0,1,48,98.9a7.8,7.8,0,0,1,6.5,2.9,11.7,11.7,0,0,1,2.4,7.8v1.7H40.1c0,3.2.7,5.7,2.2,7.4a8.3,8.3,0,0,0,6.3,2.5,17.5,17.5,0,0,0,3.5-.3,26.6,26.6,0,0,0,3.9-1.2v1.9a15.8,15.8,0,0,1-3.7,1.2A20.5,20.5,0,0,1,48.6,123.1ZM48,100.8a6.7,6.7,0,0,0-5.4,2.2,10.1,10.1,0,0,0-2.4,6.4H54.6c0-2.7-.5-4.8-1.7-6.3A5.7,5.7,0,0,0,48,100.8Z" transform="translate(-15.3 -87.2)" fill="#fff"/><path d="M80.9,99.3v1.5l-4.9.3a8.3,8.3,0,0,1,2,5.3,7.3,7.3,0,0,1-2.3,5.5,8.4,8.4,0,0,1-6,2.1,9.5,9.5,0,0,1-2.2-.2,6.7,6.7,0,0,0-2,1.6,3.3,3.3,0,0,0-.6,1.9,1.8,1.8,0,0,0,.8,1.7,6.5,6.5,0,0,0,2.9.5h4a9.9,9.9,0,0,1,5.9,1.5,5.4,5.4,0,0,1,2,4.6,6.6,6.6,0,0,1-3,5.7c-2,1.3-4.9,2-8.6,2a12,12,0,0,1-6.8-1.7,5.6,5.6,0,0,1-2.4-4.8,5.7,5.7,0,0,1,1.5-4,8,8,0,0,1,4.1-2.1,3.9,3.9,0,0,1-1.7-1.3,2.8,2.8,0,0,1-.7-1.9c0-1.6,1-2.9,3-4.1a7.6,7.6,0,0,1-3.2-2.7,7.8,7.8,0,0,1-1.1-4.1,7.3,7.3,0,0,1,2.2-5.6,8.4,8.4,0,0,1,6-2.1,11.1,11.1,0,0,1,3.6.4ZM62,126.6c0,3.3,2.3,4.9,7.1,4.9s9.2-2,9.2-5.9a3.7,3.7,0,0,0-1.4-3.1,9.3,9.3,0,0,0-4.7-.9H68.4C64.1,121.6,62,123.3,62,126.6Zm1.7-20a5.4,5.4,0,0,0,1.7,4.2,6.3,6.3,0,0,0,4.4,1.5,6.4,6.4,0,0,0,4.5-1.5,7,7,0,0,0-.1-8.8,6.5,6.5,0,0,0-4.5-1.4,6,6,0,0,0-4.4,1.6A6.1,6.1,0,0,0,63.7,106.6Z" transform="translate(-15.3 -87.2)" fill="#fff"/><path d="M99.2,122.7l-.5-3.7h-.2a11.5,11.5,0,0,1-3.6,3.2,9.9,9.9,0,0,1-4.4.9,8.1,8.1,0,0,1-5.4-1.7,6.6,6.6,0,0,1-1.9-4.9,6,6,0,0,1,2.9-5.3c1.9-1.3,4.6-2,8.2-2l4.5-.2v-1.5a7.8,7.8,0,0,0-1.4-5c-.9-1.2-2.3-1.7-4.3-1.7a14.7,14.7,0,0,0-6.8,1.8l-.8-1.9a18,18,0,0,1,7.6-1.8,7.8,7.8,0,0,1,5.8,2c1.3,1.4,1.9,3.4,1.9,6.3v15.5Zm-8.6-1.5a7.6,7.6,0,0,0,8.1-8.1v-2.3l-4.1.2c-3.3.1-5.6.6-7,1.5a4.5,4.5,0,0,0-2.1,4.1,4.4,4.4,0,0,0,1.3,3.4A5.6,5.6,0,0,0,90.6,121.2Z" transform="translate(-15.3 -87.2)" fill="#fff"/><path d="M132.1,122.7h-1.8l-6.9-24.3c-.6-1.9-1-3.6-1.3-4.9-.2,1.3-.6,2.7-1,4.3s-2.7,9.9-6.9,24.9h-1.9l-8.6-31.4H106l5.5,20.2.6,2.3c.2.7.3,1.3.5,1.9s.3,1.2.4,1.8l.3,1.7c.4-1.9,1.1-4.9,2.2-8.9l5.4-19h2.4l6.3,21.8a57.4,57.4,0,0,1,1.6,6.2c.2-1.1.4-2.2.7-3.3s2.5-9.4,6.7-24.7h2.2Z" transform="translate(-15.3 -87.2)" fill="#fff"/><path d="M163.1,111c0,3.8-.9,6.8-2.7,8.9a9.5,9.5,0,0,1-7.7,3.2,10,10,0,0,1-5.4-1.5,9.3,9.3,0,0,1-3.6-4.2,16.2,16.2,0,0,1-1.2-6.4c0-3.8.9-6.8,2.7-8.9a10.6,10.6,0,0,1,15.2,0C162.2,104.3,163.1,107.2,163.1,111Zm-18.4,0q0,4.8,2.1,7.5a8,8,0,0,0,12,0q2.1-2.7,2.1-7.5t-2.1-7.5a7.4,7.4,0,0,0-6-2.7,7.2,7.2,0,0,0-6,2.7Q144.7,106.1,144.7,111Z" transform="translate(-15.3 -87.2)" fill="#fff"/><path d="M178.1,98.9l3.2.3-.5,2a13.9,13.9,0,0,0-3-.3,5.8,5.8,0,0,0-4.9,2.5,10.1,10.1,0,0,0-1.9,6.4v12.9h-2.1V99.3h1.8l.2,4.2h.1a10.3,10.3,0,0,1,3.1-3.6A7.2,7.2,0,0,1,178.1,98.9Z" transform="translate(-15.3 -87.2)" fill="#fff"/><path d="M187.8,122.7h-2.1V89.2h2.1Z" transform="translate(-15.3 -87.2)" fill="#fff"/><path d="M203.6,98.9a10.2,10.2,0,0,1,4.4.9,9.1,9.1,0,0,1,3.3,3.2h.1c-.1-1.8-.1-3.6-.1-5.3V89.2h2.1v33.5H212l-.6-3.6h-.1a8.7,8.7,0,0,1-7.7,4c-3.2,0-5.7-1-7.4-3s-2.5-4.9-2.5-8.8.8-7.1,2.5-9.2S200.3,98.9,203.6,98.9Zm0,1.9a6.7,6.7,0,0,0-5.8,2.7c-1.3,1.8-1.9,4.4-1.9,7.8,0,6.6,2.6,9.9,7.7,9.9,2.7,0,4.6-.7,5.8-2.3s1.9-4,1.9-7.6V111q0-5.4-1.8-7.8C208.2,101.6,206.3,100.8,203.6,100.8Z" transform="translate(-15.3 -87.2)" fill="#fff"/><path d="M287.7,116.3a6,6,0,0,1-2.4,5.1q-2.4,1.8-6.9,1.8a14.7,14.7,0,0,1-7.3-1.5v-3.3a19.1,19.1,0,0,0,3.6,1.3,17.3,17.3,0,0,0,3.8.5,8.3,8.3,0,0,0,4.3-.9,2.9,2.9,0,0,0,1.5-2.7,3.1,3.1,0,0,0-1.2-2.4,21,21,0,0,0-4.6-2.3,24.6,24.6,0,0,1-4.7-2.1,7,7,0,0,1-2.1-2.1,6.1,6.1,0,0,1-.7-2.8,5.2,5.2,0,0,1,2.4-4.5,10.8,10.8,0,0,1,6.4-1.7,19.3,19.3,0,0,1,7.4,1.6l-1.2,2.9a16.9,16.9,0,0,0-6.5-1.5,8,8,0,0,0-3.8.8,2.6,2.6,0,0,0-.8,3.8,4.3,4.3,0,0,0,1.6,1.3,28.3,28.3,0,0,0,4.1,1.7c2.8,1.1,4.7,2.1,5.7,3.1A5.6,5.6,0,0,1,287.7,116.3Z" transform="translate(-15.3 -87.2)" fill="#fff"/><path d="M303.7,123.2a9.3,9.3,0,0,1-4.2-.9,7.4,7.4,0,0,1-3.2-2.6H296a27.7,27.7,0,0,1,.3,3.9v9.7h-3.6V99.2h2.9l.5,3.2h.2a7.8,7.8,0,0,1,3.2-2.8,9.3,9.3,0,0,1,4.2-.9,8.8,8.8,0,0,1,7.2,3.2c1.7,2.2,2.5,5.2,2.5,9s-.8,6.9-2.6,9A8.5,8.5,0,0,1,303.7,123.2Zm-.6-21.4c-2.4,0-4.1.6-5.2,2s-1.6,3.4-1.6,6.3v.8c0,3.3.5,5.7,1.6,7.1s2.9,2.2,5.3,2.2a5.5,5.5,0,0,0,4.8-2.5c1.2-1.7,1.7-3.9,1.7-6.8s-.5-5.2-1.7-6.8A5.8,5.8,0,0,0,303.1,101.8Z" transform="translate(-15.3 -87.2)" fill="#fff"/><path d="M322.6,122.7H319V99.2h3.6Z" transform="translate(-15.3 -87.2)" fill="#fff"/><path d="M340,98.7a12,12,0,0,1,2.8.3l-.5,3.3-2.6-.3a6.2,6.2,0,0,0-4.8,2.3,8.4,8.4,0,0,0-2.1,5.8v12.6h-3.5V99.2h2.9l.4,4.3h.2a10.7,10.7,0,0,1,3.1-3.5A7.6,7.6,0,0,1,340,98.7Z" transform="translate(-15.3 -87.2)" fill="#fff"/><path d="M356.1,123.2a11,11,0,0,1-8.3-3.2c-2-2.1-3-5.1-3-8.9s.9-6.8,2.8-9a9.6,9.6,0,0,1,7.6-3.4,8.9,8.9,0,0,1,7,3,11.1,11.1,0,0,1,2.5,7.6v2.3H348.5q.2,4.2,2.1,6.3a7.3,7.3,0,0,0,5.6,2.1,18.4,18.4,0,0,0,7.5-1.6v3.2a12.7,12.7,0,0,1-3.6,1.2A21.5,21.5,0,0,1,356.1,123.2Zm-1-21.5a5.5,5.5,0,0,0-4.5,1.9,8.5,8.5,0,0,0-2,5.1h12.3a7.9,7.9,0,0,0-1.5-5.2A5.2,5.2,0,0,0,355.1,101.7Z" transform="translate(-15.3 -87.2)" fill="#fff"/></svg>