<svg id="Layer_1" data-name="Layer 1" xmlns="http://www.w3.org/2000/svg" viewBox="0 0 1440 542"><title>hero-background-yellow</title><polygon points="468.4 541.3 743.8 265.9 904.2 105.5 798.7 0 0 0 0 72.9 468.4 541.3" fill="#ffcc4c"/><polygon points="0 72.9 0 542 467.6 542 468.4 541.3 0 72.9" fill="#ffdd62"/><polygon points="468.4 541.3 467.6 542 1019.9 542 743.8 265.9 468.4 541.3" fill="#f3bb32"/><polygon points="1009.6 0 798.7 0 904.2 105.5 1009.6 0" fill="#f3bb32"/><polygon points="743.8 265.9 1019.9 542 1322.6 542 1440 424.6 1440 116.5 1323.5 0 1009.6 0 904.2 105.5 743.8 265.9" fill="#ffdd62"/><polygon points="1440 542 1440 424.6 1322.6 542 1440 542" fill="#ffcd4c"/><polygon points="1440 116.5 1440 0 1323.5 0 1440 116.5" fill="#ffcd4c"/></svg>