<svg version="1" xmlns="http://www.w3.org/2000/svg" width="1056" height="1056" viewBox="0 0 792.000000 792.000000"><path d="M209.9 32.5c-.3.2-1.7.6-3.2.9-16.3 2.9-29.5 13.9-41.1 34.1-3.8 6.6-8.9 15.3-11.3 19.2-2.4 4-4.3 7.7-4.3 8.3 0 .5-.4 1-1 1-.5 0-1 .5-1 1.1 0 .6-2.9 6-6.5 12-3.6 6.1-6.5 11.5-6.5 12s-.4.9-1 .9c-.5 0-1 .6-1 1.4 0 .7-.9 2.5-2.1 4-1.1 1.4-1.7 2.6-1.2 2.6.4 0 .4.4-.2.8-.5.4-1.6 1.8-2.4 3.2-9.1 15.9-12.1 21.4-12.1 22.1 0 .5-.4.9-.9.9-1.7 0-4.1 7.8-3.1 10.4 1 2.7 2 3.5 5.2 4.2 1.3.2 51.1.4 110.8.4l108.5.1 2.2-2.6c1.8-2.1 2.2-3.8 2.3-10.2 0-4.3 0-8.6.1-9.6V140v-9.3c.1-3.4 0-28.5-.1-30.2-.1-1.1-.2-2.9-.4-4-.1-1.1.1-2.9.5-4 .3-1.1.3-2.9-.1-4s-.4-3.4.1-5.2c.4-1.8.3-3.5-.2-3.8-.4-.3-.5-1.6 0-2.8.5-1.2.5-3.1.1-4.1-.4-1.1-.4-3.3-.1-5 .4-1.6.4-5.4.1-8.2-.3-2.9-.3-6.1.1-7.1.3-1 .3-2.7-.1-3.8-.4-1.1-.4-3.4 0-5.1.9-3.8-1-8.8-3.9-10.3-1.4-.8-21-1.1-63.9-1.1-34.1 0-62.1.2-62.3.5zM398.6 34.1l-2.6 2.1v65.7l.1 65.8 2.5 2.4c1.4 1.3 2.7 2.3 3 2.1.2-.1.7-.2 1.2-.2h267.3c11.7 0 14.1-4.9 7.7-15.6-2-3.3-4.7-7.9-6-10.4-1.4-2.5-4.9-8.6-7.8-13.5-2.9-5-6.4-11-7.8-13.5-1.3-2.5-2.8-5-3.2-5.5-.4-.6-1.9-3-3.2-5.5-4.1-7.4-24.9-43.3-26.9-46.5-1.1-1.7-2.2-3.7-2.5-4.6-1.2-3.3-15.1-15.5-20.9-18.4-3.3-1.6-6.3-3-6.7-3.1-.5-.1-.9-.2-1-.4-.2-.1-1-.3-1.8-.5s-3.5-.8-6-1.4c-3-.7-34.6-1-93.6-1.1-88.9 0-89.1 0-91.8 2.1zM76.5 228.1c-.4.5-1 .7-1.4.4-1.4-.8-7.8 7.9-11.5 15.5-.4.8-1.2 2.4-1.9 3.5s-2.7 4.7-4.6 8c-1.9 3.3-8.8 15.2-15.3 26.4S30 302.6 30 303.1s-.4.9-1 .9c-.5 0-1 .5-1 1.1 0 .6-1.5 3.7-3.4 6.8-3.7 6.1-6.3 10.6-9.2 16.1-1.1 1.9-2.1 3.7-2.4 4-.6.6-1.5 2.2-6.8 11.8C2 351.5 1.6 357.2 5 362c2.7 3.8 5.3 5.2 10.2 5.5 2.1.1 4.1.5 4.4.8.3.3 1.6.2 2.9-.3 1.3-.5 2.5-.6 2.8-.3.8.8 11.7.9 11.7.2 0-.4 1.5-.3 3.2 0 1.8.4 5.4.4 8.1.1 2.6-.4 5-.3 5.3.1.3.5 1.6.4 2.9-.1 1.3-.5 2.7-.5 3-.1.3.5 2.1.5 4 .1s3.7-.4 4 .1c.3.4 1.6.4 2.9-.1 1.3-.5 2.6-.6 2.9-.3.9.9 11.7.9 11.7 0 0-.5.5-.5 1.1-.2.5.4 3.4.6 6.2.5 2.9 0 5.9-.1 6.7-.1 8.4.3 14.1.1 14.9-.3.5-.4 1.2-.2 1.6.3.3.7 1.5.7 3 .1s2.7-.6 3 .1c.4.5 1 .7 1.5.4.7-.5 2.6-.5 15.8-.4 3.4 0 6.6-.3 7.1-.6s1.2-.1 1.6.4c.3.7 1.5.7 2.9.1 1.3-.5 2.6-.6 2.9-.3.8.8 11.7.9 11.7.2 0-.4 1.5-.3 3.2 0 1.8.4 5.4.4 8.1.1 2.6-.4 5-.3 5.3.1.3.5 1.6.4 2.9-.1 1.3-.5 2.7-.5 3-.1.3.5 2.1.5 4 .1s3.7-.4 4 .1c.3.4 1.6.4 2.9-.1 1.3-.5 2.7-.6 3-.3.3.3 2.8.6 5.6.6s5.3-.3 5.6-.6c.3-.3 1.7-.2 3 .3s2.6.6 2.8.1c.3-.5 1.7-.7 3.1-.6 3.5.4 6.4-3.5 6.3-8.6 0-2.2.2-4.2.5-4.5.3-.3.1-1.9-.3-3.5-.5-1.8-.5-2.9.1-2.9s.5-.8-.1-2c-.6-1.1-.7-2-.2-2 .5 0 .6-2.2.2-4.8-.3-2.7-.3-6 .1-7.4.4-1.4.3-3.1-.1-3.8-.4-.7-.5-2.4-.1-3.8s.4-4.7.1-7.2c-.3-2.6-.3-5.6.1-6.6.3-1.1.3-2.9-.2-4.2-.5-1.3-.5-2.2.1-2.2s.6-.9 0-2.4c-.5-1.3-.6-2.6-.3-2.9.5-.6.5-5.1 0-9.7-.2-1.4 0-3.6.3-5 .4-1.4.3-3.7-.1-5.3-.4-1.5-.3-2.7.2-2.7.6 0 .5-.8-.1-2-.6-1.1-.7-2-.2-2 .5 0 .6-2.1.2-4.8-.3-2.6-.3-5.9 0-7.2.4-1.4.3-3.7-.1-5.3-.5-1.6-.4-2.7.2-2.7.6 0 .5-.8-.1-2-.6-1.1-.7-2-.2-2 .5 0 .6-2.2.2-5-.3-2.7-.3-5.5.1-6.2.4-.7.5-1.7.1-2.3-.4-.5-.7-1.2-.7-1.5 0-.3-.5-1.3-1-2.2-1.2-2-10.6-3.8-14.5-2.8-1.4.4-3.7.3-5.2-.1-1.7-.5-2.8-.4-2.8.2 0 .6-.8.5-2-.1-1.1-.6-2-.7-2-.3 0 .4-2.1.7-4.7.6-12.4-.5-16.4-.5-16.9 0-.3.3-1.9.1-3.5-.3-1.8-.5-2.9-.5-2.9.1s-.8.5-2-.1c-1.3-.7-2-.7-2-.1 0 .7-.8.7-2.2.2-1.3-.5-3.1-.5-4.2-.2-1 .4-3.9.4-6.5.1-2.5-.3-5.8-.3-7.1 0-1.4.4-3.7.3-5.2-.1-1.7-.5-2.8-.4-2.8.2 0 .6-.8.5-2-.1-1.1-.6-2-.7-2-.3 0 .4-2.1.7-4.7.6-12.4-.5-16.4-.5-16.9 0-.3.3-1.9.1-3.5-.3-1.8-.5-2.9-.5-2.9.1s-.8.5-2-.1c-1.3-.7-2-.7-2-.1 0 .7-.8.7-2.2.2-1.3-.5-3.1-.5-4.2-.2-1 .4-3.9.4-6.5.1-2.5-.3-5.8-.3-7.1 0-1.4.4-3.5.3-4.7-.1-1.3-.5-2.5-.4-2.8.2zM292 228c0 .4-.6.8-1.2.7-3.4-.1-4.8.4-4.8 1.8 0 .8-.4 1.5-1 1.5s-.9 2.9-.9 6.9c.1 3.8-.2 7.4-.6 8-.3.6-.2 1.1.3 1.1.6 0 .7 1.4.2 3.4-.4 1.9-.4 3.9 0 4.6.4.7.4 2.7 0 4.5-.4 1.8-.4 3.9.1 4.6.4.7.4 2-.1 2.9-.6 1.1-.5 2.1.1 2.7.7.7.7 1.3.1 1.7-.5.3-.6 2.5-.2 4.8.3 2.4.3 5.7-.1 7.5-.3 1.7-.3 3.7.2 4.4.4.7.4 2-.1 2.9-.6 1.1-.5 2.1.1 2.7.7.7.7 1.3.1 1.7-.5.3-.6 2.5-.2 4.8.3 2.4.3 5.8-.1 7.5-.3 1.8-.3 3.3.1 3.3s.4 1.5.1 3.2c-.4 1.8-.4 5.1-.1 7.3.3 2.2.3 5.1 0 6.5-.4 1.4-.3 3.3.2 4.2.5 1 .4 1.9-.2 2.3-.5.3-.6 1.5-.1 2.8.4 1.2.5 3.3.1 4.7-.4 1.4-.4 3.4-.1 4.5.4 1.1.6 3.1.5 4.5-.5 6.2-.5 8.6-.2 10.2.7 3 3.8 5.6 6.4 5.3 1.3-.1 2.7.1 3 .6.2.5 1.5.4 2.8-.1 1.3-.5 2.7-.6 3-.2.4.3 3.2.5 6.4.3 3.1-.1 6.4-.2 7.2-.2 4.8.2 10.3 0 11-.4.5-.3 1.1-.1 1.5.4.3.7 1.5.7 2.9.1 1.3-.5 2.7-.6 3-.2.4.3 3.2.5 6.4.3 3.1-.1 6.4-.2 7.2-.2 4.8.2 10.3 0 11-.4.5-.3 1.1-.1 1.5.4.3.7 1.5.7 2.9.1 1.3-.5 2.7-.6 3-.3.4.4 2.3.6 4.4.5 8.1-.2 10.9-.2 16 0 2.8.2 5.2 0 5.2-.3 0-.4 1.5-.3 3.2 0 1.8.4 5.4.4 8.1.1 2.6-.4 5-.3 5.3.1.3.5 1.6.4 2.9-.1 1.3-.5 2.7-.5 3-.1.3.5 2.1.5 4 .1s3.7-.4 4 .1c.3.4 1.6.4 2.9-.1 1.3-.5 2.6-.6 2.9-.3.9.9 11.7.9 11.7 0 0-.5.5-.5 1.1-.2.5.4 3.4.6 6.2.5 2.9 0 5.9-.1 6.7-.1 8.4.3 14.1.1 14.9-.3.5-.4 1.2-.2 1.6.3.3.7 1.5.7 2.9.1 1.3-.5 2.6-.6 2.9-.3.9.9 11.7.9 11.7 0 0-.5.5-.5 1.1-.2.6.4 4.1.6 7.7.5 3.7-.1 7.4-.2 8.4-.2.9.1 2.4-.8 3.4-1.9 1.9-2.1 3.5-10.2 2.3-12.1-.4-.6-.4-1.9 0-2.7.5-.9.5-2.5.1-3.6s-.4-3.1 0-4.5.4-3.5-.1-4.7c-.5-1.3-.4-2.5.1-2.8.7-.4.7-1.3 0-2.4-.5-1-.7-2.1-.4-2.4.7-.7.8-15.6.1-16.3-.3-.3-.2-1.8.3-3.2.4-1.5.4-3.7-.1-4.9-.5-1.3-.4-2.5.1-2.8.7-.4.7-1.3 0-2.4-.5-1-.7-2.1-.4-2.4.7-.7.8-15.6.1-16.3-.3-.3-.2-1.8.3-3.2.4-1.5.4-3.7-.1-4.9-.5-1.3-.4-2.5.1-2.8.7-.4.7-1.3 0-2.4-.5-1-.7-2.1-.4-2.4.5-.4.6-6 .3-14.7 0-.8.1-4.7.2-8.5.1-3.9-.4-8.7-1-10.7-1-3.2-1.7-3.7-5.2-4.3-2.2-.4-5.6-.6-7.5-.6-1.9.1-4.1.2-4.9.1h-10.3c-3 0-5.7-.2-6-.4-.4-.2-1.6 0-2.7.4s-3 .4-4.2-.1c-1.4-.5-2.3-.5-2.3.1s-.9.6-2.4 0c-1.3-.5-2.6-.6-2.9-.3-.6.5-5.1.5-9.7 0-1.4-.2-3.6 0-5 .3-1.4.4-3.7.3-5.2-.1-1.6-.4-2.8-.3-2.8.2 0 .6-.8.5-2-.1-1.1-.6-2-.7-2-.2 0 .5-2.1.6-4.8.2-2.6-.3-5.9-.3-7.2 0-1.4.4-3.7.3-5.2-.1-1.7-.5-2.8-.4-2.8.2 0 .6-.8.5-2-.1-1.1-.6-2-.7-2-.2 0 .5-2.2.6-4.8.2-2.7-.3-6-.3-7.4.1-1.4.4-3.1.3-3.8-.1-.7-.4-2.4-.5-3.8-.1s-4.7.4-7.2.1c-2.6-.3-5.6-.3-6.6.1-1.1.3-2.9.3-4.1-.2-1.4-.5-2.3-.5-2.3.1s-.9.6-2.4 0c-1.3-.5-2.6-.6-2.9-.3-.6.5-5.1.5-9.7 0-1.4-.2-3.6 0-5 .3-1.4.4-3.7.3-5.2-.1-1.6-.4-2.8-.3-2.8.2 0 .6-.8.5-2-.1-1.1-.6-2-.7-2-.2 0 .5-2.1.6-4.8.2-2.6-.3-5.9-.3-7.2 0-1.4.4-3.7.3-5.2-.1-1.7-.5-2.8-.4-2.8.2 0 .6-.8.5-2-.1-1.1-.6-2-.7-2-.2 0 .5-2.1.6-4.8.2-2.6-.3-5.9-.3-7.2 0-1.4.4-3.7.3-5.2-.1-1.6-.4-2.8-.4-2.8.1zM568.8 228.4c-1.6.5-2.8 1.6-2.8 2.3 0 .7-.4 1.3-.8 1.3-1 0-1.5 5.5-1.2 11.5.1 1.7.1 7.8 0 17.2 0 11.8.2 17.8.6 18.5.3.4 0 .8-.6.8-.8 0-.8.6 0 2 .6 1.2.7 2 .1 2s-.7 1.1-.2 2.7c.4 1.6.5 3.9.1 5.3-.3 1.3-.3 4.6 0 7.3.4 2.6.3 5-.1 5.3-.4.2-.4 1.7 0 3.2.4 1.5.5 3.8.1 5.2-.4 1.4-.3 3.5.1 4.7.5 1.4.5 2.3-.1 2.3s-.6.9-.1 2.2c.5 1.3.6 3.1.2 4-.3.9-.4 5.3-.1 9.8.3 4.4.1 8-.3 8s-.3.9.3 2c.6 1.2.7 2 .1 2s-.7 1.1-.2 2.7c.4 1.6.5 3.9.1 5.3-.8 3 .4 7.8 2.4 9.8.8.8 2.9 1.6 4.8 1.9 5.9.8 9.8.9 9.8.2 0-.4 1.5-.3 3.2 0 1.8.4 5.4.4 8.1.1 2.6-.4 5-.3 5.3.1.3.5 1.6.4 2.9-.1 1.3-.5 2.7-.5 3-.1.3.5 2.1.5 4 .1s3.7-.4 4 .1c.3.4 1.6.4 2.9-.1 1.3-.5 2.6-.6 2.9-.3.8.8 11.7.9 11.7.2 0-.4 1.5-.3 3.2 0 1.8.4 5.4.4 8.1.1 2.6-.4 5-.3 5.3.1.3.5 1.5.4 2.8-.1 1.3-.5 2.7-.6 3-.2.4.3 3.2.5 6.4.3 3.1-.1 6.4-.2 7.2-.2 4.8.2 10.3 0 11-.4.5-.3 1.1-.1 1.5.4.3.7 1.5.7 2.9.1 1.3-.5 2.7-.6 3-.2.4.3 3.2.5 6.4.3 3.1-.1 6.4-.2 7.2-.2 4.8.2 10.3 0 11-.4.5-.3 1.1-.1 1.5.4.3.7 1.5.7 2.9.1 1.3-.5 2.7-.6 3-.2.4.3 3.2.5 6.4.3 3.1-.1 6.4-.2 7.2-.2 4.8.2 10.3 0 11-.4.5-.3 1.1-.1 1.5.4.3.7 1.5.7 2.9.1 1.3-.5 2.7-.6 3-.2.4.3 3.2.5 6.4.3 3.1-.1 6.4-.2 7.2-.2.8.1 3.3.1 5.5 0h5.5c9.1.6 14.8-2.9 16.9-10.4 1.3-4.7-1.2-12.7-5.7-17.8-.8-.9-1.2-1.7-.8-1.7.4 0-.7-2-2.4-4.4-1.6-2.5-3-4.7-3-4.9 0-.4-15-26.5-21.6-37.7-.8-1.4-3.3-5.7-5.5-9.5-2.2-3.9-5.4-9.3-7-12-1.7-2.8-3.3-5.8-3.6-6.8-.3-.9-.9-1.7-1.4-1.7-.5 0-.8-.3-.7-.8.1-.4-.5-1.8-1.4-3.2-3.5-5.5-8.8-15.2-8.8-16.1 0-.5-.3-.9-.7-.9-.5 0-1.7-1.8-2.7-4-1-2.2-2.7-4.7-3.7-5.6-2.2-2-8.5-3.3-11.9-2.4-1.4.4-3.7.3-5.2-.1-1.7-.5-2.8-.4-2.8.2 0 .6-.8.5-2-.1-1.1-.6-2-.7-2-.2 0 .5-2.2.6-4.8.2-2.7-.3-6-.3-7.4.1-1.4.4-3.1.3-3.8-.1-.7-.4-2.4-.5-3.8-.1s-4.7.4-7.2.1c-2.6-.3-5.6-.3-6.6.1-1.1.3-2.9.3-4.1-.2-1.4-.5-2.3-.5-2.3.1s-.9.6-2.4 0c-1.3-.5-2.6-.6-2.9-.3-.6.5-5.1.5-9.7 0-1.4-.2-3.6 0-5 .3-1.4.4-3.7.3-5.2-.1-1.6-.4-2.8-.3-2.8.2 0 .6-.8.5-2-.1-1.1-.6-2-.7-2-.2 0 .5-2.1.6-4.8.2-2.6-.3-5.9-.3-7.2 0-1.4.4-3.7.3-5.2-.1-1.7-.5-2.8-.4-2.8.2 0 .6-.8.5-2-.1-1.4-.8-2-.8-2 0 0 .6-.4.9-.9.6-.5-.4-3.3-.6-6.3-.6h-7.3c-4-.1-6 0-8 .4-1.1.2-2.9 0-4-.4-1.1-.3-3.2-.2-4.7.4zM15.3 424.1c-1.3.5-2.3.6-2.3.4 0-.3-1.5.4-3.2 1.4-3.7 2-6.5 6.2-7.1 10.6-.4 3.1 2.1 11.5 3.5 11.5.4 0 .8.4.8.9 0 .9 19 34.5 20.7 36.6.4.5 2.1 3.5 3.7 6.5s3.3 6 3.8 6.7c.5.7 1.8 2.7 2.7 4.5 3.6 6.7 5.6 10.3 6.1 10.8.3.3 3 4.8 5.9 10 9.2 16.2 15.4 27.1 17.9 31 .9 1.4 1.5 2.7 1.5 3-.3.9 3.2 4.2 5.8 5.5 1.5.8 3.1 1 3.9.5.7-.4 2.3-.5 3.4 0 1.2.4 2.9.5 3.8.1.9-.3 5.3-.4 9.8-.1 4.4.3 8 .1 8-.3s.9-.3 2 .3c1.2.6 2 .7 2 .1s1.1-.6 2.9-.1c1.6.4 3.2.6 3.5.3.5-.6 9.6-.5 13.1.1 1.1.2 3.2 0 4.6-.4 1.5-.4 3.2-.4 3.9 0 .7.4 2.5.4 4 0s3.3-.4 4 0c.7.4 2.5.4 4 0s3.3-.4 4 0c.7.4 2.5.4 4 0s3.3-.4 4 0c.7.4 2.5.4 4 0s3.3-.4 4 0c.7.4 2.5.4 4 0s3.3-.4 4 0c.7.4 2.5.4 4 0s3.3-.4 4 0c.7.4 2.4.5 3.8.1s4.7-.4 7.4-.1c2.6.4 4.8.3 4.8-.2s.9-.4 2 .2c1.3.7 2 .7 2 .1 0-.7.9-.7 2.3-.3 1.2.5 3.6.6 5.2.2 1.7-.3 5.1-.3 7.8 0 2.6.4 4.7.3 4.7-.2 0-.4 1-.4 2.3.1 1.2.5 3 .6 3.9.2.9-.3 5.3-.4 9.8-.1 4.4.3 8 .1 8-.3s.9-.3 2 .3c1.2.6 2 .7 2 .1s1.1-.6 2.9-.1c1.6.4 3.2.6 3.5.3.3-.3 3.1-.5 6.3-.3 3.2.1 6.5.1 7.3.1.8-.1 2.9-.1 4.6-.1 3.7-.1 6.5-2.7 7.1-6.7.5-3.2.4-10.6-.2-11.1-.2-.2 0-1.6.5-3.1.4-1.6.4-3.4-.1-4.2-.4-.7-.4-1.9.2-2.5.7-.8.6-1.4-.1-1.9-.6-.4-.7-1.2-.1-2.4.5-.9.6-2.3.1-3-.4-.8-.5-2.5-.1-4 .3-1.4.5-3.7.4-5.1-.1-1.4-.4-4.1-.5-6-.2-1.9 0-5 .3-6.8.4-1.7.3-3.2-.1-3.2-.5 0-.5-1.2-.1-2.8.7-2.9.6-9-.3-9.9-.2-.3-.1-1.6.4-2.9.6-1.6.6-2.4-.1-2.4-.6 0-.6-.6 0-1.8.5-1 .6-2.4.1-3.1-.4-.8-.5-2.5-.1-4 .7-2.8.6-9-.3-9.8-.2-.3-.1-1.6.4-2.9.6-1.6.6-2.4-.1-2.4-.6 0-.6-.6 0-1.8.5-1 .6-2.4.1-3.1-.4-.8-.5-2.5-.1-4 .3-1.4.5-3.7.4-5.1-.3-3.4-.3-5.5-.3-12.4-.1-3.2-.5-6.7-1.1-7.7-1.3-2.5-6.2-5-7.8-4-.7.5-2.7.6-4.4.4-1.8-.3-3.8-.4-4.4-.4-2.4.2-3.8.2-8.8.1-2.7-.1-5.4-.1-6 0-1.6.3-7.8.1-10.8-.3-1.5-.3-3-.1-3.3.4-.2.5-1.5.4-2.7 0-1.2-.5-3.2-.5-4.4 0-1.3.5-2.3.5-2.3.1 0-.6-7.8-.7-8.7-.2-.8.5-7.2.2-8.6-.3-.9-.3-1.9-.2-2.2.4-.4.5-1.1.6-1.7.3-.9-.6-8.7-.8-11.3-.4-2.8.5-6.2.4-8.2-.2-1.2-.4-2.5-.3-2.8.3-.4.5-1.3.6-2.2.1-.8-.5-3.2-.6-5.2-.2-2.1.4-4.7.3-5.9-.1-1.2-.5-2.4-.4-2.7.2-.4.5-1.3.6-2.2 0-.9-.4-3-.5-4.7-.1-1.7.4-4 .4-5.1 0-1.1-.4-2.7-.4-3.6.1-.9.5-1.9.6-2.2.3-.5-.6-8.9-.8-10.9-.4-2.1.4-7.7.3-9.1-.3-.9-.3-1.9-.2-2.2.4-.4.5-1.1.6-1.7.3-.9-.6-8.8-.8-11.3-.4-2.6.5-5.2.4-7.1-.2-1.1-.3-2.7-.3-3.4.2-.7.5-2.3.5-3.4.1-1.2-.4-3.4-.4-5.1-.1-1.6.3-4 .3-5.2-.1-1.3-.5-2.5-.4-2.8.2-.4.5-1.3.6-2.2.1-.8-.5-3.2-.6-5.2-.2-2.1.4-4.7.3-5.9-.1-1.2-.5-2.4-.4-2.7.2-.4.5-1.1.6-1.7.3-.9-.6-8.7-.8-11.3-.4-1.7.3-7.8.1-10.8-.3-1.5-.3-3-.1-3.3.4-.2.4-1.5.4-2.7 0-1.2-.5-3.2-.5-4.4 0-1.3.5-2.3.5-2.3.1 0-.6-7.8-.7-8.7-.2-.7.4-7.2.3-8.4-.2-.8-.3-2.4-.2-3.6.3zM343.9 425.3c-1.9 1.3-3.3 2.5-3.1 2.7.2.3-.1 1.7-.7 3.2-.8 2.1-.7 2.8.1 2.8.9 0 .9.3.1 1.1-.6.6-.8 2.3-.3 4.4.4 1.9.5 3.6.3 3.9-.3.3-.4 5.3-.3 11.3 0 5.9.1 11.5.1 12.3v16c0 8 0 15.4-.1 16.5-.2 2.8-.2 3.2 0 10.7.1 3.6 0 7-.3 7.5-.2.4-.1 1.7.3 2.8.4 1.1.4 3-.1 4.2-.5 1.2-.4 2.5 0 2.8.5.3.6 2 .2 3.8-.5 1.8-.5 4.1-.1 5.2.4 1.1.5 2.4.2 2.9-.9 1.6-.4 17 .7 19.8.5 1.5 1.9 3.2 3 3.7 2.1 1.2 12.3 1.7 13.8.8.5-.3 1.5-.2 2.2.3.8.4 2.6.4 4.1 0 1.5-.4 3.3-.4 4 0 .7.4 2.5.4 4 0s3.3-.4 4 0c.7.4 2.4.5 3.8.1s4.7-.4 7.4-.1c2.6.4 4.8.3 4.8-.2s.9-.4 2 .2c1.3.7 2 .7 2 .1 0-.7.9-.7 2.3-.3 1.2.5 3.6.6 5.2.2 1.7-.3 5.1-.3 7.8 0 2.6.4 4.7.3 4.7-.2 0-.4 1-.4 2.3.1 1.2.5 3 .6 3.9.2.9-.3 5.3-.4 9.8-.1 4.4.3 8 .1 8-.3s.9-.3 2 .3c1.3.7 2 .7 2 .1 0-.7.9-.7 2.3-.3 1.2.5 3.6.6 5.2.2 1.7-.3 5.1-.3 7.8 0 2.6.4 4.7.3 4.7-.2 0-.4 1-.4 2.3.1 1.2.5 3 .6 3.9.2.9-.3 5.3-.4 9.8-.1 4.4.3 8 .1 8-.3s.9-.3 2 .3c1.2.6 2 .7 2 .1s1.1-.6 2.9-.1c1.6.4 3.2.6 3.5.3.5-.5 4.5-.5 16.9 0 2.6.1 4.7-.2 4.7-.6 0-.4.9-.3 2 .3 1.3.7 2 .7 2 .1 0-.7.9-.7 2.3-.3 1.2.5 3.6.6 5.2.2 1.7-.3 5.1-.3 7.8 0 2.6.4 4.7.3 4.7-.2 0-.4 1-.4 2.3.1 1.2.5 3 .6 3.9.2.9-.3 5.3-.4 9.8-.1 4.4.3 8 .1 8-.3s.9-.3 2 .3c1.3.7 2 .7 2 .1 0-.7.9-.7 2.3-.3 1.2.5 3.6.6 5.2.2 1.7-.3 5.1-.3 7.8 0 2.6.4 4.7.3 4.7-.2 0-.4 1-.4 2.3.1 1.2.5 3 .6 3.9.2.9-.3 5.3-.4 9.8-.1 4.4.3 8 .1 8-.3s.9-.3 2 .3c1.2.6 2 .7 2 .1s1.1-.6 2.9-.1c1.6.4 3.2.6 3.5.3.5-.6 9.6-.5 13.1.1 1.1.2 3.2 0 4.6-.4 1.5-.4 3.2-.4 3.9 0 .7.4 2.5.4 4 0s3.3-.4 4 0c.7.4 2.5.4 4 0s3.3-.4 4 0c.7.4 2.5.4 4 0s3.3-.4 4 0c.7.4 2.5.4 4 0s3.3-.4 4 0c.7.4 2.5.4 4 0s3.3-.4 4 0c.7.4 2.5.4 4 0s3.3-.4 4 0c.7.4 2.4.5 3.8.1s4.7-.4 7.4-.1c2.6.4 4.8.4 4.8 0s1.3-.5 2.8-.2c2.4.3 3.4-.3 5.9-3.5 1.6-2.1 4.7-7 6.8-10.8 2.1-3.9 4.8-8.6 6-10.5 1.2-1.9 2.3-3.8 2.4-4.2 0-.5 1.6-3.2 3.4-6 1.8-2.9 4.1-7 5.2-9.1 1.1-2 2.3-3.7 2.8-3.7.4 0 .6-.4.3-.9s.1-1.4.9-2.1c.8-.7 1.5-1.6 1.5-2 0-.5 2.6-5.3 5.8-10.7 3.2-5.4 6.1-10.5 6.5-11.3.4-.8 1.7-3.1 2.8-5 1.2-1.9 3.3-5.5 4.7-8 1.4-2.5 3.4-5.7 4.4-7.3 1.1-1.5 1.6-2.7 1.1-2.7-.4 0-.3-.4.3-.8s2.8-3.9 4.9-7.7c2.1-3.9 4.6-8.1 5.6-9.5 2.7-4 3.9-9.5 2.8-13.6-2.1-7.2-7.6-10.7-16.7-10.4-2.6 0-5.6.1-6.7 0-1.1-.1-2.6-.1-3.2-.1-2.4.2-3.8.2-8.8.1-2.7-.1-5.3-.1-5.7 0-2.1.4-7.7.3-9.1-.3-.9-.3-1.9-.2-2.2.4-.4.5-1.1.6-1.7.3-.9-.6-8.8-.8-11.3-.4-.9.2-2.7.2-8 0-2.1 0-3.8 0-9 .1-1.6 0-3.9 0-5-.1s-2.6-.1-3.2-.1c-2.4.2-3.8.2-8.8.1-2.7-.1-5.3-.1-5.7 0-2.1.4-7.7.3-9.1-.3-.9-.3-1.9-.2-2.2.4-.4.5-1.1.6-1.7.3-.9-.6-8.8-.8-11.3-.4-.9.2-2.7.2-8 0H648c-.8.1-3.7 0-6.5 0-2.7-.1-5.4-.1-6 0-1.6.3-7.8.1-10.8-.3-1.5-.3-3-.1-3.3.4-.2.5-1.5.4-2.7 0-1.2-.5-3.2-.5-4.4 0-1.3.5-2.3.5-2.3.1 0-.6-7.8-.7-8.7-.2-.8.5-7.2.2-8.6-.3-.9-.3-1.9-.2-2.2.4-.4.5-1.1.6-1.7.3-.9-.6-8.7-.8-11.3-.4-2.8.5-6.2.4-8.2-.2-1.2-.4-2.5-.3-2.8.3-.4.5-1.3.6-2.2.1-.8-.5-3.2-.6-5.2-.2-2.1.4-4.7.3-5.9-.1-1.2-.5-2.4-.4-2.7.2-.4.5-1.3.6-2.2 0-.9-.4-3-.5-4.7-.1-1.7.4-4 .4-5.1 0-1.1-.4-2.7-.4-3.6.1-.9.5-1.9.6-2.2.3-.5-.6-8.9-.8-10.9-.4-2.1.4-7.7.3-9.1-.3-.9-.3-1.9-.2-2.2.4-.4.5-1.1.6-1.7.3-.9-.6-8.8-.8-11.3-.4-2.6.5-5.2.4-7.1-.2-1.1-.3-2.7-.3-3.4.2-.7.5-2.3.5-3.4.1-1.2-.4-3.4-.4-5.1-.1-1.6.3-4 .3-5.2-.1-1.3-.5-2.5-.4-2.8.2-.4.5-1.3.6-2.2.1-.8-.5-3.2-.6-5.2-.2-2.1.4-4.7.3-5.9-.1-1.2-.5-2.4-.4-2.7.2-.4.5-1.1.6-1.7.3-.9-.6-8.7-.8-11.3-.4-1.7.3-7.8.1-10.8-.3-1.5-.3-3-.1-3.3.4-.2.5-1.5.4-2.7 0-1.2-.5-3.2-.5-4.4 0-1.3.5-2.3.5-2.3.1 0-.6-7.8-.7-8.7-.2-.8.5-7.2.2-8.6-.3-.9-.3-1.9-.2-2.2.4-.4.5-1.1.6-1.7.3-.9-.6-8.8-.8-11.3-.4-.9.2-2.7.2-8 0h-10c-2.7-.1-5.3-.1-5.7 0-2 .4-7.7.3-9-.2-.8-.4-2.1-.2-2.8.2-.8.5-2.2.5-3.1 0-1.2-.7-2.6-.3-5 1.3zM156.4 620c-39 .5-42.2.6-43.9 2.3-2.8 2.9-2 6.6 3.4 16.1 2.8 4.8 5.1 9.2 5.1 9.7s.5.9 1 .9c.6 0 1 .4 1 .9 0 .9 22.8 41.2 24.7 43.7.4.5 1.7 2.6 2.7 4.5 3 5.4 9 15.9 13.1 22.9 2.1 3.6 4.3 7.4 4.9 8.5 5.9 10.3 15.4 19.8 23.8 23.8 2.9 1.4 5.8 2.6 6.3 2.7.6.1 1.8.6 2.8 1.1 1 .6 3.2 1.3 5 1.7 1.8.3 44 .8 94 .9l90.7.3 2.5-2.5 2.5-2.4-.2-65.7-.3-65.7-2.5-1.8c-2.5-1.9-9.8-2-92.5-1.8h-48.4c-25.5-.1-46.6 0-46.8.3-.2.2-1.8.1-3.6-.3-1.8-.3-22.1-.4-45.3-.1zM454.3 622.3c-1.6 1.7-2.1 3.6-2.1 8.9 0 3.7-.3 7.2-.6 7.7-.4.5-.2 1.2.3 1.5.5.3.6 2 .2 3.8-.4 1.8-.4 5.3 0 7.8s.4 4.6 0 4.8c-.4.1-.5 2.2-.2 4.5.4 2.3.4 5.5.1 7.2-.3 1.6-.3 5 .1 7.5s.3 4.7-.2 4.8c-.5.2-.7.8-.4 1.3.3.4.5 3.4.5 6.6 0 3.2 0 7.6.1 9.8.1 2.2.1 4.6 0 5.2-.1.7-.1 2.1-.1 3-.1 9.9-.2 15-.1 16.3v8c-.1 3.6-.1 7.2 0 8 0 .8.1 4.8.1 8.8 0 6.4.2 7.5 2.5 9.8l2.5 2.5 63.7-.3c58.7-.3 64.2-.4 68.8-2.1 7.7-2.8 15-6.5 18.1-9.2 4.5-3.9 7.2-6.5 8.9-8.7 3-3.6 6.5-8.6 6.5-9.2 0-.3 2.1-4 4.6-8.3 8.7-14.7 11.1-18.8 13.6-23.3 2.3-4 13-22.7 30.2-52.2 3.1-5.4 5.6-10 5.6-10.3 0-.3 1-1.9 2.2-3.5 2.7-3.8 2.6-8.9-.2-11.2-2.1-1.7-9-1.8-112.4-1.8H456.3l-2 2.3z"/></svg>