<?xml version="1.0" encoding="UTF-8" standalone="no"?>
<svg width="16px" height="16px" viewBox="0 0 16 16" version="1.1" xmlns="http://www.w3.org/2000/svg" xmlns:xlink="http://www.w3.org/1999/xlink">
    <!-- Generator: Sketch 45.1 (43504) - http://www.bohemiancoding.com/sketch -->
    <title>Arrow</title>
    <desc>Created with Sketch.</desc>
    <defs></defs>
    <g id="Assets" stroke="none" stroke-width="1" fill="none" fill-rule="evenodd">
        <g id="Arrow" fill="#005A8B">
            <path d="M3.41421356,9 L15,9 C15.5522847,9 16,8.55228475 16,8 C16,7.44771525 15.5522847,7 15,7 L3.48528137,7 L6.36396103,4.12132034 C6.75448532,3.73079605 6.75448532,3.09763107 6.36396103,2.70710678 C5.97343674,2.31658249 5.34027176,2.31658249 4.94974747,2.70710678 L0.707106781,6.94974747 C0.664243812,6.99261044 0.626085375,7.03839643 0.59263147,7.08646379 C0.243390811,7.24243492 -4.98683556e-17,7.59279397 0,8 C4.68671876e-17,8.38269963 0.214976935,8.7151887 0.530757758,8.88329418 C0.576232701,8.96886963 0.635015708,9.04922927 0.707106781,9.12132034 L4.94974747,13.363961 C5.34027176,13.7544853 5.97343674,13.7544853 6.36396103,13.363961 C6.75448532,12.9734367 6.75448532,12.3402718 6.36396103,11.9497475 L3.41421356,9 Z" id="Combined-Shape"></path>
        </g>
    </g>
</svg>