<?xml version="1.0" encoding="UTF-8" standalone="no"?>
<svg width="24px" height="24px" viewBox="0 0 24 24" version="1.1" xmlns="http://www.w3.org/2000/svg" xmlns:xlink="http://www.w3.org/1999/xlink">
    <!-- Generator: Sketch 46.2 (44496) - http://www.bohemiancoding.com/sketch -->
    <title>Icon/utility/Indigo/24px/Info-solid</title>
    <desc>Created with Sketch.</desc>
    <defs></defs>
    <g id="Symbols" stroke="none" stroke-width="1" fill="none" fill-rule="evenodd">
        <g id="Icon/utility/Indigo/24px/Info-solid">
            <rect id="Rectangle-6" x="0" y="0" width="24" height="24"></rect>
            <g id="Info" transform="translate(1.000000, 1.000000)">
                <g id="Icon/Background/Circle/indigo" fill="#1F2555">
                    <circle id="Oval" cx="11" cy="11" r="11"></circle>
                </g>
                <path d="M11.7061,7.706 C11.5191,7.894 11.2621,8 11.0001,8 C10.7381,8 10.4821,7.894 10.2941,7.706 C10.1061,7.519 10.0001,7.262 10.0001,7 C10.0001,6.738 10.1071,6.482 10.2941,6.294 C10.4811,6.106 10.7381,6 11.0001,6 C11.2621,6 11.5181,6.106 11.7061,6.294 C11.8931,6.481 12.0001,6.738 12.0001,7 C12.0001,7.262 11.8931,7.518 11.7061,7.706 L11.7061,7.706 Z" id="Path" fill="#FFFFFF"></path>
                <path d="M12.0001,15 C12.0001,15.55 11.5501,16 11.0001,16 C10.4501,16 10.0001,15.55 10.0001,15 L10.0001,11 C10.0001,10.45 10.4501,10 11.0001,10 C11.5501,10 12.0001,10.45 12.0001,11 L12.0001,15 Z" id="Path" fill="#FFFFFF"></path>
            </g>
        </g>
    </g>
</svg>