<?xml version="1.0" encoding="UTF-8" standalone="no"?>
<svg width="24px" height="24px" viewBox="0 0 24 24" version="1.1" xmlns="http://www.w3.org/2000/svg" xmlns:xlink="http://www.w3.org/1999/xlink">
    <!-- Generator: Sketch 46.2 (44496) - http://www.bohemiancoding.com/sketch -->
    <title>Icon/utility/White/24px/Refresh</title>
    <desc>Created with Sketch.</desc>
    <defs></defs>
    <g id="Symbols" stroke="none" stroke-width="1" fill="none" fill-rule="evenodd">
        <g id="Icon/utility/White/24px/Refresh">
            <rect id="Rectangle-6" x="0" y="0" width="24" height="24"></rect>
            <g id="refresh-cw" transform="translate(0.000000, 1.500000)" fill-rule="nonzero" fill="#1F2555">
                <path d="M24,3 C24,2.45 23.55,2 23,2 C22.45,2 22,2.45 22,3 L22,6.687 L19.056,3.918 C17.169,2.037 14.662,0.999 11.994,0.999 C9.894,0.999 7.888,1.643 6.188,2.862 C4.519,4.062 3.269,5.718 2.569,7.662 C2.381,8.181 2.65,8.756 3.169,8.943 C3.688,9.13 4.263,8.862 4.45,8.343 C5.013,6.787 6.019,5.456 7.35,4.493 C8.712,3.518 10.312,2.999 11.994,2.999 C14.132,2.999 16.144,3.83 17.65,5.343 C17.656,5.349 17.662,5.355 17.675,5.362 L20.475,7.993 L17,7.993 C16.45,7.993 16,8.443 16,8.993 C16,9.543 16.45,9.993 17,9.993 L22.988,9.993 C22.994,9.993 22.994,9.993 23,9.993 C23.025,9.993 23.05,9.993 23.075,9.993 C23.075,9.993 23.075,9.993 23.081,9.993 C23.081,9.993 23.087,9.993 23.087,9.993 C23.093,9.993 23.093,9.993 23.099,9.993 C23.099,9.993 23.099,9.993 23.099,9.993 C23.193,9.987 23.28,9.962 23.361,9.93 C23.499,9.88 23.624,9.792 23.73,9.68 C23.824,9.58 23.892,9.467 23.936,9.349 C23.936,9.349 23.936,9.349 23.936,9.349 C23.936,9.343 23.936,9.343 23.942,9.337 C23.942,9.337 23.942,9.337 23.942,9.331 C23.942,9.331 23.942,9.325 23.942,9.325 C23.942,9.325 23.942,9.319 23.942,9.319 C23.942,9.319 23.942,9.319 23.942,9.313 C23.942,9.307 23.942,9.307 23.948,9.301 L23.948,9.301 C23.973,9.226 23.992,9.139 23.998,9.057 C23.998,9.057 23.998,9.057 23.998,9.057 C23.998,9.057 23.998,9.057 23.998,9.051 C23.998,9.051 23.998,9.045 23.998,9.045 C23.998,9.045 23.998,9.045 23.998,9.045 C23.998,9.039 23.998,9.039 23.998,9.033 C23.998,9.033 23.998,9.033 23.998,9.033 C23.998,9.027 23.998,9.027 23.998,9.021 C23.998,9.021 23.998,9.021 23.998,9.021 C23.998,9.015 23.998,9.015 23.998,9.009 C23.998,9.009 23.998,9.009 23.998,9.003 C23.998,8.997 23.998,8.997 23.998,8.991 C23.998,8.991 23.998,8.991 23.998,8.991 L23.998,3.003 L24,3 Z" id="Shape"></path>
                <path d="M20.813,13.125 C20.294,12.937 19.719,13.206 19.532,13.725 C18.388,16.875 15.363,19 12.007,19 C9.87,19 7.857,18.169 6.351,16.656 C6.345,16.65 6.339,16.644 6.326,16.637 L3.526,14 L7.001,14 C7.551,14 8.001,13.55 8.001,13 C8.001,12.45 7.551,12 7.001,12 L1.001,12 C0.851,12 0.707,12.031 0.576,12.094 C0.576,12.094 0.576,12.094 0.576,12.094 C0.576,12.094 0.57,12.094 0.57,12.1 C0.57,12.1 0.564,12.1 0.564,12.106 C0.564,12.106 0.564,12.106 0.564,12.106 C0.558,12.106 0.558,12.112 0.552,12.112 C0.552,12.112 0.552,12.112 0.552,12.112 C0.471,12.156 0.396,12.206 0.327,12.268 C0.327,12.268 0.327,12.268 0.327,12.268 C0.327,12.268 0.321,12.274 0.321,12.274 C0.321,12.274 0.321,12.274 0.321,12.274 C0.321,12.274 0.315,12.274 0.315,12.28 C0.315,12.28 0.309,12.286 0.309,12.286 C0.309,12.286 0.309,12.286 0.309,12.286 C0.309,12.286 0.303,12.292 0.303,12.292 C0.303,12.292 0.303,12.292 0.303,12.292 C0.303,12.292 0.297,12.298 0.297,12.298 C0.297,12.298 0.297,12.298 0.297,12.298 C0.272,12.323 0.253,12.348 0.228,12.373 C0.178,12.436 0.134,12.504 0.103,12.579 C0.103,12.579 0.103,12.579 0.103,12.579 C0.103,12.585 0.103,12.585 0.097,12.591 C0.097,12.591 0.097,12.591 0.097,12.591 C0.097,12.591 0.097,12.597 0.091,12.597 C0.091,12.597 0.091,12.603 0.091,12.603 C0.091,12.603 0.091,12.609 0.091,12.609 C0.091,12.609 0.091,12.615 0.085,12.615 C0.085,12.615 0.085,12.615 0.085,12.615 C0.047,12.715 0.022,12.828 0.016,12.94 C0.016,12.94 0.016,12.94 0.016,12.946 C0.016,12.946 0.016,12.952 0.016,12.952 C0.016,12.952 0.016,12.958 0.016,12.958 C0.016,12.958 0.016,12.964 0.016,12.964 C0.016,12.964 0.016,12.97 0.016,12.97 C0.016,12.97 0.016,12.976 0.016,12.976 C0.016,12.976 0.016,12.982 0.016,12.982 C0.016,12.982 0.016,12.982 0.016,12.982 L0.016,18.982 C0.016,19.532 0.466,19.982 1.016,19.982 C1.566,19.982 2.016,19.532 2.016,18.982 L2.016,15.295 L4.96,18.064 C6.847,19.945 9.354,20.983 12.022,20.983 C16.216,20.983 19.997,18.333 21.428,14.389 C21.603,13.876 21.334,13.308 20.816,13.12 L20.813,13.125 Z" id="Shape"></path>
            </g>
        </g>
    </g>
</svg>