<svg class="{{ classes|join(' ')|trim }}" viewBox="0 0 24 30" xmlns="http://www.w3.org/2000/svg"><path d="m26 22.3c-2.3 1.8-5.7 2.7-10 2.7s-7.7-.9-10-2.7v2.7c0 1.1 1 2 2.9 2.8a18.83 18.83 0 0 0 7.1 1.2 18.83 18.83 0 0 0 7.1-1.2c1.9-.8 2.9-1.7 2.9-2.8zm0-6c-2.3 1.8-5.7 2.7-10 2.7s-7.7-.9-10-2.7v2.7c0 1.1 1 2 2.9 2.8a18.83 18.83 0 0 0 7.1 1.2 18.83 18.83 0 0 0 7.1-1.2c1.9-.8 2.9-1.7 2.9-2.8zm0-6c-2.3 1.8-5.7 2.7-10 2.7s-7.7-.9-10-2.7v2.7c0 1.1 1 2 2.9 2.8a18.83 18.83 0 0 0 7.1 1.2 18.83 18.83 0 0 0 7.1-1.2c1.9-.8 2.9-1.7 2.9-2.8zm0-3.3c0-1.1-1-2-2.9-2.8a18.83 18.83 0 0 0 -7.1-1.2 18.83 18.83 0 0 0 -7.1 1.2c-1.9.8-2.9 1.7-2.9 2.8s1 2 2.9 2.8a18.83 18.83 0 0 0 7.1 1.2 18.83 18.83 0 0 0 7.1-1.2c1.9-.8 2.9-1.7 2.9-2.8zm2 19.1c-.5 1.4-1.8 2.6-4.1 3.5a21.42 21.42 0 0 1 -7.9 1.4 21.42 21.42 0 0 1 -7.9-1.4c-2.3-.9-3.7-2.1-4.1-3.5v-19.1c0-1.7 1.2-3.1 3.5-4.2a18.41 18.41 0 0 1 8.5-1.8 19.8 19.8 0 0 1 8.5 1.7c2.3 1.2 3.5 2.6 3.5 4.3z" fill="#1f2555" fill-rule="evenodd" transform="translate(-4 -1)"/></svg>
