<?xml version="1.0" encoding="UTF-8" standalone="no"?>
<svg width="32px" height="32px" viewBox="0 0 32 32" version="1.1" xmlns="http://www.w3.org/2000/svg" xmlns:xlink="http://www.w3.org/1999/xlink">
    <!-- Generator: Sketch 47.1 (45422) - http://www.bohemiancoding.com/sketch -->
    <title>Icon/How/Training</title>
    <desc>Created with Sketch.</desc>
    <defs></defs>
    <g id="Symbols" stroke="none" stroke-width="1" fill="none" fill-rule="evenodd">
        <g id="Icon/How/Training" fill="#1F2555">
            <path d="M12,24 L20,24 L20,22 L12,22 L12,24 Z M9,21 L23,21 L23,19 L9,19 L9,21 Z M14.145,14.848 C14.346,14.848 14.574,14.878 14.803,14.988 C15.036,15.1 15.203,15.266 15.329,15.427 C15.7,15.245 16.301,15.245 16.671,15.427 C16.796,15.266 16.963,15.101 17.196,14.988 C17.431,14.874 17.677,14.849 17.872,14.849 C17.916,14.647 17.995,14.425 18.158,14.221 C18.321,14.018 18.52,13.891 18.706,13.805 C18.658,13.604 18.634,13.369 18.691,13.115 C18.749,12.86 18.875,12.659 19.006,12.5 C18.875,12.341 18.75,12.14 18.691,11.885 C18.634,11.631 18.658,11.396 18.706,11.196 C18.52,11.109 18.321,10.983 18.159,10.78 C17.996,10.576 17.917,10.353 17.873,10.151 C17.661,10.146 17.433,10.125 17.197,10.012 C16.964,9.9 16.797,9.734 16.671,9.573 C16.3,9.755 15.699,9.755 15.329,9.573 C15.204,9.734 15.037,9.899 14.804,10.012 C14.568,10.125 14.309,10.155 14.128,10.151 C14.084,10.353 14.005,10.575 13.842,10.779 C13.679,10.982 13.48,11.109 13.294,11.195 C13.342,11.396 13.366,11.631 13.309,11.885 C13.251,12.14 13.125,12.341 12.994,12.5 C13.125,12.659 13.25,12.86 13.309,13.115 C13.366,13.369 13.342,13.604 13.294,13.804 C13.48,13.891 13.679,14.017 13.841,14.22 C14.004,14.424 14.083,14.647 14.127,14.849 C14.133,14.849 14.139,14.848 14.145,14.848 L14.145,14.848 Z M15.119,17.643 C15.029,17.643 14.935,17.633 14.836,17.61 C14.337,17.496 14.056,17.128 13.891,16.873 C13.581,16.902 13.13,16.915 12.73,16.595 C12.333,16.277 12.243,15.837 12.204,15.527 C11.91,15.421 11.5,15.234 11.278,14.772 C11.056,14.314 11.168,13.879 11.267,13.584 C11.055,13.366 10.76,13.01 10.76,12.5 C10.76,11.989 11.055,11.634 11.267,11.415 C11.168,11.12 11.057,10.685 11.278,10.226 C11.5,9.764 11.911,9.578 12.206,9.472 C12.244,9.161 12.333,8.722 12.733,8.402 C13.133,8.085 13.581,8.096 13.891,8.126 C14.056,7.872 14.337,7.504 14.834,7.391 C15.336,7.277 15.737,7.486 16,7.649 C16.264,7.486 16.662,7.274 17.164,7.39 C17.663,7.504 17.944,7.872 18.109,8.127 C18.418,8.096 18.87,8.084 19.27,8.405 C19.667,8.723 19.757,9.163 19.796,9.473 C20.09,9.579 20.5,9.766 20.722,10.228 C20.944,10.686 20.832,11.121 20.733,11.416 C20.945,11.634 21.24,11.99 21.24,12.5 C21.24,13.011 20.945,13.366 20.733,13.585 C20.832,13.88 20.943,14.315 20.722,14.774 C20.5,15.236 20.089,15.422 19.794,15.528 C19.756,15.839 19.667,16.278 19.267,16.598 C18.868,16.915 18.421,16.906 18.109,16.874 C17.944,17.128 17.663,17.496 17.166,17.609 C16.665,17.724 16.264,17.514 16,17.351 C15.788,17.481 15.488,17.643 15.119,17.643 L15.119,17.643 Z M2,26 L30,26 L30,6 L2,6 L2,26 Z M0,28 L32,28 L32,4 L0,4 L0,28 Z" id="Page-1"></path>
        </g>
    </g>
</svg>