<?xml version="1.0" encoding="UTF-8" standalone="no"?>
<svg width="32px" height="32px" viewBox="0 0 32 32" version="1.1" xmlns="http://www.w3.org/2000/svg" xmlns:xlink="http://www.w3.org/1999/xlink">
    <!-- Generator: Sketch 46.2 (44496) - http://www.bohemiancoding.com/sketch -->
    <title>Icon/How/Careers</title>
    <desc>Created with Sketch.</desc>
    <defs></defs>
    <g id="Symbols" stroke="none" stroke-width="1" fill="none" fill-rule="evenodd">
        <g id="Icon/How/Careers" fill="#1F2555">
            <path d="M29.9995,27.0005667 C29.9995,28.1040483 29.1040149,28.9995333 27.9995333,28.9995333 L3.99993333,28.9995333 C2.89545174,28.9995333 1.99996667,28.1040483 1.99996667,27.0005667 L1.99996667,8.99986667 C1.99996667,7.89638506 2.89545174,7.00089999 3.99993333,7.00089999 L27.9995333,7.00089999 C29.1040149,7.00089999 29.9995,7.89638506 29.9995,8.99986667 L29.9995,27.0005667 Z M11.9998,4.00144998 C11.9998,3.44845919 12.4477925,2.99996667 12.9997833,2.99996667 L18.9996833,2.99996667 C19.5516741,2.99996667 19.9996667,3.44845919 19.9996667,4.00144998 L19.9996667,4.99993333 L18.9996833,4.99993333 L12.9997833,4.99993333 L11.9998,4.99993333 L11.9998,4.00144998 Z M27.9995333,4.99993333 L21.9996333,4.99993333 L21.9996333,1.99998333 C21.9996333,1.44799253 21.5516408,1 20.99965,1 L10.9998167,1 C10.4478259,1 9.99983334,1.44799253 9.99983334,1.99998333 L9.99983334,4.99993333 L3.99993333,4.99993333 C1.79097015,4.99993333 0,6.79090348 0,8.99986667 L0,27.0005667 C0,29.2095298 1.79097015,31 3.99993333,31 L27.9995333,31 C30.2084965,31 31.9994667,29.2095298 31.9994667,27.0005667 L31.9994667,8.99986667 C31.9994667,6.79090348 30.2084965,4.99993333 27.9995333,4.99993333 L27.9995333,4.99993333 Z" id="Page-1"></path>
        </g>
    </g>
</svg>