<?xml version="1.0" encoding="UTF-8" standalone="no"?>
<svg width="32px" height="32px" viewBox="0 0 32 32" version="1.1" xmlns="http://www.w3.org/2000/svg" xmlns:xlink="http://www.w3.org/1999/xlink">
    <!-- Generator: Sketch 46.2 (44496) - http://www.bohemiancoding.com/sketch -->
    <title>Icon/How/Industries</title>
    <desc>Created with Sketch.</desc>
    <defs></defs>
    <g id="Symbols" stroke="none" stroke-width="1" fill="none" fill-rule="evenodd">
        <g id="Icon/How/Industries" fill="#1F2555">
            <path d="M8,0 L8,6 L0,6 L0,30 L0,31 L0,32 L8,32 L12,32 L14,32 L18,32 L19.9995,32 L23.9995,32 L32,32 L32,6 L23.9995,6 L23.9995,0 L8,0 Z M10,6 L10,2 L22,2 L22,6 L22,30 L19.9995,30 L19.9995,26 L19.9995,24 L18,24 L14,24 L12,24 L12,26 L12,30 L10,30 L10,6 Z M23.9995,30 L30,30 L30,8 L23.9995,8 L23.9995,30 Z M1.9995,30 L8,30 L8,8 L1.9995,8 L1.9995,30 Z M14,30 L18,30 L18,26 L14,26 L14,30 Z M12,8 L19.9995,8 L19.9995,5.9995 L12,5.9995 L12,8 Z M26,14 L28,14 L28,12 L26,12 L26,14 Z M12,14 L19.9995,14 L19.9995,12 L12,12 L12,14 Z M4,14 L6,14 L6,12 L4,12 L4,14 Z M26,20 L28,20 L28,17.9995 L26,17.9995 L26,20 Z M12,20 L19.9995,20 L19.9995,17.9995 L12,17.9995 L12,20 Z M4,20 L6,20 L6,17.9995 L4,17.9995 L4,20 Z M26,26 L28,26 L28,23.9995 L26,23.9995 L26,26 Z M4,26 L6,26 L6,23.9995 L4,23.9995 L4,26 Z" id="Page-1"></path>
        </g>
    </g>
</svg>