<?xml version="1.0" encoding="UTF-8" standalone="no"?>
<svg width="32px" height="32px" viewBox="0 0 32 32" version="1.1" xmlns="http://www.w3.org/2000/svg" xmlns:xlink="http://www.w3.org/1999/xlink">
    <!-- Generator: Sketch 46.2 (44496) - http://www.bohemiancoding.com/sketch -->
    <title>Icon/How/Training</title>
    <desc>Created with Sketch.</desc>
    <defs></defs>
    <g id="Symbols" stroke="none" stroke-width="1" fill="none" fill-rule="evenodd">
        <g id="Icon/How/Training" fill="#1F2555">
            <g id="Page-1">
                <path d="M25.0067301,24.0229288 C24.5183251,23.9077203 24.0289354,24.1804788 23.8595691,24.6496824 L22.6124624,28.1261216 L19.7627767,22.9299256 C22.027558,22.1180508 23.9708388,20.6321573 25.3543247,18.7159554 L28.6801068,24.8653289 L25.0067301,24.0229288 Z M15.7910397,21.6498319 C10.3585187,21.6498319 5.93776414,17.2349854 5.93776414,11.810342 C5.93776414,6.38717552 10.3585187,1.97331376 15.7910397,1.97331376 C21.2235607,1.97331376 25.6438229,6.38717552 25.6438229,11.810342 C25.6438229,17.2349854 21.2235607,21.6498319 15.7910397,21.6498319 L15.7910397,21.6498319 Z M8.94499978,28.1000274 L7.7062629,24.6496824 C7.53738899,24.1804788 7.04602993,23.9077203 6.55910195,24.0229288 L2.90295724,24.8613902 L6.23907851,18.7765137 C7.60828649,20.6484047 9.51365682,22.1027881 11.7311731,22.9107242 L8.94499978,28.1000274 Z M31.447571,25.8421389 L26.5152713,16.7224556 C27.2006138,15.2262229 27.5856266,13.5635781 27.5856266,11.810342 C27.5856266,5.2887566 22.2978547,0 15.775777,0 C9.25222229,0 3.96494272,5.2887566 3.96494272,11.810342 C3.96494272,13.5965651 4.36324881,15.2892429 5.07320851,16.8071387 L0.121215032,25.8386925 C-0.0653832505,26.1769327 -0.034365594,26.5964096 0.199005345,26.9056014 C0.432868628,27.214301 0.828220662,27.3595424 1.20486363,27.2714129 L6.14750258,26.1375452 L7.83919571,30.8482902 C7.9706515,31.214594 8.30544525,31.469628 8.69291978,31.4986763 C8.71802931,31.5006457 8.74215416,31.5006457 8.766279,31.5006457 C9.12667463,31.5006457 9.46146838,31.3022312 9.63329635,30.9822077 L13.6852854,23.4335933 C14.3642275,23.5552022 15.0618786,23.622161 15.775777,23.622161 C16.466043,23.622161 17.1410462,23.5596333 17.7993098,23.4459019 L21.9364744,30.9895929 C22.1102718,31.3061699 22.4421114,31.5006457 22.8000454,31.5006457 C22.8246625,31.5006457 22.8507568,31.5006457 22.876851,31.4986763 C23.2633408,31.4676587 23.5961652,31.2136093 23.7266363,30.8482902 L25.4183294,26.1375452 L30.3609684,27.2714129 C30.7400731,27.3615118 31.130994,27.2152857 31.3648573,26.9075708 C31.5997053,26.5988713 31.6312153,26.1838255 31.447571,25.8421389 L31.447571,25.8421389 Z" id="Fill-1"></path>
            </g>
        </g>
    </g>
</svg>