<?xml version="1.0" encoding="UTF-8" standalone="no"?>
<svg width="32px" height="32px" viewBox="0 0 32 32" version="1.1" xmlns="http://www.w3.org/2000/svg" xmlns:xlink="http://www.w3.org/1999/xlink">
    <!-- Generator: Sketch 46.2 (44496) - http://www.bohemiancoding.com/sketch -->
    <title>Icon/How/Vision</title>
    <desc>Created with Sketch.</desc>
    <defs>
        <polygon id="path-1" points="31.4754098 15.7379934 31.4754098 31.4759344 0 31.4759344 0 15.7379934 0 5.24590164e-05 31.4754098 5.24590164e-05"></polygon>
    </defs>
    <g id="Symbols" stroke="none" stroke-width="1" fill="none" fill-rule="evenodd">
        <g id="Icon/How/Vision">
            <g id="Page-1">
                <mask id="mask-2" fill="white">
                    <use xlink:href="#path-1"></use>
                </mask>
                <g id="Clip-2"></g>
                <path d="M27.607082,5.3524459 L26.1230164,3.86785574 L23.1554098,6.8354623 L24.64,8.32005246 L27.607082,5.3524459 Z M14.6885246,31.4759869 L16.7868852,31.4759869 L16.7868852,27.2792656 L14.6885246,27.2792656 L14.6885246,31.4759869 Z M15.7377049,23.0689049 C11.6883934,23.0689049 8.40603279,19.7870689 8.40603279,15.7377574 C8.40603279,11.6889705 11.6883934,8.40608525 15.7377049,8.40608525 C19.7870164,8.40608525 23.069377,11.6889705 23.069377,15.7377574 C23.069377,19.7870689 19.7870164,23.0689049 15.7377049,23.0689049 L15.7377049,23.0689049 Z M15.7377049,6.29460984 C10.5232787,6.29460984 6.29508197,10.5228066 6.29508197,15.7377574 C6.29508197,20.9527082 10.5232787,25.1809049 15.7377049,25.1809049 C20.9526557,25.1809049 25.1803279,20.9527082 25.1803279,15.7377574 C25.1803279,10.5228066 20.9526557,6.29460984 15.7377049,6.29460984 L15.7377049,6.29460984 Z M27.2786885,16.7874623 L31.4754098,16.7874623 L31.4754098,14.6880525 L27.2786885,14.6880525 L27.2786885,16.7874623 Z M23.1559344,24.6416262 L26.1230164,27.6081836 L27.607082,26.1251672 L24.6394754,23.1565115 L23.1559344,24.6416262 Z M14.6885246,4.19677377 L16.7868852,4.19677377 L16.7868852,5.24590164e-05 L14.6885246,5.24590164e-05 L14.6885246,4.19677377 Z M8.31790164,6.8354623 L5.35029508,3.86785574 L3.86622951,5.3524459 L6.83383607,8.31900328 L8.31790164,6.8354623 Z M3.86622951,26.1251672 L5.35081967,27.6081836 L8.31790164,24.6416262 L6.83383607,23.1565115 L3.86622951,26.1251672 Z M0,16.7874623 L4.19672131,16.7874623 L4.19672131,14.6880525 L0,14.6880525 L0,16.7874623 Z" id="Fill-1" fill="#1F2555" mask="url(#mask-2)"></path>
            </g>
        </g>
    </g>
</svg>