<svg id="aa3f9d8e-a07a-4f44-b927-11221e7c6f89" data-name="Layer 1" xmlns="http://www.w3.org/2000/svg" viewBox="0 0 31.8 32"><title>app-exchange</title><path id="b5bea49d-d692-4c0f-a803-750a429568fb" data-name="path-1" d="M15,2.6v9.9a1,1,0,0,0,2,0V2.6L28.7,8.4,16,14.8,3.3,8.5Zm2,13.9L29.9,10V21.8L20.1,17a1,1,0,1,0-.9,1.7l9.5,4.7L17,29.4Zm-3.5.8a.88.88,0,0,0-1.3-.4l-10.1,5V10.1L15,16.5V29.3L3.3,23.5l9.8-4.9A.88.88,0,0,0,13.5,17.3ZM31.9,8.5a.37.37,0,0,0-.1-.3V8.1a.22.22,0,0,0-.2-.2V7.8c-.1-.1-.2-.1-.2-.2L16.4.1h0C16.3,0,16.2,0,16,0s-.3,0-.4.1h0L.6,7.6a.22.22,0,0,0-.2.2v.1c-.1,0-.2,0-.2.1v.1c0,.1-.1.2-.1.3V23.5h0V24h0c0,.1.1.1.1.2v.1h0c.1.1.1.1.2.1h0l14.9,7.5h0a2.25,2.25,0,0,0,.7.1c.2,0,.3,0,.4-.1h0l14.9-7.5h0c.1,0,.1-.1.2-.1h0v-.1a.35.35,0,0,0,.1-.2h0v-.5h0V8.5Z" transform="translate(-0.1)" fill="#1f2555" fill-rule="evenodd"/></svg>