<svg id="a09d476d-b8a8-4697-adb8-468825d43ea2" data-name="Layer 1" xmlns="http://www.w3.org/2000/svg" viewBox="0 0 32 32"><title>product</title><path id="a769942e-f1e7-4cba-8f00-88cf5265a492" data-name="Page-1" d="M15,23.5h2v-10H15ZM17.2,9.7a1.1,1.1,0,1,1-1.9-.8,1.23,1.23,0,0,1,.8-.4.91.91,0,0,1,.8.4,1.14,1.14,0,0,1,.3.8ZM30,16a13.51,13.51,0,0,0-4.1-9.9A13.51,13.51,0,0,0,16,2,13.51,13.51,0,0,0,6.1,6.1,13.51,13.51,0,0,0,2,16a13.51,13.51,0,0,0,4.1,9.9A13.51,13.51,0,0,0,16,30a13.51,13.51,0,0,0,9.9-4.1A13.51,13.51,0,0,0,30,16Zm2,0a15.48,15.48,0,0,1-4.7,11.3A15.48,15.48,0,0,1,16,32,15.48,15.48,0,0,1,4.7,27.3,15.48,15.48,0,0,1,0,16,15.48,15.48,0,0,1,4.7,4.7,15.48,15.48,0,0,1,16,0,15.48,15.48,0,0,1,27.3,4.7,15.48,15.48,0,0,1,32,16Z" fill="#1f2555" fill-rule="evenodd"/></svg>