<svg class="{{ classes|join(' ')|trim }}" viewBox="0 0 32 32" xmlns="http://www.w3.org/2000/svg"><g fill="#151619"><path d="m16 22.5a6.5 6.5 0 1 1 6.48-6.5 6.5 6.5 0 0 1 -6.48 6.5zm0-11.12a4.62 4.62 0 1 0 4.6 4.62 4.61 4.61 0 0 0 -4.6-4.62z"/><path d="m19.42 31h-6.84a.94.94 0 0 1 -.94-.94v-3.06a11.47 11.47 0 0 1 -3-1.71l-2.64 1.53a.93.93 0 0 1 -.71.09.9.9 0 0 1 -.57-.44l-3.39-5.94a1 1 0 0 1 .35-1.28l2.64-1.54a12.18 12.18 0 0 1 -.12-1.71 12.43 12.43 0 0 1 .12-1.72l-2.64-1.53a1 1 0 0 1 -.35-1.28l3.43-5.94a.9.9 0 0 1 .57-.44.93.93 0 0 1 .67.09l2.69 1.54a11.77 11.77 0 0 1 3-1.71v-3.07a.94.94 0 0 1 .89-.94h6.84a.94.94 0 0 1 .94.94v3.06a11.77 11.77 0 0 1 2.95 1.71l2.69-1.53a.93.93 0 0 1 .71-.09.9.9 0 0 1 .57.44l3.43 5.94a1 1 0 0 1 -.35 1.28l-2.64 1.53a12.32 12.32 0 0 1 .08 1.72 12.18 12.18 0 0 1 -.12 1.71l2.64 1.54a1 1 0 0 1 .35 1.28l-3.43 5.94a.9.9 0 0 1 -.57.44.93.93 0 0 1 -.71-.09l-2.65-1.54a11.77 11.77 0 0 1 -2.95 1.72v3.07a.94.94 0 0 1 -.94.93zm-5.91-1.87h5v-2.79a.92.92 0 0 1 .65-.89 10 10 0 0 0 3.45-2 .94.94 0 0 1 1.1-.11l2.41 1.39 2.48-4.32-2.43-1.41a.94.94 0 0 1 -.45-1 9.72 9.72 0 0 0 0-4 .93.93 0 0 1 .45-1l2.4-1.39-2.48-4.33-2.41 1.39a.94.94 0 0 1 -1.1-.11 9.86 9.86 0 0 0 -3.46-2 .93.93 0 0 1 -.64-.89v-2.8h-5v2.79a.92.92 0 0 1 -.64.89 9.91 9.91 0 0 0 -3.45 2 .93.93 0 0 1 -1.1.11l-2.38-1.38-2.48 4.32 2.4 1.4a.93.93 0 0 1 .45 1 9.72 9.72 0 0 0 0 4 .93.93 0 0 1 -.45 1l-2.4 1.4 2.48 4.32 2.41-1.39a.94.94 0 0 1 1.1.11 10 10 0 0 0 3.45 2 .92.92 0 0 1 .64.89z"/></g></svg>
