<?xml version="1.0" encoding="UTF-8" standalone="no"?>
<svg width="24px" height="24px" viewBox="0 0 24 24" version="1.1" xmlns="http://www.w3.org/2000/svg" xmlns:xlink="http://www.w3.org/1999/xlink">
    <!-- Generator: Sketch 46.2 (44496) - http://www.bohemiancoding.com/sketch -->
    <title>Icon/utility/Indigo/24px/Asset-Presentation</title>
    <desc>Created with Sketch.</desc>
    <defs>
        <polygon id="path-1" points="22 11.9999443 22 0 0 0 0 11.9999443 0 23.9998885 22 23.9998885"></polygon>
    </defs>
    <g id="Symbols" stroke="none" stroke-width="1" fill="none" fill-rule="evenodd">
        <g id="Icon/utility/Indigo/24px/Asset-Presentation">
            <g id="Page-1" transform="translate(1.000000, 0.000000)">
                <mask id="mask-2" fill="white">
                    <use xlink:href="#path-1"></use>
                </mask>
                <g id="Clip-2"></g>
                <path d="M20,12.9998 C20,13.5498 19.55,13.9998 19,13.9998 L3,13.9998 C2.45,13.9998 2,13.5498 2,12.9998 L2,2.9998 C2,2.4498 2.45,1.9998 3,1.9998 L19,1.9998 C19.55,1.9998 20,2.4498 20,2.9998 L20,12.9998 Z M19,-0.0002 L3,-0.0002 C1.344,-0.0002 0,1.3438 0,2.9998 L0,12.9998 C0,14.6558 1.344,15.9998 3,15.9998 L9.332,15.9998 L5.926,22.4178 C5.606,22.8718 5.712,23.4978 6.166,23.8158 C6.618,24.1358 7.246,24.0278 7.564,23.5758 L11,16.7158 L14.436,23.5758 C14.63,23.8518 14.942,23.9998 15.256,23.9998 C15.456,23.9998 15.66,23.9398 15.834,23.8158 C16.288,23.4978 16.394,22.8718 16.074,22.4178 L12.668,15.9998 L19,15.9998 C20.656,15.9998 22,14.6558 22,12.9998 L22,2.9998 C22,1.3438 20.656,-0.0002 19,-0.0002 L19,-0.0002 Z" id="Fill-1" fill="#1F2555" mask="url(#mask-2)"></path>
            </g>
        </g>
    </g>
</svg>