<?xml version="1.0" encoding="UTF-8" standalone="no"?>
<svg width="24px" height="24px" viewBox="0 0 24 24" version="1.1" xmlns="http://www.w3.org/2000/svg" xmlns:xlink="http://www.w3.org/1999/xlink">
    <!-- Generator: Sketch 46.2 (44496) - http://www.bohemiancoding.com/sketch -->
    <title>Icon/utility/Indigo/24px/Info-open</title>
    <desc>Created with Sketch.</desc>
    <defs></defs>
    <g id="Symbols" stroke="none" stroke-width="1" fill="none" fill-rule="evenodd">
        <g id="Icon/utility/Indigo/24px/Info-open">
            <rect id="Rectangle-6" x="0" y="0" width="24" height="24"></rect>
            <g id="Info" transform="translate(1.000000, 1.000000)" fill="#1F2555">
                <path d="M11,20 C6.038,20 2,15.962 2,11 C2,6.038 6.038,2 11,2 C15.962,2 20,6.038 20,11 C20,15.962 15.962,20 11,20 M11,0 C4.937,0 0,4.938 0,11 C0,17.062 4.938,22 11,22 C17.062,22 22,17.062 22,11 C22,4.938 17.062,0 11,0" id="Fill-1"></path>
                <path d="M11,10 C10.45,10 10,10.45 10,11 L10,15 C10,15.55 10.45,16 11,16 C11.55,16 12,15.55 12,15 L12,11 C12,10.45 11.55,10 11,10" id="Fill-3"></path>
                <path d="M11,6 C10.738,6 10.481,6.106 10.294,6.294 C10.107,6.482 10,6.738 10,7 C10,7.262 10.106,7.519 10.294,7.706 C10.482,7.894 10.738,8 11,8 C11.262,8 11.519,7.894 11.706,7.706 C11.894,7.518 12,7.262 12,7 C12,6.738 11.894,6.481 11.706,6.294 C11.518,6.106 11.262,6 11,6" id="Fill-5"></path>
            </g>
        </g>
    </g>
</svg>