<?xml version="1.0" encoding="UTF-8" standalone="no"?>
<svg width="24px" height="24px" viewBox="0 0 24 24" version="1.1" xmlns="http://www.w3.org/2000/svg" xmlns:xlink="http://www.w3.org/1999/xlink">
    <!-- Generator: Sketch 46.2 (44496) - http://www.bohemiancoding.com/sketch -->
    <title>Icon/utility/Indigo/24px/User</title>
    <desc>Created with Sketch.</desc>
    <defs></defs>
    <g id="Symbols" stroke="none" stroke-width="1" fill="none" fill-rule="evenodd">
        <g id="Icon/utility/Indigo/24px/User">
            <rect id="Rectangle-6" x="0" y="0" width="24" height="24"></rect>
            <g id="Page-1" transform="translate(1.000000, 1.000000)" fill="#1F2555">
                <path d="M18.0195,16.6104 C17.0305,15.0304 15.5195,13.8094 13.7305,13.1794 C15.0195,12.3094 15.8605,10.8304 15.8605,9.1604 C15.8605,6.4804 13.6795,4.2994 10.9995,4.2994 C8.3205,4.2994 6.1395,6.4804 6.1395,9.1604 C6.1395,10.8304 6.9805,12.3094 8.2695,13.1794 C6.4805,13.8094 4.9695,15.0304 3.9805,16.6104 C2.7405,15.0704 1.9995,13.1204 1.9995,11.0004 C1.9995,6.0404 6.0405,2.0004 10.9995,2.0004 C15.9595,2.0004 19.9995,6.0404 19.9995,11.0004 C19.9995,13.1204 19.2595,15.0704 18.0195,16.6104 M8.1395,9.1604 C8.1395,7.5894 9.4195,6.2994 10.9995,6.2994 C12.5805,6.2994 13.8605,7.5894 13.8605,9.1604 C13.8605,10.7404 12.5805,12.0194 10.9995,12.0194 C9.4195,12.0194 8.1395,10.7404 8.1395,9.1604 M10.9995,20.0004 C8.9005,20.0004 6.9695,19.2804 5.4405,18.0704 C6.4905,16.0704 8.5895,14.7104 10.9995,14.7104 C13.4105,14.7104 15.5095,16.0704 16.5595,18.0704 C15.0305,19.2804 13.0995,20.0004 10.9995,20.0004 M10.9995,0.0004 C4.9405,0.0004 -0.0005,4.9404 -0.0005,11.0004 C-0.0005,13.9504 1.1695,16.6304 3.0705,18.5994 C3.5805,19.1504 4.1605,19.6394 4.7905,20.0594 C6.5595,21.2804 8.7005,22.0004 10.9995,22.0004 C13.2995,22.0004 15.4405,21.2804 17.2095,20.0594 C17.8395,19.6394 18.4195,19.1504 18.9295,18.5994 C20.8305,16.6304 21.9995,13.9504 21.9995,11.0004 C21.9995,4.9404 17.0595,0.0004 10.9995,0.0004" id="Fill-1"></path>
            </g>
        </g>
    </g>
</svg>