<svg version="1.1" id="fc04be8a-6dc9-492e-9241-c33eb3ea0be7"
	 xmlns="http://www.w3.org/2000/svg" xmlns:xlink="http://www.w3.org/1999/xlink" x="0px" y="0px" viewBox="0 0 28 32"
	 enable-background="new 0 0 28 32" xml:space="preserve">
<path fill="#1f2555" fill-rule="evenodd" clip-rule="evenodd" d="M14,32c-0.1,0-0.2,0-0.3-0.1C13.5,31.9,0,26.8,0,11.7V0.9C0,0.4,0.4,0,0.9,0
	C1,0,1,0,1,0h26c0.5,0,0.9,0.4,1,0.9v10.8c0,15.1-13.5,20.2-13.7,20.2C14.2,32,14.1,32,14,32z M1.9,1.9v9.8C1.9,24.2,12,29.2,14,30
	c2-0.9,12.1-5.7,12.1-18.3V1.9H1.9z M12.4,18.5c-0.3,0-0.5-0.1-0.7-0.3L8,14.5c-0.4-0.3-0.4-0.8-0.1-1.2c0,0,0.1-0.1,0.1-0.1
	c0.4-0.4,1-0.4,1.4,0l3,3l6.3-6.1c0.4-0.4,1-0.4,1.4,0c0.4,0.3,0.4,0.8,0.1,1.2c0,0-0.1,0.1-0.1,0.1l-7,6.8
	C12.9,18.4,12.7,18.5,12.4,18.5z"/>
</svg>
