<svg id="fc04be8a-6dc9-492e-9241-c33eb3ea0be7" data-name="Layer 1" xmlns="http://www.w3.org/2000/svg" viewBox="0 0 28 32"><title>academy</title><path d="M16,32a.37.37,0,0,1-.3-.1C15.5,31.9,2,26.8,2,11.7V.9A.92.92,0,0,1,3,0H29a1,1,0,0,1,1,.9V11.7c0,15.1-13.5,20.2-13.7,20.2A.37.37,0,0,1,16,32ZM3.9,1.9v9.8C3.9,24.2,14,29.2,16,30c2-.9,12.1-5.7,12.1-18.3V1.9ZM14.4,18.5a.91.91,0,0,1-.7-.3L10,14.5a.85.85,0,0,1,0-1.3,1,1,0,0,1,1.4,0l3,3,6.3-6.1a1,1,0,0,1,1.4,0,.85.85,0,0,1,0,1.3l-7,6.8A1.08,1.08,0,0,1,14.4,18.5Z" transform="translate(-2)" fill="#1f2555" fill-rule="evenodd"/></svg>