<svg id="bcdde78a-59a2-4393-8650-77f1fe51fdc4" data-name="Layer 1" xmlns="http://www.w3.org/2000/svg" viewBox="0 0 31.97 31.7"><title>agile</title><path id="eb84e18e-a1b9-4dda-b46e-1c8d0ec62ed2" data-name="path-1" d="M31.9,25.8a1.1,1.1,0,0,1,0,.8c0,.1-.1.2-.2.3L27,31.6a.91.91,0,0,1-.7.3,1.08,1.08,0,0,1-.7-.3,1,1,0,0,1,0-1.4l.8-.8,2.3-2.2h-11a13.49,13.49,0,0,1-8.6-3.1L7.9,22.9A13.45,13.45,0,0,1,5.1,8.8,13.68,13.68,0,0,1,14.4.6h0A12.42,12.42,0,0,1,17.7.2,13.65,13.65,0,0,1,31.3,13.7a10.9,10.9,0,0,1-.3,2.6A11.64,11.64,0,0,1,29.7,20a.22.22,0,0,1-.2.2L28,18.8a11.73,11.73,0,0,1,.5-1.1,13.32,13.32,0,0,0,.5-1.9,14.92,14.92,0,0,0,.2-2.1A11.52,11.52,0,0,0,7,9.4a12.17,12.17,0,0,0-.8,4.3,11.69,11.69,0,0,0,2.4,7.1c.3.4.6.7.9,1.1a11.51,11.51,0,0,0,8.1,3.4H28.5l-.3-.3-2-2-.7-.7a1,1,0,0,1,1.4-1.4l2.2,2.2,2.5,2.5.1.1C31.8,25.5,31.9,25.6,31.9,25.8ZM7.4,25.1a1,1,0,0,1,0,2H1a1,1,0,0,1,0-2Z" transform="translate(0 -0.2)" fill="#1f2555" fill-rule="evenodd"/></svg>