<svg version="1.1" id="bcdde78a-59a2-4393-8650-77f1fe51fdc4"
	 xmlns="http://www.w3.org/2000/svg" xmlns:xlink="http://www.w3.org/1999/xlink" x="0px" y="0px" viewBox="0 0 32 31.7"
	 enable-background="new 0 0 32 31.7" xml:space="preserve">
<path id="eb84e18e-a1b9-4dda-b46e-1c8d0ec62ed2" fill="#1f2555" fill-rule="evenodd" clip-rule="evenodd" d="M31.9,25.6c0.1,0.3,0.1,0.5,0,0.8
	c0,0.1-0.1,0.2-0.2,0.3L27,31.4c-0.2,0.2-0.4,0.3-0.7,0.3c-0.3,0-0.5-0.1-0.7-0.3c-0.4-0.4-0.4-1,0-1.4l0.8-0.8l2.3-2.2h-11
	c-3.1,0-6.2-1.1-8.6-3.1l-1.2-1.2c-3.6-3.8-4.7-9.3-2.8-14.1c1.6-4.1,5.1-7.1,9.3-8.2l0,0C15.5,0.1,16.6,0,17.7,0
	c7.5,0,13.5,6,13.6,13.5c0,0.9-0.1,1.7-0.3,2.6c-0.2,1.3-0.7,2.5-1.3,3.7c0,0.1-0.1,0.2-0.2,0.2L28,18.6c0.1-0.4,0.3-0.7,0.5-1.1
	c0.2-0.6,0.4-1.3,0.5-1.9c0.1-0.7,0.2-1.4,0.2-2.1C29.2,7.1,24,2,17.7,2C13,2,8.8,4.9,7,9.2c-0.5,1.4-0.8,2.8-0.8,4.3
	c0,2.6,0.8,5.1,2.4,7.1c0.3,0.4,0.6,0.7,0.9,1.1c2.1,2.2,5.1,3.4,8.1,3.4h10.9l-0.3-0.3l-2-2l-0.7-0.7c-0.3-0.4-0.2-1.1,0.2-1.4
	c0.4-0.3,0.8-0.3,1.2,0l2.2,2.2l2.5,2.5l0.1,0.1C31.8,25.3,31.9,25.4,31.9,25.6z M7.4,24.9c0.6,0,1,0.4,1,1s-0.4,1-1,1H1
	c-0.6,0-1-0.4-1-1s0.4-1,1-1H7.4z"/>
</svg>
