<?xml version="1.0" encoding="UTF-8"?>
<svg width="32px" height="32px" viewBox="0 0 32 32" version="1.1" xmlns="http://www.w3.org/2000/svg" xmlns:xlink="http://www.w3.org/1999/xlink">
    <!-- Generator: Sketch 49.3 (51167) - http://www.bohemiancoding.com/sketch -->
    <title>brand icons/community/brand-app-exchange</title>
    <desc>Created with Sketch.</desc>
    <defs>
        <path d="M14.9274,2.6182 L14.9274,12.5212 C14.9274,13.0742 15.3744,13.5212 15.9274,13.5212 C16.4794,13.5212 16.9274,13.0742 16.9274,12.5212 L16.9274,2.6182 L28.6174,8.4632 L15.9274,14.8072 L3.2364,8.4632 L14.9274,2.6182 Z M16.9274,16.5442 L29.8544,10.0812 L29.8544,21.9182 L20.0154,16.9992 C19.5204,16.7532 18.9204,16.9522 18.6734,17.4462 C18.4264,17.9402 18.6264,18.5412 19.1204,18.7882 L28.6174,23.5362 L16.9274,29.3822 L16.9274,16.5442 Z M13.4434,17.3152 C13.1964,16.8212 12.5964,16.6222 12.1014,16.8682 L1.9994,21.9182 L1.9994,10.0812 L14.9274,16.5442 L14.9274,29.3822 L3.2364,23.5362 L12.9954,18.6572 C13.4904,18.4102 13.6904,17.8092 13.4434,17.3152 Z M31.8544,8.4632 C31.8544,8.3412 31.8254,8.2262 31.7844,8.1172 C31.7734,8.0862 31.7604,8.0572 31.7454,8.0282 C31.7044,7.9442 31.6534,7.8682 31.5904,7.7982 C31.5744,7.7812 31.5634,7.7622 31.5474,7.7452 C31.4754,7.6762 31.3944,7.6152 31.3014,7.5682 L16.3744,0.1052 C16.3654,0.1012 16.3564,0.1032 16.3474,0.0982 C16.2184,0.0382 16.0784,0.0002 15.9274,0.0002 C15.7764,0.0002 15.6364,0.0382 15.5074,0.0982 C15.4984,0.1032 15.4894,0.1012 15.4804,0.1052 L0.5524,7.5682 C0.4604,7.6152 0.3794,7.6762 0.3074,7.7452 C0.2904,7.7622 0.2804,7.7812 0.2644,7.7982 C0.2014,7.8682 0.1504,7.9442 0.1094,8.0282 C0.0944,8.0572 0.0814,8.0862 0.0704,8.1172 C0.0294,8.2262 -0.0006,8.3412 -0.0006,8.4632 L-0.0006,23.5362 C-0.0006,23.5472 0.0054,23.5552 0.0064,23.5662 C0.0074,23.6182 0.0244,23.6662 0.0334,23.7182 C0.0444,23.7762 0.0504,23.8322 0.0714,23.8872 C0.0794,23.9102 0.0874,23.9312 0.0974,23.9532 C0.1024,23.9632 0.1004,23.9732 0.1054,23.9832 C0.1344,24.0402 0.1744,24.0872 0.2114,24.1372 C0.2274,24.1562 0.2374,24.1782 0.2534,24.1972 C0.2644,24.2092 0.2744,24.2202 0.2844,24.2312 C0.2994,24.2462 0.3164,24.2552 0.3304,24.2692 C0.3924,24.3242 0.4564,24.3732 0.5284,24.4112 C0.5374,24.4162 0.5434,24.4262 0.5524,24.4302 L15.4804,31.8942 C15.4894,31.8992 15.4984,31.8972 15.5074,31.9012 C15.6364,31.9612 15.7764,32.0002 15.9274,32.0002 C16.0784,32.0002 16.2184,31.9612 16.3464,31.9012 C16.3554,31.8972 16.3654,31.8992 16.3744,31.8942 L31.3014,24.4302 C31.3114,24.4262 31.3174,24.4162 31.3264,24.4112 C31.3984,24.3732 31.4624,24.3242 31.5244,24.2692 C31.5384,24.2552 31.5554,24.2462 31.5704,24.2312 C31.5804,24.2202 31.5904,24.2092 31.6014,24.1972 C31.6174,24.1782 31.6274,24.1562 31.6434,24.1372 C31.6804,24.0872 31.7204,24.0402 31.7484,23.9832 C31.7534,23.9732 31.7524,23.9632 31.7574,23.9532 C31.7674,23.9312 31.7754,23.9102 31.7834,23.8872 C31.8044,23.8322 31.8104,23.7762 31.8214,23.7182 C31.8304,23.6672 31.8474,23.6182 31.8484,23.5662 C31.8494,23.5552 31.8544,23.5472 31.8544,23.5362 L31.8544,8.4632 Z" id="path-1"></path>
    </defs>
    <g id="brand-icons/community/brand-app-exchange" stroke="none" stroke-width="1" fill="none" fill-rule="evenodd">
        <mask id="mask-2" fill="white">
            <use xlink:href="#path-1"></use>
        </mask>
        <g id="Mask"></g>
        <g id="z_atom/Icon-color/brand-black" mask="url(#mask-2)" fill="#2D2E33">
            <rect id="Rectangle-15" x="0" y="0" width="32" height="32"></rect>
        </g>
    </g>
</svg>