<svg version="1.1" id="aa3f9d8e-a07a-4f44-b927-11221e7c6f89"
	 xmlns="http://www.w3.org/2000/svg" xmlns:xlink="http://www.w3.org/1999/xlink" x="0px" y="0px" viewBox="0 0 31.8 32"
	 enable-background="new 0 0 31.8 32" xml:space="preserve">
<path id="b5bea49d-d692-4c0f-a803-750a429568fb" fill-rule="evenodd" clip-rule="evenodd" d="M14.9,2.6v9.9c0,0.6,0.4,1,1,1
	c0.6,0,1-0.4,1-1V2.6l11.7,5.8l-12.7,6.4L3.2,8.5L14.9,2.6z M16.9,16.5L29.8,10v11.8L20,17c-0.4-0.4-1-0.4-1.4,0
	c-0.4,0.4-0.4,1,0,1.4c0.1,0.1,0.3,0.2,0.5,0.3l9.5,4.7l-11.7,6V16.5z M13.4,17.3c-0.2-0.4-0.7-0.7-1.1-0.5c-0.1,0-0.1,0-0.2,0.1
	L2,21.9V10.1l12.9,6.4v12.8L3.2,23.5l9.8-4.9c0.4-0.2,0.7-0.7,0.5-1.1C13.5,17.4,13.4,17.3,13.4,17.3z M31.8,8.5
	c0-0.1,0-0.2-0.1-0.3V8.1c0-0.1-0.1-0.2-0.2-0.2V7.8c-0.1-0.1-0.2-0.1-0.2-0.2l-15-7.5l0,0C16.2,0,16.1,0,15.9,0s-0.3,0-0.4,0.1l0,0
	l-15,7.5c-0.1,0-0.2,0.1-0.2,0.2v0.1c-0.1,0-0.2,0-0.2,0.1v0.1C0.1,8.2,0,8.3,0,8.4v15.1l0,0V24l0,0c0,0.1,0.1,0.1,0.1,0.2v0.1l0,0
	c0.1,0.1,0.1,0.1,0.2,0.1l0,0l14.9,7.5l0,0c0.2,0.1,0.5,0.1,0.7,0.1c0.2,0,0.3,0,0.4-0.1l0,0l14.9-7.5l0,0c0.1,0,0.1-0.1,0.2-0.1
	l0,0v-0.1c0.1-0.1,0.1-0.1,0.1-0.2l0,0v-0.5l0,0v-15H31.8z"/>
</svg>
