<?xml version="1.0" encoding="utf-8"?>
<!-- Generator: Adobe Illustrator 24.0.3, SVG Export Plug-In . SVG Version: 6.00 Build 0)  -->
<svg version="1.1" id="b87fc619-f20c-4914-9ac6-c7daf1dc990c"
	 xmlns="http://www.w3.org/2000/svg" xmlns:xlink="http://www.w3.org/1999/xlink" x="0px" y="0px" viewBox="0 0 32 30"
	 enable-background="new 0 0 32 30" xml:space="preserve">
<path id="b064cdeb-f788-4e0b-b1b8-3f22338faf4d" fill-rule="evenodd" clip-rule="evenodd" d="M28,28H4c-1.1,0-2-0.9-2-2V14h28v12
	C30,27.1,29.1,28,28,28z M4,6h24c1.1,0,2,0.9,2,2v4H2V8C2,6.9,2.9,6,4,6z M12,3c0-0.5,0.4-1,0.9-1c0,0,0.1,0,0.1,0h6
	c0.5,0,1,0.4,1,0.9c0,0,0,0.1,0,0.1v1h-8V3z M28,4h-6V1c0-0.5-0.4-1-0.9-1c0,0-0.1,0-0.1,0H11c-0.5,0-1,0.4-1,0.9c0,0,0,0.1,0,0.1v3
	H4C1.8,4,0,5.8,0,8v18c0,2.2,1.8,4,4,4h24c2.2,0,4-1.8,4-4V8C32,5.8,30.2,4,28,4z"/>
</svg>
