<?xml version="1.0" encoding="UTF-8"?>
<svg width="32px" height="32px" viewBox="0 0 32 32" version="1.1" xmlns="http://www.w3.org/2000/svg" xmlns:xlink="http://www.w3.org/1999/xlink">
    <!-- Generator: Sketch 49.3 (51167) - http://www.bohemiancoding.com/sketch -->
    <title>brand icons/community/brand-documentation</title>
    <desc>Created with Sketch.</desc>
    <defs>
        <path d="M25,19 L11,19 C10.448,19 10,19.448 10,20.001 C10,20.553 10.448,21.001 11,21.001 L25,21.001 C25.553,21.001 26,20.553 26,20.001 C26,19.448 25.553,19 25,19 Z M28,24.001 C28,24.553 27.553,25.001 27,25.001 L9,25.001 C8.448,25.001 8,24.553 8,24.001 L8,4 C8,3.448 8.448,3.001 9,3.001 L27,3.001 C27.553,3.001 28,3.448 28,4 L28,24.001 Z M28,1 L8,1 C6.896,1 6,1.896 6,3.001 L6,25.001 C6,26.105 6.896,27 8,27 L28,27 C29.104,27 30,26.105 30,25.001 L30,3.001 C30,1.896 29.104,1 28,1 Z M25,13.001 L11,13.001 C10.448,13.001 10,13.448 10,14.001 C10,14.552 10.448,15.001 11,15.001 L25,15.001 C25.553,15.001 26,14.552 26,14.001 C26,13.448 25.553,13.001 25,13.001 Z M11,9.001 L19,9.001 C19.553,9.001 20,8.553 20,8.001 C20,7.448 19.553,7 19,7 L11,7 C10.448,7 10,7.448 10,8.001 C10,8.553 10.448,9.001 11,9.001 Z M4,5.001 C2.896,5.001 2,5.896 2,7 L2,29 C2,30.105 2.896,31.001 4,31.001 L26,31.001 C27.104,31.001 28,30.105 28,29 L4,29 L4,5.001 Z" id="path-1"></path>
    </defs>
    <g id="brand-icons/community/brand-documentation" stroke="none" stroke-width="1" fill="none" fill-rule="evenodd">
        <mask id="mask-2" fill="white">
            <use xlink:href="#path-1"></use>
        </mask>
        <g id="Mask"></g>
        <g id="z_atom/Icon-color/brand-black" mask="url(#mask-2)" fill="#2D2E33">
            <rect id="Rectangle-15" x="0" y="0" width="32" height="32"></rect>
        </g>
    </g>
</svg>