<svg id="f52be2b3-fe5f-43c0-95ff-22aca5e53d05" data-name="Layer 1" xmlns="http://www.w3.org/2000/svg" viewBox="0 0 28 30"><title>documentation</title><path id="fc197956-8720-4472-8160-f8c47e86f176" data-name="path-1" d="M25,19H11a1,1,0,0,0,0,2H25a1,1,0,0,0,0-2Zm3,5a.94.94,0,0,1-1,1H9a.94.94,0,0,1-1-1V4A.94.94,0,0,1,9,3H27a.94.94,0,0,1,1,1ZM28,1H8A2,2,0,0,0,6,3V25a2,2,0,0,0,2,2H28a2,2,0,0,0,2-2V3A2,2,0,0,0,28,1ZM25,13H11a1,1,0,0,0,0,2H25a1,1,0,0,0,0-2ZM11,9h8a.94.94,0,0,0,1-1,.94.94,0,0,0-1-1H11a.94.94,0,0,0-1,1A.94.94,0,0,0,11,9ZM4,5A2,2,0,0,0,2,7V29a2,2,0,0,0,2,2H26a2,2,0,0,0,2-2H4Z" transform="translate(-2 -1)" fill="#1f2555" fill-rule="evenodd"/></svg>