<?xml version="1.0" encoding="utf-8"?>
<!-- Generator: Adobe Illustrator 24.0.3, SVG Export Plug-In . SVG Version: 6.00 Build 0)  -->
<svg version="1.1" id="f52be2b3-fe5f-43c0-95ff-22aca5e53d05"
	 xmlns="http://www.w3.org/2000/svg" xmlns:xlink="http://www.w3.org/1999/xlink" x="0px" y="0px" viewBox="0 0 28 30"
	 enable-background="new 0 0 28 30" xml:space="preserve">
<path id="fc197956-8720-4472-8160-f8c47e86f176" fill-rule="evenodd" clip-rule="evenodd" fill="#1F2555" d="M23,18H9
	c-0.6,0-1,0.4-1,1s0.4,1,1,1h14c0.6,0,1-0.4,1-1S23.6,18,23,18z M26,23c0,0.5-0.4,1-0.9,1c0,0-0.1,0-0.1,0H7c-0.5,0-1-0.4-1-0.9
	c0,0,0-0.1,0-0.1V3c0-0.5,0.4-1,0.9-1C6.9,2,7,2,7,2h18c0.5,0,1,0.4,1,0.9c0,0,0,0.1,0,0.1V23z M26,0H6C4.9,0,4,0.9,4,2v22
	c0,1.1,0.9,2,2,2h20c1.1,0,2-0.9,2-2V2C28,0.9,27.1,0,26,0z M23,12H9c-0.6,0-1,0.4-1,1s0.4,1,1,1h14c0.6,0,1-0.4,1-1S23.6,12,23,12z
	 M9,8h8c0.5,0,1-0.4,1-0.9c0,0,0-0.1,0-0.1c0-0.5-0.4-1-0.9-1c0,0-0.1,0-0.1,0H9C8.5,6,8,6.4,8,6.9C8,6.9,8,7,8,7c0,0.5,0.4,1,0.9,1
	C8.9,8,9,8,9,8z M2,4C0.9,4,0,4.9,0,6v22c0,1.1,0.9,2,2,2h22c1.1,0,2-0.9,2-2H2V4z"/>
</svg>
