<svg id="a18b306d-d9fc-4ac8-a5e5-b4965ff1385c" data-name="Layer 1" xmlns="http://www.w3.org/2000/svg" viewBox="0 0 32 32"><title>integration</title><path id="baacb39b-3a30-4a40-a6c0-3e530aeef385" data-name="path-1" d="M30,12H8V10a2,2,0,0,1,2-2H28a2,2,0,0,1,2,2Zm0,16a2,2,0,0,1-2,2H10a2,2,0,0,1-2-2V14H30ZM28,6H10a4,4,0,0,0-4,4V28a4,4,0,0,0,4,4H28a4,4,0,0,0,4-4V10A4,4,0,0,0,28,6ZM4,2A2,2,0,0,0,2,4V6H4V8H2V22a2,2,0,0,0,2,2v2a4,4,0,0,1-4-4V4A4,4,0,0,1,4,0H22a4,4,0,0,1,4,4H24a2,2,0,0,0-2-2ZM24.5,21v2h-4v4h-2V23h-4V21h4V17h2v4Z" fill="#1f2555" fill-rule="evenodd"/></svg>