<?xml version="1.0" encoding="utf-8"?>
<!-- Generator: Adobe Illustrator 24.0.3, SVG Export Plug-In . SVG Version: 6.00 Build 0)  -->
<svg version="1.1" id="a18b306d-d9fc-4ac8-a5e5-b4965ff1385c"
	 xmlns="http://www.w3.org/2000/svg" xmlns:xlink="http://www.w3.org/1999/xlink" x="0px" y="0px" viewBox="0 0 32 32"
	 enable-background="new 0 0 32 32" xml:space="preserve">
<path id="baacb39b-3a30-4a40-a6c0-3e530aeef385" fill-rule="evenodd" clip-rule="evenodd" d="M30,12H8v-2c0-1.1,0.9-2,2-2h18
	c1.1,0,2,0.9,2,2V12z M30,28c0,1.1-0.9,2-2,2H10c-1.1,0-2-0.9-2-2V14h22V28z M28,6H10c-2.2,0-4,1.8-4,4v18c0,2.2,1.8,4,4,4h18
	c2.2,0,4-1.8,4-4V10C32,7.8,30.2,6,28,6z M4,2C2.9,2,2,2.9,2,4v2h2v2H2v14c0,1.1,0.9,2,2,2v2c-2.2,0-4-1.8-4-4V4c0-2.2,1.8-4,4-4h18
	c2.2,0,4,1.8,4,4h-2c0-1.1-0.9-2-2-2H4z M24.5,21v2h-4v4h-2v-4h-4v-2h4v-4h2v4H24.5z"/>
</svg>
