<svg id="a9281483-3b1b-47cb-8375-991e6cc8828e" data-name="Layer 1" xmlns="http://www.w3.org/2000/svg" viewBox="0 0 32 24.38"><title>java</title><path id="ae1bb180-9f37-4218-8eac-f42ae1d1fe91" data-name="path-1" d="M23.5,24.7a.91.91,0,0,1-.7-.3,1,1,0,0,1,0-1.4l6.8-6.8L22.8,9.4A1,1,0,1,1,24.2,8l7.5,7.5a1,1,0,0,1,0,1.4l-7.5,7.5A1.08,1.08,0,0,1,23.5,24.7Zm-15,0a.91.91,0,0,1-.7-.3L.3,16.9a1,1,0,0,1,0-1.4L7.8,8A1,1,0,1,1,9.2,9.4L2.4,16.2,9.2,23a1,1,0,0,1,0,1.4A.91.91,0,0,1,8.5,24.7Zm2.3,3.5a.6.6,0,0,1-.4-.1,1,1,0,0,1-.5-1.3L20.2,4.4a1,1,0,0,1,1.8.8L11.7,27.6A.87.87,0,0,1,10.8,28.2Z" transform="translate(0 -3.82)" fill="#1f2555" fill-rule="evenodd"/></svg>