<svg version="1.1" id="a9281483-3b1b-47cb-8375-991e6cc8828e"
	 xmlns="http://www.w3.org/2000/svg" xmlns:xlink="http://www.w3.org/1999/xlink" x="0px" y="0px" viewBox="0 0 32 24.4"
	 enable-background="new 0 0 32 24.4" xml:space="preserve">
<path id="ae1bb180-9f37-4218-8eac-f42ae1d1fe91" fill-rule="evenodd" clip-rule="evenodd" d="M23.5,20.9c-0.3,0-0.5-0.1-0.7-0.3
	c-0.4-0.4-0.4-1,0-1.4l6.8-6.8l-6.8-6.8c-0.4-0.3-0.5-1-0.2-1.4s1-0.5,1.4-0.2c0.1,0.1,0.1,0.1,0.2,0.2l7.5,7.5c0.4,0.4,0.4,1,0,1.4
	l-7.5,7.5C24,20.8,23.8,20.9,23.5,20.9z M8.5,20.9c-0.3,0-0.5-0.1-0.7-0.3l-7.5-7.5c-0.4-0.4-0.4-1,0-1.4l7.5-7.5
	c0.3-0.4,1-0.5,1.4-0.2c0.4,0.3,0.5,1,0.2,1.4C9.3,5.5,9.3,5.5,9.2,5.6l-6.8,6.8l6.8,6.8c0.4,0.4,0.4,1,0,1.4
	C9,20.8,8.8,20.9,8.5,20.9z M10.8,24.4c-0.1,0-0.3,0-0.4-0.1c-0.5-0.2-0.7-0.8-0.5-1.3L20.2,0.6c0.3-0.5,0.9-0.6,1.4-0.3
	C21.9,0.5,22.1,1,22,1.4L11.7,23.8C11.6,24.2,11.2,24.4,10.8,24.4z"/>
</svg>
