<svg id="a7eb3569-5661-4071-af89-bb50f89e5bb3" data-name="Layer 1" xmlns="http://www.w3.org/2000/svg" viewBox="0 0 32.02 28.73"><title>knowledgebase</title><path id="f7357d4c-7468-4355-a9ac-f4c54b41895f" data-name="path-1" d="M.9,2H8A.94.94,0,0,1,9,3V29a1,1,0,0,1-.9,1H.9A.92.92,0,0,1,0,29V3A.92.92,0,0,1,.9,2ZM2,28.1H7v-2H2ZM2,6H7V4H2ZM2,24H7V8H2ZM10.9,2H18a.94.94,0,0,1,1,1V29a1,1,0,0,1-.9,1H11a.92.92,0,0,1-.9-1V3A.81.81,0,0,1,10.9,2ZM12,28.1h5v-2H12ZM12,6h5V4H12Zm0,18h5V8H12ZM19.8,2.7l7-1.1a1,1,0,0,1,1.1.8L32,28.1a1,1,0,0,1-.8,1.1l-7,1.1a1,1,0,0,1-1.1-.8L19,3.9A1,1,0,0,1,19.8,2.7Zm5.1,25.6,4.9-.8-.3-2-4.9.8ZM21.5,6.5l4.9-.8-.3-2-4.9.8Zm2.8,17.8,4.9-.8L26.7,7.7l-4.9.8Z" transform="translate(0 -1.58)" fill="#1f2555" fill-rule="evenodd"/></svg>