<svg version="1.1" id="a7eb3569-5661-4071-af89-bb50f89e5bb3"
	 xmlns="http://www.w3.org/2000/svg" xmlns:xlink="http://www.w3.org/1999/xlink" x="0px" y="0px" viewBox="0 0 32 28.7"
	 enable-background="new 0 0 32 28.7" xml:space="preserve">
<path id="f7357d4c-7468-4355-a9ac-f4c54b41895f" fill-rule="evenodd" clip-rule="evenodd" d="M0.9,0.4H8c0.5,0,1,0.4,1,0.9
	c0,0,0,0.1,0,0.1v26c0,0.5-0.4,0.9-0.9,1H0.9C0.4,28.4,0,28,0,27.5c0,0,0,0,0-0.1v-26C0,0.9,0.3,0.5,0.9,0.4
	C0.9,0.4,0.9,0.4,0.9,0.4z M2,26.5h5v-2H2V26.5z M2,4.4h5v-2H2V4.4z M2,22.4h5v-16H2V22.4z M10.9,0.4H18c0.5,0,1,0.4,1,0.9
	c0,0,0,0.1,0,0.1v26c0,0.5-0.4,0.9-0.9,1H11c-0.5,0-0.9-0.4-0.9-0.9c0,0,0,0,0-0.1v-26c-0.1-0.4,0.2-0.9,0.6-1
	C10.8,0.4,10.8,0.4,10.9,0.4z M12,26.5h5v-2h-5V26.5z M12,4.4h5v-2h-5V4.4z M12,22.4h5v-16h-5V22.4z M19.8,1.1l7-1.1
	c0.5-0.1,1,0.3,1.1,0.8L32,26.5c0.1,0.5-0.3,1-0.8,1.1l-7,1.1c-0.5,0.1-1-0.3-1.1-0.8L19,2.3C18.9,1.8,19.2,1.2,19.8,1.1
	C19.8,1.1,19.8,1.1,19.8,1.1z M24.9,26.7l4.9-0.8l-0.3-2l-4.9,0.8L24.9,26.7z M21.5,4.9l4.9-0.8l-0.3-2l-4.9,0.8L21.5,4.9z
	 M24.3,22.7l4.9-0.8L26.7,6.1l-4.9,0.8L24.3,22.7z"/>
</svg>
