<?xml version="1.0" encoding="UTF-8"?>
<svg width="32px" height="32px" viewBox="0 0 32 32" version="1.1" xmlns="http://www.w3.org/2000/svg" xmlns:xlink="http://www.w3.org/1999/xlink">
    <!-- Generator: Sketch 49.3 (51167) - http://www.bohemiancoding.com/sketch -->
    <title>brand icons/community/brand-omni-channel</title>
    <desc>Created with Sketch.</desc>
    <defs>
        <path d="M21.896,28.312 C20.291,28.312 18.796,27.837 17.537,27.028 C19.173,25.246 20.185,22.882 20.204,20.281 C23.077,18.959 25.231,16.337 25.891,13.166 C28.34,14.562 30,17.193 30,20.208 C30,24.677 26.365,28.312 21.896,28.312 M2,20.208 C2,17.192 3.659,14.561 6.109,13.166 C6.769,16.337 8.923,18.959 11.796,20.281 C11.815,22.882 12.826,25.246 14.463,27.028 C13.203,27.837 11.709,28.312 10.104,28.312 C5.635,28.312 2,24.677 2,20.208 M16,3 C20.211,3 23.68,6.231 24.065,10.345 C23.366,10.191 22.641,10.104 21.896,10.104 C19.695,10.104 17.662,10.82 16,12.02 C14.338,10.82 12.305,10.104 10.104,10.104 C9.359,10.104 8.634,10.191 7.935,10.344 C8.32,6.231 11.788,3 16,3 M16,19.208 C15.274,19.208 14.574,19.104 13.904,18.924 C14.167,17.291 14.915,15.821 16,14.666 C17.085,15.821 17.834,17.291 18.095,18.924 C17.425,19.104 16.725,19.208 16,19.208 M8.008,12.389 C8.678,12.209 9.378,12.104 10.104,12.104 C11.709,12.104 13.204,12.579 14.463,13.388 C13.254,14.704 12.382,16.333 12.005,18.147 C9.911,16.954 8.404,14.857 8.008,12.389 M16,25.75 C14.798,24.473 14.003,22.812 13.831,20.968 C14.531,21.122 15.254,21.208 16,21.208 C16.745,21.208 17.469,21.122 18.168,20.968 C17.997,22.812 17.201,24.473 16,25.75 M19.995,18.147 C19.617,16.333 18.745,14.704 17.537,13.388 C18.796,12.579 20.291,12.104 21.896,12.104 C22.623,12.104 23.323,12.209 23.992,12.389 C23.596,14.857 22.088,16.954 19.995,18.147 M26.1,11.032 C26.06,5.495 21.546,1 16,1 C10.454,1 5.94,5.494 5.9,11.032 C2.423,12.631 0,16.138 0,20.208 C0,25.78 4.532,30.312 10.104,30.312 C12.305,30.312 14.338,29.596 16,28.396 C17.662,29.596 19.695,30.312 21.896,30.312 C27.467,30.312 32,25.78 32,20.208 C32,16.138 29.576,12.631 26.1,11.032" id="path-1"></path>
    </defs>
    <g id="brand-icons/community/brand-omni-channel" stroke="none" stroke-width="1" fill="none" fill-rule="evenodd">
        <mask id="mask-2" fill="white">
            <use xlink:href="#path-1"></use>
        </mask>
        <g id="Mask"></g>
        <g id="z_atom/Icon-color/brand-black" mask="url(#mask-2)" fill="#2D2E33">
            <rect id="Rectangle-15" x="0" y="0" width="32" height="32"></rect>
        </g>
    </g>
</svg>