<svg version="1.1" id="b6fe91f3-058b-4377-bb05-aa359927c086"
	 xmlns="http://www.w3.org/2000/svg" xmlns:xlink="http://www.w3.org/1999/xlink" x="0px" y="0px" viewBox="0 0 32 29.3"
	 enable-background="new 0 0 32 29.3" xml:space="preserve">
<path id="b1088d19-707a-4f19-9850-72fc58eb0705" fill="#1f2555" fill-rule="evenodd" clip-rule="evenodd" d="M21.9,27.3c-1.6,0-3.1-0.5-4.4-1.3
	c1.7-1.8,2.6-4.2,2.7-6.7c2.9-1.3,5-4,5.7-7.1c3.9,2.2,5.3,7.1,3.1,11C27.5,25.7,24.8,27.3,21.9,27.3 M2,19.2c0-2.9,1.6-5.6,4.1-7
	c0.7,3.1,2.8,5.8,5.7,7.1c0,2.5,0.9,4.9,2.7,6.7c-1.3,0.8-2.8,1.3-4.4,1.3C5.6,27.3,2,23.7,2,19.2 M16,1.9c4.2,0,7.7,3.2,8.1,7.3
	C23.4,9,22.6,9,21.9,9c-2.1,0-4.2,0.7-5.9,1.9C14.3,9.7,12.2,9,10.1,9C9.4,9,8.6,9.1,7.9,9.2C8.4,5.1,11.8,1.9,16,1.9 M16,18.2
	c-0.7,0-1.4-0.1-2.1-0.3c0.3-1.6,1-3.1,2.1-4.3c1.1,1.2,1.8,2.7,2.1,4.3C17.4,18,16.7,18.1,16,18.2 M8,11.3c0.7-0.2,1.4-0.3,2.1-0.3
	c1.6,0,3.1,0.5,4.4,1.3c-1.3,1.3-2.1,3-2.5,4.8C9.9,15.9,8.4,13.7,8,11.3 M16,24.7c-1.2-1.3-2-3-2.2-4.8c0.7,0.2,1.5,0.2,2.2,0.2
	c0.7,0,1.5-0.1,2.2-0.2C18,21.7,17.2,23.4,16,24.7 M20,17.1c-0.4-1.8-1.2-3.5-2.5-4.8c1.3-0.8,2.8-1.3,4.4-1.3
	c0.7,0,1.4,0.1,2.1,0.3C23.6,13.7,22.1,15.9,20,17.1 M26.1,10c0-5.6-4.5-10.1-10.1-10.1C10.4-0.1,5.9,4.4,5.9,10
	c-5.1,2.3-7.3,8.3-5,13.4s8.3,7.3,13.4,5c0.6-0.3,1.2-0.6,1.7-1c4.5,3.3,10.8,2.3,14.1-2.3s2.3-10.8-2.3-14.1
	C27.3,10.6,26.7,10.3,26.1,10"/>
</svg>
