<svg id="b6fe91f3-058b-4377-bb05-aa359927c086" data-name="Layer 1" xmlns="http://www.w3.org/2000/svg" viewBox="0 0 32 29.3"><title>omni-channel</title><path id="b1088d19-707a-4f19-9850-72fc58eb0705" data-name="path-1" d="M21.9,28.7a8.39,8.39,0,0,1-4.4-1.3,10.6,10.6,0,0,0,2.7-6.7,10.06,10.06,0,0,0,5.7-7.1,8.07,8.07,0,0,1-4,15.1M2,20.6a8.16,8.16,0,0,1,4.1-7,10.06,10.06,0,0,0,5.7,7.1,9.45,9.45,0,0,0,2.7,6.7,8.39,8.39,0,0,1-4.4,1.3A8.13,8.13,0,0,1,2,20.6M16,3.3a8.14,8.14,0,0,1,8.1,7.3,7.84,7.84,0,0,0-2.2-.2A10.13,10.13,0,0,0,16,12.3a10.13,10.13,0,0,0-5.9-1.9,16.35,16.35,0,0,0-2.2.2A8.22,8.22,0,0,1,16,3.3m0,16.3a7.61,7.61,0,0,1-2.1-.3A8.7,8.7,0,0,1,16,15a8.31,8.31,0,0,1,2.1,4.3,15.17,15.17,0,0,1-2.1.3M8,12.7a7.61,7.61,0,0,1,2.1-.3,8.39,8.39,0,0,1,4.4,1.3A10.08,10.08,0,0,0,12,18.5a8.14,8.14,0,0,1-4-5.8m8,13.4a8.23,8.23,0,0,1-2.2-4.8,7.84,7.84,0,0,0,2.2.2,16.35,16.35,0,0,0,2.2-.2A8.23,8.23,0,0,1,16,26.1m4-7.6a10.12,10.12,0,0,0-2.5-4.8,8.39,8.39,0,0,1,4.4-1.3,7.61,7.61,0,0,1,2.1.3,8.14,8.14,0,0,1-4,5.8m6.1-7.1a10.1,10.1,0,0,0-20.2,0A10.11,10.11,0,1,0,16,28.8,10.11,10.11,0,1,0,26.1,11.4" transform="translate(0 -1.4)" fill="#1f2555" fill-rule="evenodd"/></svg>