<svg id="a7257b3a-4969-4f9b-a5e2-bb6898319a5d" data-name="Layer 1" xmlns="http://www.w3.org/2000/svg" viewBox="0 0 32 32"><title>partners</title><path id="b6fd276d-aa34-4190-b43e-dbd6ff1318cb" data-name="Page-1" d="M25.4,16.9a9.75,9.75,0,0,0,3.4-3.3A8.14,8.14,0,0,0,30,9a8.32,8.32,0,0,0-2.7-6.3A8.32,8.32,0,0,0,21,0a8.31,8.31,0,0,0-4.4,1.2,8.66,8.66,0,0,0-3.2,3.1,1.69,1.69,0,0,0,.2.5c.2.5.3.8.4,1a2.18,2.18,0,0,0,.4.5c.2.1.3.1.5-.1a5,5,0,0,0,.4-1.3A6.88,6.88,0,0,1,21,2a6.51,6.51,0,0,1,4.9,2.1A6.51,6.51,0,0,1,28,9a6.88,6.88,0,0,1-1.7,4.6A6.56,6.56,0,0,1,22,15.9a6.16,6.16,0,0,1-.6,2.6c5.8,1,8.6,3.5,8.6,7.4h2q0-6.6-6.6-9Zm-9.5,3A6.66,6.66,0,0,0,18,15a6.51,6.51,0,0,0-2.1-4.9A6.51,6.51,0,0,0,11,8a6.51,6.51,0,0,0-4.9,2.1A6.51,6.51,0,0,0,4,15a6.51,6.51,0,0,0,2.1,4.9A6.66,6.66,0,0,0,11,22a6.51,6.51,0,0,0,4.9-2.1ZM20,32a7,7,0,0,0-2.3-5.3A9.81,9.81,0,0,0,11,24.5c-3.1,0-5.4.7-6.8,2.1A7,7,0,0,0,2,32H0a9.06,9.06,0,0,1,1.8-5.5,10.68,10.68,0,0,1,4.9-3.6,9.75,9.75,0,0,1-3.4-3.3A8.21,8.21,0,0,1,2,15,8.32,8.32,0,0,1,4.7,8.7,8.32,8.32,0,0,1,11,6a8.32,8.32,0,0,1,6.3,2.7A8.63,8.63,0,0,1,20,15a8.81,8.81,0,0,1-4.6,7.9C19.8,24.5,22,27.6,22,32Z" fill="#1f2555" fill-rule="evenodd"/></svg>