<svg version="1.1" id="a7257b3a-4969-4f9b-a5e2-bb6898319a5d"
	 xmlns="http://www.w3.org/2000/svg" xmlns:xlink="http://www.w3.org/1999/xlink" x="0px" y="0px" viewBox="0 0 32 32"
	 enable-background="new 0 0 32 32" xml:space="preserve">
<path id="b6fd276d-aa34-4190-b43e-dbd6ff1318cb" fill-rule="evenodd" clip-rule="evenodd" d="M25.4,16.9c1.4-0.8,2.6-1.9,3.4-3.3
	c0.8-1.4,1.3-3,1.2-4.6c0-2.4-0.9-4.7-2.7-6.3C25.7,0.9,23.4,0,21,0c-1.5,0-3.1,0.4-4.4,1.2c-1.3,0.7-2.4,1.8-3.2,3.1
	c0,0.2,0.1,0.3,0.2,0.5c0.2,0.5,0.3,0.8,0.4,1c0.1,0.2,0.2,0.4,0.4,0.5c0.2,0.1,0.3,0.1,0.5-0.1c0.2-0.4,0.3-0.9,0.4-1.3
	C16.6,3.1,18.7,2,21,2c1.9,0,3.6,0.7,4.9,2.1C27.3,5.4,28,7.1,28,9c0,1.7-0.6,3.3-1.7,4.6c-1.1,1.3-2.6,2.1-4.3,2.3
	c0,0.9-0.2,1.8-0.6,2.6c5.8,1,8.6,3.5,8.6,7.4h2C32,21.5,29.8,18.5,25.4,16.9z M15.9,19.9c1.4-1.3,2.1-3,2.1-4.9
	c0-1.9-0.7-3.6-2.1-4.9C14.6,8.7,12.9,8,11,8c-1.9,0-3.6,0.7-4.9,2.1C4.7,11.4,4,13.1,4,15c0,1.9,0.7,3.6,2.1,4.9
	c1.3,1.4,3,2.1,4.9,2.1C12.9,22,14.6,21.3,15.9,19.9z M20,32c0-2-0.8-3.9-2.3-5.3c-1.9-1.5-4.3-2.3-6.7-2.2c-3.1,0-5.4,0.7-6.8,2.1
	C2.7,28,1.9,30,2,32H0c0-2,0.6-3.9,1.8-5.5c1.3-1.6,3-2.9,4.9-3.6c-1.4-0.8-2.6-1.9-3.4-3.3C2.4,18.2,2,16.6,2,15
	c0-2.4,0.9-4.7,2.7-6.3C6.3,6.9,8.6,6,11,6c2.4,0,4.7,0.9,6.3,2.7C19,10.3,20,12.6,20,15c0.1,3.3-1.7,6.3-4.6,7.9
	c4.4,1.6,6.6,4.7,6.6,9.1H20z"/>
</svg>
