<?xml version="1.0" encoding="UTF-8"?>
<svg width="32px" height="32px" viewBox="0 0 32 32" version="1.1" xmlns="http://www.w3.org/2000/svg" xmlns:xlink="http://www.w3.org/1999/xlink">
    <!-- Generator: Sketch 49.3 (51167) - http://www.bohemiancoding.com/sketch -->
    <title>brand icons/community/brand-product-delivery</title>
    <desc>Created with Sketch.</desc>
    <defs>
        <path d="M15.0142,19.3096 L15.0142,29.3816 L4.9712,24.2886 L4.9712,14.2146 L15.0142,19.3096 Z M27.0292,14.2146 L27.0292,24.2886 L16.9862,29.3816 L16.9862,19.3096 L27.0292,14.2146 Z M28.9722,25.0466 C28.9612,25.1186 28.9552,25.1896 28.9302,25.2566 C28.9082,25.3186 28.8702,25.3696 28.8372,25.4236 C28.8042,25.4776 28.7772,25.5326 28.7332,25.5806 C28.6852,25.6336 28.6252,25.6706 28.5672,25.7116 C28.5282,25.7396 28.4992,25.7786 28.4552,25.8006 L16.4412,31.8946 C16.4322,31.8986 16.4222,31.8966 16.4132,31.9016 C16.2862,31.9606 16.1492,31.9996 15.9992,31.9996 C15.8512,31.9996 15.7132,31.9606 15.5862,31.9016 C15.5772,31.8966 15.5682,31.8986 15.5592,31.8946 L3.5442,25.8006 C3.5002,25.7786 3.4722,25.7396 3.4332,25.7116 C3.3742,25.6706 3.3152,25.6336 3.2672,25.5806 C3.2232,25.5326 3.1962,25.4776 3.1622,25.4236 C3.1292,25.3696 3.0922,25.3186 3.0702,25.2566 C3.0442,25.1896 3.0382,25.1186 3.0282,25.0466 C3.0212,24.9986 2.9992,24.9556 2.9992,24.9066 L2.9992,12.5966 C2.9992,12.5836 3.0062,12.5736 3.0072,12.5606 C3.0112,12.4556 3.0332,12.3536 3.0682,12.2566 C3.0782,12.2266 3.0882,12.1996 3.1012,12.1706 C3.1502,12.0686 3.2082,11.9716 3.2882,11.8896 C3.2892,11.8896 3.2902,11.8886 3.2902,11.8876 C3.3532,11.8256 3.4232,11.7706 3.5012,11.7256 L12.2212,6.7376 C12.6952,6.4656 13.2962,6.6356 13.5632,7.1176 C13.8302,7.5986 13.6622,8.2076 13.1892,8.4796 L6.0842,12.5436 L15.9992,17.5736 L25.9162,12.5426 L18.9292,8.5396 C18.4542,8.2686 18.2872,7.6586 18.5552,7.1766 C18.8242,6.6976 19.4252,6.5266 19.8982,6.7976 L28.4982,11.7256 C28.5772,11.7706 28.6492,11.8266 28.7102,11.8886 C28.7102,11.8896 28.7112,11.8896 28.7112,11.8896 C28.7912,11.9706 28.8502,12.0676 28.8992,12.1706 C28.9112,12.1996 28.9212,12.2266 28.9322,12.2566 C28.9672,12.3536 28.9892,12.4546 28.9932,12.5596 C28.9932,12.5726 28.9992,12.5836 28.9992,12.5966 L28.9992,24.9066 C28.9992,24.9556 28.9792,24.9986 28.9722,25.0466 Z M13.2495,5.2051 C12.8645,5.5961 12.2405,5.5961 11.8555,5.2051 C11.4715,4.8141 11.4715,4.1821 11.8555,3.7911 L15.3005,0.2971 C15.3925,0.2031 15.5005,0.1281 15.6225,0.0771 C15.7175,0.0371 15.8215,0.0231 15.9265,0.0151 C15.9515,0.0131 15.9745,0.0001 15.9995,0.0001 L16.0005,0.0001 C16.1335,0.0001 16.2615,0.0271 16.3815,0.0781 C16.4745,0.1181 16.5525,0.1811 16.6285,0.2461 C16.6495,0.2641 16.6775,0.2721 16.6975,0.2931 L20.1445,3.7911 C20.5285,4.1821 20.5285,4.8141 20.1445,5.2051 C19.9515,5.4001 19.6995,5.4981 19.4465,5.4981 C19.1945,5.4981 18.9425,5.4001 18.7505,5.2051 L16.9855,3.4131 L16.9855,11.0881 C16.9855,11.6411 16.5445,12.0881 15.9995,12.0881 C15.4555,12.0881 15.0145,11.6411 15.0145,11.0881 L15.0145,3.4151 L13.2495,5.2051 Z" id="path-1"></path>
    </defs>
    <g id="brand-icons/community/brand-product-delivery" stroke="none" stroke-width="1" fill="none" fill-rule="evenodd">
        <mask id="mask-2" fill="white">
            <use xlink:href="#path-1"></use>
        </mask>
        <g id="Mask"></g>
        <g id="z_atom/Icon-color/brand-black" mask="url(#mask-2)" fill="#2D2E33">
            <rect id="Rectangle-15" x="0" y="0" width="32" height="32"></rect>
        </g>
    </g>
</svg>