<svg id="ae2566ae-5d7d-417b-9087-42cd4bc476fb" data-name="Layer 1" xmlns="http://www.w3.org/2000/svg" viewBox="0 0 25.9 32"><title>product-delivery</title><path id="b129f3b0-7e6c-4994-9cad-16952c73f3f3" data-name="path-1" d="M15,19.3V29.4L5,24.3V14.2Zm12-5.1V24.3L17,29.4V19.3ZM29,25v.2c0,.1-.1.1-.1.2s-.1.1-.1.2-.1.1-.2.1l-.1.1-12,6.1h0a1.09,1.09,0,0,1-.5.1.6.6,0,0,1-.4-.1h0l-12-6.1-.1-.1c-.1,0-.1-.1-.2-.1a.35.35,0,0,1-.1-.2c0-.1-.1-.1-.1-.2V12.6h0a.37.37,0,0,1,.1-.3v-.1c0-.1.1-.2.2-.3h0l.2-.2,8.7-5a.88.88,0,0,1,1.3.4,1,1,0,0,1-.4,1.4L6.1,12.6l9.9,5,9.9-5-7-4a1.11,1.11,0,0,1-.4-1.4.92.92,0,0,1,1.3-.4l8.6,4.9a.22.22,0,0,1,.2.2h0c.1.1.1.2.2.3v.1c0,.1.1.2.1.3h0V24.9ZM13.3,5.2a1,1,0,0,1-1.4-1.4L15.3.3c.1-.1.2-.2.3-.2a.37.37,0,0,1,.3-.1H16a.6.6,0,0,1,.4.1.22.22,0,0,1,.2.2h.1l3.4,3.5a1,1,0,0,1,0,1.4,1,1,0,0,1-1.4,0L17,3.4v7.7a.94.94,0,0,1-1,1,1,1,0,0,1-1-1V3.4Z" transform="translate(-3.1)" fill="#1f2555" fill-rule="evenodd"/></svg>