<svg version="1.1" id="ae2566ae-5d7d-417b-9087-42cd4bc476fb"
	 xmlns="http://www.w3.org/2000/svg" xmlns:xlink="http://www.w3.org/1999/xlink" x="0px" y="0px" viewBox="0 0 25.9 32"
	 enable-background="new 0 0 25.9 32" xml:space="preserve">
<path id="b129f3b0-7e6c-4994-9cad-16952c73f3f3" fill="#1f2555" fill-rule="evenodd" clip-rule="evenodd" d="M11.9,19.3v10.1l-10-5.1V14.2
	L11.9,19.3z M23.9,14.2v10.1l-10,5.1V19.3L23.9,14.2z M25.9,25v0.2c0,0.1-0.1,0.1-0.1,0.2s-0.1,0.1-0.1,0.2s-0.1,0.1-0.2,0.1
	l-0.1,0.1l-12,6.1l0,0C13.2,32,13.1,32,12.9,32c-0.1,0-0.3,0-0.4-0.1l0,0l-12-6.1l-0.1-0.1c-0.1,0-0.1-0.1-0.2-0.1
	c-0.1-0.1-0.1-0.1-0.1-0.2c0-0.1-0.1-0.1-0.1-0.2V12.6l0,0c0-0.1,0-0.2,0.1-0.3v-0.1c0-0.1,0.1-0.2,0.2-0.3l0,0l0.2-0.2l8.7-5
	c0.4-0.3,1-0.2,1.2,0.2c0,0,0.1,0.1,0.1,0.2c0.3,0.5,0.1,1.1-0.3,1.4c0,0,0,0-0.1,0L3,12.6l9.9,5l9.9-5l-7-4
	c-0.5-0.3-0.6-0.9-0.4-1.4c0.2-0.5,0.8-0.7,1.2-0.4c0,0,0.1,0,0.1,0l8.6,4.9c0.1,0,0.2,0.1,0.2,0.2l0,0c0.1,0.1,0.1,0.2,0.2,0.3v0.1
	c0,0.1,0.1,0.2,0.1,0.3l0,0v12.3L25.9,25z M10.2,5.2C9.8,5.5,9.1,5.4,8.8,5c-0.3-0.4-0.3-0.8,0-1.2l3.4-3.5c0.1-0.1,0.2-0.2,0.3-0.2
	C12.6,0,12.7,0,12.8,0h0.1c0.1,0,0.3,0,0.4,0.1c0.1,0,0.2,0.1,0.2,0.2h0.1L17,3.8c0.4,0.4,0.4,1,0,1.4c-0.4,0.4-1,0.4-1.4,0
	l-1.7-1.8v7.7c0,0.5-0.4,1-0.9,1c0,0-0.1,0-0.1,0c-0.6,0-1-0.4-1-1V3.4L10.2,5.2z"/>
</svg>
