<svg id="e7189d9a-04a8-4745-b9e5-0440f4c88ef8" data-name="Layer 1" xmlns="http://www.w3.org/2000/svg" viewBox="0 0 26 32"><title>reporting</title><path id="a552a876-8568-4441-8cf3-54ea0344e8da" data-name="path-1" d="M20.9.4l3.4,4.2A1,1,0,0,1,24.1,6a1.42,1.42,0,0,1-.6.2.91.91,0,0,1-.8-.4L20.9,3.5A17.12,17.12,0,0,1,4,18.2a1,1,0,0,1,0-2A15.18,15.18,0,0,0,19,3.3L16.6,5.2a1,1,0,0,1-1.2-1.6L19.6.2a.1.1,0,0,0,.1-.1c.1,0,.1-.1.2-.1h.5c.1,0,.1,0,.2.1a.1.1,0,0,1,.1.1.22.22,0,0,1,.2.2ZM4,24.3a.94.94,0,0,1,1,1V31a.94.94,0,0,1-1,1,.94.94,0,0,1-1-1V25.3A1,1,0,0,1,4,24.3Zm8-4.8a.94.94,0,0,1,1,1V31a1,1,0,0,1-2,0V20.5A.94.94,0,0,1,12,19.5ZM20,16a.94.94,0,0,1,1,1V31a1,1,0,0,1-2,0V17A.94.94,0,0,1,20,16Zm8-5.2a.94.94,0,0,1,1,1V31a1,1,0,0,1-2,0V11.8A1,1,0,0,1,28,10.8Z" transform="translate(-3)" fill="#1f2555" fill-rule="evenodd"/></svg>