<svg version="1.1" id="ecb1e14f-a684-46df-b307-759449643ad4"
	 xmlns="http://www.w3.org/2000/svg" xmlns:xlink="http://www.w3.org/1999/xlink" x="0px" y="0px" viewBox="0 0 32 32"
	 enable-background="new 0 0 32 32" xml:space="preserve">
<path id="ba6f92af-5983-40fc-9a23-0988cd0fccce" fill="#1f2555" fill-rule="evenodd" clip-rule="evenodd" d="M16,27v-1h2v1h6v-3h3V8h-3V5H8v3H5v6h1
	v2H5v8h3v3H16z M24,0h8v8h-3v16h3v8h-8v-3H8v3H0v-8h3V8H0V0h8v3h16V0z M26,5v1h4V2h-4V5z M2,2v4h4V2H2z M26,29v1h4v-4h-4V29z M2,26
	v4h4v-4H2z M8,14h2v2H8V14z M12,14h2v2h-2V14z M16,14h2v2h-2V14z M16,18h2v2h-2V18z M16,22h2v2h-2V22z"/>
</svg>
