<svg id="ecf01ace-977b-4b5d-82fe-f43ce8c20611" data-name="Layer 1" xmlns="http://www.w3.org/2000/svg" viewBox="0 0 32 32"><title>support</title><path id="ea3dd079-983d-445b-8962-a018301aca71" data-name="path-1" d="M23.7,18a6.82,6.82,0,0,0,0-4h6.1a13.55,13.55,0,0,1,.2,2,13.55,13.55,0,0,1-.2,2ZM20,29.4V22.9A8.06,8.06,0,0,0,22.9,20h6.5A13.87,13.87,0,0,1,20,29.4Zm-2,.4a13.55,13.55,0,0,1-2,.2,13.55,13.55,0,0,1-2-.2V23.7a6.82,6.82,0,0,0,4,0Zm-6-.4A13.87,13.87,0,0,1,2.6,20H9.1A8.06,8.06,0,0,0,12,22.9ZM2,16a13.55,13.55,0,0,1,.2-2H8.3a6.82,6.82,0,0,0,0,4H2.2A13.55,13.55,0,0,1,2,16ZM12,2.6V9.1A8.06,8.06,0,0,0,9.1,12H2.6A13.87,13.87,0,0,1,12,2.6Zm2-.4A13.55,13.55,0,0,1,16,2a13.55,13.55,0,0,1,2,.2V8.3a6.82,6.82,0,0,0-4,0ZM22,16a6,6,0,1,1-6-6A6,6,0,0,1,22,16ZM20,2.6A13.87,13.87,0,0,1,29.4,12H22.9A8.06,8.06,0,0,0,20,9.1ZM16,0A16,16,0,1,0,32,16,16,16,0,0,0,16,0Z" fill="#1f2555" fill-rule="evenodd"/></svg>