<svg version="1.1" id="a949b6e4-396e-4bfb-b5ca-35eafaf5d28e"
	 xmlns="http://www.w3.org/2000/svg" xmlns:xlink="http://www.w3.org/1999/xlink" x="0px" y="0px" viewBox="0 0 32 32"
	 enable-background="new 0 0 32 32" xml:space="preserve">
<path id="fdd761ca-5aba-4d22-8516-c9896c37d568" fill="#1f2555" fill-rule="evenodd" clip-rule="evenodd" d="M10.5,4.7c0.5-3,3.3-5.1,6.4-4.6
	c2.4,0.4,4.2,2.2,4.6,4.6H29c1.7,0,3,1.3,3,3l0,0V29c0,1.7-1.3,3-3,3l0,0H3c-1.7,0-3-1.3-3-3l0,0V7.7c0-1.7,1.3-3,3-3H10.5z
	 M10.5,6.7H3c-0.5,0-1,0.4-1,0.9c0,0,0,0.1,0,0.1V29c0,0.5,0.4,1,0.9,1c0,0,0.1,0,0.1,0h26c0.5,0,1-0.4,1-0.9c0,0,0-0.1,0-0.1V7.7
	c0-0.5-0.4-1-0.9-1c0,0-0.1,0-0.1,0h-7.5v2c0,0.5-0.4,1-0.9,1c0,0-0.1,0-0.1,0h-9.1c-0.5,0-1-0.4-1-0.9c0,0,0-0.1,0-0.1v-2H10.5z
	 M12.5,7.7h7.1V5.5c0-1.9-1.5-3.5-3.5-3.5c0,0,0,0,0,0c-1.9,0-3.5,1.6-3.5,3.5v2.2H12.5z M17.6,27.1H5.8c-0.5,0-1-0.4-1-0.9
	c0,0,0-0.1,0-0.1v-1.3c0-1,0.6-1.9,1.5-2.4l2.1-1.3c-0.7-0.7-1.1-1.7-1.1-2.7l-0.1-2.6c0-2.3,1.9-4.2,4.2-4.2H12
	c2.3,0,4.2,1.8,4.2,4.1c0,0,0,0,0,0l-0.1,2.7c0,1-0.4,2-1.1,2.7l2.1,1.3c0.9,0.5,1.5,1.4,1.5,2.4v1.3C18.6,26.6,18.1,27.1,17.6,27.1
	z M6.8,25.1h9.7v-0.3c0-0.3-0.2-0.5-0.4-0.6c-0.1,0-0.1,0-0.1-0.1l0,0L12.7,22c-0.3-0.2-0.5-0.5-0.5-0.9c0-0.4,0.2-0.7,0.6-0.9
	c0.8-0.4,1.3-1.1,1.3-2l0.1-2.6c-0.1-1.2-1-2.1-2.2-2.1h-0.7c-1.2,0-2.1,0.9-2.2,2.1l0.1,2.6c0,0.9,0.5,1.6,1.3,2
	c0.5,0.3,0.6,1,0.3,1.5c-0.1,0.1-0.2,0.3-0.3,0.3l-3.4,2.1c-0.1,0-0.1,0-0.1,0.1l0,0c-0.2,0.1-0.4,0.3-0.4,0.6v0.3L6.8,25.1z
	 M24.3,15.9h-2.7c-0.6,0-1-0.4-1-1s0.4-1,1-1h2.7c0.5,0,1,0.4,1,0.9c0,0,0,0.1,0,0.1C25.3,15.4,24.8,15.9,24.3,15.9z M27.3,20.3
	h-5.7c-0.6,0-1-0.4-1-1s0.4-1,1-1h5.7c0.5,0,1,0.4,1,0.9c0,0,0,0.1,0,0.1C28.3,19.9,27.9,20.3,27.3,20.3z M27.3,24.7h-5.7
	c-0.6,0-1-0.4-1-1s0.4-1,1-1h5.7c0.5,0,1,0.4,1,0.9c0,0,0,0.1,0,0.1C28.3,24.3,27.9,24.7,27.3,24.7C27.3,24.7,27.3,24.7,27.3,24.7z"
	/>
</svg>
