<svg id="a949b6e4-396e-4bfb-b5ca-35eafaf5d28e" data-name="Layer 1" xmlns="http://www.w3.org/2000/svg" viewBox="0 0 32 32"><title>system-admin</title><path id="fdd761ca-5aba-4d22-8516-c9896c37d568" data-name="path-1" d="M10.5,4.7a5.57,5.57,0,0,1,11,0H29a3,3,0,0,1,3,3V29a3,3,0,0,1-3,3H3a3,3,0,0,1-3-3V7.7a3,3,0,0,1,3-3Zm0,2H3a.94.94,0,0,0-1,1V29a.94.94,0,0,0,1,1H29a.94.94,0,0,0,1-1V7.7a.94.94,0,0,0-1-1H21.5v2a.94.94,0,0,1-1,1H11.4a.94.94,0,0,1-1-1v-2Zm2,1h7.1V5.5A3.48,3.48,0,0,0,16.1,2a3.54,3.54,0,0,0-3.5,3.5V7.7Zm5.1,19.4H5.8a.94.94,0,0,1-1-1V24.8a2.79,2.79,0,0,1,1.5-2.4l2.1-1.3a3.86,3.86,0,0,1-1.1-2.7l-.1-2.6a4.23,4.23,0,0,1,4.2-4.2H12a4.14,4.14,0,0,1,4.2,4.1l-.1,2.7A3.86,3.86,0,0,1,15,21.1l2.1,1.3a2.79,2.79,0,0,1,1.5,2.4v1.3A1.08,1.08,0,0,1,17.6,27.1Zm-10.8-2h9.7v-.3a.68.68,0,0,0-.4-.6.1.1,0,0,1-.1-.1L12.7,22a1.05,1.05,0,0,1-.5-.9,1,1,0,0,1,.6-.9,2.3,2.3,0,0,0,1.3-2l.1-2.6A2.2,2.2,0,0,0,12,13.5h-.7a2.2,2.2,0,0,0-2.2,2.1l.1,2.6a2.19,2.19,0,0,0,1.3,2,1.06,1.06,0,0,1,0,1.8L7.1,24.1a.1.1,0,0,0-.1.1.68.68,0,0,0-.4.6v.3Zm17.5-9.2H21.6a1,1,0,0,1,0-2h2.7a.94.94,0,0,1,1,1A1.08,1.08,0,0,1,24.3,15.9Zm3,4.4H21.6a1,1,0,0,1,0-2h5.7a.94.94,0,0,1,1,1A1,1,0,0,1,27.3,20.3Zm0,4.4H21.6a1,1,0,0,1,0-2h5.7a.94.94,0,0,1,1,1A1,1,0,0,1,27.3,24.7Z" fill="#1f2555" fill-rule="evenodd"/></svg>