<?xml version="1.0" encoding="UTF-8"?>
<svg width="32px" height="32px" viewBox="0 0 32 32" version="1.1" xmlns="http://www.w3.org/2000/svg" xmlns:xlink="http://www.w3.org/1999/xlink">
    <!-- Generator: Sketch 49.3 (51167) - http://www.bohemiancoding.com/sketch -->
    <title>brand icons/community/brand-system-admin</title>
    <desc>Created with Sketch.</desc>
    <defs>
        <path d="M10.5277243,4.7431 C10.9141248,2.06416941 13.2205812,0.0003 15.9998,0.0003 C18.7790188,0.0003 21.0863061,2.06416941 21.4728536,4.7431 L29.0049,4.7431 C30.6559,4.7431 31.9999,6.0891 31.9999,7.7431 L31.9999,29.0001 C31.9999,30.6541 30.6559,32.0001 29.0049,32.0001 L2.9949,32.0001 C1.3439,32.0001 -0.0001,30.6541 -0.0001,29.0001 L-0.0001,7.7431 C-0.0001,6.0891 1.3439,4.7431 2.9949,4.7431 L10.5277243,4.7431 Z M10.4708,6.7431 L2.9949,6.7431 C2.4439,6.7431 1.9969,7.1911 1.9969,7.7431 L1.9969,29.0001 C1.9969,29.5521 2.4439,30.0001 2.9949,30.0001 L29.0049,30.0001 C29.5559,30.0001 30.0029,29.5521 30.0029,29.0001 L30.0029,7.7431 C30.0029,7.1911 29.5559,6.7431 29.0049,6.7431 L21.5298,6.7431 L21.5298,8.7433 C21.5298,9.2963 21.0818,9.7433 20.5308,9.7433 L11.4688,9.7433 C10.9178,9.7433 10.4708,9.2963 10.4708,8.7433 L10.4708,6.7431 Z M12.4678,7.7433 L19.5318,7.7433 L19.5318,5.5393 C19.5318,3.5883 17.9478,2.0003 15.9998,2.0003 C14.0518,2.0003 12.4678,3.5883 12.4678,5.5393 L12.4678,7.7433 Z M17.5615,27.0753 L5.8175,27.0753 C5.2655,27.0753 4.8195,26.6283 4.8195,26.0753 L4.8195,24.7363 C4.8195,23.7293 5.3945,22.8003 6.2915,22.3493 L8.3885,21.0593 C7.7205,20.3153 7.3175,19.3543 7.2785,18.3293 L7.1775,15.6933 C7.1765,13.3843 9.0445,11.5363 11.3405,11.5363 L12.0385,11.5363 C14.3345,11.5363 16.2025,13.3843 16.2025,15.6553 L16.1015,18.3293 C16.0615,19.3553 15.6585,20.3173 14.9875,21.0623 L17.0865,22.3483 C17.9835,22.7993 18.5595,23.7293 18.5595,24.7373 L18.5595,26.0753 C18.5595,26.6283 18.1125,27.0753 17.5615,27.0753 Z M6.8155,25.0753 L16.5635,25.0753 L16.5635,24.7373 C16.5635,24.4793 16.4125,24.2413 16.1785,24.1313 C16.1465,24.1153 16.1155,24.0983 16.0845,24.0793 L12.7145,22.0133 C12.4055,21.8243 12.2225,21.4813 12.2385,21.1183 C12.2535,20.7553 12.4645,20.4293 12.7895,20.2663 C13.5695,19.8763 14.0735,19.1043 14.1065,18.2533 L14.2065,15.6173 C14.2065,14.4863 13.2335,13.5363 12.0385,13.5363 L11.3405,13.5363 C10.1455,13.5363 9.1725,14.4863 9.1725,15.6553 L9.2735,18.2533 C9.3055,19.1033 9.8085,19.8743 10.5855,20.2643 C10.9085,20.4273 11.1195,20.7533 11.1345,21.1153 C11.1505,21.4783 10.9685,21.8203 10.6595,22.0113 L7.2945,24.0793 C7.2635,24.0973 7.2325,24.1153 7.1995,24.1313 C6.9665,24.2413 6.8155,24.4783 6.8155,24.7363 L6.8155,25.0753 Z M24.2569,15.8654 L21.5849,15.8654 C21.0329,15.8654 20.5869,15.4184 20.5869,14.8654 C20.5869,14.3124 21.0329,13.8654 21.5849,13.8654 L24.2569,13.8654 C24.8089,13.8654 25.2559,14.3124 25.2559,14.8654 C25.2559,15.4184 24.8089,15.8654 24.2569,15.8654 Z M27.252,20.3048 L21.585,20.3048 C21.033,20.3048 20.587,19.8578 20.587,19.3048 C20.587,18.7518 21.033,18.3048 21.585,18.3048 L27.252,18.3048 C27.804,18.3048 28.25,18.7518 28.25,19.3048 C28.25,19.8578 27.804,20.3048 27.252,20.3048 Z M27.252,24.7462 L21.585,24.7462 C21.033,24.7462 20.587,24.2992 20.587,23.7462 C20.587,23.1932 21.033,22.7462 21.585,22.7462 L27.252,22.7462 C27.804,22.7462 28.25,23.1932 28.25,23.7462 C28.25,24.2992 27.804,24.7462 27.252,24.7462 Z" id="path-1"></path>
    </defs>
    <g id="brand-icons/community/brand-system-admin" stroke="none" stroke-width="1" fill="none" fill-rule="evenodd">
        <mask id="mask-2" fill="white">
            <use xlink:href="#path-1"></use>
        </mask>
        <g id="Mask"></g>
        <g id="z_atom/Icon-color/brand-black" mask="url(#mask-2)" fill="#2D2E33">
            <rect id="Rectangle-15" x="0" y="0" width="32" height="32"></rect>
        </g>
    </g>
</svg>