<svg version="1.1" id="ffb0eb13-be1b-4424-aeca-37b055e16986"
	 xmlns="http://www.w3.org/2000/svg" xmlns:xlink="http://www.w3.org/1999/xlink" x="0px" y="0px" viewBox="0 0 32 32.2"
	 enable-background="new 0 0 32 32.2" xml:space="preserve">
<path id="e91803a3-22c6-4c84-8a1c-2e156249eb20" fill-rule="evenodd" clip-rule="evenodd" d="M25.4,24.5c-0.5-0.1-1,0.2-1.2,0.6
	l-1.3,3.5L20,23.4c2.3-0.8,4.3-2.3,5.7-4.3l3.4,6.2L25.4,24.5z M16,22.1c-5.5,0-10-4.5-10-10s4.5-10,10-10s10,4.5,10,10
	S21.5,22.1,16,22.1z M9.1,28.6l-1.3-3.5c-0.2-0.5-0.7-0.8-1.2-0.6c0,0,0,0,0,0l-3.7,0.8l3.4-6.2c1.4,1.9,3.4,3.4,5.6,4.2L9.1,28.6z
	 M31.9,26.3l-5-9.3c0.7-1.6,1.1-3.3,1.1-5c0-6.6-5.4-12-12-12h0C9.4,0.1,4.1,5.5,4,12.1c0,1.8,0.4,3.5,1.1,5.1l-5,9.2
	c-0.2,0.3-0.1,0.7,0.1,1c0.2,0.3,0.6,0.5,1,0.4l5-1.1l1.7,4.8c0.1,0.4,0.5,0.7,0.9,0.7h0.1c0.4,0,0.7-0.2,0.9-0.5l4.1-7.7
	c0.7,0.1,1.4,0.2,2.1,0.2c0.7,0,1.3-0.1,2-0.2l4.2,7.7c0.2,0.3,0.5,0.5,0.9,0.5h0.1c0.4,0,0.8-0.3,0.9-0.7l1.7-4.8l5,1.1
	c0.4,0.1,0.8-0.1,1-0.4C32,27.1,32.1,26.7,31.9,26.3z"/>
</svg>
