<svg id="ffb0eb13-be1b-4424-aeca-37b055e16986" data-name="Layer 1" xmlns="http://www.w3.org/2000/svg" viewBox="0 0 32.02 32.2"><title>training</title><path id="e91803a3-22c6-4c84-8a1c-2e156249eb20" data-name="path-1" d="M25.4,24.4a1.14,1.14,0,0,0-1.2.6l-1.3,3.5L20,23.3A11.61,11.61,0,0,0,25.7,19l3.4,6.2ZM16,22A10,10,0,1,1,26,12,10,10,0,0,1,16,22ZM9.1,28.5,7.8,25a.93.93,0,0,0-1.2-.6l-3.7.8L6.3,19a11.77,11.77,0,0,0,5.6,4.2Zm22.8-2.3-5-9.3a11.81,11.81,0,0,0,1.1-5A12,12,0,0,0,16-.1,12.19,12.19,0,0,0,4,12a12.63,12.63,0,0,0,1.1,5.1l-5,9.2a.92.92,0,0,0,.1,1,1,1,0,0,0,1,.4l5-1.1,1.7,4.8a1.11,1.11,0,0,0,.9.7h.1a1.05,1.05,0,0,0,.9-.5l4.1-7.7a14.92,14.92,0,0,0,2.1.2,12.31,12.31,0,0,0,2-.2l4.2,7.7a1.05,1.05,0,0,0,.9.5h.1a1.07,1.07,0,0,0,.9-.7l1.7-4.8,5,1.1a1,1,0,0,0,1-.4A1.07,1.07,0,0,0,31.9,26.2Z" transform="translate(0.01 0.1)" fill="#1f2555" fill-rule="evenodd"/></svg>