<?xml version="1.0" encoding="UTF-8"?>
<svg width="32px" height="32px" viewBox="0 0 32 32" version="1.1" xmlns="http://www.w3.org/2000/svg" xmlns:xlink="http://www.w3.org/1999/xlink">
    <!-- Generator: Sketch 49.3 (51167) - http://www.bohemiancoding.com/sketch -->
    <title>brand icons/community/brand-user-interface</title>
    <desc>Created with Sketch.</desc>
    <defs>
        <path d="M20,25.999 L26,25.999 L26,17.999 L20,17.999 L20,25.999 Z M18,28 L28,28 L28,15.999 L18,15.999 L18,28 Z M6,9.998 L26,9.998 L26,5.999 L6,5.999 L6,9.998 Z M4,11.999 L28,11.999 L28,3.998 L4,3.998 L4,11.999 Z M30,0 L2,0 C0.895,0 0,0.894 0,1.999 L0,30 C0,31.103 0.895,31.998 2,31.998 L30,31.998 C31.105,31.998 32,31.103 32,30 L32,1.999 C32,0.894 31.105,0 30,0 Z M30,28.998 C30,29.552 29.553,30 29,30 L3,30 C2.448,30 2,29.552 2,28.998 L2,3 C2,2.446 2.448,1.999 3,1.999 L29,1.999 C29.553,1.999 30,2.446 30,3 L30,28.998 Z M6,25.999 L12,25.999 L12,17.999 L6,17.999 L6,25.999 Z M4,28 L14,28 L14,15.999 L4,15.999 L4,28 Z" id="path-1"></path>
    </defs>
    <g id="brand-icons/community/brand-user-interface" stroke="none" stroke-width="1" fill="none" fill-rule="evenodd">
        <mask id="mask-2" fill="white">
            <use xlink:href="#path-1"></use>
        </mask>
        <g id="Mask"></g>
        <g id="z_atom/Icon-color/brand-black" mask="url(#mask-2)" fill="#2D2E33">
            <rect id="Rectangle-15" x="0" y="0" width="32" height="32"></rect>
        </g>
    </g>
</svg>