<?xml version="1.0" encoding="utf-8"?>
<!-- Generator: Adobe Illustrator 24.0.3, SVG Export Plug-In . SVG Version: 6.00 Build 0)  -->
<svg version="1.1" id="e7f7a686-d82b-452c-b7db-24236a2f2bc5"
	 xmlns="http://www.w3.org/2000/svg" xmlns:xlink="http://www.w3.org/1999/xlink" x="0px" y="0px" viewBox="0 0 32 32"
	 enable-background="new 0 0 32 32" xml:space="preserve">
<path id="efa0fb27-c8af-4df9-a166-9e09049ec313" fill-rule="evenodd" clip-rule="evenodd" d="M20,26h6v-8h-6V26z M18,28h10V16H18V28
	z M6,10h20V6H6V10z M4,12h24V4H4V12z M30,0H2C0.9,0,0,0.9,0,2v28c0,1.1,0.9,2,2,2h28c1.1,0,2-0.9,2-2V2C32,0.9,31.1,0,30,0z M30,29
	c0,0.5-0.4,1-0.9,1c0,0-0.1,0-0.1,0H3c-0.5,0-1-0.4-1-0.9c0,0,0-0.1,0-0.1V3c0-0.5,0.4-1,0.9-1C2.9,2,3,2,3,2h26c0.5,0,1,0.4,1,0.9
	c0,0,0,0.1,0,0.1V29z M6,26h6v-8H6V26z M4,28h10V16H4V28z"/>
</svg>
