<svg id="ff153206-dda7-41cd-b44a-bec9ae798d91" data-name="Layer 1" xmlns="http://www.w3.org/2000/svg" viewBox="0 0 31.9 23.9"><title>vision</title><path id="a6c6d684-832c-4bfc-89f2-29a70ddbf3a7" data-name="Page-1" d="M22,16a5.45,5.45,0,0,0-1.8-4.2A5.45,5.45,0,0,0,16,10a5.45,5.45,0,0,0-4.2,1.8A5.45,5.45,0,0,0,10,16a5.45,5.45,0,0,0,1.8,4.2A5.76,5.76,0,0,0,16,22a5.6,5.6,0,0,0,4.2-1.8A5.45,5.45,0,0,0,22,16m2,0a8.06,8.06,0,0,1-13.7,5.7A8.06,8.06,0,0,1,21.7,10.3,8.1,8.1,0,0,1,24,16m0,6.5c1-.9,2.1-1.9,3.1-3s1.7-1.9,2.1-2.4A5.94,5.94,0,0,0,30,16l-.8-1a19.86,19.86,0,0,0-2.1-2.5A29.3,29.3,0,0,0,24,9.6a15.35,15.35,0,0,0-3.9-2.5,9.87,9.87,0,0,0-4.2-1,10.11,10.11,0,0,0-4.2,1.1A13.65,13.65,0,0,0,8,9.5c-1,.9-2.1,1.9-3.1,3s-1.7,1.9-2.1,2.4A5.94,5.94,0,0,0,2,16l.8,1a19.86,19.86,0,0,0,2.1,2.5A21.65,21.65,0,0,0,8,22.4a21.71,21.71,0,0,0,3.9,2.5,9.87,9.87,0,0,0,4.2,1,10.11,10.11,0,0,0,4.2-1.1A13.65,13.65,0,0,0,24,22.5M25.4,8.2a24,24,0,0,1,3.5,3.6,27.21,27.21,0,0,1,2.2,2.9,11.65,11.65,0,0,1,.8,1.3l-.8,1.2a30.6,30.6,0,0,1-2.3,3c-1,1.2-2.2,2.3-3.4,3.5a17.68,17.68,0,0,1-4.5,3,11.8,11.8,0,0,1-5,1.2,10.65,10.65,0,0,1-5-1.3,21,21,0,0,1-4.4-2.9A24,24,0,0,1,3,20.1,27.21,27.21,0,0,1,.8,17.2,11.65,11.65,0,0,1,0,15.9l.8-1.2a30.6,30.6,0,0,1,2.3-3c1-1.2,2.2-2.3,3.4-3.5a17.68,17.68,0,0,1,4.5-3A11.8,11.8,0,0,1,16,4a10.65,10.65,0,0,1,5,1.3,18.65,18.65,0,0,1,4.4,2.9" transform="translate(0 -4)" fill="#1f2555" fill-rule="evenodd"/></svg>