<?xml version="1.0" encoding="utf-8"?>
<!-- Generator: Adobe Illustrator 24.0.3, SVG Export Plug-In . SVG Version: 6.00 Build 0)  -->
<svg version="1.1" id="ff153206-dda7-41cd-b44a-bec9ae798d91"
	 xmlns="http://www.w3.org/2000/svg" xmlns:xlink="http://www.w3.org/1999/xlink" x="0px" y="0px" viewBox="0 0 31.9 23.9"
	 enable-background="new 0 0 31.9 23.9" xml:space="preserve">
<path id="a6c6d684-832c-4bfc-89f2-29a70ddbf3a7" fill-rule="evenodd" clip-rule="evenodd" d="M22,12c0-1.6-0.6-3.1-1.8-4.2
	C19.1,6.6,17.6,6,16,6c-1.6,0-3.1,0.6-4.2,1.8C10.6,8.9,10,10.4,10,12c0,1.6,0.6,3.1,1.8,4.2c1.1,1.2,2.6,1.8,4.2,1.8
	c1.6,0,3.1-0.6,4.2-1.8C21.4,15.1,22,13.6,22,12 M24,12c0,4.5-3.7,8-8.1,8c-2.1,0-4.1-0.8-5.6-2.3c-3.1-3.1-3.1-8.3,0-11.4
	s8.3-3.1,11.4,0C23.2,7.8,24,9.9,24,12 M24,18.5c1-0.9,2.1-1.9,3.1-3s1.7-1.9,2.1-2.4c0.3-0.3,0.6-0.7,0.8-1.1l-0.8-1
	c-0.6-0.9-1.3-1.7-2.1-2.5c-1-1-2-2-3.1-2.9c-1.2-1-2.5-1.9-3.9-2.5c-1.3-0.6-2.7-1-4.2-1c-1.5,0.1-2.9,0.4-4.2,1.1
	C10.4,3.8,9.1,4.5,8,5.5c-1,0.9-2.1,1.9-3.1,3s-1.7,1.9-2.1,2.4C2.5,11.2,2.2,11.6,2,12l0.8,1c0.6,0.9,1.3,1.7,2.1,2.5
	c0.9,1.1,2,2,3.1,2.9c1.2,1,2.5,1.8,3.9,2.5c1.3,0.6,2.7,1,4.2,1c1.5-0.1,2.9-0.4,4.2-1.1C21.6,20.2,22.9,19.5,24,18.5 M25.4,4.2
	c1.3,1.1,2.5,2.3,3.5,3.6c0.8,0.9,1.5,1.9,2.2,2.9c0.3,0.4,0.6,0.8,0.8,1.3l-0.8,1.2c-0.7,1-1.5,2-2.3,3c-1,1.2-2.2,2.3-3.4,3.5
	c-1.3,1.2-2.9,2.2-4.5,3c-1.6,0.8-3.3,1.2-5,1.2c-1.7,0-3.5-0.5-5-1.3c-1.6-0.8-3.1-1.8-4.4-2.9C5.2,18.6,4,17.4,3,16.1
	c-0.8-0.9-1.5-1.9-2.2-2.9c-0.3-0.4-0.6-0.8-0.8-1.3l0.8-1.2c0.7-1,1.5-2,2.3-3c1-1.2,2.2-2.3,3.4-3.5C7.8,3,9.4,2,11,1.2
	C12.6,0.4,14.3,0,16,0c1.7,0,3.5,0.5,5,1.3C22.6,2.1,24.1,3,25.4,4.2"/>
</svg>
