<svg class="{{ classes|join(' ')|trim }}" viewBox="0 0 26 32" xmlns="http://www.w3.org/2000/svg"><g fill="#1f2555" fill-rule="evenodd"><path d="m5 30h22v-28h-22zm22-30h-22a2 2 0 0 0 -2 2v28a2 2 0 0 0 2 2h22a2 2 0 0 0 2-2v-28a2 2 0 0 0 -2-2z" transform="translate(-3)"/><path d="m9 10.7h14v-5h-14zm-2 2h18v-9h-18z" transform="translate(-3)"/><path d="m6 18.3h2v-2h-2z"/><path d="m10 18.3h2v-2h-2z"/><path d="m14 18.3h2v-2h-2z"/><path d="m18 18.3h2v-2h-2z"/><path d="m6 22.3h2v-2h-2z"/><path d="m10 22.3h2v-2h-2z"/><path d="m14 22.3h2v-2h-2z"/><path d="m18 22.3h2v-2h-2z"/><path d="m6 26.3h2v-2h-2z"/><path d="m10 26.3h2v-2h-2z"/><path d="m14 26.3h2v-2h-2z"/><path d="m18 26.3h2v-2h-2z"/></g></svg>
