<svg class="{{ classes|join(' ')|trim }}" viewBox="0 0 28 32" xmlns="http://www.w3.org/2000/svg"><path d="m12 6h8v-2h-8zm16 2h-24v-5a.94.94 0 0 1 1-1h22a.94.94 0 0 1 1 1zm0 11v1h-24v-10h24zm-2 7a2 2 0 1 1 2-2 2 2 0 0 1 -2 2zm-3.4 0h-13.2a4.66 4.66 0 0 0 .6-2 3.61 3.61 0 0 0 -.6-2h13.1a4.66 4.66 0 0 0 -.6 2 4.79 4.79 0 0 0 .7 2zm-16.6 0a2 2 0 1 1 2-2 2 2 0 0 1 -2 2zm22-26h-24a2 2 0 0 0 -2 2v22a3.76 3.76 0 0 0 2 3.4v3.6a.94.94 0 0 0 1 1 .94.94 0 0 0 1-1v-3h20v3a1 1 0 0 0 2 0v-3.6a4 4 0 0 0 2-3.4v-22a2 2 0 0 0 -2-2z" fill="#1f2555" fill-rule="evenodd" transform="translate(-2)"/></svg>
