<svg id="Layer_1" data-name="Layer 1" xmlns="http://www.w3.org/2000/svg" viewBox="0 0 409.85 86.4"><title>pearson-logo</title><path d="M8.69,51.56a44.88,44.88,0,0,1,1.84-14.2,40.68,40.68,0,0,1,6.39-13,45.5,45.5,0,0,1,4.59-5.56A39.94,39.94,0,0,1,35.93,9.5a41.57,41.57,0,0,1,9.79-2.26A40.94,40.94,0,0,1,67.51,11a35,35,0,0,1,12.27,9.14,30.64,30.64,0,0,1,4.85,7.79,37.88,37.88,0,0,1,3.11,15.11,52.86,52.86,0,0,1-4.49,21,56.34,56.34,0,0,1-5.89,10.78A46.44,46.44,0,0,1,67.52,85a41.44,41.44,0,0,1-14.66,7.18A36,36,0,0,1,38.18,93a33.08,33.08,0,0,1-12.1-4.33,30.62,30.62,0,0,1-9.95-9.76A43.84,43.84,0,0,1,10.37,65.5,50.49,50.49,0,0,1,8.69,51.56ZM49,62.34c1-.12,1.79-.24,2.61-.3a30.88,30.88,0,0,0,9.6-2c6.69-2.73,11.34-7.29,12.7-14.6a17,17,0,0,0-2.7-13.29c-3.56-5.11-8.7-7.78-14.69-9a45.84,45.84,0,0,0-9.43-.49,23.15,23.15,0,0,0-3.23.18,35.41,35.41,0,0,0-11,3.79,25.27,25.27,0,0,0-8.51,7A7.48,7.48,0,0,0,23,36.47a2.09,2.09,0,0,0,2.86,2.42,6.07,6.07,0,0,0,1.76-1.11c1.25-1,2.43-2.13,3.71-3.12A24.75,24.75,0,0,1,42,29.76a43.79,43.79,0,0,1,8.56-.63,20.15,20.15,0,0,1,7.17,1.36c5,1.95,9.65,6.77,8.67,13.27a12.38,12.38,0,0,1-3.25,7.1c-3.44,3.54-7.81,5.21-12.62,5.86a5.12,5.12,0,0,1-1.17-.1c0-.61,0-1.1,0-1.59.09-3,.18-6.05.29-9.08,0-.78.12-1.57.12-2.36a37.8,37.8,0,0,0-.13-3.84,2.4,2.4,0,0,0-2.22-2.18,10.53,10.53,0,0,0-4.8.32,3.19,3.19,0,0,0-2.72,3.61c0,2.81.15,5.63.23,8.45.17,5.76.33,11.52.52,17.28a2.53,2.53,0,0,0,2.86,2.71A12.53,12.53,0,0,0,46,69.39a3.81,3.81,0,0,0,2.8-3.82c0-.63,0-1.25,0-1.87C48.87,63.3,48.93,62.89,49,62.34ZM48.39,77.2c.24-2.11-1.91-4-3.81-4a4,4,0,0,0-3.85,4c0,2,1.11,3.31,3.87,3.42C46.44,80.72,48.58,79.61,48.39,77.2Z" transform="translate(-8.65 -7)" fill="#007ea2"/><path d="M114.51,54.08c0,.59-.08,1-.08,1.4,0,2.9.07,5.8,0,8.7a3.37,3.37,0,0,0,2.49,3.29c.8.2,1.62.32,2.43.49a1.72,1.72,0,0,1,.81.25,1.13,1.13,0,0,1,.37.83,1.08,1.08,0,0,1-.61.67,2.43,2.43,0,0,1-1,.08H103.22c-.59,0-1.13-.11-1.17-.82s.45-.9,1-1c.73-.14,1.46-.28,2.18-.47a3,3,0,0,0,2.45-3.12c0-9.66,0-19.32,0-29a2.91,2.91,0,0,0-2-3,20.92,20.92,0,0,0-2.27-.57,2.9,2.9,0,0,1-1-.37,1,1,0,0,1-.34-.84,1.19,1.19,0,0,1,.63-.66,2,2,0,0,1,.86-.09c5.73,0,11.46-.08,17.19.07a20.58,20.58,0,0,1,9,2.15,10.09,10.09,0,0,1,5.32,5.79,12.57,12.57,0,0,1,.51,6.36c-1,5.17-4.42,7.72-9.17,9a32,32,0,0,1-8.9.81C116.58,54.06,115.63,54.08,114.51,54.08Zm0-2.34c2.91.06,5.72.22,8.47-.59a6.55,6.55,0,0,0,4.79-4.77,21.42,21.42,0,0,0,.2-8,5.47,5.47,0,0,0-.4-1.42c-1.21-3.09-3.71-4.33-6.81-4.55-1.82-.13-3.65,0-5.48,0a4.68,4.68,0,0,0-.77.15Z" transform="translate(-8.65 -7)"/><path d="M275.69,45.43c.88-.78,1.64-1.55,2.49-2.2a11,11,0,0,1,10.69-1.75,6.24,6.24,0,0,1,4,4.17,11.63,11.63,0,0,1,.54,3.41c.05,5.47,0,10.95,0,16.42a6.51,6.51,0,0,0,0,1,1.49,1.49,0,0,0,1.42,1.47,3.41,3.41,0,0,1,1.09.23c.3.19.69.59.67.87s-.51.52-.83.72c-.16.09-.41,0-.62,0H286c-.58,0-1.12-.11-1.18-.81s.48-.8,1-1c1.65-.48,1.7-.54,1.7-2.2,0-5.19,0-10.37,0-15.56a11.27,11.27,0,0,0-.55-3.41c-.64-2-2.11-2.47-4.28-2.4A6,6,0,0,0,279,46a14,14,0,0,0-2.09,2.12,6,6,0,0,0-1.41,4.11c.11,4.47,0,9,0,13.43,0,1.85.11,2,2,2.37.95.21,1.06.4.84,1.61a6.54,6.54,0,0,1-1,.15h-10a.87.87,0,0,1-1-.74c-.08-.57.34-.81.81-.94s.66-.09,1-.15a1.46,1.46,0,0,0,1.42-1.58c0-.24,0-.49,0-.74V46.22a8.42,8.42,0,0,0,0-.87,1.88,1.88,0,0,0-1.41-1.84,3.54,3.54,0,0,1-1.16-.4c-.29-.22-.63-.66-.59-1s.49-.59.82-.77a2.2,2.2,0,0,1,.86,0c1.86-.07,3.73-.13,5.59-.21,1.46-.06,1.87.31,1.89,1.76,0,.74,0,1.49,0,2.24C275.54,45.2,275.61,45.26,275.69,45.43Z" transform="translate(-8.65 -7)"/><path d="M367.32,37.9h5.33c0,.56.1,1,.1,1.53,0,5.89,0,11.78,0,17.67a18.42,18.42,0,0,0,.54,4.18,5.12,5.12,0,0,0,4.31,3.85,10.5,10.5,0,0,0,5.66-.27,5.43,5.43,0,0,0,3.66-5c.14-1.69.21-3.39.22-5.09,0-5.06,0-10.12,0-15.18,0-.53.08-1.05.14-1.67h5.4a13.65,13.65,0,0,1,.14,1.36c0,6.47,0,12.94,0,19.41a11.38,11.38,0,0,1-2.76,7.68,11.66,11.66,0,0,1-5.82,3.41,17,17,0,0,1-6.43.4c-4.68-.47-8.31-2.62-9.94-7.25a14.15,14.15,0,0,1-.68-4.4c-.07-6.47,0-12.94,0-19.41C367.2,38.76,367.27,38.39,367.32,37.9Z" transform="translate(-8.65 -7)"/><path d="M179.56,66.35a13.5,13.5,0,0,1-4.6,3.16,10.17,10.17,0,0,1-8,0,6.66,6.66,0,0,1-3.64-7.22,7.29,7.29,0,0,1,3.14-4.87,17.87,17.87,0,0,1,5.64-2.56c2.34-.68,4.72-1.26,7.24-1.92a15.11,15.11,0,0,0,.07-1.91,31.57,31.57,0,0,0-.55-5.16c-.51-2.07-1.91-3-4.05-3a7.31,7.31,0,0,0-4.69,1.42c.33.66.66,1.23.91,1.83a3.52,3.52,0,0,1-.74,4,3.72,3.72,0,0,1-4,.78,3,3,0,0,1-2.07-2.72,5,5,0,0,1,2-4.68,10.56,10.56,0,0,1,4.33-2.11,18.9,18.9,0,0,1,5.56-.53A12.84,12.84,0,0,1,181,42a6.7,6.7,0,0,1,4.2,6c.22,3.89.2,7.79.26,11.68,0,1.87,0,3.73,0,5.6s.41,2.26,2.26,2.28c.12,0,.27-.05.37,0,.33.19.84.37.91.65a1.18,1.18,0,0,1-.49,1c-1,.43-2,.71-3,1a1,1,0,0,1-.25,0C182.37,70.39,180.74,70.16,179.56,66.35Zm-.24-10.92a3.32,3.32,0,0,0-1,0,50.65,50.65,0,0,0-5,1.85c-2.6,1.23-4,3.24-3.6,6.28A3.75,3.75,0,0,0,173.35,67c2.15.1,3.66-1.09,5.1-2.44a3.31,3.31,0,0,0,1-2.69c-.08-1.69,0-3.39,0-5.09C179.43,56.35,179.36,55.91,179.32,55.43Z" transform="translate(-8.65 -7)"/><path d="M400.32,69.53a12,12,0,0,1-.14-1.27V39.39c0-1.48.1-1.58,1.54-1.58q7.72,0,15.46,0c.4,0,.81,0,1.32.08v4.59a50.8,50.8,0,0,1-6.27.13c-2,0-4.06,0-6.29,0-.08,2.75,0,5.37,0,8.09.6,0,1,.08,1.48.08h9c1.4,0,1.49.1,1.5,1.48,0,1,0,2,0,3.06-.65.07-1.13.17-1.61.17-2.95,0-5.9,0-8.85,0-.45,0-.89,0-1.42.08v9.26c.49,0,1,.1,1.45.1h9.48c.48,0,1,.08,1.56.13v4.46C417.33,69.89,401.47,69.88,400.32,69.53Z" transform="translate(-8.65 -7)"/><path d="M237.24,56.1c.16-6.13,2.4-10.59,7.29-13.44a13.75,13.75,0,0,1,18.63,4.74,14.83,14.83,0,0,1,1.92,11.69,13.65,13.65,0,0,1-8.24,10.08,13.94,13.94,0,0,1-19.09-9.93C237.49,58,237.35,56.8,237.24,56.1Zm6.84-.51a29.14,29.14,0,0,0,0,3.1,16,16,0,0,0,2,6.85c2.2,3.63,8,3.52,10.22.58a11.59,11.59,0,0,0,2-4.63,34.21,34.21,0,0,0,.47-7.42,20.66,20.66,0,0,0-1-6.35,6.59,6.59,0,0,0-9.55-4.11,6.89,6.89,0,0,0-3.32,4.6A20.19,20.19,0,0,0,244.08,55.59Z" transform="translate(-8.65 -7)"/><path d="M352.53,69.78c-1.83,0-3.53,0-5.22,0-.66,0-.87-.54-1.05-1.07q-1.22-3.53-2.45-7-2.52-7.2-5-14.41c-1-2.88-2-5.76-3-8.65a5.34,5.34,0,0,1-.1-.62,6.49,6.49,0,0,1,1.08-.17c1.16,0,2.33,0,3.49,0,1,0,1.23.2,1.53,1.12.74,2.19,1.45,4.39,2.18,6.59,1.56,4.62,3.13,9.24,4.67,13.87.36,1.09.62,2.21.94,3.34,2.77-8.32,5.52-16.56,8.28-24.82h5.6c0,.3.14.52.08.69C359.86,48.94,356.22,59.27,352.53,69.78Z" transform="translate(-8.65 -7)"/><path d="M141.57,54.08c0,1,0,1.76,0,2.53A15,15,0,0,0,143,62.23a8.49,8.49,0,0,0,13.56,2.41c.55-.5,1-1.08,1.53-1.63a6.57,6.57,0,0,1,.48-.57.93.93,0,0,1,1.5,1.1,12.05,12.05,0,0,1-4.36,4.84c-5,3.07-12.48,2.58-16.85-2a14.39,14.39,0,0,1-3.75-7.95,15.88,15.88,0,0,1,1.52-9.76,13.23,13.23,0,0,1,10-7.64,12.24,12.24,0,0,1,8.85,1.7,10.37,10.37,0,0,1,4.41,6.38,12,12,0,0,1,.4,3.67c0,.93-.38,1.26-1.29,1.34-.37,0-.75,0-1.12,0H141.57Zm11.94-2.4a9.52,9.52,0,0,0,.23-1.55c0-.83-.12-1.65-.22-2.47a5.22,5.22,0,0,0-8.29-3.8c-2.61,1.84-3.15,4.75-3.51,7.82Z" transform="translate(-8.65 -7)"/><path d="M217.67,68.48c-2.18,1.66-2.18,1.66-3,1.6a10.57,10.57,0,0,1-.24-1.51c0-2.45,0-4.9,0-7.34,0-.62-.06-1.38.7-1.56s1.06.56,1.32,1.09a17.61,17.61,0,0,0,3.14,4.89,7.39,7.39,0,0,0,7.8,2.25,4.16,4.16,0,0,0,3-5.44,3.62,3.62,0,0,0-1.91-2.19c-1.33-.66-2.73-1.2-4.11-1.74-2-.77-4-1.34-5.91-2.27a6.3,6.3,0,0,1-3.85-6.14,9.18,9.18,0,0,1,1.74-5.7,8.87,8.87,0,0,1,4.7-3.08,12.41,12.41,0,0,1,8.51.53,1.69,1.69,0,0,0,2.12-.42c.27-.28.87-.56,1.15-.44a1.45,1.45,0,0,1,.57,1.12c0,2.32,0,4.64,0,7a2.07,2.07,0,0,1-.2.84c-.33.68-.85.78-1.37.22a5.92,5.92,0,0,1-.68-1c-1.08-1.82-2.08-3.7-3.84-5a5.86,5.86,0,0,0-5.66-.87,3.94,3.94,0,0,0-2.53,4.89,3.89,3.89,0,0,0,2.45,2.32c1.92.78,3.89,1.42,5.84,2.1a13.85,13.85,0,0,1,5.29,2.93,5.77,5.77,0,0,1,1.84,3.57,11.26,11.26,0,0,1-.83,6.32,8,8,0,0,1-5.27,4.4,14,14,0,0,1-10.15-1Z" transform="translate(-8.65 -7)"/><path d="M201,44.93c.47-.51.94-1,1.42-1.53a7.56,7.56,0,0,1,6.48-2.51,4.09,4.09,0,0,1,3.63,2.44,4.19,4.19,0,0,1-.31,4.25c-.92,1.35-2.25,1.4-3.66,1.28A3,3,0,0,1,206,47a20.85,20.85,0,0,1-.73-2.39,6.16,6.16,0,0,0-2.57,1.77,8.72,8.72,0,0,0-1.45,2,4.27,4.27,0,0,0-.52,1.87c0,5.18,0,10.37,0,15.55,0,1.64.4,2,2,2.19a3.14,3.14,0,0,1,1.21.2,1.4,1.4,0,0,1,.61.93c0,.2-.46.49-.76.64a1.81,1.81,0,0,1-.74,0H193c-.25,0-.5,0-.75,0-.46,0-.88-.27-.8-.75a1.44,1.44,0,0,1,.7-.86,4.19,4.19,0,0,1,1.21-.25,1.33,1.33,0,0,0,1.21-1.35c0-.29,0-.58,0-.87q0-9.64,0-19.28c0-2.17-.22-2.5-2.33-3.2-.55-.19-.88-.45-.82-1.06s.51-.79,1.05-.8c1,0,1.91,0,2.87,0s2.15-.09,3.23-.16c1.55-.11,2,.31,2,1.88v1.83Z" transform="translate(-8.65 -7)"/><path d="M318.8,71.86h-2.5a10.28,10.28,0,0,1-.18-1.31q0-16.71,0-33.43c0-.4.07-.8.11-1.21a3.36,3.36,0,0,1,.66-.22c1.81-.17,2,0,2,1.84q0,16.22,0,32.44C318.89,70.54,318.84,71.11,318.8,71.86Z" transform="translate(-8.65 -7)"/><path d="M49,62.34c0,.55-.11,1-.12,1.36,0,.62,0,1.24,0,1.87A3.81,3.81,0,0,1,46,69.39a12.53,12.53,0,0,1-2.54.55,2.53,2.53,0,0,1-2.86-2.71c-.19-5.76-.35-11.52-.52-17.28-.08-2.82-.18-5.64-.23-8.45a3.19,3.19,0,0,1,2.72-3.61,10.53,10.53,0,0,1,4.8-.32,2.4,2.4,0,0,1,2.22,2.18,37.8,37.8,0,0,1,.13,3.84c0,.79-.1,1.58-.12,2.36-.11,3-.2,6-.29,9.08,0,.49,0,1,0,1.59a5.12,5.12,0,0,0,1.17.1c4.81-.65,9.18-2.32,12.62-5.86a12.38,12.38,0,0,0,3.25-7.1c1-6.5-3.62-11.32-8.67-13.27a20.15,20.15,0,0,0-7.17-1.36,43.79,43.79,0,0,0-8.56.63,24.75,24.75,0,0,0-10.64,4.9c-1.28,1-2.46,2.11-3.71,3.12a6.07,6.07,0,0,1-1.76,1.11A2.09,2.09,0,0,1,23,36.47a7.48,7.48,0,0,1,1.33-2.89,25.27,25.27,0,0,1,8.51-6.95,35.41,35.41,0,0,1,11-3.79,23.15,23.15,0,0,1,3.23-.18,45.84,45.84,0,0,1,9.43.49c6,1.25,11.13,3.92,14.69,9a17,17,0,0,1,2.7,13.29c-1.36,7.31-6,11.87-12.7,14.6a30.88,30.88,0,0,1-9.6,2C50.77,62.1,50,62.22,49,62.34Z" transform="translate(-8.65 -7)" fill="#fff"/><path d="M48.39,77.2c.19,2.41-2,3.52-3.79,3.44-2.76-.11-3.86-1.43-3.87-3.42a4,4,0,0,1,3.85-4C46.48,73.17,48.63,75.09,48.39,77.2Z" transform="translate(-8.65 -7)" fill="#fff"/></svg>