<svg id="b87fc619-f20c-4914-9ac6-c7daf1dc990c" data-name="Layer 1" xmlns="http://www.w3.org/2000/svg" viewBox="0 0 32 30"><title>careers</title><path id="b064cdeb-f788-4e0b-b1b8-3f22338faf4d" data-name="Fill-1" d="M28,29H4a2,2,0,0,1-2-2V15H30V27a2,2,0,0,1-2,2ZM4,7H28a2,2,0,0,1,2,2v4H2V9A2,2,0,0,1,4,7Zm8-3a.94.94,0,0,1,1-1h6a.94.94,0,0,1,1,1V5H12ZM28,5H22V2a.94.94,0,0,0-1-1H11a.94.94,0,0,0-1,1V5H4A4,4,0,0,0,0,9V27a4,4,0,0,0,4,4H28a4,4,0,0,0,4-4V9a4,4,0,0,0-4-4Z" transform="translate(0 -1)" fill="#1f2555" fill-rule="evenodd"/></svg>