<svg id="e7f7a686-d82b-452c-b7db-24236a2f2bc5" data-name="Layer 1" xmlns="http://www.w3.org/2000/svg" viewBox="0 0 32 32"><title>user-interface</title><path id="efa0fb27-c8af-4df9-a166-9e09049ec313" data-name="path-1" d="M20,26h6V18H20Zm-2,2H28V16H18ZM6,10H26V6H6ZM4,12H28V4H4ZM30,0H2A2,2,0,0,0,0,2V30a2,2,0,0,0,2,2H30a2,2,0,0,0,2-2V2A2,2,0,0,0,30,0Zm0,29a.94.94,0,0,1-1,1H3a.94.94,0,0,1-1-1V3A.94.94,0,0,1,3,2H29a.94.94,0,0,1,1,1ZM6,26h6V18H6ZM4,28H14V16H4Z" fill="#1f2555" fill-rule="evenodd"/></svg>