<?xml version="1.0" encoding="UTF-8"?>
<svg width="24px" height="24px" viewBox="0 0 24 24" version="1.1" xmlns="http://www.w3.org/2000/svg" xmlns:xlink="http://www.w3.org/1999/xlink">
    <!-- Generator: Sketch 49.1 (51147) - http://www.bohemiancoding.com/sketch -->
    <title>Untitled 2</title>
    <desc>Created with Sketch.</desc>
    <defs></defs>
    <g id="Page-1" stroke="none" stroke-width="1" fill="none" fill-rule="evenodd">
        <g id="add-solid">
            <rect id="Rectangle-6" x="0" y="0" width="24" height="24"></rect>
            <g id="Group" transform="translate(1.000000, 1.000000)" fill="#1F2555" fill-rule="nonzero">
                <g id="Icon/Background/Circle/indigo">
                    <path d="M11,22 C4.92486775,22 0,17.0751322 0,11 C0,4.92486775 4.92486775,0 11,0 C17.0751322,0 22,4.92486775 22,11 C22,17.0751322 17.0751322,22 11,22 Z M12,10 L12,7 C12,6.45 11.55,6 11,6 C10.45,6 10,6.45 10,7 L10,10 L7,10 C6.45,10 6,10.45 6,11 C6,11.55 6.45,12 7,12 L10,12 L10,15 C10,15.55 10.45,16 11,16 C11.55,16 12,15.55 12,15 L12,12 L15,12 C15.55,12 16,11.55 16,11 C16,10.45 15.55,10 15,10 L12,10 Z" id="Combined-Shape"></path>
                </g>
            </g>
        </g>
    </g>
</svg>