<?xml version="1.0" encoding="UTF-8" standalone="no"?>
<svg width="24px" height="24px" viewBox="0 0 24 24" version="1.1" xmlns="http://www.w3.org/2000/svg" xmlns:xlink="http://www.w3.org/1999/xlink">
    <!-- Generator: Sketch 47.1 (45422) - http://www.bohemiancoding.com/sketch -->
    <title>Icon/utility/Indigo/24px/Asset-Media</title>
    <desc>Created with Sketch.</desc>
    <defs></defs>
    <g id="Symbols" stroke="none" stroke-width="1" fill="none" fill-rule="evenodd">
        <g id="Icon/utility/Indigo/24px/Asset-Media" fill="#1F2555">
            <g id="Page-1" transform="translate(0.000000, -1.000000)">
                <path d="M5.25,13.4995 L5.25,22.2495 C5.25,22.9395 4.689,23.4995 4,23.4995 L3.25,23.4995 C2.561,23.4995 2,22.9395 2,22.2495 L2,13.4995 L5.25,13.4995 Z M22.5,2.9995 L22.5,22.2495 C22.5,22.9395 21.939,23.4995 21.25,23.4995 L6.989,23.4995 C7.162,23.0985 7.25,22.6795 7.25,22.2495 L7.25,2.9995 L22.5,2.9995 Z M5.25,0.9995 L5.25,11.4995 L0,11.4995 L0,22.2495 C0,24.0415 1.458,25.4995 3.25,25.4995 L21.25,25.4995 C23.042,25.4995 24.5,24.0415 24.5,22.2495 L24.5,0.9995 L5.25,0.9995 Z" id="Fill-1"></path>
                <polygon id="Fill-4" points="8.25 6 21.5 6 21.5 4 8.25 4"></polygon>
                <polygon id="Fill-6" points="8.25 18.75 21.5 18.75 21.5 16.75 8.25 16.75"></polygon>
                <polygon id="Fill-7" points="8.25 21.75 21.5 21.75 21.5 19.75 8.25 19.75"></polygon>
                <path d="M10.251,13.75 L19.501,13.75 L19.501,9 L10.251,9 L10.251,13.75 Z M8.251,15.75 L21.501,15.75 L21.501,7 L8.251,7 L8.251,15.75 Z" id="Fill-8"></path>
            </g>
        </g>
    </g>
</svg>