<?xml version="1.0" encoding="UTF-8"?>
<svg width="22px" height="22px" viewBox="0 0 22 22" version="1.1" xmlns="http://www.w3.org/2000/svg" xmlns:xlink="http://www.w3.org/1999/xlink">
    <!-- Generator: Sketch 49.1 (51147) - http://www.bohemiancoding.com/sketch -->
    <title>check-solid</title>
    <desc>Created with Sketch.</desc>
    <defs></defs>
    <g id="Page-1" stroke="none" stroke-width="1" fill="none" fill-rule="evenodd">
        <g id="check-solid" transform="translate(-1.000000, -1.000000)">
            <rect id="Rectangle-6" x="0" y="0" width="24" height="24"></rect>
            <g id="Icon/Background/Circle/indigo" transform="translate(1.000000, 1.000000)">
                <path d="M11,22 C4.92486775,22 0,17.0751322 0,11 C0,4.92486775 4.92486775,0 11,0 C17.0751322,0 22,4.92486775 22,11 C22,17.0751322 17.0751322,22 11,22 Z M15.0504487,7.16123449 L9.33211003,12.768569 L6.94622847,10.4942471 C6.73124916,10.2792678 6.37739431,10.2792678 6.16185949,10.4942471 C5.94576917,10.7092265 5.94632468,11.0636368 6.16185949,11.2791716 L8.93937004,14.0566822 C9.04658195,14.1644496 9.18879049,14.2199998 9.33155453,14.2199998 C9.47376307,14.2199998 9.61652711,14.1644496 9.72318352,14.0566822 L15.8337067,7.94615897 C16.0531301,7.73117965 16.0531301,7.37676931 15.8337067,7.16123449 C15.6198384,6.94625517 15.2659836,6.94625517 15.0504487,7.16123449 Z" id="Combined-Shape" fill="#1F2555" fill-rule="nonzero"></path>
                <g id="Icon/utility/White/12px/check" transform="translate(6.000000, 7.000000)"></g>
            </g>
        </g>
    </g>
</svg>