<?xml version="1.0" encoding="UTF-8" standalone="no"?>
<svg width="24px" height="24px" viewBox="0 0 24 24" version="1.1" xmlns="http://www.w3.org/2000/svg" xmlns:xlink="http://www.w3.org/1999/xlink">
    <!-- Generator: Sketch 46.2 (44496) - http://www.bohemiancoding.com/sketch -->
    <title>Icon/utility/Indigo/24px/Close-open</title>
    <desc>Created with Sketch.</desc>
    <defs></defs>
    <g id="Symbols" stroke="none" stroke-width="1" fill="none" fill-rule="evenodd">
        <g id="Icon/utility/Indigo/24px/Close-open">
            <rect id="Rectangle-6" x="0" y="0" width="24" height="24"></rect>
            <g id="Page-1" transform="translate(1.000000, 1.000000)" fill="#1F2555">
                <path d="M11,20 C6.038,20 2,15.962 2,11 C2,6.038 6.038,2 11,2 C15.962,2 20,6.038 20,11 C20,15.962 15.962,20 11,20 M11,0 C4.937,0 0,4.938 0,11 C0,17.062 4.938,22 11,22 C17.062,22 22,17.062 22,11 C22,4.938 17.062,0 11,0" id="Fill-1"></path>
                <path d="M14.5356,13.1211 L12.4136,11.0001 L14.5356,8.8791 C14.9246,8.4901 14.9246,7.8531 14.5356,7.4651 C14.1466,7.0751 13.5106,7.0751 13.1206,7.4651 L10.9996,9.5861 L8.8786,7.4651 C8.4896,7.0751 7.8536,7.0751 7.4646,7.4651 C7.0756,7.8531 7.0756,8.4901 7.4646,8.8791 L9.5856,11.0001 L7.4646,13.1211 C7.0756,13.5101 7.0756,14.1461 7.4646,14.5351 C7.8536,14.9251 8.4896,14.9251 8.8786,14.5351 L10.9996,12.4141 L13.1206,14.5351 C13.5106,14.9251 14.1466,14.9251 14.5356,14.5351 C14.9246,14.1461 14.9246,13.5101 14.5356,13.1211" id="Fill-3"></path>
            </g>
        </g>
    </g>
</svg>