<?xml version="1.0" encoding="UTF-8" standalone="no"?>
<svg width="24px" height="24px" viewBox="0 0 24 24" version="1.1" xmlns="http://www.w3.org/2000/svg" xmlns:xlink="http://www.w3.org/1999/xlink">
    <!-- Generator: Sketch 46.2 (44496) - http://www.bohemiancoding.com/sketch -->
    <title>Icon/utility/Indigo/24px/Email</title>
    <desc>Created with Sketch.</desc>
    <defs></defs>
    <g id="Symbols" stroke="none" stroke-width="1" fill="none" fill-rule="evenodd">
        <g id="Icon/utility/Indigo/24px/Email">
            <rect id="Rectangle-6" x="0" y="0" width="24" height="24"></rect>
            <path d="M20,19 L4,19 C3.45,19 3,18.55 3,18 L3,7.919 L11.425,13.819 C11.6,13.938 11.8,14 12,14 C12.2,14 12.4,13.937 12.575,13.819 L21,7.919 L21,18 C21,18.55 20.55,19 20,19 L20,19 Z M4,5 L20,5 C20.394,5 20.731,5.225 20.894,5.556 L12,11.781 L3.106,5.556 C3.268,5.225 3.606,5 4,5 L4,5 Z M23,5.981 C22.988,4.337 21.65,3 20,3 L4,3 C2.35,3 1.012,4.331 1,5.981 L1,6.012 L1,18 C1,19.656 2.344,21 4,21 L20,21 C21.656,21 23,19.656 23,18 L23,6.012 L23,5.981 Z" id="Email" fill="#1F2555"></path>
        </g>
    </g>
</svg>