<?xml version="1.0" encoding="UTF-8"?>
<svg width="24px" height="24px" viewBox="0 0 24 24" version="1.1" xmlns="http://www.w3.org/2000/svg" xmlns:xlink="http://www.w3.org/1999/xlink">
    <!-- Generator: Sketch 49.1 (51147) - http://www.bohemiancoding.com/sketch -->
    <title>Untitled 9</title>
    <desc>Created with Sketch.</desc>
    <defs></defs>
    <g id="Page-1" stroke="none" stroke-width="1" fill="none" fill-rule="evenodd">
        <g id="info-solid">
            <rect id="Rectangle-6" x="0" y="0" width="24" height="24"></rect>
            <g id="Info" transform="translate(1.000000, 1.000000)" fill="#1F2555" fill-rule="nonzero">
                <g id="Icon/Background/Circle/indigo">
                    <path d="M11,22 C4.92486775,22 0,17.0751322 0,11 C0,4.92486775 4.92486775,0 11,0 C17.0751322,0 22,4.92486775 22,11 C22,17.0751322 17.0751322,22 11,22 Z M11.7061,7.706 C11.8931,7.518 12.0001,7.262 12.0001,7 C12.0001,6.738 11.8931,6.481 11.7061,6.294 C11.5181,6.106 11.2621,6 11.0001,6 C10.7381,6 10.4811,6.106 10.2941,6.294 C10.1071,6.482 10.0001,6.738 10.0001,7 C10.0001,7.262 10.1061,7.519 10.2941,7.706 C10.4821,7.894 10.7381,8 11.0001,8 C11.2621,8 11.5191,7.894 11.7061,7.706 Z M12.0001,15 L12.0001,11 C12.0001,10.45 11.5501,10 11.0001,10 C10.4501,10 10.0001,10.45 10.0001,11 L10.0001,15 C10.0001,15.55 10.4501,16 11.0001,16 C11.5501,16 12.0001,15.55 12.0001,15 Z" id="Combined-Shape"></path>
                </g>
            </g>
        </g>
    </g>
</svg>