<?xml version="1.0" encoding="UTF-8"?>
<svg width="24px" height="25px" viewBox="0 0 24 25" version="1.1" xmlns="http://www.w3.org/2000/svg" xmlns:xlink="http://www.w3.org/1999/xlink">
    <!-- Generator: Sketch 49.1 (51147) - http://www.bohemiancoding.com/sketch -->
    <title>Untitled 8</title>
    <desc>Created with Sketch.</desc>
    <defs></defs>
    <g id="Page-1" stroke="none" stroke-width="1" fill="none" fill-rule="evenodd">
        <g id="map-pin-solid">
            <rect id="Rectangle-6" x="0" y="0" width="24" height="24"></rect>
            <g id="map-pin" transform="translate(2.000000, 0.000000)" fill="#1F2555" fill-rule="nonzero">
                <path d="M10,0 C15.512,3.55271368e-15 20,4.488 20,10 C20,11.763 19.481,13.607 18.469,15.463 C17.681,16.907 16.594,18.369 15.225,19.813 C12.925,22.245 10.65,23.769 10.556,23.832 C10.387,23.945 10.193,24.001 10,24.001 C9.807,24.001 9.613,23.945 9.444,23.832 C9.35,23.769 7.075,22.244 4.775,19.813 C3.412,18.369 2.318,16.907 1.531,15.463 C0.513,13.606 0,11.769 0,10 C0,4.488 4.488,0 10,0 Z M10,6 C7.794,6 6,7.794 6,10 C6,12.206 7.794,14 10,14 C12.206,14 14,12.206 14,10 C14,7.794 12.206,6 10,6 Z" id="Combined-Shape"></path>
            </g>
        </g>
    </g>
</svg>