<!-- Generated by IcoMoon.io -->
<svg version="1.1" xmlns="http://www.w3.org/2000/svg" width="24" height="28" viewBox="0 0 24 28">
<title>twitter-solid</title>
<path d="M20 9.531c-0.594 0.266-1.219 0.438-1.891 0.531 0.688-0.406 1.203-1.062 1.453-1.828-0.641 0.375-1.344 0.656-2.094 0.797-0.594-0.641-1.453-1.031-2.391-1.031-1.813 0-3.281 1.469-3.281 3.281 0 0.25 0.016 0.516 0.078 0.75-2.734-0.141-5.156-1.437-6.781-3.437-0.281 0.484-0.453 1.062-0.453 1.656 0 1.141 0.531 2.141 1.422 2.734-0.547-0.016-1.062-0.172-1.563-0.406v0.031c0 1.594 1.203 2.922 2.703 3.219-0.281 0.078-0.5 0.125-0.797 0.125-0.203 0-0.406-0.031-0.609-0.063 0.422 1.297 1.625 2.25 3.063 2.281-1.125 0.875-2.531 1.406-4.078 1.406-0.266 0-0.531-0.016-0.781-0.047 1.453 0.922 3.172 1.469 5.031 1.469 6.031 0 9.344-5 9.344-9.344 0-0.141 0-0.281-0.016-0.422 0.641-0.453 1.203-1.031 1.641-1.703zM24 6.5v15c0 2.484-2.016 4.5-4.5 4.5h-15c-2.484 0-4.5-2.016-4.5-4.5v-15c0-2.484 2.016-4.5 4.5-4.5h15c2.484 0 4.5 2.016 4.5 4.5z" fill="#1F2555"></path>
</svg>
