<?xml version="1.0" encoding="UTF-8" standalone="no"?>
<svg width="24px" height="24px" viewBox="0 0 24 24" version="1.1" xmlns="http://www.w3.org/2000/svg" xmlns:xlink="http://www.w3.org/1999/xlink">
    <!-- Generator: Sketch 46.2 (44496) - http://www.bohemiancoding.com/sketch -->
    <title>Icon/utility/Indigo/24px/Watch</title>
    <desc>Created with Sketch.</desc>
    <defs></defs>
    <g id="Symbols" stroke="none" stroke-width="1" fill="none" fill-rule="evenodd">
        <g id="Icon/utility/Indigo/24px/Watch">
            <rect id="Rectangle-6" x="0" y="0" width="24" height="24"></rect>
            <g id="watch" transform="translate(4.000000, -1.000000)" fill-rule="nonzero" fill="#1F2555">
                <path d="M16,13 C16,10.712 15.037,8.65 13.494,7.187 L13.175,3.718 C13.031,2.168 11.744,0.999 10.187,0.999 L5.831,0.999 C4.275,0.999 2.993,2.174 2.843,3.73 L2.531,7.168 C0.975,8.624 1.77635684e-15,10.699 1.77635684e-15,12.999 C1.77635684e-15,15.293 0.969,17.361 2.519,18.824 L2.838,22.28 C2.982,23.83 4.269,24.999 5.826,24.999 L10.17,24.999 C11.726,24.999 13.014,23.824 13.158,22.268 L13.47,18.83 C15.026,17.374 16.001,15.299 16.001,12.999 L16,13 Z M4.838,3.913 C4.888,3.394 5.313,3.001 5.832,3.001 L10.188,3.001 C10.707,3.001 11.138,3.388 11.182,3.901 L11.351,5.732 C10.332,5.263 9.195,5.001 8.001,5.001 C6.813,5.001 5.682,5.264 4.67,5.726 L4.839,3.914 L4.838,3.913 Z M2,13 C2,11.169 2.825,9.519 4.125,8.419 C4.131,8.413 4.131,8.413 4.137,8.407 C5.187,7.532 6.531,7.001 7.999,7.001 C11.305,7.001 13.999,9.695 13.999,13.001 C13.999,16.307 11.305,19.001 7.999,19.001 C4.693,19.001 1.999,16.307 1.999,13.001 L2,13 Z M11.162,22.087 C11.112,22.606 10.687,22.999 10.168,22.999 L5.824,22.999 C5.305,22.999 4.874,22.612 4.83,22.093 L4.661,20.262 C5.68,20.731 6.811,20.993 7.999,20.993 C9.187,20.993 10.312,20.73 11.33,20.268 L11.161,22.087 L11.162,22.087 Z" id="Shape"></path>
                <path d="M8.794,15.206 C8.988,15.4 9.244,15.5 9.5,15.5 C9.756,15.5 10.013,15.4 10.206,15.206 C10.593,14.819 10.593,14.181 10.206,13.793 L9,12.587 L9,9.999 C9,9.449 8.55,8.999 8,8.999 C7.45,8.999 7,9.449 7,9.999 L7,12.999 C7,13.262 7.106,13.518 7.294,13.705 L8.794,15.205 L8.794,15.206 Z" id="Shape"></path>
            </g>
        </g>
    </g>
</svg>