<?xml version="1.0" encoding="UTF-8" standalone="no"?>
<svg width="32px" height="32px" viewBox="0 0 32 32" version="1.1" xmlns="http://www.w3.org/2000/svg" xmlns:xlink="http://www.w3.org/1999/xlink">
    <!-- Generator: Sketch 46.2 (44496) - http://www.bohemiancoding.com/sketch -->
    <title>Icon/How/Partners</title>
    <desc>Created with Sketch.</desc>
    <defs></defs>
    <g id="Symbols" stroke="none" stroke-width="1" fill="none" fill-rule="evenodd">
        <g id="Icon/How/Partners" fill="#1F2555">
            <path d="M8.33333333,9.6 C8.33333333,5.47733333 11.6768,2.13333333 15.8,2.13333333 C19.9237333,2.13333333 23.2666667,5.47733333 23.2666667,9.6 C23.2666667,13.7237333 19.9237333,17.0666667 15.8,17.0666667 C11.6768,17.0666667 8.33333333,13.7237333 8.33333333,9.6 M20.4970667,17.9685333 C23.4213333,16.3226667 25.4,13.1946667 25.4,9.6 C25.4,4.29813333 21.1018667,0 15.8,0 C10.4986667,0 6.2,4.29813333 6.2,9.6 C6.2,13.1946667 8.1792,16.3226667 11.1034667,17.9685333 C6.36053333,19.8416 3,24.4581333 3,29.8666667 L3,32 L5.13333333,32 L5.13333333,29.8666667 C5.13333333,23.9749333 9.90933333,19.2 15.8,19.2 C21.6912,19.2 26.4666667,23.9749333 26.4666667,29.8666667 L26.4666667,32 L28.6,32 L28.6,29.8666667 C28.6,24.4581333 25.2394667,19.8416 20.4970667,17.9685333" id="Page-1"></path>
        </g>
    </g>
</svg>