<svg width="96" height="27" viewBox="0 0 96 27" version="1.1" xmlns="http://www.w3.org/2000/svg" xmlns:xlink="http://www.w3.org/1999/xlink"><title>AF7E8E70-12C1-4EDA-9983-4D97D1E5FD77</title><desc>Created with sketchtool.</desc><g id="Main-Concepts" stroke="none" stroke-width="1" fill="none" fill-rule="evenodd"><g id="Bolt-homepage-dark" transform="translate(-47.000000, -21.000000)"><g id="Logo-lockup-dark-theme" transform="translate(46.000000, 18.000000)"><g id="Bolt-Final"><g id="Group-3" transform="translate(16.000000, 16.000000) rotate(-180.000000) translate(-16.000000, -16.000000) translate(1.000000, 3.000000)"><path d="M18.75,19 L11.25,19 C11.1119288,19 11,18.8880712 11,18.75 L11,14.25 C11,14.1119288 11.1119288,14 11.25,14 L18.75,14 C18.8880712,14 19,14.1119288 19,14.25 L19,18.75 C19,18.8880712 18.8880712,19 18.75,19 Z" id="Path" fill="#FFCC4C"/><path d="M28.9904647,14.7498612 L26.610617,18.8749306 C26.5659692,18.95232 26.4834156,19 26.3940706,19 L21.25,19 C21.1119288,19 21,18.8880712 21,18.75 L21,14.25 C21,14.1119288 21.1119288,14 21.25,14 L28.5573719,14 C28.8335143,14 29.0573719,14.2238576 29.0573719,14.5 C29.0573719,14.587714 29.0342973,14.6738846 28.9904647,14.7498612 Z" id="Path" fill="#F63"/><path d="M9,14.25 L9,18.75 C9,18.8880712 8.88807119,19 8.75,19 L3.60592944,19 C3.51658442,19 3.43403076,18.95232 3.38938305,18.8749306 L1.00953532,14.7498612 C0.871540778,14.5106707 0.953576345,14.2049018 1.19276689,14.0669072 C1.26874349,14.0230746 1.35491412,14 1.44262812,14 L8.75,14 C8.88807119,14 9,14.1119288 9,14.25 Z" id="Path" fill="#E1E2EB"/><path d="M17,25.75 L17,21.25 C17,21.1119288 17.1119288,21 17.25,21 L24.9517629,21 C25.0898341,21 25.2017629,21.1119288 25.2017629,21.25 C25.2017629,21.293857 25.1902256,21.3369423 25.1683093,21.3749306 L23.0772433,24.9994449 C22.7200616,25.6185599 22.0596323,26 21.3448722,26 L17.25,26 C17.1119288,26 17,25.8880712 17,25.75 Z" id="Path" fill="#F63"/><path d="M14.75,26 L8.65512785,26 C7.94036769,26 7.27993838,25.6185599 6.92275668,24.9994449 L4.83169074,21.3749306 C4.76269347,21.2553353 4.80371125,21.1024509 4.92330652,21.0334536 C4.96129482,21.0115373 5.00438014,21 5.04823713,21 L14.75,21 C14.8880712,21 15,21.1119288 15,21.25 L15,25.75 C15,25.8880712 14.8880712,26 14.75,26 Z" id="Path" fill="#FFCC4C"/><path d="M23.0772433,1.00055509 L25.1683093,4.62506939 C25.2373065,4.74466466 25.1962888,4.89754912 25.0766935,4.9665464 C25.0387052,4.98846272 24.9956199,5 24.9517629,5 L15.25,5 C15.1119288,5 15,4.88807119 15,4.75 L15,0.25 C15,0.111928813 15.1119288,2.53632657e-17 15.25,0 L21.3448722,3.55271368e-15 C22.0596323,3.42141437e-15 22.7200616,0.381440146 23.0772433,1.00055509 Z" id="Path" fill="#6C79D9"/><path d="M12.75,5 L5.04823713,5 C4.91016595,5 4.79823713,4.88807119 4.79823713,4.75 C4.79823713,4.706143 4.80977441,4.66305769 4.83169074,4.62506939 L6.92275668,1.00055509 C7.27993838,0.381440146 7.94036769,5.75388521e-16 8.65512785,4.4408921e-16 L12.75,0 C12.8880712,-2.53632657e-17 13,0.111928813 13,0.25 L13,4.75 C13,4.88807119 12.8880712,5 12.75,5 Z" id="Path" fill="#12B3B3"/><path d="M19,11.75 L19,7.25 C19,7.11192881 19.1119288,7 19.25,7 L26.3940706,7 C26.4834156,7 26.5659692,7.04768002 26.610617,7.12506939 L28.9904647,11.2501388 C29.1284592,11.4893293 29.0464237,11.7950982 28.8072331,11.9330928 C28.7312565,11.9769254 28.6450859,12 28.5573719,12 L19.25,12 C19.1119288,12 19,11.8880712 19,11.75 Z" id="Path" fill="#6C79D9"/><path d="M16.75,12 L1.44262812,12 C1.16648574,12 0.942628116,11.7761424 0.942628116,11.5 C0.942628116,11.412286 0.965702669,11.3261154 1.00953532,11.2501388 L3.38938305,7.12506939 C3.43403076,7.04768002 3.51658442,7 3.60592944,7 L16.75,7 C16.8880712,7 17,7.11192881 17,7.25 L17,11.75 C17,11.8880712 16.8880712,12 16.75,12 Z" id="Path" fill="#12B3B3"/></g></g><g id="Light-Round" transform="translate(34.000000, 3.000000)" fill="#FFF"><g id="Lockup"><g id="Group"><path d="M40.7742445,3.19744231e-14 L46.8482236,3.19744231e-14 C46.9775876,3.19506593e-14 47.0824578,0.104870239 47.0824578,0.234234234 L47.0824578,25.4541812 C47.0824578,25.5835452 46.9775876,25.6884154 46.8482236,25.6884154 L40.7742445,25.6884154 C40.6448805,25.6884154 40.5400102,25.5835452 40.5400102,25.4541812 L40.5400102,0.234234234 C40.5400102,0.104870239 40.6448805,3.19981869e-14 40.7742445,3.19744231e-14 Z M11.7419717,6.61251664 C13.4407209,6.61251664 14.9844936,7.00487846 16.3733359,7.78961385 C17.7621782,8.57434924 18.8640531,9.69950443 19.6789936,11.1651132 C20.4939341,12.6307219 20.9013983,14.3328798 20.9013983,16.2716378 C20.9013983,18.2103958 20.4939341,19.9183237 19.6789936,21.3954727 C18.8640531,22.8726217 17.7621782,24.0093169 16.3733359,24.8055925 C14.9844936,25.6018682 13.4407209,26 11.7419717,26 C9.28567207,26 7.44921392,25.2729766 6.23254215,23.8189081 L6.23254215,25.4541812 C6.23254215,25.5835452 6.12767191,25.6884154 5.99830792,25.6884154 L0.234234234,25.6884154 C0.104870239,25.6884154 1.58425203e-17,25.5835452 0,25.4541812 L0,0.234234234 C-1.58425203e-17,0.104870239 0.104870239,3.76851604e-15 0.234234234,3.74475226e-15 L6.30821333,0 C6.43757732,-2.37637804e-17 6.54244756,0.104870239 6.54244756,0.234234234 L6.54244756,8.55126498 C7.80503147,7.25875963 9.53818885,6.61251664 11.7419717,6.61251664 Z M10.3646143,20.7723036 C11.5124179,20.7723036 12.4536027,20.3741718 13.1881969,19.5778961 C13.9227912,18.7816205 14.2900828,17.6795454 14.2900828,16.2716378 C14.2900828,14.8868107 13.9227912,13.8020456 13.1881969,13.0173103 C12.4536027,12.2325749 11.5124179,11.840213 10.3646143,11.840213 C9.21681074,11.840213 8.27562594,12.2325749 7.54103166,13.0173103 C6.80643739,13.8020456 6.43914576,14.8868107 6.43914576,16.2716378 C6.43914576,17.6795454 6.80643739,18.7816205 7.54103166,19.5778961 C8.27562594,20.3741718 9.21681074,20.7723036 10.3646143,20.7723036 Z" id="bolt"/><path d="M29.8063063,26 C24.4053595,26 20.027027,21.6216675 20.027027,16.2207207 C20.027027,10.8197739 24.4053595,6.44144144 29.8063063,6.44144144 C35.2072531,6.44144144 39.5855856,10.8197739 39.5855856,16.2207207 C39.5855856,21.6216675 35.2072531,26 29.8063063,26 Z M29.7477477,20.7297297 C32.2056637,20.7297297 34.1981982,18.7371952 34.1981982,16.2792793 C34.1981982,13.8213634 32.2056637,11.8288288 29.7477477,11.8288288 C27.2898318,11.8288288 25.2972973,13.8213634 25.2972973,16.2792793 C25.2972973,18.7371952 27.2898318,20.7297297 29.7477477,20.7297297 Z" id="Combined-Shape"/><path d="M56.5585586,8.18834354 L61.9452432,8.17218346 C62.0746067,8.17179537 62.179791,8.27635052 62.1801791,8.40571394 L62.1801802,13.7083065 C62.1801802,13.8373961 62.0757377,13.9421524 61.9466486,13.9425397 L56.5585586,13.958704 L56.5585586,18.7436409 C56.5585586,19.7785528 57.3975205,20.6175147 58.4324324,20.6175147 L61.9459459,20.6175147 C62.0753099,20.6175147 62.1801802,20.722385 62.1801802,20.851749 L62.1801802,25.7706679 C62.1801802,25.9000319 62.0753099,26.0049021 61.9459459,26.0049021 L56.5585586,26.0049021 C52.9363667,26.0049021 50,23.0685354 50,19.4463436 L50,6.59692271 C50,6.43104463 50.0877203,6.27753414 50.2306306,6.19331911 L56.2054054,2.67246969 C56.3168575,2.60679259 56.460449,2.64390052 56.5261261,2.75535257 C56.54736,2.79138579 56.5585586,2.83244723 56.5585586,2.87427149 L56.5585586,8.18834354 Z" id="Path"/></g></g></g></g></g></g></svg>