<?xml version="1.0" encoding="UTF-8" standalone="no"?>
<svg width="32px" height="32px" viewBox="0 0 32 32" version="1.1" xmlns="http://www.w3.org/2000/svg" xmlns:xlink="http://www.w3.org/1999/xlink">
    <!-- Generator: Sketch 47.1 (45422) - http://www.bohemiancoding.com/sketch -->
    <title>Icon/product/CRM/Sales Automation</title>
    <desc>Created with Sketch.</desc>
    <defs></defs>
    <g id="Symbols" stroke="none" stroke-width="1" fill="none" fill-rule="evenodd">
        <g id="Icon/product/CRM/Sales-Automation" fill="#1F2555">
            <path d="M30,2 L2,2 L2,5.9375 L30,5.9375 L30,2 Z M30,0 C30.5833362,0 31.0624981,0.197914688 31.4375,0.59375 C31.8125019,0.989585312 32,1.45833062 32,2 L32,5.9375 C32,6.52083625 31.8125019,6.99999813 31.4375,7.375 C31.0624981,7.75000187 30.5833362,7.9375 30,7.9375 L2,7.9375 C1.41666375,7.9375 0.937501875,7.75000187 0.5625,7.375 C0.187498125,6.99999813 0,6.52083625 0,5.9375 L0,2 C0,1.45833062 0.187498125,0.989585312 0.5625,0.59375 C0.937501875,0.197914688 1.41666375,0 2,0 L30,0 Z M26,14 L6,14 L6,17.9375 L26,17.9375 L26,14 Z M26,12 C26.5833362,12 27.0624981,12.1979147 27.4375,12.59375 C27.8125019,12.9895853 28,13.4583306 28,14 L28,17.9375 C28,18.5208363 27.8125019,18.9999981 27.4375,19.375 C27.0624981,19.7500019 26.5833362,19.9375 26,19.9375 L6,19.9375 C5.41666375,19.9375 4.93750187,19.7500019 4.5625,19.375 C4.18749813,18.9999981 4,18.5208363 4,17.9375 L4,14 C4,13.4583306 4.18749813,12.9895853 4.5625,12.59375 C4.93750187,12.1979147 5.41666375,12 6,12 L26,12 Z M22,25.9375 L10,25.9375 L10,29.875 L22,29.875 L22,25.9375 Z M22,23.9375 C22.5833362,23.9375 23.0624981,24.1249981 23.4375,24.5 C23.8125019,24.8750019 24,25.3541638 24,25.9375 L24,29.875 C24,30.4166694 23.8125019,30.8854147 23.4375,31.28125 C23.0624981,31.6770853 22.5833362,31.875 22,31.875 L10,31.875 C9.41666375,31.875 8.93750188,31.6770853 8.5625,31.28125 C8.18749812,30.8854147 8,30.4166694 8,29.875 L8,25.9375 C8,25.3541638 8.18749812,24.8750019 8.5625,24.5 C8.93750188,24.1249981 9.41666375,23.9375 10,23.9375 L22,23.9375 Z" id=""></path>
        </g>
    </g>
</svg>