<?xml version="1.0" encoding="UTF-8" standalone="no"?>
<svg width="32px" height="32px" viewBox="0 0 32 32" version="1.1" xmlns="http://www.w3.org/2000/svg" xmlns:xlink="http://www.w3.org/1999/xlink">
    <!-- Generator: Sketch 46.2 (44496) - http://www.bohemiancoding.com/sketch -->
    <title>Icon/product/CRM/Field Service-gray</title>
    <desc>Created with Sketch.</desc>
    <defs></defs>
    <g id="Symbols" stroke="none" stroke-width="1" fill="none" fill-rule="evenodd">
        <g id="Icon/product/CRM/Field-Service-gray" fill="#1F2555">
            <path d="M16.0005,30.0009375 C8.26825838,30.0009375 2.0000625,23.7332417 2.0000625,16.0005 C2.0000625,8.26775837 8.26825838,2.0000625 16.0005,2.0000625 C23.7327416,2.0000625 30.0009375,8.26775837 30.0009375,16.0005 C30.0009375,23.7332417 23.7327416,30.0009375 16.0005,30.0009375 L16.0005,30.0009375 Z M16.0005,0 C7.16372387,0 0,7.16322385 0,16.0005 C0,24.8377762 7.16372387,32 16.0005,32 C24.8372762,32 32.001,24.8377762 32.001,16.0005 C32.001,7.16322385 24.8372762,0 16.0005,0 L16.0005,0 Z M16.0005,6.00018751 C10.4773274,6.00018751 6.00018751,10.4768274 6.00018751,16.0005 L8.00025001,16.0005 C8.00025001,11.5823619 11.5823619,8.00025001 16.0005,8.00025001 C20.4191381,8.00025001 24.00075,11.5823619 24.00075,16.0005 L26.0008125,16.0005 C26.0008125,10.4768274 21.5236726,6.00018751 16.0005,6.00018751 L16.0005,6.00018751 Z M14.0004375,25.0007813 L16.0005,25.0007813 L16.0005,23.0007188 L14.0004375,23.0007188 L14.0004375,25.0007813 Z M20.5006406,14.1214413 C20.0226257,13.8364324 19.4106066,14.0064377 19.135098,14.5004531 L15.486484,21.0436576 C15.327479,21.0176568 15.166474,21.0006563 15.0004688,21.0006563 C13.343917,21.0006563 12.000375,22.3436982 12.000375,24.00075 C12.000375,25.6568018 13.343917,27.0008438 15.0004688,27.0008438 C16.6570205,27.0008438 18.0005625,25.6568018 18.0005625,24.00075 C18.0005625,23.2407263 17.7160536,22.5497047 17.2505391,22.0211882 L20.8666521,15.5364855 C21.1431607,15.04147 20.9791556,14.4084503 20.5006406,14.1214413 L20.5006406,14.1214413 Z" id="Page-1"></path>
        </g>
    </g>
</svg>