<svg id="adf9d1e9-e15c-47de-981a-f427d4787b1e" data-name="Layer 1" xmlns="http://www.w3.org/2000/svg" viewBox="0 0 30 30"><title>healthcare</title><path id="bf3f6aad-d03d-485b-9521-15133fd9e6aa" data-name="Fill-3" d="M29,27a2,2,0,0,1-2,2H5a2,2,0,0,1-2-2V9A2,2,0,0,1,5,7H27a2,2,0,0,1,2,2ZM11,5H21V3H11ZM27,5H23V1H9V5H5A4,4,0,0,0,1,9V27a4,4,0,0,0,4,4H27a4,4,0,0,0,4-4V9a4,4,0,0,0-4-4Z" transform="translate(-1 -1)" fill="#1f2555" fill-rule="evenodd"/><path id="be7201a5-5aff-474f-ba18-496d94dba874" data-name="Fill-1" d="M16,11a3,3,0,0,0-3,3v1H12a3,3,0,0,0,0,6h1v1a3,3,0,0,0,6,0V21h1a3,3,0,0,0,0-6H19V14a3,3,0,0,0-3-3m0,2a.94.94,0,0,1,1,1v2a.94.94,0,0,0,1,1h2a1,1,0,0,1,0,2H18a.94.94,0,0,0-1,1v2a.94.94,0,0,1-1,1h0a.94.94,0,0,1-1-1V20a.94.94,0,0,0-1-1H12a1,1,0,0,1,0-2h2a.94.94,0,0,0,1-1V14a.94.94,0,0,1,1-1h0" transform="translate(-1 -1)" fill="#1f2555" fill-rule="evenodd"/></svg>