<?xml version="1.0" encoding="UTF-8" standalone="no"?>
<svg width="24px" height="24px" viewBox="0 0 24 24" version="1.1" xmlns="http://www.w3.org/2000/svg" xmlns:xlink="http://www.w3.org/1999/xlink">
    <!-- Generator: Sketch 47 (45396) - http://www.bohemiancoding.com/sketch -->
    <title>Icon/utility/Indigo/24px/Asset-Presentation</title>
    <desc>Created with Sketch.</desc>
    <defs></defs>
    <g id="Symbols" stroke="none" stroke-width="1" fill="none" fill-rule="evenodd">
        <g id="Icon/utility/Indigo/24px/Asset-Presentation" fill="#1F2555">
            <g id="Page-1" transform="translate(0.000000, 1.000000)">
                <path d="M21,2.2832 L21,14.7172 C21,14.8692 20.869,14.9932 20.709,14.9932 L3.291,14.9932 C3.131,14.9932 3,14.8692 3,14.7172 L3,2.2832 C3,2.1312 3.131,2.0072 3.291,2.0072 L20.709,2.0072 C20.869,2.0072 21,2.1312 21,2.2832 M23,0.0002 L1,0.0002 C0.448,0.0002 0,0.4492 0,1.0002 C0,1.5512 0.448,2.0002 1,2.0002 L1.001,2.0002 C1,2.0142 1,2.0292 1,2.0442 L1,14.9562 C1,16.0842 1.962,17.0022 3.144,17.0022 L9.232,17.0022 L7.136,20.5222 C7.001,20.7492 6.965,21.0152 7.034,21.2702 C7.104,21.5282 7.271,21.7422 7.506,21.8752 C7.979,22.1402 8.587,21.9782 8.863,21.5172 L11.551,17.0022 L12.449,17.0022 L15.138,21.5182 C15.323,21.8292 15.659,22.0032 16.003,22.0022 C16.171,22.0022 16.34,21.9612 16.494,21.8752 C16.729,21.7432 16.896,21.5292 16.966,21.2722 C17.035,21.0162 16.999,20.7502 16.863,20.5202 L14.768,17.0022 L20.857,17.0022 C22.039,17.0022 23,16.0842 23,14.9562 L23,2.0442 C23,2.0292 23,2.0142 22.999,2.0002 L23,2.0002 C23.552,2.0002 24,1.5512 24,1.0002 C24,0.4492 23.552,0.0002 23,0.0002" id="Fill-1"></path>
                <path d="M18.9717,4.0244 L18.9707,4.0244 C18.7027,4.0244 18.4507,4.1294 18.2627,4.3194 L13.8567,9.6074 L9.7647,6.3464 L9.7567,6.3374 L9.7577,6.3134 L9.7047,6.2844 C9.3237,5.9094 8.7057,5.9094 8.3247,6.2904 L4.2607,10.3544 C3.8787,10.7364 3.8787,11.3574 4.2617,11.7404 C4.4517,11.9294 4.7017,12.0244 4.9517,12.0244 C5.2027,12.0244 5.4527,11.9294 5.6447,11.7394 L9.0557,8.3294 L13.2757,11.7004 L13.2877,11.7124 C13.4777,11.9014 13.7287,12.0044 13.9887,12.0044 L13.9957,12.0044 C14.2797,11.9934 14.5217,11.9034 14.7697,11.6384 L19.6807,5.7364 C20.0717,5.3454 20.0717,4.7094 19.6807,4.3184 C19.4917,4.1284 19.2397,4.0244 18.9717,4.0244" id="Fill-3"></path>
            </g>
        </g>
    </g>
</svg>