<?xml version="1.0" encoding="UTF-8" standalone="no"?>
<svg width="24px" height="24px" viewBox="0 0 24 24" version="1.1" xmlns="http://www.w3.org/2000/svg" xmlns:xlink="http://www.w3.org/1999/xlink">
    <!-- Generator: Sketch 46.2 (44496) - http://www.bohemiancoding.com/sketch -->
    <title>Icon/utility/Indigo/24px/Global</title>
    <desc>Created with Sketch.</desc>
    <defs></defs>
    <g id="Symbols" stroke="none" stroke-width="1" fill="none" fill-rule="evenodd">
        <g id="Icon/utility/Indigo/24px/Global">
            <rect id="Rectangle-6" x="0" y="0" width="24" height="24"></rect>
            <path d="M12,1 C13.9956697,1 15.8361461,1.49174855 17.5214844,2.47526042 C19.2068227,3.45877228 20.5412277,4.79317734 21.5247396,6.47851562 C22.5082514,8.16385391 23,10.0043303 23,12 C23,13.9956697 22.5082514,15.8361461 21.5247396,17.5214844 C20.5412277,19.2068227 19.2068227,20.5412277 17.5214844,21.5247396 C15.8361461,22.5082514 13.9956697,23 12,23 C10.0043303,23 8.16385391,22.5082514 6.47851562,21.5247396 C4.79317734,20.5412277 3.45877228,19.2068227 2.47526042,17.5214844 C1.49174855,15.8361461 1,13.9956697 1,12 C1,10.0043303 1.49174855,8.16385391 2.47526042,6.47851562 C3.45877228,4.79317734 4.79317734,3.45877228 6.47851562,2.47526042 C8.16385391,1.49174855 10.0043303,1 12,1 Z M15.9244792,8.46223958 C15.9053818,8.47178824 15.8600264,8.51714369 15.7884115,8.59830729 C15.7167965,8.67947089 15.652344,8.72482634 15.5950521,8.734375 C15.6141494,8.734375 15.6356336,8.71050371 15.6595052,8.66276042 C15.6833769,8.61501712 15.7072481,8.56250029 15.7311198,8.50520833 C15.7549914,8.44791638 15.7717013,8.41449658 15.78125,8.40494792 C15.838542,8.3381073 15.9435756,8.26649344 16.0963542,8.19010417 C16.2300354,8.13281221 16.4782968,8.07552112 16.8411458,8.01822917 C17.1658002,7.9418399 17.4092874,7.99435673 17.5716146,8.17578125 C17.5525173,8.15668393 17.5978727,8.09461858 17.7076823,7.98958333 C17.8174919,7.88454809 17.8867186,7.82725699 17.9153646,7.81770833 C17.9440106,7.79861102 18.0156244,7.77712686 18.1302083,7.75325521 C18.2447922,7.72938356 18.3164061,7.69357663 18.3450521,7.64583333 L18.3736979,7.33072917 C18.259114,7.34027783 18.1755645,7.30685802 18.1230469,7.23046875 C18.0705293,7.15407948 18.0394966,7.05382007 18.0299479,6.9296875 C18.0299479,6.94878482 18.0013024,6.98697888 17.9440104,7.04427083 C17.9440104,6.97743022 17.9225263,6.93923616 17.8795573,6.9296875 C17.8365883,6.92013884 17.7816844,6.9249131 17.7148438,6.94401042 C17.6480031,6.96310773 17.6050348,6.96788199 17.5859375,6.95833333 C17.4904509,6.92968736 17.418837,6.89388042 17.3710938,6.85091146 C17.3233505,6.80794249 17.2851564,6.72916724 17.2565104,6.61458333 C17.2278644,6.49999943 17.2087674,6.42838556 17.1992187,6.39973958 C17.1801214,6.35199629 17.134766,6.29947945 17.063151,6.2421875 C16.9915361,6.18489555 16.9461807,6.13715297 16.9270833,6.09895833 C16.9175347,6.07986102 16.905599,6.0536026 16.891276,6.02018229 C16.8769531,5.98676199 16.8626303,5.95572931 16.8483073,5.92708333 C16.8339843,5.89843736 16.8148873,5.87217894 16.7910156,5.84830729 C16.767144,5.82443564 16.7408856,5.8125 16.7122396,5.8125 C16.6835936,5.8125 16.6501738,5.83637129 16.6119792,5.88411458 C16.5737845,5.93185788 16.5379776,5.97960046 16.5045573,6.02734375 C16.471137,6.07508704 16.4496528,6.09895833 16.4401042,6.09895833 C16.4114582,6.07986102 16.3828126,6.07269963 16.3541667,6.07747396 C16.3255207,6.08224829 16.3040365,6.08702255 16.2897135,6.09179687 C16.2753906,6.0965712 16.2539064,6.11089398 16.2252604,6.13476562 C16.1966144,6.15863727 16.1727432,6.17534717 16.1536458,6.18489583 C16.1249999,6.20399315 16.0844187,6.21831592 16.031901,6.22786458 C15.9793834,6.23741324 15.9388022,6.24696176 15.9101563,6.25651042 C16.0533861,6.20876712 16.0486119,6.15625029 15.8958333,6.09895833 C15.8003467,6.0607637 15.7239586,6.04644092 15.6666667,6.05598958 C15.7526046,6.01779495 15.7884115,5.96050385 15.7740885,5.88411458 C15.7597656,5.80772531 15.7191844,5.7408857 15.6523437,5.68359375 L15.7239583,5.68359375 C15.7144097,5.64539911 15.6738285,5.60481792 15.6022135,5.56184896 C15.5305986,5.51887999 15.4470491,5.4782988 15.3515625,5.44010417 C15.2560759,5.40190953 15.1940106,5.37326398 15.1653646,5.35416667 C15.0889753,5.30642337 14.9266505,5.26106792 14.6783854,5.21809896 C14.4301203,5.17512999 14.2725698,5.17274286 14.2057292,5.2109375 C14.1579859,5.26822945 14.1365017,5.31835916 14.141276,5.36132812 C14.1460504,5.40429709 14.1651474,5.4711367 14.1985677,5.56184896 C14.231988,5.65256122 14.2486979,5.71223944 14.2486979,5.74088542 C14.2582466,5.79817737 14.2319882,5.86024272 14.1699219,5.92708333 C14.1078556,5.99392395 14.0768229,6.05121504 14.0768229,6.09895833 C14.0768229,6.16579895 14.1436625,6.23979994 14.2773438,6.32096354 C14.411025,6.40212714 14.4587676,6.50477368 14.4205729,6.62890625 C14.3919269,6.70529552 14.3155388,6.78168365 14.1914062,6.85807292 C14.0672737,6.93446219 13.9908856,6.99175328 13.9622396,7.02994792 C13.9144963,7.10633719 13.9073349,7.19466096 13.9407552,7.29492187 C13.9741755,7.39518279 14.0243052,7.47395805 14.0911458,7.53125 C14.1102432,7.55034732 14.1174045,7.56944435 14.1126302,7.58854167 C14.1078559,7.60763898 14.091146,7.62912314 14.0625,7.65299479 C14.033854,7.67686644 14.0075956,7.69596347 13.983724,7.71028646 C13.9598523,7.72460945 13.9288196,7.74131935 13.890625,7.76041667 L13.8476562,7.7890625 C13.742621,7.83680579 13.6447487,7.80816025 13.5540365,7.703125 C13.4633242,7.59808975 13.3988717,7.47395905 13.3606771,7.33072917 C13.2938365,7.0920127 13.2174483,6.94878496 13.1315104,6.90104167 C12.9118913,6.8246524 12.7734378,6.82942665 12.7161458,6.91536458 C12.6684025,6.79123202 12.472658,6.66710132 12.1289062,6.54296875 C11.8901898,6.45703082 11.6132828,6.43793379 11.2981771,6.48567708 C11.355469,6.47612842 11.355469,6.40451456 11.2981771,6.27083333 C11.2313365,6.12760345 11.1406256,6.07031236 11.0260417,6.09895833 C11.0546876,6.04166638 11.0737847,5.95811687 11.0833333,5.84830729 C11.092882,5.73849771 11.0976563,5.67404523 11.0976563,5.65494792 C11.1263022,5.53081535 11.1835933,5.42100742 11.2695313,5.32552083 C11.2790799,5.31597217 11.3124997,5.27539098 11.3697917,5.20377604 C11.4270836,5.1321611 11.4724391,5.06770862 11.5058594,5.01041667 C11.5392797,4.95312471 11.5416668,4.92447917 11.5130208,4.92447917 C11.8472239,4.9626738 12.0859368,4.91015697 12.2291667,4.76692708 C12.27691,4.71918379 12.3318139,4.63802141 12.3938802,4.5234375 C12.4559465,4.40885359 12.5060762,4.32769121 12.5442708,4.27994792 C12.6302088,4.22265596 12.6970484,4.19639755 12.7447917,4.20117187 C12.792535,4.2059462 12.8617617,4.23220462 12.952474,4.27994792 C13.0431862,4.32769121 13.112413,4.3515625 13.1601563,4.3515625 C13.2938375,4.36111116 13.3678385,4.30859432 13.3821615,4.19401042 C13.3964844,4.07942651 13.3606775,3.98394135 13.2747396,3.90755208 C13.3893235,3.91710074 13.4036463,3.83593836 13.3177083,3.6640625 C13.2795137,3.59722189 13.2413196,3.55425357 13.203125,3.53515625 C13.0885411,3.49696161 12.9596361,3.5208329 12.8164063,3.60677083 C12.740017,3.64496547 12.7495655,3.68315953 12.8450521,3.72135417 C12.8355034,3.71180551 12.790148,3.76193521 12.7089844,3.87174479 C12.6278208,3.98155437 12.5490455,4.06510388 12.4726563,4.12239583 C12.396267,4.17968779 12.3198789,4.1558165 12.2434896,4.05078125 C12.2339409,4.04123259 12.2076825,3.97678011 12.1647135,3.85742187 C12.1217446,3.73806364 12.0763891,3.67361116 12.0286458,3.6640625 C11.9522566,3.6640625 11.8758684,3.73567637 11.7994792,3.87890625 C11.8281251,3.80251698 11.7756083,3.73090311 11.6419271,3.6640625 C11.5082459,3.59722189 11.3936637,3.55902783 11.2981771,3.54947917 C11.4796016,3.43489526 11.4414075,3.3059903 11.1835937,3.16276042 C11.1167531,3.12456578 11.0188809,3.10069449 10.889974,3.09114583 C10.7610671,3.08159717 10.667969,3.10069421 10.6106771,3.1484375 C10.5629338,3.21527811 10.5366754,3.27018208 10.531901,3.31315104 C10.5271267,3.35612001 10.550998,3.39431407 10.6035156,3.42773437 C10.6560332,3.46115468 10.706163,3.4874131 10.7539063,3.50651042 C10.8016495,3.52560773 10.8565535,3.54470477 10.9186198,3.56380208 C10.9806861,3.5828994 11.0212673,3.59722217 11.0403646,3.60677083 C11.1740458,3.70225742 11.2122399,3.76909703 11.1549479,3.80729167 C11.1358506,3.81684033 11.0952694,3.83355023 11.0332031,3.85742187 C10.9711368,3.88129352 10.9162329,3.90277768 10.8684896,3.921875 C10.8207463,3.94097232 10.7921007,3.96006935 10.7825521,3.97916667 C10.7539061,4.0173613 10.7539061,4.08420091 10.7825521,4.1796875 C10.8111981,4.27517409 10.8016495,4.3420137 10.7539063,4.38020833 C10.706163,4.33246504 10.6631946,4.24891553 10.625,4.12955729 C10.5868054,4.01019906 10.5533856,3.9314238 10.5247396,3.89322917 C10.5915802,3.9791671 10.4722237,4.00781264 10.1666667,3.97916667 L10.0234375,3.96484375 C9.98524286,3.96484375 9.90885474,3.97439227 9.79427083,3.99348958 C9.67968693,4.0125869 9.58181464,4.01736116 9.50065104,4.0078125 C9.41948744,3.99826384 9.35503496,3.96006978 9.30729167,3.89322917 C9.26909703,3.8168399 9.26909703,3.72135474 9.30729167,3.60677083 C9.31684033,3.5685762 9.33593736,3.55902768 9.36458333,3.578125 C9.3263887,3.54947902 9.27387186,3.50412357 9.20703125,3.44205729 C9.14019064,3.37999101 9.09244806,3.33940982 9.06380208,3.3203125 C8.62456378,3.46354238 8.17578354,3.65928695 7.71744792,3.90755208 C7.77473987,3.91710074 7.83203096,3.91232648 7.88932292,3.89322917 C7.93706621,3.87413185 7.99913156,3.84309917 8.07552083,3.80013021 C8.1519101,3.75716124 8.19965268,3.73090283 8.21875,3.72135417 C8.5434044,3.58767294 8.74392323,3.55425314 8.8203125,3.62109375 L8.89192708,3.54947917 C9.02560831,3.70225771 9.12109346,3.82161415 9.17838542,3.90755208 C9.1115448,3.86935745 8.96831707,3.86458319 8.74869792,3.89322917 C8.55772474,3.95052112 8.45269107,4.00781221 8.43359375,4.06510417 C8.50043436,4.17968807 8.52430565,4.26562471 8.50520833,4.32291667 C8.4670137,4.29427069 8.41210973,4.24652811 8.34049479,4.1796875 C8.26887985,4.11284689 8.19965311,4.06033005 8.1328125,4.02213542 C8.06597189,3.98394078 7.99435802,3.96006949 7.91796875,3.95052083 C7.76519021,3.95052083 7.66015654,3.95529509 7.60286458,3.96484375 C6.20876039,4.72873646 5.0868098,5.78862169 4.23697917,7.14453125 C4.30381978,7.21137186 4.36111087,7.24956592 4.40885417,7.25911458 C4.4470488,7.26866324 4.47092009,7.31163156 4.48046875,7.38802083 C4.49001741,7.4644101 4.50195305,7.51692694 4.51627604,7.54557292 C4.53059903,7.57421889 4.58550299,7.55989612 4.68098958,7.50260417 C4.76692751,7.57899344 4.78125029,7.66970434 4.72395833,7.77473958 C4.73350699,7.76519092 4.94357434,7.89409589 5.35416667,8.16145833 C5.53559118,8.32378553 5.6358506,8.42404495 5.65494792,8.46223958 C5.68359389,8.56727483 5.63585132,8.65321147 5.51171875,8.72005208 C5.50217009,8.70095477 5.45920177,8.65798645 5.3828125,8.59114583 C5.30642323,8.52430522 5.26345491,8.50520819 5.25390625,8.53385417 C5.22526027,8.58159746 5.2276474,8.66992123 5.26106771,8.79882812 C5.29448801,8.92773502 5.34461772,8.98741324 5.41145833,8.97786458 C5.34461772,8.97786458 5.29926227,9.05425271 5.27539062,9.20703125 C5.25151898,9.35980979 5.23958333,9.52929594 5.23958333,9.71549479 C5.23958333,9.90169364 5.23480908,10.0138887 5.22526042,10.0520833 L5.25390625,10.0664062 C5.22526027,10.1809902 5.25151869,10.3457021 5.33268229,10.5605469 C5.41384589,10.7753917 5.51649243,10.8684897 5.640625,10.8398437 C5.51649243,10.8684897 5.61197759,11.0737828 5.92708333,11.4557292 C5.98437529,11.5321184 6.02256935,11.5750868 6.04166667,11.5846354 C6.07031264,11.6037327 6.12760374,11.6395397 6.21354167,11.6920573 C6.2994796,11.7445749 6.37109346,11.7923175 6.42838542,11.8352865 C6.48567737,11.8782554 6.53341995,11.9283851 6.57161458,11.9856771 C6.60980922,12.0334204 6.6575518,12.1408412 6.71484375,12.3079427 C6.7721357,12.4750442 6.83897531,12.5872393 6.91536458,12.6445312 C6.89626727,12.7018232 6.94162271,12.7973084 7.05143229,12.9309896 C7.16124187,13.0646708 7.21137158,13.1744787 7.20182292,13.2604167 C7.19227426,13.2604167 7.18033861,13.2651909 7.16601562,13.2747396 C7.15169264,13.2842882 7.13975699,13.2890625 7.13020833,13.2890625 C7.15885431,13.3559031 7.23285531,13.4227427 7.35221354,13.4895833 C7.47157178,13.5564239 7.54557277,13.6184893 7.57421875,13.6757812 C7.58376741,13.7044272 7.59331592,13.7521698 7.60286458,13.8190104 C7.61241324,13.885851 7.62673602,13.9383679 7.64583333,13.9765625 C7.66493065,14.0147571 7.70312471,14.0243057 7.76041667,14.0052083 C7.77951398,13.8142352 7.6649318,13.5182312 7.41666667,13.1171875 C7.27343678,12.878471 7.1922744,12.7400176 7.17317708,12.7018229 C7.14453111,12.6540796 7.11827269,12.5800786 7.09440104,12.4798177 C7.07052939,12.3795568 7.04904523,12.3103301 7.02994792,12.2721354 C7.04904523,12.2721354 7.07769078,12.2792968 7.11588542,12.2936198 C7.15408005,12.3079428 7.19466124,12.3246527 7.23763021,12.34375 C7.28059917,12.3628473 7.31640611,12.3819443 7.34505208,12.4010417 C7.37369806,12.420139 7.38324658,12.4344618 7.37369792,12.4440104 C7.34505194,12.510851 7.35460046,12.5944005 7.40234375,12.6946615 C7.45008704,12.7949224 7.50737814,12.8832461 7.57421875,12.9596354 C7.64105936,13.0360247 7.72222174,13.1267356 7.81770833,13.2317708 C7.91319492,13.3368061 7.97048602,13.3988714 7.98958333,13.4179687 C8.04687529,13.4752607 8.1137149,13.5683587 8.19010417,13.6972656 C8.26649344,13.8261725 8.26649344,13.890625 8.19010417,13.890625 C8.2760421,13.890625 8.37152725,13.9407547 8.4765625,14.0410156 C8.58159775,14.1412765 8.66276013,14.2343746 8.72005208,14.3203125 C8.76779538,14.3967018 8.80598944,14.5208325 8.83463542,14.6927083 C8.86328139,14.8645842 8.88715268,14.9791664 8.90625,15.0364583 C8.92534732,15.1032989 8.96592851,15.1677514 9.02799479,15.2298177 C9.09006107,15.291884 9.1497393,15.3372394 9.20703125,15.3658854 L9.43619792,15.4804687 C9.53168451,15.528212 9.59374986,15.5616318 9.62239583,15.5807292 C9.67013913,15.5998265 9.7584629,15.6499562 9.88736979,15.7311198 C10.0162767,15.8122834 10.1189232,15.8671874 10.1953125,15.8958333 C10.2907991,15.934028 10.3671872,15.953125 10.4244792,15.953125 C10.4817711,15.953125 10.5509979,15.9411894 10.6321615,15.9173177 C10.7133251,15.8934461 10.7777775,15.8767362 10.8255208,15.8671875 C10.9687507,15.8480902 11.1072042,15.919704 11.2408854,16.0820312 C11.3745666,16.2443585 11.4748261,16.3446179 11.5416667,16.3828125 C11.8854184,16.564237 12.1480026,16.6167539 12.3294271,16.5403646 C12.3103298,16.5499132 12.3127169,16.5857202 12.3365885,16.6477865 C12.3604602,16.7098527 12.3986543,16.7838537 12.4511719,16.8697917 C12.5036895,16.9557296 12.5466578,17.0249563 12.5800781,17.077474 C12.6134984,17.1299916 12.6397568,17.1705728 12.6588542,17.1992187 C12.7065975,17.2565107 12.7925341,17.3281246 12.9166667,17.4140625 C13.0407992,17.5000004 13.1267359,17.5716143 13.1744792,17.6289062 C13.2317711,17.5907116 13.2651909,17.5477433 13.2747396,17.5 C13.2460936,17.5763893 13.2795134,17.6718744 13.375,17.7864583 C13.4704866,17.9010422 13.5564232,17.9487848 13.6328125,17.9296875 C13.7664937,17.9010415 13.8333333,17.7482653 13.8333333,17.4713542 C13.5373249,17.614584 13.3033863,17.5286474 13.1315104,17.2135417 C13.1315104,17.203993 13.1195748,17.1777346 13.0957031,17.1347656 C13.0718315,17.0917967 13.0527344,17.0512155 13.0384115,17.0130208 C13.0240885,16.9748262 13.0121528,16.934245 13.0026042,16.891276 C12.9930555,16.8483071 12.9930555,16.8125001 13.0026042,16.7838542 C13.0121528,16.7552082 13.0360241,16.7408854 13.0742188,16.7408854 C13.1601567,16.7408854 13.2078993,16.7241755 13.2174479,16.6907552 C13.2269966,16.6573349 13.2174481,16.5976567 13.1888021,16.5117187 C13.1601561,16.4257808 13.1410591,16.3637155 13.1315104,16.3255208 C13.1219618,16.2491316 13.0694449,16.1536464 12.9739583,16.0390625 C12.8784717,15.9244786 12.8211807,15.8528647 12.8020833,15.8242187 C12.75434,15.9101567 12.6779519,15.9483507 12.5729167,15.9388021 C12.4678814,15.9292534 12.3914933,15.8862851 12.34375,15.8098958 C12.34375,15.8194445 12.3365886,15.8457029 12.3222656,15.8886719 C12.3079426,15.9316408 12.3007813,15.9626735 12.3007813,15.9817708 C12.1766487,15.9817708 12.1050348,15.9769966 12.0859375,15.9674479 C12.0954862,15.9388019 12.1074218,15.8552524 12.1217448,15.7167969 C12.1360678,15.5783413 12.1527777,15.4709205 12.171875,15.3945312 C12.1814237,15.3563366 12.2076821,15.2990455 12.250651,15.2226562 C12.29362,15.146267 12.3294269,15.0770402 12.3580729,15.014974 C12.3867189,14.9529077 12.4058159,14.8932295 12.4153646,14.8359375 C12.4249132,14.7786455 12.4034291,14.7332901 12.3509115,14.6998698 C12.2983938,14.6664495 12.2148443,14.6545138 12.1002604,14.6640625 C11.9188359,14.6736112 11.7947052,14.7690963 11.7278646,14.9505208 C11.7183159,14.9791668 11.7039932,15.0292965 11.6848958,15.1009115 C11.6657985,15.1725264 11.6419272,15.2274304 11.6132813,15.265625 C11.5846353,15.3038196 11.541667,15.3372394 11.484375,15.3658854 C11.4175344,15.3945314 11.3029522,15.4040799 11.140625,15.3945312 C10.9782978,15.3849826 10.8637156,15.3611113 10.796875,15.3229167 C10.6727424,15.2465274 10.5653216,15.1080739 10.4746094,14.9075521 C10.3838971,14.7070302 10.3385417,14.5303827 10.3385417,14.3776042 C10.3385417,14.2821176 10.3504773,14.1555997 10.374349,13.9980469 C10.3982206,13.840494 10.4125434,13.7211376 10.4173177,13.639974 C10.422092,13.5588104 10.3958336,13.441841 10.3385417,13.2890625 C10.3671876,13.2699652 10.410156,13.2246097 10.4674479,13.1529948 C10.5247399,13.0813799 10.5724824,13.0312501 10.6106771,13.0026042 C10.6297744,12.9930555 10.6512586,12.9858941 10.6751302,12.9811198 C10.6990019,12.9763455 10.720486,12.9763455 10.7395833,12.9811198 C10.7586807,12.9858941 10.7777777,12.9787327 10.796875,12.9596354 C10.8159723,12.9405381 10.8302951,12.9118926 10.8398437,12.8736979 C10.8302951,12.8641493 10.8111981,12.8498265 10.7825521,12.8307292 C10.7539061,12.8020832 10.7348091,12.7877604 10.7252604,12.7877604 C10.792101,12.8164064 10.9281674,12.809245 11.1334635,12.766276 C11.3387597,12.7233071 11.4700518,12.7304685 11.5273437,12.7877604 C11.6705736,12.8927957 11.7756073,12.8832471 11.8424479,12.7591146 C11.8424479,12.7495659 11.8305123,12.7042105 11.8066406,12.6230469 C11.782769,12.5418833 11.7803818,12.4774308 11.7994792,12.4296875 C11.8472225,12.6875013 11.9856759,12.7304696 12.2148438,12.5585937 C12.2434897,12.5872397 12.3174907,12.611111 12.436849,12.6302083 C12.5562072,12.6493057 12.6397567,12.6731769 12.6875,12.7018229 C12.716146,12.7209202 12.7495658,12.7471787 12.7877604,12.780599 C12.8259551,12.8140193 12.8522135,12.8355034 12.8665365,12.8450521 C12.8808594,12.8546007 12.9047307,12.8522136 12.938151,12.8378906 C12.9715713,12.8235676 13.0121525,12.792535 13.0598958,12.7447917 C13.1553824,12.8784729 13.2126735,12.9930551 13.2317708,13.0885417 C13.3368061,13.470488 13.427517,13.6805554 13.5039063,13.71875 C13.5707469,13.747396 13.6232637,13.7569445 13.6614583,13.7473958 C13.699653,13.7378472 13.7211371,13.6924917 13.7259115,13.6113281 C13.7306858,13.5301645 13.7306858,13.4633249 13.7259115,13.4108073 C13.7211371,13.3582897 13.7139757,13.2986114 13.7044271,13.2317708 L13.6901042,13.1171875 L13.6901042,12.859375 L13.6757813,12.7447917 C13.5325514,12.7161457 13.4442276,12.6588546 13.4108073,12.5729167 C13.377387,12.4869787 13.3845484,12.398655 13.4322917,12.3079427 C13.480035,12.2172304 13.5516488,12.1289067 13.6471354,12.0429687 C13.6566841,12.0334201 13.6948781,12.0167102 13.7617188,11.9928385 C13.8285594,11.9689669 13.9025604,11.9379342 13.983724,11.8997396 C14.0648876,11.8615449 14.1245658,11.8233509 14.1627604,11.7851562 C14.3632823,11.6037317 14.4348961,11.4366327 14.3776042,11.2838542 C14.4444448,11.2838542 14.4969616,11.2408858 14.5351562,11.1549479 C14.5256076,11.1549479 14.5017363,11.1406251 14.4635417,11.1119792 C14.425347,11.0833332 14.3895401,11.0594619 14.3561198,11.0403646 C14.3226995,11.0212673 14.3012153,11.0117187 14.2916667,11.0117187 C14.3776046,10.9639755 14.3871531,10.8875873 14.3203125,10.7825521 C14.3680558,10.7539061 14.4038627,10.7013893 14.4277344,10.625 C14.451606,10.5486107 14.487413,10.5008682 14.5351562,10.4817708 C14.6210942,10.5963547 14.7213536,10.6059033 14.8359375,10.5104167 C14.9123268,10.4340274 14.917101,10.3576393 14.8502604,10.28125 C14.8980037,10.2144094 14.995876,10.1642797 15.1438802,10.1308594 C15.2918844,10.0974391 15.3802082,10.0520836 15.4088542,9.99479167 C15.4756948,10.013889 15.5138888,10.0043405 15.5234375,9.96614583 C15.5329862,9.9279512 15.5377604,9.8706601 15.5377604,9.79427083 C15.5377604,9.71788156 15.5520832,9.66059047 15.5807292,9.62239583 C15.6189238,9.57465254 15.6905377,9.53168422 15.7955729,9.49348958 C15.9006082,9.45529495 15.9626735,9.43142366 15.9817708,9.421875 L16.2252604,9.26432292 C16.2539064,9.22612828 16.2539064,9.20703125 16.2252604,9.20703125 C16.3971363,9.22612857 16.5451383,9.17361173 16.6692708,9.04947917 C16.7647574,8.94444392 16.7361119,8.84895876 16.5833333,8.76302083 C16.6119793,8.70572888 16.5976565,8.66037343 16.5403646,8.62695312 C16.4830726,8.59353282 16.4114588,8.5672744 16.3255208,8.54817708 C16.3541668,8.53862842 16.4090708,8.5362413 16.4902344,8.54101562 C16.571398,8.54578995 16.6215277,8.53862857 16.640625,8.51953125 C16.7838549,8.42404466 16.7504351,8.34765654 16.5403646,8.29036458 C16.3780374,8.24262129 16.1727443,8.29991238 15.9244792,8.46223958 Z M13.5898437,21.0234375 C15.5568675,20.6796858 17.232632,19.7773511 18.6171875,18.3164062 C18.5885415,18.2877603 18.5288633,18.2662761 18.438151,18.2519531 C18.3474388,18.2376301 18.2877606,18.2209202 18.2591146,18.2018229 C18.0872387,18.1349823 17.9726565,18.0967882 17.9153646,18.0872396 C17.9249132,18.020399 17.9129776,17.9583336 17.8795573,17.9010417 C17.846137,17.8437497 17.8079429,17.8007814 17.764974,17.7721354 C17.722005,17.7434894 17.6623268,17.7052954 17.5859375,17.6575521 C17.5095482,17.6098088 17.4570314,17.576389 17.4283854,17.5572917 C17.4092881,17.5381943 17.3758683,17.5095488 17.328125,17.4713542 C17.2803817,17.4331595 17.2469619,17.4069011 17.2278646,17.3925781 C17.2087673,17.3782551 17.1729603,17.356771 17.1204427,17.328125 C17.0679251,17.299479 17.0273439,17.2899305 16.9986979,17.2994792 C16.9700519,17.3090278 16.9223094,17.3138021 16.8554687,17.3138021 L16.8125,17.328125 C16.783854,17.3376737 16.7575956,17.3496093 16.733724,17.3639323 C16.7098523,17.3782553 16.6835939,17.3925781 16.6549479,17.406901 C16.6263019,17.421224 16.6072049,17.4355468 16.5976562,17.4498698 C16.5881076,17.4641928 16.5881076,17.4761284 16.5976562,17.4856771 C16.3971344,17.3233499 16.2252611,17.2183162 16.0820313,17.1705729 C16.034288,17.1610243 15.9817711,17.1347658 15.9244792,17.0917969 C15.8671872,17.0488279 15.8170575,17.0154081 15.7740885,16.9915365 C15.7311196,16.9676648 15.683377,16.9605034 15.6308594,16.9700521 C15.5783418,16.9796007 15.5234378,17.0130205 15.4661458,17.0703125 C15.4184025,17.1180558 15.389757,17.1896697 15.3802083,17.2851562 C15.3706597,17.3806428 15.3611112,17.4427082 15.3515625,17.4713542 C15.2847219,17.4236109 15.2847219,17.3400614 15.3515625,17.2207031 C15.4184031,17.1013449 15.4279516,17.0130211 15.3802083,16.9557292 C15.3515624,16.8984372 15.3014326,16.8769531 15.2298177,16.891276 C15.1582028,16.905599 15.1009117,16.9270832 15.0579427,16.9557292 C15.0149737,16.9843751 14.9600698,17.0249563 14.8932292,17.077474 C14.8263886,17.1299916 14.7834202,17.1610243 14.7643229,17.1705729 C14.7452256,17.1801216 14.7046444,17.20638 14.6425781,17.249349 C14.5805118,17.2923179 14.5399307,17.3281249 14.5208333,17.3567708 C14.4921874,17.3949655 14.4635418,17.4522566 14.4348958,17.5286458 C14.4062499,17.6050351 14.3823786,17.6575519 14.3632813,17.6861979 C14.3441839,17.6480033 14.28928,17.6169706 14.1985677,17.593099 C14.1078554,17.5692273 14.0625,17.5429689 14.0625,17.5143229 C14.0815973,17.6098095 14.1006943,17.7769085 14.1197917,18.015625 C14.138889,18.2543415 14.1627603,18.4357633 14.1914062,18.5598958 C14.2582469,18.8559043 14.2009558,19.0850686 14.0195313,19.2473958 C13.7617175,19.4861123 13.623264,19.6770826 13.6041667,19.8203125 C13.565972,20.030383 13.6232631,20.1545137 13.7760417,20.1927083 C13.7760417,20.2595489 13.7378476,20.3574212 13.6614583,20.4863281 C13.5850691,20.615235 13.5516493,20.7178816 13.5611979,20.7942708 C13.5611979,20.8515628 13.5707464,20.9279509 13.5898437,21.0234375 Z" id="Global" fill="#1F2555"></path>
        </g>
    </g>
</svg>