<?xml version="1.0" encoding="UTF-8" standalone="no"?>
<svg width="24px" height="24px" viewBox="0 0 24 24" version="1.1" xmlns="http://www.w3.org/2000/svg" xmlns:xlink="http://www.w3.org/1999/xlink">
    <!-- Generator: Sketch 46.2 (44496) - http://www.bohemiancoding.com/sketch -->
    <title>Icon/utility/Indigo/24px/menu</title>
    <desc>Created with Sketch.</desc>
    <defs></defs>
    <g id="Symbols" stroke="none" stroke-width="1" fill="none" fill-rule="evenodd">
        <g id="Icon/utility/Indigo/24px/menu">
            <rect id="Rectangle-6" x="0" y="0" width="24" height="24"></rect>
            <g id="Page-1" transform="translate(2.000000, 4.000000)" fill="#1F2555">
                <path d="M19,7 L1,7 C0.45,7 0,7.45 0,8 C0,8.55 0.45,9 1,9 L19,9 C19.55,9 20,8.55 20,8 C20,7.45 19.55,7 19,7" id="Fill-1"></path>
                <path d="M1,2 L19,2 C19.55,2 20,1.55 20,1 C20,0.45 19.55,0 19,0 L1,0 C0.45,0 0,0.45 0,1 C0,1.55 0.45,2 1,2" id="Fill-3"></path>
                <path d="M19,14 L1,14 C0.45,14 0,14.45 0,15 C0,15.55 0.45,16 1,16 L19,16 C19.55,16 20,15.55 20,15 C20,14.45 19.55,14 19,14" id="Fill-5"></path>
            </g>
        </g>
    </g>
</svg>