<svg width="96" height="27" viewBox="0 0 96 27" xmlns="http://www.w3.org/2000/svg"><g fill="none" fill-rule="evenodd"><path d="M11.25 7h7.5a.25.25 0 0 1 .25.25v4.5a.25.25 0 0 1-.25.25h-7.5a.25.25 0 0 1-.25-.25v-4.5a.25.25 0 0 1 .25-.25z" fill="#FFCC4C"/><path d="M1.01 11.25l2.38-4.125A.25.25 0 0 1 3.605 7H8.75a.25.25 0 0 1 .25.25v4.5a.25.25 0 0 1-.25.25H1.443a.5.5 0 0 1-.433-.75z" fill="#F63"/><path d="M21 11.75v-4.5a.25.25 0 0 1 .25-.25h5.144a.25.25 0 0 1 .217.125l2.38 4.125a.5.5 0 0 1-.434.75H21.25a.25.25 0 0 1-.25-.25z" fill="#E1E2EB"/><path d="M13 .25v4.5a.25.25 0 0 1-.25.25H5.048a.25.25 0 0 1-.216-.375l2.09-3.624A2 2 0 0 1 8.656 0h4.095a.25.25 0 0 1 .25.25z" fill="#F63"/><path d="M15.25 0h6.095a2 2 0 0 1 1.732 1l2.091 3.625a.25.25 0 0 1-.216.375H15.25a.25.25 0 0 1-.25-.25V.25a.25.25 0 0 1 .25-.25z" fill="#FFCC4C"/><path d="M6.923 25l-2.091-3.625A.25.25 0 0 1 5.048 21h9.702a.25.25 0 0 1 .25.25v4.5a.25.25 0 0 1-.25.25H8.655a2 2 0 0 1-1.732-1z" fill="#6C79D9"/><path d="M17.25 21h7.702a.25.25 0 0 1 .216.375l-2.09 3.624A2 2 0 0 1 21.344 26H17.25a.25.25 0 0 1-.25-.25v-4.5a.25.25 0 0 1 .25-.25z" fill="#12B3B3"/><path d="M11 14.25v4.5a.25.25 0 0 1-.25.25H3.606a.25.25 0 0 1-.217-.125L1.01 14.75a.5.5 0 0 1 .434-.75h9.307a.25.25 0 0 1 .25.25z" fill="#6C79D9"/><path d="M13.25 14h15.307a.5.5 0 0 1 .433.75l-2.38 4.125a.25.25 0 0 1-.216.125H13.25a.25.25 0 0 1-.25-.25v-4.5a.25.25 0 0 1 .25-.25z" fill="#12B3B3"/><g fill="#FFF"><path d="M73.774 0h6.074c.13 0 .234.105.234.234v25.22c0 .13-.104.234-.234.234h-6.074a.234.234 0 0 1-.234-.234V.234c0-.13.105-.234.234-.234zM44.742 6.613c1.699 0 3.242.392 4.631 1.177 1.39.784 2.491 1.91 3.306 3.375.815 1.466 1.222 3.168 1.222 5.107 0 1.938-.407 3.646-1.222 5.123-.815 1.478-1.917 2.614-3.306 3.41-1.389.797-2.932 1.195-4.631 1.195-2.456 0-4.293-.727-5.51-2.181v1.635c0 .13-.104.234-.234.234h-5.764a.234.234 0 0 1-.234-.234V.234c0-.13.105-.234.234-.234h6.074c.13 0 .234.105.234.234v8.317c1.263-1.292 2.996-1.938 5.2-1.938zm-1.377 14.16c1.147 0 2.089-.399 2.823-1.195.735-.796 1.102-1.898 1.102-3.306 0-1.385-.367-2.47-1.102-3.255-.734-.784-1.676-1.177-2.823-1.177-1.148 0-2.09.393-2.824 1.177-.735.785-1.102 1.87-1.102 3.255 0 1.408.367 2.51 1.102 3.306.735.796 1.676 1.194 2.824 1.194z"/><path d="M62.806 26c-5.4 0-9.779-4.378-9.779-9.78 0-5.4 4.378-9.779 9.78-9.779 5.4 0 9.779 4.379 9.779 9.78 0 5.4-4.379 9.779-9.78 9.779zm-.058-5.27a4.45 4.45 0 1 0 0-8.901 4.45 4.45 0 0 0 0 8.9zM89.559 8.188l5.386-.016c.13 0 .235.104.235.234v5.302c0 .13-.104.234-.233.235l-5.388.016v4.785c0 1.035.839 1.874 1.873 1.874h3.514c.13 0 .234.104.234.234v4.919c0 .129-.105.234-.234.234h-5.387A6.559 6.559 0 0 1 83 19.446V6.596c0-.165.088-.318.23-.403l5.975-3.52a.234.234 0 0 1 .354.201v5.314z"/></g></g></svg>