<?xml version="1.0" encoding="UTF-8" standalone="no"?>
<svg width="24px" height="24px" viewBox="0 0 24 24" version="1.1" xmlns="http://www.w3.org/2000/svg" xmlns:xlink="http://www.w3.org/1999/xlink">
    <!-- Generator: Sketch 46.2 (44496) - http://www.bohemiancoding.com/sketch -->
    <title>Icon/utility/Indigo/24px/Asset-Text</title>
    <desc>Created with Sketch.</desc>
    <defs>
        <polygon id="path-1" points="0 0.9999 0 0 20 0 20 0.9999 20 1.9998 0 1.9998 0 0.9999"></polygon>
    </defs>
    <g id="Symbols" stroke="none" stroke-width="1" fill="none" fill-rule="evenodd">
        <g id="Icon/utility/Indigo/24px/Asset-Text">
            <g id="Page-1" transform="translate(2.000000, 5.000000)">
                <path d="M1,5.9998 L15,5.9998 C15.55,5.9998 16,5.5498 16,4.9998 C16,4.4498 15.55,3.9998 15,3.9998 L1,3.9998 C0.45,3.9998 0,4.4498 0,4.9998 C0,5.5498 0.45,5.9998 1,5.9998" id="Fill-1" fill="#1F2555"></path>
                <g id="Group-5">
                    <mask id="mask-2" fill="white">
                        <use xlink:href="#path-1"></use>
                    </mask>
                    <g id="Clip-4"></g>
                    <path d="M1,1.9998 L19,1.9998 C19.55,1.9998 20,1.5498 20,0.9998 C20,0.4498 19.55,-0.0002 19,-0.0002 L1,-0.0002 C0.45,-0.0002 0,0.4498 0,0.9998 C0,1.5498 0.45,1.9998 1,1.9998" id="Fill-3" fill="#1F2555" mask="url(#mask-2)"></path>
                </g>
                <path d="M19,7.9998 L1,7.9998 C0.45,7.9998 0,8.4498 0,8.9998 C0,9.5498 0.45,9.9998 1,9.9998 L19,9.9998 C19.55,9.9998 20,9.5498 20,8.9998 C20,8.4498 19.55,7.9998 19,7.9998" id="Fill-6" fill="#1F2555"></path>
                <path d="M15,11.9998 L1,11.9998 C0.45,11.9998 0,12.4498 0,12.9998 C0,13.5498 0.45,13.9998 1,13.9998 L15,13.9998 C15.55,13.9998 16,13.5498 16,12.9998 C16,12.4498 15.55,11.9998 15,11.9998" id="Fill-8" fill="#1F2555"></path>
            </g>
        </g>
    </g>
</svg>