<?xml version="1.0" encoding="UTF-8" standalone="no"?>
<svg width="24px" height="24px" viewBox="0 0 24 24" version="1.1" xmlns="http://www.w3.org/2000/svg" xmlns:xlink="http://www.w3.org/1999/xlink">
    <!-- Generator: Sketch 46.2 (44496) - http://www.bohemiancoding.com/sketch -->
    <title>Icon/utility/Indigo/24px/search</title>
    <desc>Created with Sketch.</desc>
    <defs></defs>
    <g id="Symbols" stroke="none" stroke-width="1" fill="none" fill-rule="evenodd">
        <g id="Icon/utility/Indigo/24px/search">
            <rect id="Rectangle-6" x="0" y="0" width="24" height="24"></rect>
            <path d="M9.5176,15.0351 C6.4756,15.0351 3.9996,12.5601 3.9996,9.5171 C3.9996,6.4751 6.4756,4.0001 9.5176,4.0001 C12.5596,4.0001 15.0356,6.4751 15.0356,9.5171 C15.0356,12.5601 12.5596,15.0351 9.5176,15.0351 M21.7066,20.2931 L15.4856,14.0711 C16.4536,12.8061 17.0356,11.2301 17.0356,9.5171 C17.0356,5.3721 13.6636,2.0001 9.5176,2.0001 C5.3716,2.0001 1.9996,5.3721 1.9996,9.5171 C1.9996,13.6621 5.3716,17.0351 9.5176,17.0351 C11.2306,17.0351 12.8056,16.4531 14.0716,15.4851 L20.2926,21.7071 C20.4886,21.9021 20.7446,22.0001 20.9996,22.0001 C21.2556,22.0001 21.5116,21.9021 21.7066,21.7071 C22.0976,21.3161 22.0976,20.6831 21.7066,20.2931" id="Fill-1" fill="#1F2555"></path>
        </g>
    </g>
</svg>