<?xml version="1.0" encoding="UTF-8" standalone="no"?>
<svg width="24px" height="24px" viewBox="0 0 24 24" version="1.1" xmlns="http://www.w3.org/2000/svg" xmlns:xlink="http://www.w3.org/1999/xlink">
    <!-- Generator: Sketch 46.2 (44496) - http://www.bohemiancoding.com/sketch -->
    <title>Icon/utility/Indigo/24px/Share1</title>
    <desc>Created with Sketch.</desc>
    <defs></defs>
    <g id="Symbols" stroke="none" stroke-width="1" fill="none" fill-rule="evenodd">
        <g id="Icon/utility/Indigo/24px/Share1">
            <rect id="Rectangle-6" x="0" y="0" width="24" height="24"></rect>
            <g id="Share" transform="translate(2.000000, 1.000000)" fill="#1F2555">
                <path d="M6.4727,5.9622 L9.0097,3.4252 L8.9927,16.5592 C8.9927,17.1072 9.4437,17.5582 9.9917,17.5592 C10.2657,17.5592 10.5177,17.4482 10.6987,17.2672 C10.8797,17.0862 10.9907,16.8342 10.9907,16.5602 L10.9907,3.4172 L13.5277,5.9542 C13.9157,6.3422 14.5527,6.3422 14.9417,5.9542 C15.3297,5.5652 15.3297,4.9282 14.9417,4.5392 L10.6987,0.2962 C10.6907,0.2882 10.6807,0.2792 10.6727,0.2712 L10.6657,0.2702 C10.6617,0.2662 10.6617,0.2662 10.6577,0.2612 L10.6537,0.2572 L10.6497,0.2532 L10.6447,0.2492 C10.5657,0.1782 10.4777,0.1252 10.3837,0.0852 L10.3797,0.0812 L10.3747,0.0772 C10.3747,0.0772 10.3707,0.0722 10.3677,0.0772 C10.2737,0.0372 10.1767,0.0202 10.0767,0.0062 L10.0677,0.0062 L10.0587,0.0062 L10.0497,0.0062 L10.0457,0.0022 C10.0107,0.0022 9.9797,-0.0018 9.9487,0.0022 L9.9447,0.0062 L9.9357,0.0062 C9.9357,0.0062 9.9317,0.0102 9.9267,0.0062 L9.9227,0.0102 L9.9137,0.0102 C9.8127,0.0142 9.7157,0.0412 9.6227,0.0812 L9.6187,0.0852 L9.6147,0.0892 L9.6107,0.0942 C9.5177,0.1342 9.4287,0.1862 9.3497,0.2572 L9.3457,0.2612 L9.3407,0.2662 L9.3367,0.2702 L9.3317,0.2742 L9.3277,0.2782 C9.3197,0.2872 9.3107,0.2962 9.3017,0.3052 L5.0587,4.5482 C4.6697,4.9372 4.6697,5.5732 5.0587,5.9622 C5.4477,6.3512 6.0837,6.3512 6.4727,5.9622" id="Fill-1"></path>
                <path d="M19,6.0594 C18.447,6.0594 18,6.5074 18,7.0594 L18,18.0594 C18,18.6104 17.552,19.0594 17,19.0594 L3,19.0594 C2.448,19.0594 2,18.6104 2,18.0594 L2,7.0594 C2,6.5074 1.553,6.0594 1,6.0594 C0.447,6.0594 0,6.5074 0,7.0594 L0,18.0594 C0,19.7134 1.346,21.0594 3,21.0594 L17,21.0594 C18.654,21.0594 20,19.7134 20,18.0594 L20,7.0594 C20,6.5074 19.553,6.0594 19,6.0594" id="Fill-3"></path>
            </g>
        </g>
    </g>
</svg>