<?xml version="1.0" encoding="UTF-8" standalone="no"?>
<svg width="24px" height="24px" viewBox="0 0 24 24" version="1.1" xmlns="http://www.w3.org/2000/svg" xmlns:xlink="http://www.w3.org/1999/xlink">
    <!-- Generator: Sketch 46.2 (44496) - http://www.bohemiancoding.com/sketch -->
    <title>Icon/utility/Indigo/24px/Upload</title>
    <desc>Created with Sketch.</desc>
    <defs></defs>
    <g id="Symbols" stroke="none" stroke-width="1" fill="none" fill-rule="evenodd">
        <g id="Icon/utility/Indigo/24px/Upload">
            <rect id="Rectangle-6" x="0" y="0" width="24" height="24"></rect>
            <g id="Page-1" transform="translate(4.000000, 3.000000)" fill="#1F2555">
                <path d="M15.0229,16.5489 L0.9749,16.5489 C0.4389,16.5489 -0.0001,16.9869 -0.0001,17.5249 C-0.0001,18.0609 0.4389,18.4999 0.9749,18.4999 L15.0229,18.4999 C15.5589,18.4999 15.9989,18.0609 15.9989,17.5249 C15.9989,16.9869 15.5589,16.5489 15.0229,16.5489" id="Fill-1"></path>
                <path d="M2.7495,7.6788 L5.2765,7.6788 L5.2765,14.9998 L10.6095,14.9998 L10.6095,7.6788 L13.2495,7.6788 C13.5345,7.6788 13.7975,7.5268 13.9245,7.2858 C13.9765,7.1898 13.9995,7.0848 13.9995,6.9808 C13.9995,6.8268 13.9475,6.6748 13.8395,6.5528 L8.5895,0.2708 C8.4485,0.0998 8.2285,-0.0002 7.9995,-0.0002 C7.7705,-0.0002 7.5495,0.1008 7.4085,0.2708 L7.4095,0.2708 L2.1595,6.5528 C1.9815,6.7628 1.9485,7.0458 2.0745,7.2858 C2.2005,7.5268 2.4645,7.6788 2.7495,7.6788" id="Fill-4"></path>
            </g>
        </g>
    </g>
</svg>