<!-- Generated by IcoMoon.io -->
<svg version="1.1" xmlns="http://www.w3.org/2000/svg" width="24" height="24" viewBox="0 0 24 24">
<title>alert-triangle</title>
<path d="M11.148 4.374c0.073-0.123 0.185-0.242 0.334-0.332 0.117-0.071 0.241-0.115 0.366-0.134 0.13-0.020 0.263-0.014 0.391 0.017s0.248 0.087 0.355 0.165c0.102 0.075 0.191 0.17 0.26 0.283l8.466 14.133c0.077 0.131 0.128 0.298 0.13 0.482 0.002 0.137-0.024 0.266-0.071 0.383-0.049 0.122-0.122 0.233-0.214 0.327s-0.202 0.169-0.323 0.221c-0.116 0.049-0.244 0.078-0.37 0.079l-16.939 0.002c-0.152-0.001-0.321-0.041-0.481-0.134-0.119-0.069-0.217-0.156-0.293-0.256-0.080-0.104-0.139-0.224-0.173-0.351s-0.043-0.26-0.026-0.39c0.016-0.125 0.057-0.25 0.118-0.355zM9.432 3.346l-8.47 14.14c-0.21 0.364-0.335 0.741-0.385 1.121-0.052 0.395-0.024 0.792 0.077 1.169s0.275 0.735 0.518 1.051c0.234 0.305 0.53 0.569 0.88 0.771 0.464 0.268 0.976 0.4 1.475 0.402h16.943c0.415-0.005 0.803-0.089 1.156-0.24 0.366-0.156 0.694-0.383 0.967-0.662s0.492-0.611 0.64-0.981c0.143-0.356 0.219-0.745 0.215-1.15-0.006-0.536-0.153-1.044-0.406-1.474l-8.474-14.147c-0.213-0.351-0.483-0.641-0.793-0.868-0.321-0.236-0.683-0.402-1.062-0.495s-0.777-0.112-1.17-0.052c-0.38 0.058-0.753 0.191-1.099 0.401-0.429 0.26-0.775 0.615-1.012 1.014zM11 9v4c0 0.552 0.448 1 1 1s1-0.448 1-1v-4c0-0.552-0.448-1-1-1s-1 0.448-1 1zM13 17c0-0.552-0.448-1-1-1s-1 0.448-1 1 0.448 1 1 1 1-0.448 1-1z"></path>
</svg>
