<!-- Generated by IcoMoon.io -->
<svg version="1.1" xmlns="http://www.w3.org/2000/svg" width="24" height="24" viewBox="0 0 24 24">
<title>arrow-right-circle</title>
<path d="M23 12c0-1.488-0.296-2.91-0.833-4.207-0.558-1.347-1.375-2.558-2.388-3.571s-2.224-1.831-3.571-2.388c-1.298-0.538-2.72-0.834-4.208-0.834s-2.91 0.296-4.207 0.833c-1.347 0.558-2.558 1.375-3.571 2.389s-1.831 2.224-2.389 3.571c-0.537 1.297-0.833 2.719-0.833 4.207s0.296 2.91 0.833 4.207c0.558 1.347 1.375 2.558 2.388 3.571s2.224 1.831 3.571 2.388c1.298 0.538 2.72 0.834 4.208 0.834s2.91-0.296 4.207-0.833c1.347-0.558 2.558-1.375 3.571-2.388s1.831-2.224 2.388-3.571c0.538-1.298 0.834-2.72 0.834-4.208zM21 12c0 1.221-0.243 2.383-0.681 3.442-0.456 1.101-1.124 2.092-1.955 2.922s-1.822 1.499-2.922 1.955c-1.059 0.438-2.221 0.681-3.442 0.681s-2.383-0.243-3.442-0.681c-1.101-0.456-2.092-1.124-2.922-1.955-0.831-0.831-1.499-1.822-1.955-2.922-0.438-1.059-0.681-2.221-0.681-3.442s0.243-2.383 0.681-3.442c0.456-1.101 1.124-2.092 1.955-2.922s1.822-1.499 2.922-1.955c1.059-0.438 2.221-0.681 3.442-0.681s2.383 0.243 3.442 0.681c1.101 0.456 2.092 1.124 2.922 1.955 0.831 0.831 1.499 1.822 1.955 2.922 0.438 1.059 0.681 2.221 0.681 3.442zM8 13h5.586l-2.293 2.293c-0.391 0.391-0.391 1.024 0 1.414s1.024 0.391 1.414 0l4-4c0.096-0.096 0.168-0.207 0.217-0.325 0.049-0.12 0.075-0.247 0.076-0.374 0-0.005 0-0.011 0-0.016-0.001-0.127-0.026-0.255-0.076-0.374-0.049-0.118-0.121-0.229-0.217-0.325l-4-4c-0.391-0.391-1.024-0.391-1.414 0s-0.391 1.024 0 1.414l2.293 2.293h-5.586c-0.552 0-1 0.448-1 1s0.448 1 1 1z"></path>
</svg>
