<!-- Generated by IcoMoon.io -->
<svg version="1.1" xmlns="http://www.w3.org/2000/svg" width="24" height="24" viewBox="0 0 24 24">
<title>arrow-down-left</title>
<path d="M17 16h-7.586l8.293-8.293c0.391-0.391 0.391-1.024 0-1.414s-1.024-0.391-1.414 0l-8.293 8.293v-7.586c0-0.552-0.448-1-1-1s-1 0.448-1 1v10c0 0.003 0 0.006 0 0.009 0.001 0.132 0.028 0.258 0.076 0.373 0.101 0.245 0.297 0.441 0.543 0.543 0.114 0.047 0.241 0.074 0.373 0.075 0.003 0 0.005 0 0.008 0h10c0.552 0 1-0.448 1-1s-0.448-1-1-1z"></path>
</svg>
