<!-- Generated by IcoMoon.io -->
<svg version="1.1" xmlns="http://www.w3.org/2000/svg" width="24" height="24" viewBox="0 0 24 24">
<title>crosshair</title>
<path d="M23 12c0-1.488-0.296-2.91-0.833-4.207-0.558-1.347-1.375-2.558-2.388-3.571s-2.224-1.831-3.571-2.388c-1.298-0.538-2.72-0.834-4.208-0.834s-2.91 0.296-4.207 0.833c-1.347 0.558-2.558 1.375-3.571 2.389s-1.831 2.224-2.389 3.571c-0.537 1.297-0.833 2.719-0.833 4.207s0.296 2.91 0.833 4.207c0.558 1.347 1.375 2.558 2.388 3.571s2.224 1.831 3.571 2.388c1.298 0.538 2.72 0.834 4.208 0.834s2.91-0.296 4.207-0.833c1.347-0.558 2.558-1.375 3.571-2.388s1.831-2.224 2.388-3.571c0.538-1.298 0.834-2.72 0.834-4.208zM13 20.945v-2.945c0-0.552-0.448-1-1-1s-1 0.448-1 1v2.945c-0.857-0.095-1.676-0.309-2.442-0.626-1.101-0.456-2.092-1.124-2.922-1.955-0.831-0.831-1.499-1.822-1.955-2.922-0.317-0.766-0.532-1.585-0.626-2.442h2.945c0.552 0 1-0.448 1-1s-0.448-1-1-1h-2.945c0.095-0.857 0.309-1.676 0.626-2.442 0.456-1.101 1.124-2.092 1.955-2.922s1.822-1.499 2.922-1.955c0.766-0.317 1.585-0.532 2.442-0.626v2.945c0 0.552 0.448 1 1 1s1-0.448 1-1v-2.945c0.857 0.095 1.676 0.309 2.442 0.626 1.101 0.456 2.092 1.124 2.922 1.955 0.831 0.831 1.499 1.822 1.955 2.922 0.317 0.766 0.532 1.585 0.626 2.442h-2.945c-0.552 0-1 0.448-1 1s0.448 1 1 1h2.945c-0.095 0.857-0.309 1.676-0.626 2.442-0.456 1.101-1.124 2.092-1.955 2.922s-1.822 1.499-2.922 1.955c-0.766 0.317-1.585 0.532-2.442 0.626z"></path>
</svg>
