<!-- Generated by IcoMoon.io -->
<svg version="1.1" xmlns="http://www.w3.org/2000/svg" width="24" height="24" viewBox="0 0 24 24">
<title>droplet</title>
<path d="M12.707 1.983c-0.391-0.391-1.025-0.39-1.415 0.001l-5.653 5.663c-0.86 0.861-1.511 1.855-1.951 2.917-0.456 1.102-0.684 2.276-0.683 3.448s0.229 2.346 0.685 3.448c0.44 1.062 1.092 2.055 1.953 2.915s1.855 1.511 2.917 1.951c1.102 0.456 2.276 0.684 3.448 0.683s2.346-0.229 3.448-0.685c1.062-0.44 2.055-1.092 2.915-1.953s1.511-1.855 1.951-2.917c0.456-1.102 0.684-2.276 0.683-3.448s-0.229-2.346-0.685-3.448c-0.44-1.062-1.092-2.055-1.952-2.915zM12.001 4.105l4.952 4.952c0.672 0.672 1.178 1.444 1.519 2.267 0.355 0.856 0.533 1.769 0.533 2.682s-0.177 1.827-0.531 2.683c-0.341 0.823-0.846 1.596-1.517 2.268-0.672 0.672-1.444 1.178-2.267 1.519-0.856 0.355-1.769 0.533-2.682 0.533s-1.827-0.177-2.683-0.531c-0.823-0.341-1.596-0.846-2.268-1.517s-1.178-1.444-1.519-2.267c-0.355-0.856-0.533-1.769-0.533-2.682s0.177-1.827 0.531-2.683c0.341-0.823 0.846-1.596 1.517-2.268z"></path>
</svg>
