<!-- Generated by IcoMoon.io -->
<svg version="1.1" xmlns="http://www.w3.org/2000/svg" width="24" height="24" viewBox="0 0 24 24">
<title>edit</title>
<path d="M11 3h-7c-0.405 0-0.793 0.081-1.148 0.228-0.367 0.152-0.697 0.375-0.973 0.651s-0.499 0.606-0.651 0.973c-0.147 0.355-0.228 0.743-0.228 1.148v14c0 0.405 0.081 0.793 0.228 1.148 0.152 0.368 0.375 0.698 0.651 0.974s0.606 0.499 0.974 0.651c0.354 0.146 0.742 0.227 1.147 0.227h14c0.405 0 0.793-0.081 1.148-0.228 0.368-0.152 0.698-0.375 0.974-0.651s0.499-0.606 0.651-0.974c0.146-0.354 0.227-0.742 0.227-1.147v-7c0-0.552-0.448-1-1-1s-1 0.448-1 1v7c0 0.137-0.027 0.266-0.075 0.382-0.050 0.122-0.125 0.232-0.218 0.325s-0.203 0.167-0.325 0.218c-0.116 0.048-0.245 0.075-0.382 0.075h-14c-0.137 0-0.266-0.027-0.382-0.075-0.122-0.050-0.232-0.125-0.325-0.218s-0.167-0.203-0.218-0.325c-0.048-0.116-0.075-0.245-0.075-0.382v-14c0-0.137 0.027-0.266 0.075-0.382 0.050-0.122 0.125-0.232 0.218-0.325s0.203-0.167 0.325-0.218c0.116-0.048 0.245-0.075 0.382-0.075h7c0.552 0 1-0.448 1-1s-0.448-1-1-1zM17.793 1.793l-9.5 9.5c-0.122 0.121-0.217 0.28-0.263 0.465l-1 4c-0.039 0.15-0.042 0.318 0 0.485 0.134 0.536 0.677 0.862 1.213 0.728l4-1c0.167-0.041 0.33-0.129 0.465-0.263l9.5-9.5c0.298-0.298 0.524-0.643 0.677-1.012 0.159-0.383 0.237-0.79 0.237-1.195s-0.079-0.813-0.237-1.195c-0.153-0.369-0.379-0.714-0.677-1.012s-0.643-0.524-1.012-0.677c-0.383-0.159-0.79-0.238-1.196-0.238s-0.813 0.079-1.195 0.237c-0.369 0.153-0.714 0.379-1.012 0.677zM19.207 3.207c0.109-0.109 0.232-0.189 0.363-0.243 0.136-0.057 0.283-0.085 0.43-0.085s0.294 0.029 0.43 0.085c0.131 0.054 0.254 0.135 0.363 0.243s0.189 0.232 0.243 0.363c0.057 0.136 0.085 0.283 0.085 0.43s-0.029 0.294-0.085 0.43c-0.054 0.131-0.135 0.254-0.243 0.363l-9.304 9.304-2.114 0.529 0.529-2.114z"></path>
</svg>
