<!-- Generated by IcoMoon.io -->
<svg version="1.1" xmlns="http://www.w3.org/2000/svg" width="24" height="24" viewBox="0 0 24 24">
<title>eye-off</title>
<path d="M10.128 5.214c0.651-0.152 1.295-0.221 1.86-0.214 0.8 0 1.546 0.114 2.25 0.314 0.862 0.245 1.666 0.62 2.409 1.079 1.119 0.692 2.089 1.567 2.894 2.448 0.644 0.705 1.175 1.405 1.585 2.001 0.323 0.47 0.568 0.871 0.732 1.156-0.546 0.952-1.16 1.821-1.777 2.541-0.359 0.419-0.311 1.051 0.108 1.41s1.051 0.311 1.41-0.108c0.818-0.954 1.611-2.112 2.283-3.37 0.148-0.279 0.163-0.618 0.013-0.919-0.015-0.029-0.396-0.789-1.12-1.843-0.451-0.656-1.038-1.432-1.757-2.218-0.894-0.979-2.004-1.987-3.319-2.8-0.876-0.542-1.849-1-2.914-1.302-0.872-0.247-1.802-0.389-2.773-0.389-0.734-0.009-1.54 0.079-2.34 0.266-0.538 0.126-0.872 0.664-0.746 1.202s0.664 0.872 1.202 0.746zM10.027 11.442l2.531 2.531c-0.182 0.060-0.372 0.094-0.563 0.101-0.262 0.009-0.524-0.032-0.772-0.125-0.238-0.089-0.463-0.225-0.662-0.411s-0.351-0.401-0.456-0.632c-0.11-0.24-0.17-0.499-0.179-0.761-0.008-0.238 0.025-0.477 0.101-0.704zM5.983 7.397l2.553 2.553c-0.145 0.231-0.265 0.474-0.358 0.724-0.186 0.497-0.268 1.022-0.25 1.542s0.138 1.038 0.358 1.52c0.212 0.465 0.518 0.897 0.913 1.265s0.847 0.642 1.326 0.821c0.497 0.186 1.022 0.268 1.542 0.25s1.038-0.138 1.52-0.358c0.159-0.072 0.314-0.156 0.464-0.25l2.322 2.322c-0.514 0.298-1.047 0.54-1.591 0.727-0.915 0.315-1.859 0.475-2.793 0.486-0.776 0-1.522-0.114-2.226-0.314-0.862-0.245-1.666-0.62-2.409-1.079-1.119-0.692-2.089-1.567-2.894-2.448-0.644-0.705-1.175-1.405-1.585-2.001-0.322-0.469-0.567-0.87-0.732-1.155 1.049-1.822 2.376-3.378 3.84-4.606zM0.293 1.707l4.271 4.271c-1.731 1.479-3.269 3.358-4.445 5.549-0.148 0.279-0.164 0.619-0.013 0.92 0.015 0.029 0.396 0.789 1.12 1.843 0.451 0.656 1.038 1.432 1.757 2.218 0.894 0.979 2.004 1.987 3.319 2.8 0.876 0.542 1.849 1 2.914 1.302 0.871 0.248 1.801 0.39 2.796 0.39 1.146-0.014 2.303-0.21 3.42-0.595 0.826-0.285 1.631-0.672 2.394-1.164l4.466 4.466c0.391 0.391 1.024 0.391 1.414 0s0.391-1.024 0-1.414l-22.002-22.002c-0.391-0.391-1.024-0.391-1.414 0-0.39 0.39-0.391 1.023 0 1.414z"></path>
</svg>
