<!-- Generated by IcoMoon.io -->
<svg version="1.1" xmlns="http://www.w3.org/2000/svg" width="24" height="24" viewBox="0 0 24 24">
<title>gift</title>
<path d="M11 13v8h-6v-8zM13 21v-8h6v8zM7.5 6c-0.205 0-0.398-0.041-0.573-0.113-0.183-0.076-0.349-0.187-0.488-0.326s-0.25-0.305-0.326-0.487c-0.072-0.176-0.113-0.369-0.113-0.574s0.041-0.398 0.113-0.573c0.076-0.183 0.187-0.349 0.326-0.488s0.305-0.25 0.487-0.326c0.176-0.072 0.369-0.113 0.574-0.113 0.3 0 0.567 0.050 0.807 0.136 0.278 0.1 0.536 0.252 0.777 0.45 0.376 0.308 0.701 0.718 0.977 1.177 0.241 0.401 0.433 0.821 0.58 1.203zM13.346 6c0.161-0.416 0.352-0.836 0.593-1.237 0.275-0.459 0.601-0.869 0.976-1.177 0.241-0.198 0.499-0.35 0.777-0.449 0.241-0.087 0.508-0.137 0.808-0.137 0.205 0 0.398 0.041 0.573 0.113 0.183 0.076 0.348 0.187 0.487 0.326s0.25 0.305 0.326 0.487c0.073 0.176 0.114 0.369 0.114 0.574s-0.041 0.398-0.113 0.573c-0.076 0.183-0.187 0.348-0.326 0.487s-0.305 0.25-0.487 0.326c-0.176 0.073-0.369 0.114-0.574 0.114zM11 8v3h-8v-3h4.5zM19.663 6c0.025-0.053 0.049-0.107 0.072-0.161 0.171-0.414 0.265-0.867 0.265-1.339s-0.094-0.925-0.265-1.339c-0.178-0.429-0.438-0.814-0.76-1.136s-0.707-0.582-1.136-0.76c-0.414-0.171-0.867-0.265-1.339-0.265-0.531 0-1.026 0.091-1.48 0.253-0.523 0.187-0.978 0.463-1.372 0.786-0.603 0.494-1.068 1.103-1.423 1.694-0.080 0.133-0.155 0.266-0.225 0.398-0.070-0.132-0.145-0.265-0.225-0.398-0.355-0.591-0.82-1.2-1.423-1.694-0.393-0.323-0.849-0.599-1.372-0.786-0.454-0.162-0.949-0.253-1.48-0.253-0.472 0-0.925 0.094-1.339 0.265-0.429 0.178-0.814 0.438-1.136 0.76s-0.582 0.707-0.76 1.136c-0.171 0.414-0.265 0.867-0.265 1.339s0.094 0.925 0.265 1.339c0.023 0.054 0.047 0.108 0.072 0.161h-2.337c-0.552 0-1 0.448-1 1v5c0 0.552 0.448 1 1 1h1v9c0 0.552 0.448 1 1 1h16c0.552 0 1-0.448 1-1v-9h1c0.552 0 1-0.448 1-1v-5c0-0.552-0.448-1-1-1zM13 8h8v3h-8z"></path>
</svg>
