<!-- Generated by IcoMoon.io -->
<svg version="1.1" xmlns="http://www.w3.org/2000/svg" width="24" height="24" viewBox="0 0 24 24">
<title>github</title>
<path d="M8 18.223c-0.4 0.082-0.742 0.113-1.033 0.111-0.336-0.002-0.609-0.050-0.837-0.122-0.231-0.073-0.432-0.176-0.614-0.302-0.119-0.082-0.234-0.177-0.346-0.282-0.078-0.073-0.154-0.151-0.23-0.234-0.184-0.2-0.353-0.415-0.543-0.656-0.104-0.132-0.215-0.273-0.329-0.41-0.046-0.055-0.093-0.111-0.142-0.167-0.067-0.076-0.137-0.153-0.211-0.229-0.1-0.103-0.208-0.205-0.325-0.303-0.161-0.134-0.341-0.261-0.544-0.368-0.185-0.098-0.386-0.177-0.604-0.232-0.536-0.134-1.079 0.192-1.213 0.728s0.192 1.079 0.728 1.213c0.051 0.013 0.102 0.032 0.155 0.060 0.059 0.031 0.124 0.075 0.198 0.136 0.054 0.045 0.111 0.098 0.172 0.161 0.045 0.046 0.091 0.097 0.14 0.152 0.035 0.040 0.071 0.083 0.108 0.127 0.094 0.113 0.189 0.234 0.296 0.37 0.183 0.232 0.397 0.505 0.64 0.769 0.104 0.114 0.215 0.228 0.335 0.341 0.173 0.163 0.364 0.322 0.578 0.469 0.332 0.229 0.711 0.426 1.149 0.564 0.431 0.136 0.904 0.211 1.425 0.215 0.33 0.002 0.679-0.024 1.047-0.080v1.746c0 0.552 0.448 1 1 1s1-0.448 1-1v-3.87c0-0.021-0.001-0.045-0.002-0.069-0.006-0.084-0.007-0.168-0.004-0.251 0.010-0.29 0.073-0.577 0.187-0.846 0.11-0.258 0.269-0.502 0.478-0.719 0.145-0.149 0.246-0.347 0.274-0.572 0.068-0.548-0.321-1.048-0.869-1.116-0.34-0.042-0.677-0.094-1.006-0.159-0.79-0.156-1.518-0.385-2.147-0.733-0.349-0.193-0.666-0.422-0.946-0.696-0.249-0.243-0.475-0.526-0.671-0.858-0.208-0.353-0.386-0.768-0.52-1.262-0.172-0.626-0.274-1.384-0.274-2.305-0.003-0.564 0.1-1.129 0.312-1.661 0.203-0.513 0.506-0.997 0.912-1.423 0.257-0.274 0.35-0.672 0.213-1.040-0.18-0.482-0.27-0.997-0.257-1.519 0.007-0.29 0.045-0.582 0.117-0.872 0.175 0.038 0.398 0.103 0.673 0.21 0.491 0.191 1.145 0.518 1.973 1.073 0.235 0.157 0.533 0.214 0.825 0.133 1.997-0.557 4.242-0.602 6.47 0.002 0.271 0.073 0.569 0.033 0.818-0.135 0.829-0.555 1.482-0.882 1.973-1.073 0.275-0.107 0.499-0.171 0.673-0.209 0.070 0.284 0.109 0.576 0.117 0.872 0.012 0.503-0.069 1.017-0.257 1.521-0.129 0.352-0.058 0.755 0.213 1.040 0.386 0.405 0.696 0.883 0.907 1.411 0.205 0.505 0.318 1.061 0.318 1.646 0 0.936-0.105 1.708-0.281 2.347-0.138 0.499-0.319 0.918-0.53 1.272-0.199 0.333-0.427 0.615-0.679 0.857-0.284 0.272-0.603 0.498-0.955 0.688-0.623 0.336-1.343 0.555-2.123 0.7-0.322 0.060-0.651 0.106-0.983 0.143-0.21 0.023-0.418 0.114-0.584 0.275-0.397 0.384-0.408 1.017-0.024 1.414 0.067 0.069 0.13 0.143 0.188 0.219 0.174 0.229 0.306 0.489 0.387 0.767 0.078 0.267 0.111 0.554 0.087 0.851 0 0.024-0.001 0.051-0.003 0.078v3.869c0 0.552 0.448 1 1 1s1-0.448 1-1v-3.833c0.037-0.529-0.023-1.044-0.165-1.529-0.037-0.126-0.080-0.25-0.127-0.372 0.777-0.171 1.563-0.427 2.297-0.823 0.492-0.266 0.962-0.595 1.388-1.004 0.38-0.364 0.722-0.787 1.014-1.276 0.31-0.52 0.559-1.106 0.741-1.765 0.232-0.84 0.353-1.795 0.353-2.878 0-0.844-0.163-1.652-0.46-2.393-0.231-0.576-0.542-1.11-0.919-1.589 0.148-0.561 0.212-1.128 0.198-1.687-0.019-0.781-0.189-1.543-0.491-2.246-0.122-0.283-0.359-0.482-0.635-0.564-0.146-0.043-0.511-0.115-1.113-0.024-0.349 0.053-0.772 0.16-1.276 0.356-0.559 0.217-1.218 0.544-1.984 1.029-2.273-0.541-4.557-0.509-6.646-0.002-0.765-0.484-1.423-0.81-1.981-1.027-0.504-0.196-0.927-0.303-1.276-0.356-0.602-0.092-0.967-0.020-1.113 0.024-0.296 0.088-0.521 0.3-0.635 0.565-0.313 0.732-0.472 1.494-0.49 2.247-0.013 0.574 0.055 1.141 0.199 1.686-0.393 0.497-0.702 1.039-0.927 1.607-0.307 0.774-0.457 1.593-0.452 2.41 0 1.056 0.118 1.994 0.343 2.821 0.178 0.653 0.422 1.234 0.727 1.751 0.287 0.487 0.624 0.91 0.999 1.275 0.421 0.41 0.885 0.742 1.372 1.012 0.752 0.416 1.56 0.685 2.357 0.867-0.186 0.469-0.287 0.962-0.304 1.457-0.005 0.141-0.003 0.282 0.005 0.423z"></path>
</svg>
