<!-- Generated by IcoMoon.io -->
<svg version="1.1" xmlns="http://www.w3.org/2000/svg" width="24" height="24" viewBox="0 0 24 24">
<title>heart</title>
<path d="M20.133 5.317c0.434 0.434 0.759 0.931 0.977 1.459 0.228 0.55 0.342 1.137 0.342 1.725s-0.115 1.175-0.342 1.725c-0.219 0.529-0.544 1.025-0.976 1.457l-8.134 8.133-8.133-8.133c-0.432-0.432-0.757-0.929-0.976-1.458-0.228-0.55-0.342-1.137-0.342-1.725s0.114-1.175 0.342-1.725c0.219-0.529 0.544-1.025 0.976-1.458s0.929-0.757 1.458-0.976c0.55-0.228 1.137-0.342 1.725-0.342s1.175 0.114 1.725 0.342c0.529 0.219 1.025 0.544 1.458 0.976l1.060 1.060c0.391 0.391 1.024 0.391 1.414 0l1.062-1.062c0.432-0.432 0.929-0.757 1.458-0.976 0.55-0.228 1.137-0.342 1.725-0.342s1.175 0.115 1.725 0.342c0.529 0.219 1.025 0.544 1.457 0.976zM21.547 3.903c-0.621-0.621-1.339-1.092-2.106-1.41-0.796-0.33-1.643-0.495-2.49-0.495s-1.694 0.164-2.49 0.494c-0.767 0.318-1.485 0.788-2.107 1.409l-0.354 0.355-0.353-0.353c-0.621-0.621-1.339-1.092-2.107-1.41-0.796-0.33-1.644-0.494-2.49-0.494s-1.694 0.164-2.49 0.494c-0.767 0.318-1.485 0.788-2.107 1.41s-1.092 1.339-1.41 2.107c-0.33 0.796-0.494 1.643-0.494 2.49s0.165 1.694 0.494 2.49c0.318 0.767 0.788 1.485 1.41 2.107l8.84 8.84c0.391 0.391 1.024 0.391 1.414 0l8.84-8.84c0.621-0.621 1.092-1.339 1.41-2.106 0.33-0.796 0.495-1.643 0.495-2.49s-0.164-1.694-0.494-2.49c-0.318-0.767-0.788-1.485-1.411-2.108z"></path>
</svg>
