<!-- Generated by IcoMoon.io -->
<svg version="1.1" xmlns="http://www.w3.org/2000/svg" width="24" height="24" viewBox="0 0 24 24">
<title>help-circle</title>
<path d="M23 12c0-1.488-0.296-2.91-0.833-4.207-0.558-1.347-1.375-2.558-2.388-3.571s-2.224-1.831-3.571-2.388c-1.298-0.538-2.72-0.834-4.208-0.834s-2.91 0.296-4.207 0.833c-1.347 0.558-2.558 1.375-3.571 2.389s-1.831 2.224-2.389 3.571c-0.537 1.297-0.833 2.719-0.833 4.207s0.296 2.91 0.833 4.207c0.558 1.347 1.375 2.558 2.388 3.571s2.224 1.831 3.571 2.388c1.298 0.538 2.72 0.834 4.208 0.834s2.91-0.296 4.207-0.833c1.347-0.558 2.558-1.375 3.571-2.388s1.831-2.224 2.388-3.571c0.538-1.298 0.834-2.72 0.834-4.208zM21 12c0 1.221-0.243 2.383-0.681 3.442-0.456 1.101-1.124 2.092-1.955 2.922s-1.822 1.499-2.922 1.955c-1.059 0.438-2.221 0.681-3.442 0.681s-2.383-0.243-3.442-0.681c-1.101-0.456-2.092-1.124-2.922-1.955-0.831-0.831-1.499-1.822-1.955-2.922-0.438-1.059-0.681-2.221-0.681-3.442s0.243-2.383 0.681-3.442c0.456-1.101 1.124-2.092 1.955-2.922s1.822-1.499 2.922-1.955c1.059-0.438 2.221-0.681 3.442-0.681s2.383 0.243 3.442 0.681c1.101 0.456 2.092 1.124 2.922 1.955 0.831 0.831 1.499 1.822 1.955 2.922 0.438 1.059 0.681 2.221 0.681 3.442zM10.033 9.332c0.091-0.257 0.227-0.482 0.396-0.671 0.176-0.197 0.39-0.355 0.626-0.469s0.493-0.18 0.757-0.195c0.253-0.014 0.514 0.021 0.771 0.111 0.227 0.080 0.428 0.195 0.602 0.337 0.179 0.147 0.33 0.324 0.448 0.522 0.183 0.307 0.285 0.665 0.286 1.037 0 0.073-0.009 0.147-0.026 0.219-0.019 0.081-0.049 0.162-0.091 0.246-0.080 0.16-0.203 0.325-0.368 0.49-0.205 0.205-0.455 0.391-0.718 0.553-0.218 0.135-0.434 0.246-0.62 0.333-0.131 0.061-0.245 0.109-0.331 0.144-0.053 0.021-0.095 0.037-0.123 0.047-0.563 0.189-0.847 0.755-0.672 1.279s0.741 0.807 1.265 0.632c0.025-0.008 0.311-0.105 0.709-0.291 0.24-0.112 0.526-0.26 0.823-0.443 0.352-0.217 0.736-0.496 1.080-0.84 0.279-0.279 0.545-0.614 0.743-1.010 0.105-0.21 0.191-0.437 0.248-0.681 0.052-0.218 0.080-0.446 0.080-0.688-0.004-0.731-0.204-1.437-0.567-2.049-0.235-0.395-0.538-0.75-0.9-1.047-0.351-0.288-0.756-0.519-1.205-0.677-0.509-0.179-1.033-0.249-1.544-0.222-0.53 0.029-1.044 0.163-1.513 0.388s-0.894 0.543-1.249 0.939c-0.341 0.38-0.614 0.833-0.793 1.342-0.184 0.521 0.090 1.092 0.611 1.275s1.092-0.091 1.275-0.611zM13 17c0-0.552-0.448-1-1-1s-1 0.448-1 1 0.448 1 1 1 1-0.448 1-1z"></path>
</svg>
