<!-- Generated by IcoMoon.io -->
<svg version="1.1" xmlns="http://www.w3.org/2000/svg" width="24" height="24" viewBox="0 0 24 24">
<title>link</title>
<path d="M9.199 13.599c0.486 0.649 1.080 1.174 1.739 1.565 0.684 0.406 1.437 0.668 2.21 0.78s1.569 0.073 2.34-0.124c0.743-0.189 1.461-0.525 2.11-1.010 0.239-0.179 0.465-0.375 0.655-0.568l2.995-2.994c0.575-0.596 0.998-1.266 1.279-1.979 0.292-0.74 0.43-1.525 0.416-2.306s-0.179-1.561-0.496-2.29c-0.306-0.703-0.751-1.358-1.335-1.921-0.574-0.554-1.232-0.973-1.933-1.254-0.727-0.291-1.497-0.434-2.266-0.43-0.759 0.004-1.517 0.152-2.232 0.442-0.691 0.281-1.339 0.695-1.905 1.24l-1.731 1.721c-0.392 0.389-0.394 1.023-0.004 1.414s1.023 0.394 1.414 0.004l1.709-1.699c0.379-0.366 0.811-0.641 1.271-0.828 0.476-0.194 0.982-0.292 1.49-0.295 0.514-0.003 1.028 0.093 1.511 0.286 0.465 0.186 0.903 0.464 1.288 0.836 0.391 0.378 0.687 0.814 0.89 1.28 0.211 0.485 0.322 1.005 0.331 1.528s-0.083 1.046-0.277 1.538c-0.186 0.473-0.467 0.919-0.833 1.298l-3.005 3.006c-0.114 0.116-0.263 0.247-0.428 0.37-0.435 0.326-0.913 0.548-1.406 0.674-0.513 0.131-1.043 0.157-1.561 0.082s-1.019-0.25-1.474-0.52c-0.437-0.26-0.833-0.608-1.158-1.043-0.331-0.442-0.957-0.533-1.4-0.202s-0.533 0.957-0.202 1.4zM14.801 10.401c-0.486-0.649-1.080-1.174-1.739-1.565-0.684-0.406-1.437-0.668-2.21-0.78s-1.569-0.073-2.34 0.124c-0.743 0.189-1.461 0.525-2.11 1.010-0.239 0.179-0.465 0.375-0.655 0.568l-2.995 2.994c-0.575 0.596-0.998 1.266-1.279 1.979-0.292 0.74-0.43 1.525-0.416 2.306s0.179 1.561 0.496 2.29c0.306 0.703 0.751 1.358 1.335 1.921 0.574 0.554 1.232 0.973 1.933 1.254 0.727 0.291 1.497 0.434 2.266 0.43 0.759-0.004 1.517-0.152 2.232-0.442 0.691-0.281 1.339-0.695 1.905-1.24l1.723-1.723c0.391-0.391 0.391-1.024 0-1.414s-1.024-0.391-1.414 0l-1.697 1.697c-0.379 0.366-0.811 0.641-1.271 0.828-0.476 0.193-0.982 0.292-1.49 0.295-0.514 0.003-1.028-0.093-1.511-0.286-0.465-0.186-0.903-0.464-1.288-0.836-0.391-0.378-0.687-0.814-0.89-1.28-0.211-0.485-0.322-1.005-0.331-1.528s0.083-1.046 0.277-1.538c0.186-0.473 0.467-0.919 0.833-1.298l3.005-3.006c0.114-0.116 0.263-0.247 0.428-0.37 0.435-0.326 0.913-0.548 1.406-0.674 0.513-0.131 1.043-0.157 1.561-0.082s1.019 0.25 1.474 0.52c0.437 0.26 0.833 0.608 1.158 1.043 0.331 0.442 0.957 0.533 1.4 0.202s0.533-0.957 0.202-1.4z"></path>
</svg>
