<!-- Generated by IcoMoon.io -->
<svg version="1.1" xmlns="http://www.w3.org/2000/svg" width="24" height="24" viewBox="0 0 24 24">
<title>minimize-2</title>
<path d="M16.414 9l5.293-5.293c0.391-0.391 0.391-1.024 0-1.414s-1.024-0.391-1.414 0l-5.293 5.293v-3.586c0-0.552-0.448-1-1-1s-1 0.448-1 1v6c0 0.136 0.027 0.265 0.076 0.383 0.050 0.119 0.122 0.227 0.211 0.318 0.004 0.004 0.008 0.008 0.012 0.012 0.091 0.089 0.198 0.161 0.318 0.211 0.118 0.049 0.247 0.076 0.383 0.076h6c0.552 0 1-0.448 1-1s-0.448-1-1-1zM3.707 21.707l5.293-5.293v3.586c0 0.552 0.448 1 1 1s1-0.448 1-1v-6c0-0.136-0.027-0.265-0.076-0.383-0.050-0.119-0.122-0.227-0.211-0.318-0.004-0.004-0.008-0.008-0.012-0.012-0.091-0.089-0.198-0.161-0.318-0.211-0.118-0.049-0.247-0.076-0.383-0.076h-6c-0.552 0-1 0.448-1 1s0.448 1 1 1h3.586l-5.293 5.293c-0.391 0.391-0.391 1.024 0 1.414s1.024 0.391 1.414 0z"></path>
</svg>
