<!-- Generated by IcoMoon.io -->
<svg version="1.1" xmlns="http://www.w3.org/2000/svg" width="24" height="24" viewBox="0 0 24 24">
<title>minimize</title>
<path d="M7 3v3c0 0.137-0.027 0.266-0.075 0.382-0.051 0.122-0.125 0.232-0.218 0.325s-0.203 0.167-0.325 0.218c-0.116 0.048-0.245 0.075-0.382 0.075h-3c-0.552 0-1 0.448-1 1s0.448 1 1 1h3c0.405 0 0.793-0.081 1.148-0.228 0.368-0.152 0.698-0.375 0.974-0.651s0.498-0.606 0.65-0.973c0.147-0.355 0.228-0.743 0.228-1.148v-3c0-0.552-0.448-1-1-1s-1 0.448-1 1zM21 7h-3c-0.137 0-0.266-0.027-0.382-0.075-0.122-0.050-0.232-0.125-0.325-0.218s-0.167-0.203-0.218-0.325c-0.048-0.116-0.075-0.245-0.075-0.382v-3c0-0.552-0.448-1-1-1s-1 0.448-1 1v3c0 0.405 0.081 0.793 0.228 1.148 0.152 0.368 0.375 0.698 0.651 0.974s0.606 0.499 0.974 0.651c0.354 0.146 0.742 0.227 1.147 0.227h3c0.552 0 1-0.448 1-1s-0.448-1-1-1zM17 21v-3c0-0.137 0.027-0.266 0.075-0.382 0.050-0.122 0.125-0.232 0.218-0.325s0.203-0.167 0.325-0.218c0.116-0.048 0.245-0.075 0.382-0.075h3c0.552 0 1-0.448 1-1s-0.448-1-1-1h-3c-0.405 0-0.793 0.081-1.148 0.228-0.368 0.152-0.698 0.375-0.974 0.651s-0.499 0.606-0.651 0.974c-0.146 0.354-0.227 0.742-0.227 1.147v3c0 0.552 0.448 1 1 1s1-0.448 1-1zM3 17h3c0.137 0 0.266 0.027 0.382 0.075 0.122 0.050 0.232 0.125 0.325 0.218s0.167 0.203 0.218 0.325c0.048 0.116 0.075 0.245 0.075 0.382v3c0 0.552 0.448 1 1 1s1-0.448 1-1v-3c0-0.405-0.081-0.793-0.228-1.148-0.152-0.368-0.375-0.698-0.651-0.974s-0.606-0.499-0.974-0.651c-0.354-0.146-0.742-0.227-1.147-0.227h-3c-0.552 0-1 0.448-1 1s0.448 1 1 1z"></path>
</svg>
