<!-- Generated by IcoMoon.io -->
<svg version="1.1" xmlns="http://www.w3.org/2000/svg" width="24" height="24" viewBox="0 0 24 24">
<title>moon</title>
<path d="M21.996 12.882c0.022-0.233-0.038-0.476-0.188-0.681-0.325-0.446-0.951-0.544-1.397-0.219-0.95 0.693-2.059 1.086-3.188 1.162-0.696 0.047-1.399-0.027-2.077-0.226-0.656-0.192-1.29-0.501-1.874-0.932-0.655-0.484-1.181-1.074-1.575-1.729-0.409-0.68-0.676-1.432-0.792-2.206s-0.082-1.571 0.11-2.342c0.184-0.741 0.514-1.46 0.999-2.115 0.142-0.191 0.216-0.435 0.191-0.691-0.053-0.55-0.542-0.952-1.092-0.898-1.117 0.109-2.186 0.399-3.172 0.843-1.005 0.452-1.925 1.065-2.723 1.808-0.883 0.82-1.618 1.801-2.159 2.901-0.523 1.064-0.863 2.238-0.978 3.485-0.125 1.347 0.024 2.658 0.402 3.878 0.392 1.266 1.031 2.431 1.863 3.433s1.86 1.843 3.033 2.461c1.13 0.595 2.392 0.982 3.739 1.106s2.659-0.025 3.878-0.403c1.266-0.392 2.431-1.031 3.433-1.863s1.843-1.86 2.461-3.033c0.595-1.13 0.982-2.392 1.106-3.739zM19.567 14.674c-0.126 0.351-0.276 0.689-0.447 1.014-0.493 0.937-1.166 1.76-1.969 2.427s-1.735 1.178-2.747 1.491c-0.973 0.302-2.021 0.421-3.102 0.321s-2.089-0.41-2.99-0.884c-0.937-0.493-1.76-1.166-2.427-1.969s-1.178-1.735-1.491-2.747c-0.302-0.973-0.421-2.021-0.321-3.102 0.092-1 0.365-1.938 0.782-2.786 0.43-0.878 1.018-1.661 1.725-2.319 0.64-0.595 1.377-1.086 2.183-1.449 0.179-0.081 0.362-0.155 0.548-0.223-0.092 0.257-0.171 0.516-0.236 0.778-0.256 1.029-0.302 2.091-0.147 3.121s0.51 2.032 1.056 2.941c0.527 0.875 1.23 1.663 2.1 2.306 0.775 0.573 1.622 0.986 2.5 1.243 0.907 0.266 1.846 0.364 2.772 0.302 0.752-0.050 1.496-0.207 2.21-0.465z"></path>
</svg>
