<!-- Generated by IcoMoon.io -->
<svg version="1.1" xmlns="http://www.w3.org/2000/svg" width="24" height="24" viewBox="0 0 24 24">
<title>more-vertical</title>
<path d="M14 12c0-0.269-0.054-0.528-0.152-0.765-0.102-0.246-0.25-0.465-0.434-0.649s-0.404-0.332-0.649-0.434c-0.237-0.098-0.496-0.152-0.765-0.152s-0.528 0.054-0.765 0.152c-0.246 0.102-0.465 0.25-0.649 0.434s-0.332 0.404-0.434 0.649c-0.098 0.237-0.152 0.496-0.152 0.765s0.054 0.528 0.152 0.765c0.102 0.246 0.25 0.465 0.434 0.649s0.404 0.332 0.649 0.434c0.237 0.098 0.496 0.152 0.765 0.152s0.528-0.054 0.765-0.152c0.246-0.102 0.465-0.25 0.649-0.434s0.332-0.404 0.434-0.649c0.098-0.237 0.152-0.496 0.152-0.765zM14 5c0-0.269-0.054-0.528-0.152-0.765-0.102-0.246-0.25-0.465-0.434-0.649s-0.404-0.332-0.649-0.434c-0.237-0.098-0.496-0.152-0.765-0.152s-0.528 0.054-0.765 0.152c-0.246 0.102-0.465 0.25-0.649 0.434s-0.332 0.404-0.434 0.649c-0.098 0.237-0.152 0.496-0.152 0.765s0.054 0.528 0.152 0.765c0.102 0.246 0.25 0.465 0.434 0.649s0.404 0.332 0.649 0.434c0.237 0.098 0.496 0.152 0.765 0.152s0.528-0.054 0.765-0.152c0.246-0.102 0.465-0.25 0.649-0.434s0.332-0.404 0.434-0.649c0.098-0.237 0.152-0.496 0.152-0.765zM14 19c0-0.269-0.054-0.528-0.152-0.765-0.102-0.246-0.25-0.465-0.434-0.649s-0.404-0.332-0.649-0.434c-0.237-0.098-0.496-0.152-0.765-0.152s-0.528 0.054-0.765 0.152c-0.246 0.102-0.465 0.25-0.649 0.434s-0.332 0.404-0.434 0.649c-0.098 0.237-0.152 0.496-0.152 0.765s0.054 0.528 0.152 0.765c0.102 0.246 0.25 0.465 0.434 0.649s0.404 0.332 0.649 0.434c0.237 0.098 0.496 0.152 0.765 0.152s0.528-0.054 0.765-0.152c0.246-0.102 0.465-0.25 0.649-0.434s0.332-0.404 0.434-0.649c0.098-0.237 0.152-0.496 0.152-0.765z"></path>
</svg>
