<!-- Generated by IcoMoon.io -->
<svg version="1.1" xmlns="http://www.w3.org/2000/svg" width="24" height="24" viewBox="0 0 24 24">
<title>package</title>
<path d="M11 11.618v9.774l-7.453-3.726c-0.103-0.052-0.193-0.12-0.268-0.198-0.078-0.081-0.141-0.175-0.188-0.279-0.059-0.132-0.091-0.278-0.091-0.428v-9.142zM6.639 2.567c-0.059 0.023-0.116 0.052-0.17 0.086l-3.81 1.905c-0.386 0.195-0.724 0.468-0.992 0.8-0.212 0.261-0.381 0.559-0.495 0.883-0.112 0.314-0.172 0.65-0.172 0.999v9.519c0 0.434 0.092 0.861 0.268 1.251 0.138 0.307 0.329 0.591 0.566 0.84 0.231 0.241 0.504 0.446 0.818 0.604l8.003 4.001c0.211 0.105 0.433 0.184 0.662 0.238 0.334 0.078 0.683 0.099 1.031 0.057 0.337-0.040 0.671-0.138 0.988-0.296l8.004-4.002c0.386-0.195 0.724-0.468 0.992-0.8 0.212-0.261 0.381-0.559 0.495-0.883 0.113-0.314 0.173-0.65 0.173-0.999v-9.537c-0.003-0.432-0.098-0.857-0.275-1.245-0.14-0.306-0.332-0.589-0.571-0.836-0.232-0.239-0.507-0.443-0.816-0.597l-8-4c-0.21-0.104-0.426-0.181-0.648-0.234-0.335-0.079-0.684-0.102-1.033-0.062-0.338 0.039-0.673 0.136-0.994 0.295zM17 7.382l-7.759-3.88 2.316-1.158c0.106-0.053 0.217-0.084 0.327-0.097 0.115-0.013 0.231-0.006 0.344 0.021 0.075 0.018 0.149 0.044 0.214 0.076l7.316 3.658zM17.458 9.389l3.542-1.771v9.152c0 0.118-0.020 0.229-0.057 0.331-0.038 0.106-0.093 0.205-0.165 0.293-0.091 0.112-0.206 0.206-0.34 0.273l-7.438 3.72v-9.769l4.438-2.219zM7.005 4.621l7.759 3.879-2.764 1.382-7.759-3.88z"></path>
</svg>
