<!-- Generated by IcoMoon.io -->
<svg version="1.1" xmlns="http://www.w3.org/2000/svg" width="24" height="24" viewBox="0 0 24 24">
<title>tag</title>
<path d="M21.297 14.117c0.286-0.288 0.502-0.618 0.647-0.971 0.151-0.366 0.227-0.755 0.227-1.143s-0.075-0.779-0.226-1.146c-0.146-0.354-0.362-0.685-0.648-0.973l-8.59-8.59c-0.181-0.182-0.431-0.294-0.707-0.294h-10c-0.552 0-1 0.448-1 1v10c0 0.256 0.098 0.512 0.293 0.708l8.592 8.582c0.286 0.286 0.618 0.503 0.973 0.65 0.368 0.152 0.759 0.228 1.149 0.228s0.781-0.076 1.149-0.229c0.355-0.147 0.686-0.365 0.972-0.651zM19.883 12.703l-7.17 7.17c-0.097 0.098-0.207 0.169-0.324 0.218-0.122 0.050-0.252 0.076-0.384 0.076s-0.262-0.025-0.384-0.076c-0.116-0.048-0.226-0.12-0.324-0.217l-8.297-8.289v-8.585h8.586l8.297 8.297c0.094 0.095 0.166 0.205 0.213 0.321 0.050 0.121 0.075 0.252 0.075 0.383s-0.026 0.261-0.076 0.382c-0.048 0.116-0.119 0.226-0.213 0.32zM8 7c0-0.552-0.448-1-1-1s-1 0.448-1 1 0.448 1 1 1 1-0.448 1-1z"></path>
</svg>
