<!-- Generated by IcoMoon.io -->
<svg version="1.1" xmlns="http://www.w3.org/2000/svg" width="24" height="24" viewBox="0 0 24 24">
<title>toggle-right</title>
<path d="M8 4c-1.082 0-2.116 0.215-3.060 0.606-0.98 0.406-1.86 1-2.597 1.737s-1.331 1.618-1.737 2.597c-0.391 0.944-0.606 1.978-0.606 3.060s0.215 2.116 0.606 3.060c0.406 0.98 1 1.86 1.737 2.597s1.618 1.331 2.597 1.737c0.944 0.391 1.978 0.606 3.060 0.606h8c1.082 0 2.116-0.215 3.060-0.606 0.98-0.406 1.86-1 2.597-1.737s1.331-1.618 1.737-2.597c0.391-0.944 0.606-1.978 0.606-3.060s-0.215-2.116-0.606-3.060c-0.406-0.98-1-1.86-1.737-2.597s-1.618-1.331-2.597-1.737c-0.944-0.391-1.978-0.606-3.060-0.606zM8 6h8c0.815 0 1.589 0.162 2.294 0.454 0.733 0.304 1.394 0.749 1.948 1.303s1 1.215 1.303 1.948c0.293 0.706 0.455 1.48 0.455 2.295s-0.162 1.589-0.454 2.294c-0.304 0.733-0.749 1.394-1.303 1.948s-1.215 1-1.948 1.303c-0.706 0.293-1.48 0.455-2.295 0.455h-8c-0.815 0-1.589-0.162-2.294-0.454-0.733-0.304-1.394-0.749-1.948-1.303s-1-1.215-1.303-1.948c-0.293-0.706-0.455-1.48-0.455-2.295s0.162-1.589 0.454-2.294c0.304-0.733 0.749-1.394 1.303-1.948s1.215-1 1.948-1.303c0.706-0.293 1.48-0.455 2.295-0.455zM20 12c0-0.54-0.108-1.057-0.303-1.53-0.203-0.49-0.5-0.93-0.868-1.298s-0.808-0.665-1.298-0.868c-0.474-0.196-0.991-0.304-1.531-0.304s-1.057 0.108-1.53 0.303c-0.49 0.203-0.93 0.5-1.298 0.868s-0.665 0.808-0.868 1.298c-0.196 0.474-0.304 0.991-0.304 1.531s0.108 1.057 0.303 1.53c0.203 0.49 0.5 0.93 0.868 1.298s0.808 0.665 1.298 0.868c0.474 0.196 0.991 0.304 1.531 0.304s1.057-0.108 1.53-0.303c0.49-0.203 0.93-0.5 1.298-0.868s0.665-0.808 0.868-1.298c0.196-0.474 0.304-0.991 0.304-1.531zM18 12c0 0.273-0.054 0.53-0.151 0.765-0.101 0.244-0.25 0.464-0.435 0.65-0.185 0.185-0.406 0.334-0.65 0.435-0.234 0.096-0.491 0.15-0.764 0.15s-0.53-0.054-0.765-0.151c-0.244-0.101-0.464-0.25-0.65-0.435s-0.334-0.406-0.435-0.65c-0.096-0.234-0.15-0.491-0.15-0.764s0.054-0.53 0.151-0.765c0.101-0.244 0.25-0.464 0.435-0.65s0.406-0.334 0.65-0.435c0.234-0.096 0.491-0.15 0.764-0.15s0.53 0.054 0.765 0.151c0.244 0.101 0.464 0.25 0.65 0.435 0.185 0.185 0.334 0.406 0.435 0.65 0.096 0.234 0.15 0.491 0.15 0.764z"></path>
</svg>
