<!-- Generated by IcoMoon.io -->
<svg version="1.1" xmlns="http://www.w3.org/2000/svg" width="24" height="24" viewBox="0 0 24 24">
<title>watch</title>
<path d="M11 9v3c0 0.276 0.112 0.526 0.293 0.707l1.5 1.5c0.391 0.391 1.024 0.391 1.414 0s0.391-1.024 0-1.414l-1.207-1.207v-2.586c0-0.552-0.448-1-1-1s-1 0.448-1 1zM15.33 19.276l-0.166 1.813c-0.012 0.133-0.048 0.254-0.103 0.362-0.057 0.113-0.135 0.213-0.23 0.297-0.091 0.081-0.197 0.145-0.312 0.188-0.11 0.041-0.231 0.064-0.357 0.064h-4.332c-0.136 0.001-0.26-0.024-0.373-0.068-0.117-0.046-0.225-0.115-0.317-0.201-0.089-0.083-0.162-0.182-0.216-0.293-0.052-0.107-0.086-0.224-0.098-0.351l-0.166-1.816c0.093 0.043 0.186 0.083 0.281 0.123 0.943 0.391 1.977 0.606 3.059 0.606s2.116-0.215 3.060-0.606c0.091-0.038 0.181-0.077 0.27-0.118zM8.187 7.367c0.455-0.375 0.967-0.685 1.519-0.913 0.705-0.292 1.479-0.454 2.294-0.454s1.589 0.162 2.294 0.454c0.733 0.304 1.394 0.749 1.948 1.303s1 1.215 1.303 1.948c0.293 0.706 0.455 1.48 0.455 2.295s-0.162 1.589-0.454 2.294c-0.304 0.733-0.749 1.394-1.303 1.948-0.104 0.104-0.212 0.204-0.323 0.3-0.035 0.030-0.071 0.060-0.107 0.090-0.455 0.375-0.967 0.685-1.519 0.913-0.705 0.293-1.479 0.455-2.294 0.455s-1.589-0.162-2.294-0.454c-0.733-0.304-1.394-0.749-1.948-1.303s-1-1.215-1.303-1.948c-0.293-0.706-0.455-1.48-0.455-2.295s0.162-1.589 0.454-2.294c0.304-0.733 0.749-1.394 1.303-1.948 0.104-0.104 0.212-0.204 0.323-0.3 0.035-0.030 0.071-0.060 0.107-0.090zM17.491 6.182l-0.315-3.455c-0.035-0.371-0.136-0.724-0.293-1.045-0.161-0.33-0.381-0.625-0.645-0.872-0.274-0.257-0.596-0.463-0.953-0.603-0.345-0.135-0.72-0.209-1.105-0.207h-4.354c-0.371 0.001-0.73 0.071-1.062 0.197-0.341 0.13-0.654 0.321-0.923 0.559-0.28 0.248-0.515 0.55-0.688 0.891-0.167 0.33-0.274 0.695-0.309 1.081l-0.314 3.434c-0.063 0.059-0.126 0.12-0.187 0.181-0.737 0.737-1.331 1.618-1.737 2.597-0.391 0.944-0.606 1.978-0.606 3.060s0.215 2.116 0.606 3.060c0.406 0.98 1 1.86 1.737 2.597 0.058 0.058 0.117 0.115 0.176 0.171l0.315 3.445c0.035 0.371 0.136 0.724 0.293 1.045 0.161 0.33 0.381 0.625 0.645 0.872 0.274 0.257 0.596 0.463 0.953 0.603 0.345 0.135 0.72 0.209 1.105 0.207h4.328c0.373 0.001 0.734-0.068 1.068-0.194 0.344-0.13 0.658-0.32 0.929-0.56 0.281-0.249 0.517-0.55 0.69-0.892 0.167-0.33 0.275-0.697 0.31-1.083l0.314-3.433c0.063-0.059 0.126-0.12 0.187-0.181 0.737-0.737 1.331-1.618 1.737-2.597 0.392-0.944 0.607-1.978 0.607-3.060s-0.215-2.116-0.606-3.060c-0.406-0.98-1-1.86-1.737-2.597-0.054-0.054-0.11-0.108-0.165-0.161zM8.67 4.724l0.166-1.813c0.012-0.132 0.048-0.253 0.102-0.361 0.057-0.112 0.135-0.213 0.229-0.296 0.091-0.081 0.196-0.144 0.31-0.188 0.11-0.042 0.23-0.066 0.357-0.066h4.346c0.136-0.001 0.26 0.024 0.373 0.068 0.117 0.046 0.225 0.115 0.317 0.201 0.089 0.083 0.162 0.182 0.216 0.293 0.052 0.107 0.086 0.224 0.098 0.351l0.166 1.821c-0.096-0.044-0.193-0.087-0.291-0.127-0.943-0.392-1.977-0.607-3.059-0.607s-2.116 0.215-3.060 0.606c-0.091 0.038-0.181 0.077-0.27 0.118z"></path>
</svg>
