<svg version="1.1" id="b5c30812-3fe4-42aa-bbef-f336a38bc862"
	 xmlns="http://www.w3.org/2000/svg" xmlns:xlink="http://www.w3.org/1999/xlink" x="0px" y="0px" viewBox="0 0 30 30"
	 enable-background="new 0 0 30 30" xml:space="preserve">
<path id="a4d581b5-1302-4e19-ba5e-7e19f8c0afb4" fill="#1f2555" fill-rule="evenodd" clip-rule="evenodd" d="M5,9c0-3.9,3.1-7,7-7s7,3.1,7,7
	s-3.1,7-7,7S5,12.9,5,9 M16.4,16.8c4.3-2.4,5.9-7.9,3.5-12.3S11.9-1.3,7.6,1.1C4.7,2.7,3,5.7,3,9c0,3.2,1.8,6.2,4.6,7.8
	C3,18.6,0,23.1,0,28v2h2v-2c0-5.5,4.5-10,10-10c2.6,0,5,1,6.9,2.8L19,20h1.9C19.7,18.6,18.1,17.5,16.4,16.8 M29,24h-3v-3
	c0-0.6-0.4-1-1-1s-1,0.4-1,1v3h-3c-0.6,0-1,0.4-1,1s0.4,1,1,1h3v3c0,0.6,0.4,1,1,1s1-0.4,1-1v-3h3c0.6,0,1-0.4,1-1S29.6,24,29,24"/>
</svg>
