<svg id="b5c30812-3fe4-42aa-bbef-f336a38bc862" data-name="Layer 1" xmlns="http://www.w3.org/2000/svg" viewBox="0 0 30 30"><title>customer-onboarding</title><path id="a4d581b5-1302-4e19-ba5e-7e19f8c0afb4" data-name="Page-1" d="M6,10a7,7,0,1,1,7,7,7,7,0,0,1-7-7m11.4,7.8A9,9,0,1,0,4,10a8.92,8.92,0,0,0,4.6,7.8A12.14,12.14,0,0,0,1,29v2H3V29a10,10,0,0,1,16.9-7.2L20,21h1.9a12,12,0,0,0-4.5-3.2M30,25H27V22a1,1,0,0,0-2,0v3H22a1,1,0,0,0,0,2h3v3a1,1,0,0,0,2,0V27h3a1,1,0,0,0,0-2" transform="translate(-1 -1)" fill="#1f2555" fill-rule="evenodd"/></svg>