<svg id="a46b9d85-28c5-4fcb-89d3-b43b2562eec3" data-name="Layer 1" xmlns="http://www.w3.org/2000/svg" viewBox="0 0 32.01 31.98"><title>launchpad</title><path id="b9e7e68b-ea2e-4d2d-945d-6e926e63f7f9" data-name="path-1" d="M16,23.3c-.1,0-.1,0-.2.1a9.29,9.29,0,0,0-1,.5L8.1,17.2a5.9,5.9,0,0,1,.4-.8.52.52,0,0,0,.2-.4A39.83,39.83,0,0,1,16.1,5.8C20.9.9,27.6,2,29.5,2.5c.4,1.9,1.5,8.7-3.2,13.4A38.3,38.3,0,0,1,16,23.3m3.1,4A8.28,8.28,0,0,1,16.4,29a13.21,13.21,0,0,0,1-4.2c.8-.4,1.9-1,3-1.7a6,6,0,0,1-1.3,4.2M3,15.6a11.1,11.1,0,0,1,1.7-2.7,5.85,5.85,0,0,1,4.1-1.3c-.7,1.1-1.3,2.2-1.7,3a12.15,12.15,0,0,0-4.1,1M31.3,1.3c.1.4,2.9,9.5-3.6,16a41.85,41.85,0,0,1-5.5,4.6c0,.1,0,.1.1.1,0,.2.7,4.2-1.8,6.7a14.1,14.1,0,0,1-6.4,3.2h-.2a1.05,1.05,0,0,1-.9-.5,1.06,1.06,0,0,1,.2-1.2,7.75,7.75,0,0,0,2.1-4.4,1.24,1.24,0,0,0-.3.2c-.1,0-.2.1-.3.1a.91.91,0,0,1-.7-.3L6.3,18.1A1.13,1.13,0,0,1,6,17a.77.77,0,0,1,.1-.3,7.48,7.48,0,0,0-4.4,2.1.91.91,0,0,1-.7.3A.9.9,0,0,1,.5,19,1,1,0,0,1,0,17.9a15.33,15.33,0,0,1,3.2-6.4C5.6,9.1,9.7,9.7,9.9,9.7H10a41.85,41.85,0,0,1,4.6-5.5C21.1-2.3,30.2.5,30.6.6A1.2,1.2,0,0,1,31.3,1.3Zm-8.5,4h0A4.3,4.3,0,0,0,20,6.4a3.55,3.55,0,0,0-1.1,2.8A4.3,4.3,0,0,0,20,12a3.84,3.84,0,0,0,2.8,1.1A4.3,4.3,0,0,0,25.6,12h0a3.92,3.92,0,0,0,0-5.5A3.78,3.78,0,0,0,22.8,5.3Zm1.4,5.2a2,2,0,0,1-2.7,0,1.82,1.82,0,0,1-.6-1.4,2,2,0,0,1,.6-1.4,1.82,1.82,0,0,1,1.4-.6h0a2,2,0,0,1,1.4.6A2.25,2.25,0,0,1,24.2,10.5ZM4.7,22.5a3.39,3.39,0,1,1,4.8,4.8h0C8.4,28.4,5.1,28.9,4.1,29H4a.91.91,0,0,1-.7-.3,1.14,1.14,0,0,1-.3-.8C3.1,26.9,3.6,23.6,4.7,22.5Zm3.4,3.3a1.39,1.39,0,0,0,0-1.9,1.28,1.28,0,0,0-1-.4,1.28,1.28,0,0,0-1,.4,7.51,7.51,0,0,0-.9,2.9A9.18,9.18,0,0,0,8.1,25.8Z" transform="translate(0.03 0.08)" fill="#1f2555" fill-rule="evenodd"/></svg>