<?xml version="1.0" encoding="UTF-8" standalone="no"?>
<svg width="32px" height="32px" viewBox="0 0 32 32" version="1.1" xmlns="http://www.w3.org/2000/svg" xmlns:xlink="http://www.w3.org/1999/xlink">
    <!-- Generator: Sketch 46.2 (44496) - http://www.bohemiancoding.com/sketch -->
    <title>Icon/product/CRM/Customer Decision Hub-gray</title>
    <desc>Created with Sketch.</desc>
    <defs></defs>
    <g id="Symbols" stroke="none" stroke-width="1" fill="none" fill-rule="evenodd">
        <g id="Icon/product/CRM/Customer-Decision-Hub-gray" fill="#1F2555">
            <path d="M24,7.999 L32,7.999 L32,0.0005 L24,0.0005 L24,7.999 Z M12,7.999 L19.9995,7.999 L19.9995,0.0005 L12,0.0005 L12,7.999 Z M14,6 L18,6 L18,1.999 L14,1.999 L14,6 Z M0,7.999 L8,7.999 L8,0.0005 L0,0.0005 L0,7.999 Z M2,6 L6,6 L6,1.999 L2,1.999 L2,6 Z M24,19.999 L32,19.999 L32,11.999 L24,11.999 L24,19.999 Z M26,17.999 L30,17.999 L30,13.999 L26,13.999 L26,17.999 Z M12,19.999 L19.9995,19.999 L19.9995,11.999 L12,11.999 L12,19.999 Z M0,19.999 L8,19.999 L8,11.999 L0,11.999 L0,19.999 Z M24,32 L32,32 L32,23.999 L24,23.999 L24,32 Z M26,29.999 L30,29.999 L30,25.998 L26,25.998 L26,29.999 Z M12,32 L19.9995,32 L19.9995,23.999 L12,23.999 L12,32 Z M14,29.999 L18,29.999 L18,25.998 L14,25.998 L14,29.999 Z M0,32 L8,32 L8,23.999 L0,23.999 L0,32 Z M2,29.999 L6,29.999 L6,25.998 L2,25.998 L2,29.999 Z" id="Page-1"></path>
        </g>
    </g>
</svg>