<svg xmlns="http://www.w3.org/2000/svg" viewBox="0 0 60.83 60.83"><title>brand-satelite</title><g id="Layer_2" data-name="Layer 2"><g id="Layer_1-2" data-name="Layer 1"><path d="M20.22,44.57h0a.93.93,0,0,1-.65-.27l-3-3a.92.92,0,0,1,0-1.3l2.57-2.57a6.26,6.26,0,0,1,.66-8l14.3-14.29a3.34,3.34,0,0,1,4.73,0l7,7a3.35,3.35,0,0,1,0,4.74L31.48,41.07a6.37,6.37,0,0,1-8,.66L20.87,44.3A.91.91,0,0,1,20.22,44.57Zm-1.73-4,1.73,1.74L22.54,40a.66.66,0,0,1,.17-.23.87.87,0,0,1,1.26,0,4.51,4.51,0,0,0,6.21,0l14.29-14.3a1.5,1.5,0,0,0,0-2.13h0l-7-7a1.52,1.52,0,0,0-2.13,0L21.07,30.66A4.39,4.39,0,0,0,21,36.79h0l0,0s0,0,0,0h0a1,1,0,0,1,0,1.27.8.8,0,0,1-.24.18Z"/><path d="M20.57,52.35A12.1,12.1,0,0,1,8.48,40.26a.93.93,0,0,1,1.85,0A10.26,10.26,0,0,0,20.57,50.51a.92.92,0,0,1,0,1.84Z"/><path d="M20.57,59.84A19.6,19.6,0,0,1,1,40.26a.93.93,0,0,1,1.85,0A17.75,17.75,0,0,0,20.57,58a.92.92,0,0,1,0,1.84Z"/><path d="M49.71,60.83a.89.89,0,0,1-.65-.27L35.27,46.78a.83.83,0,0,1-.2-.32l-3-7.75A.92.92,0,1,1,33.73,38l3,7.58,13,13,8.9-8.9-13-13-7.58-3A.92.92,0,1,1,38.71,32l7.75,3a.83.83,0,0,1,.32.2L60.56,49.06a.92.92,0,0,1,0,1.3l-10.2,10.2A.88.88,0,0,1,49.71,60.83Z"/><path d="M22.46,28.88a.78.78,0,0,1-.33-.07l-7.76-3a.87.87,0,0,1-.31-.2L.27,11.77a.92.92,0,0,1,0-1.3L10.47.27a.92.92,0,0,1,1.3,0L25.56,14.06a1,1,0,0,1,.21.31l3.05,7.76a.92.92,0,0,1-1.72.67l-3-7.57-13-13L2.23,11.12l13,13,7.57,3a.92.92,0,0,1-.34,1.78Z"/></g></g></svg>