<svg id="Layer_1" data-name="Layer 1" xmlns="http://www.w3.org/2000/svg" viewBox="0 0 58.79 60.44"><title>brand-meteor</title><path d="M55.27,34.41l-8.59-10.5L41.9,18.06c-.39-.48-.78-1-1.19-1.43a1.22,1.22,0,0,0-1.83-.27,1.3,1.3,0,0,0-.5.89,1.38,1.38,0,0,0,.38,1l4.43,5.36C46.6,27.76,50,31.88,53.38,36A12.78,12.78,0,0,1,56,48a13,13,0,0,1-22.65,4.48Q23.88,41.06,14.45,29.62L5.26,18.48c-.86-1-1.72-2.09-2.59-3.13a1.38,1.38,0,0,0-.95-.53,1.07,1.07,0,0,0-.8.3,1.92,1.92,0,0,0-.45,1.22,1,1,0,0,0,.35.74L8.12,26q11.58,14.1,23.16,28.2a15.35,15.35,0,0,0,12,5.8h.1a14.46,14.46,0,0,0,6.15-1.27A15.1,15.1,0,0,0,58.84,45.9,15.08,15.08,0,0,0,55.27,34.41Z" transform="translate(-0.14 0.46)" fill="#e84b17"/><path d="M31.32,43.21A11.07,11.07,0,0,0,42.56,54.38h.08a11,11,0,0,0,7.82-3.24A11.2,11.2,0,0,0,42.56,32h0a11.18,11.18,0,0,0-8,3.33A11,11,0,0,0,31.32,43.21Zm11.14-8.68h.11a8.6,8.6,0,0,1,8.62,8.73,8.6,8.6,0,0,1-8.7,8.46,8.56,8.56,0,0,1-6-14.74A8.46,8.46,0,0,1,42.46,34.53Z" transform="translate(-0.14 0.46)" fill="#e84b17"/><path d="M.83,7.94,24.76,37.11a2.73,2.73,0,0,0,.71.63,1.19,1.19,0,0,0,.59.16,1.12,1.12,0,0,0,.53-.13,1.38,1.38,0,0,0,.64-1.2v-.15l-.15-.25a4.35,4.35,0,0,0-.36-.57L2.88,6.45,2.76,6.3a7.43,7.43,0,0,0-.64-.73,1.27,1.27,0,0,0-1-.38,1,1,0,0,0-.73.44A1.84,1.84,0,0,0,.19,7a1.75,1.75,0,0,0,.49.75C.73,7.83.79,7.88.83,7.94Z" transform="translate(-0.14 0.46)" fill="#e84b17"/><path d="M17.45,2.08,35.38,23.94l2.74,3.33a1.71,1.71,0,0,0,1.29.78,1.19,1.19,0,0,0,.71-.25,1.11,1.11,0,0,0,.45-.76A1.94,1.94,0,0,0,40,25.61L28.77,11.89Q24,6.1,19.3.32a3.07,3.07,0,0,0-.62-.56l-.13-.1-.13-.11h-.18A1.45,1.45,0,0,0,17,.16,1.25,1.25,0,0,0,17,1.4,4.38,4.38,0,0,0,17.45,2.08Z" transform="translate(-0.14 0.46)" fill="#e84b17"/><path d="M13.5,15.09l.43-.26-.38.32,7.71,9.35,5.27,6.39a3.41,3.41,0,0,0,.61.53l.29.22.33.27.32-.28a1.88,1.88,0,0,1,.24-.18,1.05,1.05,0,0,0,.56-.75,2,2,0,0,0-.38-1.33Q22.89,22.5,17.26,15.66l-2-2.38a3.45,3.45,0,0,0-.38-.39,1.26,1.26,0,0,0-1.85,1.68C13.21,14.75,13.36,14.92,13.5,15.09Z" transform="translate(-0.14 0.46)" fill="#e84b17"/></svg>