<svg xmlns="http://www.w3.org/2000/svg" viewBox="0 0 50.93 62.33"><title>brand-molecule</title><g id="Layer_2" data-name="Layer 2"><g id="Layer_1-2" data-name="Layer 1"><path d="M44.28,37.11l6.46-11.18a1.44,1.44,0,0,0,0-1.42L44.28,13.33,50.74,2.14A1.43,1.43,0,0,0,48.26.72L41.81,11.9H29.73L23.27.71a1.43,1.43,0,0,0-2.62.35,1.41,1.41,0,0,0,.14,1.08l6.46,11.19-6,10.46H9.12L2.67,12.61a1.43,1.43,0,0,0-.87-.67,1.45,1.45,0,0,0-1.08.15A1.4,1.4,0,0,0,.05,13,1.43,1.43,0,0,0,.19,14L6.65,25.22.19,36.4a1.46,1.46,0,0,0,0,1.43L6.65,49,.19,60.19a1.41,1.41,0,0,0-.14,1.08,1.42,1.42,0,0,0,.66.87,1.48,1.48,0,0,0,2-.52L9.12,50.44H21.21l6.45,11.18A1.33,1.33,0,0,0,28,62l.1.08a1.12,1.12,0,0,0,.33.17l.1,0a1.18,1.18,0,0,0,.37,0l.23,0a1.3,1.3,0,0,0,.48-.17,1.43,1.43,0,0,0,.53-2L23.68,49l6.05-10.47H41.81l6.45,11.18a1.43,1.43,0,1,0,2.48-1.43Zm-17,0-6,10.47H9.12l-6-10.47,6-10.46H21.21Zm20.6-11.89-6,10.46H29.73L23.68,25.22l6.05-10.47H41.81Z" fill="#099"/></g></g></svg>