<svg id="Layer_1" data-name="Layer 1" xmlns="http://www.w3.org/2000/svg" viewBox="0 0 86.11 75.5"><title>Collaboration_Icon</title><path fill="#000000" fill-opacity="1" d="M85.11,52.55a13,13,0,0,0-7.2-6.81,2.35,2.35,0,0,0,.37-1.18c0-.42,0-.84,0-1.31a32.38,32.38,0,0,0-1.48-9A35.78,35.78,0,0,0,59.3,13.14a17.22,17.22,0,0,0-2.57-1.21,1.94,1.94,0,0,0-1.28,0,12.32,12.32,0,0,0-4.94-9.19A13.45,13.45,0,0,0,40.2.14a12.74,12.74,0,0,0-11,12.21,3,3,0,0,0-1.44.38,36.57,36.57,0,0,0-8.68,6.18A34.9,34.9,0,0,0,8,44.46c0,.46,0,.92,0,1.39s0,.95.08,1.43l-.09,0A12.35,12.35,0,0,0,2.76,66.6,13.61,13.61,0,0,0,19.49,70a13.85,13.85,0,0,0,2.07-1.39,2.56,2.56,0,0,0,1.34,1.65A38.76,38.76,0,0,0,43.1,75.5a36.54,36.54,0,0,0,11.84-1.94,38.79,38.79,0,0,0,9-4.36,2.49,2.49,0,0,0,1.18-1.63A13.09,13.09,0,0,0,75,69.86c6.12-.82,11.16-6.09,11.09-12.39A11.64,11.64,0,0,0,85.11,52.55ZM40.25,4.91A8.52,8.52,0,0,1,49.69,9a7.82,7.82,0,0,1-5.56,11.27c-.5.1-1,.14-1.5.21A8.24,8.24,0,0,1,34.1,13.8,8,8,0,0,1,40.25,4.91Zm-19.08,56a7.84,7.84,0,0,1-5.86,5.64,14,14,0,0,1-1.78.3,8.75,8.75,0,0,1-7.09-3.32,7.56,7.56,0,0,1,.87-10.21,8.61,8.61,0,0,1,11.75.07A7.29,7.29,0,0,1,21.17,60.87Zm23.21,9.91A34.68,34.68,0,0,1,32,69.15,32.41,32.41,0,0,1,25.15,66a2.52,2.52,0,0,0-.95-.31A12.1,12.1,0,0,0,25.7,55a13.26,13.26,0,0,0-12.52-8.82l-.31,0a24.51,24.51,0,0,1,.48-7.45A30.83,30.83,0,0,1,28.24,17.91c.56-.34,1.13-.65,1.7-1a12.42,12.42,0,0,0,1.24,2.4,13.51,13.51,0,0,0,20.35,2.22,12.52,12.52,0,0,0,3.36-5.37c.31.19.63.36,1,.52a32.28,32.28,0,0,1,10.8,8.61,29.6,29.6,0,0,1,6.51,15.07c.19,1.46.21,2.94.37,4.4a.13.13,0,0,0,0,.06,13.71,13.71,0,0,0-8.28,2.38,12.2,12.2,0,0,0-2.86,17.65,3.39,3.39,0,0,0-1.13.44A34.14,34.14,0,0,1,44.38,70.78Zm30.27-5.64c-.56.1-1.13.13-1.69.19a8.09,8.09,0,0,1-8.19-6.85,7.37,7.37,0,0,1,3.11-7.3,8.5,8.5,0,0,1,12.24,2.24C83,58,80.15,64.14,74.65,65.14Z"/></svg>
