<?xml version="1.0" encoding="UTF-8"?>
<svg width="46px" height="48px" viewBox="0 0 46 48" version="1.1" xmlns="http://www.w3.org/2000/svg" xmlns:xlink="http://www.w3.org/1999/xlink">
    <!-- Generator: sketchtool 54.1 (76490) - https://sketchapp.com -->
    <title>Discussions Icon White</title>
    <desc>Created with sketchtool.</desc>
    <defs></defs>
    <g id="Collaboration-Center_UI_V1" stroke="none" stroke-width="1" fill="#000000" fill-rule="evenodd"  transform="translate(-1 -1)">
        <g id="Group-3" transform="translate(0.000000, 0.846129)">
            <path d="M1.09234483,21.2016129 C1.09234483,27.9129032 4.52658621,33.8822581 9.86351724,37.7209677 L9.86351724,37.7209677 L9.86351724,47.3774194 L18.2684138,41.5209677 C20.0673793,41.9419355 21.9522414,42.1677419 23.8954483,42.1677419 L23.8954483,42.1677419 C36.4914483,42.1677419 46.7001724,32.7790323 46.7001724,21.2016129 L46.7001724,21.2016129 C46.7001724,9.62580645 36.4914483,0.240322581 23.8954483,0.240322581 L23.8954483,0.240322581 C11.3026897,0.240322581 1.09234483,9.62580645 1.09234483,21.2016129 L1.09234483,21.2016129 Z M13.3723103,35.8096774 C8.09372414,32.6919355 4.60113793,27.3048387 4.60113793,21.1774194 L4.60113793,21.1774194 C4.60113793,11.5322581 13.2410345,3.71612903 23.8954483,3.71612903 L23.8954483,3.71612903 C34.5531034,3.71612903 43.1913793,11.5322581 43.1913793,21.1774194 L43.1913793,21.1774194 C43.1913793,30.8177419 34.5531034,38.6387097 23.8954483,38.6387097 L23.8954483,38.6387097 C21.7674828,38.6387097 19.7205517,38.3209677 17.8065172,37.7435484 L17.8065172,37.7435484 L13.3723103,40.3919355 L13.3723103,35.8096774 Z"></path>
        </g>
        <g id="Group-10" transform="translate(12.965517, 18.588065)">
            <path d="M0.358982759,3.21709677 C0.358982759,1.71548387 1.37839655,0.662258065 2.80460345,0.662258065 C4.23243103,0.662258065 5.2097069,1.71548387 5.2097069,3.21709677 C5.2097069,4.67677419 4.27132759,5.77032258 2.76246552,5.77032258 C1.33787931,5.77032258 0.358982759,4.67677419 0.358982759,3.21709677"></path>
            <path d="M8.79872414,3.21709677 C8.79872414,1.71548387 9.81813793,0.662258065 11.2443448,0.662258065 C12.6721724,0.662258065 13.6494483,1.71548387 13.6494483,3.21709677 C13.6494483,4.67677419 12.711069,5.77032258 11.2022069,5.77032258 C9.77762069,5.77032258 8.79872414,4.67677419 8.79872414,3.21709677"></path>
            <path d="M17.2384655,3.21709677 C17.2384655,1.71548387 18.2578793,0.662258065 19.6840862,0.662258065 C21.1119138,0.662258065 22.0891897,1.71548387 22.0891897,3.21709677 C22.0891897,4.67677419 21.1508103,5.77032258 19.6419483,5.77032258 C18.2173621,5.77032258 17.2384655,4.67677419 17.2384655,3.21709677"></path>
        </g>
    </g>
</svg>