<?xml version="1.0" encoding="UTF-8"?>
<svg width="1963px" height="522px" viewBox="0 0 1963 522" version="1.1" xmlns="http://www.w3.org/2000/svg" xmlns:xlink="http://www.w3.org/1999/xlink">
    <!-- Generator: Sketch 46.2 (44496) - http://www.bohemiancoding.com/sketch -->
    <title>Group 3</title>
    <desc>Created with Sketch.</desc>
    <defs></defs>
    <g id="Page-2" stroke="none" stroke-width="1" fill="none" fill-rule="evenodd">
        <g id="Group-3" transform="translate(0.873069, 0.373069)">
            <g id="Group-2" transform="translate(1242.000000, 313.000000)">
                <rect id="Rectangle-2-Copy-6" fill="#E64B17" transform="translate(104.000000, 104.000000) scale(-1, 1) translate(-104.000000, -104.000000) " x="0" y="0" width="208" height="208"></rect>
                <circle id="Oval-3" stroke="#1F2555" stroke-width="30" cx="104" cy="104" r="52"></circle>
            </g>
            <g id="Group-8" transform="translate(565.545381, 312.545381)" fill="#E64B17">
                <path d="M208,0 L208,208 L-1.42108547e-13,208 L-1.42108547e-13,0 L208,0 Z M156,52 L52,52 L52,156 L156,156 L156,52 Z" id="Combined-Shape"></path>
            </g>
            <circle id="Oval-3" stroke="#FFCC4C" stroke-width="30" cx="877.545381" cy="416.545381" r="52"></circle>
            <circle id="Oval-3-Copy" stroke="#E64B17" stroke-width="30" cx="1814" cy="416" r="52"></circle>
            <g id="Group-10" transform="translate(45.545381, 311.545381)">
                <rect id="Rectangle" fill="#009999" x="260" y="0" width="208" height="208"></rect>
                <g id="Group-9" transform="translate(0.000000, 1.000000)">
                    <g id="Group">
                        <rect id="Rectangle-2-Copy-5" fill="#161B3D" transform="translate(104.000000, 104.000000) scale(-1, 1) translate(-104.000000, -104.000000) " x="0" y="0" width="208" height="208"></rect>
                        <rect id="Rectangle-2" fill="#FFCC4D" transform="translate(104.000000, 104.000000) scale(-1, 1) rotate(45.000000) translate(-104.000000, -104.000000) " x="52" y="52" width="104" height="104"></rect>
                    </g>
                </g>
            </g>
            <g id="Group-11" transform="translate(981.545381, 312.545381)" fill="#009999">
                <path d="M208,0 L208,208 L-1.42108547e-13,208 L-1.42108547e-13,0 L208,0 Z M104,30.4608948 L30.4608948,104 L104,177.539105 L177.539105,104 L104,30.4608948 Z" id="Combined-Shape"></path>
            </g>
            <rect id="Rectangle-2" fill="#161B3D" transform="translate(981.000000, 156.545381) scale(-1, 1) translate(-981.000000, -156.545381) " x="0" y="0.545381367" width="1962" height="312"></rect>
            <g id="Group-2" transform="translate(1502.000000, 313.000000)" fill="#FED161">
                <rect id="Rectangle-2-Copy-6" transform="translate(104.000000, 104.000000) scale(-1, 1) translate(-104.000000, -104.000000) " x="0" y="0" width="208" height="208"></rect>
            </g>
        </g>
    </g>
</svg>