<?xml version="1.0" encoding="UTF-8" standalone="no"?>
<svg width="24px" height="24px" viewBox="0 0 24 24" version="1.1" xmlns="http://www.w3.org/2000/svg" xmlns:xlink="http://www.w3.org/1999/xlink">
    <!-- Generator: Sketch 46.2 (44496) - http://www.bohemiancoding.com/sketch -->
    <title>Icon/Circle/24</title>
    <desc>Created with Sketch.</desc>
    <defs></defs>
    <g id="Symbols" stroke="none" stroke-width="1" fill="none" fill-rule="evenodd">
        <g id="Icon/Circle/24">
            <g id="Icon/Background/Circle/white-opaque" transform="translate(1.000000, 1.000000)" fill="#FFFFFF">
                <circle id="Oval" cx="11" cy="11" r="11"></circle>
            </g>
            <g id="Icon/utility/Indigo/12px/Download" transform="translate(6.000000, 6.000000)">
                <rect id="Rectangle-6" x="0" y="0" width="12" height="12"></rect>
                <path d="M5.75631846,10.82 C5.85423691,10.9333333 6.00701748,11 6.16604815,11 C6.32577329,11 6.47924831,10.9326667 6.5764723,10.82 L6.5764723,10.82 L10.2216776,6.63133333 C10.345291,6.49133333 10.3682081,6.30266667 10.2807065,6.14266667 C10.1932049,5.98266667 10.0105627,5.88066667 9.81194794,5.88066667 L8.05705484,5.88066667 L8.05705484,1 L4.35351512,1 L4.35351512,5.88066667 L2.52084283,5.88066667 C2.3222281,5.88066667 2.13958588,5.98266667 2.05208428,6.14266667 C2.01597251,6.20666667 2,6.27666667 2,6.34666667 C2,6.448 2.03611177,6.55 2.11041868,6.63133333 L5.75631846,10.82 Z" id="Fill-4" fill="#1F2555" fill-rule="evenodd"></path>
            </g>
        </g>
    </g>
</svg>