<?xml version="1.0" encoding="UTF-8" standalone="no"?>
<svg width="12px" height="12px" viewBox="0 0 12 12" version="1.1" xmlns="http://www.w3.org/2000/svg" xmlns:xlink="http://www.w3.org/1999/xlink">
    <!-- Generator: Sketch 46.2 (44496) - http://www.bohemiancoding.com/sketch -->
    <title>Icon/utility/Indigo/12px/Close</title>
    <desc>Created with Sketch.</desc>
    <defs></defs>
    <g id="Symbols" stroke="none" stroke-width="1" fill="none" fill-rule="evenodd">
        <g id="Icon/utility/Indigo/12px/Close" fill="#1F2555">
            <path d="M9.36275,7.9485 L7.24075,5.8275 L9.36275,3.7065 C9.75175,3.3175 9.75175,2.6805 9.36275,2.2925 C8.97375,1.9025 8.33775,1.9025 7.94775,2.2925 L5.82675,4.4135 L3.70575,2.2925 C3.31675,1.9025 2.68075,1.9025 2.29175,2.2925 C1.90275,2.6805 1.90275,3.3175 2.29175,3.7065 L4.41275,5.8275 L2.29175,7.9485 C1.90275,8.3375 1.90275,8.9735 2.29175,9.3625 C2.68075,9.7525 3.31675,9.7525 3.70575,9.3625 L5.82675,7.2415 L7.94775,9.3625 C8.33775,9.7525 8.97375,9.7525 9.36275,9.3625 C9.75175,8.9735 9.75175,8.3375 9.36275,7.9485" id="Fill-3"></path>
        </g>
    </g>
</svg>