<?xml version="1.0" encoding="UTF-8" standalone="no"?>
<svg width="12px" height="12px" viewBox="0 0 12 12" version="1.1" xmlns="http://www.w3.org/2000/svg" xmlns:xlink="http://www.w3.org/1999/xlink">
    <!-- Generator: Sketch 46.2 (44496) - http://www.bohemiancoding.com/sketch -->
    <title>Icon/utility/Indigo/12px/Global</title>
    <desc>Created with Sketch.</desc>
    <defs></defs>
    <g id="Symbols" stroke="none" stroke-width="1" fill="none" fill-rule="evenodd">
        <g id="Icon/utility/Indigo/12px/Global">
            <rect id="Rectangle-6" x="0" y="0" width="12" height="12"></rect>
            <path d="M6,0 C7.08854711,0 8.09244332,0.268226484 9.01171875,0.8046875 C9.93099418,1.34114852 10.6588515,2.06900582 11.1953125,2.98828125 C11.7317735,3.90755668 12,4.91145289 12,6 C12,7.08854711 11.7317735,8.09244332 11.1953125,9.01171875 C10.6588515,9.93099418 9.93099418,10.6588515 9.01171875,11.1953125 C8.09244332,11.7317735 7.08854711,12 6,12 C4.91145289,12 3.90755668,11.7317735 2.98828125,11.1953125 C2.06900582,10.6588515 1.34114852,9.93099418 0.8046875,9.01171875 C0.268226484,8.09244332 0,7.08854711 0,6 C0,4.91145289 0.268226484,3.90755668 0.8046875,2.98828125 C1.34114852,2.06900582 2.06900582,1.34114852 2.98828125,0.8046875 C3.90755668,0.268226484 4.91145289,0 6,0 Z M8.140625,4.0703125 C8.13020828,4.07552086 8.10546895,4.1002602 8.06640625,4.14453125 C8.02734355,4.1888023 7.99218766,4.21354164 7.9609375,4.21875 C7.97135422,4.21875 7.98307285,4.2057293 7.99609375,4.1796875 C8.00911465,4.1536457 8.02213535,4.12500016 8.03515625,4.09375 C8.04817715,4.06249984 8.05729164,4.04427086 8.0625,4.0390625 C8.09375016,4.00260398 8.15104125,3.96354187 8.234375,3.921875 C8.30729203,3.89062484 8.44270734,3.85937516 8.640625,3.828125 C8.81770922,3.78645812 8.95052039,3.81510367 9.0390625,3.9140625 C9.02864578,3.90364578 9.05338512,3.86979195 9.11328125,3.8125 C9.17317738,3.75520805 9.21093742,3.72395836 9.2265625,3.71875 C9.24218758,3.70833328 9.28124969,3.69661465 9.34375,3.68359375 C9.40625031,3.67057285 9.44531242,3.6510418 9.4609375,3.625 L9.4765625,3.453125 C9.41406219,3.45833336 9.36848973,3.44010437 9.33984375,3.3984375 C9.31119777,3.35677062 9.29427086,3.30208367 9.2890625,3.234375 C9.2890625,3.24479172 9.27343766,3.26562484 9.2421875,3.296875 C9.2421875,3.26041648 9.23046887,3.23958336 9.20703125,3.234375 C9.18359363,3.22916664 9.15364602,3.23177078 9.1171875,3.2421875 C9.08072898,3.25260422 9.05729172,3.25520836 9.046875,3.25 C8.99479141,3.23437492 8.9557293,3.21484387 8.9296875,3.19140625 C8.9036457,3.16796863 8.88281258,3.12500031 8.8671875,3.0625 C8.85156242,2.99999969 8.84114586,2.96093758 8.8359375,2.9453125 C8.82552078,2.9192707 8.80078145,2.89062516 8.76171875,2.859375 C8.72265605,2.82812484 8.69791672,2.80208344 8.6875,2.78125 C8.68229164,2.77083328 8.67578129,2.75651051 8.66796875,2.73828125 C8.66015621,2.72005199 8.65234379,2.70312508 8.64453125,2.6875 C8.63671871,2.67187492 8.62630215,2.65755215 8.61328125,2.64453125 C8.60026035,2.63151035 8.58593758,2.625 8.5703125,2.625 C8.55468742,2.625 8.53645844,2.6380207 8.515625,2.6640625 C8.49479156,2.6901043 8.47526051,2.7161457 8.45703125,2.7421875 C8.43880199,2.7682293 8.42708336,2.78125 8.421875,2.78125 C8.40624992,2.77083328 8.39062508,2.76692707 8.375,2.76953125 C8.35937492,2.77213543 8.34765629,2.77473957 8.33984375,2.77734375 C8.33203121,2.77994793 8.32031258,2.78776035 8.3046875,2.80078125 C8.28906242,2.81380215 8.27604172,2.82291664 8.265625,2.828125 C8.24999992,2.83854172 8.22786473,2.84635414 8.19921875,2.8515625 C8.17057277,2.85677086 8.14843758,2.86197914 8.1328125,2.8671875 C8.21093789,2.8411457 8.20833375,2.81250016 8.125,2.78125 C8.07291641,2.76041656 8.03125016,2.75260414 8,2.7578125 C8.04687523,2.73697906 8.06640629,2.70572937 8.05859375,2.6640625 C8.05078121,2.62239562 8.02864602,2.58593766 7.9921875,2.5546875 L8.03125,2.5546875 C8.02604164,2.53385406 8.00390645,2.51171887 7.96484375,2.48828125 C7.92578105,2.46484363 7.88020859,2.44270844 7.828125,2.421875 C7.77604141,2.40104156 7.74218758,2.38541672 7.7265625,2.375 C7.68489563,2.3489582 7.59635484,2.32421887 7.4609375,2.30078125 C7.32552016,2.27734363 7.23958352,2.27604156 7.203125,2.296875 C7.1770832,2.32812516 7.16536457,2.35546863 7.16796875,2.37890625 C7.17057293,2.40234387 7.18098949,2.43880184 7.19921875,2.48828125 C7.21744801,2.53776066 7.2265625,2.57031242 7.2265625,2.5859375 C7.23177086,2.61718766 7.21744809,2.65104148 7.18359375,2.6875 C7.14973941,2.72395852 7.1328125,2.7552082 7.1328125,2.78125 C7.1328125,2.81770852 7.16927047,2.8580727 7.2421875,2.90234375 C7.31510453,2.9466148 7.34114594,3.00260383 7.3203125,3.0703125 C7.30468742,3.11197937 7.26302117,3.15364562 7.1953125,3.1953125 C7.12760383,3.23697937 7.08593758,3.26822906 7.0703125,3.2890625 C7.0442707,3.33072937 7.04036449,3.37890598 7.05859375,3.43359375 C7.07682301,3.48828152 7.10416648,3.53124984 7.140625,3.5625 C7.15104172,3.57291672 7.15494793,3.58333328 7.15234375,3.59375 C7.14973957,3.60416672 7.14062508,3.61588535 7.125,3.62890625 C7.10937492,3.64192715 7.09505215,3.65234371 7.08203125,3.66015625 C7.06901035,3.66796879 7.05208344,3.67708328 7.03125,3.6875 L7.0078125,3.703125 C6.95052055,3.7291668 6.89713566,3.71354195 6.84765625,3.65625 C6.79817684,3.59895805 6.76302094,3.53125039 6.7421875,3.453125 C6.70572898,3.32291602 6.66406273,3.2447918 6.6171875,3.21875 C6.49739523,3.17708312 6.42187516,3.17968727 6.390625,3.2265625 C6.3645832,3.15885383 6.25781344,3.09114617 6.0703125,3.0234375 C5.94010352,2.97656227 5.78906336,2.9661457 5.6171875,2.9921875 C5.64843766,2.98697914 5.64843766,2.94791703 5.6171875,2.875 C5.58072898,2.79687461 5.53125031,2.76562492 5.46875,2.78125 C5.48437508,2.74999984 5.49479164,2.70442738 5.5,2.64453125 C5.50520836,2.58463512 5.5078125,2.54947922 5.5078125,2.5390625 C5.52343758,2.47135383 5.55468727,2.41145859 5.6015625,2.359375 C5.60677086,2.35416664 5.62499984,2.33203145 5.65625,2.29296875 C5.68750016,2.25390605 5.71223949,2.21875016 5.73046875,2.1875 C5.74869801,2.15624984 5.75000008,2.140625 5.734375,2.140625 C5.91666758,2.16145844 6.04687461,2.13281289 6.125,2.0546875 C6.1510418,2.0286457 6.18098941,1.98437531 6.21484375,1.921875 C6.24869809,1.85937469 6.27604156,1.8151043 6.296875,1.7890625 C6.34375023,1.75781234 6.3802082,1.74348957 6.40625,1.74609375 C6.4322918,1.74869793 6.47005184,1.7630207 6.51953125,1.7890625 C6.56901066,1.8151043 6.6067707,1.828125 6.6328125,1.828125 C6.70572953,1.83333336 6.74609371,1.80468781 6.75390625,1.7421875 C6.76171879,1.67968719 6.74218773,1.62760437 6.6953125,1.5859375 C6.75781281,1.59114586 6.76562523,1.54687547 6.71875,1.453125 C6.69791656,1.41666648 6.67708344,1.39322922 6.65625,1.3828125 C6.59374969,1.36197906 6.52343789,1.37499977 6.4453125,1.421875 C6.40364563,1.44270844 6.40885391,1.46354156 6.4609375,1.484375 C6.45572914,1.47916664 6.4309898,1.50651012 6.38671875,1.56640625 C6.3424477,1.62630238 6.29947937,1.67187484 6.2578125,1.703125 C6.21614563,1.73437516 6.17447938,1.72135445 6.1328125,1.6640625 C6.12760414,1.65885414 6.11328137,1.62369824 6.08984375,1.55859375 C6.06640613,1.49348926 6.0416668,1.45833336 6.015625,1.453125 C5.97395813,1.453125 5.93229188,1.49218711 5.890625,1.5703125 C5.90625008,1.52864562 5.87760453,1.48958352 5.8046875,1.453125 C5.73177047,1.41666648 5.66927109,1.39583336 5.6171875,1.390625 C5.71614633,1.32812469 5.6953132,1.25781289 5.5546875,1.1796875 C5.51822898,1.15885406 5.4648441,1.14583336 5.39453125,1.140625 C5.3242184,1.13541664 5.27343766,1.1458332 5.2421875,1.171875 C5.2161457,1.20833352 5.20182293,1.23828113 5.19921875,1.26171875 C5.19661457,1.28515637 5.20963527,1.30598949 5.23828125,1.32421875 C5.26692723,1.34244801 5.2942707,1.35677078 5.3203125,1.3671875 C5.3463543,1.37760422 5.37630191,1.38802078 5.41015625,1.3984375 C5.44401059,1.40885422 5.46614578,1.41666664 5.4765625,1.421875 C5.54947953,1.47395859 5.57031266,1.51041656 5.5390625,1.53125 C5.52864578,1.53645836 5.50651059,1.54557285 5.47265625,1.55859375 C5.43880191,1.57161465 5.4088543,1.58333328 5.3828125,1.59375 C5.3567707,1.60416672 5.34114586,1.61458328 5.3359375,1.625 C5.32031242,1.64583344 5.32031242,1.68229141 5.3359375,1.734375 C5.35156258,1.78645859 5.3463543,1.82291656 5.3203125,1.84375 C5.2942707,1.8177082 5.27083344,1.77213574 5.25,1.70703125 C5.22916656,1.64192676 5.21093758,1.59895844 5.1953125,1.578125 C5.23177102,1.62500023 5.1666675,1.64062508 5,1.625 L4.921875,1.6171875 C4.90104156,1.6171875 4.85937531,1.62239578 4.796875,1.6328125 C4.73437469,1.64322922 4.6809898,1.64583336 4.63671875,1.640625 C4.5924477,1.63541664 4.5572918,1.61458352 4.53125,1.578125 C4.51041656,1.53645812 4.51041656,1.48437531 4.53125,1.421875 C4.53645836,1.40104156 4.54687492,1.39583328 4.5625,1.40625 C4.54166656,1.39062492 4.51302102,1.36588559 4.4765625,1.33203125 C4.44010398,1.29817691 4.41406258,1.27604172 4.3984375,1.265625 C4.15885297,1.34375039 3.91406375,1.45052016 3.6640625,1.5859375 C3.69531266,1.59114586 3.72656234,1.58854172 3.7578125,1.578125 C3.7838543,1.56770828 3.81770812,1.55078137 3.859375,1.52734375 C3.90104187,1.50390613 3.92708328,1.48958336 3.9375,1.484375 C4.11458422,1.41145797 4.22395813,1.39322898 4.265625,1.4296875 L4.3046875,1.390625 C4.37760453,1.47395875 4.42968734,1.53906227 4.4609375,1.5859375 C4.42447898,1.56510406 4.34635477,1.56249992 4.2265625,1.578125 C4.12239531,1.60937516 4.06510422,1.64062484 4.0546875,1.671875 C4.09114602,1.73437531 4.10416672,1.78124984 4.09375,1.8125 C4.07291656,1.79687492 4.04296895,1.77083352 4.00390625,1.734375 C3.96484355,1.69791648 3.92708352,1.66927094 3.890625,1.6484375 C3.85416648,1.62760406 3.81510437,1.61458336 3.7734375,1.609375 C3.69010375,1.609375 3.63281266,1.61197914 3.6015625,1.6171875 C2.84114203,2.03385625 2.22916898,2.61197547 1.765625,3.3515625 C1.80208352,3.38802102 1.8333332,3.40885414 1.859375,3.4140625 C1.88020844,3.41927086 1.89322914,3.44270812 1.8984375,3.484375 C1.90364586,3.52604187 1.91015621,3.55468742 1.91796875,3.5703125 C1.92578129,3.58593758 1.95572891,3.57812516 2.0078125,3.546875 C2.05468773,3.58854187 2.06250016,3.63802055 2.03125,3.6953125 C2.03645836,3.69010414 2.15104055,3.76041594 2.375,3.90625 C2.47395883,3.99479211 2.52864578,4.04947906 2.5390625,4.0703125 C2.55468758,4.12760445 2.52864617,4.17447898 2.4609375,4.2109375 C2.45572914,4.20052078 2.43229188,4.17708352 2.390625,4.140625 C2.34895812,4.10416648 2.32552086,4.09374992 2.3203125,4.109375 C2.30468742,4.1354168 2.30598949,4.1835934 2.32421875,4.25390625 C2.34244801,4.3242191 2.36979148,4.35677086 2.40625,4.3515625 C2.36979148,4.3515625 2.34505215,4.39322875 2.33203125,4.4765625 C2.31901035,4.55989625 2.3125,4.65234324 2.3125,4.75390625 C2.3125,4.85546926 2.30989586,4.91666656 2.3046875,4.9375 L2.3203125,4.9453125 C2.30468742,5.00781281 2.3190102,5.09765566 2.36328125,5.21484375 C2.4075523,5.33203184 2.46354133,5.38281258 2.53125,5.3671875 C2.46354133,5.38281258 2.51562414,5.49479062 2.6875,5.703125 C2.71875016,5.74479187 2.73958328,5.76822914 2.75,5.7734375 C2.76562508,5.78385422 2.79687477,5.80338527 2.84375,5.83203125 C2.89062523,5.86067723 2.92968734,5.88671863 2.9609375,5.91015625 C2.99218766,5.93359387 3.01822906,5.96093734 3.0390625,5.9921875 C3.05989594,6.0182293 3.08593734,6.07682246 3.1171875,6.16796875 C3.14843766,6.25911504 3.18489563,6.32031234 3.2265625,6.3515625 C3.21614578,6.38281266 3.24088512,6.43489547 3.30078125,6.5078125 C3.36067738,6.58072953 3.38802086,6.64062477 3.3828125,6.6875 C3.37760414,6.6875 3.37109379,6.69010414 3.36328125,6.6953125 C3.35546871,6.70052086 3.34895836,6.703125 3.34375,6.703125 C3.35937508,6.73958352 3.39973926,6.77604148 3.46484375,6.8125 C3.52994824,6.84895852 3.57031242,6.88281234 3.5859375,6.9140625 C3.59114586,6.92968758 3.59635414,6.95572898 3.6015625,6.9921875 C3.60677086,7.02864602 3.61458328,7.05729156 3.625,7.078125 C3.63541672,7.09895844 3.65624984,7.10416672 3.6875,7.09375 C3.69791672,6.98958281 3.63541734,6.82812609 3.5,6.609375 C3.42187461,6.47916602 3.37760422,6.40364594 3.3671875,6.3828125 C3.35156242,6.3567707 3.33723965,6.31640652 3.32421875,6.26171875 C3.31119785,6.20703098 3.29947922,6.16927094 3.2890625,6.1484375 C3.29947922,6.1484375 3.31510406,6.15234371 3.3359375,6.16015625 C3.35677094,6.16796879 3.37890613,6.17708328 3.40234375,6.1875 C3.42578137,6.19791672 3.44531242,6.20833328 3.4609375,6.21875 C3.47656258,6.22916672 3.48177086,6.23697914 3.4765625,6.2421875 C3.46093742,6.27864602 3.4661457,6.32421848 3.4921875,6.37890625 C3.5182293,6.43359402 3.54947898,6.48177062 3.5859375,6.5234375 C3.62239602,6.56510437 3.66666641,6.61458305 3.71875,6.671875 C3.77083359,6.72916695 3.80208328,6.76302078 3.8125,6.7734375 C3.84375016,6.80468766 3.88020812,6.8554684 3.921875,6.92578125 C3.96354188,6.9960941 3.96354188,7.03125 3.921875,7.03125 C3.96875023,7.03125 4.02083305,7.05859348 4.078125,7.11328125 C4.13541695,7.16796902 4.17968734,7.21874977 4.2109375,7.265625 C4.2369793,7.30729187 4.25781242,7.37499953 4.2734375,7.46875 C4.28906258,7.56250047 4.30208328,7.62499984 4.3125,7.65625 C4.32291672,7.69270852 4.34505191,7.72786441 4.37890625,7.76171875 C4.41276059,7.79557309 4.44531234,7.82031242 4.4765625,7.8359375 L4.6015625,7.8984375 C4.65364609,7.9244793 4.68749992,7.94270828 4.703125,7.953125 C4.7291668,7.96354172 4.7773434,7.9908852 4.84765625,8.03515625 C4.9179691,8.0794273 4.97395812,8.10937492 5.015625,8.125 C5.06770859,8.14583344 5.10937484,8.15625 5.140625,8.15625 C5.17187516,8.15625 5.2096352,8.14973965 5.25390625,8.13671875 C5.2981773,8.12369785 5.3333332,8.11458336 5.359375,8.109375 C5.43750039,8.09895828 5.51302047,8.13802039 5.5859375,8.2265625 C5.65885453,8.31510461 5.71354148,8.36979156 5.75,8.390625 C5.93750094,8.48958383 6.08072867,8.51822937 6.1796875,8.4765625 C6.16927078,8.48177086 6.17057285,8.50130191 6.18359375,8.53515625 C6.19661465,8.56901059 6.21744777,8.60937477 6.24609375,8.65625 C6.27473973,8.70312523 6.29817699,8.74088527 6.31640625,8.76953125 C6.33463551,8.79817723 6.34895828,8.82031242 6.359375,8.8359375 C6.3854168,8.86718766 6.43229133,8.90624977 6.5,8.953125 C6.56770867,9.00000023 6.6145832,9.03906234 6.640625,9.0703125 C6.67187516,9.04947906 6.69010414,9.0260418 6.6953125,9 C6.67968742,9.04166687 6.69791641,9.09374969 6.75,9.15625 C6.80208359,9.21875031 6.84895813,9.24479172 6.890625,9.234375 C6.96354203,9.21874992 7,9.13541742 7,8.984375 C6.83854086,9.06250039 6.71093797,9.01562586 6.6171875,8.84375 C6.6171875,8.83854164 6.61067715,8.82421887 6.59765625,8.80078125 C6.58463535,8.77734363 6.57421879,8.75520844 6.56640625,8.734375 C6.55859371,8.71354156 6.55208336,8.69140637 6.546875,8.66796875 C6.54166664,8.64453113 6.54166664,8.62500008 6.546875,8.609375 C6.55208336,8.59374992 6.56510406,8.5859375 6.5859375,8.5859375 C6.63281273,8.5859375 6.65885414,8.57682301 6.6640625,8.55859375 C6.66927086,8.54036449 6.66406258,8.50781273 6.6484375,8.4609375 C6.63281242,8.41406227 6.62239586,8.38020844 6.6171875,8.359375 C6.61197914,8.31770812 6.58333359,8.26562531 6.53125,8.203125 C6.47916641,8.14062469 6.44791672,8.10156258 6.4375,8.0859375 C6.4114582,8.13281273 6.36979195,8.15364586 6.3125,8.1484375 C6.25520805,8.14322914 6.2135418,8.11979187 6.1875,8.078125 C6.1875,8.08333336 6.18359379,8.09765613 6.17578125,8.12109375 C6.16796871,8.14453137 6.1640625,8.16145828 6.1640625,8.171875 C6.09635383,8.171875 6.05729172,8.16927086 6.046875,8.1640625 C6.05208336,8.14843742 6.05859371,8.10286496 6.06640625,8.02734375 C6.07421879,7.95182254 6.08333328,7.89322937 6.09375,7.8515625 C6.09895836,7.83072906 6.11328113,7.79947937 6.13671875,7.7578125 C6.16015637,7.71614562 6.17968742,7.67838559 6.1953125,7.64453125 C6.21093758,7.61067691 6.22135414,7.57812516 6.2265625,7.546875 C6.23177086,7.51562484 6.22005223,7.49088551 6.19140625,7.47265625 C6.16276027,7.45442699 6.11718781,7.44791664 6.0546875,7.453125 C5.95572867,7.45833336 5.88802102,7.51041617 5.8515625,7.609375 C5.84635414,7.62500008 5.83854172,7.65234355 5.828125,7.69140625 C5.81770828,7.73046895 5.80468758,7.76041656 5.7890625,7.78125 C5.77343742,7.80208344 5.75000016,7.82031242 5.71875,7.8359375 C5.68229148,7.85156258 5.61979211,7.85677086 5.53125,7.8515625 C5.44270789,7.84635414 5.38020852,7.83333344 5.34375,7.8125 C5.27604133,7.77083312 5.21744816,7.69531305 5.16796875,7.5859375 C5.11848934,7.47656195 5.09375,7.38020875 5.09375,7.296875 C5.09375,7.24479141 5.10026035,7.17578168 5.11328125,7.08984375 C5.12630215,7.00390582 5.13411457,6.9388023 5.13671875,6.89453125 C5.13932293,6.8502602 5.12500016,6.78645875 5.09375,6.703125 C5.10937508,6.69270828 5.13281234,6.66796895 5.1640625,6.62890625 C5.19531266,6.58984355 5.22135406,6.56250008 5.2421875,6.546875 C5.25260422,6.54166664 5.26432285,6.53776043 5.27734375,6.53515625 C5.29036465,6.53255207 5.30208328,6.53255207 5.3125,6.53515625 C5.32291672,6.53776043 5.33333328,6.53385422 5.34375,6.5234375 C5.35416672,6.51302078 5.36197914,6.49739594 5.3671875,6.4765625 C5.36197914,6.47135414 5.35156258,6.46354172 5.3359375,6.453125 C5.32031242,6.43749992 5.30989586,6.4296875 5.3046875,6.4296875 C5.34114602,6.44531258 5.41536402,6.44140637 5.52734375,6.41796875 C5.63932348,6.39453113 5.71093734,6.39843734 5.7421875,6.4296875 C5.82031289,6.48697945 5.87760398,6.48177117 5.9140625,6.4140625 C5.9140625,6.40885414 5.90755215,6.3841148 5.89453125,6.33984375 C5.88151035,6.2955727 5.88020828,6.2604168 5.890625,6.234375 C5.9166668,6.3750007 5.99218688,6.39843797 6.1171875,6.3046875 C6.13281258,6.32031258 6.17317676,6.33333328 6.23828125,6.34375 C6.30338574,6.35416672 6.3489582,6.36718742 6.375,6.3828125 C6.39062508,6.39322922 6.40885406,6.40755199 6.4296875,6.42578125 C6.45052094,6.44401051 6.46484371,6.45572914 6.47265625,6.4609375 C6.48046879,6.46614586 6.49348949,6.46484379 6.51171875,6.45703125 C6.52994801,6.44921871 6.5520832,6.4322918 6.578125,6.40625 C6.63020859,6.47916703 6.66145828,6.54166641 6.671875,6.59375 C6.72916695,6.80208437 6.77864562,6.91666656 6.8203125,6.9375 C6.85677102,6.95312508 6.88541656,6.95833336 6.90625,6.953125 C6.92708344,6.94791664 6.93880207,6.9231773 6.94140625,6.87890625 C6.94401043,6.8346352 6.94401043,6.79817723 6.94140625,6.76953125 C6.93880207,6.74088527 6.93489586,6.70833352 6.9296875,6.671875 L6.921875,6.609375 L6.921875,6.46875 L6.9140625,6.40625 C6.83593711,6.39062492 6.78776051,6.35937523 6.76953125,6.3125 C6.75130199,6.26562477 6.7552082,6.21744816 6.78125,6.16796875 C6.8072918,6.11848934 6.84635391,6.07031273 6.8984375,6.0234375 C6.90364586,6.01822914 6.92447898,6.00911465 6.9609375,5.99609375 C6.99739602,5.98307285 7.0377602,5.96614594 7.08203125,5.9453125 C7.1263023,5.92447906 7.15885406,5.90364594 7.1796875,5.8828125 C7.28906305,5.78385367 7.32812516,5.69270875 7.296875,5.609375 C7.33333352,5.609375 7.36197906,5.58593773 7.3828125,5.5390625 C7.37760414,5.5390625 7.36458344,5.53125008 7.34375,5.515625 C7.32291656,5.49999992 7.30338551,5.48697922 7.28515625,5.4765625 C7.26692699,5.46614578 7.25520836,5.4609375 7.25,5.4609375 C7.29687523,5.4348957 7.30208352,5.39322945 7.265625,5.3359375 C7.2916668,5.32031242 7.31119785,5.29166687 7.32421875,5.25 C7.33723965,5.20833312 7.3567707,5.18229172 7.3828125,5.171875 C7.42968773,5.23437531 7.48437469,5.23958359 7.546875,5.1875 C7.58854187,5.14583312 7.59114602,5.10416687 7.5546875,5.0625 C7.5807293,5.02604148 7.63411418,4.99869801 7.71484375,4.98046875 C7.79557332,4.96223949 7.84374992,4.93750016 7.859375,4.90625 C7.89583352,4.91666672 7.91666664,4.91145844 7.921875,4.890625 C7.92708336,4.86979156 7.9296875,4.83854187 7.9296875,4.796875 C7.9296875,4.75520812 7.93749992,4.72395844 7.953125,4.703125 C7.97395844,4.6770832 8.01302055,4.65364594 8.0703125,4.6328125 C8.12760445,4.61197906 8.16145828,4.59895836 8.171875,4.59375 L8.3046875,4.5078125 C8.32031258,4.48697906 8.32031258,4.4765625 8.3046875,4.4765625 C8.39843797,4.48697922 8.47916633,4.45833367 8.546875,4.390625 C8.59895859,4.33333305 8.58333375,4.28125023 8.5,4.234375 C8.51562508,4.20312484 8.50781266,4.17838551 8.4765625,4.16015625 C8.44531234,4.14192699 8.40625023,4.12760422 8.359375,4.1171875 C8.37500008,4.11197914 8.4049477,4.11067707 8.44921875,4.11328125 C8.4934898,4.11588543 8.52083328,4.11197922 8.53125,4.1015625 C8.60937539,4.04947891 8.59114641,4.00781266 8.4765625,3.9765625 C8.38802039,3.9505207 8.27604234,3.98177039 8.140625,4.0703125 Z M6.8671875,10.921875 C7.94010953,10.7343741 8.85416289,10.2421915 9.609375,9.4453125 C9.59374992,9.42968742 9.56119816,9.41796879 9.51171875,9.41015625 C9.46223934,9.40234371 9.42968758,9.39322922 9.4140625,9.3828125 C9.32031203,9.34635398 9.25781266,9.32552086 9.2265625,9.3203125 C9.23177086,9.28385398 9.22526051,9.25000016 9.20703125,9.21875 C9.18880199,9.18749984 9.16796887,9.16406258 9.14453125,9.1484375 C9.12109363,9.13281242 9.08854187,9.1119793 9.046875,9.0859375 C9.00520813,9.0598957 8.97656258,9.04166672 8.9609375,9.03125 C8.95052078,9.02083328 8.9322918,9.00520844 8.90625,8.984375 C8.8802082,8.96354156 8.86197922,8.94921879 8.8515625,8.94140625 C8.84114578,8.93359371 8.82161473,8.92187508 8.79296875,8.90625 C8.76432277,8.89062492 8.74218758,8.88541664 8.7265625,8.890625 C8.71093742,8.89583336 8.68489602,8.8984375 8.6484375,8.8984375 L8.625,8.90625 C8.60937492,8.91145836 8.59505215,8.91796871 8.58203125,8.92578125 C8.56901035,8.93359379 8.55468758,8.94140621 8.5390625,8.94921875 C8.52343742,8.95703129 8.51302086,8.96484371 8.5078125,8.97265625 C8.50260414,8.98046879 8.50260414,8.98697914 8.5078125,8.9921875 C8.39843695,8.90364539 8.30468789,8.8463543 8.2265625,8.8203125 C8.2005207,8.81510414 8.17187516,8.80078137 8.140625,8.77734375 C8.10937484,8.75390613 8.08203137,8.73567715 8.05859375,8.72265625 C8.03515613,8.70963535 8.00911473,8.70572914 7.98046875,8.7109375 C7.95182277,8.71614586 7.92187516,8.73437484 7.890625,8.765625 C7.8645832,8.7916668 7.84895836,8.83072891 7.84375,8.8828125 C7.83854164,8.93489609 7.83333336,8.96874992 7.828125,8.984375 C7.79166648,8.9583332 7.79166648,8.91276074 7.828125,8.84765625 C7.86458352,8.78255176 7.8697918,8.73437516 7.84375,8.703125 C7.82812492,8.67187484 7.80078145,8.66015621 7.76171875,8.66796875 C7.72265605,8.67578129 7.69140637,8.68749992 7.66796875,8.703125 C7.64453113,8.71875008 7.61458352,8.74088527 7.578125,8.76953125 C7.54166648,8.79817723 7.51822922,8.81510414 7.5078125,8.8203125 C7.49739578,8.82552086 7.47526059,8.83984363 7.44140625,8.86328125 C7.40755191,8.88671887 7.38541672,8.90624992 7.375,8.921875 C7.35937492,8.94270844 7.34375008,8.97395812 7.328125,9.015625 C7.31249992,9.05729187 7.29947922,9.08593742 7.2890625,9.1015625 C7.27864578,9.08072906 7.24869816,9.06380215 7.19921875,9.05078125 C7.14973934,9.03776035 7.125,9.02343758 7.125,9.0078125 C7.13541672,9.05989609 7.14583328,9.15104102 7.15625,9.28125 C7.16666672,9.41145898 7.17968742,9.51041633 7.1953125,9.578125 C7.23177102,9.73958414 7.20052133,9.86458289 7.1015625,9.953125 C6.9609368,10.083334 6.88541672,10.1874996 6.875,10.265625 C6.85416656,10.3802089 6.88541625,10.4479166 6.96875,10.46875 C6.96875,10.5052085 6.94791688,10.5585934 6.90625,10.6289062 C6.86458313,10.6992191 6.84635414,10.7552081 6.8515625,10.796875 C6.8515625,10.8281252 6.85677078,10.8697914 6.8671875,10.921875 Z" id="Global" fill="#1F2555"></path>
        </g>
    </g>
</svg>