<?xml version="1.0" encoding="UTF-8" standalone="no"?>
<svg width="12px" height="12px" viewBox="0 0 12 12" version="1.1" xmlns="http://www.w3.org/2000/svg" xmlns:xlink="http://www.w3.org/1999/xlink">
    <!-- Generator: Sketch 46.2 (44496) - http://www.bohemiancoding.com/sketch -->
    <title>Icon/utility/Indigo/12px/Link</title>
    <desc>Created with Sketch.</desc>
    <defs></defs>
    <g id="Symbols" stroke="none" stroke-width="1" fill="none" fill-rule="evenodd">
        <g id="Icon/utility/Indigo/12px/Link" fill="#1F2555">
            <g id="Page-1">
                <path d="M10.0426665,4.10384625 L7.89753375,6.24897899 C7.32711656,6.81939618 6.32130114,6.81787912 5.75240101,6.24897899 C5.45657295,5.95315092 4.97566271,5.95315092 4.67983464,6.24897899 C4.38400657,6.54480705 4.38400657,7.02571729 4.67983464,7.32154536 C5.06365259,7.70536331 5.5369775,7.96174764 6.05126321,8.0967666 L4.10486625,10.0416465 C3.53444905,10.6120637 2.52863363,10.6105466 1.9597335,10.0416465 C1.67452491,9.75795497 1.518267,9.37717115 1.518267,8.96908013 C1.518267,8.56250617 1.67452491,8.18172235 1.9597335,7.89651375 L4.10486625,5.75138101 C4.67376637,5.18096382 5.68109886,5.18248088 6.24999899,5.75138101 C6.54582705,6.04720908 7.02673729,6.04720908 7.32256536,5.75138101 C7.61839343,5.45555295 7.61839343,4.97464271 7.32256536,4.67881464 C6.93874741,4.29499669 6.4654225,4.03861236 5.95113679,3.9035934 L7.89753375,1.9587135 C8.46643388,1.38829631 9.47376637,1.38981338 10.0426665,1.9587135 C10.3278751,2.24240503 10.484133,2.62318885 10.484133,3.03127987 C10.484133,3.43785383 10.326358,3.82015472 10.0426665,4.10384625 M11.1152329,0.88614713 C10.5448157,0.31421287 9.78173097,0.00018 8.97010013,0.00018 C8.15846928,0.00018 7.39538458,0.31421287 6.82496738,0.88614713 L4.67983464,3.03127987 C4.45227459,3.25732286 4.40221138,3.5910776 4.52205967,3.86870086 C3.96226195,3.99158329 3.44645917,4.26465535 3.03229987,4.67881464 L0.88716713,6.82394738 C0.31523287,7.39588164 0.0012,8.15744928 0.0012,8.96908013 C0.0012,9.78071097 0.31523287,10.5422786 0.88716713,11.1142129 C1.45758432,11.6861471 2.22066903,12.00018 3.03229987,12.00018 C3.84393072,12.00018 4.60701542,11.6861471 5.17743262,11.1142129 L7.32256536,8.96908013 C7.55012541,8.74303714 7.60018862,8.4092824 7.48034033,8.13165914 C8.04013805,8.00877671 8.55594083,7.73570465 8.97010013,7.32154536 L11.1152329,5.17641262 C11.6871671,4.60447836 12.0012,3.84291072 12.0012,3.03127987 C12.0012,2.21964903 11.6871671,1.45808139 11.1152329,0.88614713" id="Fill-1"></path>
            </g>
        </g>
    </g>
</svg>