<?xml version="1.0" encoding="UTF-8" standalone="no"?>
<svg width="12px" height="12px" viewBox="0 0 12 12" version="1.1" xmlns="http://www.w3.org/2000/svg" xmlns:xlink="http://www.w3.org/1999/xlink">
    <!-- Generator: Sketch 46.2 (44496) - http://www.bohemiancoding.com/sketch -->
    <title>Icon/utility/Indigo/12px/More</title>
    <desc>Created with Sketch.</desc>
    <defs></defs>
    <g id="Symbols" stroke="none" stroke-width="1" fill="none" fill-rule="evenodd">
        <g id="Icon/utility/Indigo/12px/More">
            <rect id="Rectangle-6" x="0" y="0" width="12" height="12"></rect>
            <g id="Page-1" transform="translate(1.000000, 5.000000)" stroke="#1F2555" fill="#1F2555">
                <path d="M6.0347,1 C6.0347,1.552 5.5867,2 5.0347,2 C4.4827,2 4.0347,1.552 4.0347,1 C4.0347,0.448 4.4827,0 5.0347,0 C5.5867,0 6.0347,0.448 6.0347,1" id="Fill-1"></path>
                <path d="M2.00005,1 C2.00005,1.552 1.55205,2 1.00005,2 C0.44805,2 4.99999996e-05,1.552 4.99999996e-05,1 C4.99999996e-05,0.448 0.44805,0 1.00005,0 C1.55205,0 2.00005,0.448 2.00005,1" id="Fill-3"></path>
                <path d="M10.0694,1 C10.0694,1.552 9.6214,2 9.0694,2 C8.5174,2 8.0694,1.552 8.0694,1 C8.0694,0.448 8.5174,0 9.0694,0 C9.6214,0 10.0694,0.448 10.0694,1" id="Fill-5"></path>
            </g>
        </g>
    </g>
</svg>