<?xml version="1.0" encoding="UTF-8" standalone="no"?>
<svg width="12px" height="12px" viewBox="0 0 12 12" version="1.1" xmlns="http://www.w3.org/2000/svg" xmlns:xlink="http://www.w3.org/1999/xlink">
    <!-- Generator: Sketch 46.2 (44496) - http://www.bohemiancoding.com/sketch -->
    <title>Icon/utility/Indigo/12px/Pencil</title>
    <desc>Created with Sketch.</desc>
    <defs></defs>
    <g id="Symbols" stroke="none" stroke-width="1" fill="none" fill-rule="evenodd">
        <g id="Icon/utility/Indigo/12px/Pencil">
            <rect id="Rectangle-6" x="0" y="0" width="12" height="12"></rect>
            <g id="Page-1" fill="#1F2555">
                <path d="M9.0384,2.3552 C9.2824,2.1122 9.5284,1.8912 9.6724,1.8902 L9.6734,1.8902 C9.7364,1.8902 9.8344,1.9502 9.9384,2.0542 C10.0454,2.1612 10.1054,2.2592 10.1054,2.3222 C10.1044,2.4662 9.8834,2.7122 9.6404,2.9562 L9.0384,2.3552 Z M2.0134,9.9822 C2.0654,9.6432 2.1904,9.2072 2.4864,8.9102 L7.6804,3.7162 L8.2784,4.3142 L3.0844,9.5082 C2.7874,9.8052 2.3514,9.9302 2.0134,9.9822 L2.0134,9.9822 Z M11.2964,0.6982 C9.6394,-0.9578 7.8974,0.7772 7.3244,1.3482 L1.1234,7.5492 C-0.0976,8.7752 -0.0006,11.4012 0.0034,11.5132 L0.0224,11.9722 L0.4824,11.9912 C0.4994,11.9922 0.5734,11.9952 0.6904,11.9952 C1.3544,11.9952 3.4054,11.9072 4.4464,10.8702 L10.6474,4.6692 C11.2184,4.0972 12.9524,2.3552 11.2964,0.6982 L11.2964,0.6982 Z" id="Fill-1"></path>
            </g>
        </g>
    </g>
</svg>