<?xml version="1.0" encoding="UTF-8" standalone="no"?>
<svg width="12px" height="12px" viewBox="0 0 12 12" version="1.1" xmlns="http://www.w3.org/2000/svg" xmlns:xlink="http://www.w3.org/1999/xlink">
    <!-- Generator: Sketch 46.2 (44496) - http://www.bohemiancoding.com/sketch -->
    <title>Icon/utility/Indigo/12px/Plus</title>
    <desc>Created with Sketch.</desc>
    <defs></defs>
    <g id="Symbols" stroke="none" stroke-width="1" fill="none" fill-rule="evenodd">
        <g id="Icon/utility/Indigo/12px/Plus" fill="#1F2555">
            <path d="M10,5 L7,5 L7,2 C7,1.45 6.55,1 6,1 C5.45,1 5,1.45 5,2 L5,5 L2,5 C1.45,5 1,5.45 1,6 C1,6.55 1.45,7 2,7 L5,7 L5,10 C5,10.55 5.45,11 6,11 C6.55,11 7,10.55 7,10 L7,7 L10,7 C10.55,7 11,6.55 11,6 C11,5.45 10.55,5 10,5" id="Fill-3"></path>
        </g>
    </g>
</svg>