<?xml version="1.0" encoding="UTF-8" standalone="no"?>
<svg width="12px" height="12px" viewBox="0 0 12 12" version="1.1" xmlns="http://www.w3.org/2000/svg" xmlns:xlink="http://www.w3.org/1999/xlink">
    <!-- Generator: Sketch 46.2 (44496) - http://www.bohemiancoding.com/sketch -->
    <title>Icon/utility/White/12px/Refresh</title>
    <desc>Created with Sketch.</desc>
    <defs></defs>
    <g id="Symbols" stroke="none" stroke-width="1" fill="none" fill-rule="evenodd">
        <g id="Icon/utility/White/12px/Refresh">
            <rect id="Rectangle-6" x="0" y="0" width="12" height="12"></rect>
            <g id="refresh-cw" transform="translate(0.000000, 0.500000)" stroke="#1F2555" fill-rule="nonzero" fill="#1F2555" stroke-linecap="round" stroke-linejoin="round">
                <path d="M11.4954724,1.5005 C11.4954724,1.2255 11.2704724,1.0005 10.9954724,1.0005 C10.7204724,1.0005 10.4954724,1.2255 10.4954724,1.5005 L10.4954724,3.344 L9.0234724,1.9595 C8.0799724,1.019 6.8264724,0.5 5.4924724,0.5 C4.4424724,0.5 3.4394724,0.822 2.5894724,1.4315 C1.7549724,2.0315 1.1299724,2.8595 0.779972403,3.8315 C0.685972403,4.091 0.820472403,4.3785 1.0799724,4.472 C1.3394724,4.5655 1.6269724,4.4315 1.7204724,4.172 C2.0019724,3.394 2.5049724,2.7285 3.1704724,2.247 C3.8514724,1.7595 4.6514724,1.5 5.4924724,1.5 C6.5614724,1.5 7.5674724,1.9155 8.3204724,2.672 C8.3234724,2.675 8.3264724,2.678 8.3329724,2.6815 L9.7329724,3.997 L7.9954724,3.997 C7.7204724,3.997 7.4954724,4.222 7.4954724,4.497 C7.4954724,4.772 7.7204724,4.997 7.9954724,4.997 L10.9894724,4.997 C10.9924724,4.997 10.9924724,4.997 10.9954724,4.997 C11.0079724,4.997 11.0204724,4.997 11.0329724,4.997 C11.0329724,4.997 11.0329724,4.997 11.0359724,4.997 C11.0359724,4.997 11.0389724,4.997 11.0389724,4.997 C11.0419724,4.997 11.0419724,4.997 11.0449724,4.997 C11.0449724,4.997 11.0449724,4.997 11.0449724,4.997 C11.0919724,4.994 11.1354724,4.9815 11.1759724,4.9655 C11.2449724,4.9405 11.3074724,4.8965 11.3604724,4.8405 C11.4074724,4.7905 11.4414724,4.734 11.4634724,4.675 C11.4634724,4.675 11.4634724,4.675 11.4634724,4.675 C11.4634724,4.672 11.4634724,4.672 11.4664724,4.669 C11.4664724,4.669 11.4664724,4.669 11.4664724,4.666 C11.4664724,4.666 11.4664724,4.663 11.4664724,4.663 C11.4664724,4.663 11.4664724,4.66 11.4664724,4.66 C11.4664724,4.66 11.4664724,4.66 11.4664724,4.657 C11.4664724,4.654 11.4664724,4.654 11.4694724,4.651 L11.4694724,4.651 C11.4819724,4.6135 11.4914724,4.57 11.4944724,4.529 C11.4944724,4.529 11.4944724,4.529 11.4944724,4.529 C11.4944724,4.529 11.4944724,4.529 11.4944724,4.526 C11.4944724,4.526 11.4944724,4.523 11.4944724,4.523 C11.4944724,4.523 11.4944724,4.523 11.4944724,4.523 C11.4944724,4.52 11.4944724,4.52 11.4944724,4.517 C11.4944724,4.517 11.4944724,4.517 11.4944724,4.517 C11.4944724,4.514 11.4944724,4.514 11.4944724,4.511 C11.4944724,4.511 11.4944724,4.511 11.4944724,4.511 C11.4944724,4.508 11.4944724,4.508 11.4944724,4.505 C11.4944724,4.505 11.4944724,4.505 11.4944724,4.502 C11.4944724,4.499 11.4944724,4.499 11.4944724,4.496 C11.4944724,4.496 11.4944724,4.496 11.4944724,4.496 L11.4944724,1.502 L11.4954724,1.5005 Z" id="Shape"></path>
                <path d="M10.8985,6.5625 C10.639,6.4685 10.3515,6.603 10.258,6.8625 C9.686,8.4375 8.1735,9.5 6.4955,9.5 C5.427,9.5 4.4205,9.0845 3.6675,8.328 C3.6645,8.325 3.6615,8.322 3.655,8.3185 L2.255,7 L3.9925,7 C4.2675,7 4.4925,6.775 4.4925,6.5 C4.4925,6.225 4.2675,6 3.9925,6 L0.9925,6 C0.9175,6 0.8455,6.0155 0.78,6.047 C0.78,6.047 0.78,6.047 0.78,6.047 C0.78,6.047 0.777,6.047 0.777,6.05 C0.777,6.05 0.774,6.05 0.774,6.053 C0.774,6.053 0.774,6.053 0.774,6.053 C0.771,6.053 0.771,6.056 0.768,6.056 C0.768,6.056 0.768,6.056 0.768,6.056 C0.7275,6.078 0.69,6.103 0.6555,6.134 C0.6555,6.134 0.6555,6.134 0.6555,6.134 C0.6555,6.134 0.6525,6.137 0.6525,6.137 C0.6525,6.137 0.6525,6.137 0.6525,6.137 C0.6525,6.137 0.6495,6.137 0.6495,6.14 C0.6495,6.14 0.6465,6.143 0.6465,6.143 C0.6465,6.143 0.6465,6.143 0.6465,6.143 C0.6465,6.143 0.6435,6.146 0.6435,6.146 C0.6435,6.146 0.6435,6.146 0.6435,6.146 C0.6435,6.146 0.6405,6.149 0.6405,6.149 C0.6405,6.149 0.6405,6.149 0.6405,6.149 C0.628,6.1615 0.6185,6.174 0.606,6.1865 C0.581,6.218 0.559,6.252 0.5435,6.2895 C0.5435,6.2895 0.5435,6.2895 0.5435,6.2895 C0.5435,6.2925 0.5435,6.2925 0.5405,6.2955 C0.5405,6.2955 0.5405,6.2955 0.5405,6.2955 C0.5405,6.2955 0.5405,6.2985 0.5375,6.2985 C0.5375,6.2985 0.5375,6.3015 0.5375,6.3015 C0.5375,6.3015 0.5375,6.3045 0.5375,6.3045 C0.5375,6.3045 0.5375,6.3075 0.5345,6.3075 C0.5345,6.3075 0.5345,6.3075 0.5345,6.3075 C0.5155,6.3575 0.503,6.414 0.5,6.47 C0.5,6.47 0.5,6.47 0.5,6.473 C0.5,6.473 0.5,6.476 0.5,6.476 C0.5,6.476 0.5,6.479 0.5,6.479 C0.5,6.479 0.5,6.482 0.5,6.482 C0.5,6.482 0.5,6.485 0.5,6.485 C0.5,6.485 0.5,6.488 0.5,6.488 C0.5,6.488 0.5,6.491 0.5,6.491 C0.5,6.491 0.5,6.491 0.5,6.491 L0.5,9.491 C0.5,9.766 0.725,9.991 1,9.991 C1.275,9.991 1.5,9.766 1.5,9.491 L1.5,7.6475 L2.972,9.032 C3.9155,9.9725 5.169,10.4915 6.503,10.4915 C8.6,10.4915 10.4905,9.1665 11.206,7.1945 C11.2935,6.938 11.159,6.654 10.9,6.56 L10.8985,6.5625 Z" id="Shape"></path>
            </g>
        </g>
    </g>
</svg>