<svg enable-background="new 0 0 516.6 67.1" viewBox="0 0 516.6 67.1" xmlns="http://www.w3.org/2000/svg"><path clip-rule="evenodd" d="m136.1 17-.1-.1c-1.3-.6-2.9-.3-3.9.8l-.2.2 3.5 1.7zm16.1 19.3s-1.5 2.7-2.2 3.7-2.8 1.7-4.7.8c-.9-.4-8.8-5.1-11.9-4.8-15.4 1.3-19.6-5-20.1-5.6s-1.4-.3-.8.8c3.4 5.8 13.4 8.5 13.4 8.5 1.5 3.4 2.5 7 2.9 10.7-2.6-2-5.4-3.7-8.4-5.2-11.4-7.4-24.1-12.8-37.4-15.9 1-13.6 7.8-33.3 39.9-28.6 0 0 6.4 1 10.7 4 0 0-1 1.1-2.4 2.4-.6.4-.7 1.2-.3 1.8.1.2.3.3.5.4l6.8 5.3c.1 2.8.2 3.6 2.3 6.1s10.4 11.2 11.4 12.3c.7 1 .8 2.3.3 3.3zm-73.8-26.5c-1.5 6-1.7 12.2-.7 18.3-1.6-.3-3.2-.6-4.9-.9-35.1-5.7-45.6 11.6-41.6 25.6-10.7 4-21.2 8.7-31.2 14.2 13.8-33 43.7-62 68.9-65.8 8.3-1.1 10.6 4.2 9.5 8.6z" fill="#001f5f" fill-rule="evenodd"/><path clip-rule="evenodd" d="m83.3 40c13.7-1.1 26.6.3 37.2 5.4-11.5-7.6-24.1-13-37.5-16.1-.3 3.5-.2 7.1.3 10.7zm-2 .2c-15.3 1.4-33.4 6.4-50 12.6-4.1-14 6.5-31.3 41.6-25.6 1.7.3 3.3.6 4.9.9.7 4.1 1.9 8.2 3.5 12.1z" fill="#10a5ac" fill-rule="evenodd"/><g fill="#001f5f"><path clip-rule="evenodd" d="m286.4 34.9 4.7-11.6 4.8 11.6zm1.2-21-15.3 36h8l3.3-8h15.1l3.3 8h8.2l-15.3-36zm-99.2 12.7c0 3.1-2.3 5.5-6.3 5.5h-6.3v-11.1h6.1c4 0 6.4 1.9 6.4 5.5zm-5.7-12.7h-14.7v36h7.9v-10.8h6c8.1 0 14.6-4.3 14.6-12.6v-.1c0-7.4-5.2-12.5-13.8-12.5zm56.9 4c-3.8 3.6-5.8 8.7-5.7 13.9-.1 5.2 1.9 10.2 5.6 13.8s8.7 5.6 13.8 5.4c6.5 0 11.6-2 15.1-5.8l.2-.2v-16.5h-15.7v6.7h8.2v6.8c-2.4 1.3-5.1 2-7.8 1.9-6.3.1-11.5-4.8-11.6-11.1 0-.3 0-.6 0-.9-.1-3.3 1.1-6.5 3.5-8.8 2.3-2.2 5.4-3.4 8.7-3.3 1.6 0 3.2.2 4.8.7 1.4.5 2.7 1.2 3.8 2.2l4.4-5.5c-2.3-2-6.5-4.7-13.4-4.7-5.4-.2-10.3 1.8-13.9 5.4zm-29.5 17.6h15.5v-7h-15.5v-7.6h19.3v-7h-27.2v36h27.4v-7h-19.5z" fill-rule="evenodd"/><path d="m353.3 25.1c0 3.5-1.2 6.3-3.6 8.2s-5.9 2.9-10.4 2.9h-4.1v13.8h-4.1v-35h9.1c8.7-.1 13.1 3.3 13.1 10.1zm-18.1 7.5h3.7c3.6 0 6.2-.6 7.8-1.7 1.6-1.2 2.4-3 2.4-5.6 0-2.3-.8-4-2.3-5.2-1.5-1.1-3.9-1.7-7.1-1.7h-4.5z"/><path d="m375.8 49.9-.8-3.7h-.2c-1.3 1.6-2.6 2.8-3.9 3.3-1.3.6-2.9.9-4.9.9-2.6 0-4.6-.7-6.1-2s-2.2-3.2-2.2-5.7c0-5.3 4.2-8.1 12.7-8.3l4.5-.1v-1.6c0-2.1-.4-3.6-1.3-4.6s-2.3-1.5-4.2-1.5c-2.2 0-4.7.7-7.4 2l-1.2-3c1.3-.7 2.7-1.3 4.2-1.7s3.1-.6 4.6-.6c3.1 0 5.4.7 7 2.1 1.5 1.4 2.3 3.6 2.3 6.7v17.9zm-9-2.8c2.5 0 4.4-.7 5.8-2 1.4-1.4 2.1-3.3 2.1-5.7v-2.4l-4 .2c-3.2.1-5.4.6-6.8 1.5s-2.1 2.2-2.1 4.1c0 1.4.4 2.5 1.3 3.3.9.6 2.1 1 3.7 1z"/><path d="m398.5 23.2c1.2 0 2.2.1 3.1.3l-.6 3.7c-1.1-.2-2-.4-2.9-.4-2.1 0-3.9.9-5.4 2.6s-2.3 3.9-2.3 6.4v14.1h-4v-26.2h3.3l.5 4.9h.2c1-1.7 2.1-3 3.5-3.9 1.5-1 3-1.5 4.6-1.5z"/><path d="m414.7 47.1c.7 0 1.4-.1 2-.2.7-.1 1.2-.2 1.6-.3v3c-.4.2-1.1.4-1.9.5s-1.6.2-2.3.2c-5.1 0-7.6-2.7-7.6-8v-15.5h-3.8v-1.9l3.8-1.7 1.7-5.6h2.3v6.1h7.6v3.1h-7.6v15.4c0 1.6.4 2.8 1.1 3.6.8.9 1.8 1.3 3.1 1.3z"/><path d="m441.1 49.9v-17c0-2.1-.5-3.7-1.5-4.8s-2.5-1.6-4.6-1.6c-2.7 0-4.8.7-6 2.2s-1.9 3.9-1.9 7.3v13.8h-4v-26.1h3.2l.6 3.6h.2c.8-1.3 2-2.3 3.4-3 1.5-.7 3.1-1.1 4.9-1.1 3.2 0 5.5.8 7.1 2.3s2.4 4 2.4 7.3v17.1z"/><path d="m464 50.4c-3.9 0-6.9-1.2-9.2-3.5-2.2-2.4-3.4-5.6-3.4-9.8s1-7.6 3.1-10.1 4.9-3.7 8.4-3.7c3.3 0 5.9 1.1 7.8 3.2 1.9 2.2 2.9 5 2.9 8.6v2.5h-18.1c.1 3.1.9 5.4 2.3 7s3.6 2.4 6.2 2.4c2.8 0 5.6-.6 8.4-1.8v3.5c-1.4.6-2.7 1-4 1.3-1.1.2-2.6.4-4.4.4zm-1.1-23.9c-2.1 0-3.8.7-5 2.1-1.3 1.4-2 3.3-2.2 5.7h13.7c0-2.5-.6-4.4-1.7-5.8-1.1-1.3-2.7-2-4.8-2z"/><path d="m492 23.2c1.2 0 2.2.1 3.1.3l-.6 3.7c-1.1-.2-2-.4-2.9-.4-2.1 0-3.9.9-5.4 2.6s-2.3 3.9-2.3 6.4v14.1h-4v-26.2h3.3l.5 4.9h.2c1-1.7 2.1-3 3.5-3.9 1.5-1 3-1.5 4.6-1.5z"/><path d="m516.6 42.7c0 2.4-.9 4.3-2.7 5.6s-4.4 2-7.7 2c-3.5 0-6.2-.5-8.1-1.7v-3.6c1.3.6 2.6 1.1 4.1 1.5 1.4.4 2.8.6 4.2.6 2.1 0 3.7-.3 4.8-1s1.7-1.7 1.7-3c0-1-.4-1.9-1.3-2.6s-2.6-1.6-5.2-2.6c-2.4-.9-4.2-1.7-5.2-2.4s-1.8-1.4-2.3-2.3-.8-1.9-.8-3.1c0-2.1.9-3.8 2.6-5.1 1.7-1.2 4.1-1.9 7.2-1.9 2.8 0 5.6.6 8.3 1.7l-1.4 3.2c-2.6-1.1-5-1.6-7.2-1.6-1.9 0-3.3.3-4.3.9s-1.4 1.4-1.4 2.4c0 .7.2 1.3.5 1.8.4.5.9 1 1.7 1.4s2.3 1.1 4.6 1.9c3.1 1.1 5.2 2.3 6.3 3.4s1.6 2.8 1.6 4.5z"/></g></svg>