<svg height="67" viewBox="0 0 534 67" width="534" xmlns="http://www.w3.org/2000/svg"><mask id="a" fill="#fff"><path d="M0 .949h152.533V68H0z" fill-rule="evenodd"/></mask><g fill="none" fill-rule="evenodd"><path d="M136.145 17.936l-.187-.089c-.019-.01-2.213-.999-3.928.806l-.219.231 3.513 1.721zm16.082 19.292s-1.532 2.74-2.218 3.753c-.688 1.021-2.843 1.655-4.706.765-.852-.405-8.823-5.055-11.873-4.788-15.44 1.346-19.645-5.015-20.141-5.593-.497-.578-1.426-.309-.763.827 3.387 5.81 13.41 8.501 13.41 8.501 2.62 6.317 2.935 10.742 2.935 10.742a45.167 45.167 0 00-8.371-5.144c-7.946-5.332-20.385-11.935-37.506-16.074C83.977 16.634 90.83-3 122.878 1.644c0 0 6.43 1.054 10.717 4.018 0 0-1.03 1.08-2.384 2.432-1.354 1.35.144 2.215.144 2.215l6.769 5.321c.079 2.815.195 3.603 2.313 6.151 2.118 2.544 10.353 11.17 11.43 12.322 1.248 1.334.36 3.125.36 3.125zM78.418 10.752c-1.694 6.983-1.565 13.135-.694 18.307a139.892 139.892 0 00-4.925-.9C37.725 22.45 27.146 39.735 31.241 53.752 19.645 58.113 8.748 63.101 0 68 13.765 34.983 43.681 5.925 68.931 2.105c8.245-1.086 10.563 4.262 9.488 8.647z" fill="#1f2555" mask="url(#a)" transform="translate(0 -.949)"/><path d="M83.278 39.979c13.665-1.08 26.562.291 37.22 5.363-7.945-5.332-20.384-11.934-37.506-16.073-.342 4.731.024 8.727.286 10.71m-1.973.172c-15.31 1.462-33.414 6.401-50.064 12.654C27.147 38.789 37.727 21.5 72.8 27.209c1.683.274 3.316.582 4.924.901.832 4.945 2.338 9.007 3.58 12.041" fill="#00a6a7"/><g fill="#1f2555"><path d="M286.416 34.928l4.749-11.593 4.75 11.593zm1.225-21.039l-15.32 36h8.018l3.266-8.015h15.12l3.265 8.015h8.223l-15.32-36zm-99.208 12.704c0 3.083-2.311 5.45-6.272 5.45h-6.274V21.037h6.119c3.96 0 6.427 1.903 6.427 5.452zm-5.758-12.704h-14.71v36h7.922v-10.8h6.015c8.075 0 14.557-4.322 14.557-12.653v-.103c0-7.354-5.194-12.444-13.785-12.444zm56.875 4.02c-3.775 3.687-5.69 8.355-5.69 13.876 0 5.525 1.879 10.158 5.589 13.78 3.703 3.616 8.359 5.447 13.84 5.447 6.489 0 11.562-1.964 15.084-5.839l.182-.205V28.445h-15.657v6.688h8.166v6.75c-2.114 1.258-4.753 1.898-7.85 1.898-3.207 0-5.974-1.1-8.225-3.273-2.245-2.16-3.384-5.092-3.384-8.693 0-3.604 1.173-6.548 3.485-8.746 2.32-2.208 5.234-3.328 8.662-3.328 1.803 0 3.4.222 4.745.66 1.262.41 2.54 1.155 3.806 2.2l4.38-5.529c-2.311-2.036-6.47-4.716-13.394-4.716-5.341 0-9.964 1.87-13.74 5.553zm-29.428 17.584h15.506v-7.047h-15.506v-7.515h19.287V13.89h-27.157v36h27.413v-7.045h-19.543zM353.344 50L348.9 38.647h-14.306L330.199 50H326l14.111-35.84h3.492L357.64 50zm-5.738-15.088l-4.15-11.06c-.537-1.4-1.09-3.116-1.66-5.15-.358 1.562-.87 3.279-1.538 5.15l-4.2 11.06zm24.025 15.576c-3.874 0-6.873-1.192-8.997-3.576s-3.186-5.758-3.186-10.12c0-4.476 1.079-7.935 3.235-10.376 2.157-2.441 5.229-3.662 9.216-3.662 1.286 0 2.572.138 3.858.415s2.295.602 3.027.977l-1.245 3.442a19.056 19.056 0 00-2.93-.891c-1.058-.236-1.993-.354-2.807-.354-5.436 0-8.155 3.467-8.155 10.4 0 3.288.664 5.81 1.99 7.569s3.292 2.636 5.896 2.636c2.23 0 4.517-.48 6.86-1.44v3.589c-1.79.927-4.044 1.391-6.762 1.391zM400.196 50l-.805-3.809h-.196c-1.334 1.677-2.665 2.812-3.991 3.406s-2.983.891-4.969.891c-2.653 0-4.732-.683-6.237-2.05-1.506-1.368-2.259-3.313-2.259-5.835 0-5.404 4.322-8.236 12.964-8.497l4.541-.146V32.3c0-2.1-.452-3.65-1.355-4.651s-2.348-1.502-4.333-1.502c-2.23 0-4.753.684-7.569 2.051l-1.245-3.1a19.044 19.044 0 014.334-1.685c1.57-.407 3.145-.61 4.724-.61 3.19 0 5.554.708 7.092 2.124 1.538 1.416 2.307 3.686 2.307 6.811V50zm-9.155-2.856c2.523 0 4.504-.692 5.945-2.076 1.44-1.383 2.16-3.32 2.16-5.81V36.84l-4.052.17c-3.223.115-5.546.615-6.97 1.502s-2.137 2.267-2.137 4.138c0 1.465.444 2.58 1.33 3.345.888.765 2.129 1.148 3.724 1.148zm37.72-.733h-.219c-1.872 2.718-4.671 4.077-8.398 4.077-3.5 0-6.222-1.196-8.167-3.589-1.945-2.392-2.917-5.794-2.917-10.205 0-4.41.976-7.837 2.93-10.278 1.952-2.441 4.67-3.662 8.154-3.662 3.63 0 6.412 1.318 8.35 3.955h.317l-.171-1.929-.098-1.88V12.012h4.053V50h-3.296zm-8.105.684c2.767 0 4.773-.753 6.018-2.259 1.245-1.505 1.868-3.934 1.868-7.287v-.855c0-3.792-.63-6.498-1.892-8.117-1.261-1.62-3.276-2.43-6.043-2.43-2.376 0-4.195.924-5.456 2.771-1.262 1.848-1.892 4.456-1.892 7.825 0 3.418.626 5.998 1.88 7.74 1.253 1.741 3.092 2.612 5.517 2.612zm30.836 3.393c-3.955 0-7.076-1.204-9.363-3.613-2.286-2.409-3.43-5.754-3.43-10.034 0-4.313 1.062-7.74 3.186-10.279s4.977-3.808 8.557-3.808c3.353 0 6.006 1.103 7.96 3.308s2.93 5.115 2.93 8.728v2.564h-18.434c.082 3.14.875 5.525 2.38 7.153 1.506 1.627 3.626 2.441 6.36 2.441 2.882 0 5.73-.602 8.546-1.806v3.613c-1.433.618-2.788 1.062-4.065 1.33-1.278.269-2.82.403-4.627.403zm-1.098-24.34c-2.149 0-3.862.7-5.14 2.1-1.277 1.399-2.03 3.336-2.258 5.81h13.99c0-2.556-.57-4.513-1.71-5.872-1.139-1.359-2.767-2.039-4.882-2.039zM501.347 50V32.593c0-2.132-.456-3.732-1.368-4.798-.911-1.066-2.327-1.599-4.248-1.599-2.522 0-4.386.725-5.59 2.173-1.205 1.449-1.807 3.679-1.807 6.69V50h-4.053V32.593c0-2.132-.455-3.732-1.367-4.798-.911-1.066-2.336-1.599-4.272-1.599-2.54 0-4.399.761-5.579 2.283s-1.77 4.016-1.77 7.483V50h-4.053V23.242h3.296l.66 3.662h.195c.765-1.302 1.843-2.319 3.234-3.051 1.392-.733 2.95-1.1 4.676-1.1 4.183 0 6.917 1.515 8.203 4.542h.195c.798-1.4 1.953-2.507 3.467-3.32 1.514-.814 3.239-1.221 5.176-1.221 3.027 0 5.294.777 6.8 2.331 1.505 1.555 2.257 4.041 2.257 7.459V50zm7.154-26.758h4.346l5.86 15.259c1.285 3.483 2.082 5.998 2.392 7.544h.195c.212-.83.655-2.25 1.33-4.26s2.885-8.191 6.629-18.543h4.346l-11.5 30.469c-1.139 3.011-2.47 5.147-3.991 6.409-1.522 1.261-3.39 1.892-5.603 1.892-1.237 0-2.458-.139-3.662-.415V58.35c.895.195 1.896.293 3.003.293 2.783 0 4.769-1.563 5.957-4.688l1.489-3.809z"/></g></g></svg>