<svg id="b0f36f70-c80f-46c0-bc35-90d3e7ba5610" data-name="Layer 1" xmlns="http://www.w3.org/2000/svg" viewBox="0 0 32 32"><title>brand-operations</title><path id="a64eac5f-a5c1-4db4-800c-9439f16419b7" data-name="path-1" d="M16.9,19.8,25.5,8.6,14.3,17.2a1.82,1.82,0,0,0-.1,2.7A1.91,1.91,0,0,0,16.9,19.8ZM19.4,4a11.8,11.8,0,0,0-2-.4l-.2,1.9,1.7.3ZM13.9,5.7l-.4-1.9a6,6,0,0,0-1.9.6l.7,1.8A4.28,4.28,0,0,1,13.9,5.7ZM24.6,7A10.1,10.1,0,0,0,23,5.7L22,7.3a6.89,6.89,0,0,1,1.3,1.1ZM9.3,7.9,8.1,6.4A9.27,9.27,0,0,0,6.7,7.8L8.1,9A12,12,0,0,1,9.3,7.9ZM27.8,12a9.82,9.82,0,0,0-.8-1.8l-1.7.9a7.74,7.74,0,0,1,.7,1.6ZM6.3,11.9l-1.8-.7a7,7,0,0,0-.6,1.9l1.9.5A6.87,6.87,0,0,1,6.3,11.9ZM28.5,16H26.6a9.7,9.7,0,0,1-.1,1.7l1.9.3C28.4,17.3,28.5,16.7,28.5,16ZM5.8,18.5c-.1-.5-.2-1.1-.3-1.7L3.6,17c.1.7.2,1.3.3,2ZM27,21.8l-1.7-.9c-.3.5-.6,1-.9,1.4l1.5,1.2A8.16,8.16,0,0,0,27,21.8ZM8.1,23a7.1,7.1,0,0,1-1-1.4l-1.6,1c.4.6.8,1.1,1.2,1.6ZM16,2A14,14,0,1,0,30,16,14,14,0,0,0,16,2Zm0,30A16,16,0,1,1,32,16,16,16,0,0,1,16,32Z" fill="#1f2555" fill-rule="evenodd"/></svg>