<svg id="ea7a4172-fb87-42f7-bc35-133d639c41a3" data-name="Layer 1" xmlns="http://www.w3.org/2000/svg" viewBox="0 0 32 32"><title>workforce-intelligence</title><path id="b99cdd19-44d7-47bf-92eb-814fadf3cb58" data-name="Page-1" d="M30,18H25.3l2,2H30v3c0,.7-.3,1-1,1H3c-.7,0-1-.3-1-1V20H9.7a9,9,0,0,1-1.9-2H2V3c0-.7.3-1,1-1H29c.7,0,1,.3,1,1ZM12,30h8V26H12ZM31.4.6A1.68,1.68,0,0,0,30,0H2A1.68,1.68,0,0,0,.6.6,2.25,2.25,0,0,0,0,2V24a1.68,1.68,0,0,0,.6,1.4A2.25,2.25,0,0,0,2,26h8v4H8v2H24V30H22V26h8a1.68,1.68,0,0,0,1.4-.6A2.25,2.25,0,0,0,32,24V2A1.68,1.68,0,0,0,31.4.6Z" fill="#1f2555" fill-rule="evenodd"/><path id="b32fc0c3-6292-4b59-adb8-0a8391ad9a64" data-name="Fill-1" d="M15.5,18A5.5,5.5,0,1,1,21,12.5,5.42,5.42,0,0,1,15.5,18m6-.9a7.34,7.34,0,0,0,1.6-4.6A7.64,7.64,0,0,0,15.5,5a7.5,7.5,0,1,0,4.6,13.4l4.2,4.2a1.08,1.08,0,0,0,.7.3.91.91,0,0,0,.7-.3,1,1,0,0,0,0-1.4Z" fill="#1f2555" fill-rule="evenodd"/></svg>