<svg class="{{ classes|join(' ')|trim }}" viewBox="0 0 32 24.38" xmlns="http://www.w3.org/2000/svg"><path d="m23.5 24.7a.91.91 0 0 1 -.7-.3 1 1 0 0 1 0-1.4l6.8-6.8-6.8-6.8a1 1 0 1 1 1.4-1.4l7.5 7.5a1 1 0 0 1 0 1.4l-7.5 7.5a1.08 1.08 0 0 1 -.7.3zm-15 0a.91.91 0 0 1 -.7-.3l-7.5-7.5a1 1 0 0 1 0-1.4l7.5-7.5a1 1 0 1 1 1.4 1.4l-6.8 6.8 6.8 6.8a1 1 0 0 1 0 1.4.91.91 0 0 1 -.7.3zm2.3 3.5a.6.6 0 0 1 -.4-.1 1 1 0 0 1 -.5-1.3l10.3-22.4a1 1 0 0 1 1.8.8l-10.3 22.4a.87.87 0 0 1 -.9.6z" fill="#1f2555" fill-rule="evenodd" transform="translate(0 -3.82)"/></svg>
