<svg class="{{ classes|join(' ')|trim }}" viewBox="0 0 32.02 28.73" xmlns="http://www.w3.org/2000/svg"><path d="m.9 2h7.1a.94.94 0 0 1 1 1v26a1 1 0 0 1 -.9 1h-7.2a.92.92 0 0 1 -.9-1v-26a.92.92 0 0 1 .9-1zm1.1 26.1h5v-2h-5zm0-22.1h5v-2h-5zm0 18h5v-16h-5zm8.9-22h7.1a.94.94 0 0 1 1 1v26a1 1 0 0 1 -.9 1h-7.1a.92.92 0 0 1 -.9-1v-26a.81.81 0 0 1 .8-1zm1.1 26.1h5v-2h-5zm0-22.1h5v-2h-5zm0 18h5v-16h-5zm7.8-21.3 7-1.1a1 1 0 0 1 1.1.8l4.1 25.7a1 1 0 0 1 -.8 1.1l-7 1.1a1 1 0 0 1 -1.1-.8l-4.1-25.6a1 1 0 0 1 .8-1.2zm5.1 25.6 4.9-.8-.3-2-4.9.8zm-3.4-21.8 4.9-.8-.3-2-4.9.8zm2.8 17.8 4.9-.8-2.5-15.8-4.9.8z" fill="#1f2555" fill-rule="evenodd" transform="translate(0 -1.58)"/></svg>
