<svg class="{{ classes|join(' ')|trim }}" viewBox="0 0 26 32" xmlns="http://www.w3.org/2000/svg"><path d="m20.9.4 3.4 4.2a1 1 0 0 1 -.2 1.4 1.42 1.42 0 0 1 -.6.2.91.91 0 0 1 -.8-.4l-1.8-2.3a17.12 17.12 0 0 1 -16.9 14.7 1 1 0 0 1 0-2 15.18 15.18 0 0 0 15-12.9l-2.4 1.9a1 1 0 0 1 -1.2-1.6l4.2-3.4a.1.1 0 0 0 .1-.1c.1 0 .1-.1.2-.1h.5c.1 0 .1 0 .2.1a.1.1 0 0 1 .1.1.22.22 0 0 1 .2.2zm-16.9 23.9a.94.94 0 0 1 1 1v5.7a.94.94 0 0 1 -1 1 .94.94 0 0 1 -1-1v-5.7a1 1 0 0 1 1-1zm8-4.8a.94.94 0 0 1 1 1v10.5a1 1 0 0 1 -2 0v-10.5a.94.94 0 0 1 1-1zm8-3.5a.94.94 0 0 1 1 1v14a1 1 0 0 1 -2 0v-14a.94.94 0 0 1 1-1zm8-5.2a.94.94 0 0 1 1 1v19.2a1 1 0 0 1 -2 0v-19.2a1 1 0 0 1 1-1z" fill="#1f2555" fill-rule="evenodd" transform="translate(-3)"/></svg>
