<svg enable-background="new 0 0 32 32" viewBox="0 0 32 32" xmlns="http://www.w3.org/2000/svg"><g clip-rule="evenodd" fill="#151619" fill-rule="evenodd" transform="translate(1 1)"><path d="m15 28.1c-7.2 0-13.1-5.9-13.1-13.1s5.9-13.1 13.1-13.1 13.1 5.9 13.1 13.1-5.9 13.1-13.1 13.1m0-29.1c-8.8 0-16 7.2-16 16s7.2 16 16 16 16-7.2 16-16-7.2-16-16-16"/><path d="m20.8 13.5h-4.4v-4.3c0-.8-.7-1.5-1.5-1.5s-1.5.7-1.5 1.5v4.4h-4.2c-.8 0-1.5.7-1.5 1.5s.7 1.5 1.5 1.5h4.4v4.4c0 .8.7 1.5 1.5 1.5s1.5-.7 1.5-1.5v-4.4h4.4c.8 0 1.5-.7 1.5-1.5s-.9-1.6-1.7-1.6"/></g></svg>