<svg enable-background="new 0 0 32 32" viewBox="0 0 32 32" xmlns="http://www.w3.org/2000/svg"><g clip-rule="evenodd" fill-rule="evenodd" transform="matrix(-1 0 0 -1 204 182)"><path d="m192.3 172.8h-8.5c-.2 0-.3-.1-.3-.3v-5.1c0-.2.1-.3.3-.3h8.5c.2 0 .3.1.3.3v5.1c0 .2-.2.3-.3.3z" fill="#ffcc4c"/><path d="m203.9 168-2.7 4.7c-.1.1-.1.1-.2.1h-5.9c-.2 0-.3-.1-.3-.3v-5.1c0-.2.1-.3.3-.3h8.3c.3 0 .6.3.6.6 0 .1 0 .2-.1.3z" fill="#f63"/><path d="m181.2 167.4v5.1c0 .2-.1.3-.3.3h-5.9c-.1 0-.2-.1-.2-.1l-2.7-4.7c-.2-.3-.1-.6.2-.8.1 0 .2-.1.3-.1h8.3c.1 0 .3.2.3.3z" fill="#e1e2eb"/><path d="m190.3 180.5v-5.1c0-.2.1-.3.3-.3h8.8c.2 0 .3.1.3.3v.1l-2.4 4.1c-.4.7-1.2 1.1-2 1.1h-4.7c-.2.1-.3 0-.3-.2z" fill="#f63"/><path d="m187.7 180.8h-6.9c-.8 0-1.6-.4-2-1.1l-2.4-4.1c-.1-.1 0-.3.1-.4h.1 11c.2 0 .3.1.3.3v5.1c.1.1 0 .2-.2.2z" fill="#ffcc4c"/><path d="m197.2 152.3 2.4 4.1c.1.1 0 .3-.1.4h-.1-11c-.2 0-.3-.1-.3-.3v-5.1c0-.2.1-.3.3-.3h6.9c.7.1 1.5.5 1.9 1.2z" fill="#6c79d9"/><path d="m185.4 156.9h-8.8c-.2 0-.3-.1-.3-.3v-.1l2.4-4.1c.4-.7 1.2-1.1 2-1.1h4.7c.2 0 .3.1.3.3v5.1c0 .1-.1.2-.3.2z" fill="#12b3b3"/><path d="m192.6 164.6v-5.1c0-.2.1-.3.3-.3h8.1c.1 0 .2.1.2.1l2.7 4.7c.2.3.1.6-.2.8-.1 0-.2.1-.3.1h-10.6c-.1 0-.2-.2-.2-.3z" fill="#6c79d9"/><path d="m190 164.9h-17.4c-.3 0-.6-.3-.6-.6 0-.1 0-.2.1-.3l2.7-4.7c.1-.1.1-.1.2-.1h15c.2 0 .3.1.3.3v5.1c0 .1-.2.3-.3.3z" fill="#12b3b3"/></g></svg>