<svg enable-background="new 0 0 32 32" viewBox="0 0 32 32" xmlns="http://www.w3.org/2000/svg"><g clip-rule="evenodd" fill="#151619" fill-rule="evenodd" transform="matrix(-1 0 0 1 35 0)"><path d="m25.9 19.7-8 2.3c-.5-.9-1.3-1.9-2.5-2.6-.1 0-.1-.1-.2-.1-2.5-1.1-4.4-3.2-5.2-5.7-.7-2.3-.5-4.7.7-6.9s3.1-3.7 5.5-4.4c4.9-1.4 10.1 1.3 11.5 6.1.8 2.6.4 5.4-1.2 7.7-.6 1.3-.7 2.6-.6 3.6m-8.2 4.4 9.6-2.8c.5-.1.8-.6.7-1.1-.2-.9-.2-2.1.3-3.2 1.8-2.7 2.3-6.1 1.4-9.2-1.8-5.8-8.1-9.1-14-7.4-2.9.8-5.3 2.8-6.7 5.4s-1.7 5.5-.8 8.3c1 3.1 3.2 5.6 6.2 6.9 1.1.6 1.8 1.7 2.1 2.5.1.3.4.5.8.6.1.1.3.1.4 0"/><path d="m28.3 24.1c.5-.1.8-.7.7-1.2-.1-.2-.2-.4-.5-.6-.2-.1-.5-.1-.7-.1l-9.7 2.8c-.5.1-.8.7-.7 1.2.1.2.2.4.5.6.1.1.2.1.3.1h.4z"/><path d="m30.3 26.2c-.2-.5-.7-.8-1.2-.6l-9.7 2.7c-.3.1-.5.2-.6.5-.1.2-.1.5-.1.7.1.4.5.6.8.7h.4l9.7-2.7c.3-.1.5-.2.6-.5.2-.3.2-.6.1-.8"/><path d="m27 29.1-4 1.1c-.3.1-.5.2-.6.5-.1.2-.1.5-.1.7.1.4.5.6.8.6h.4l4-1.1c.3-.1.5-.2.6-.5.1-.2.1-.5.1-.7-.1-.5-.7-.7-1.2-.6"/><path d="m20.5 14.1-1.5.4-3-8.4 2.3-.7zm-1.2 3.3c-.1-.4-.1-.8 0-1 .2-.3.4-.5.8-.6s.7-.1 1 .1.5.4.6.8.1.7 0 1-.4.5-.8.6-.7.1-1-.1c-.2-.1-.4-.4-.6-.8z"/></g></svg>