<svg enable-background="new 0 0 32 32" viewBox="0 0 32 32" xmlns="http://www.w3.org/2000/svg"><g clip-rule="evenodd" fill="#151619" fill-rule="evenodd" transform="translate(1 1)"><path d="m15 28.1c-7.2 0-13.1-5.9-13.1-13.1s5.9-13.1 13.1-13.1 13.1 5.9 13.1 13.1-5.9 13.1-13.1 13.1m0-29.1c-8.8 0-16 7.2-16 16s7.2 16 16 16 16-7.2 16-16-7.2-16-16-16"/><path d="m15 13.5c-.8 0-1.5.7-1.5 1.5v5.8c0 .8.7 1.5 1.5 1.5s1.5-.7 1.5-1.5v-5.8c0-.8-.7-1.5-1.5-1.5"/><path d="m15 7.7c-.4 0-.8.2-1 .4s-.4.6-.4 1 .2.8.4 1c.3.3.6.4 1 .4s.8-.2 1-.4c.3-.3.4-.6.4-1s-.2-.8-.4-1-.6-.4-1-.4"/></g></svg>