<svg viewBox="0 0 32 32" xmlns="http://www.w3.org/2000/svg"><path d="m28.89 13.4a4.22 4.22 0 0 0 1.45-3.18 4.28 4.28 0 1 0 -7.09 3.19 5.88 5.88 0 0 0 -2.93 3.82 8.78 8.78 0 0 0 -1.12-.64 5.46 5.46 0 1 0 -6.49 0 7.5 7.5 0 0 0 -1 .58 5.92 5.92 0 0 0 -2.92-3.76 4.24 4.24 0 0 0 1.46-3.19 4.28 4.28 0 1 0 -8.55 0 4.22 4.22 0 0 0 1.41 3.18 5.93 5.93 0 0 0 -3.11 5.21v1.18a.91.91 0 1 0 1.81 0v-1.18a4.12 4.12 0 0 1 8.19-.48.79.79 0 0 0 .14.37 7.66 7.66 0 0 0 -1.91 5.06v1.59a.91.91 0 1 0 1.81 0v-1.59a5.89 5.89 0 0 1 11.77 0v1.59a.91.91 0 1 0 1.81 0v-1.59a7.67 7.67 0 0 0 -1.84-5 .93.93 0 0 0 .16-.41 4.12 4.12 0 0 1 8.22.44v1.18a.91.91 0 1 0 1.81 0v-1.16a5.93 5.93 0 0 0 -3.08-5.21zm-25.42-3.18a2.47 2.47 0 1 1 2.46 2.46 2.47 2.47 0 0 1 -2.46-2.46zm8.84 2a3.65 3.65 0 1 1 3.69 3.65 3.65 3.65 0 0 1 -3.69-3.65zm11.29-2a2.47 2.47 0 1 1 2.47 2.46 2.48 2.48 0 0 1 -2.47-2.46z" fill="#151618"/></svg>