<svg viewBox="0 0 32 32" xmlns="http://www.w3.org/2000/svg"><path d="m31.73 8a.89.89 0 0 0 0-1.28l-6.42-6.43a.93.93 0 0 0 -1.31 0l-6.13 6.16h-4.34a6.8 6.8 0 1 0 -7.64 7.64v4.28h-5a.9.9 0 0 0 -.91.9v11.79a.91.91 0 0 0 .93.94h11.78a.91.91 0 0 0 .91-.91v-11.82a.9.9 0 0 0 -.91-.9h-5v-4.28a6.81 6.81 0 0 0 5.82-5.83h4.34l5.89 5.89v4.28a6.8 6.8 0 1 0 1.82 0v-4.28zm-19.94 22.16h-10v-10h10zm-5-17.82a5 5 0 1 1 5-5 5 5 0 0 1 -4.99 5zm17.88-10.13 5.15 5.14-5.15 5.15-5.15-5.15zm5 23a5 5 0 1 1 -5.07-5h.08.08a5 5 0 0 1 4.9 4.96z" fill="#151618"/></svg>