<svg enable-background="new 0 0 32 32" viewBox="0 0 32 32" xmlns="http://www.w3.org/2000/svg"><path d="m2.5 8.2c-1.5 2.8-2.3 5.9-2.1 9.1 0 4.6 1.3 8.3 4 10.8s6.3 3.9 11.1 3.9c2.7 0 5.4-.4 7.9-1.3.5-.2.8-.6.8-1.1 0-.6-.5-1.1-1.1-1.1-.1 0-.2 0-.3 0-2.4.7-4.9 1.1-7.4 1.2-4 0-7.1-1.1-9.2-3.3s-3.2-5.2-3.2-9.2c0-2.6.5-5.3 1.7-7.8 1.1-2.2 2.9-4 5-5.2 2.3-1.2 4.9-1.8 7.6-1.8 2.1 0 4.2.5 6.1 1.4 1.8.9 3.2 2.4 4.1 4.2 1 1.9 1.5 4.1 1.4 6.2.1 1.8-.3 3.6-.9 5.3-.7 1.5-1.6 2.2-2.9 2.2s-2.5-.6-2.5-3.6v-.5l.4-8.1c0-.5-.3-1-.9-1.2-.7-.2-1.3-.3-2-.3-1.1-.2-2.2-.3-3.4-.3-2.4-.1-4.7.8-6.3 2.5s-2.5 4-2.4 6.3c-.1 2 .5 3.9 1.7 5.4 1.2 1.3 3 2 4.8 1.9 1.1 0 2.1-.2 3.1-.7.9-.5 1.7-1.2 2.2-2.1l.1-.2h1.1l.1.3c.2.8.7 1.6 1.4 2 .7.5 1.6.8 2.5.7 1.3 0 2.5-.4 3.5-1.2 1.1-.9 1.9-2.1 2.4-3.5.6-1.6.9-3.4.9-5.1.1-2.6-.6-5.2-1.8-7.5-1.2-2.1-2.9-3.8-5.1-4.9-2.5-1-5-1.6-7.6-1.6h-.3c-3 0-5.9.7-8.5 2.1s-4.7 3.5-6 6.1zm17.3 7.3c-.2 4.1-1.8 6.2-4.6 6.2-1.8 0-4.1-.9-4.1-5-.1-1.8.4-3.5 1.5-4.9 1.1-1.2 2.7-1.9 4.3-1.8.9 0 1.9.1 2.8.3l.3.1z" fill="#151619"/></svg>