<svg viewBox="0 0 32 32" xmlns="http://www.w3.org/2000/svg"><path d="m32 14.29a9.52 9.52 0 0 0 -9.52-9.51 10.26 10.26 0 0 0 -1.74.22 13.32 13.32 0 1 0 3.47 18.69 9.55 9.55 0 0 0 7.79-9.4zm-18.68 13.24a11.53 11.53 0 1 1 5.13-21.86l-.11.06a8.12 8.12 0 0 0 -1 .58l-.11.07a10.35 10.35 0 0 0 -.91.69l-.11.09a8 8 0 0 0 -.82.83l-.15.17a10.16 10.16 0 0 0 -.69.93l-.1.15c-.2.33-.38.66-.55 1a.3.3 0 0 1 0 .08 8.29 8.29 0 0 0 -.41 1.12 1.72 1.72 0 0 0 -.07.21 8.85 8.85 0 0 0 -.25 1.16v.21a10.52 10.52 0 0 0 -.17 1.27v1 .32s.06.41.1.61.06.24.08.36.09.36.14.53.09.25.13.37l.18.49c.05.12.11.25.17.37s.14.3.22.45a4 4 0 0 0 .2.35l.26.42a4.15 4.15 0 0 0 .24.34c.09.13.19.26.29.38a4.15 4.15 0 0 0 .27.32c.1.12.21.24.32.35s.2.2.3.3l.35.32.33.27.37.27.37.25.39.24.39.21.41.2.41.17.44.16.43.14.45.11.45.1.46.07.47.06h.15a11.49 11.49 0 0 1 -8.45 3.71zm10.26-5.59a7.72 7.72 0 0 1 -2.83-15.17 7.3 7.3 0 0 1 1.73-.2 7.72 7.72 0 0 1 1.1 15.37z" fill="#151618"/></svg>