<svg viewBox="0 0 32 32" xmlns="http://www.w3.org/2000/svg"><path d="m22.15 2.6a10.34 10.34 0 0 0 -8.15 3.58 15.51 15.51 0 0 0 -2.12-.18c-6.77 0-11.88 4.27-11.88 9.88a8.86 8.86 0 0 0 4.65 8.06v4.55a.93.93 0 0 0 .48.8.9.9 0 0 0 .93 0l5.34-3.54h.48c5.29 0 9.55-2.59 11.17-6.39l3.76 2.48a.88.88 0 0 0 .49.15.81.81 0 0 0 .43-.11.88.88 0 0 0 .48-.79v-3.64a7.34 7.34 0 0 0 3.79-6.66c0-4.67-4.23-8.19-9.85-8.19zm-10.27 21.32h-.52-.17a1 1 0 0 0 -.54.15l-4.19 2.74v-3.42a.91.91 0 0 0 -.5-.81 7.07 7.07 0 0 1 -4.15-6.7c0-4.58 4.33-8 10.07-8a14.16 14.16 0 0 1 2.12.12.87.87 0 0 0 .35.07c4.46.83 7.65 3.93 7.65 7.81 0 4.58-4.37 8.04-10.12 8.04zm15-7.82a.93.93 0 0 0 -.5.81v2.48l-2.8-1.86a8.87 8.87 0 0 0 .17-1.65c0-4.4-3.15-7.94-7.77-9.27a8.93 8.93 0 0 1 6.15-2.2c4.58 0 8 2.75 8 6.38a5.61 5.61 0 0 1 -3.23 5.31z" fill="#151618"/></svg>