<svg viewBox="0 0 32 32" xmlns="http://www.w3.org/2000/svg"><path d="m31.7 12-3.54-6.1a2.18 2.18 0 0 0 -1.35-1 2.26 2.26 0 0 0 -1.69.22l-.95.55a2.17 2.17 0 0 0 -1 1.18 17 17 0 0 0 -4.63-.89 6.13 6.13 0 0 0 -2.66.77 5.24 5.24 0 0 0 -2.66-.77 14 14 0 0 0 -4.46.85 2.19 2.19 0 0 0 -1-1.14l-1-.55a2.26 2.26 0 0 0 -1.69-.22 2.18 2.18 0 0 0 -1.35 1l-3.42 6.1a2.2 2.2 0 0 0 -.22 1.7 2.15 2.15 0 0 0 1 1.35l.94.55a2.2 2.2 0 0 0 1.11.3 2.25 2.25 0 0 0 .58-.08 2.2 2.2 0 0 0 .45-.17 5.83 5.83 0 0 1 1.19 1.19 3.47 3.47 0 0 0 -1 2 2.17 2.17 0 0 0 .77 1.91 2.39 2.39 0 0 0 1 .52 2 2 0 0 0 0 .74 2.43 2.43 0 0 0 .87 1.48 2.51 2.51 0 0 0 1.46.6 2.42 2.42 0 0 0 .83 1.32 2.5 2.5 0 0 0 1.61.62 2 2 0 0 0 .55-.08 2.53 2.53 0 0 0 .55.64l.18.12a2.54 2.54 0 0 0 1.1.26 2.6 2.6 0 0 0 .83-.16 3.89 3.89 0 0 0 1.67.39 4.24 4.24 0 0 0 1.84-.44 2.81 2.81 0 0 0 1-.76 2.75 2.75 0 0 0 1.92-.59 2.17 2.17 0 0 0 .73-1.14 2.61 2.61 0 0 0 2.14-1 2.21 2.21 0 0 0 .37-.85 2.67 2.67 0 0 0 2.31-2.75 2.45 2.45 0 0 0 -.28-1 10.91 10.91 0 0 0 1-1.73 3.73 3.73 0 0 1 .92-1.36 2.14 2.14 0 0 0 .54.23 2.25 2.25 0 0 0 .58.08 2.2 2.2 0 0 0 1.11-.3l.94-.55a2.15 2.15 0 0 0 1-1.35 2.2 2.2 0 0 0 -.19-1.69zm-29.7 1.56a.48.48 0 0 1 -.22-.29.47.47 0 0 1 .05-.37l3.52-6.12a.55.55 0 0 1 .29-.23h.13a.47.47 0 0 1 .23.05l1 .55a.48.48 0 0 1 .23.29.45.45 0 0 1 0 .36l-1.23 1.9-2.41 4.23a.46.46 0 0 1 -.29.22.45.45 0 0 1 -.36-.05zm4.4 4.81.75 1.12a1 1 0 0 1 -.39.15.62.62 0 0 1 -.47-.2.4.4 0 0 1 -.18-.4 1.56 1.56 0 0 1 .29-.67zm1.4 3.39a.38.38 0 0 1 .11-.32l.44-.52 1.13-1.35a.6.6 0 0 1 .42-.22h.16.1a.56.56 0 0 1 .2.11.61.61 0 0 1 .21.42.56.56 0 0 1 -.14.45l-1.57 1.91c-.29.34-.78-.06-.8-.07a.72.72 0 0 1 -.26-.41zm2.56 2.33c-.17-.14-.41-.42-.16-.73l1.57-1.87a.65.65 0 0 1 .21-.16h.07a.58.58 0 0 1 .18 0h.13.08a.61.61 0 0 1 .21.11.63.63 0 0 1 .07.87l-1 1.2-.56.67c-.3.32-.78-.07-.8-.09zm2.6.75.76-1a.41.41 0 0 1 .56 0 .41.41 0 0 1 0 .59v.06l-.39.52a.82.82 0 0 1 -.87.25c-.2-.26-.12-.34-.02-.42zm2.71.62a1 1 0 0 0 .09-.13 2.23 2.23 0 0 0 .32-.61l.69.51a2.45 2.45 0 0 1 -1.1.23zm8.37-5a.8.8 0 0 1 -.94.19l-.1-.08-3.25-2.51-1.07 1.39 3.22 2.55.12.09a.41.41 0 0 1 -.1.26 1.15 1.15 0 0 1 -1.11.15l-2.41-1.72-1 1.42 2.15 1.54a.59.59 0 0 1 -.15.36 1.05 1.05 0 0 1 -1.09.12c-.81-.66-1-.73-1.2-.77l-1.11-.24a.05.05 0 0 0 0 0 2.34 2.34 0 0 0 -.15-.27.94.94 0 0 0 -.09-.12 2 2 0 0 0 -.31-.34 2.19 2.19 0 0 0 -.37-.25l-.16-.06a1.22 1.22 0 0 0 -.24-.1.57.57 0 0 0 0-.13c0-.11 0-.21 0-.32a1.29 1.29 0 0 0 0-.19 1.32 1.32 0 0 0 -.09-.3 1 1 0 0 0 -.07-.18 1.11 1.11 0 0 0 -.17-.3 1.19 1.19 0 0 0 -.09-.15 2.55 2.55 0 0 0 -.36-.38 2.19 2.19 0 0 0 -.37-.25.52.52 0 0 0 -.13-.06 1.39 1.39 0 0 0 -.28-.12h-.14l-.28-.06h-.28c0-.05 0-.09 0-.13a1.09 1.09 0 0 0 -.05-.17 2.6 2.6 0 0 0 -.1-.25 1 1 0 0 0 -.07-.15l-.16-.24-.08-.12a1.82 1.82 0 0 0 -.31-.31 2.33 2.33 0 0 0 -.38-.26l-.27-.17-.28-.12h-.17l-.25-.05h-.47-.19-.24-.19l-.21.15-.18.09-.23.1-.15.11s0 0 0 0l-1.6-2.25a7.65 7.65 0 0 0 -1.46-1.53l1.15-2 2.11-3.63a13.46 13.46 0 0 1 4.61-1 2.72 2.72 0 0 1 .78.11 10.35 10.35 0 0 0 -2.57 2.6 7.17 7.17 0 0 0 -.8 3.68c0 .82 0 2.2 1.19 2.69s2.4-.71 3.05-1.46 1.46-1.59 1.9-2l7.29 6.11a.55.55 0 0 1 .22.43.93.93 0 0 1 -.31.6zm1.19-4.27a11.1 11.1 0 0 1 -.7 1.24l-7.81-6.54-.57.54s-1.15 1.08-2.57 2.71a4.65 4.65 0 0 1 -1 1 2.88 2.88 0 0 1 -.17-1.14 5.4 5.4 0 0 1 .59-2.76 2.86 2.86 0 0 1 .38-.51c1.08-1.21 3.7-3.06 5.2-3.06a17.18 17.18 0 0 1 4.81 1.05l1.32 2.28 1.87 3.24a5.24 5.24 0 0 0 -1.35 1.95zm5-2.92a.48.48 0 0 1 -.22.29l-1 .54a.45.45 0 0 1 -.36.05.46.46 0 0 1 -.29-.22l-.82-1.42-2.67-4.71a.45.45 0 0 1 -.05-.36.48.48 0 0 1 .23-.29l.95-.55a.47.47 0 0 1 .24-.06h.13a.55.55 0 0 1 .29.23l3.53 6.12a.47.47 0 0 1 .04.38z" fill="#151618"/></svg>