<svg viewBox="0 0 32 32" xmlns="http://www.w3.org/2000/svg"><path d="m29.4 6.61h-.22v-3.88a.92.92 0 0 0 -.91-.92 18.55 18.55 0 0 0 -12.27 4.28 18.55 18.55 0 0 0 -12.27-4.28.92.92 0 0 0 -.91.92v3.88h-.22a2.61 2.61 0 0 0 -2.6 2.6v17.07a2.61 2.61 0 0 0 2.6 2.6h11.27a1.68 1.68 0 0 0 1.69 1.31h.88a1.68 1.68 0 0 0 1.69-1.31h11.27a2.61 2.61 0 0 0 2.6-2.6v-17.07a2.61 2.61 0 0 0 -2.6-2.6zm-2 15.82a18.71 18.71 0 0 0 -10.48 3.57v-18.26a16.58 16.58 0 0 1 10.43-4.07zm-22.75-18.76a16.58 16.58 0 0 1 10.43 4.07v18.26a18.71 18.71 0 0 0 -10.43-3.57zm-2.81 22.61v-17.07a.77.77 0 0 1 .76-.76h.22v14.88a.92.92 0 0 0 .91.92 17.4 17.4 0 0 1 9.66 2.75h-10.79a.76.76 0 0 1 -.76-.72zm28.32 0a.76.76 0 0 1 -.76.76h-10.79a17.43 17.43 0 0 1 9.66-2.79.92.92 0 0 0 .91-.92v-14.88h.22a.76.76 0 0 1 .76.76z" fill="#151618"/></svg>