<svg enable-background="new 0 0 32 32" viewBox="0 0 32 32" xmlns="http://www.w3.org/2000/svg"><g fill="#151619"><path d="m16 0c-.9 0-1.7.3-2.3.9l-7.7 7.7c-.9.9-1.2 2.3-.7 3.5s1.7 2 3 2h15.4c1.3 0 2.5-.8 3-2s.2-2.6-.7-3.5l-7.7-7.7c-.6-.6-1.4-.9-2.3-.9z"/><path d="m26.7 19.9c-.5-1.2-1.7-2-3-2h-15.4c-1.3 0-2.5.8-3 2s-.2 2.6.7 3.5l7.7 7.7c.6.6 1.4.9 2.3.9s1.7-.3 2.3-.9l7.7-7.7c.9-1 1.2-2.3.7-3.5zm-3.9 3.7-5.2 5.2c-.4.4-1 .6-1.5.6-.6 0-1.1-.2-1.5-.6l-5.2-5.2c-.6-.6-.8-1.6-.5-2.4s1.1-1.3 2-1.3h10.5c.9 0 1.7.5 2 1.3.2.9 0 1.8-.6 2.4z"/></g></svg>