<svg enable-background="new 0 0 32 32" viewBox="0 0 32 32" xmlns="http://www.w3.org/2000/svg"><path d="m29.8 5.2h-13-.2-14.4c-1.2 0-2.2 1.1-2.2 2.2v17.2c0 1.2 1 2.2 2.2 2.2h27.6c1.2 0 2.2-1 2.2-2.2v-17.2c0-1.1-1-2.2-2.2-2.2zm-24.1 6.2h3.3c.8 0 1.4.6 1.4 1.4s-.5 1.3-1.4 1.3h-3.3c-.7 0-1.3-.6-1.3-1.4s.6-1.3 1.3-1.3zm12.2 9.6h-12.1c-.8 0-1.4-.6-1.4-1.4 0-.7.6-1.3 1.3-1.3h12.1c.8 0 1.4.6 1.5 1.3-.1.8-.6 1.4-1.4 1.4zm8.4.1h-3.3c-.8 0-1.4-.6-1.4-1.4s.6-1.4 1.4-1.4h3.4c.7 0 1.3.6 1.4 1.4-.1.8-.7 1.4-1.5 1.4zm0-7.2h-12c-.6 0-1.2-.6-1.4-1.4 0-.8.6-1.4 1.4-1.4h12.1c.7 0 1.3.6 1.4 1.4-.1.8-.7 1.4-1.5 1.4z" fill="#151619"/></svg>