<svg enable-background="new 0 0 32 32" viewBox="0 0 32 32" xmlns="http://www.w3.org/2000/svg"><g fill="#151619"><path d="m17.7 2h10.7c.6 0 1-.4 1-1s-.4-1-1-1h-11.1c-.3 0-.5.1-.7.3l-15.3 15.5c-.4.4-.4 1 0 1.4s1 .4 1.4 0z"/><path d="m24.2 13.3c.8 0 1.6-.3 2.2-.9 1.2-1.2 1.2-3.2 0-4.4s-3.1-1.2-4.3 0c-1.2 1.2-1.2 3.2 0 4.4.5.6 1.3.9 2.1.9zm-.8-3.9c.4-.4 1.1-.4 1.5 0 .4.4.4 1.1 0 1.6-.4.4-1.1.4-1.5 0-.4-.5-.4-1.1 0-1.6z"/><path d="m30 3.3h-11.1c-.3 0-.5.1-.7.3l-15.3 15.5c-.4.4-.4 1 0 1.4l11.1 11.2c.4.4 1 .4 1.4 0l15.3-15.5c.2-.2.3-.4.3-.7v-11.2c0-.5-.4-1-1-1zm-1 11.8-14.3 14.5-9.7-9.8 14.3-14.5h9.7z"/></g></svg>