<svg enable-background="new 0 0 32 32" viewBox="0 0 32 32" xmlns="http://www.w3.org/2000/svg"><g fill="#151619"><path d="m32 5.1c0-2.3-1.8-4.1-4.1-4.1h-23.8c-2.3 0-4.1 1.8-4.1 4.1v3.5c0 1.1.4 2.1 1.2 2.8-.8.8-1.2 1.8-1.2 2.9v3.5c0 1.1.4 2.1 1.2 2.9-.8.7-1.2 1.7-1.2 2.8v3.5c0 2.2 1.8 4 4.1 4h23.9c2.2 0 4.1-1.8 4.1-4.1v-3.5c0-1.1-.4-2.1-1.2-2.8.8-.8 1.2-1.8 1.2-2.9v-3.5c0-1.1-.4-2.1-1.2-2.9.8-.8 1.2-1.8 1.2-2.8v-3.4zm-30.1-.5c0-.9.8-1.7 1.7-1.7h24.9c.9 0 1.7.8 1.7 1.7v4.2c0 .9-.8 1.7-1.7 1.7h-24.9c-.9 0-1.7-.8-1.7-1.7zm27.8 9.4v4c0 .9-.7 1.6-1.6 1.6l-24.1.1c-.9 0-1.6-.7-1.6-1.6v-4c0-.9.7-1.6 1.6-1.6h24.1c.9-.1 1.6.6 1.6 1.5zm0 13.5c0 .9-.7 1.6-1.6 1.6h-24.1c-.9 0-1.6-.7-1.6-1.6v-4.3c0-.9.7-1.6 1.6-1.6h24.1c.9 0 1.6.7 1.6 1.6z"/><path d="m9.1 23.5c-1 0-1.8.8-1.8 1.8s.8 1.8 1.8 1.8 1.8-.8 1.8-1.8c.1-1-.8-1.8-1.8-1.8z"/><path d="m9.1 17.8c1 0 1.8-.8 1.8-1.8s-.8-1.8-1.8-1.8-1.8.8-1.8 1.8.8 1.8 1.8 1.8z"/><path d="m9.1 8.6c1 0 1.8-.8 1.8-1.8s-.8-1.8-1.8-1.8-1.8.8-1.8 1.8.8 1.8 1.8 1.8z"/></g></svg>
