<svg enable-background="new 0 0 32 32" viewBox="0 0 32 32" xmlns="http://www.w3.org/2000/svg"><g fill="#151619"><path d="m26 8.6-7.7-7.7c-.6-.6-1.4-.9-2.3-.9s-1.7.3-2.3.9l-7.7 7.7c-.9.9-1.2 2.3-.7 3.5s1.7 2 3 2h15.4c1.3 0 2.5-.8 3-2s.2-2.5-.7-3.5zm-2.8 2.2c-.3.8-1.1 1.3-2 1.3h-10.4c-.9 0-1.7-.5-2-1.3-.4-.9-.2-1.8.4-2.4l5.2-5.2c.4-.4 1-.6 1.5-.6.6 0 1.1.2 1.5.6l5.2 5.2c.8.6 1 1.5.6 2.4z"/><path d="m6 23.4 7.7 7.7c.6.6 1.4.9 2.3.9s1.7-.3 2.3-.9l7.7-7.7c.9-.9 1.2-2.3.7-3.5s-1.7-2-3-2h-15.4c-1.3 0-2.5.8-3 2s-.2 2.5.7 3.5zm2.8-2.2c.3-.8 1.1-1.3 2-1.3h10.4c.9 0 1.7.5 2 1.3.4.9.2 1.8-.4 2.4l-5.2 5.2c-.4.4-1 .6-1.5.6-.6 0-1.1-.2-1.5-.6l-5.2-5.2c-.8-.6-1-1.5-.6-2.4z"/></g></svg>