<svg id="a6e6ccfa-3e84-4c1c-b147-e45bce73b40d" data-name="Layer 1" xmlns="http://www.w3.org/2000/svg" viewBox="0 0 32 28.6"><title>communications</title><path id="f6c97841-a814-4a3b-aea1-73f49e77ad2e" data-name="Fill-1" d="M16,15a3,3,0,1,0,3,3,3,3,0,0,0-3-3m0-7.4a10.34,10.34,0,0,0-7,18l1-1.8A8.25,8.25,0,0,1,7.6,18a8.4,8.4,0,0,1,16.8,0A8.25,8.25,0,0,1,22,23.8l1,1.8a10.34,10.34,0,0,0-7-18M32,18a16,16,0,0,1-6.1,12.6l-1-1.8A13.67,13.67,0,0,0,30,18,14,14,0,0,0,2,18,13.81,13.81,0,0,0,7.1,28.8l-1,1.8A16,16,0,1,1,32,18" transform="translate(0 -2)" fill="#1f2555" fill-rule="evenodd"/></svg>