<svg version="1.1" id="a6e6ccfa-3e84-4c1c-b147-e45bce73b40d"
	 xmlns="http://www.w3.org/2000/svg" xmlns:xlink="http://www.w3.org/1999/xlink" x="0px" y="0px" viewBox="0 0 32 28.6"
	 enable-background="new 0 0 32 28.6" xml:space="preserve">
<path id="f6c97841-a814-4a3b-aea1-73f49e77ad2e" fill="#1f2555" fill-rule="evenodd" clip-rule="evenodd" d="M16,13c-1.7,0-3,1.3-3,3s1.3,3,3,3
	s3-1.3,3-3S17.7,13,16,13 M16,5.6c-5.7,0-10.4,4.6-10.4,10.3c0,2.9,1.2,5.7,3.4,7.7l1-1.8c-1.5-1.5-2.4-3.6-2.4-5.8
	c0-4.6,3.8-8.4,8.4-8.4s8.4,3.8,8.4,8.4c0,2.2-0.9,4.3-2.4,5.8l1,1.8c4.2-3.8,4.6-10.4,0.7-14.6C21.7,6.8,18.9,5.6,16,5.6 M32,16
	c0,4.9-2.2,9.6-6.1,12.6l-1-1.8C28.2,24.2,30,20.2,30,16c0-7.7-6.3-14-14-14S2,8.3,2,16c0,4.2,1.9,8.2,5.1,10.8l-1,1.8
	C-0.8,23.1-2,13.1,3.4,6.1S19-2,25.9,3.5C29.7,6.5,32,11.1,32,16"/>
</svg>
