<svg version="1.1" id="e93bb810-9d7e-4fbb-9ba1-c5b3cfcb64d3"
	 xmlns="http://www.w3.org/2000/svg" xmlns:xlink="http://www.w3.org/1999/xlink" x="0px" y="0px" viewBox="0 0 26.1 32.1"
	 enable-background="new 0 0 26.1 32.1" xml:space="preserve">
<path id="f05b02e0-4006-41a7-b704-44f15c32cdbe" fill="#1f2555" fill-rule="evenodd" clip-rule="evenodd" d="M3.8,15h5.9c0.3,0,0.6,0.1,0.8,0.4
	c0.2,0.2,0.3,0.5,0.2,0.8L9,28.5l13.2-11.4h-5.9c-0.3,0-0.6-0.1-0.8-0.4c-0.2-0.2-0.3-0.5-0.2-0.8L17,3.6L3.8,15z M7.7,32.1
	c-0.2,0-0.3,0-0.5-0.1c-0.4-0.2-0.6-0.6-0.5-1l1.9-13.8H1c-0.4,0-0.8-0.3-1-0.7c-0.1-0.4,0-0.8,0.3-1.1l17.3-15
	C18,0,18.5-0.1,18.9,0.1c0.4,0.2,0.6,0.6,0.5,1L17.5,15H25c0.4,0,0.8,0.3,1,0.7c0.1,0.4,0,0.8-0.3,1.1l-17.3,15
	C8.3,32,8,32.1,7.7,32.1z"/>
</svg>
