<svg version="1.1" id="bfe6cda7-33e0-4899-b660-4a3889a252b3"
	 xmlns="http://www.w3.org/2000/svg" xmlns:xlink="http://www.w3.org/1999/xlink" x="0px" y="0px" viewBox="0 0 32 26"
	 enable-background="new 0 0 32 26" xml:space="preserve">
<path fill="#1f2555" fill-rule="evenodd" clip-rule="evenodd" d="M24.5,24h-17c-0.6,0-1,0.4-1,1s0.4,1,1,1h17c0.6,0,1-0.4,1-1S25.1,24,24.5,24z
	 M30,0H2C0.9,0,0,0.9,0,2v19c0,1.1,0.9,2,2,2h28c1.1,0,2-0.9,2-2V2C32,0.9,31.1,0,30,0z M30,3v17H2V3c0-0.5,0.4-1,0.9-1H3h26
	C29.5,2,30,2.4,30,3L30,3z"/>
</svg>
