<?xml version="1.0" encoding="UTF-8" standalone="no"?>
<svg width="32px" height="32px" viewBox="0 0 32 32" version="1.1" xmlns="http://www.w3.org/2000/svg" xmlns:xlink="http://www.w3.org/1999/xlink">
    <!-- Generator: Sketch 47.1 (45422) - http://www.bohemiancoding.com/sketch -->
    <title>Icon/Industry/Entertainment</title>
    <desc>Created with Sketch.</desc>
    <defs></defs>
    <g id="Symbols" stroke="none" stroke-width="1" fill="none" fill-rule="evenodd">
        <g id="Icon/Industry/Entertainment" fill="#1F2555">
            <g id="Page-1" transform="translate(0.000000, 3.000000)">
                <path d="M24.5003,24 L7.5003,24 C6.9483,24 6.5003,24.447 6.5003,25 C6.5003,25.552 6.9483,26 7.5003,26 L24.5003,26 C25.0533,26 25.5003,25.552 25.5003,25 C25.5003,24.447 25.0533,24 24.5003,24" id="Fill-4"></path>
                <path d="M2.0003,3 C2.0003,2.447 2.4483,2 3.0003,2 L29.0003,2 C29.5533,2 30.0003,2.447 30.0003,3 L30.0003,19.999 L30.0003,20 L2.0003,20 L2.0003,19.999 L2.0003,3 Z M30.0003,0 L2.0003,0 C0.8963,0 0.0003,0.896 0.0003,2 L0.0003,21 C0.0003,22.104 0.8963,23 2.0003,23 L30.0003,23 C31.1043,23 32.0003,22.104 32.0003,21 L32.0003,2 C32.0003,0.896 31.1043,0 30.0003,0 L30.0003,0 Z" id="Fill-1"></path>
            </g>
        </g>
    </g>
</svg>