<?xml version="1.0" encoding="UTF-8" standalone="no"?>
<svg width="32px" height="32px" viewBox="0 0 32 32" version="1.1" xmlns="http://www.w3.org/2000/svg" xmlns:xlink="http://www.w3.org/1999/xlink">
    <!-- Generator: Sketch 47.1 (45422) - http://www.bohemiancoding.com/sketch -->
    <title>Icon/Industry/Financial</title>
    <desc>Created with Sketch.</desc>
    <defs></defs>
    <g id="Symbols" stroke="none" stroke-width="1" fill="none" fill-rule="evenodd">
        <g id="Icon/Industry/Financial" fill="#1F2555">
            <g id="Page-1" transform="translate(3.000000, 0.000000)">
                <path d="M2,30 L24,30 L24,2 L2,2 L2,30 Z M24,0 L2,0 C0.896,0 0,0.896 0,2 L0,30 C0,31.104 0.896,32 2,32 L24,32 C25.105,32 26,31.104 26,30 L26,2 C26,0.896 25.105,0 24,0 L24,0 Z" id="Fill-1"></path>
                <path d="M6,10.72 L20,10.72 L20,5.72 L6,5.72 L6,10.72 Z M4,12.72 L22,12.72 L22,3.72 L4,3.72 L4,12.72 Z" id="Fill-3"></path>
                <polygon id="Fill-4" points="6 18.279 8 18.279 8 16.279 6 16.279"></polygon>
                <polygon id="Fill-5" points="10 18.279 12 18.279 12 16.279 10 16.279"></polygon>
                <polygon id="Fill-6" points="14 18.279 16 18.279 16 16.279 14 16.279"></polygon>
                <polygon id="Fill-7" points="18 18.279 20 18.279 20 16.279 18 16.279"></polygon>
                <polygon id="Fill-8" points="6 22.28 8 22.28 8 20.28 6 20.28"></polygon>
                <polygon id="Fill-9" points="10 22.28 12 22.28 12 20.28 10 20.28"></polygon>
                <polygon id="Fill-10" points="14 22.28 16 22.28 16 20.28 14 20.28"></polygon>
                <polygon id="Fill-11" points="18 22.28 20 22.28 20 20.28 18 20.28"></polygon>
                <polygon id="Fill-12" points="6 26.28 8 26.28 8 24.28 6 24.28"></polygon>
                <polygon id="Fill-13" points="10 26.28 12 26.28 12 24.28 10 24.28"></polygon>
                <polygon id="Fill-14" points="14 26.28 16 26.28 16 24.28 14 24.28"></polygon>
                <polygon id="Fill-15" points="18 26.28 20 26.28 20 24.28 18 24.28"></polygon>
            </g>
        </g>
    </g>
</svg>