<?xml version="1.0" encoding="utf-8"?>
<!-- Generator: Adobe Illustrator 24.0.3, SVG Export Plug-In . SVG Version: 6.00 Build 0)  -->
<svg version="1.1" id="b00b6350-4261-4fe7-b35e-d21ced2631e6"
	 xmlns="http://www.w3.org/2000/svg" xmlns:xlink="http://www.w3.org/1999/xlink" x="0px" y="0px" viewBox="0 0 26 32"
	 enable-background="new 0 0 26 32" xml:space="preserve">
<path fill-rule="evenodd" clip-rule="evenodd" d="M24,0H2C0.9,0,0,0.9,0,2v28c0,1.1,0.9,2,2,2h22c1.1,0,2-0.9,2-2V2
	C26,0.9,25.1,0,24,0z M24,30H2V2h22V30z M22,3.7H4v9h18V3.7z M20,10.7H6v-5h14V10.7z M6,18.3h2v-2H6V18.3z M10,18.3h2v-2h-2V18.3z
	 M14,18.3h2v-2h-2V18.3z M18,18.3h2v-2h-2V18.3z M6,22.3h2v-2H6V22.3z M10,22.3h2v-2h-2V22.3z M14,22.3h2v-2h-2V22.3z M18,22.3h2v-2
	h-2V22.3z M6,26.3h2v-2H6V26.3z M10,26.3h2v-2h-2V26.3z M14,26.3h2v-2h-2V26.3z M18,26.3h2v-2h-2V26.3z"/>
</svg>
