<?xml version="1.0" encoding="utf-8"?>
<!-- Generator: Adobe Illustrator 24.0.3, SVG Export Plug-In . SVG Version: 6.00 Build 0)  -->
<svg version="1.1" id="e9b68407-24ba-4b55-9949-7938db4443cd"
	 xmlns="http://www.w3.org/2000/svg" xmlns:xlink="http://www.w3.org/1999/xlink" x="0px" y="0px" viewBox="0 0 30 32"
	 enable-background="new 0 0 30 32" xml:space="preserve">
<path id="ed92c315-1a68-4a1a-b256-19e4c857be3b" fill-rule="evenodd" clip-rule="evenodd" d="M16,17v10c0,0.6,0.4,1,1,1s1-0.4,1-1
	V17c0-0.6-0.4-1-1-1S16,16.4,16,17 M12,17v10c0,0.6,0.4,1,1,1s1-0.4,1-1V17c0-0.6-0.4-1-1-1S12,16.4,12,17 M2,17v10
	c0,0.5,0.4,1,0.9,1c0,0,0.1,0,0.1,0c0.5,0,1-0.4,1-0.9c0,0,0-0.1,0-0.1V17c0-0.5-0.4-1-0.9-1c0,0-0.1,0-0.1,0c-0.5,0-1,0.4-1,0.9
	C2,16.9,2,17,2,17 M29,30H1c-0.6,0-1,0.4-1,1s0.4,1,1,1h28c0.6,0,1-0.4,1-1S29.6,30,29,30 M6,17v10c0,0.5,0.4,1,0.9,1
	c0,0,0.1,0,0.1,0c0.5,0,1-0.4,1-0.9c0,0,0-0.1,0-0.1V17c0-0.5-0.4-1-0.9-1c0,0-0.1,0-0.1,0c-0.5,0-1,0.4-1,0.9C6,16.9,6,17,6,17
	 M1,14h28c0.6,0,1-0.4,1-1s-0.4-1-1-1H1c-0.6,0-1,0.4-1,1S0.4,14,1,14 M22,17v10c0,0.6,0.4,1,1,1s1-0.4,1-1V17c0-0.6-0.4-1-1-1
	S22,16.4,22,17 M15,6c2.4,0,4.4,1.7,4.9,4h2c-0.4-3.1-2.8-5.5-5.9-5.9V1c0-0.6-0.4-1-1-1c-0.6,0-1,0.4-1,1v3.1
	C10.9,4.5,8.5,6.9,8.1,10h2C10.6,7.7,12.6,6,15,6 M26,17v10c0,0.6,0.4,1,1,1s1-0.4,1-1V17c0-0.6-0.4-1-1-1S26,16.4,26,17"/>
</svg>
