<svg version="1.1" id="adf9d1e9-e15c-47de-981a-f427d4787b1e"
	 xmlns="http://www.w3.org/2000/svg" xmlns:xlink="http://www.w3.org/1999/xlink" x="0px" y="0px" viewBox="0 0 30 30"
	 enable-background="new 0 0 30 30" xml:space="preserve">
<path fill-rule="evenodd" clip-rule="evenodd" d="M26,4h-4V0H8v4H4C1.8,4,0,5.8,0,8v18c0,2.2,1.8,4,4,4h22c2.2,0,4-1.8,4-4V8
	C30,5.8,28.2,4,26,4z M10,2h10v2H10V2z M28,26c0,1.1-0.9,2-2,2H4c-1.1,0-2-0.9-2-2V8c0-1.1,0.9-2,2-2h22c1.1,0,2,0.9,2,2V26z M19,14
	h-1v-1c0-1.7-1.3-3-3-3s-3,1.3-3,3v1h-1c-1.7,0-3,1.3-3,3c0,1.7,1.3,3,3,3h1v1c0,1.7,1.3,3,3,3s3-1.3,3-3v-1h1c1.7,0,3-1.3,3-3
	S20.7,14,19,14z M19,18h-2c-0.5,0-1,0.4-1,0.9V19v2c0,0.5-0.4,1-0.9,1H15c-0.5,0-1-0.4-1-0.9V21v-2c0-0.5-0.4-1-0.9-1H13h-2
	c-0.6,0-1-0.4-1-1s0.4-1,1-1h2c0.5,0,1-0.4,1-0.9V15v-2c0-0.5,0.4-1,0.9-1H15c0.5,0,1,0.4,1,0.9V13v2c0,0.5,0.4,1,0.9,1H17h2
	c0.6,0,1,0.4,1,1S19.6,18,19,18z"/>
</svg>
