<?xml version="1.0" encoding="UTF-8" standalone="no"?>
<svg width="32px" height="32px" viewBox="0 0 32 32" version="1.1" xmlns="http://www.w3.org/2000/svg" xmlns:xlink="http://www.w3.org/1999/xlink">
    <!-- Generator: Sketch 47.1 (45422) - http://www.bohemiancoding.com/sketch -->
    <title>Icon/Industry/Healthcare</title>
    <desc>Created with Sketch.</desc>
    <defs></defs>
    <g id="Symbols" stroke="none" stroke-width="1" fill="none" fill-rule="evenodd">
        <g id="Icon/Industry/Healthcare" fill="#1F2555">
            <g id="Group-5" transform="translate(1.000000, 1.000000)">
                <path d="M28.0005,26.0001 C28.0005,27.1041 27.1045,28.0001 26.0005,28.0001 L4.0005,28.0001 C2.8955,28.0001 2.0005,27.1041 2.0005,26.0001 L2.0005,8.0001 C2.0005,6.8951 2.8955,6.0001 4.0005,6.0001 L8.0005,6.0001 L22.0005,6.0001 L26.0005,6.0001 C27.1045,6.0001 28.0005,6.8951 28.0005,8.0001 L28.0005,26.0001 Z M10.0005,4.0001 L20.0005,4.0001 L20.0005,2.0001 L10.0005,2.0001 L10.0005,4.0001 Z M26.0005,4.0001 L22.0005,4.0001 L22.0005,0.0001 L8.0005,0.0001 L8.0005,4.0001 L4.0005,4.0001 C1.7915,4.0001 0.0005,5.7911 0.0005,8.0001 L0.0005,26.0001 C0.0005,28.2091 1.7915,30.0001 4.0005,30.0001 L26.0005,30.0001 C28.2095,30.0001 30.0005,28.2091 30.0005,26.0001 L30.0005,8.0001 C30.0005,5.7911 28.2095,4.0001 26.0005,4.0001 L26.0005,4.0001 Z" id="Fill-3"></path>
                <path d="M15.0005,10.0001 C13.3465,10.0001 12.0005,11.3461 12.0005,13.0001 L12.0005,14.0001 L10.9995,14.0001 C9.3455,14.0001 8.0005,15.3461 8.0005,17.0001 C8.0005,18.6531 9.3455,19.9991 10.9995,19.9991 L12.0005,19.9991 L12.0005,21.0001 C12.0005,22.6541 13.3455,24.0001 14.9995,24.0001 C16.6535,24.0001 18.0005,22.6541 18.0005,21.0001 L18.0005,19.9991 L19.0005,19.9991 C20.6545,19.9991 22.0005,18.6531 22.0005,17.0001 C22.0005,15.3461 20.6545,14.0001 19.0005,14.0001 L18.0005,14.0001 L18.0005,13.0001 C18.0005,11.3461 16.6545,10.0001 15.0005,10.0001 M15.0005,12.0001 C15.5525,12.0001 16.0005,12.4471 16.0005,13.0001 L16.0005,15.0001 C16.0005,15.5521 16.4475,16.0001 16.9995,16.0001 L19.0005,16.0001 C19.5525,16.0001 20.0005,16.4471 20.0005,17.0001 C20.0005,17.5521 19.5525,17.9991 19.0005,17.9991 L16.9995,17.9991 C16.4475,17.9991 16.0005,18.4461 16.0005,18.9991 L16.0005,21.0001 C16.0005,21.5521 15.5525,22.0001 15.0005,22.0001 L14.9995,22.0001 C14.4475,22.0001 14.0005,21.5521 14.0005,21.0001 L14.0005,18.9991 C14.0005,18.4461 13.5525,17.9991 13.0005,17.9991 L10.9995,17.9991 C10.4475,17.9991 10.0005,17.5521 10.0005,17.0001 C10.0005,16.4471 10.4475,16.0001 10.9995,16.0001 L13.0005,16.0001 C13.5525,16.0001 14.0005,15.5521 14.0005,15.0001 L14.0005,13.0001 C14.0005,12.4471 14.4475,12.0001 14.9995,12.0001 L15.0005,12.0001" id="Fill-1"></path>
            </g>
        </g>
    </g>
</svg>