<svg id="a078b8dc-7868-47f4-bbea-acad42483355" data-name="Layer 1" xmlns="http://www.w3.org/2000/svg" viewBox="0 0 32 32"><title>hospitality</title><path id="ac4801dd-f41d-4bea-8bea-c1dd87578b4e" data-name="Page-1" d="M2,22l2-7v1H28V15l2,7Zm28,6H2V24H30ZM6,8h4V9a.94.94,0,0,0,1,1H21a.94.94,0,0,0,1-1V8h4l1.7,6H4.3Zm6,0h8V6H12ZM6,3A.94.94,0,0,1,7,2H25a.94.94,0,0,1,1,1V5a.94.94,0,0,1-1,1H22V5a.94.94,0,0,0-1-1H11a.94.94,0,0,0-1,1V6H7A.94.94,0,0,1,6,5ZM31.6,22,28,6V2a2,2,0,0,0-2-2H6A2,2,0,0,0,4,2V6L.4,22H0v8H2v2H4V30H28v2h2V30h2V22Z" fill="#1f2555" fill-rule="evenodd"/></svg>