<svg version="1.1" id="a9972861-620e-41a6-9ab3-50fd17f7f8d5"
	 xmlns="http://www.w3.org/2000/svg" xmlns:xlink="http://www.w3.org/1999/xlink" x="0px" y="0px" viewBox="0 0 26 32"
	 enable-background="new 0 0 26 32" xml:space="preserve">
<path fill-rule="evenodd" clip-rule="evenodd" d="M4.2,24.8h10.9v-2H5.8c1.2-1.2,2.5-2.3,3.8-3.3l-1.2-1.6C4.3,21,0,25.1,0,32h2
	c0-0.5,0-1.1,0.1-1.6v0.1h16v-2H2.5C2.9,27.2,3.5,25.9,4.2,24.8z M21.7,7.3H11.1v2H20c-1.2,1.2-2.4,2.2-3.8,3.2l1.2,1.6
	C21.7,11.1,26,7,26,0h-2c0,0.5,0,1.1-0.1,1.6H8.1v2h15.4C23.1,4.9,22.5,6.2,21.7,7.3z M13.6,15.2C7.6,11.2,2,7.5,2,0H0
	c0,8.5,6.3,12.8,12.4,16.8S24,24.5,24,32h2C26,23.5,19.7,19.2,13.6,15.2z"/>
</svg>
