<svg id="a9972861-620e-41a6-9ab3-50fd17f7f8d5" data-name="Layer 1" xmlns="http://www.w3.org/2000/svg" viewBox="0 0 26 32"><title>life sciences</title><path id="e55b9a08-418e-443e-9e74-ef5bef169cec" data-name="Fill-1" d="M7.2,24.8H18.1v-2H8.8a39,39,0,0,1,3.8-3.3l-1.2-1.6C7.3,21,3,25.1,3,32H5a8.08,8.08,0,0,1,.1-1.6v.1h16v-2H5.5a14,14,0,0,1,1.7-3.7" transform="translate(-3)" fill="#1f2555" fill-rule="evenodd"/><path id="afbe508d-a1d6-4808-a8b7-e2815ba5d03d" data-name="Fill-3" d="M24.7,7.3H14.1v2H23a29.24,29.24,0,0,1-3.8,3.2l1.2,1.6C24.7,11.1,29,7,29,0H27a8.08,8.08,0,0,1-.1,1.6H11.1v2H26.5a11.58,11.58,0,0,1-1.8,3.7" transform="translate(-3)" fill="#1f2555" fill-rule="evenodd"/><path id="bb65b3e6-b085-4629-a047-dc71d195dc9a" data-name="Fill-6" d="M16.6,15.2C10.6,11.2,5,7.5,5,0H3C3,8.5,9.3,12.8,15.4,16.8S27,24.5,27,32h2c0-8.5-6.3-12.8-12.4-16.8" transform="translate(-3)" fill="#1f2555" fill-rule="evenodd"/></svg>