<svg version="1.1" id="ad9b9821-4f20-411a-94e7-d6be8791e59f"
	 xmlns="http://www.w3.org/2000/svg" xmlns:xlink="http://www.w3.org/1999/xlink" x="0px" y="0px" viewBox="0 0 32 32"
	 enable-background="new 0 0 32 32" xml:space="preserve">
<path id="bb52bbc1-6b39-42be-90ec-a02f161f678e" fill="#1f2555" fill-rule="evenodd" clip-rule="evenodd" d="M24,0v4h-4V0h-2v4h-4V0h-2v4H8V0H6v4H4
	v2H0v2h4v4H0v2h4v4H0v2h4v4H0v2h4v2h2v4h2v-4h4v4h2v-4h4v4h2v-4h4v4h2v-4h2v-2h4v-2h-4v-4h4v-2h-4v-4h4v-2h-4V8h4V6h-4V4h-2V0H24z
	 M6,24V6h20v20H6V24z"/>
</svg>
