<svg version="1.1" id="ea0aba77-7d8d-4792-b976-9ad471861d21"
	 xmlns="http://www.w3.org/2000/svg" xmlns:xlink="http://www.w3.org/1999/xlink" x="0px" y="0px" viewBox="0 0 30 32"
	 enable-background="new 0 0 30 32" xml:space="preserve">
<path id="ba2c2d66-2938-46eb-aae8-49a8afaf9b45" fill="#1f2555" fill-rule="evenodd" clip-rule="evenodd" d="M28,29c0,0.5-0.4,1-0.9,1
	c0,0-0.1,0-0.1,0H16V11.4l6,2.6c1.1,0,2-0.9,2-2V7h3c0.5,0,1,0.4,1,0.9c0,0,0,0.1,0,0.1V29z M22,4.4V11c0,0.5-0.4,1-0.9,1
	c0,0-0.1,0-0.1,0l-4.4-2.2L22,4.4z M8.6,2.3L8.5,2.2C8.6,2.1,8.8,2,9,2h12c0.2,0,0.4,0.1,0.5,0.2c-0.1,0-0.1,0.1-0.2,0.1L15,8.6
	L8.6,2.3z M14,30H3c-0.5,0-1-0.4-1-0.9c0,0,0-0.1,0-0.1V8c0-0.5,0.4-1,0.9-1C2.9,7,3,7,3,7h3v5c0,1.1,0.9,2,2,2l6-2.6V30z M8,4.4
	l5.4,5.4L9,12c-0.5,0-1-0.4-1-0.9c0,0,0-0.1,0-0.1V4.4z M28,5h-4V2c0-1.1-0.9-2-2-2H8C6.9,0,6,0.9,6,2v3H2C0.9,5,0,5.9,0,7v23
	c0,1.1,0.9,2,2,2h26c1.1,0,2-0.9,2-2V7C30,5.9,29.1,5,28,5z M18,20h8v-2h-8V20z"/>
</svg>
