<svg version="1.1" id="b70e4e6e-7d25-4a38-8202-311c6361aeaf"
	 xmlns="http://www.w3.org/2000/svg" xmlns:xlink="http://www.w3.org/1999/xlink" x="0px" y="0px" viewBox="0 0 28 32"
	 enable-background="new 0 0 28 32" xml:space="preserve">
<path id="fa01f8bb-7b69-4742-a5e8-5e44d2c60476" fill-rule="evenodd" clip-rule="evenodd" d="M10,6h8V4h-8V6z M26,8H2V3
	c0-0.5,0.4-1,0.9-1C2.9,2,3,2,3,2h22c0.5,0,1,0.4,1,0.9c0,0,0,0.1,0,0.1V8z M26,19v1H2V10h24V19z M24,26c-1.1,0-2-0.9-2-2s0.9-2,2-2
	s2,0.9,2,2S25.1,26,24,26z M20.6,26H7.4C7.7,25.4,8,24.7,8,24c0-0.7-0.2-1.4-0.6-2h13.1c-0.3,0.6-0.6,1.3-0.6,2
	C20,24.7,20.2,25.4,20.6,26z M4,26c-1.1,0-2-0.9-2-2s0.9-2,2-2s2,0.9,2,2S5.1,26,4,26z M26,0H2C0.9,0,0,0.9,0,2v22
	c0,1.4,0.7,2.7,2,3.4V31c0,0.5,0.4,1,0.9,1c0,0,0.1,0,0.1,0c0.5,0,1-0.4,1-0.9c0,0,0-0.1,0-0.1v-3h20v3c0,0.6,0.4,1,1,1s1-0.4,1-1
	v-3.6c1.2-0.7,2-2,2-3.4V2C28,0.9,27.1,0,26,0z"/>
</svg>
