<svg width="1963" height="522" viewBox="0 0 1963 522" xmlns="http://www.w3.org/2000/svg"><g transform="translate(.873 .373)" fill="none" fill-rule="evenodd"><g transform="translate(1242 313)"><path fill="#E64B17" d="M208 0H0v208h208z"/><circle stroke="#1F2555" stroke-width="30" cx="104" cy="104" r="52"/></g><path d="M773.545 312.545v208h-208v-208h208zm-52 52h-104v104h104v-104z" fill="#E64B17"/><circle stroke="#FFCC4C" stroke-width="30" cx="877.545" cy="416.545" r="52"/><circle stroke="#E64B17" stroke-width="30" cx="1814" cy="416" r="52"/><path fill="#099" d="M305.545 311.545h208v208h-208z"/><path fill="#161B3D" d="M253.545 312.545h-208v208h208z"/><path fill="#FFCC4D" d="M149.545 343.006l-73.539 73.54 73.54 73.538 73.538-73.539z"/><path d="M1189.545 312.545v208h-208v-208h208zm-104 30.461l-73.539 73.54 73.54 73.538 73.538-73.539-73.539-73.539z" fill="#099"/><path fill="#161B3D" d="M1962 .545H0v312h1962z"/><g fill="#FED161"><path d="M1710 313h-208v208h208z"/></g></g></svg>