<?xml version="1.0" encoding="UTF-8" standalone="no"?>
<svg width="32px" height="32px" viewBox="0 0 32 32" version="1.1" xmlns="http://www.w3.org/2000/svg" xmlns:xlink="http://www.w3.org/1999/xlink">
    <!-- Generator: Sketch 46.2 (44496) - http://www.bohemiancoding.com/sketch -->
    <title>Icon/Industry/Communications</title>
    <desc>Created with Sketch.</desc>
    <defs></defs>
    <g id="Symbols" stroke="none" stroke-width="1" fill="none" fill-rule="evenodd">
        <g id="Icon/Industry/Communications" fill="#1F2555">
            <g id="Page-1" transform="translate(0.000000, 1.000000)">
                <path d="M16,0 C7.178,0 0,7.178 0,16 C0,22.634 3.988,28.482 10.161,30.9 L10.89,29.038 C5.489,26.922 2,21.805 2,16 C2,8.28 8.28,2 16,2 C23.72,2 30,8.28 30,16 C30,21.802 26.515,26.916 21.12,29.028 L21.849,30.89 C28.016,28.476 32,22.631 32,16 C32,7.178 24.822,0 16,0" id="Fill-1"></path>
                <path d="M26.375,16 C26.375,10.279 21.721,5.625 16,5.625 C10.279,5.625 5.625,10.279 5.625,16 C5.625,20.26 8.294,24.15 12.266,25.68 L12.984,23.813 C9.778,22.579 7.625,19.439 7.625,16 C7.625,11.382 11.382,7.625 16,7.625 C20.618,7.625 24.375,11.382 24.375,16 C24.375,19.442 22.222,22.582 19.017,23.813 L19.733,25.68 C23.706,24.155 26.375,20.265 26.375,16" id="Fill-4"></path>
                <path d="M16.0049,13.0356 C14.3479,13.0356 13.0049,14.3786 13.0049,16.0356 C13.0049,17.6926 14.3479,19.0356 16.0049,19.0356 C17.6609,19.0356 19.0049,17.6926 19.0049,16.0356 C19.0049,14.3786 17.6609,13.0356 16.0049,13.0356" id="Fill-6"></path>
            </g>
        </g>
    </g>
</svg>