<?xml version="1.0" encoding="UTF-8" standalone="no"?>
<svg width="32px" height="32px" viewBox="0 0 32 32" version="1.1" xmlns="http://www.w3.org/2000/svg" xmlns:xlink="http://www.w3.org/1999/xlink">
    <!-- Generator: Sketch 46.2 (44496) - http://www.bohemiancoding.com/sketch -->
    <title>Icon/Industry/Government</title>
    <desc>Created with Sketch.</desc>
    <defs></defs>
    <g id="Symbols" stroke="none" stroke-width="1" fill="none" fill-rule="evenodd">
        <g id="Icon/Industry/Government" fill="#1F2555">
            <path d="M17,17 L17,27 C17,27.5525 17.448,28 18,28 C18.552,28 19,27.5525 19,27 L19,17 C19,16.4475 18.552,16 18,16 C17.448,16 17,16.4475 17,17 M13,17 L13,27 C13,27.5525 13.448,28 14,28 C14.552,28 15,27.5525 15,27 L15,17 C15,16.4475 14.552,16 14,16 C13.448,16 13,16.4475 13,17 M3,17 L3,27 C3,27.5525 3.448,28 4,28 C4.552,28 5,27.5525 5,27 L5,17 C5,16.4475 4.552,16 4,16 C3.448,16 3,16.4475 3,17 M30,30 L2,30 C1.448,30 1,30.4475 1,31 C1,31.5525 1.448,32 2,32 L30,32 C30.552,32 31,31.5525 31,31 C31,30.4475 30.552,30 30,30 M7,17 L7,27 C7,27.5525 7.448,28 8,28 C8.552,28 9,27.5525 9,27 L9,17 C9,16.4475 8.552,16 8,16 C7.448,16 7,16.4475 7,17 M2,14 L30,14 C30.552,14 31,13.5525 31,13 C31,12.448 30.552,12 30,12 L2,12 C1.448,12 1,12.448 1,13 C1,13.5525 1.448,14 2,14 M23,17 L23,27 C23,27.5525 23.448,28 24,28 C24.552,28 25,27.5525 25,27 L25,17 C25,16.4475 24.552,16 24,16 C23.448,16 23,16.4475 23,17 M16,6 C18.419,6 20.4365,7.718 20.8995,10 L22.9205,10 C22.481,6.9365 20.0625,4.518 17,4.078 L17,1 C17,0.4475 16.552,0 16,0 C15.448,0 15,0.4475 15,1 L15,4.078 C11.9375,4.518 9.519,6.9365 9.0795,10 L11.1005,10 C11.5635,7.718 13.5815,6 16,6 M27,17 L27,27 C27,27.5525 27.448,28 28,28 C28.552,28 29,27.5525 29,27 L29,17 C29,16.4475 28.552,16 28,16 C27.448,16 27,16.4475 27,17" id="Page-1"></path>
        </g>
    </g>
</svg>