<?xml version="1.0" encoding="UTF-8" standalone="no"?>
<svg width="32px" height="32px" viewBox="0 0 32 32" version="1.1" xmlns="http://www.w3.org/2000/svg" xmlns:xlink="http://www.w3.org/1999/xlink">
    <!-- Generator: Sketch 46.2 (44496) - http://www.bohemiancoding.com/sketch -->
    <title>Icon/Industry/Healthcare</title>
    <desc>Created with Sketch.</desc>
    <defs></defs>
    <g id="Symbols" stroke="none" stroke-width="1" fill="none" fill-rule="evenodd">
        <g id="Icon/Industry/Healthcare" fill="#1F2555">
            <g id="Page-1" transform="translate(0.000000, 2.000000)">
                <path d="M15.99955,26.38965 C9.80505,21.17065 2.00005,13.25565 2.00005,10.00015 C2.00005,7.59465 2.58455,2.00015 8.00005,2.00015 C10.11405,2.00015 13.56805,4.39565 14.57605,5.41915 L16.00005,6.86115 L17.42405,5.41915 C18.43255,4.39565 21.88555,2.00015 24.00005,2.00015 C29.41505,2.00015 30.00005,7.59465 30.00005,10.00015 C30.00005,10.15315 29.97705,10.32015 29.94355,10.49315 L24.38105,10.49315 L21.91405,8.07415 C21.83155,7.88965 21.69305,7.72665 21.50005,7.61815 C21.31205,7.51265 21.10405,7.47565 20.90355,7.49515 C20.89255,7.49615 20.88205,7.49915 20.87105,7.50015 C20.82505,7.50565 20.77955,7.51165 20.73505,7.52415 C20.62205,7.55265 20.51555,7.60365 20.41855,7.67165 C20.41055,7.67765 20.40205,7.68165 20.39405,7.68765 C20.36605,7.70915 20.34155,7.73415 20.31555,7.75865 C20.29155,7.78065 20.26655,7.80065 20.24505,7.82515 C20.23705,7.83515 20.23055,7.84565 20.22255,7.85565 C20.19155,7.89365 20.16005,7.93165 20.13455,7.97565 L16.94405,14.40465 L15.07305,10.96015 C14.84205,10.61665 14.39855,10.44415 13.96705,10.49315 L9.00005,10.49315 C8.44755,10.49315 8.00005,10.94065 8.00005,11.49315 C8.00005,12.04615 8.44755,12.49315 9.00005,12.49315 L13.46555,12.49315 L15.92655,17.02615 C16.15655,17.36715 16.59655,17.53965 17.02705,17.49415 C17.36255,17.48515 17.68555,17.31515 17.86605,17.01065 L17.88655,16.96965 C17.88755,16.96715 17.88855,16.96465 17.88955,16.96265 L21.27655,10.13765 L23.10305,11.92765 C23.25055,12.23165 23.54555,12.44565 23.89555,12.48265 C23.90905,12.48415 23.92255,12.48515 23.93605,12.48665 C23.95755,12.48815 23.97805,12.49315 24.00005,12.49315 L29.11255,12.49315 C26.89805,16.35265 20.93905,22.22715 15.99955,26.38965 M24.00005,0.00015 C21.00005,0.00015 17.00005,3.00015 16.00005,4.01265 C15.00005,3.00015 11.00005,0.00015 8.00005,0.00015 C2.47705,0.00015 5e-05,4.47765 5e-05,10.00015 C5e-05,15.99915 16.00005,28.98515 16.00005,28.98515 C16.00005,28.98515 32.00005,15.99915 32.00005,10.00015 C32.00005,4.47765 29.52255,0.00015 24.00005,0.00015" id="Fill-1"></path>
            </g>
        </g>
    </g>
</svg>