<?xml version="1.0" encoding="UTF-8"?>
<svg width="198px" height="182px" viewBox="0 0 198 182" version="1.1" xmlns="http://www.w3.org/2000/svg" xmlns:xlink="http://www.w3.org/1999/xlink">
    <!-- Generator: Sketch 51.2 (57519) - http://www.bohemiancoding.com/sketch -->
    <title>Bolt logo</title>
    <desc>Created with Sketch.</desc>
    <defs></defs>
    <g id="Main-Concepts" stroke="none" stroke-width="1" fill="none" fill-rule="evenodd">
        <g id="Bolt-homepage-dark" transform="translate(-387.000000, -255.000000)">
            <g id="Bolt-Final" transform="translate(486.000000, 346.000000) rotate(-360.000000) translate(-486.000000, -346.000000) translate(374.000000, 234.000000)">
                <g id="Group-3" transform="translate(112.000000, 112.000000) rotate(-180.000000) translate(-112.000000, -112.000000) translate(7.000000, 21.000000)">
                    <path d="M131.25,133 L78.75,133 C77.7835017,133 77,132.216498 77,131.25 L77,99.75 C77,98.7835017 77.7835017,98 78.75,98 L131.25,98 C132.216498,98 133,98.7835017 133,99.75 L133,131.25 C133,132.216498 132.216498,133 131.25,133 Z" id="Path" fill="#FFCC4C"></path>
                    <path d="M202.933253,103.249029 L186.274319,132.124514 C185.961785,132.66624 185.383909,133 184.758494,133 L148.75,133 C147.783502,133 147,132.216498 147,131.25 L147,99.75 C147,98.7835017 147.783502,98 148.75,98 L199.901603,98 C201.8346,98 203.401603,99.5670034 203.401603,101.5 C203.401603,102.113998 203.240081,102.717192 202.933253,103.249029 Z" id="Path" fill="#FF6633"></path>
                    <path d="M63,99.75 L63,131.25 C63,132.216498 62.2164983,133 61.25,133 L25.2415061,133 C24.616091,133 24.0382153,132.66624 23.7256813,132.124514 L7.06674726,103.249029 C6.10078545,101.574695 6.67503441,99.4343123 8.34936823,98.4683504 C8.88120443,98.1615219 9.48439883,98 10.0983968,98 L61.25,98 C62.2164983,98 63,98.7835017 63,99.75 Z" id="Path" fill="#E1E2EB"></path>
                    <path d="M119,180.25 L119,148.75 C119,147.783502 119.783502,147 120.75,147 L174.66234,147 C175.628838,147 176.41234,147.783502 176.41234,148.75 C176.41234,149.056999 176.331579,149.358596 176.178165,149.624514 L161.540703,174.996114 C159.040431,179.329919 154.417426,182 149.414105,182 L120.75,182 C119.783502,182 119,181.216498 119,180.25 Z" id="Path" fill="#FF6633"></path>
                    <path d="M103.25,182 L60.5858949,182 C55.5825738,182 50.9595686,179.329919 48.4592967,174.996114 L33.8218352,149.624514 C33.3388543,148.787347 33.6259787,147.717156 34.4631457,147.234175 C34.7290638,147.080761 35.030661,147 35.3376599,147 L103.25,147 C104.216498,147 105,147.783502 105,148.75 L105,180.25 C105,181.216498 104.216498,182 103.25,182 Z" id="Path" fill="#FFCC4C"></path>
                    <path d="M161.540703,7.00388565 L176.178165,32.3754857 C176.661146,33.2126526 176.374021,34.2828439 175.536854,34.7658248 C175.270936,34.9192391 174.969339,35 174.66234,35 L106.75,35 C105.783502,35 105,34.2164983 105,33.25 L105,1.75 C105,0.783501688 105.783502,1.7754286e-16 106.75,0 L149.414105,2.48689958e-14 C154.417426,2.39499006e-14 159.040431,2.67008102 161.540703,7.00388565 Z" id="Path" fill="#6C79D9"></path>
                    <path d="M89.25,35 L35.3376599,35 C34.3711616,35 33.5876599,34.2164983 33.5876599,33.25 C33.5876599,32.943001 33.6684209,32.6414038 33.8218352,32.3754857 L48.4592967,7.00388565 C50.9595686,2.67008102 55.5825738,4.02771965e-15 60.5858949,3.10862447e-15 L89.25,0 C90.2164983,-1.7754286e-16 91,0.783501688 91,1.75 L91,33.25 C91,34.2164983 90.2164983,35 89.25,35 Z" id="Path" fill="#12B3B3"></path>
                    <path d="M133,82.25 L133,50.75 C133,49.7835017 133.783502,49 134.75,49 L184.758494,49 C185.383909,49 185.961785,49.3337601 186.274319,49.8754857 L202.933253,78.7509714 C203.899215,80.4253052 203.324966,82.5656877 201.650632,83.5316496 C201.118796,83.8384781 200.515601,84 199.901603,84 L134.75,84 C133.783502,84 133,83.2164983 133,82.25 Z" id="Path" fill="#6C79D9"></path>
                    <path d="M117.25,84 L10.0983968,84 C8.16540019,84 6.59839681,82.4329966 6.59839681,80.5 C6.59839681,79.886002 6.75991868,79.2828076 7.06674726,78.7509714 L23.7256813,49.8754857 C24.0382153,49.3337601 24.616091,49 25.2415061,49 L117.25,49 C118.216498,49 119,49.7835017 119,50.75 L119,82.25 C119,83.2164983 118.216498,84 117.25,84 Z" id="Path" fill="#12B3B3"></path>
                </g>
            </g>
        </g>
    </g>
</svg>