<svg id="a6b4ccad-a696-44ea-8113-b4e3458e286f" data-name="Layer 1" xmlns="http://www.w3.org/2000/svg" viewBox="0 0 31.9 28"><title>marketing</title><path id="a1496b46-795c-4192-8669-54cedbdf56d8" data-name="Page-1" d="M30,23a.94.94,0,0,1-1,1l-3-.5V6.5L29,6a.94.94,0,0,1,1,1ZM3,20a.94.94,0,0,1-1-1V11a.94.94,0,0,1,1-1L24,6.8V23.3Zm11,7.8L8,26.3V22.9l6,.9ZM30,2V4L2,8a2,2,0,0,0-2,2V20a2,2,0,0,0,2,2l4,.6V27a.94.94,0,0,0,1,1H7l7.7,2h.5a1,1,0,0,0,.7-.9v-5l14,2v2h2V2Z" transform="translate(0 -2)" fill="#1f2555" fill-rule="evenodd"/></svg>