<svg version="1.1" id="Layer_1" xmlns="http://www.w3.org/2000/svg" xmlns:xlink="http://www.w3.org/1999/xlink" x="0px" y="0px"
	 viewBox="0 0 49 22" style="enable-background:new 0 0 49 22;" xml:space="preserve">
<style type="text/css">
	.st0{fill-rule:evenodd;clip-rule:evenodd;fill:#FEFEFE;}
	.st1{opacity:0.5;fill-rule:evenodd;clip-rule:evenodd;fill:#FEFEFE;enable-background:new    ;}
</style>
<path id="Fill-1_1_" class="st0" d="M43.7,5.7L43.7,5.7c-0.1,0-0.8-0.3-1.3,0.2L42.3,6l1.1,0.5L43.7,5.7z M48.9,11.9
	c0,0-0.5,0.9-0.7,1.2c-0.2,0.3-0.9,0.5-1.5,0.2c-0.3-0.1-2.8-1.6-3.8-1.5c-5,0.4-6.3-1.6-6.5-1.8c-0.2-0.2-0.5-0.1-0.2,0.3
	c1.1,1.9,4.3,2.7,4.3,2.7c0.8,2,0.9,3.4,0.9,3.4c-0.8-0.6-1.7-1.2-2.7-1.6c-2.5-1.7-6.5-3.8-12-5.1C27,5.3,29.2-1,39.4,0.5
	c0,0,2.1,0.3,3.4,1.3c0,0-0.3,0.3-0.8,0.8c-0.4,0.4,0,0.7,0,0.7L44.3,5c0,0.9,0.1,1.2,0.7,2c0.7,0.8,3.3,3.6,3.7,3.9
	C49.1,11.3,48.9,11.9,48.9,11.9L48.9,11.9z M25.2,3.4c-0.5,2.2-0.5,4.2-0.2,5.8c-0.5-0.1-1-0.2-1.6-0.3c-11.2-1.8-14.6,3.7-13.3,8.2
	c-3.7,1.4-7.2,3-10,4.5c4.4-10.5,14-19.8,22.1-21C24.8,0.3,25.5,2,25.2,3.4L25.2,3.4z"/>
<path id="Fill-4_1_" class="st1" d="M26.7,13.1c4.4-0.3,8.5,0.1,11.9,1.7c-2.5-1.7-6.5-3.8-12-5.1C26.5,11.2,26.7,12.4,26.7,13.1
	 M26.1,13.1c-4.9,0.5-10.7,2-16.1,4c-1.3-4.5,2.1-10,13.3-8.2c0.5,0.1,1.1,0.2,1.6,0.3C25.2,10.8,25.7,12.1,26.1,13.1"/>
</svg>
