<svg>
  <path class="st0" d="M6.5,8.5C6.2,8.5,6,8.8,6,9v8.3c0,0.3,0.2,0.5,0.5,0.5S7,17.6,7,17.3V9C7,8.8,6.8,8.5,6.5,8.5z"/>
  <path class="st0" d="M2,10.9c-0.3,0-0.5,0.2-0.5,0.5v5.9c0,0.3,0.2,0.5,0.5,0.5s0.5-0.2,0.5-0.5v-5.9C2.5,11.1,2.3,10.9,2,10.9z"/>
  <path class="st0" d="M10.9,12.3c-0.3,0-0.5,0.2-0.5,0.5v4.6c0,0.3,0.2,0.5,0.5,0.5c0.3,0,0.5-0.2,0.5-0.5v-4.6
    C11.4,12.5,11.2,12.3,10.9,12.3z"/>
  <path class="st0" d="M15.4,10.4c-0.3,0-0.5,0.2-0.5,0.5v6.4c0,0.3,0.2,0.5,0.5,0.5s0.5-0.2,0.5-0.5v-6.4
    C15.9,10.6,15.7,10.4,15.4,10.4z"/>
  <path class="st0" d="M19.8,0c-1.1,0-2,0.9-2,2c0,0.3,0.1,0.6,0.2,0.9l-3.4,2.7c-0.3-0.3-0.8-0.4-1.2-0.4c-0.4,0-0.8,0.1-1.1,0.3
    l-2.2-2c0.2-0.3,0.3-0.6,0.3-1c0-1.1-0.9-2-2-2s-2,0.9-2,2c0,0.2,0,0.4,0.1,0.6l-3,1.8C3.1,4.7,2.6,4.5,2,4.5c-1.1,0-2,0.9-2,2
    s0.9,2,2,2c1.1,0,2-0.9,2-2c0-0.2,0-0.4-0.1-0.6l3-1.8c0.4,0.4,0.9,0.6,1.4,0.6c0.4,0,0.8-0.1,1.1-0.3l2.2,2c-0.2,0.3-0.3,0.6-0.3,1
    c0,1.1,0.9,2,2,2s2-0.9,2-2c0-0.3-0.1-0.6-0.2-0.9l3.4-2.7c0.3,0.3,0.8,0.4,1.2,0.4c1.1,0,2-0.9,2-2C21.9,0.9,20.9,0,19.8,0z M2,7.6
    c-0.6,0-1-0.5-1-1c0-0.6,0.5-1,1-1c0.6,0,1,0.5,1,1C3.1,7.1,2.6,7.6,2,7.6z M8.4,3.6c-0.6,0-1-0.5-1-1c0-0.6,0.5-1,1-1
    c0.6,0,1,0.5,1,1C9.4,3.2,8.9,3.6,8.4,3.6z M13.4,8.3c-0.6,0-1-0.5-1-1s0.5-1,1-1c0.6,0,1,0.5,1,1S14,8.3,13.4,8.3z M19.8,3.1
    c-0.6,0-1-0.5-1-1c0-0.6,0.5-1,1-1c0.6,0,1,0.5,1,1C20.9,2.6,20.4,3.1,19.8,3.1z"/>
  <path class="st0" d="M19.8,5.8c-0.3,0-0.5,0.2-0.5,0.5v11.1c0,0.3,0.2,0.5,0.5,0.5s0.5-0.2,0.5-0.5V6.3C20.3,6,20.1,5.8,19.8,5.8z"
    />
</svg>
