<svg id="ba8096cd-6223-4198-853f-378abef883d5" data-name="Layer 1" xmlns="http://www.w3.org/2000/svg" viewBox="0 0 32 32"><title>co-browse</title><path id="e2335f47-4908-4a8c-922c-9f4c39b94a17" data-name="Page-1" d="M30,12H8V10a2,2,0,0,1,2-2H28a2,2,0,0,1,2,2Zm0,16a2,2,0,0,1-2,2H10a2,2,0,0,1-2-2V14H30ZM28,6H10a4,4,0,0,0-4,4V28a4,4,0,0,0,4,4H28a4,4,0,0,0,4-4V10a4,4,0,0,0-4-4ZM4,2H22a2,2,0,0,1,2,2h2a4,4,0,0,0-4-4H4A4,4,0,0,0,0,4V22a4,4,0,0,0,4,4V24a2,2,0,0,1-2-2V8H4V6H2V4A2,2,0,0,1,4,2Z" fill="#1f2555" fill-rule="evenodd"/></svg>