<svg id="a5d8b2b7-76bf-42fa-b324-0aadca23fc44" data-name="Layer 1" xmlns="http://www.w3.org/2000/svg" viewBox="0 0 32.1 32.1"><title>customer decision hub</title><path id="b32edc77-0f00-4bba-a088-0121f1fc0fd8" data-name="Fill-1" d="M19.9,19.4a14,14,0,0,0-4,6.5,15.8,15.8,0,0,0-4.1-6.6A17.29,17.29,0,0,0,6.2,16a16.13,16.13,0,0,0,6-3.5,15.33,15.33,0,0,0,3.7-6.2,15.15,15.15,0,0,0,4.6,7.1,15.14,15.14,0,0,0,5.2,2.7,13.8,13.8,0,0,0-5.8,3.3M31.1,15c-3.8-.3-7-1.3-9.3-3.2C18.9,9.5,17.3,5.8,17,.9A1,1,0,0,0,16,0h0a1.06,1.06,0,0,0-1,.9c-.4,4.4-1.8,7.9-4.2,10.2S5.1,14.7.9,15a1,1,0,0,0,0,2,15,15,0,0,1,9.5,3.8c2.5,2.3,4,5.8,4.6,10.4a1.06,1.06,0,0,0,1,.9h0a1.06,1.06,0,0,0,1-.9c.3-4.5,1.7-7.9,4.3-10.2,2.2-2.1,5.6-3.4,9.9-3.8a1.06,1.06,0,0,0,.9-1c-.1-.7-.5-1.2-1-1.2" fill="#1f2555" fill-rule="evenodd"/><path id="f8171e6a-433a-45e7-b625-f9e43e1b48d5" data-name="Fill-4" d="M10.4,24.9a3.25,3.25,0,0,1-2.4-1,3.41,3.41,0,0,1-.8-2.3.5.5,0,0,0-1,0,3.88,3.88,0,0,1-1.1,2.5,3.68,3.68,0,0,1-2.1.8.5.5,0,0,0,0,1,5.28,5.28,0,0,1,2.2.8,3.36,3.36,0,0,1,1.1,2.4.47.47,0,0,0,.5.5h0a.47.47,0,0,0,.5-.5,3.34,3.34,0,0,1,.9-2.3,4,4,0,0,1,2.4-1,.47.47,0,0,0,.5-.5,1.27,1.27,0,0,0-.7-.4" fill="#1f2555" fill-rule="evenodd"/><path id="e39ef4f5-0ffe-41b0-b6b5-b2e72f0adf19" data-name="Fill-6" d="M21.6,7.1a3.73,3.73,0,0,1,2.3,1,3.52,3.52,0,0,1,.9,2.3.47.47,0,0,0,.5.5h0a.47.47,0,0,0,.5-.5,3.34,3.34,0,0,1,.9-2.3,3.69,3.69,0,0,1,2.4-1,.5.5,0,0,0,0-1,2.94,2.94,0,0,1-2.2-.9,3,3,0,0,1-1-2.4.5.5,0,0,0-1,0,3.77,3.77,0,0,1-1,2.4,3.28,3.28,0,0,1-2.2.9.47.47,0,0,0-.5.5c-.1.3.1.5.4.5" fill="#1f2555" fill-rule="evenodd"/></svg>