<svg version="1.1" id="a5d8b2b7-76bf-42fa-b324-0aadca23fc44"
	 xmlns="http://www.w3.org/2000/svg" xmlns:xlink="http://www.w3.org/1999/xlink" x="0px" y="0px" viewBox="0 0 32.1 32.1"
	 enable-background="new 0 0 32.1 32.1" xml:space="preserve">
<path fill="#1f2555" fill-rule="evenodd" clip-rule="evenodd" d="M31.1,15c-3.8-0.3-7-1.3-9.3-3.2c-2.9-2.3-4.5-6-4.8-10.9C16.9,0.4,16.5,0,16,0
	s-0.9,0.4-1,0.9c-0.4,4.4-1.8,7.9-4.2,10.2S5.1,14.7,0.9,15c-0.6,0-1,0.4-1,1c0,0.6,0.4,1,1,1c3.5,0.1,6.9,1.5,9.5,3.8
	c2.5,2.3,4,5.8,4.6,10.4c0.1,0.5,0.5,0.9,1,0.9s0.9-0.4,1-0.9c0.3-4.5,1.7-7.9,4.3-10.2c2.2-2.1,5.6-3.4,9.9-3.8
	c0.5-0.1,0.9-0.5,0.9-1C32,15.5,31.6,15,31.1,15z M19.9,19.4c-1.9,1.8-3.3,4-4,6.5c-0.8-2.5-2.2-4.8-4.1-6.6
	c-1.6-1.4-3.5-2.6-5.6-3.3c2.2-0.7,4.3-1.9,6-3.5c1.7-1.7,3-3.9,3.7-6.2c0.8,2.8,2.4,5.2,4.6,7.1c1.5,1.2,3.3,2.1,5.2,2.7
	C23.5,16.7,21.5,17.8,19.9,19.4z M8,23.9c-0.5-0.6-0.8-1.5-0.8-2.3c0-0.3-0.2-0.5-0.5-0.5s-0.5,0.2-0.5,0.5
	c-0.1,0.9-0.4,1.8-1.1,2.5c-0.6,0.5-1.3,0.8-2.1,0.8c-0.3,0-0.5,0.2-0.5,0.5s0.2,0.5,0.5,0.5c0.8,0.1,1.5,0.4,2.2,0.8
	c0.7,0.6,1.1,1.5,1.1,2.4c0,0.3,0.2,0.5,0.4,0.5c0,0,0,0,0.1,0c0.3,0,0.5-0.2,0.5-0.4c0,0,0,0,0-0.1c0-0.9,0.3-1.7,0.9-2.3
	c0.7-0.6,1.5-0.9,2.4-1c0.3,0,0.5-0.2,0.5-0.4c0,0,0,0,0-0.1c-0.2-0.2-0.4-0.3-0.7-0.4C9.5,24.9,8.6,24.6,8,23.9z M21.6,7.1
	c0.9,0.1,1.7,0.4,2.3,1c0.6,0.6,0.9,1.4,0.9,2.3c0,0.3,0.2,0.5,0.4,0.5c0,0,0,0,0.1,0c0.3,0,0.5-0.2,0.5-0.4c0,0,0,0,0-0.1
	c0-0.9,0.3-1.7,0.9-2.3c0.7-0.6,1.5-1,2.4-1c0.3,0,0.5-0.2,0.5-0.5s-0.2-0.5-0.5-0.5c-0.8,0-1.6-0.3-2.2-0.9c-0.7-0.6-1-1.5-1-2.4
	c0-0.3-0.2-0.5-0.5-0.5s-0.5,0.2-0.5,0.5c0,0.9-0.4,1.7-1,2.4c-0.6,0.6-1.4,0.9-2.2,0.9c-0.3,0-0.5,0.2-0.5,0.4c0,0,0,0,0,0.1
	C21.1,6.9,21.3,7.1,21.6,7.1z"/>
</svg>
