<svg id="b64e0344-ab16-4138-bad4-4b37bfe5adc6" data-name="ffe51f9d-3a5d-4cc4-bfad-3c8131365f10" xmlns="http://www.w3.org/2000/svg" viewBox="0 0 31.51 31.51"><title>customer service</title><path id="f14c0f1b-10f0-40a1-8e58-c49ec9e38fee" data-name="aee4f716-9c84-424c-99e9-6eca3aec5305" d="M25.63,5.82a12.23,12.23,0,0,1,1.66,3.92,9.3,9.3,0,0,1,2.26,6,9.81,9.81,0,0,1-6.13,8.87h1.21v2.95L21,25.37a11.89,11.89,0,0,1-5.14-.13,17.38,17.38,0,0,1-3.52.36h-.73a13.47,13.47,0,0,0,7.13,2,14,14,0,0,0,2.05-.15l5.82,4.06V25.08a11.49,11.49,0,0,0,4.92-9.32,11.64,11.64,0,0,0-5.88-9.94M9.38,21.15,6.89,22.64V20.05A9.65,9.65,0,0,1,2,11.8C2,6.36,6.82,2,12.8,2S23.63,6.36,23.63,11.8s-4.85,9.85-10.83,9.85a11.33,11.33,0,0,1-3.42-.5M25.6,11.82C25.6,5.29,19.87,0,12.8,0S0,5.29,0,11.82a11.51,11.51,0,0,0,4.92,9.32v5.45l4.72-3.3a14.05,14.05,0,0,0,3.16.36c7.07,0,12.8-5.3,12.8-11.83" fill="#1f2555"/></svg>