<svg version="1.1" id="b64e0344-ab16-4138-bad4-4b37bfe5adc6"
	 xmlns="http://www.w3.org/2000/svg" xmlns:xlink="http://www.w3.org/1999/xlink" x="0px" y="0px" viewBox="0 0 31.5 31.5"
	 enable-background="new 0 0 31.5 31.5" xml:space="preserve">
<path id="f14c0f1b-10f0-40a1-8e58-c49ec9e38fee" d="M25.6,5.8C26.4,7,27,8.3,27.3,9.7c1.4,1.7,2.2,3.8,2.3,6
	c-0.1,3.9-2.5,7.4-6.1,8.9h1.2v3L21,25.4c-1.7,0.3-3.5,0.3-5.1-0.1c-1.2,0.2-2.3,0.4-3.5,0.4h-0.7c2.1,1.3,4.6,2,7.1,2
	c0.7,0,1.4,0,2-0.1l5.8,4.1v-6.4c3.1-2.1,4.9-5.6,4.9-9.3C31.5,11.6,29.2,7.9,25.6,5.8 M9.4,21.1l-2.5,1.5V20
	c-3-1.7-4.8-4.8-4.9-8.2C2,6.4,6.8,2,12.8,2s10.8,4.4,10.8,9.8s-4.9,9.9-10.8,9.9C11.6,21.7,10.5,21.5,9.4,21.1 M25.6,11.8
	C25.6,5.3,19.9,0,12.8,0S0,5.3,0,11.8c0,3.7,1.9,7.2,4.9,9.3v5.5l4.7-3.3c1,0.2,2.1,0.4,3.2,0.4C19.9,23.6,25.6,18.3,25.6,11.8"/>
</svg>
