<svg version="1.1" id="bfd02e73-7823-413f-9c6f-647debc73372"
	 xmlns="http://www.w3.org/2000/svg" xmlns:xlink="http://www.w3.org/1999/xlink" x="0px" y="0px" viewBox="0 0 32 32"
	 enable-background="new 0 0 32 32" xml:space="preserve">
<path id="f486df4c-8ab0-4e46-b3a8-ee6f6d116b7e" fill="#1f2555" fill-rule="evenodd" clip-rule="evenodd" d="M16,30C8.3,30,2,23.7,2,16S8.3,2,16,2
	s14,6.3,14,14S23.7,30,16,30z M16,0C7.2,0,0,7.2,0,16s7.2,16,16,16s16-7.2,16-16S24.8,0,16,0z M16,6C10.5,6,6,10.5,6,16h2
	c0-4.4,3.6-8,8-8s8,3.6,8,8h2C26,10.5,21.5,6,16,6z M14,25h2v-2h-2V25z M20.5,14.1c-0.5-0.3-1.1-0.1-1.4,0.3c0,0,0,0,0,0.1L15.5,21
	H15c-1.7,0-3,1.3-3,3s1.3,3,3,3s3-1.3,3-3c0-0.7-0.3-1.5-0.8-2l3.6-6.5C21.1,15,21,14.4,20.5,14.1C20.5,14.1,20.5,14.1,20.5,14.1z"
	/>
</svg>
