<svg id="b5acd9f4-1c23-4dd4-8189-8a00ab935a9f" data-name="Layer 1" xmlns="http://www.w3.org/2000/svg" viewBox="0 0 32 24"><title>field service-gray</title><path id="bf1d1f91-84bc-46cd-b716-a761adc34707" data-name="Page-1" d="M30,20l-.8-4H22v2.1a4.14,4.14,0,0,1,1-.1,4.93,4.93,0,0,1,4,2Zm-8-6h6.8L28,10H22Zm4,9a3,3,0,0,0-5.1-2.1,3,3,0,1,0,4.2,4.2A2.88,2.88,0,0,0,26,23ZM10,23a2.88,2.88,0,0,0-.9-2.1,2.9,2.9,0,0,0-4.2,0,2.9,2.9,0,0,0,0,4.2,2.9,2.9,0,0,0,4.2,0A2.88,2.88,0,0,0,10,23Zm10-4V7a1.08,1.08,0,0,0-.3-.7A.91.91,0,0,0,19,6H3a.91.91,0,0,0-.7.3A1.08,1.08,0,0,0,2,7V19c0,.7.3,1,1,1a4.93,4.93,0,0,1,4-2,4.93,4.93,0,0,1,4,2h8a4.74,4.74,0,0,1,1-1Zm12,2a1.08,1.08,0,0,1-.3.7.91.91,0,0,1-.7.3H27.9a4.14,4.14,0,0,1,.1,1,4.54,4.54,0,0,1-1.5,3.5A4.85,4.85,0,0,1,23,28a4.69,4.69,0,0,1-3.5-1.5A4.85,4.85,0,0,1,18,23v-.2H12V23a4.54,4.54,0,0,1-1.5,3.5A4.85,4.85,0,0,1,7,28a4.69,4.69,0,0,1-3.5-1.5A4.85,4.85,0,0,1,2,23v-.2a2,2,0,0,1-1.4-.6A2,2,0,0,1,0,20.7V6.1A2,2,0,0,1,.6,4.6,2,2,0,0,1,2,4H20a2,2,0,0,1,1.4.6A2,2,0,0,1,22,6.1V8h7c.7,0,1,.3,1,1Z" transform="translate(0 -4)" fill="#1f2555" fill-rule="evenodd"/></svg>