<?xml version="1.0" encoding="utf-8"?>
<!-- Generator: Adobe Illustrator 24.0.3, SVG Export Plug-In . SVG Version: 6.00 Build 0)  -->
<svg version="1.1" id="b5acd9f4-1c23-4dd4-8189-8a00ab935a9f"
	 xmlns="http://www.w3.org/2000/svg" xmlns:xlink="http://www.w3.org/1999/xlink" x="0px" y="0px" viewBox="0 0 32 24"
	 enable-background="new 0 0 32 24" xml:space="preserve">
<path id="bf1d1f91-84bc-46cd-b716-a761adc34707" fill-rule="evenodd" clip-rule="evenodd" d="M30,16l-0.8-4H22v2.1
	c0.3-0.1,0.7-0.1,1-0.1c1.6,0,3.1,0.7,4,2H30z M22,10h6.8L28,6h-6V10z M26,19c0-1.7-1.4-3-3-3c-0.8,0-1.5,0.3-2.1,0.9
	c-1.3,1-1.6,2.9-0.6,4.2s2.9,1.6,4.2,0.6c0.2-0.2,0.4-0.4,0.6-0.6C25.7,20.6,26,19.8,26,19z M10,19c0-0.8-0.3-1.6-0.9-2.1
	C8,15.7,6.2,15.7,5,16.8c0,0-0.1,0.1-0.1,0.1C3.7,18,3.7,19.8,4.8,21c0,0,0.1,0.1,0.1,0.1C6,22.3,7.8,22.3,9,21.2
	c0,0,0.1-0.1,0.1-0.1C9.7,20.6,10,19.8,10,19z M20,15V3c0-0.3-0.1-0.5-0.3-0.7C19.5,2.1,19.3,2,19,2H3C2.7,2,2.5,2.1,2.3,2.3
	C2.1,2.5,2,2.7,2,3v12c0,0.7,0.3,1,1,1c0.9-1.3,2.4-2,4-2c1.6,0,3.1,0.7,4,2h8C19.3,15.6,19.6,15.3,20,15z M32,17
	c0,0.3-0.1,0.5-0.3,0.7C31.5,17.9,31.3,18,31,18h-3.1c0.1,0.3,0.1,0.7,0.1,1c0,1.3-0.5,2.6-1.5,3.5c-0.9,1-2.2,1.5-3.5,1.5
	c-1.3,0-2.6-0.5-3.5-1.5c-1-0.9-1.5-2.2-1.5-3.5v-0.2h-6V19c0,1.3-0.5,2.6-1.5,3.5C9.6,23.5,8.3,24,7,24c-1.3,0-2.6-0.5-3.5-1.5
	C2.5,21.6,2,20.3,2,19v-0.2c-0.5,0-1-0.2-1.4-0.6C0.2,17.8,0,17.3,0,16.7V2.1C0,1.5,0.2,1,0.6,0.6C1,0.2,1.5,0,2,0h18
	c0.5,0,1,0.2,1.4,0.6C21.8,1,22,1.5,22,2.1V4h7c0.7,0,1,0.3,1,1L32,17z"/>
</svg>
