<svg version="1.1" id="a91df270-3133-42f8-b9a0-9d72e21ef072"
	 xmlns="http://www.w3.org/2000/svg" xmlns:xlink="http://www.w3.org/1999/xlink" x="0px" y="0px" viewBox="0 0 32 32"
	 enable-background="new 0 0 32 32" xml:space="preserve">
<path fill-rule="evenodd" clip-rule="evenodd" d="M30.3,8.8H28c1.3,2.2,2,4.7,2,7.2c0,7.7-6.3,14-14,14S2,23.7,2,16S8.3,2,16,2
	c2.6,0,5.2,0.7,7.4,2.1V1.8C21.1,0.6,18.6,0,16,0C7.2,0,0,7.2,0,16s7.2,16,16,16s16-7.2,16-16C32,13.5,31.4,11,30.3,8.8z M16,8
	c1.1,0,2.1,0.2,3.1,0.6l1.5-1.5C19.2,6.4,17.6,6,16,6C10.5,6,6,10.5,6,16s4.5,10,10,10s10-4.5,10-10c0-1.6-0.4-3.3-1.2-4.7l-1.5,1.5
	c0.4,1,0.7,2.1,0.7,3.2c0,4.4-3.6,8-8,8s-8-3.6-8-8S11.6,8,16,8z M16,13.5c-1.4,0-2.5,1.1-2.5,2.5s1.1,2.5,2.5,2.5s2.5-1.1,2.5-2.5
	c0-0.3-0.1-0.6-0.2-0.9L25.4,8H30V6h-2.6l1.8-1.8l-1.4-1.4L26,4.5V2h-2v4.6l-7.1,7.1C16.6,13.6,16.3,13.5,16,13.5z M16.1,16.5
	C16,16.5,16,16.5,16.1,16.5c-0.3,0-0.6-0.2-0.6-0.5c0-0.3,0.2-0.5,0.5-0.5c0.3,0,0.5,0.2,0.5,0.5C16.5,16.3,16.3,16.5,16.1,16.5z"/>
</svg>
