<?xml version="1.0" encoding="utf-8"?>
<!-- Generator: Adobe Illustrator 24.0.3, SVG Export Plug-In . SVG Version: 6.00 Build 0)  -->
<svg version="1.1" id="a6b4ccad-a696-44ea-8113-b4e3458e286f"
	 xmlns="http://www.w3.org/2000/svg" xmlns:xlink="http://www.w3.org/1999/xlink" x="0px" y="0px" viewBox="0 0 31.9 28"
	 enable-background="new 0 0 31.9 28" xml:space="preserve">
<path id="a1496b46-795c-4192-8669-54cedbdf56d8" fill-rule="evenodd" clip-rule="evenodd" d="M30,21c0,0.5-0.4,1-0.9,1
	c0,0-0.1,0-0.1,0l-3-0.5v-17L29,4c0.5,0,1,0.4,1,0.9c0,0,0,0.1,0,0.1V21z M3,18c-0.5,0-1-0.4-1-0.9c0,0,0-0.1,0-0.1V9
	c0-0.5,0.4-1,0.9-1C2.9,8,3,8,3,8l21-3.2v16.5L3,18z M14,25.8l-6-1.5v-3.4l6,0.9V25.8z M30,0v2L2,6C0.9,6,0,6.9,0,8v10
	c0,1.1,0.9,2,2,2l4,0.6V25c0,0.5,0.4,1,0.9,1c0,0,0.1,0,0.1,0l0,0l7.7,2h0.5c0.4-0.1,0.7-0.5,0.7-0.9v-5l14,2v2h2V0H30z"/>
</svg>
