<?xml version="1.0" encoding="UTF-8" standalone="no"?>
<svg width="32px" height="32px" viewBox="0 0 32 32" version="1.1" xmlns="http://www.w3.org/2000/svg" xmlns:xlink="http://www.w3.org/1999/xlink">
    <!-- Generator: Sketch 47.1 (45422) - http://www.bohemiancoding.com/sketch -->
    <title>Icon/product/CRM/Marketing-gray</title>
    <desc>Created with Sketch.</desc>
    <defs></defs>
    <g id="Symbols" stroke="none" stroke-width="1" fill="none" fill-rule="evenodd">
        <g id="Icon/product/CRM/Marketing-gray" fill="#1F2555">
            <path d="M30.271,8.75 L27.96,8.75 C29.261,10.86 30,13.35 30,16 C30,23.73 23.731,30 16,30 C8.271,30 2,23.73 2,16 C2,8.27 8.271,2 16,2 C18.701,2 21.221,2.77 23.361,4.1 L23.361,1.79 C21.161,0.64 18.651,0 16,0 C7.161,0 0,7.16 0,16 C0,24.84 7.161,32 16,32 C24.831,32 32,24.84 32,16 C32,13.39 31.38,10.93 30.271,8.75" id="Fill-1"></path>
            <path d="M16.0005,8 C17.0805,8 18.1105,8.21 19.0615,8.61 L20.5615,7.11 C19.1905,6.4 17.6415,6 16.0005,6 C10.4715,6 6.0005,10.48 6.0005,16 C6.0005,21.52 10.4715,26 16.0005,26 C21.5215,26 26.0005,21.52 26.0005,16 C26.0005,14.31 25.5805,12.72 24.8415,11.32 L23.3415,12.82 C23.7615,13.79 24.0005,14.87 24.0005,16 C24.0005,20.42 20.4205,24 16.0005,24 C11.5805,24 8.0005,20.42 8.0005,16 C8.0005,11.58 11.5805,8 16.0005,8" id="Fill-4"></path>
            <path d="M15.9976,16.499 C15.7226,16.499 15.4976,16.275 15.4976,15.999 C15.4976,15.723 15.7226,15.499 15.9976,15.499 C16.2726,15.499 16.4976,15.723 16.4976,15.999 C16.4976,16.275 16.2726,16.499 15.9976,16.499 L15.9976,16.499 Z M16.8726,13.666 C16.5996,13.562 16.3066,13.499 15.9976,13.499 C14.6186,13.499 13.4976,14.621 13.4976,15.999 C13.4976,17.377 14.6186,18.499 15.9976,18.499 C17.3766,18.499 18.4976,17.377 18.4976,15.999 C18.4976,15.666 18.4296,15.348 18.3106,15.057 L25.4156,7.952 L30.0016,7.952 L30.0016,5.952 L27.4156,5.952 L29.2086,4.159 L27.7946,2.745 L26.0016,4.538 L26.0016,1.952 L24.0016,1.952 L24.0016,6.538 L16.8726,13.666 Z" id="Fill-6"></path>
        </g>
    </g>
</svg>