<svg id="a91df270-3133-42f8-b9a0-9d72e21ef072" data-name="Layer 1" xmlns="http://www.w3.org/2000/svg" viewBox="0 0 32 32"><title>marketing-gray</title><path id="b0b05ac9-f7ca-4bf6-bd30-89ebb7d6946b" data-name="Fill-1" d="M30.3,8.8H28A13.68,13.68,0,0,1,30,16,14,14,0,1,1,16,2a14.48,14.48,0,0,1,7.4,2.1V1.8A15.29,15.29,0,0,0,16,0,16,16,0,1,0,32,16a15.6,15.6,0,0,0-1.7-7.2" fill="#1f2555" fill-rule="evenodd"/><path id="bd4cff33-2d53-450f-805c-0c58e4d2b40c" data-name="Fill-4" d="M16,8a8.15,8.15,0,0,1,3.1.6l1.5-1.5A10.39,10.39,0,0,0,16,6,10,10,0,1,0,26,16a9.39,9.39,0,0,0-1.2-4.7l-1.5,1.5A8.76,8.76,0,0,1,24,16a8,8,0,1,1-8-8" fill="#1f2555" fill-rule="evenodd"/><path id="ae3521bd-5403-4af9-9f34-975ba17ae442" data-name="Fill-6" d="M16,16.5a.5.5,0,1,1,.5-.5.47.47,0,0,1-.5.5Zm.9-2.8a2.92,2.92,0,0,0-.9-.2A2.5,2.5,0,1,0,18.5,16a2.39,2.39,0,0,0-.2-.9L25.4,8H30V6H27.4l1.8-1.8L27.8,2.8,26,4.5V2H24V6.6Z" fill="#1f2555" fill-rule="evenodd"/></svg>