<svg version="1.1" id="b6ee4272-1dd7-4151-80d2-1f9bd915715e"
	 xmlns="http://www.w3.org/2000/svg" xmlns:xlink="http://www.w3.org/1999/xlink" x="0px" y="0px" viewBox="0 0 32 31.8"
	 enable-background="new 0 0 32 31.8" xml:space="preserve">
<path fill-rule="evenodd" clip-rule="evenodd" d="M30,2H2v3.9h28V2z M30,0c0.5,0,1.1,0.2,1.4,0.6C31.7,1,31.9,1.5,32,2v3.9
	c0,0.5-0.2,1.1-0.6,1.4C31,7.7,30.5,7.9,30,7.9H2c-0.5,0-1.1-0.2-1.4-0.6C0.2,6.9,0,6.4,0,5.9V2c0-0.5,0.2-1,0.6-1.4
	C1,0.2,1.5,0,2,0H30z M26,14H6v3.9h20V14z M26,12c0.5,0,1.1,0.2,1.4,0.6c0.3,0.4,0.5,0.9,0.6,1.4v3.9c0,0.5-0.2,1.1-0.6,1.4
	c-0.4,0.3-0.9,0.5-1.4,0.6H6c-0.5,0-1.1-0.2-1.4-0.6C4.2,18.9,4,18.4,4,17.9V14c0-0.5,0.2-1,0.6-1.4C5,12.2,5.5,12,6,12H26z
	 M22,25.9H10v3.9h12V25.9z M22,23.9c0.5,0,1.1,0.2,1.4,0.6c0.3,0.4,0.5,0.9,0.6,1.4v3.9c0,1.1-0.9,2-2,2H10c-0.5,0-1.1-0.2-1.4-0.6
	c-0.3-0.4-0.5-0.8-0.6-1.3V26c0-0.5,0.2-1.1,0.6-1.4C9,24.3,9.5,24.1,10,24h12V23.9z"/>
</svg>
