<svg id="b6ee4272-1dd7-4151-80d2-1f9bd915715e" data-name="Layer 1" xmlns="http://www.w3.org/2000/svg" viewBox="0 0 32 31.8"><title>sales automation</title><path d="M30,2H2V5.9H30Zm0-2a1.68,1.68,0,0,1,1.4.6A2.51,2.51,0,0,1,32,2V5.9a1.68,1.68,0,0,1-.6,1.4,2.25,2.25,0,0,1-1.4.6H2A1.68,1.68,0,0,1,.6,7.3,2.25,2.25,0,0,1,0,5.9V2A2,2,0,0,1,.6.6,1.82,1.82,0,0,1,2,0ZM26,14H6v3.9H26Zm0-2a1.68,1.68,0,0,1,1.4.6A2.51,2.51,0,0,1,28,14v3.9a1.68,1.68,0,0,1-.6,1.4,2.51,2.51,0,0,1-1.4.6H6a1.68,1.68,0,0,1-1.4-.6A2.25,2.25,0,0,1,4,17.9V14a2,2,0,0,1,.6-1.4A1.82,1.82,0,0,1,6,12ZM22,25.9H10v3.9H22Zm0-2a1.68,1.68,0,0,1,1.4.6,2.51,2.51,0,0,1,.6,1.4v3.9a2.05,2.05,0,0,1-2,2H10a1.68,1.68,0,0,1-1.4-.6A2.23,2.23,0,0,1,8,29.9V26a1.68,1.68,0,0,1,.6-1.4A2.51,2.51,0,0,1,10,24H22Z" fill="#1f2555" fill-rule="evenodd"/></svg>