<?xml version="1.0" standalone="no"?>
<!DOCTYPE svg PUBLIC "-//W3C//DTD SVG 20010904//EN"
 "http://www.w3.org/TR/2001/REC-SVG-20010904/DTD/svg10.dtd">
<svg version="1.0" xmlns="http://www.w3.org/2000/svg"
 width="400.000000pt" height="400.000000pt" viewBox="0 0 400.000000 400.000000"
 preserveAspectRatio="xMidYMid meet">
<metadata>
Created by potrace 1.11, written by Peter Selinger 2001-2013
</metadata>
<g transform="translate(0.000000,400.000000) scale(0.100000,-0.100000)"
fill="#000000" stroke="none">
<path d="M1905 3814 c-28 -15 -104 -58 -170 -97 -139 -81 -281 -164 -310 -180
-24 -13 -461 -265 -640 -369 -71 -41 -175 -101 -230 -133 -120 -68 -140 -86
-160 -139 -14 -36 -15 -144 -13 -912 l3 -871 27 -35 c23 -30 134 -103 263
-174 97 -53 149 -83 295 -169 85 -51 182 -107 215 -125 33 -18 74 -42 90 -52
17 -10 37 -21 45 -25 8 -4 58 -33 112 -64 53 -32 138 -81 190 -110 51 -28 143
-82 203 -118 103 -62 114 -66 170 -66 53 0 68 5 135 46 41 25 82 48 90 52 8 4
33 18 55 32 22 14 51 31 65 37 14 7 93 53 175 101 140 83 238 140 360 207 28
15 82 46 120 70 39 24 138 81 220 128 222 125 317 183 343 206 53 48 52 22 52
953 0 777 -2 867 -16 896 -29 58 -35 62 -213 163 -32 18 -115 66 -391 227 -47
27 -105 61 -130 75 -25 14 -83 48 -130 75 -47 27 -168 97 -270 155 -102 58
-213 123 -248 144 -177 108 -219 118 -307 72z m613 -410 c39 -27 44 -57 21
-126 -11 -35 -24 -76 -29 -93 -14 -51 -76 -243 -129 -395 -112 -326 -141 -412
-141 -420 0 -4 130 -5 288 -2 315 5 355 1 373 -45 15 -40 10 -68 -18 -105 -32
-41 -224 -270 -233 -278 -6 -5 -182 -212 -290 -340 -25 -29 -49 -58 -55 -64
-5 -6 -43 -51 -84 -101 -41 -49 -82 -97 -90 -106 -16 -16 -46 -51 -161 -189
-34 -41 -78 -93 -99 -115 -20 -22 -64 -74 -98 -116 -66 -81 -92 -95 -143 -77
-26 8 -50 44 -50 71 0 7 34 114 76 237 41 124 86 259 99 300 13 41 51 155 84
253 34 98 61 180 61 183 0 2 -139 4 -309 4 -297 0 -309 1 -335 21 -19 15 -26
30 -26 56 0 38 12 55 165 233 50 58 110 130 135 160 25 30 47 57 50 60 16 15
134 154 175 205 26 33 64 78 84 100 20 22 72 83 115 135 44 52 82 97 85 100 4
3 17 18 29 34 12 15 41 50 64 76 24 26 61 69 83 96 42 51 100 117 125 144 8 9
31 35 50 59 49 61 87 74 128 45z m-750 -506 c7 -7 12 -24 12 -40 0 -20 -8 -31
-30 -43 -16 -8 -34 -15 -40 -15 -25 0 -141 -57 -210 -103 -112 -75 -232 -228
-277 -352 -38 -106 -53 -183 -53 -287 0 -96 -2 -108 -19 -118 -61 -32 -81 -2
-81 123 0 222 89 441 244 601 48 50 154 135 186 149 8 4 30 16 49 28 48 29
150 65 192 68 8 1 20 -4 27 -11z m-593 -1014 c24 -24 15 -66 -18 -84 -27 -14
-29 -14 -48 9 -23 28 -24 54 -3 75 20 21 48 20 69 0z"/>
</g>
</svg>
