<?xml version="1.0" encoding="UTF-8" standalone="no"?>
<svg width="32px" height="32px" viewBox="0 0 32 32" version="1.1" xmlns="http://www.w3.org/2000/svg" xmlns:xlink="http://www.w3.org/1999/xlink">
    <!-- Generator: Sketch 46.2 (44496) - http://www.bohemiancoding.com/sketch -->
    <title>Icon/product/Platform/Cloud</title>
    <desc>Created with Sketch.</desc>
    <defs></defs>
    <g id="Symbols" stroke="none" stroke-width="1" fill="none" fill-rule="evenodd">
        <g id="Icon/product/Platform/Cloud" fill="#1F2555">
            <g id="Page-1" transform="translate(0.000000, 4.000000)">
                <path d="M23,21.97435 L23,21.99935 L9,21.99935 C5.1345,21.99935 2,18.86585 2,14.99885 C2,11.13435 5.1345,7.99885 9,7.99885 C9.0265,7.99885 9.052,8.00285 9.079,8.00285 C9.5635,4.61035 12.4735,1.99885 16,1.99885 C19.1745,1.99885 21.8515,4.11385 22.709,7.00985 C26.7535,7.12185 30,10.42885 30,14.49935 C30,18.47335 26.908,21.71585 23,21.97435 M24.125,5.14885 C22.681,2.10835 19.591,-0.00015 16,-0.00015 C12.031,-0.00015 8.6685,2.57285 7.472,6.13885 C3.231,6.86585 0,10.55085 0,14.99885 C0,19.97035 4.03,23.99985 9,23.99985 L23,23.99985 L23,23.97485 C28.013,23.71335 32,19.57735 32,14.49935 C32,9.80785 28.596,5.92135 24.125,5.14885" id="Fill-1"></path>
            </g>
        </g>
    </g>
</svg>