<?xml version="1.0" encoding="UTF-8" standalone="no"?>
<svg width="32px" height="32px" viewBox="0 0 32 32" version="1.1" xmlns="http://www.w3.org/2000/svg" xmlns:xlink="http://www.w3.org/1999/xlink">
    <!-- Generator: Sketch 46.2 (44496) - http://www.bohemiancoding.com/sketch -->
    <title>Icon/product/Platform/Mobility</title>
    <desc>Created with Sketch.</desc>
    <defs></defs>
    <g id="Symbols" stroke="none" stroke-width="1" fill="none" fill-rule="evenodd">
        <g id="Icon/product/Platform/Mobility" fill="#1F2555">
            <path d="M16,24 C14.8955,24 14,24.8955 14,26.0005 C14,27.104 14.8955,27.999 16,27.999 C17.1045,27.999 18,27.104 18,26.0005 C18,24.8955 17.1045,24 16,24 L16,24 Z M24,27.999 C24,29.1035 23.105,30 22,30 L10,30 C8.8955,30 8,29.1035 8,27.999 L8,3.9995 C8,2.8945 8.8955,1.999 10,1.999 L22,1.999 C23.105,1.999 24,2.8945 24,3.9995 L24,27.999 Z M22,0 L10,0 C7.791,0 6,1.79 6,3.9995 L6,27.999 C6,30.208 7.791,32 10,32 L22,32 C24.2095,32 26,30.208 26,27.999 L26,3.9995 C26,1.79 24.2095,0 22,0 L22,0 Z" id="Page-1"></path>
        </g>
    </g>
</svg>