<?xml version="1.0" encoding="UTF-8" standalone="no"?>
<svg width="24px" height="24px" viewBox="0 0 24 24" version="1.1" xmlns="http://www.w3.org/2000/svg" xmlns:xlink="http://www.w3.org/1999/xlink">
    <!-- Generator: Sketch 46.2 (44496) - http://www.bohemiancoding.com/sketch -->
    <title>Icon/utility/Indigo/24px/arrow-left</title>
    <desc>Created with Sketch.</desc>
    <defs></defs>
    <g id="Symbols" stroke="none" stroke-width="1" fill="none" fill-rule="evenodd">
        <g id="Icon/utility/Indigo/24px/arrow-left">
            <rect id="Rectangle-6" x="0" y="0" width="24" height="24"></rect>
            <path d="M20.917,12.37825 C20.955,12.26625 20.98,12.16625 20.986,12.06025 L20.986,11.95525 C20.98,11.81925 20.955,11.71925 20.917,11.62525 C20.873,11.51325 20.817,11.43225 20.755,11.35125 C20.725,11.31525 20.712,11.30225 20.7,11.29025 L14.7,5.29025 C14.313,4.90325 13.675,4.90325 13.287,5.29025 C12.899,5.67725 12.9,6.31525 13.287,6.70325 L17.581,10.99725 L4,10.99725 C3.45,10.99725 3,11.44725 3,11.99725 C3,12.54725 3.45,12.99725 4,12.99725 L17.587,12.99725 L13.293,17.29125 C12.906,17.67825 12.906,18.31625 13.293,18.70425 C13.487,18.89825 13.743,18.99825 13.999,18.99825 C14.255,18.99825 14.512,18.89825 14.705,18.70425 L20.699,12.71025 C20.718,12.68525 20.73,12.66625 20.743,12.65425 C20.83,12.54725 20.879,12.46625 20.917,12.37825 Z" id="Fill-1" fill="#1F2555"></path>
        </g>
    </g>
</svg>