<?xml version="1.0" encoding="UTF-8" standalone="no"?>
<svg width="24px" height="24px" viewBox="0 0 24 24" version="1.1" xmlns="http://www.w3.org/2000/svg" xmlns:xlink="http://www.w3.org/1999/xlink">
    <!-- Generator: Sketch 46.2 (44496) - http://www.bohemiancoding.com/sketch -->
    <title>Icon/utility/Indigo/24px/More</title>
    <desc>Created with Sketch.</desc>
    <defs></defs>
    <g id="Symbols" stroke="none" stroke-width="1" fill="none" fill-rule="evenodd">
        <g id="Icon/utility/Indigo/24px/More">
            <rect id="Rectangle-6" x="0" y="0" width="24" height="24"></rect>
            <g id="Page-1" transform="translate(2.000000, 10.000000)" fill="#1F2555">
                <path d="M12.0694,2 C12.0694,3.104 11.1734,4 10.0694,4 C8.9654,4 8.0694,3.104 8.0694,2 C8.0694,0.896 8.9654,0 10.0694,0 C11.1734,0 12.0694,0.896 12.0694,2" id="Fill-1"></path>
                <path d="M4.0001,2 C4.0001,3.104 3.1041,4 2.0001,4 C0.8961,4 0.0001,3.104 0.0001,2 C0.0001,0.896 0.8961,0 2.0001,0 C3.1041,0 4.0001,0.896 4.0001,2" id="Fill-3"></path>
                <path d="M20.1388,2 C20.1388,3.104 19.2428,4 18.1388,4 C17.0348,4 16.1388,3.104 16.1388,2 C16.1388,0.896 17.0348,0 18.1388,0 C19.2428,0 20.1388,0.896 20.1388,2" id="Fill-5"></path>
            </g>
        </g>
    </g>
</svg>