<?xml version="1.0" encoding="UTF-8" standalone="no"?>
<svg width="32px" height="32px" viewBox="0 0 32 32" version="1.1" xmlns="http://www.w3.org/2000/svg" xmlns:xlink="http://www.w3.org/1999/xlink">
    <!-- Generator: Sketch 46.2 (44496) - http://www.bohemiancoding.com/sketch -->
    <title>Icon/Industry/Energy</title>
    <desc>Created with Sketch.</desc>
    <defs></defs>
    <g id="Symbols" stroke="none" stroke-width="1" fill="none" fill-rule="evenodd">
        <g id="Icon/Industry/Energy" fill="#1F2555">
            <g id="Page-1" transform="translate(3.000000, 0.000000)">
                <path d="M3.7822,14.9996 L9.7222,14.9996 C10.0182,14.9996 10.3012,15.1276 10.4962,15.3516 C10.6902,15.5746 10.7792,15.8706 10.7392,16.1646 L9.0632,28.4736 L22.2702,17.0526 L16.3302,17.0526 C16.0342,17.0526 15.7522,16.9236 15.5562,16.7006 C15.3622,16.4776 15.2732,16.1816 15.3132,15.8876 L16.9892,3.5796 L3.7822,14.9996 Z M7.6802,32.0526 C7.5132,32.0526 7.3452,32.0116 7.1912,31.9286 C6.8162,31.7246 6.6062,31.3106 6.6642,30.8876 L8.5472,17.0526 L1.0262,17.0526 C0.5972,17.0526 0.2142,16.7856 0.0642,16.3836 C-0.0848,15.9826 0.0312,15.5296 0.3552,15.2496 L17.7022,0.2496 C18.0242,-0.0294 18.4862,-0.0794 18.8622,0.1236 C19.2372,0.3276 19.4472,0.7416 19.3892,1.1646 L17.5062,14.9996 L25.0262,14.9996 C25.4552,14.9996 25.8392,15.2666 25.9882,15.6676 C26.1372,16.0696 26.0212,16.5216 25.6972,16.8026 L8.3512,31.8026 C8.1612,31.9676 7.9222,32.0526 7.6802,32.0526 L7.6802,32.0526 Z" id="Fill-1"></path>
            </g>
        </g>
    </g>
</svg>