<?xml version="1.0" encoding="UTF-8" standalone="no"?>
<svg width="32px" height="32px" viewBox="0 0 32 32" version="1.1" xmlns="http://www.w3.org/2000/svg" xmlns:xlink="http://www.w3.org/1999/xlink">
    <!-- Generator: Sketch 46.2 (44496) - http://www.bohemiancoding.com/sketch -->
    <title>Icon/Industry/Insurance</title>
    <desc>Created with Sketch.</desc>
    <defs></defs>
    <g id="Symbols" stroke="none" stroke-width="1" fill="none" fill-rule="evenodd">
        <g id="Icon/Industry/Insurance" fill="#1F2555">
            <path d="M2,16.001 C2,8.27 8.269,2.001 16,2.001 C23.732,2.001 30,8.27 30,16.001 L2,16.001 Z M16,0.001 C7.164,0.001 0,7.165 0,16.001 L0,18.001 L0.139,18.001 L2.159,18.001 L14,18.001 L14,26.001 C14,29.314 16.687,32.001 20,32.001 C23.314,32.001 26,29.314 26,26.001 L24,26.001 C24,28.21 22.21,30.001 20,30.001 C17.791,30.001 16,28.21 16,26.001 L16,18.001 L29.841,18.001 L31.862,18.001 L32,18.001 L32,16.001 C32,7.165 24.837,0.001 16,0.001 L16,0.001 Z" id="Page-1"></path>
        </g>
    </g>
</svg>