<svg version="1.1" id="Layer_1" xmlns="http://www.w3.org/2000/svg" xmlns:xlink="http://www.w3.org/1999/xlink" x="0px" y="0px"
	 viewBox="0 0 18 14" enable-background="new 0 0 18 14" xml:space="preserve">
<path fill="#1f2555" d="M0.1,7.4C0,7.3,0,7.2,0,7.1V7c0-0.1,0-0.2,0.1-0.3c0-0.1,0.1-0.2,0.2-0.3c0,0,0,0,0.1-0.1l6-6
	c0.4-0.4,1-0.4,1.4,0c0.4,0.4,0.4,1,0,1.4L3.4,6H17c0.5,0,1,0.5,1,1c0,0.6-0.5,1-1,1H3.4l4.3,4.3c0.4,0.4,0.4,1,0,1.4
	C7.5,13.9,7.3,14,7,14s-0.5-0.1-0.7-0.3l-6-6c0,0,0,0,0-0.1C0.2,7.5,0.1,7.5,0.1,7.4z"/>
</svg>
