<svg version="1.1" id="Layer_1" xmlns="http://www.w3.org/2000/svg" xmlns:xlink="http://www.w3.org/1999/xlink" x="0px" y="0px"
	 viewBox="0 0 24 24" enable-background="new 0 0 24 24" xml:space="preserve">
<path fill="#1f2555" fill-rule="evenodd" clip-rule="evenodd" d="M5.4,5.5c0-0.4-0.3-0.7-0.7-0.7h-3C1.3,4.8,1,5.1,1,5.5C1,6,1.3,6.3,1.7,6.3h3
	C5.1,6.3,5.4,6,5.4,5.5z M23.1,5.5L23.1,5.5c0-0.2-0.1-0.3-0.2-0.5l0,0l0,0c0,0-0.1,0-0.1-0.1L19.9,2c-0.3-0.3-0.7-0.3-1,0
	s-0.3,0.7,0,1l1.7,1.7h-7.1c-0.1-1.6-1.4-2.9-3-2.9c-1.7,0-3,1.4-3,3v7.3L7.3,12c-1-1-2.7-1-3.7,0c-0.5,0.5-0.8,1.2-0.8,1.9
	s0.3,1.4,0.7,1.8l4.8,6.2c0.2,0.2,0.5,0.4,0.7,0.4s0.4-0.1,0.6-0.2c0.4-0.3,0.5-0.9,0.2-1.3l-4.9-6.3c-0.1-0.1-0.2-0.3-0.2-0.5
	s0.1-0.4,0.2-0.5C5.2,13,5.7,13,6,13.3l1.8,1.8c0.3,0.3,0.7,0.3,1,0.2s0.6-0.5,0.6-0.9V4.9c0-0.7,0.5-1.2,1.2-1.2s1.2,0.5,1.2,1.2
	V11c0,0.4,0.3,0.8,0.6,0.9l4.1,1.4c1.4,0.5,2.3,1.7,2.3,3.2v4.9c0,0.5,0.4,0.9,0.9,0.9s0.9-0.4,0.9-0.9v-4.9c0-2.2-1.4-4.2-3.5-4.9
	l-3.5-1.2v-4h7L18.9,8c-0.3,0.3-0.3,0.7,0,1s0.7,0.3,1,0l2.9-2.9c0,0,0.1,0,0.1-0.1l0,0l0,0C23.1,5.9,23.1,5.8,23.1,5.5
	C23.1,5.6,23.1,5.6,23.1,5.5C23.1,5.6,23.1,5.5,23.1,5.5L23.1,5.5z"/>
</svg>
