<svg version="1.1" id="Layer_1" xmlns="http://www.w3.org/2000/svg" xmlns:xlink="http://www.w3.org/1999/xlink" x="0px" y="0px"
	 viewBox="0 0 24 24" enable-background="new 0 0 24 24" xml:space="preserve">
<path fill-rule="evenodd" clip-rule="evenodd" d="M5.2,0v10.5H0v10.8c0,1.8,1.5,3.2,3.2,3.2h18c1.8,0,3.2-1.5,3.2-3.2V0H5.2z
	 M5.2,21.2c0,0.7-0.6,1.2-1.2,1.2H3.2c-0.7,0-1.2-0.6-1.2-1.2v-8.8h3.2V21.2z M22.5,21.2c0,0.7-0.6,1.2-1.2,1.2H7
	c0.2-0.4,0.3-0.8,0.3-1.2V2h15.2V21.2z M21.5,3H8.2v2h13.2V3H21.5z M21.5,15.8H8.2v2h13.2v-2H21.5z M21.5,18.8H8.2v2h13.2v-2H21.5z
	 M8.3,14.8h13.2V6H8.3V14.8z M10.3,8h9.2v4.8h-9.2V8z"/>
</svg>
