<svg version="1.1" id="Layer_1" xmlns="http://www.w3.org/2000/svg" xmlns:xlink="http://www.w3.org/1999/xlink" x="0px" y="0px"
	 viewBox="0 0 24 24" enable-background="new 0 0 24 24" xml:space="preserve">
<path fill="#1f2555" fill-rule="evenodd" clip-rule="evenodd" d="M13,2h-2C9.9,2,9,2.9,9,4v16c0,1.1,0.9,2,2,2h2c1.1,0,2-0.9,2-2V4
	C15,2.9,14.1,2,13,2z M13,20h-2V4h2V20z M21,7h-2c-1.1,0-2,0.9-2,2v11c0,1.1,0.9,2,2,2h2c1.1,0,2-0.9,2-2V9C23,7.9,22.1,7,21,7z
	 M21,20h-2V9h2V20z M5,12H3c-1.1,0-2,0.9-2,2v6c0,1.1,0.9,2,2,2h2c1.1,0,2-0.9,2-2v-6C7,12.9,6.1,12,5,12z M5,20H3v-6h2V20z"/>
</svg>
