<svg version="1.1" id="Layer_1" xmlns="http://www.w3.org/2000/svg" xmlns:xlink="http://www.w3.org/1999/xlink" x="0px" y="0px"
	 viewBox="0 0 24 24" enable-background="new 0 0 24 24" xml:space="preserve">
<path fill="#1f2555" fill-rule="evenodd" clip-rule="evenodd" d="M3,11h14c0.5,0,1-0.4,1-1c0-0.5-0.5-1-1-1H3c-0.5,0-1,0.5-1,1S2.5,11,3,11z M3,7
	h18c0.5,0,1-0.4,1-1c0-0.5-0.5-1-1-1H3C2.5,5,2,5.4,2,6C2,6.5,2.5,7,3,7z M21,13H3c-0.5,0-1,0.5-1,1c0,0.6,0.5,1,1,1h18
	c0.5,0,1-0.4,1-1S21.5,13,21,13z M17,17H3c-0.5,0-1,0.5-1,1c0,0.6,0.5,1,1,1h14c0.5,0,1-0.4,1-1S17.5,17,17,17z"/>
</svg>
