<svg version="1.1" id="Layer_1" xmlns="http://www.w3.org/2000/svg" xmlns:xlink="http://www.w3.org/1999/xlink" x="0px" y="0px"
	 viewBox="0 0 24 24" enable-background="new 0 0 24 24" xml:space="preserve">
<path fill-rule="evenodd" clip-rule="evenodd" d="M8.5,6C7.1,6,6,7.1,6,8.5C6,9.9,7.1,11,8.5,11S11,9.9,11,8.5C11,7.1,9.9,6,8.5,6z
	 M8.5,9C8.2,9,8,8.8,8,8.5S8.2,8,8.5,8S9,8.2,9,8.5S8.8,9,8.5,9z M19,2H5C3.3,2,2,3.3,2,5v14c0,1.6,1.3,3,3,3h14c1.7,0,3-1.3,3-3V5
	C22,3.3,20.7,2,19,2z M20,19c0,0.6-0.5,1-1,1H7.4l8.6-8.6l4,4V19z M20,12.6l-3.3-3.3c-0.4-0.4-1-0.4-1.4,0L4.6,19.9
	C4.3,19.8,4,19.4,4,19V5c0-0.5,0.5-1,1-1h14c0.5,0,1,0.5,1,1V12.6z"/>
</svg>
