<svg version="1.1" id="Layer_1" xmlns="http://www.w3.org/2000/svg" xmlns:xlink="http://www.w3.org/1999/xlink" x="0px" y="0px"
	 viewBox="0 0 24 24" enable-background="new 0 0 24 24" xml:space="preserve">
<path id="Fill-1" fill="#1f2555" fill-rule="evenodd" clip-rule="evenodd" d="M22.7,3.2l-1.9-1.9C20,0.4,19,0,17.8,0s-2.2,0.4-3,1.2l-2.1,2.1
	c-0.3,0.3-0.4,0.5-0.4,0.8c0,0.3,0.1,0.6,0.4,0.9c0.5,0.5,1.3,0.5,1.7,0l2.1-2.1c0.3-0.3,0.8-0.5,1.3-0.5s1,0.2,1.3,0.5l1.9,2
	c0.4,0.3,0.5,0.7,0.5,1.3c0,0.5-0.2,1-0.5,1.3L14.5,14c-0.4,0.4-0.8,0.6-1.5,0.6c-0.6,0-1-0.1-1.3-0.4L11,13.4l-0.7-0.7
	c-0.3-0.3-0.6-0.4-0.9-0.4c-0.3,0-0.6,0.2-0.8,0.4c-0.3,0.3-0.5,0.5-0.5,0.9c0,0.3,0.1,0.6,0.4,0.9L10,16v0.3h0.3
	c0.7,0.6,1.6,0.9,2.6,0.9c0.1,0,0.1,0,0.2,0c0.9,0,1.8-0.3,2.5-0.8l0.1,0.1L16,16l0.1-0.1l6.7-6.7c0.8-0.8,1.2-1.8,1.2-3
	S23.6,4,22.7,3.2 M11.3,18.9c0.3,0.3,0.5,0.6,0.5,0.9s-0.1,0.6-0.4,0.9l-2.1,2.1c-0.8,0.8-1.8,1.2-3,1.2c-1.1,0-2.1-0.4-3-1.2
	l-2.1-2.1c-0.8-0.8-1.2-1.9-1.2-3s0.4-2.1,1.2-2.9L8,8c0.8-0.8,1.8-1.3,3-1.3c1.1,0,2.1,0.4,2.9,1.2l1.6,1.6
	c0.3,0.2,0.4,0.5,0.4,0.8s-0.1,0.6-0.4,0.9c-0.5,0.5-1.2,0.4-1.7,0l-1.6-1.6C11.5,9,10.4,9,9.7,9.7l-6.8,6.8
	c-0.3,0.3-0.5,0.8-0.5,1.3s0.2,0.9,0.5,1.2L5,21.1c0.7,0.7,1.8,0.7,2.5,0L9.6,19c0.1-0.1,0.4-0.3,0.8-0.3
	C10.7,18.6,11,18.7,11.3,18.9"/>
</svg>
