<svg version="1.1" id="Layer_1" xmlns="http://www.w3.org/2000/svg" xmlns:xlink="http://www.w3.org/1999/xlink" x="0px" y="0px"
	 viewBox="0 0 24 24" enable-background="new 0 0 24 24" xml:space="preserve">
<path fill="#1f2555" fill-rule="evenodd" clip-rule="evenodd" d="M23,1H1C0.4,1,0,1.4,0,2s0.4,1,1,1l0,0l0,0v13c0,1.1,1,2,2.1,2h6.1l-2.1,3.5
	C7,21.7,7,22,7,22.3c0.1,0.3,0.2,0.5,0.5,0.6C8,23.1,8.6,23,8.9,22.5l2.7-4.5h0.9l2.7,4.5c0.2,0.3,0.5,0.5,0.9,0.5
	c0.2,0,0.3,0,0.5-0.1s0.4-0.3,0.5-0.6c0.1-0.3,0-0.5-0.1-0.8L14.8,18h6.1c1.2,0,2.1-0.9,2.1-2V3l0,0l0,0c0.6,0,1-0.4,1-1
	S23.6,1,23,1z M21,15.7c0,0.2-0.1,0.3-0.3,0.3H3.3C3.1,16,3,15.9,3,15.7V3.3C3,3.1,3.1,3,3.3,3h17.4C20.9,3,21,3.1,21,3.3V15.7z
	 M19,5L19,5c-0.3,0-0.5,0.1-0.7,0.3l-4.4,5.3L9.8,7.3l0,0l0,0H9.7c-0.4-0.4-1-0.4-1.4,0l-4.1,4.1c-0.4,0.4-0.4,1,0,1.4
	C4.5,12.9,4.7,13,5,13s0.5-0.1,0.7-0.3l3.4-3.4l4.2,3.4l0,0c0.2,0.2,0.4,0.3,0.7,0.3l0,0c0.3,0,0.5-0.1,0.8-0.4l4.9-5.9
	c0.4-0.4,0.4-1,0-1.4C19.5,5.1,19.2,5,19,5z"/>
</svg>
