<?xml version="1.0" encoding="utf-8"?>
<!-- Generator: Adobe Illustrator 24.0.3, SVG Export Plug-In . SVG Version: 6.00 Build 0)  -->
<svg version="1.1" id="Layer_1" xmlns="http://www.w3.org/2000/svg" xmlns:xlink="http://www.w3.org/1999/xlink" x="0px" y="0px"
	 viewBox="0 0 198 182" enable-background="new 0 0 198 182" xml:space="preserve">
<g>
	<path id="Path" fill-rule="evenodd" clip-rule="evenodd" fill="#FFCC4C" d="M72.8,49h52.5c1,0,1.8,0.8,1.8,1.8v31.5
		c0,1-0.8,1.8-1.8,1.8H72.8c-1,0-1.8-0.8-1.8-1.8V50.7C71,49.8,71.8,49,72.8,49z"/>
	<path id="Path_1_" fill-rule="evenodd" clip-rule="evenodd" fill="#FF6633" d="M1.1,78.8l16.7-28.9c0.3-0.5,0.9-0.9,1.5-0.9h36
		c1,0,1.8,0.8,1.8,1.8v31.5c0,1-0.8,1.8-1.8,1.8H4.1c-1.9,0-3.5-1.6-3.5-3.5C0.6,79.9,0.8,79.3,1.1,78.8z"/>
	<path id="Path_2_" fill-rule="evenodd" clip-rule="evenodd" fill="#E1E2EB" d="M141,82.2V50.7c0-1,0.8-1.8,1.8-1.8h36
		c0.6,0,1.2,0.3,1.5,0.9l16.7,28.9c1,1.7,0.4,3.8-1.3,4.8c-0.5,0.3-1.1,0.5-1.7,0.5h-51.2C141.8,84,141,83.2,141,82.2z"/>
	<path id="Path_3_" fill-rule="evenodd" clip-rule="evenodd" fill="#FF6633" d="M85,1.7v31.5c0,1-0.8,1.8-1.8,1.8H29.3
		c-1,0-1.8-0.8-1.8-1.8c0-0.3,0.1-0.6,0.2-0.9L42.5,7c2.5-4.3,7.1-7,12.1-7h28.7C84.2,0,85,0.8,85,1.7z"/>
	<path id="Path_4_" fill-rule="evenodd" clip-rule="evenodd" fill="#FFCC4C" d="M100.8,0h42.7c5,0,9.6,2.7,12.1,7l14.6,25.4
		c0.5,0.8,0.2,1.9-0.6,2.4c-0.3,0.2-0.6,0.2-0.9,0.2h-67.9c-1,0-1.8-0.8-1.8-1.8V1.7C99,0.8,99.8,0,100.8,0z"/>
	<path id="Path_5_" fill-rule="evenodd" clip-rule="evenodd" fill="#6C79D9" d="M42.5,175l-14.6-25.4c-0.5-0.8-0.2-1.9,0.6-2.4
		c0.3-0.2,0.6-0.2,0.9-0.2h67.9c1,0,1.8,0.8,1.8,1.8v31.5c0,1-0.8,1.8-1.8,1.8H54.6C49.6,182,45,179.3,42.5,175z"/>
	<path id="Path_6_" fill-rule="evenodd" clip-rule="evenodd" fill="#12B3B3" d="M114.8,147h53.9c1,0,1.8,0.8,1.8,1.8
		c0,0.3-0.1,0.6-0.2,0.9L155.5,175c-2.5,4.3-7.1,7-12.1,7h-28.7c-1,0-1.8-0.8-1.8-1.8v-31.5C113,147.8,113.8,147,114.8,147z"/>
	<path id="Path_7_" fill-rule="evenodd" clip-rule="evenodd" fill="#6C79D9" d="M71,99.7v31.5c0,1-0.8,1.8-1.8,1.8h-50
		c-0.6,0-1.2-0.3-1.5-0.9L1.1,103.2c-1-1.7-0.4-3.8,1.3-4.8C2.9,98.2,3.5,98,4.1,98h65.2C70.2,98,71,98.8,71,99.7z"/>
	<path id="Path_8_" fill-rule="evenodd" clip-rule="evenodd" fill="#12B3B3" d="M86.8,98h107.2c1.9,0,3.5,1.6,3.5,3.5
		c0,0.6-0.2,1.2-0.5,1.7l-16.7,28.9c-0.3,0.5-0.9,0.9-1.5,0.9h-92c-1,0-1.8-0.8-1.8-1.8V99.7C85,98.8,85.8,98,86.8,98z"/>
</g>
</svg>
