<svg version="1.1" id="Layer_1" xmlns="http://www.w3.org/2000/svg" xmlns:xlink="http://www.w3.org/1999/xlink" x="0px" y="0px"
	 viewBox="0 0 40 40" enable-background="new 0 0 40 40" xml:space="preserve">
<path fill="#1f2555" d="M20,0C9,0,0,9,0,20s9,20,20,20s20-9,20-20S31,0,20,0z M20,37.6c-9.7,0-17.6-7.9-17.6-17.6S10.3,2.4,20,2.4
	S37.6,10.3,37.6,20S29.7,37.6,20,37.6z M21.2,15.3h-2.4v10.1h2.4V15.3z M28.7,8h-2.4v17.4h2.4V8z M13.7,20.5h-2.4v4.9h2.4
	C13.7,25.4,13.7,20.5,13.7,20.5z M8.8,29.6h22.4v-2H8.8V29.6z"/>
</svg>
