<svg version="1.1" id="Layer_1" xmlns="http://www.w3.org/2000/svg" xmlns:xlink="http://www.w3.org/1999/xlink" x="0px" y="0px"
	 viewBox="0 0 24 24" enable-background="new 0 0 24 24" xml:space="preserve">
<path fill="#1f2555" d="M12,0.5C5.7,0.5,0.5,5.7,0.5,12S5.7,23.5,12,23.5c6.3,0,11.5-5.2,11.5-11.5S18.3,0.5,12,0.5z M12,20.5
	c-4.7,0-8.5-3.8-8.5-8.5S7.3,3.5,12,3.5c4.7,0,8.5,3.8,8.5,8.5S16.7,20.5,12,20.5z M16.4,7.5c-0.3,0-0.5,0.2-0.7,0.4l-5.3,5.2l-2-2
	c-0.4-0.4-1.1-0.4-1.5,0c-0.2,0.2-0.3,0.5-0.3,0.8c0,0.3,0.1,0.6,0.3,0.8l2.8,2.8c0.1,0.1,0.3,0.3,0.8,0.3c0.3,0,0.6-0.2,0.8-0.3
	l6.1-6.1c0.4-0.4,0.4-1.1,0-1.5C16.9,7.5,16.6,7.5,16.4,7.5z"/>
</svg>
