<?xml version="1.0" encoding="utf-8"?>
<!-- Generator: Adobe Illustrator 24.0.3, SVG Export Plug-In . SVG Version: 6.00 Build 0)  -->
<svg version="1.1" id="Layer_1" xmlns="http://www.w3.org/2000/svg" xmlns:xlink="http://www.w3.org/1999/xlink" x="0px" y="0px"
	 viewBox="0 0 22 22" enable-background="new 0 0 22 22" xml:space="preserve">
<path d="M11,0C4.9,0,0,4.9,0,11s4.9,11,11,11s11-4.9,11-11S17.1,0,11,0z M16.2,8.3l-6.1,6.1c-0.4,0.4-1.1,0.4-1.5,0l0,0l-2.8-2.8
	c-0.4-0.4-0.4-1.1,0-1.5l0,0c0.4-0.4,1.1-0.4,1.5,0l2,1.9l5.4-5.3c0.2-0.2,0.5-0.3,0.7-0.3l0,0c0.3,0,0.6,0.1,0.8,0.3
	C16.6,7.2,16.6,7.8,16.2,8.3C16.2,8.2,16.2,8.3,16.2,8.3L16.2,8.3z"/>
</svg>
