<?xml version="1.0" encoding="UTF-8" standalone="no"?>
<svg width="24px" height="24px" viewBox="0 0 24 24" version="1.1" xmlns="http://www.w3.org/2000/svg" xmlns:xlink="http://www.w3.org/1999/xlink">
    <!-- Generator: Sketch 46.2 (44496) - http://www.bohemiancoding.com/sketch -->
    <title>Icon/utility/Indigo/24px/Check-circle</title>
    <desc>Created with Sketch.</desc>
    <defs></defs>
    <g id="Symbols" stroke="none" stroke-width="1" fill="none" fill-rule="evenodd">
        <g id="Icon/utility/Indigo/24px/Check-circle">
            <rect id="Rectangle-6" x="0" y="0" width="24" height="24"></rect>
            <g id="Add" transform="translate(1.000000, 1.000000)" fill="#1F2555">
                <path d="M11,20 C6.038,20 2,15.962 2,11 C2,6.038 6.038,2 11,2 C15.962,2 20,6.038 20,11 C20,15.962 15.962,20 11,20 M11,0 C4.937,0 0,4.938 0,11 C0,17.062 4.938,22 11,22 C17.062,22 22,17.062 22,11 C22,4.938 17.062,0 11,0" id="Fill-1"></path>
            </g>
            <g id="Icon/utility/Indigo/12px/check" transform="translate(6.000000, 6.000000)">
                <path d="M10.0504487,2.16123449 L4.33211003,7.76856898 L1.94622847,5.49424714 C1.73124916,5.27926783 1.37739431,5.27926783 1.16185949,5.49424714 C0.945769174,5.70922646 0.946324676,6.06363681 1.16185949,6.27917162 L3.93937004,9.05668217 C4.04658195,9.16444958 4.18879049,9.21999979 4.33155453,9.21999979 C4.47376307,9.21999979 4.61652711,9.16444958 4.72318352,9.05668217 L10.8337067,2.94615897 C11.0531301,2.73117965 11.0531301,2.37676931 10.8337067,2.16123449 C10.6198384,1.94625517 10.2659836,1.94625517 10.0504487,2.16123449 Z" id="Fill-1" stroke="#1F2555" stroke-width="1" fill="#1F2555" fill-rule="evenodd"></path>
            </g>
        </g>
    </g>
</svg>