<?xml version="1.0" encoding="utf-8"?>
<!-- Generator: Adobe Illustrator 24.0.3, SVG Export Plug-In . SVG Version: 6.00 Build 0)  -->
<svg version="1.1" id="Layer_1" xmlns="http://www.w3.org/2000/svg" xmlns:xlink="http://www.w3.org/1999/xlink" x="0px" y="0px"
	 viewBox="0 0 22 22" enable-background="new 0 0 22 22" xml:space="preserve">
<path d="M11,0C4.9,0,0,4.9,0,11s4.9,11,11,11s11-4.9,11-11S17.1,0,11,0z M14.5,13.1c0.4,0.4,0.4,1,0,1.4l0,0c-0.4,0.4-1,0.4-1.4,0
	l0,0L11,12.4l-2.1,2.1c-0.4,0.4-1,0.4-1.4,0l0,0c-0.4-0.4-0.4-1,0-1.4l0,0L9.6,11L7.5,8.9c-0.4-0.4-0.4-1,0-1.4s1-0.4,1.4,0l0,0
	L11,9.6l2.1-2.1c0.4-0.4,1-0.4,1.4,0s0.4,1,0,1.4L12.4,11L14.5,13.1z"/>
</svg>
