<?xml version="1.0" encoding="utf-8"?>
<!-- Generator: Adobe Illustrator 24.0.3, SVG Export Plug-In . SVG Version: 6.00 Build 0)  -->
<svg version="1.1" id="Layer_1" xmlns="http://www.w3.org/2000/svg" xmlns:xlink="http://www.w3.org/1999/xlink" x="0px" y="0px"
	 viewBox="0 0 24 24" enable-background="new 0 0 24 24" xml:space="preserve">
<path fill-rule="evenodd" clip-rule="evenodd" d="M12,1C5.9,1,1,5.9,1,12s4.9,11,11,11s11-4.9,11-11S18.1,1,12,1z M12,21
	c-5,0-9-4-9-9s4-9,9-9s9,4,9,9S17,21,12,21z M15.5,8.5c-0.4-0.4-1-0.4-1.4,0L12,10.6L9.9,8.5c-0.4-0.4-1-0.4-1.4,0s-0.4,1,0,1.4
	l2.1,2.1l-2.1,2.1c-0.4,0.4-0.4,1,0,1.4s1,0.4,1.4,0l2.1-2.1l2.1,2.1c0.4,0.4,1,0.4,1.4,0s0.4-1,0-1.4L13.4,12l2.1-2.1
	C15.9,9.5,15.9,8.9,15.5,8.5z"/>
</svg>
