<?xml version="1.0" encoding="utf-8"?>
<!-- Generator: Adobe Illustrator 24.0.3, SVG Export Plug-In . SVG Version: 6.00 Build 0)  -->
<svg version="1.1" id="Layer_1" xmlns="http://www.w3.org/2000/svg" xmlns:xlink="http://www.w3.org/1999/xlink" x="0px" y="0px"
	 viewBox="0 0 24 24" enable-background="new 0 0 24 24" xml:space="preserve">
<path fill-rule="evenodd" clip-rule="evenodd" d="M18,3h-1c0-1.1-0.9-2-2-2H9C7.9,1,7,1.9,7,3H6C4.3,3,3,4.3,3,6v14c0,1.7,1.3,3,3,3
	h12c1.7,0,3-1.3,3-3V6C21,4.3,19.7,3,18,3z M9,3h6v2H9V3z M19,20c0,0.5-0.5,1-1,1H6c-0.5,0-1-0.5-1-1V6c0-0.5,0.5-1,1-1h1
	c0,1.1,0.9,2,2,2h6c1.1,0,2-0.9,2-2h1c0.5,0,1,0.5,1,1V20z M15,13h-2v-2c0-0.5-0.5-1-1-1s-1,0.5-1,1v2H9c-0.5,0-1,0.5-1,1s0.5,1,1,1
	h2v2c0,0.5,0.5,1,1,1s1-0.5,1-1v-2h2c0.5,0,1-0.5,1-1S15.5,13,15,13z"/>
</svg>
