<svg version="1.1" id="Layer_1" xmlns="http://www.w3.org/2000/svg" xmlns:xlink="http://www.w3.org/1999/xlink" x="0px" y="0px"
	 viewBox="0 0 25 17" enable-background="new 0 0 25 17" xml:space="preserve">
<path d="M21.3,0H3.7C1.7,0,0,1.6,0,3.6v9.8c0,2,1.7,3.6,3.7,3.6h17.6c2,0,3.7-1.6,3.7-3.6V3.6C25,1.6,23.3,0,21.3,0z M23.8,13.4
	c0,1.3-1.1,2.4-2.5,2.4H3.7c-1.4,0-2.5-1.1-2.5-2.4V9.8h22.6C23.8,9.8,23.8,13.4,23.8,13.4z M23.8,8.6H1.2V6.2h22.6
	C23.8,6.2,23.8,8.6,23.8,8.6z M23.8,5H1.2V3.6c0-1.3,1.1-2.4,2.5-2.4h17.6c1.4,0,2.5,1.1,2.5,2.4C23.8,3.6,23.8,5,23.8,5z"/>
</svg>
