<svg id="Layer_1" data-name="Layer 1" xmlns="http://www.w3.org/2000/svg" viewBox="0 0 32 32"><title>Dollar Open</title><path fill="#1f2555" d="M16,28.68A12.68,12.68,0,1,1,28.68,16,12.68,12.68,0,0,1,16,28.68ZM16,.5A15.5,15.5,0,1,0,31.5,16,15.5,15.5,0,0,0,16,.5Z"/><path fill="#1f2555" d="M20.64,18.23a3.58,3.58,0,0,1-3.32,3.58v2.12H14.68V21.81a3.72,3.72,0,0,1-3.32-3.39h2.26C13.7,19.33,14.8,20,16,20s2.11-.73,2.11-1.41-.6-1.13-2-1.41l-1.41-.27c-2.11-.49-3.13-1.56-3.13-3.31a3.52,3.52,0,0,1,3-3.39V8.07h2.65V10.3a3.64,3.64,0,0,1,3.13,3.31H18.11A1.92,1.92,0,0,0,16,12.05c-1.18,0-2,.48-2,1.41,0,.67.53,1.14,1.94,1.41l1.4.28C19.62,15.6,20.64,16.61,20.64,18.23Z"/></svg>
