<?xml version="1.0" encoding="utf-8"?>
<!-- Generator: Adobe Illustrator 24.0.3, SVG Export Plug-In . SVG Version: 6.00 Build 0)  -->
<svg version="1.1" id="Layer_1" xmlns="http://www.w3.org/2000/svg" xmlns:xlink="http://www.w3.org/1999/xlink" x="0px" y="0px"
	 viewBox="0 0 24 24" enable-background="new 0 0 24 24" xml:space="preserve">
<path fill-rule="evenodd" clip-rule="evenodd" d="M19,19.5H5c-0.5,0-1,0.4-1,1c0,0.5,0.4,1,1,1h14c0.5,0,1-0.4,1-1
	C20,20,19.6,19.5,19,19.5z M11.4,17.7c0.1,0.2,0.4,0.3,0.6,0.3c0.2,0,0.5-0.1,0.6-0.3l5.2-6.3c0.2-0.2,0.2-0.5,0.1-0.7
	s-0.4-0.4-0.7-0.4h-2.5V3H9.4v7.3H6.7c-0.3,0-0.5,0.2-0.7,0.4c0,0.1,0,0.2,0,0.3c0,0.2,0.1,0.3,0.2,0.4L11.4,17.7z"/>
</svg>
