<?xml version="1.0" encoding="utf-8"?>
<!-- Generator: Adobe Illustrator 24.0.3, SVG Export Plug-In . SVG Version: 6.00 Build 0)  -->
<svg version="1.1" id="Layer_1" xmlns="http://www.w3.org/2000/svg" xmlns:xlink="http://www.w3.org/1999/xlink" x="0px" y="0px"
	 viewBox="0 0 24 24" enable-background="new 0 0 24 24" xml:space="preserve">
<path id="Email" fill-rule="evenodd" clip-rule="evenodd" d="M20,19H4c-0.5,0-1-0.5-1-1V7.9l8.4,5.9c0.2,0.1,0.4,0.2,0.6,0.2
	s0.4-0.1,0.6-0.2L21,7.9V18C21,18.5,20.5,19,20,19L20,19z M4,5h16c0.4,0,0.7,0.2,0.9,0.6L12,11.8L3.1,5.6C3.3,5.2,3.6,5,4,5L4,5z
	 M23,6c0-1.6-1.4-3-3-3H4C2.3,3,1,4.3,1,6l0,0v12c0,1.7,1.3,3,3,3h16c1.7,0,3-1.3,3-3V6L23,6z"/>
</svg>
