<?xml version="1.0" encoding="UTF-8" standalone="no"?>
<svg width="24px" height="24px" viewBox="0 0 24 24" version="1.1" xmlns="http://www.w3.org/2000/svg" xmlns:xlink="http://www.w3.org/1999/xlink">
    <!-- Generator: Sketch 46.2 (44496) - http://www.bohemiancoding.com/sketch -->
    <title>Icon/utility/Indigo/24px/Exit Full Screen</title>
    <desc>Created with Sketch.</desc>
    <defs>
        <polygon id="path-1" points="9.987 8.9794 9.987 0.001 0.9922 0.001 0.9922 8.9794 9.987 8.9794"></polygon>
        <polygon id="path-3" points="0.00015 9 8.9964 9 8.9964 -0.0002 0.00015 -0.0002"></polygon>
    </defs>
    <g id="Symbols" stroke="none" stroke-width="1" fill="none" fill-rule="evenodd">
        <g id="Icon/utility/Indigo/24px/Exit-Full-Screen">
            <rect id="Rectangle-6" x="0" y="0" width="24" height="24"></rect>
            <g id="Exit-Full-Screen" transform="translate(2.000000, 2.000000)">
                <g id="Group-3" transform="translate(10.000000, 0.999300)">
                    <g id="Clip-2"></g>
                    <path d="M9.6992,0.2914 C9.3122,-0.0966 8.6742,-0.0966 8.2862,0.2914 L2.9922,5.5854 L2.9922,1.9974 C2.9922,1.4464 2.5422,0.9974 1.9922,0.9974 C1.4422,0.9974 0.9922,1.4464 0.9922,1.9974 L0.9922,7.9974 L0.9922,8.0334 L0.9922,8.0404 L0.9922,8.0464 L0.9922,8.0524 L0.9922,8.0584 L0.9922,8.0634 C0.9982,8.1704 1.0232,8.2704 1.0612,8.3634 L1.0612,8.3694 L1.0612,8.3764 C1.0612,8.3764 1.0612,8.3824 1.0672,8.3824 C1.1042,8.4764 1.1612,8.5574 1.2232,8.6384 L1.2292,8.6444 L1.2352,8.6494 L1.2412,8.6554 L1.2412,8.6614 C1.2662,8.6874 1.2852,8.7124 1.3102,8.7304 L1.3162,8.7304 L1.3222,8.7364 C1.3222,8.7364 1.3282,8.7364 1.3282,8.7424 L1.3342,8.7424 L1.3402,8.7494 C1.4152,8.8174 1.5022,8.8674 1.5902,8.9044 L1.5962,8.9044 L1.6022,8.9044 L1.6082,8.9044 C1.7082,8.9484 1.8212,8.9744 1.9332,8.9794 L1.9452,8.9794 L1.9512,8.9794 L1.9572,8.9794 L1.9632,8.9794 L1.9752,8.9794 L7.9752,8.9794 C8.5252,8.9794 8.9752,8.5294 8.9752,7.9794 C8.9752,7.4304 8.5252,6.9794 7.9752,6.9794 L4.3872,6.9794 L9.6812,1.6864 C10.0872,1.3114 10.0872,0.6744 9.6932,0.2854 L9.6992,0.2914 Z" id="Fill-1" fill="#1F2555" mask="url(#mask-2)"></path>
                </g>
                <g id="Group-6" transform="translate(0.000000, 11.999300)">
                    <g id="Clip-5"></g>
                    <path d="M8.9184,0.6088 C8.9184,0.6088 8.9184,0.6028 8.9124,0.6028 L8.9124,0.5968 L8.9124,0.5908 C8.8744,0.5048 8.8254,0.4218 8.7624,0.3468 L8.7564,0.3408 L8.7504,0.3358 L8.7444,0.3298 L8.7384,0.3228 C8.7134,0.2978 8.6944,0.2728 8.6694,0.2548 L8.6634,0.2488 L8.6574,0.2418 L8.6514,0.2358 L8.6454,0.2298 L8.6394,0.2238 C8.5704,0.1688 8.5014,0.1248 8.4264,0.0868 L8.4204,0.0868 L8.4144,0.0868 C8.2894,0.0298 8.1514,-0.0002 8.0084,-0.0002 L1.9964,-0.0002 C1.4464,-0.0002 0.9964,0.4488 0.9964,0.9998 C0.9964,1.5488 1.4464,1.9998 1.9964,1.9998 L5.5844,1.9998 L0.2904,7.2938 C-0.0966,7.6798 -0.0966,8.3178 0.2904,8.7068 C0.4844,8.8998 0.7404,9.0008 0.9964,9.0008 C1.2524,9.0008 1.5094,8.8998 1.7024,8.7068 L6.9964,3.4128 L6.9964,7.0008 C6.9964,7.5498 7.4464,8.0008 7.9964,8.0008 C8.5464,8.0008 8.9964,7.5498 8.9964,7.0008 L8.9964,1.0008 C8.9964,0.8618 8.9714,0.7308 8.9214,0.6128 L8.9184,0.6088 Z" id="Fill-4" fill="#1F2555" mask="url(#mask-4)"></path>
                </g>
            </g>
        </g>
    </g>
</svg>