<?xml version="1.0" encoding="utf-8"?>
<!-- Generator: Adobe Illustrator 24.0.3, SVG Export Plug-In . SVG Version: 6.00 Build 0)  -->
<svg version="1.1" id="Layer_1" xmlns="http://www.w3.org/2000/svg" xmlns:xlink="http://www.w3.org/1999/xlink" x="0px" y="0px"
	 viewBox="0 0 24 24" enable-background="new 0 0 24 24" xml:space="preserve">
<path fill-rule="evenodd" clip-rule="evenodd" d="M21.7,3.3L21.7,3.3L21.7,3.3L21.7,3.3z M21.7,3.3c-0.4-0.4-1-0.4-1.4,0L15,8.6V5
	c0-0.6-0.5-1-1-1s-1,0.4-1,1v6.1c0,0.1,0,0.2,0.1,0.3l0,0l0,0c0,0.1,0.1,0.2,0.2,0.3l0,0l0,0l0,0l0,0c0,0,0,0.1,0.1,0.1l0,0l0,0l0,0
	l0,0l0,0c0.1,0.1,0.2,0.1,0.2,0.2l0,0c0.1,0,0.2,0.1,0.3,0.1h6c0.5,0,1-0.5,1-1s-0.5-1-1-1h-3.6l5.3-5.3C22.1,4.3,22.1,3.7,21.7,3.3
	z M10.9,14.6L10.9,14.6L10.9,14.6c0-0.1-0.1-0.2-0.2-0.3l0,0l0,0l0,0l0,0c0,0,0,0-0.1-0.1l0,0l0,0l0,0c-0.1-0.1-0.1-0.1-0.2-0.1l0,0
	C10.3,14,10.2,14,10,14H4c-0.5,0-1,0.4-1,1c0,0.5,0.5,1,1,1h3.6l-5.3,5.3c-0.4,0.4-0.4,1,0,1.4C2.5,22.9,2.7,23,3,23
	s0.5-0.1,0.7-0.3L9,17.4V21c0,0.5,0.5,1,1,1s1-0.5,1-1v-6C11,14.9,11,14.7,10.9,14.6L10.9,14.6z"/>
</svg>
