<svg version="1.1" id="Layer_1" xmlns="http://www.w3.org/2000/svg" xmlns:xlink="http://www.w3.org/1999/xlink" x="0px" y="0px"
	 viewBox="0 0 24 24" enable-background="new 0 0 24 24" xml:space="preserve">
<path fill="#1f2555" fill-rule="evenodd" clip-rule="evenodd" d="M18,12c-0.5,0-1,0.4-1,1v6c0,0.5-0.5,1-1,1H5c-0.5,0-1-0.5-1-1V8c0-0.6,0.5-1,1-1
	h6c0.5,0,1-0.5,1-1c0-0.6-0.5-1-1-1H5C3.3,5,2,6.3,2,8v11c0,1.7,1.3,3,3,3h11c1.7,0,3-1.3,3-3v-6C19,12.4,18.5,12,18,12z M22,2.9
	L22,2.9c0-0.1,0-0.2-0.1-0.3l0,0l0,0c0-0.1-0.1-0.2-0.2-0.3l0,0l0,0l0,0l0,0c0,0,0,0-0.1-0.1l0,0l0,0l0,0l0,0l0,0
	c-0.1-0.1-0.2-0.1-0.3-0.2l0,0c0,0-0.1,0-0.2,0H15c-0.5,0-1,0.5-1,1s0.5,1,1,1h3.6l-9.3,9.3c-0.4,0.4-0.4,1,0,1.4
	C9.5,14.9,9.7,15,10,15s0.5-0.1,0.7-0.3L20,5.4V9c0,0.5,0.4,1,1,1c0.5,0,1-0.5,1-1V2.9L22,2.9z"/>
</svg>
