<?xml version="1.0" encoding="UTF-8" standalone="no"?>
<svg width="24px" height="24px" viewBox="0 0 24 24" version="1.1" xmlns="http://www.w3.org/2000/svg" xmlns:xlink="http://www.w3.org/1999/xlink">
    <!-- Generator: Sketch 46.2 (44496) - http://www.bohemiancoding.com/sketch -->
    <title>Icon/utility/Indigo/24px/External link</title>
    <desc>Created with Sketch.</desc>
    <defs></defs>
    <g id="Symbols" stroke="none" stroke-width="1" fill="none" fill-rule="evenodd">
        <g id="Icon/utility/Indigo/24px/External-link">
            <rect id="Rectangle-6" x="0" y="0" width="24" height="24"></rect>
            <g id="External-link" transform="translate(2.000000, 2.000000)" fill="#1F2555">
                <path d="M16,9.9768 C15.45,9.9768 15,10.4268 15,10.9768 L15,16.9768 C15,17.5268 14.55,17.9768 14,17.9768 L3,17.9768 C2.45,17.9768 2,17.5268 2,16.9768 L2,5.9768 C2,5.4268 2.45,4.9768 3,4.9768 L9,4.9768 C9.55,4.9768 10,4.5268 10,3.9768 C10,3.4268 9.55,2.9768 9,2.9768 L3,2.9768 C1.344,2.9768 0,4.3208 0,5.9768 L0,16.9768 C0,18.6328 1.344,19.9768 3,19.9768 L14,19.9768 C15.656,19.9768 17,18.6328 17,16.9768 L17,10.9768 C17,10.4268 16.55,9.9768 16,9.9768" id="Fill-1"></path>
                <path d="M20,0.9402 L20,0.9402 L20,0.9282 L20,0.9222 L20,0.9162 L20,0.9102 C19.994,0.8042 19.969,0.7042 19.931,0.6102 L19.931,0.6042 L19.931,0.5982 C19.931,0.5982 19.931,0.5922 19.925,0.5922 C19.887,0.4982 19.831,0.4172 19.769,0.3362 L19.763,0.3302 L19.757,0.3242 L19.751,0.3182 L19.751,0.3122 C19.726,0.2872 19.707,0.2622 19.682,0.2432 L19.676,0.2432 L19.67,0.2372 C19.67,0.2372 19.664,0.2372 19.664,0.2312 L19.658,0.2312 L19.652,0.2252 C19.577,0.1562 19.49,0.1062 19.396,0.0692 L19.39,0.0692 L19.384,0.0692 L19.378,0.0692 C19.284,0.0322 19.184,0.0062 19.078,0.0002 L19.072,0.0002 L19.066,0.0002 L19.06,0.0002 L19.054,0.0002 L19.048,0.0002 L19.01,0.0002 L13.01,0.0002 C12.46,0.0002 12.01,0.4502 12.01,1.0002 C12.01,1.5502 12.46,2.0002 13.01,2.0002 L16.598,2.0002 L7.298,11.2752 C6.911,11.6622 6.911,12.3002 7.298,12.6882 C7.492,12.8822 7.748,12.9822 8.004,12.9822 C8.26,12.9822 8.517,12.8822 8.71,12.6882 L18.004,3.3942 L18.004,6.9822 C18.004,7.5322 18.454,7.9822 19.004,7.9822 C19.554,7.9822 20.004,7.5322 20.004,6.9822 L20.004,0.9822 L20.004,0.9452 L20,0.9402 Z" id="Fill-3"></path>
            </g>
        </g>
    </g>
</svg>