<svg version="1.1" id="Layer_1" xmlns="http://www.w3.org/2000/svg" xmlns:xlink="http://www.w3.org/1999/xlink" x="0px" y="0px"
	 viewBox="0 0 24 24" enable-background="new 0 0 24 24" xml:space="preserve">
<path fill="#1f2555" fill-rule="evenodd" clip-rule="evenodd" d="M23.9,11c0-0.1-1.1-2.2-3-4.2C18.2,4,15.1,2.5,12,2.5l0,0c-0.8,0-1.6,0.1-2.3,0.3
	C9.1,2.9,8.8,3.4,8.9,4C9,4.5,9.6,4.9,10.1,4.7l0,0c0.6-0.1,1.2-0.2,1.8-0.2l0,0c2.6,0,5.1,1.2,7.4,3.6c1.2,1.3,2.1,2.7,2.5,3.3
	c-0.5,0.9-1.1,1.8-1.8,2.6c-0.4,0.4-0.3,1,0.1,1.4c0.2,0.2,0.4,0.2,0.6,0.2c0.3,0,0.6-0.1,0.8-0.4c0.9-1,1.6-2.1,2.3-3.4
	C24,11.7,24,11.3,23.9,11z M23.2,21.3l-4.5-4.5l0,0L2.2,0.3c-0.4-0.4-1-0.4-1.4,0s-0.4,1,0,1.4l3.8,3.8C2.8,7,1.3,8.9,0.1,11
	c-0.2,0.3-0.2,0.6,0,0.9c0,0.1,1.1,2.2,3,4.2c2.6,2.8,5.7,4.3,8.9,4.3l0,0c2.1,0,4.1-0.6,5.8-1.8l4,4c0.2,0.2,0.4,0.3,0.7,0.3
	c0.3,0,0.5-0.1,0.7-0.3C23.6,22.3,23.6,21.7,23.2,21.3L23.2,21.3z M10,10.9l2.5,2.5c-0.2,0.1-0.4,0.1-0.6,0.1c-1.1,0-2-0.9-2-2
	C9.9,11.3,10,11.1,10,10.9z M12,18.5L12,18.5c-2.6,0-5.1-1.2-7.4-3.6c-1.2-1.3-2.1-2.7-2.5-3.3c1-1.8,2.3-3.3,3.8-4.6l2.6,2.5
	c-0.4,0.6-0.6,1.4-0.6,2.1c0,2.2,1.8,4,4,4c0.8,0,1.5-0.2,2.1-0.6l2.3,2.3C15.1,18,13.6,18.5,12,18.5z"/>
</svg>
