<?xml version="1.0" encoding="UTF-8" standalone="no"?>
<svg viewBox="0 0 24 24" version="1.1" xmlns="http://www.w3.org/2000/svg" xmlns:xlink="http://www.w3.org/1999/xlink">
    <!-- Generator: Sketch 46.2 (44496) - http://www.bohemiancoding.com/sketch -->
    <title>Icon/utility/Indigo/24px/Eye</title>
    <desc>Created with Sketch.</desc>
    <defs>
        <polygon id="path-1" points="0.0004 0.006 24 0.006 24 18 0.0004 18"></polygon>
    </defs>
    <g id="Symbols" stroke="none" stroke-width="1" fill="none" fill-rule="evenodd">
        <g id="Icon/utility/Indigo/24px/Eye">
            <rect id="Rectangle-6" x="0" y="0" width="24" height="24"></rect>
            <g id="Eye" transform="translate(0.000000, 2.000000)">
                <g id="Group-3" transform="translate(0.000000, 0.994300)">
                    <g id="Clip-2"></g>
                    <path d="M19.3604,12.3583 C17.0734,14.7763 14.5984,16.0013 11.9994,16.0013 C9.4014,16.0013 6.9254,14.7763 4.6384,12.3583 C3.3884,11.0333 2.5324,9.6843 2.1384,9.0033 C2.5324,8.3283 3.3824,6.9793 4.6384,5.6493 C6.9254,3.2303 9.4004,2.0053 11.9994,2.0053 C14.5994,2.0053 17.0744,3.2303 19.3604,5.6493 C20.6104,6.9793 21.4664,8.3223 21.8604,9.0033 C21.4604,9.6783 20.6104,11.0273 19.3604,12.3583 M23.8914,8.5533 C23.8474,8.4663 22.8044,6.3983 20.8544,4.3173 C18.2054,1.4993 15.1434,0.0053 11.9994,0.0053 C8.8564,0.0053 5.7944,1.4993 3.1444,4.3233 C1.1944,6.4033 0.1514,8.4713 0.1084,8.5593 C-0.0356,8.8403 -0.0356,9.1713 0.1084,9.4533 C0.1524,9.5403 1.1944,11.6083 3.1444,13.6883 C5.7944,16.5063 8.8564,18.0003 11.9994,18.0003 C15.1434,18.0003 18.2054,16.5063 20.8544,13.6823 C22.8034,11.6023 23.8474,9.5343 23.8914,9.4473 C24.0364,9.1723 24.0364,8.8353 23.8914,8.5533" id="Fill-1" fill="#1F2555" mask="url(#mask-2)"></path>
                </g>
                <path d="M12,11.9962 C10.9,11.9962 10,11.0972 10,9.9972 C10,8.8972 10.9,7.9982 12,7.9982 C13.1,7.9982 14,8.8972 14,9.9972 C14,11.0972 13.1,11.9962 12,11.9962 M12,5.9982 C9.794,5.9982 8,7.7922 8,9.9972 C8,12.2022 9.794,13.9962 12,13.9962 C14.206,13.9962 15.999,12.2022 15.999,9.9972 C15.999,7.7922 14.206,5.9982 12,5.9982" id="Fill-4" fill="#1F2555"></path>
            </g>
        </g>
    </g>
</svg>