<svg version="1.1" id="Layer_1" xmlns="http://www.w3.org/2000/svg" xmlns:xlink="http://www.w3.org/1999/xlink" x="0px" y="0px"
	 viewBox="0 0 24 24" enable-background="new 0 0 24 24" xml:space="preserve">
<path fill="#1f2555" fill-rule="evenodd" clip-rule="evenodd" d="M23.9,11.5c0-0.1-1.1-2.2-3-4.2C18.2,4.5,15.1,3,12,3S5.8,4.5,3.1,7.3
	c-2,2.1-3,4.1-3,4.2c-0.1,0.3-0.1,0.6,0,0.9c0,0.1,1.1,2.2,3,4.2C5.8,19.5,8.9,21,12,21s6.2-1.5,8.9-4.3c1.9-2.1,3-4.1,3-4.2
	C24,12.2,24,11.8,23.9,11.5z M19.4,15.4C17.1,17.8,14.6,19,12,19s-5.1-1.2-7.4-3.6C3.4,14,2.5,12.7,2.1,12c0.4-0.7,1.2-2,2.5-3.4
	C6.9,6.2,9.4,5,12,5s5.1,1.2,7.4,3.6c1.2,1.3,2.1,2.7,2.5,3.4C21.5,12.7,20.6,14,19.4,15.4z M12,8c-2.2,0-4,1.8-4,4s1.8,4,4,4
	s4-1.8,4-4S14.2,8,12,8z M12,14c-1.1,0-2-0.9-2-2s0.9-2,2-2s2,0.9,2,2S13.1,14,12,14z"/>
</svg>
