<?xml version="1.0" encoding="utf-8"?>
<svg
version="1.1" xmlns="http://www.w3.org/2000/svg" xmlns:xlink="http://www.w3.org/1999/xlink"
x="0px" y="0px" viewBox="0 0 24 24"
>
  <g fill="#FAFAFA">
    <path class="st0" d="M11.9,15.9c-1.3,0-2.4-0.6-3.2-1.6l-1.1,0.8c1,1.4,2.6,2.2,4.3,2.2c1.7,0,3.3-0.8,4.3-2.2l-1.1-0.8
        C14.3,15.3,13.2,15.9,11.9,15.9z"/>
    <path class="st0" d="M9,9.6c0-0.8-0.6-1.4-1.4-1.4c-0.8,0-1.4,0.6-1.4,1.4c0,0.8,0.6,1.4,1.4,1.4C8.4,11,9,10.3,9,9.6z"/>
    <path class="st0" d="M16,8.2c-0.8,0-1.4,0.6-1.4,1.4c0,0.8,0.6,1.4,1.4,1.4c0.8,0,1.4-0.6,1.4-1.4C17.4,8.8,16.8,8.2,16,8.2z"/>
    <path class="st0" d="M12,0C5.4,0,0,5.4,0,12s5.4,12,12,12s12-5.4,12-12S18.6,0,12,0z M12,22.6C6.2,22.6,1.4,17.8,1.4,12
        S6.2,1.4,12,1.4S22.6,6.2,22.6,12S17.8,22.6,12,22.6z"/>
  </g>
</svg>

