<svg>
  <path class="st0" d="M11.9,14.3c-1.7,0-3.3,0.8-4.3,2.2l1.1,0.8c0.8-1,1.9-1.6,3.2-1.6s2.5,0.6,3.2,1.6l1.1-0.8
    C15.2,15.1,13.6,14.3,11.9,14.3z"/>
  <path class="st0" d="M9,9.6c0-0.8-0.6-1.4-1.4-1.4S6.2,8.8,6.2,9.6c0,0.8,0.6,1.4,1.4,1.4S9,10.3,9,9.6z"/>
  <path class="st0" d="M12,0C5.4,0,0,5.4,0,12s5.4,12,12,12s12-5.4,12-12S18.6,0,12,0z M12,22.6C6.2,22.6,1.4,17.8,1.4,12
    S6.2,1.4,12,1.4S22.6,6.1,22.6,12S17.8,22.6,12,22.6z"/>
  <path class="st0" d="M16,8.2c-0.8,0-1.4,0.6-1.4,1.4c0,0.8,0.6,1.4,1.4,1.4s1.4-0.6,1.4-1.4S16.8,8.2,16,8.2z"/>
</svg>
