<?xml version="1.0" encoding="utf-8"?>
<!-- Generator: Adobe Illustrator 24.0.3, SVG Export Plug-In . SVG Version: 6.00 Build 0)  -->
<svg version="1.1" id="Layer_1" xmlns="http://www.w3.org/2000/svg" xmlns:xlink="http://www.w3.org/1999/xlink" x="0px" y="0px"
	 viewBox="0 0 24 24" enable-background="new 0 0 24 24" xml:space="preserve">
<path d="M11.9,15.9c-1.3,0-2.4-0.6-3.2-1.6l-1.1,0.8c1,1.4,2.6,2.2,4.3,2.2s3.3-0.8,4.3-2.2l-1.1-0.8C14.3,15.3,13.2,15.9,11.9,15.9
	z M9,9.6c0-0.8-0.6-1.4-1.4-1.4S6.2,8.8,6.2,9.6S6.8,11,7.6,11S9,10.3,9,9.6z M16,8.2c-0.8,0-1.4,0.6-1.4,1.4S15.2,11,16,11
	c0.8,0,1.4-0.6,1.4-1.4S16.8,8.2,16,8.2z M12,0C5.4,0,0,5.4,0,12s5.4,12,12,12s12-5.4,12-12S18.6,0,12,0z M12,22.6
	C6.2,22.6,1.4,17.8,1.4,12S6.2,1.4,12,1.4S22.6,6.2,22.6,12S17.8,22.6,12,22.6z"/>
</svg>
