<?xml version="1.0" encoding="utf-8"?>
<!-- Generator: Adobe Illustrator 24.0.3, SVG Export Plug-In . SVG Version: 6.00 Build 0)  -->
<svg version="1.1" id="f8968cd8-2ead-4e7f-af2b-137eb66a774c"
	 xmlns="http://www.w3.org/2000/svg" xmlns:xlink="http://www.w3.org/1999/xlink" x="0px" y="0px" viewBox="0 0 32 32"
	 enable-background="new 0 0 32 32" xml:space="preserve">
<path d="M26,0c3.3,0,6,2.7,6,6v20c0,3.3-2.7,6-6,6h-3.9V19.6h4.1l0.6-4.8H22v-3.1c0-1.4,0.4-2.3,2.4-2.3H27V5
	c-1.2-0.1-2.5-0.2-3.7-0.2c-3.7,0-6.2,2.2-6.2,6.4v3.6h-4.2v4.8h4.2V32H6c-3.3,0-6-2.7-6-6V6c0-3.3,2.7-6,6-6H26z"/>
</svg>
