<?xml version="1.0" encoding="UTF-8"?>
<svg width="24px" height="32px" viewBox="0 0 24 32" version="1.1" xmlns="http://www.w3.org/2000/svg" xmlns:xlink="http://www.w3.org/1999/xlink">
    <!-- Generator: sketchtool 55.1 (78136) - https://sketchapp.com -->
    <title>E741C81D-2C1D-4F41-A2F7-E0FB5E0713BE</title>
    <desc>Created with sketchtool.</desc>
    <defs></defs>
    <g id="Collaboration-Center_UI_V4" stroke="none" stroke-width="1" fill="none" fill-rule="evenodd">
        <path d="M3,32 C1.343,32 0,30.657 0,29 L0,3 C0,1.343 1.343,0 3,0 L14.329,0 C14.956,0 15.557,0.249 16,0.692 L23.308,8 C23.751,8.443 24,9.044 24,9.671 L24,29 C24,30.657 22.657,32 21,32 L3,32 Z" fill="#8D8E99" opacity="0.4"></path>
        <path d="M1.63216156,16 C0.855018702,16 0.397875845,15.4514286 0.215018702,15.1314286 C0.0321615593,14.8114286 -0.379267012,13.8057143 0.855018702,12.5714286 C1.35787585,12.0685714 2.27216156,11.1085714 4.64930442,10.2857143 C4.96930442,9.64571429 5.28930442,8.96 5.60930442,8.22857143 C5.9750187,7.40571429 6.2950187,6.72 6.52359013,6.08 C5.56359013,4.52571429 5.38073299,3.38285714 5.42644727,2.05714286 C5.47216156,0.548571429 6.47787585,0 7.11787585,0 C7.5750187,0 8.76359013,0.411428571 8.80930442,2.37714286 C8.8550187,3.15428571 8.71787585,4.06857143 8.03216156,5.94285714 C8.5350187,6.62857143 9.1750187,7.45142857 9.99787585,8.36571429 C10.2721616,8.68571429 10.5464473,8.96 10.7750187,9.18857143 C13.3350187,9.09714286 14.6150187,9.64571429 15.0721616,9.92 C16.1235901,10.56 16.0321616,11.6114286 15.8493044,12.0685714 C15.7121616,12.4342857 15.2093044,13.0742857 14.1578758,13.0742857 C13.9293044,13.0742857 13.6550187,13.0285714 13.380733,12.9828571 C12.5578758,12.7542857 11.9635901,12.4342857 10.180733,10.56 C9.35787585,10.6057143 8.48930442,10.7428571 7.5750187,10.9257143 C6.84359013,11.0628571 6.15787585,11.2457143 5.56359013,11.4285714 C3.59787585,15.3142857 2.63787585,15.7257143 2.31787585,15.8628571 C2.1350187,15.9542857 1.86073299,16 1.63216156,16 Z M3.64359013,12.2057143 C2.63787585,12.7085714 2.1350187,13.2114286 1.8150187,13.5314286 C1.26644727,14.08 1.35787585,14.4 1.35787585,14.4 L1.44930442,14.5371429 C1.44930442,14.5371429 1.4950187,14.6285714 1.58644727,14.6285714 C1.63216156,14.6285714 1.67787585,14.6285714 1.76930442,14.5828571 C1.90644727,14.5371429 2.4550187,14.2628571 3.64359013,12.2057143 Z M12.1464473,10.5142857 C13.060733,11.3828571 13.380733,11.52 13.7921616,11.6114286 C13.9293044,11.6571429 14.0664473,11.6571429 14.2035901,11.6571429 C14.5235901,11.6571429 14.6150187,11.52 14.6150187,11.52 C14.660733,11.3371429 14.6150187,11.1542857 14.3864473,11.0171429 C14.2493044,10.9257143 13.6093044,10.6057143 12.1464473,10.5142857 Z M6.52359013,9.69142857 L6.47787585,9.78285714 C6.79787585,9.69142857 7.07216156,9.64571429 7.39216156,9.6 C7.98644727,9.50857143 8.5350187,9.37142857 9.08359013,9.32571429 L9.03787585,9.28 L9.03787585,9.28 C9.03787585,9.28 9.03787585,9.28 9.03787585,9.28 C8.44359013,8.64 7.94073299,8.04571429 7.48359013,7.45142857 L7.43787585,7.49714286 L7.43787585,7.45142857 C7.2550187,7.86285714 7.07216156,8.27428571 6.88930442,8.77714286 C6.75216156,9.09714286 6.6150187,9.41714286 6.52359013,9.69142857 L6.52359013,9.69142857 Z M7.11787585,1.37142857 C6.9350187,1.41714286 6.84359013,1.69142857 6.84359013,2.05714286 C6.84359013,2.74285714 6.84359013,3.42857143 7.20930442,4.29714286 C7.52930442,3.29142857 7.52930442,2.78857143 7.52930442,2.42285714 C7.48359013,1.73714286 7.2550187,1.46285714 7.11787585,1.37142857 Z" fill="#1F2555" transform="translate(4.000000, 8.000000)"></path>
    </g>
</svg>