<svg version="1.1" id="Layer_1" xmlns="http://www.w3.org/2000/svg" xmlns:xlink="http://www.w3.org/1999/xlink" x="0px" y="0px"
	 viewBox="0 0 24 32" enable-background="new 0 0 24 32" xml:space="preserve">
<title>E741C81D-2C1D-4F41-A2F7-E0FB5E0713BE</title>
<desc>Created with sketchtool.</desc>
<path fill-rule="evenodd" clip-rule="evenodd" d="M23.3,8L16,0.7C15.6,0.2,15,0,14.3,0H3C1.3,0,0,1.3,0,3v26c0,1.7,1.3,3,3,3h18
	c1.7,0,3-1.3,3-3V9.7C24,9,23.8,8.4,23.3,8z M22.8,29c0,1-0.8,1.8-1.8,1.8H3c-1,0-1.8-0.8-1.8-1.8V3C1.2,2,2,1.2,3,1.2h11.3
	c0.3,0,0.6,0.1,0.8,0.3l7.3,7.3c0.2,0.2,0.3,0.5,0.3,0.8V29z M19.1,17.9c-0.5-0.3-1.7-0.8-4.3-0.7c-0.2-0.2-0.5-0.5-0.8-0.8
	c-0.8-0.9-1.5-1.7-2-2.4c0.7-1.9,0.8-2.8,0.8-3.6c0-2-1.2-2.4-1.7-2.4c-0.6,0-1.6,0.5-1.7,2.1c0,1.3,0.1,2.5,1.1,4
	c-0.2,0.6-0.5,1.3-0.9,2.1c-0.3,0.7-0.6,1.4-1,2.1c-2.4,0.8-3.3,1.8-3.8,2.3c-1.2,1.2-0.8,2.2-0.6,2.6S4.9,24,5.6,24
	c0.2,0,0.5,0,0.7-0.1c0.3-0.1,1.3-0.5,3.2-4.4c0.6-0.2,1.3-0.4,2-0.5c0.9-0.2,1.8-0.3,2.6-0.4c1.8,1.9,2.4,2.2,3.2,2.4
	c0.3,0,0.5,0.1,0.8,0.1c1.1,0,1.6-0.6,1.7-1C20,19.6,20.1,18.6,19.1,17.9z M5.8,22.6c-0.1,0-0.1,0-0.2,0c-0.1,0-0.1-0.1-0.1-0.1
	l-0.1-0.1c0,0-0.1-0.3,0.5-0.9c0.3-0.3,0.8-0.8,1.8-1.3C6.5,22.3,5.9,22.5,5.8,22.6z M11.1,9.4c0.1,0.1,0.4,0.4,0.4,1.1
	c0,0.4,0,0.9-0.3,1.9c-0.4-0.9-0.4-1.6-0.4-2.2C10.8,9.7,10.9,9.4,11.1,9.4z M11.4,17.6c-0.3,0-0.6,0.1-0.9,0.2l0-0.1
	c0.1-0.3,0.2-0.6,0.4-0.9c0.2-0.5,0.4-0.9,0.5-1.3v0l0,0c0.5,0.6,1,1.2,1.6,1.8l0,0C12.5,17.4,12,17.5,11.4,17.6z M18.6,19.5
	c0,0-0.1,0.1-0.4,0.1c-0.1,0-0.3,0-0.4,0c-0.4-0.1-0.7-0.2-1.6-1.1c1.5,0.1,2.1,0.4,2.2,0.5C18.6,19.2,18.7,19.3,18.6,19.5z"/>
</svg>
