<svg version="1.1" id="Layer_1" xmlns="http://www.w3.org/2000/svg" xmlns:xlink="http://www.w3.org/1999/xlink" x="0px" y="0px"
	 viewBox="0 0 32 32" enable-background="new 0 0 32 32" xml:space="preserve">
<path id="Shape" d="M26.9,6.6C26.7,6.2,26.4,6,26,6H6C5.6,6,5.3,6.2,5.1,6.6C4.9,6.9,5,7.3,5.2,7.6l7.8,9.2V23
	c0,0.4,0.2,0.7,0.6,0.9l4,2C17.7,26,17.8,26,18,26s0.4,0,0.5-0.1c0.3-0.2,0.5-0.5,0.5-0.9v-8.2l7.8-9.2C27,7.3,27.1,6.9,26.9,6.6
	L26.9,6.6z M17.2,15.8C17.1,16,17,16.2,17,16.5v6.9l-2-1v-5.9c0-0.2-0.1-0.5-0.2-0.6L8.2,8h15.7L17.2,15.8L17.2,15.8z"/>
</svg>
