<?xml version="1.0" encoding="UTF-8"?>
<svg width="32px" height="32px" viewBox="0 0 32 32" version="1.1" xmlns="http://www.w3.org/2000/svg" xmlns:xlink="http://www.w3.org/1999/xlink">
    <!-- Generator: Sketch 49 (51002) - http://www.bohemiancoding.com/sketch -->
    <title>Filter</title>
    <desc>Created with Sketch.</desc>
    <defs></defs>
    <g id="filter" stroke="none" stroke-width="1" fill="none" fill-rule="evenodd">
        <g id="filter" transform="translate(5.000000, 6.000000)" fill="#1F2555" fill-rule="nonzero">
            <path d="M21.906,0.581 C21.744,0.225 21.387,0 21,0 L1,0 C0.613,0 0.256,0.225 0.094,0.581 C-0.068,0.937 -0.012,1.35 0.238,1.65 L8,10.825 L8,17 C8,17.381 8.213,17.725 8.55,17.894 L12.55,19.894 C12.694,19.963 12.844,20 13,20 C13.181,20 13.363,19.95 13.525,19.85 C13.819,19.669 14,19.344 14,19 L14,10.825 L21.763,1.644 C22.013,1.35 22.069,0.932 21.907,0.582 L21.906,0.581 Z M12.237,9.813 C12.087,9.994 12,10.219 12,10.457 L12,17.382 L10,16.382 L10,10.457 C10,10.22 9.919,9.995 9.763,9.813 L3.157,2.001 L18.844,2.001 L12.238,9.813 L12.237,9.813 Z" id="Shape"></path>
        </g>
    </g>
</svg>