<svg version="1.1" id="Layer_1" xmlns="http://www.w3.org/2000/svg" xmlns:xlink="http://www.w3.org/1999/xlink" x="0px" y="0px"
	 viewBox="0 0 24 24" enable-background="new 0 0 24 24" xml:space="preserve">
<path fill="#1f2555" fill-rule="evenodd" clip-rule="evenodd" d="M21.9,2.6c0-0.1-0.1-0.2-0.2-0.3c0,0,0,0-0.1-0.1c-0.1-0.1-0.2-0.1-0.3-0.2
	c0,0-0.1,0-0.2,0h-6c-0.6,0-1,0.5-1,1s0.4,1,1,1h3.6l-5.3,5.3c-0.4,0.4-0.4,1,0,1.4c0.2,0.2,0.4,0.3,0.7,0.3c0.3,0,0.5-0.1,0.7-0.3
	L20,5.4V9c0,0.6,0.4,1,1,1c0.5,0,1-0.4,1-1V2.9C22,2.8,22,2.7,21.9,2.6z M9.9,13c-0.3,0-0.5,0.1-0.7,0.3L4,18.6V15c0-0.6-0.4-1-1-1
	c-0.5,0-1,0.4-1,1v6.1c0,0.1,0,0.2,0.1,0.3c0,0.1,0.1,0.2,0.2,0.3c0,0,0,0,0.1,0.1c0.1,0.1,0.2,0.1,0.3,0.2c0,0,0.1,0,0.2,0h6
	c0.6,0,1-0.5,1-1s-0.4-1-1-1H5.3l5.3-5.3c0.4-0.4,0.4-1,0-1.4C10.4,13.1,10.2,13,9.9,13z"/>
</svg>
