<?xml version="1.0" encoding="UTF-8" standalone="no"?>
<svg width="24px" height="24px" viewBox="0 0 24 24" version="1.1" xmlns="http://www.w3.org/2000/svg" xmlns:xlink="http://www.w3.org/1999/xlink">
    <!-- Generator: Sketch 46.2 (44496) - http://www.bohemiancoding.com/sketch -->
    <title>Icon/utility/Indigo/24px/Full Screen</title>
    <desc>Created with Sketch.</desc>
    <defs>
        <polygon id="path-1" points="8.99225 10 0 10 0 5.49885 0 0.9977 8.99225 0.9977"></polygon>
    </defs>
    <g id="Symbols" stroke="none" stroke-width="1" fill="none" fill-rule="evenodd">
        <g id="Icon/utility/Indigo/24px/Full-Screen">
            <rect id="Rectangle-6" x="0" y="0" width="24" height="24"></rect>
            <g id="Full-Screen" transform="translate(2.000000, 2.000000)">
                <path d="M20,0.9401 L20,0.9401 L20,0.9281 L20,0.9211 L20,0.9161 L20,0.9101 C19.994,0.8041 19.969,0.7041 19.931,0.6101 L19.931,0.6041 L19.931,0.5981 C19.931,0.5981 19.931,0.5921 19.925,0.5921 C19.887,0.4981 19.831,0.4171 19.769,0.3361 L19.763,0.3301 L19.757,0.3241 L19.751,0.3181 L19.751,0.3121 C19.726,0.2871 19.707,0.2621 19.682,0.2431 L19.676,0.2431 L19.67,0.2371 C19.67,0.2371 19.664,0.2371 19.664,0.2311 L19.658,0.2311 L19.652,0.2251 C19.577,0.1561 19.49,0.1061 19.396,0.0691 L19.39,0.0691 L19.384,0.0691 L19.378,0.0691 C19.284,0.0321 19.184,0.0051 19.078,0.0001 L19.072,0.0001 L19.066,0.0001 L19.06,0.0001 L19.054,0.0001 L19.048,0.0001 L19.01,0.0001 L13.01,0.0001 C12.46,0.0001 12.01,0.4501 12.01,1.0001 C12.01,1.5501 12.46,2.0001 13.01,2.0001 L16.598,2.0001 L11.304,7.2941 C10.917,7.6811 10.917,8.3191 11.304,8.7071 C11.498,8.9011 11.754,9.0011 12.01,9.0011 C12.266,9.0011 12.523,8.9011 12.716,8.7071 L18.003,3.3941 L18.003,6.9821 C18.003,7.5321 18.453,7.9821 19.003,7.9821 C19.553,7.9821 20.003,7.5321 20.003,6.9821 L20.003,0.9821 L20.003,0.9451 L20,0.9401 Z" id="Fill-1" fill="#1F2555"></path>
                <g id="Group-5" transform="translate(0.000000, 9.974000)">
                    <g id="Clip-4"></g>
                    <path d="M7.294,1.2972 L2,6.5912 L2,3.0032 C2,2.4532 1.55,2.0032 1,2.0032 C0.45,2.0032 0,2.4532 0,3.0032 L0,9.0032 C0,9.1412 0.025,9.2722 0.075,9.3902 C0.075,9.3902 0.075,9.3962 0.081,9.3962 L0.081,9.4012 L0.081,9.4072 C0.119,9.4952 0.168,9.5772 0.231,9.6512 L0.237,9.6572 L0.243,9.6642 L0.249,9.6702 L0.255,9.6762 C0.28,9.7012 0.299,9.7262 0.324,9.7452 L0.33,9.7512 L0.336,9.7572 L0.342,9.7632 L0.348,9.7692 L0.354,9.7752 C0.429,9.8382 0.504,9.8812 0.585,9.9192 L0.591,9.9192 L0.597,9.9192 C0.703,9.9632 0.822,9.9942 0.947,10.0002 L0.959,10.0002 L0.965,10.0002 L0.971,10.0002 L0.977,10.0002 L0.989,10.0002 L6.989,10.0002 C7.539,10.0002 7.989,9.5502 7.989,9.0002 C7.989,8.4492 7.539,8.0002 6.989,8.0002 L3.408,8.0002 L8.702,2.7062 C9.089,2.3182 9.089,1.6812 8.702,1.2932 C8.315,0.8992 7.677,0.8992 7.289,1.2932 L7.294,1.2972 Z" id="Fill-3" fill="#1F2555" mask="url(#mask-2)"></path>
                </g>
            </g>
        </g>
    </g>
</svg>