<svg version="1.1" id="Layer_1" xmlns="http://www.w3.org/2000/svg" xmlns:xlink="http://www.w3.org/1999/xlink" x="0px" y="0px"
	 viewBox="0 0 24 28" enable-background="new 0 0 24 28" xml:space="preserve">
<path fill="#1f2555" d="M12,2c6.6,0,12,5.4,12,12c0,5.3-3.4,9.8-8.2,11.4c-0.6,0.1-0.8-0.3-0.8-0.6c0-0.4,0-1.7,0-3.3c0-1.1-0.4-1.8-0.8-2.2
	c2.7-0.3,5.5-1.3,5.5-5.9c0-1.3-0.5-2.4-1.2-3.2c0-0.4,0.5-1.6-0.2-3.2c-1-0.3-3.3,1.2-3.3,1.2c-1-0.3-2-0.4-3-0.4s-2,0.1-3,0.4
	c0,0-2.3-1.5-3.3-1.2C5,8.6,5.5,9.8,5.6,10.2c-0.8,0.8-1.2,1.9-1.2,3.2c0,4.6,2.8,5.6,5.5,5.9c-0.3,0.3-0.7,0.8-0.8,1.6
	c-0.7,0.3-2.4,0.8-3.5-1c-0.7-1.1-1.8-1.2-1.8-1.2c-1.2,0-0.1,0.7-0.1,0.7C4.4,19.8,5,21.2,5,21.2c0.7,2.1,4,1.4,4,1.4
	c0,1,0,1.9,0,2.2c0,0.3-0.2,0.7-0.8,0.6C3.4,23.8,0,19.3,0,14C0,7.4,5.4,2,12,2L12,2z M4.5,19.2c0-0.1,0-0.1-0.1-0.2
	c-0.1,0-0.2,0-0.2,0c0,0.1,0,0.1,0.1,0.2C4.4,19.3,4.5,19.3,4.5,19.2z M5,19.8c0.1,0,0-0.2,0-0.2c-0.1-0.1-0.2-0.1-0.2,0
	c-0.1,0,0,0.2,0,0.2C4.9,19.8,5,19.8,5,19.8z M5.5,20.5c0.1-0.1,0.1-0.2,0-0.3c-0.1-0.1-0.2-0.2-0.3-0.1c-0.1,0-0.1,0.2,0,0.3
	S5.4,20.5,5.5,20.5L5.5,20.5z M6.2,21.1c0.1-0.1,0-0.2-0.1-0.3c-0.1-0.1-0.2-0.1-0.3,0c-0.1,0.1,0,0.2,0.1,0.3
	C6,21.2,6.1,21.2,6.2,21.1z M7,21.5c0-0.1-0.1-0.2-0.2-0.2s-0.3,0-0.3,0.1s0.1,0.2,0.2,0.2C6.9,21.7,7,21.6,7,21.5L7,21.5z M8,21.6
	c0-0.1-0.1-0.2-0.3-0.2c-0.1,0-0.2,0.1-0.2,0.2s0.1,0.2,0.3,0.2C7.9,21.8,8,21.7,8,21.6z M8.9,21.4c0-0.1-0.1-0.2-0.3-0.1
	c-0.1,0-0.2,0.1-0.2,0.2s0.1,0.2,0.3,0.1S9,21.5,8.9,21.4L8.9,21.4z"/>
</svg>
