<svg version="1.1" id="Layer_1" xmlns="http://www.w3.org/2000/svg" xmlns:xlink="http://www.w3.org/1999/xlink" x="0px" y="0px"
	 viewBox="0 0 24 24" enable-background="new 0 0 24 24" xml:space="preserve">
<path id="Global" fill-rule="evenodd" clip-rule="evenodd" d="M12,1c2,0,3.8,0.5,5.5,1.5s3,2.3,4,4S23,10,23,12s-0.5,3.8-1.5,5.5
	c-1,1.7-2.3,3-4,4S14,23,12,23s-3.8-0.5-5.5-1.5s-3-2.3-4-4C1.5,15.8,1,14,1,12s0.5-3.8,1.5-5.5s2.3-3,4-4S10,1,12,1z M15.9,8.5
	l-0.1,0.1c-0.1,0.1-0.1,0.1-0.2,0.1c0,0,0,0,0.1-0.1C15.7,8.6,15.7,8.5,15.9,8.5c-0.1-0.2-0.1-0.2,0-0.2c0.1-0.1,0.2-0.1,0.3-0.2
	C16.3,8,16.6,8,16.9,7.9c0.3-0.1,0.6,0,0.7,0.2c0,0,0-0.1,0.1-0.2c0.1-0.1,0.2-0.2,0.2-0.2s0.1,0,0.2-0.1c0.1,0,0.2-0.1,0.2-0.1V7.2
	c-0.1,0-0.2,0-0.3-0.1s0,0,0-0.2c0,0,0,0.1-0.1,0.1c0-0.1,0-0.1-0.1-0.1s-0.1,0-0.2,0s-0.1,0-0.1,0c-0.1,0-0.2-0.1-0.2-0.1
	s-0.1-0.1-0.1-0.2s0-0.2-0.1-0.2c0,0-0.1-0.1-0.1-0.2s-0.1-0.1-0.1-0.1s0,0,0-0.1V5.9c0,0,0-0.1-0.1-0.1h-0.1c0,0-0.1,0-0.1,0.1
	S16.5,6,16.5,6l-0.1,0.1h-0.1h-0.1c0,0,0,0-0.1,0c0,0-0.1,0-0.1,0.1h-0.1c-0.1,0-0.1,0-0.1,0c0.1,0,0.1-0.1,0-0.2
	c-0.1,0-0.2-0.1-0.2,0c0.1,0,0.1-0.1,0.1-0.2s-0.1-0.1-0.1-0.2h0.1l-0.1-0.1c-0.1,0-0.2-0.1-0.3-0.1s-0.2-0.1-0.2-0.1
	c-0.1,0-0.2-0.1-0.5-0.1c-0.2,0-0.4,0-0.5,0c0,0.1-0.1,0.1-0.1,0.2c0,0,0,0.1,0.1,0.2c0,0.1,0.1,0.2,0.1,0.2c0,0.1,0,0.1-0.1,0.2
	S14,6.1,14,6.2s0.1,0.1,0.2,0.2c0.1,0.1,0.2,0.2,0.1,0.3c0,0.1-0.1,0.2-0.2,0.2S14,7,14,7c0,0.1-0.1,0.2,0,0.3
	c0,0.1,0.1,0.2,0.2,0.2c0,0,0,0,0,0.1c0,0,0,0-0.1,0.1c0,0-0.1,0-0.1,0.1c0,0-0.1,0-0.1,0.1l0,0c-0.1,0-0.2,0-0.3-0.1
	s-0.2-0.2-0.2-0.4C13.3,7.2,13.3,7,13.2,7c-0.2-0.1-0.4-0.1-0.4,0c0-0.1-0.2-0.2-0.6-0.4c-0.2-0.1-0.5-0.1-0.8-0.1
	c0.1,0,0.1-0.1,0-0.2s-0.2-0.2-0.3-0.2c0-0.1,0-0.1,0.1-0.3c0-0.1,0-0.2,0-0.2c0-0.1,0.1-0.2,0.2-0.3c0,0,0-0.1,0.1-0.1
	c0.1-0.1,0.1-0.1,0.1-0.2s0-0.1,0-0.1c0.3,0,0.6,0,0.7-0.2c0,0,0.1-0.1,0.2-0.2c0.1-0.1,0.1-0.2,0.2-0.2c0.1-0.1,0.2-0.1,0.2-0.1
	s0.1,0,0.2,0.1c0.1,0,0.2,0.1,0.2,0.1c0.1,0,0.2,0,0.2-0.2c0-0.1,0-0.2-0.1-0.3c0.1,0,0.1-0.1,0-0.2c0-0.1-0.1-0.1-0.1-0.1
	c-0.1,0-0.2,0-0.4,0.1c-0.1,0-0.1,0.1,0,0.1c0,0-0.1,0-0.1,0.2c-0.1,0.1-0.2,0.2-0.2,0.3s-0.2,0-0.2-0.1c0,0,0-0.1-0.1-0.2
	c0-0.1-0.1-0.2-0.1-0.2C12.1,3.8,12,3.9,12,4c0-0.1,0-0.1-0.2-0.2s-0.2-0.1-0.3-0.1c0.2-0.1,0.1-0.2-0.1-0.4c-0.1,0-0.2-0.1-0.3-0.1
	s-0.2,0-0.3,0.1c0,0.1-0.1,0.1-0.1,0.2c0,0,0,0.1,0.1,0.1s0.1,0.1,0.2,0.1s0.1,0,0.2,0.1c0.1,0,0.1,0,0.1,0C11.4,3.9,11.5,4,11.4,4
	c0,0-0.1,0-0.1,0.1c0,0.1-0.1,0-0.2,0.1c0,0-0.1,0-0.1,0.1c0,0,0,0.1,0,0.2s0,0.2,0,0.2s-0.1-0.1-0.1-0.3c0-0.1-0.1-0.2-0.1-0.2
	C10.6,4,10.5,4,10.2,4H10c0,0-0.1,0-0.2,0S9.6,4,9.5,4S9.4,4,9.3,3.9c0-0.1,0-0.2,0-0.3c0,0,0,0,0.1,0c0,0-0.1-0.1-0.2-0.1
	S9.1,3.3,9.1,3.3C8.6,3.5,8.2,3.7,7.7,3.9c0.1,0,0.1,0,0.2,0c0,0,0.1-0.1,0.2-0.1c0.1,0,0.1-0.1,0.1-0.1c0.3-0.1,0.5-0.2,0.6-0.1
	l0.1-0.1C9,3.7,9.1,3.8,9.2,3.9c-0.1,0-0.2,0-0.4,0C8.6,4,8.5,4,8.4,4.1c0.1,0.1,0.1,0.2,0.1,0.3c0,0-0.1-0.1-0.2-0.1
	c0-0.2-0.1-0.2-0.2-0.3c0,0-0.1,0-0.2,0S7.7,4,7.6,4C6.2,4.7,5.1,5.8,4.2,7.1c0.1,0.1,0.1,0.1,0.2,0.1l0.1,0.1c0,0,0,0.1,0,0.2
	c0,0,0.1,0,0.2,0c0.1,0.1,0.1,0.2,0,0.3c0,0,0.2,0.1,0.6,0.4c0.2,0.2,0.3,0.3,0.3,0.3c0,0.1,0,0.2-0.1,0.3L5.4,8.7
	C5.3,8.5,5.3,8.5,5.3,8.5s0,0.1,0,0.3c0,0.1,0,0.2,0.1,0.2C5.3,9,5.3,9.1,5.3,9.2s0,0.3,0,0.5s0,0.3,0,0.3l0,0c0,0.1,0,0.3,0.1,0.5
	s0.2,0.3,0.3,0.3c-0.1,0,0,0.2,0.3,0.6c0,0.1,0,0.2,0,0.2s0.1,0.1,0.2,0.1c0.1,0.1,0.2,0.1,0.2,0.1c0.1,0,0.1,0.1,0.1,0.2
	c0,0,0.1,0.2,0.1,0.3c0.1,0.2,0.1,0.3,0.2,0.3c0,0.1,0,0.2,0.1,0.3s0.2,0.2,0.2,0.3l0,0l0,0c0,0.1,0.1,0.1,0.2,0.2
	c0.1,0.1,0.2,0.1,0.2,0.2v0.1c0,0.1,0,0.1,0,0.2s0.1,0,0.1,0c0-0.2-0.1-0.5-0.3-0.9c-0.1-0.2-0.2-0.4-0.2-0.4S7,12.5,7,12.4
	c0-0.1,0-0.2-0.1-0.2c0,0,0,0,0.1,0c0,0,0.1,0,0.1,0.1c0,0,0.1,0,0.1,0.1s0,0,0,0c0,0.1,0,0.2,0,0.3s0.1,0.2,0.2,0.3
	s0.1,0.2,0.2,0.3c0.3,0,0.4,0.1,0.4,0.1c0.1,0.1,0.1,0.2,0.2,0.3s0.1,0.2,0,0.2c0.1,0,0.2,0.1,0.3,0.2s0.2,0.2,0.2,0.3
	s0.1,0.2,0.1,0.4s0.1,0.3,0.1,0.3c0,0.1,0.1,0.1,0.1,0.2c0.1,0.1,0.1,0.1,0.2,0.1l0.2,0.1c0.1,0,0.2,0.1,0.2,0.1s0.1,0.1,0.3,0.2
	c0.1,0.1,0.2,0.1,0.3,0.2c0.1,0,0.2,0.1,0.2,0.1s0.1,0,0.2,0c0.1,0,0.1,0,0.2-0.1c0.1,0,0.3,0.1,0.4,0.2c0.1,0.2,0.2,0.3,0.3,0.3
	c0.3,0.2,0.6,0.2,0.8,0.2c0,0,0,0,0,0.1s0.1,0.1,0.1,0.2c0.1,0.1,0.1,0.2,0.1,0.2c0,0.1,0.1,0.1,0.1,0.1c0,0.1,0.1,0.1,0.3,0.2
	c0.1,0.1,0.2,0.2,0.3,0.2s0.1-0.1,0.1-0.1c0,0.1,0,0.2,0.1,0.3s0.2,0.2,0.3,0.1c0.1,0,0.2-0.2,0.2-0.5c-0.3,0.1-0.5,0.1-0.7-0.3
	c0,0,0,0,0-0.1s0-0.1-0.1-0.1v-0.1v-0.1c0,0,0,0,0.1,0s0.1,0,0.1-0.1c0,0,0-0.1,0-0.2s0-0.1-0.1-0.2c0-0.1-0.1-0.2-0.2-0.3
	c-0.1-0.1-0.2-0.2-0.2-0.2c0,0.1-0.1,0.1-0.2,0.1c-0.1,0-0.2-0.1-0.2-0.1s0,0,0,0.1c0,0.1,0,0.1,0,0.1c-0.1,0-0.2,0-0.2,0
	s0-0.1,0-0.3c0-0.1,0-0.2,0.1-0.3c0,0,0-0.1,0.1-0.2c0-0.1,0.1-0.1,0.1-0.2c0-0.1,0-0.1,0.1-0.2c0-0.1,0-0.1-0.1-0.1s-0.1,0-0.3,0
	s-0.3,0.1-0.4,0.3c0,0,0,0.1,0,0.2c0,0.1,0,0.1-0.1,0.2s-0.1,0.1-0.1,0.1c-0.1,0-0.2,0-0.3,0s-0.3,0-0.3-0.1
	c-0.1-0.1-0.2-0.2-0.3-0.4s-0.1-0.4-0.1-0.5s0-0.2,0-0.4s0-0.3,0-0.4c0-0.1,0-0.2-0.1-0.4l0.1-0.1c0.1-0.1,0.1-0.1,0.1-0.2
	c0,0,0,0,0.1,0c0,0,0,0,0.1,0c0,0,0,0,0.1,0s0,0,0-0.1c0,0,0,0-0.1,0c0,0,0,0-0.1,0c0.1,0,0.2,0,0.4,0s0.3,0,0.4,0
	c0.1,0.1,0.2,0.1,0.3,0v-0.1c0,0,0-0.1,0-0.2c0,0.3,0.2,0.3,0.4,0.1c0,0,0.1,0.1,0.2,0.1c0.1,0,0.2,0,0.3,0.1c0,0,0.1,0,0.1,0.1
	l0.1,0.1c0,0,0,0,0.1,0c0,0,0.1,0,0.1-0.1c0.1,0.1,0.2,0.2,0.2,0.3c0.1,0.4,0.2,0.6,0.3,0.6s0.1,0,0.2,0l0.1-0.1c0-0.1,0-0.1,0-0.2
	c0-0.1,0-0.1,0-0.2v-0.1V13v-0.1c-0.1,0-0.2-0.1-0.3-0.2c0-0.1,0-0.2,0-0.3s0.1-0.2,0.2-0.3c0,0,0,0,0.1-0.1c0.1,0,0.1-0.1,0.2-0.1
	c0.1,0,0.1-0.1,0.2-0.1c0.2-0.2,0.3-0.3,0.2-0.5c0.1,0,0.1,0,0.2-0.1c0,0,0,0-0.1,0l-0.1-0.1h-0.1c0.1,0,0.1-0.1,0-0.2
	c0,0,0.1-0.1,0.1-0.2s0.1-0.1,0.1-0.1c0.1,0.1,0.2,0.1,0.3,0s0.1-0.2,0-0.2c0-0.1,0.1-0.1,0.3-0.2c0.1,0,0.2-0.1,0.3-0.1
	s0.1,0,0.1,0s0-0.1,0-0.2s0-0.1,0-0.2c0,0,0.1-0.1,0.2-0.1s0.2-0.1,0.2-0.1l0.2-0.2V9.2c0.2,0,0.3,0,0.4-0.2
	c0.1-0.1,0.1-0.2-0.1-0.3c0-0.1,0-0.1,0-0.1c-0.1,0-0.1-0.1-0.2-0.1c0,0,0.1,0,0.2,0s0.1,0,0.2,0c0.1-0.1,0.1-0.2-0.1-0.2
	C16.4,8.2,16.2,8.3,15.9,8.5z M13.6,21c2-0.3,3.6-1.2,5-2.7c0,0-0.1-0.1-0.2-0.1s-0.2,0-0.2-0.1C18,18,17.9,18,17.9,18
	c0-0.1,0-0.1,0-0.2s-0.1-0.1-0.1-0.1s-0.1-0.1-0.2-0.1s-0.1-0.1-0.2-0.1c0,0-0.1,0-0.1-0.1s-0.1-0.1-0.1-0.1s-0.1,0-0.1-0.1
	c-0.1,0-0.1,0-0.1,0h-0.1l0,0h-0.1h-0.1c0,0,0,0-0.1,0l0,0c-0.2-0.2-0.4-0.3-0.5-0.3c0,0-0.1,0-0.2-0.1S15.8,17,15.8,17h-0.1
	c-0.1,0-0.1,0-0.2,0.1c0,0-0.1,0.1-0.1,0.2s0,0.2,0,0.2c-0.1,0-0.1-0.1,0-0.3s0.1-0.2,0-0.3c0-0.1-0.1-0.1-0.2-0.1
	c-0.1,0-0.1,0-0.2,0.1c0,0-0.1,0.1-0.2,0.1c-0.1,0.1-0.1,0.1-0.1,0.1s-0.1,0-0.1,0.1s-0.1,0.1-0.1,0.1s-0.1,0.1-0.1,0.2
	s-0.1,0.1-0.1,0.2c0,0-0.1-0.1-0.2-0.1c-0.1,0-0.1-0.1-0.1-0.1c0,0.1,0,0.3,0.1,0.5s0,0.4,0.1,0.5c0.1,0.3,0,0.5-0.2,0.7
	c-0.3,0.2-0.4,0.4-0.4,0.6s0,0.3,0.2,0.4c0,0.1,0,0.2-0.1,0.3s-0.1,0.2-0.1,0.3C13.6,20.9,13.6,20.9,13.6,21z"/>
</svg>
