<?xml version="1.0" encoding="utf-8"?>
<!DOCTYPE svg PUBLIC "-//W3C//DTD SVG 1.1//EN" "http://www.w3.org/Graphics/SVG/1.1/DTD/svg11.dtd">
<svg xmlns="http://www.w3.org/2000/svg" xmlns:xlink="http://www.w3.org/1999/xlink" version="1.1" baseProfile="full" width="24" height="24" viewBox="0 0 24.00 24.00" enable-background="new 0 0 24.00 24.00" xml:space="preserve">
  <path fill="#1f2555" stroke-width="0.2" stroke-linejoin="round" d="M16.5,5c2,0,3.5,1.5,3.5,3.5c0,2.9-3.1,5.7-7.9,10.1L12,18.6l-0.1-0.1C6.9,14,3.7,11.1,4,8
	c0.1-0.7,0.4-1.4,0.9-1.9c1.6-1.7,4.2-1.3,5.6,0.3l1.2,1.4c0.2,0.2,0.5,0.2,0.7,0l1.2-1.4C14.3,5.5,15.4,5,16.5,5 M16.5,3
	c-1.7,0-3.4,0.8-4.5,2.1C10.9,3.8,9.2,3,7.5,3C4.4,3,2,5.4,2,8.5c0,3.8,3.4,6.9,8.6,11.5l1.4,1.3l1.4-1.3c5.1-4.7,8.6-7.8,8.6-11.5
	C22,5.4,19.6,3,16.5,3L16.5,3z"/>
</svg>
