<svg version="1.1" id="Layer_1" xmlns="http://www.w3.org/2000/svg" xmlns:xlink="http://www.w3.org/1999/xlink" x="0px" y="0px"
	 viewBox="0 0 24 24" enable-background="new 0 0 24 24" xml:space="preserve">
<path fill="#1f2555" fill-rule="evenodd" clip-rule="evenodd" d="M12,1C5.9,1,1,5.9,1,12s4.9,11,11,11s11-4.9,11-11S18.1,1,12,1z M12,21
	c-5,0-9-4-9-9s4-9,9-9s9,4,9,9S17,21,12,21z M12,11c-0.5,0-1,0.5-1,1v4c0,0.5,0.5,1,1,1s1-0.5,1-1v-4C13,11.5,12.5,11,12,11z M12,7
	c-0.3,0-0.5,0.1-0.7,0.3C11.1,7.5,11,7.7,11,8c0,0.3,0.1,0.5,0.3,0.7S11.7,9,12,9s0.5-0.1,0.7-0.3S13,8.3,13,8
	c0-0.3-0.1-0.5-0.3-0.7C12.5,7.1,12.3,7,12,7z"/>
</svg>
