<?xml version="1.0" encoding="utf-8"?>
<!-- Generator: Adobe Illustrator 24.0.3, SVG Export Plug-In . SVG Version: 6.00 Build 0)  -->
<svg version="1.1" id="e5293faa-c71a-440b-8637-4d2e1f01f527"
	 xmlns="http://www.w3.org/2000/svg" xmlns:xlink="http://www.w3.org/1999/xlink" x="0px" y="0px" viewBox="0 0 32 32"
	 enable-background="new 0 0 32 32" xml:space="preserve">
<path d="M4.9,26.8h4.8V12.3H4.9V26.8z M10.1,7.9c0-1.4-1.1-2.5-2.5-2.5c-0.1,0-0.1,0-0.2,0C6,5.2,4.8,6.2,4.6,7.6
	C4.5,9,5.5,10.2,6.9,10.4c0.1,0,0.3,0,0.4,0l0,0c1.4,0.1,2.6-0.9,2.7-2.3C10.1,8,10.1,8,10.1,7.9z M22.2,26.8H27v-8.3
	c0-4.4-2.4-6.5-5.5-6.5c-1.8-0.1-3.5,0.9-4.4,2.4l0,0v-2.1h-4.8c0,0,0.1,1.4,0,14.5h4.8v-8.1c0-0.4,0-0.8,0.1-1.2
	c0.4-1,1.4-1.7,2.5-1.7c1.7,0,2.4,1.3,2.4,3.3C22.2,19.1,22.2,26.8,22.2,26.8z M32,6v20c0,3.3-2.7,6-6,6H6c-3.3,0-6-2.7-6-6V6
	c0-3.3,2.7-6,6-6h20C29.3,0,32,2.7,32,6z"/>
</svg>
