<svg version="1.1" id="e06dd17a-c355-4c4f-9b52-cf32e5f55c23"
	 xmlns="http://www.w3.org/2000/svg" xmlns:xlink="http://www.w3.org/1999/xlink" x="0px" y="0px" viewBox="0 0 32 30.6"
	 enable-background="new 0 0 32 30.6" xml:space="preserve">
<path d="M7.3,9.9v20.6H0.4V9.9H7.3z M7.7,3.6c0,2-1.6,3.6-3.5,3.6c-0.1,0-0.2,0-0.3,0l0,0C1.9,7.3,0.2,5.8,0,3.8S1.4,0.1,3.3,0
	c0.2,0,0.4,0,0.5,0c2-0.2,3.7,1.3,3.8,3.2C7.7,3.4,7.7,3.5,7.7,3.6z M32,18.7v11.8h-6.9v-11c0-2.8-1-4.7-3.5-4.7c-1.6,0-3,1-3.5,2.5
	c-0.2,0.5-0.2,1.1-0.2,1.7v11.5H11c0.1-18.7,0-20.6,0-20.6h6.9v3l0,0c1.3-2.2,3.7-3.6,6.2-3.5C28.6,9.5,32,12.5,32,18.7z"/>
</svg>
