<?xml version="1.0" encoding="UTF-8"?>
<svg width="13px" height="13px" viewBox="0 0 13 13" version="1.1" xmlns="http://www.w3.org/2000/svg" xmlns:xlink="http://www.w3.org/1999/xlink">
    <path d="M3.25,9.75 L3.25,13 L0,13 L0,9.75 L3.25,9.75 Z M13,10.5625 L13,12.1875 L4.875,12.1875 L4.875,10.5625 L13,10.5625 Z M3.25,4.875 L3.25,8.125 L0,8.125 L0,4.875 L3.25,4.875 Z M13,5.6875 L13,7.3125 L4.875,7.3125 L4.875,5.6875 L13,5.6875 Z M3.25,0 L3.25,3.25 L0,3.25 L0,0 L3.25,0 Z M13,0.8125 L13,2.4375 L4.875,2.4375 L4.875,0.8125 L13,0.8125 Z" id="path-1" fill="000000"></path>
</svg>