<?xml version="1.0" encoding="utf-8"?>
<!DOCTYPE svg PUBLIC "-//W3C//DTD SVG 1.1//EN" "http://www.w3.org/Graphics/SVG/1.1/DTD/svg11.dtd">
<svg xmlns="http://www.w3.org/2000/svg" xmlns:xlink="http://www.w3.org/1999/xlink" version="1.1" baseProfile="full" width="24" height="24" viewBox="0 0 24.00 24.00" enable-background="new 0 0 24.00 24.00" xml:space="preserve">
  <path d="M18.4,10h-0.6l0-3c0-3.3-2.7-5.9-5.9-5.9S5.9,3.7,5.9,6.9l0,3H5.6c-1.1,0-2,0.9-2,2v9c0,1.1,0.9,2,2,2l12.7,0
	c1.1,0,2-0.9,2-2v-9C20.4,10.9,19.5,10,18.4,10z M8,10l0-3c0-2.1,1.7-3.8,3.8-3.8c2.1,0,3.8,1.7,3.8,3.8l0,3L8,10z"/>
</svg>
