<svg version="1.1" id="Layer_1" xmlns="http://www.w3.org/2000/svg" xmlns:xlink="http://www.w3.org/1999/xlink" x="0px" y="0px"
	 viewBox="0 0 24 24" enable-background="new 0 0 24 24" xml:space="preserve">
<path id="Lock" fill-rule="evenodd" clip-rule="evenodd" d="M20,20c0,0.5-0.5,1-1,1H5c-0.6,0-1-0.5-1-1v-7c0-0.6,0.4-1,1-1h14
	c0.5,0,1,0.4,1,1V20z M8,7c0-2.2,1.8-4,4-4s4,1.8,4,4v3H8V7z M19,10h-1V7c0-3.3-2.7-6-6-6S6,3.7,6,7v3H5c-1.7,0-3,1.3-3,3v7
	c0,1.7,1.3,3,3,3h14c1.7,0,3-1.3,3-3v-7C22,11.3,20.7,10,19,10L19,10z"/>
</svg>
