<?xml version="1.0" encoding="utf-8"?>
<!-- Generator: Adobe Illustrator 24.0.3, SVG Export Plug-In . SVG Version: 6.00 Build 0)  -->
<svg version="1.1" id="Layer_1" xmlns="http://www.w3.org/2000/svg" xmlns:xlink="http://www.w3.org/1999/xlink" x="0px" y="0px"
	 viewBox="0 0 20 24" enable-background="new 0 0 20 24" xml:space="preserve">
<path d="M10,0C4.5,0,0,4.5,0,10c0,1.9,0.6,3.8,1.5,5.5c0.9,1.6,2,3,3.2,4.3c1.4,1.5,3,2.8,4.7,4c0.3,0.2,0.8,0.2,1.1,0
	c1.7-1.2,3.2-2.5,4.7-4c1.3-1.3,2.4-2.8,3.2-4.3c1-1.7,1.5-3.5,1.5-5.5C20,4.5,15.5,0,10,0z M10,14c-2.2,0-4-1.8-4-4s1.8-4,4-4
	s4,1.8,4,4S12.2,14,10,14z"/>
</svg>
