<svg version="1.1" id="Layer_1" xmlns="http://www.w3.org/2000/svg" xmlns:xlink="http://www.w3.org/1999/xlink" x="0px" y="0px"
	 viewBox="0 0 24 24" enable-background="new 0 0 24 24" xml:space="preserve">
<path fill="#1f2555" d="M12,0C6.5,0,2,4.5,2,10c0,1.8,0.5,3.6,1.5,5.5c0.8,1.4,1.9,2.9,3.2,4.3c2.3,2.4,4.6,4,4.7,4c0.2,0.1,0.4,0.2,0.6,0.2
	s0.4-0.1,0.6-0.2c0.1-0.1,2.4-1.6,4.7-4c1.4-1.4,2.5-2.9,3.2-4.3c1-1.9,1.5-3.7,1.5-5.5C22,4.5,17.5,0,12,0z M12,21.8
	c-1.9-1.4-8-6.4-8-11.8c0-4.4,3.6-8,8-8s8,3.6,8,8C20,15.4,13.9,20.4,12,21.8z M12,6c-2.2,0-4,1.8-4,4s1.8,4,4,4s4-1.8,4-4
	S14.2,6,12,6z M12,12c-1.1,0-2-0.9-2-2s0.9-2,2-2s2,0.9,2,2S13.1,12,12,12z"/>
</svg>
