<?xml version="1.0" encoding="utf-8"?>
<!-- Generator: Adobe Illustrator 24.0.3, SVG Export Plug-In . SVG Version: 6.00 Build 0)  -->
<svg version="1.1" id="Layer_1" xmlns="http://www.w3.org/2000/svg" xmlns:xlink="http://www.w3.org/1999/xlink" x="0px" y="0px"
	 viewBox="0 0 24 24" enable-background="new 0 0 24 24" xml:space="preserve">
<path fill-rule="evenodd" clip-rule="evenodd" d="M12.1,10c-1.1,0-2,0.9-2,2s0.9,2,2,2s2-0.9,2-2S13.2,10,12.1,10z M4,10
	c-1.1,0-2,0.9-2,2s0.9,2,2,2s2-0.9,2-2S5.1,10,4,10z M20.1,10c-1.1,0-2,0.9-2,2s0.9,2,2,2s2-0.9,2-2S21.2,10,20.1,10z"/>
</svg>
