<?xml version="1.0" encoding="utf-8"?>
<!-- Generator: Adobe Illustrator 24.0.3, SVG Export Plug-In . SVG Version: 6.00 Build 0)  -->
<svg version="1.1" id="Layer_1" xmlns="http://www.w3.org/2000/svg" xmlns:xlink="http://www.w3.org/1999/xlink" x="0px" y="0px"
	 viewBox="0 0 24 24" enable-background="new 0 0 24 24" xml:space="preserve">
<path id="Fill-1" fill-rule="evenodd" clip-rule="evenodd" d="M19.3,7.3l-2.6-2.6c1.4-1.4,2.5-2.7,3.9-1.3C22,4.9,20.7,5.9,19.3,7.3
	L19.3,7.3z M6.9,19.7C5.4,21.2,3,21,3,21s-0.1-2.5,1.3-3.9l8.5-8.5l2.6,2.6L6.9,19.7z M18,8.6l-1.3,1.3l-2.6-2.6L15.4,6L18,8.6z
	 M21.9,2.1c-2.2-2.2-4.4-0.9-6.5,1.3L3,15.8C0.8,18,1,23,1,23s5,0.2,7.2-2L20.6,8.6C22.7,6.5,24,4.3,21.9,2.1L21.9,2.1z"/>
</svg>
