<svg version="1.1" id="Layer_1" xmlns="http://www.w3.org/2000/svg" xmlns:xlink="http://www.w3.org/1999/xlink" x="0px" y="0px"
	 viewBox="0 0 24 24" enable-background="new 0 0 24 24" xml:space="preserve">
<path fill-rule="evenodd" clip-rule="evenodd" d="M19.7,8.9c-0.6,0-1,0.5-1,1V12c0,3.4-2.8,6.3-6.3,6.3c-3.4,0-6.3-2.8-6.3-6.3V9.9
	c0-0.6-0.5-1-1-1c-0.6,0-1,0.5-1,1V12c0,4.3,3.2,7.8,7.3,8.3v1.6H8.2c-0.6,0-1,0.5-1,1c0,0.6,0.5,1,1,1h8.3c0.6,0,1-0.5,1-1
	c0-0.6-0.5-1-1-1h-3.1v-1.6c4.1-0.5,7.3-4,7.3-8.3V9.9C20.7,9.3,20.2,8.9,19.7,8.9z M12.3,16.2c2.3,0,4.2-1.9,4.2-4.2V4.2
	c0-2.3-1.9-4.2-4.2-4.2S8.2,1.9,8.2,4.2V12C8.2,14.3,10,16.2,12.3,16.2z M10.3,4.2c0-1.1,0.9-2.1,2.1-2.1c1.1,0,2.1,0.9,2.1,2.1V12
	c0,1.1-0.9,2.1-2.1,2.1c-1.1,0-2.1-0.9-2.1-2.1C10.3,12,10.3,4.2,10.3,4.2z"/>
</svg>
