<svg version="1.1" id="Layer_1" xmlns="http://www.w3.org/2000/svg" xmlns:xlink="http://www.w3.org/1999/xlink" x="0px" y="0px"
	 viewBox="0 0 24 24" enable-background="new 0 0 24 24" xml:space="preserve">
<path d="M23,3.5c-0.5,0-1,0.5-1,1v3.7l-2.9-2.8c-1.9-1.9-4.4-2.9-7.1-2.9c-2.1,0-4.1,0.6-5.8,1.9C4.5,5.6,3.3,7.2,2.6,9.2
	c-0.2,0.5,0.1,1.1,0.6,1.3s1.1-0.1,1.3-0.6C5,8.3,6,7,7.3,6c1.4-1,3-1.5,4.6-1.5c2.1,0,4.1,0.8,5.7,2.3l0,0l2.8,2.6H17
	c-0.5,0-1,0.5-1,1s0.5,1,1,1h6l0,0h0.1l0,0l0,0l0,0c0.1,0,0.2,0,0.3-0.1c0.1,0,0.3-0.1,0.4-0.2c0.1-0.1,0.2-0.2,0.2-0.3l0,0l0,0l0,0
	l0,0l0,0c0-0.1,0-0.2,0-0.2l0,0l0,0l0,0l0,0l0,0l0,0l0,0v-6l0,0C24,4,23.5,3.5,23,3.5z M20.8,14.6L20.8,14.6
	c-0.5-0.2-1.1,0.1-1.3,0.6c-1.1,3.2-4.2,5.3-7.5,5.3c-2.1,0-4.2-0.8-5.7-2.3l0,0l-2.8-2.6H7c0.6,0,1-0.5,1-1s-0.4-1-1-1H1
	c-0.1,0-0.3,0-0.4,0.1l0,0l0,0l0,0c-0.1,0-0.2,0.1-0.2,0.2l0,0l0,0l0,0l0,0l0,0c0,0,0,0-0.1,0.1s-0.1,0.1-0.1,0.2l0,0l0,0l0,0l0,0
	C0,14.2,0,14.3,0,14.4l0,0v6c0,0.5,0.5,1,1,1s1-0.5,1-1v-3.7l3,2.9c1.9,1.9,4.4,2.9,7.1,2.9c4.2,0,8-2.6,9.4-6.6
	C21.6,15.4,21.3,14.8,20.8,14.6z"/>
</svg>
