<svg version="1.1" id="Layer_1" xmlns="http://www.w3.org/2000/svg" xmlns:xlink="http://www.w3.org/1999/xlink" x="0px" y="0px"
	 viewBox="0 0 24 24" enable-background="new 0 0 24 24" xml:space="preserve">
<path id="Fill-1" fill="#1f2555" fill-rule="evenodd" clip-rule="evenodd" d="M9.5,15C6.5,15,4,12.6,4,9.5C4,6.5,6.5,4,9.5,4S15,6.5,15,9.5
	C15,12.6,12.6,15,9.5,15 M21.7,20.3l-6.2-6.2c1-1.3,1.6-2.8,1.6-4.6C17,5.4,13.7,2,9.5,2S2,5.4,2,9.5S5.4,17,9.5,17
	c1.7,0,3.3-0.6,4.6-1.6l6.2,6.2c0.2,0.2,0.5,0.3,0.7,0.3c0.3,0,0.5-0.1,0.7-0.3C22.1,21.3,22.1,20.7,21.7,20.3"/>
</svg>
