<?xml version="1.0" encoding="utf-8"?>
<!-- Generator: Adobe Illustrator 24.0.3, SVG Export Plug-In . SVG Version: 6.00 Build 0)  -->
<svg version="1.1" id="a0fefde2-6f31-4e17-852a-889f8684f22b"
	 xmlns="http://www.w3.org/2000/svg" xmlns:xlink="http://www.w3.org/1999/xlink" x="0px" y="0px" viewBox="0 0 28 30"
	 enable-background="new 0 0 28 30" xml:space="preserve">
<path d="M22,18c-1.9,0-3.6,0.9-4.8,2.4l-5.4-3.1c0.1-0.4,0.1-0.9,0.2-1.3c0-0.6-0.1-1.2-0.3-1.8l6.4-3.7c1.1,0.9,2.5,1.5,3.9,1.5
	c3.3,0,6-2.7,6-6s-2.7-6-6-6s-6,2.7-6,6c0,0.4,0,0.7,0.1,1.1L9.3,11C6.6,9.2,2.8,9.9,1,12.7s-1.1,6.5,1.7,8.3c1,0.7,2.1,1,3.3,1
	c1.4,0,2.7-0.5,3.7-1.3l6.3,3.7c0.2,3.3,3,5.8,6.3,5.7s5.8-3,5.7-6.3C27.8,20.5,25.2,18,22,18z M22,4c1.1,0,2,0.9,2,2s-0.9,2-2,2
	s-2-0.9-2-2S20.9,4,22,4z M6,18c-1.1,0-2-0.9-2-2s0.9-2,2-2s2,0.9,2,2S7.1,18,6,18z M22,26c-1.1,0-2-0.9-2-2s0.9-2,2-2s2,0.9,2,2
	S23.1,26,22,26z"/>
</svg>
