<?xml version="1.0" encoding="UTF-8" standalone="no"?>
<svg width="24px" height="24px" viewBox="0 0 24 24" version="1.1" xmlns="http://www.w3.org/2000/svg" xmlns:xlink="http://www.w3.org/1999/xlink">
    <!-- Generator: Sketch 46.2 (44496) - http://www.bohemiancoding.com/sketch -->
    <title>Icon/utility/Indigo/24px/Share2</title>
    <desc>Created with Sketch.</desc>
    <defs>
        <polygon id="path-1" points="22 -0.0001 22 17.5857 0.000603443176 17.5857 0.000603443176 -0.0001 22 -0.0001"></polygon>
    </defs>
    <g id="Symbols" stroke="none" stroke-width="1" fill="none" fill-rule="evenodd">
        <g id="Icon/utility/Indigo/24px/Share2">
            <rect id="Rectangle-6" x="0" y="0" width="24" height="24"></rect>
            <g id="Share" transform="translate(1.000000, 3.000000)">
                <g id="Clip-2"></g>
                <path d="M21.7461,7.1049 L12.6141,0.1439 C12.4831,0.0479 12.3221,-0.0001 12.1591,-0.0001 C12.0531,-0.0001 11.9461,0.0209 11.8481,0.0619 C11.5951,0.1689 11.4341,0.3969 11.4341,0.6449 L11.4391,4.3929 C7.4441,4.5129 4.6001,5.6659 2.5951,7.8989 C-0.6699,11.5309 0.0591,16.8109 0.0931,17.0299 C0.1431,17.3499 0.3901,17.5859 0.7291,17.5859 L0.7531,17.5859 C1.1001,17.5739 1.3201,17.3179 1.3501,16.9889 C1.3731,16.7459 1.8261,10.5529 11.4391,10.5529 L11.4341,14.3189 C11.4341,14.5659 11.5951,14.7929 11.8491,14.8979 C11.9461,14.9409 12.0521,14.9599 12.1571,14.9599 C12.3211,14.9599 12.4851,14.9109 12.6171,14.8129 L21.7481,8.1179 C21.9081,7.9919 22.0001,7.8069 22.0001,7.6099 C21.9991,7.4149 21.9061,7.2289 21.7461,7.1049" id="Fill-1" fill="#1F2555" mask="url(#mask-2)"></path>
            </g>
        </g>
    </g>
</svg>