<?xml version="1.0" encoding="UTF-8"?>
<svg width="16px" height="16px" viewBox="0 0 16 16" version="1.1" xmlns="http://www.w3.org/2000/svg" xmlns:xlink="http://www.w3.org/1999/xlink">
    <!-- Generator: Sketch 49.3 (51167) - http://www.bohemiancoding.com/sketch -->
    <title>Artboard</title>
    <desc>Created with Sketch.</desc>
    <defs></defs>
    <g id="Artboard" stroke="none" stroke-width="1" fill="none" fill-rule="evenodd">
        <g id="icon/light-theme/action/social/share" fill="#E64B17">
            <g id="Group-3" transform="translate(1.000000, 0.500000)">
                <path d="M3,11 C1.34314575,11 0,9.65685425 0,8 C0,6.34314575 1.34314575,5 3,5 C4.65685425,5 6,6.34314575 6,8 C6,9.65685425 4.65685425,11 3,11 Z M3,9 C3.55228475,9 4,8.55228475 4,8 C4,7.44771525 3.55228475,7 3,7 C2.44771525,7 2,7.44771525 2,8 C2,8.55228475 2.44771525,9 3,9 Z" id="Oval-2" fill-rule="nonzero"></path>
                <rect id="Rectangle-5" transform="translate(6.897114, 5.366025) rotate(-30.000000) translate(-6.897114, -5.366025) " x="3.89711432" y="4.3660254" width="6" height="2"></rect>
                <rect id="Rectangle-5" transform="translate(6.897114, 10.366025) scale(1, -1) rotate(-30.000000) translate(-6.897114, -10.366025) " x="3.89711432" y="9.3660254" width="6" height="2"></rect>
                <path d="M11,6 C9.34314575,6 8,4.65685425 8,3 C8,1.34314575 9.34314575,0 11,0 C12.6568542,0 14,1.34314575 14,3 C14,4.65685425 12.6568542,6 11,6 Z M11,4 C11.5522847,4 12,3.55228475 12,3 C12,2.44771525 11.5522847,2 11,2 C10.4477153,2 10,2.44771525 10,3 C10,3.55228475 10.4477153,4 11,4 Z" id="Oval-2" fill-rule="nonzero"></path>
                <path d="M11,15 C9.34314575,15 8,13.6568542 8,12 C8,10.3431458 9.34314575,9 11,9 C12.6568542,9 14,10.3431458 14,12 C14,13.6568542 12.6568542,15 11,15 Z M11,13 C11.5522847,13 12,12.5522847 12,12 C12,11.4477153 11.5522847,11 11,11 C10.4477153,11 10,11.4477153 10,12 C10,12.5522847 10.4477153,13 11,13 Z" id="Oval-2" fill-rule="nonzero"></path>
            </g>
        </g>
    </g>
</svg>