<svg id="a0fefde2-6f31-4e17-852a-889f8684f22b" data-name="Layer 1" xmlns="http://www.w3.org/2000/svg" viewBox="0 0 28.01 30.01"><title>share</title><path d="M24,19a6,6,0,0,0-4.77,2.4l-5.38-3.1A6.16,6.16,0,0,0,14,17a5.94,5.94,0,0,0-.29-1.75l6.41-3.71A5.93,5.93,0,0,0,24,13a6,6,0,1,0-6-6,6.38,6.38,0,0,0,.11,1.08L11.32,12A6,6,0,1,0,8,23a5.91,5.91,0,0,0,3.71-1.32L18,25.34A6,6,0,1,0,24,19ZM24,5a2,2,0,1,1-2,2A2,2,0,0,1,24,5ZM8,19a2,2,0,1,1,2-2A2,2,0,0,1,8,19Zm16,8a2,2,0,1,1,2-2A2,2,0,0,1,24,27Z" transform="translate(-2 -1)" fill="#1f2555"/></svg>