<?xml version="1.0" encoding="utf-8"?>
<!-- Generator: Adobe Illustrator 24.0.3, SVG Export Plug-In . SVG Version: 6.00 Build 0)  -->
<svg version="1.1" id="Layer_1" xmlns="http://www.w3.org/2000/svg" xmlns:xlink="http://www.w3.org/1999/xlink" x="0px" y="0px"
	 viewBox="0 0 13.2 17.1" enable-background="new 0 0 13.2 17.1" xml:space="preserve">
<path d="M0.6,5.1L1.4,11c0.2,1.9,0.5,3.8,0.7,5.7c0,0.1,0.1,0.3,0.2,0.4h8.6c0.1-0.1,0.2-0.3,0.2-0.4c0.3-2.2,0.5-4.4,0.8-6.6
	l0.7-5.4c0-0.1,0-0.1,0-0.2l-11.9,0C0.6,4.6,0.6,4.8,0.6,5.1z M8.7,12.2c0.1-1,0.2-2,0.2-3C9,8.4,9.1,7.6,9.1,6.8
	c0-0.3,0.2-0.5,0.5-0.5c0.3,0,0.5,0.3,0.5,0.6c0,0.4-0.1,0.7-0.1,1c-0.1,1-0.2,2-0.2,3c-0.1,1.2-0.2,2.4-0.3,3.6
	C9.5,14.8,9.3,15,9,15c-0.3,0-0.5-0.3-0.5-0.6L8.7,12.2z M6,7c0-0.3,0.2-0.5,0.5-0.6C6.8,6.4,7,6.6,7,7v7.5c0,0.2-0.1,0.4-0.3,0.5
	c-0.2,0.1-0.4,0.1-0.5-0.1C6.1,14.8,6,14.6,6,14.4V7z M3.7,6.5C3.8,6.5,4,6.7,4,6.9l0.2,2.8c0.1,1,0.2,2,0.2,3
	c0,0.6,0.1,1.2,0.1,1.8c0,0.3-0.2,0.5-0.5,0.6c-0.3,0-0.5-0.2-0.5-0.6L3.2,9.1c0-0.7-0.1-1.4-0.2-2C3,6.6,3.3,6.3,3.7,6.5z
	 M12.3,1.7c-0.1,0-0.1,0-0.2,0H9.5V1.4c0-0.6-0.4-1.2-1-1.4L8.3,0H4.9C4.3,0.1,3.8,0.6,3.7,1.2c0,0.1,0,0.3,0,0.4H0.9
	C0.4,1.6,0.1,2,0,2.4v1.2h13.2V2.7C13.3,2.2,12.9,1.7,12.3,1.7z M8.5,1.7L8.5,1.7l-3.9,0C4.6,1.4,4.7,1.1,5,1c0.1,0,0.1,0,0.2,0H8
	c0.3,0,0.5,0.2,0.6,0.4C8.6,1.5,8.6,1.6,8.5,1.7z"/>
</svg>
