<svg id="Layer_1" data-name="Layer 1" xmlns="http://www.w3.org/2000/svg" xmlns:xlink="http://www.w3.org/1999/xlink" viewBox="0 0 13.21 17.08"><defs><mask id="mask" x="0.56" y="4.38" width="11.96" height="12.7" maskUnits="userSpaceOnUse"><g transform="translate(-676.6 -375.51)"><g id="mask-2"><polygon id="path-1" points="677.15 379.89 689.11 379.89 689.11 392.59 677.15 392.59 677.15 379.89" fill="#fff" fill-rule="evenodd"/></g></g></mask><mask id="mask-2-2" x="0" y="0" width="13.21" height="3.66" maskUnits="userSpaceOnUse"><g transform="translate(-676.6 -375.51)"><g id="mask-4"><polygon id="path-3" points="676.6 375.51 689.81 375.51 689.81 379.17 676.6 379.17 676.6 375.51" fill="#fff" fill-rule="evenodd"/></g></g></mask></defs><title>trash</title><g mask="url(#mask)"><path id="Fill-1" d="M683.63,386.24v-3.76c0-.37-.23-.61-.53-.59a.54.54,0,0,0-.46.59V390a.59.59,0,0,0,.2.5.42.42,0,0,0,.52.06.58.58,0,0,0,.27-.53v-3.74Zm1.48,3.68a.55.55,0,0,0,.44.63.51.51,0,0,0,.54-.51c.1-1.2.19-2.41.28-3.62.08-1,.16-2,.23-3,0-.32.06-.63.07-.95a.53.53,0,0,0-.46-.57.52.52,0,0,0-.52.49l-.18,2.37c-.08,1-.16,2-.23,3Zm-4,0c0-.59-.09-1.19-.14-1.79-.07-1-.15-2-.23-3l-.21-2.76a.5.5,0,0,0-.33-.46c-.35-.15-.68.17-.65.63,0,.68.11,1.36.16,2l.42,5.38c0,.35.23.57.52.56a.54.54,0,0,0,.46-.62Zm6.27,2.66h-8.59a.53.53,0,0,1-.18-.38q-.35-2.86-.7-5.71t-.73-5.91c0-.23-.05-.46-.08-.7h12a1.15,1.15,0,0,1,0,.19l-.67,5.45q-.42,3.33-.82,6.64a.58.58,0,0,1-.18.42Z" transform="translate(-676.6 -375.51)" fill-rule="evenodd"/></g><g mask="url(#mask-2-2)"><path id="Fill-4" d="M685.15,377.16a.51.51,0,0,0-.52-.7h-2.84a.51.51,0,0,0-.54.7Zm-.29-1.65.26.07a1.44,1.44,0,0,1,1,1.37v.21h2.54a1,1,0,0,1,1.12,1.09v.91h-13.2c0-.41,0-.82,0-1.22a.92.92,0,0,1,.86-.77c.37,0,.74,0,1.11,0h1.65a2.81,2.81,0,0,1,0-.43,1.42,1.42,0,0,1,1.2-1.2l.07,0Z" transform="translate(-676.6 -375.51)" fill-rule="evenodd"/></g></svg>