<svg id="Layer_1" data-name="Layer 1"
  xmlns="http://www.w3.org/2000/svg" viewBox="0 0 13.21 17.08">
  <title>util-trash</title>
  <g id="Asset-Artboard-Page">
    <g id="utility-icons_discussion_util-heart-copy-utility-icons_action_trashcan" data-name="utility-icons/discussion/util-heart-copy-utility-icons/action/trashcan">
      <g id="Group-7">
        <path fill="#1f2555" d="M1.56,4.38c0,.24.05.47.08.7L2.36,11c.24,1.91.47,3.81.71,5.72a.52.52,0,0,0,.17.38h8.59a.58.58,0,0,0,.18-.42c.27-2.21.55-4.43.82-6.64l.67-5.45a1.15,1.15,0,0,0,0-.19ZM5.1,15c-.29,0-.5-.21-.52-.56L4.16,9.1c0-.68-.11-1.36-.16-2,0-.46.3-.78.65-.63A.5.5,0,0,1,5,6.89l.21,2.76c.08,1,.16,2,.23,3,0,.6.1,1.2.14,1.79A.54.54,0,0,1,5.1,15Zm2.66,0a.42.42,0,0,1-.52-.06.59.59,0,0,1-.2-.5c0-1.32,0-2.63,0-3.95,0-1.17,0-2.35,0-3.52a.53.53,0,0,1,.45-.59c.3,0,.53.22.53.59v7.5A.58.58,0,0,1,7.76,15ZM11,7.91c-.07,1-.15,2-.23,3-.09,1.21-.18,2.42-.28,3.62A.5.5,0,0,1,10,15c-.28,0-.45-.28-.45-.63l.17-2.16c.08-1,.15-2,.23-3,.06-.79.12-1.58.19-2.37a.51.51,0,0,1,.51-.49.53.53,0,0,1,.46.57C11.06,7.28,11,7.59,11,7.91Z" transform="translate(-1 0)"/>
        <path fill="#1f2555" d="M13.09,1.66H10.55V1.44a1.45,1.45,0,0,0-1-1.37L9.26,0H5.94L5.87,0a1.44,1.44,0,0,0-1.2,1.2,2.81,2.81,0,0,0,0,.43H3c-.37,0-.74,0-1.11,0A.92.92,0,0,0,1,2.44c0,.4,0,.81,0,1.22h13.2V2.75A1,1,0,0,0,13.09,1.66Zm-3.54,0H5.65A.51.51,0,0,1,6.19,1H9A.51.51,0,0,1,9.55,1.65Z" transform="translate(-1 0)"/>
      </g>
    </g>
  </g>
</svg>