<svg data-name="Layer 1" xmlns="http://www.w3.org/2000/svg" viewBox="0 0 13.21 17.08"><defs><mask id="a" x=".56" y="4.38" width="11.96" height="12.7" maskUnits="userSpaceOnUse"><path fill="#FFFFFF" fill-rule="evenodd" d="M677.15 379.89h11.96v12.7h-11.96v-12.7z" transform="translate(-676.6 -375.51)"/></mask><mask id="b" x="0" y="0" width="13.21" height="3.66" maskUnits="userSpaceOnUse"><path fill="#FFFFFF" fill-rule="evenodd" d="M676.6 375.51h13.21v3.66H676.6v-3.66z" transform="translate(-676.6 -375.51)"/></mask></defs><g mask="url(#a)"><path d="M7.03 10.73V6.97c0-.37-.23-.61-.53-.59a.54.54 0 00-.46.59v7.52a.59.59 0 00.2.5.42.42 0 00.52.06.58.58 0 00.27-.53v-3.74zm1.48 3.68a.55.55 0 00.44.63.51.51 0 00.54-.51c.1-1.2.19-2.41.28-3.62.08-1 .16-2 .23-3 0-.32.06-.63.07-.95a.53.53 0 00-.46-.57.52.52 0 00-.52.49l-.18 2.37c-.08 1-.16 2-.23 3zm-4 0c0-.59-.09-1.19-.14-1.79-.07-1-.15-2-.23-3l-.21-2.76a.5.5 0 00-.33-.46c-.35-.15-.68.17-.65.63 0 .68.11 1.36.16 2l.42 5.38c0 .35.23.57.52.56a.54.54 0 00.46-.62zm6.27 2.66H2.19a.53.53 0 01-.18-.38l-.7-5.71Q.96 8.13.58 5.07c0-.23-.05-.46-.08-.7h12a1.15 1.15 0 010 .19l-.67 5.45q-.42 3.33-.82 6.64a.58.58 0 01-.18.42z" fill-rule="evenodd"/></g><g mask="url(#b)"><path d="M8.55 1.65a.51.51 0 00-.52-.7H5.19a.51.51 0 00-.54.7zM8.26 0l.26.07a1.44 1.44 0 011 1.37v.21h2.54a1 1 0 011.12 1.09v.91H-.02V2.43a.92.92 0 01.86-.77H3.6a2.81 2.81 0 010-.43A1.42 1.42 0 014.8.03h.07z" fill-rule="evenodd"/></g></svg>
