<?xml version="1.0" encoding="utf-8"?>
<!-- Generator: Adobe Illustrator 24.0.3, SVG Export Plug-In . SVG Version: 6.00 Build 0)  -->
<svg version="1.1" id="bcd2d9f6-5dbb-4e9a-8729-63605555a41a"
	 xmlns="http://www.w3.org/2000/svg" xmlns:xlink="http://www.w3.org/1999/xlink" x="0px" y="0px" viewBox="0 0 32 26"
	 enable-background="new 0 0 32 26" xml:space="preserve">
<path d="M32,3.1c-0.9,1.3-2,2.5-3.3,3.4c0,0.3,0,0.6,0,0.9C28.7,16,22.1,26,10.1,26C6.5,26,3,25,0,23c0.5,0.1,1.1,0.1,1.6,0.1
	c3,0,5.8-1,8.1-2.8c-2.8-0.1-5.3-1.9-6.1-4.6c0.4,0.1,0.8,0.1,1.2,0.1c0.6,0,1.2-0.1,1.7-0.2c-3-0.6-5.2-3.3-5.2-6.4V9.1
	c0.9,0.5,1.9,0.8,3,0.8C1.4,8,0.6,4.2,2.3,1.2c3.3,4.1,8.3,6.6,13.5,6.9c-0.1-0.5-0.2-1-0.2-1.5C15.7,3,18.6,0,22.1,0
	c1.8,0,3.6,0.7,4.8,2.1c1.5-0.3,2.9-0.8,4.2-1.6c-0.5,1.5-1.5,2.8-2.9,3.6C29.5,4,30.8,3.6,32,3.1L32,3.1z"/>
</svg>
