<svg version="1.1" id="bab8a32b-aa67-40e7-b194-5eb76e360fa5"
	 xmlns="http://www.w3.org/2000/svg" xmlns:xlink="http://www.w3.org/1999/xlink" x="0px" y="0px" viewBox="0 0 32 32"
	 enable-background="new 0 0 32 32" xml:space="preserve">
<path d="M26.7,10c-0.8,0.4-1.6,0.6-2.5,0.7c0.9-0.6,1.6-1.4,1.9-2.4c-0.9,0.5-1.8,0.9-2.8,1.1c-1.7-1.8-4.4-1.8-6.2-0.2
	c-0.9,0.8-1.4,2-1.4,3.2c0,0.3,0,0.7,0.1,1c-3.5-0.2-6.8-1.8-9-4.6C6.4,9.4,6.2,10.2,6.2,11c0,1.5,0.7,2.8,1.9,3.6
	c-0.7,0-1.4-0.2-2.1-0.5v0.1c0,2.1,1.5,3.9,3.6,4.3c-0.3,0.1-0.7,0.2-1.1,0.2c-0.3,0-0.5,0-0.8-0.1c0.6,1.8,2.2,3,4.1,3
	c-1.6,1.2-3.5,1.9-5.4,1.9c-0.3,0-0.7,0-1-0.1c5.8,3.7,13.5,2,17.2-3.9c1.3-2,1.9-4.3,1.9-6.6c0-0.2,0-0.4,0-0.6
	C25.4,11.7,26.1,10.9,26.7,10z M32,6v20c0,3.3-2.7,6-6,6H6c-3.3,0-6-2.7-6-6V6c0-3.3,2.7-6,6-6h20C29.3,0,32,2.7,32,6z"/>
</svg>
