<svg id="bcd2d9f6-5dbb-4e9a-8729-63605555a41a" data-name="Layer 1" xmlns="http://www.w3.org/2000/svg" viewBox="0 0 32 25.99"><title>twitter</title><path d="M32,6.09a13.94,13.94,0,0,1-3.29,3.39c0,.29,0,.57,0,.85C28.73,19,22.13,29,10.07,29A18.51,18.51,0,0,1,0,26.05a13.82,13.82,0,0,0,1.58.08,13.14,13.14,0,0,0,8.15-2.8,6.58,6.58,0,0,1-6.14-4.55,8.52,8.52,0,0,0,1.24.1,7.07,7.07,0,0,0,1.73-.22A6.56,6.56,0,0,1,1.3,12.22v-.08a6.55,6.55,0,0,0,3,.83,6.58,6.58,0,0,1-2-8.77,18.64,18.64,0,0,0,13.53,6.86,7.41,7.41,0,0,1-.17-1.5A6.56,6.56,0,0,1,22.15,3a6.49,6.49,0,0,1,4.79,2.08,13.07,13.07,0,0,0,4.17-1.59A6.56,6.56,0,0,1,28.22,7.1a13,13,0,0,0,3.78-1Z" transform="translate(0 -3)" fill="#1f2555"/></svg>