<svg id="bab8a32b-aa67-40e7-b194-5eb76e360fa5" data-name="Layer 1" xmlns="http://www.w3.org/2000/svg" viewBox="0 0 32 32"><title>twitter-solid</title><path d="M26.67,10a9,9,0,0,1-2.52.71,4.43,4.43,0,0,0,1.93-2.44,8.49,8.49,0,0,1-2.79,1.06,4.38,4.38,0,0,0-7.56,3,4.09,4.09,0,0,0,.1,1,12.4,12.4,0,0,1-9-4.58A4.51,4.51,0,0,0,6.19,11a4.32,4.32,0,0,0,1.89,3.65A5.27,5.27,0,0,1,6,14.1v.05a4.46,4.46,0,0,0,3.6,4.29,3.73,3.73,0,0,1-1.06.16,5.56,5.56,0,0,1-.81-.08,4.39,4.39,0,0,0,4.08,3,8.79,8.79,0,0,1-5.44,1.88,8.93,8.93,0,0,1-1-.07A12.46,12.46,0,0,0,24.5,12.87a5.33,5.33,0,0,0,0-.56A8.46,8.46,0,0,0,26.67,10ZM32,6V26a6,6,0,0,1-6,6H6a6,6,0,0,1-6-6V6A6,6,0,0,1,6,0H26A6,6,0,0,1,32,6Z" fill="#1f2555"/></svg>