<svg version="1.1" id="Layer_1" xmlns="http://www.w3.org/2000/svg" xmlns:xlink="http://www.w3.org/1999/xlink" x="0px" y="0px"
	 viewBox="0 0 24 24" enable-background="new 0 0 24 24" xml:space="preserve">
<path fill-rule="evenodd" clip-rule="evenodd" d="M19,19.5H5c-0.5,0-1,0.4-1,1c0,0.5,0.4,1,1,1h14c0.5,0,1-0.4,1-1
	C20,20,19.6,19.5,19,19.5z M6.7,10.7h2.5V18h5.3v-7.3h2.6c0.3,0,0.5-0.2,0.7-0.4C18,10.2,18,10.1,18,10c0-0.2-0.1-0.3-0.2-0.4
	l-5.2-6.3C12.4,3.1,12.2,3,12,3s-0.5,0.1-0.6,0.3l0,0L6.2,9.6C6,9.8,5.9,10,6.1,10.3C6.2,10.5,6.5,10.7,6.7,10.7z"/>
</svg>
