<svg version="1.1" id="Layer_1" xmlns="http://www.w3.org/2000/svg" xmlns:xlink="http://www.w3.org/1999/xlink" x="0px" y="0px"
	 viewBox="0 0 24 24" enable-background="new 0 0 24 24" xml:space="preserve">
<path id="Fill-1" fill="#1f2555" fill-rule="evenodd" clip-rule="evenodd" d="M19,17.6c-1-1.6-2.5-2.8-4.3-3.4c1.3-0.9,2.1-2.3,2.1-4
	c0-2.7-2.2-4.9-4.9-4.9S7,7.5,7,10.2c0,1.7,0.8,3.1,2.1,4C7.5,14.8,6,16,5,17.6c-1.2-1.5-2-3.5-2-5.6c0-5,4-9,9-9s9,4,9,9
	C21,14.1,20.3,16.1,19,17.6 M9.1,10.2c0-1.6,1.3-2.9,2.9-2.9s2.9,1.3,2.9,2.9s-1.3,2.9-2.9,2.9C10.4,13,9.1,11.7,9.1,10.2 M12,21
	c-2.1,0-4-0.7-5.6-1.9c1.1-2,3.1-3.4,5.6-3.4c2.4,0,4.5,1.4,5.6,3.4C16,20.3,14.1,21,12,21 M12,1C5.9,1,1,5.9,1,12
	c0,3,1.2,5.6,3.1,7.6c0.5,0.6,1.1,1,1.7,1.5C7.6,22.3,9.7,23,12,23s4.4-0.7,6.2-1.9c0.6-0.4,1.2-0.9,1.7-1.5c1.9-2,3.1-4.6,3.1-7.6
	C23,5.9,18.1,1,12,1"/>
</svg>
