<svg version="1.1" id="Layer_1" xmlns="http://www.w3.org/2000/svg" xmlns:xlink="http://www.w3.org/1999/xlink" x="0px" y="0px"
	 viewBox="0 0 24 24" enable-background="new 0 0 24 24" xml:space="preserve">
<path id="Video" fill="#1f2555" fill-rule="evenodd" clip-rule="evenodd" d="M21.9,15.5l-4.5-3.2l4.5-3.2V15.5L21.9,15.5z M14.6,17.6
	c0,0.6-0.5,1-1,1H3.1c-0.6,0-1-0.5-1-1V7.1c0-0.6,0.5-1,1-1h10.4c0.6,0,1,0.5,1,1v10.5H14.6z M23.4,6.2C23.1,6,22.6,6,22.3,6.3
	l-5.7,4V7.1c0-1.7-1.4-3.1-3.1-3.1H3.1C1.4,4,0,5.4,0,7.1v10.4c0,1.7,1.4,3.1,3.1,3.1h10.4c1.7,0,3.1-1.4,3.1-3.1v-3.2l5.7,4
	c0.2,0.1,0.4,0.2,0.6,0.2s0.3,0,0.5-0.1c0.3-0.2,0.6-0.5,0.6-0.9V7.1C24,6.7,23.8,6.4,23.4,6.2L23.4,6.2z"/>
</svg>
