<svg version="1.1" id="Layer_1" xmlns="http://www.w3.org/2000/svg" xmlns:xlink="http://www.w3.org/1999/xlink" x="0px" y="0px"
	 viewBox="0 0 24 24" enable-background="new 0 0 24 24" xml:space="preserve">
<path fill-rule="evenodd" clip-rule="evenodd" d="M23.6,17.3L23.6,17.3L23.6,17.3L14.7,2.5l0,0C14.1,1.6,13.1,1,12,1
	S9.9,1.6,9.3,2.5l0,0L0.4,17.3l0,0c-0.3,0.5-0.4,1-0.4,1.6C0,20.6,1.4,22,3.1,22h17.8c1.7,0,3.1-1.4,3.1-3.1
	C24,18.4,23.8,17.8,23.6,17.3z M20.9,20H3.1c-0.6,0-1-0.5-1-1c0-0.2,0-0.4,0.1-0.5l8.9-14.8l0,0c0.2-0.3,0.5-0.5,0.9-0.5
	s0.7,0.2,0.9,0.5l8.9,14.8c0.1,0.2,0.1,0.3,0.1,0.5C21.9,19.5,21.4,20,20.9,20z M12,7.4c-0.6,0-1,0.5-1,1v4.2c0,0.6,0.5,1,1,1
	c0.6,0,1-0.5,1-1V8.4C13,7.9,12.6,7.4,12,7.4z M12,15.8c-0.3,0-0.5,0.1-0.7,0.3S11,16.6,11,16.8s0.1,0.5,0.3,0.7s0.5,0.3,0.7,0.3
	c0.3,0,0.5-0.1,0.7-0.3c0.2-0.2,0.3-0.5,0.3-0.7s-0.1-0.5-0.3-0.7C12.5,15.9,12.3,15.8,12,15.8z"/>
</svg>
