<svg version="1.1" id="Layer_1" xmlns="http://www.w3.org/2000/svg" xmlns:xlink="http://www.w3.org/1999/xlink" x="0px" y="0px"
	 viewBox="0 0 24 24" enable-background="new 0 0 24 24" xml:space="preserve">
<path d="M20,12c0-2.3-1-4.4-2.5-5.8l-0.3-3.5C17,1.2,15.7,0,14.2,0H9.8C8.3,0,7,1.2,6.8,2.7L6.5,6.2C5,7.6,4,9.7,4,12s1,4.4,2.5,5.8
	l0.3,3.5C7,22.8,8.3,24,9.8,24h4.3c1.6,0,2.8-1.2,3-2.7l0.3-3.4C19,16.4,20,14.3,20,12L20,12z M8.8,2.9c0-0.5,0.5-0.9,1-0.9h4.4
	c0.5,0,1,0.4,1,0.9l0.2,1.8C14.3,4.3,13.2,4,12,4S9.7,4.3,8.7,4.7L8.8,2.9L8.8,2.9z M15.2,21.1c0,0.5-0.5,0.9-1,0.9H9.8
	c-0.5,0-0.9-0.4-1-0.9l-0.2-1.8c1,0.5,2.1,0.7,3.3,0.7s2.3-0.3,3.3-0.7L15.2,21.1L15.2,21.1z M12,18c-3.3,0-6-2.7-6-6l0,0
	c0-1.8,0.8-3.5,2.1-4.6l0,0C9.2,6.5,10.5,6,12,6c3.3,0,6,2.7,6,6S15.3,18,12,18z M13,11.6V9c0-0.5-0.5-1-1-1s-1,0.5-1,1v3
	c0,0.3,0.1,0.5,0.3,0.7l1.5,1.5l0,0c0.2,0.2,0.5,0.3,0.7,0.3s0.5-0.1,0.7-0.3c0.4-0.4,0.4-1,0-1.4L13,11.6z"/>
</svg>
