<?xml version="1.0" encoding="utf-8"?>
<!-- Generator: Adobe Illustrator 24.0.3, SVG Export Plug-In . SVG Version: 6.00 Build 0)  -->
<svg version="1.1" id="a3048faa-fae4-4c02-9db0-4cf019e5ec9d"
	 xmlns="http://www.w3.org/2000/svg" xmlns:xlink="http://www.w3.org/1999/xlink" x="0px" y="0px" viewBox="0 0 32 32"
	 enable-background="new 0 0 32 32" xml:space="preserve">
<path d="M12.9,19.9l8.1-4.2l-8.1-4.2V19.9z M16,5.4c6.3,0,10.5,0.3,10.5,0.3c1.1,0,2.2,0.5,3,1.3c0.7,0.9,1.1,1.9,1.2,3
	c0.2,1.6,0.3,3.2,0.3,4.8v2.3c0,1.6-0.1,3.2-0.3,4.8c-0.1,1.1-0.5,2.1-1.2,3c-0.8,0.8-1.9,1.2-3,1.3c0,0-4.2,0.3-10.5,0.3l0,0
	c-7.8-0.1-10.2-0.3-10.2-0.3c-1.2,0-2.4-0.5-3.3-1.3c-0.7-0.9-1.1-1.9-1.2-3C1.1,20.4,1,18.8,1,17.1v-2.3c0-1.6,0.1-3.2,0.3-4.9
	c0.1-1.1,0.5-2.1,1.2-3c0.8-0.8,1.9-1.3,3-1.3C5.5,5.7,9.7,5.4,16,5.4L16,5.4z"/>
</svg>
