<svg id="a3048faa-fae4-4c02-9db0-4cf019e5ec9d" data-name="Layer 1" xmlns="http://www.w3.org/2000/svg" viewBox="0 0 32 32"><title>youtube-solid</title><rect width="32" height="32" fill="none"/><path d="M12.9,19.88,21,15.7,12.9,11.46ZM16,5.45c6.31,0,10.5.3,10.5.3a4.26,4.26,0,0,1,3,1.28,5.26,5.26,0,0,1,1.19,3,39.8,39.8,0,0,1,.3,4.85v2.28A39.8,39.8,0,0,1,30.7,22a5.36,5.36,0,0,1-1.19,3,4.31,4.31,0,0,1-3,1.26s-4.19.32-10.5.32h0c-7.8-.07-10.2-.3-10.2-.3A5.08,5.08,0,0,1,2.49,25,5.36,5.36,0,0,1,1.3,22,39.8,39.8,0,0,1,1,17.14V14.86A39.8,39.8,0,0,1,1.3,10,5.26,5.26,0,0,1,2.49,7a4.26,4.26,0,0,1,3-1.28s4.19-.3,10.5-.3Z" fill="#1f2555"/></svg>