<svg data-name="Layer 1" xmlns="http://www.w3.org/2000/svg" viewBox="0 0 331 156.9"><title>pega-logo</title><path d="M313 64.8c-.3-2-2-2.8-3.5-4s-3-3.5-4.6-5.3c-4-4-8-8-12-11.6s-8-6.8-9-12.2-4.2-7.4-8.8-10c-2-1-5.8-2.3-7-4.2s.4-3.4 1.4-4.7 2.8-3.2 1.3-5-5-2.2-6.8-2.8c-11-3.5-22.4-6-34-5-21 1.5-43.4 12-53 31.5a57.6 57.6 0 0 0-5 15.5c0 .3-.7 2.2-.5 2.7s.4.3 1 .5c3 1 6.4 1.2 9.4 1.8a188.6 188.6 0 0 1 32.5 10.7A183.8 183.8 0 0 1 262 93l6.4 6 3.4 3.7c.4.5 2.3 2 2.3 2.6-1-7.2-4-13.5-7.7-19.8-1.6-2.7-3.4-6.4-6.2-8s-6.6-1.7-9.7-2.8c-12.6-4.7-25-15.8-23.6-30.5.3-2.7 3-4.5 3-.8a34 34 0 0 0 2 9.7c2.2 6 6 11 11.6 14s13 3 19.4 2.6 14.4 2.6 21 4.6c4 1.2 8.2 2 11.8 3.8s6.5 5.3 10.2 4 5-5 6.2-7.5a17.4 17.4 0 0 0 1-10.2v.5zm-37.4-31c-.3.6 0 1.7-.8 2.3s-2.4 0-3.3-.4-5.4-.8-3.7-2.7 4.7-2 6.6-2 1.6 1.7 1 2.7zm-61.1 103.4c-3.3 3-10.2 3.8-14.4 2.7a10.7 10.7 0 0 1-7.6-9.6h33.2c0-21-38.8-24-44.7-5-3 9.6 7.8 16.6 15.7 18a36 36 0 0 0 15.6-.4c1-.2 4.8-1 5.2-2s-2.5-3.7-3-4m-11-20c5.7-.2 9.8 4 10 9.6h-21c0-6.2 5.5-9.7 11.2-9.7M274 113h-9.4c-2.7 0-2.3.4-2.4 3-.4 0-1.2-.8-1.5-1a14 14 0 0 0-2.7-1 25.3 25.3 0 0 0-5.6-.8 30.6 30.6 0 0 0-10.4 1.3c-6 2-12.8 6.6-13 13.6s5.8 11.5 11.5 13.7a29.2 29.2 0 0 0 11.4 2 24.2 24.2 0 0 0 5.7-1c1-.2 3.5-1.8 4.4-1.7 0 5.5-2 10.8-8 11.8s-12-.3-16-3.8c-.5 1-1.7 2.8-1.8 4s.2 1.2 1.5 1.6a42.6 42.6 0 0 0 9 1.7c7 .7 14 .2 20-3.8a15.5 15.5 0 0 0 6-6.6c1.4-3.3 1-7 1-10.3v-23M251.4 140c-13.8 0-14.5-22.3-.7-23s15.5 23 .7 23m77.3-.3c-5.2 2-5.4-3-5.3-6.8s-.4-9.6-4.5-13.4c-6.4-5.6-15.8-7-24-5.4s-18.6 8-15.7 17.7 16 13.5 25 12.2a32 32 0 0 0 7.7-2.6c2-.8 3.7 1 5.6 1.6a16.6 16.6 0 0 0 8.5 1c1-.2 3.2-.7 3.8-1.6s-.2-1.7-1-3c-1.5.6.3.7 0 0zm-27.8 1c-14 0-14.6-22.3-.8-23s15.5 23 .7 23"/><path d="M186 107.2c-2-8.7-11.5-11-19-11h-30.7v48h9.7c.7 0 2.3.3 3 0s.5-.5.5-1.6v-20H162c4 0 8.3.4 12-.7 6.3-2 13.6-7 12-14.6M160.5 119c-5.4 0-12.8-3-13-9.5s8-10 14-9.8 13.5 4.6 11.8 11.5c-1.4 5.4-7.7 7.8-12.7 7.8m165.9-17.3c6 0 6 9.5-.2 9.3s-5.8-9.3.2-9.3zm0 .8c-6.4 0-3.5 10.4 2 7.3 3.2-2 1.8-7.3-2-7.3zm-2 1c1.2 0 3-.3 3.8.7a1.5 1.5 0 0 1-.8 2.4l1.5 2.4c-2.2 0-1-1.6-2.7-2.2s-.3 1-.6 1.5-.7 1-1.3.3 0-4.4 0-5zm1.2 2.6c1.3 0 2.8-1.4.8-1.6s-.8.7-.8 1.7 0-.3 0 0zM161 49.4a115.5 115.5 0 0 1-.6-12.8c.2-4.5 1-9 1.5-13.5.5-7-1-15-9-17s-17 1-24 3.8a158.6 158.6 0 0 0-23.8 11C75 38 50.5 64.7 31 93.3c-11.3 16.5-21.2 34-31 51.3l26.4-12c1.4-.7 3.3-1.2 4.3-2.3S33 126 34 124q3.2-6 6.8-12.2c9.7-16.4 21-32 34.3-45.6A219 219 0 0 1 96.7 47c3.8-3 7.6-5.8 11.7-8.3 1.6-1 9.6-6.8 9.7-1.7 0 2-2.2 2.8-3.6 3.7l-6.2 4c-4 2.7-8 5.6-12 8.6A193.6 193.6 0 0 0 75.5 73c-15 16-27.3 35-37.6 54l18.4-8.3c2-1 5.8-1.8 7.3-3.5a11 11 0 0 0 1.2-2.7q1-2.6 2.3-5.2a133.6 133.6 0 0 1 21.5-31.7 124.2 124.2 0 0 1 14-12.6q3.3-2.7 6.8-5c1.6-1.2 4.8-4 7-3.7s1.8 3.7.2 5-5.4 3.3-8 5.2A106.6 106.6 0 0 0 94.4 77a126.5 126.5 0 0 0-23.8 35l13-5.8 6-2.7c1.4-.6 3.7-1 4.7-2.4s1.5-3.4 2.3-4.8a54 54 0 0 1 3.2-5.3 58.3 58.3 0 0 1 8-9.3c2.2-2 5.3-6 8.3-6.5a2.6 2.6 0 0 1 3 1.6c.7 1.7-1 3-2.2 3.8-6 4.8-12 10.3-15.5 17.4 9-4.3 18-8.4 27.3-11.6-5-9.3-6-21.8 2.6-29.2s19.6-8.3 29.8-7.8c-.5-5.7-5.5-.3 0 0z"/><path d="M161.3 52.7c1.3 9 3.7 18.5 9 26a183.4 183.4 0 0 0-26 3.5l-6.7 1.7c-1 .2-3.7 1.6-4.8 1.4s-3.6-7.3-4-9.2c-1.5-7.8 1.6-14.8 8.4-18.8s16-4.6 24-4.6c.8 4.6-3.8 0 0 0zM171 54a73 73 0 0 0 .6 16.2l.8 4.3s.2 2.6.6 3.2 0 .5.7.7 3 0 4 0a195 195 0 0 1 31.8 1.5c19.7 2.6 40.4 10 56.4 22-.3-1.3-3.6-3.6-4.5-4.5l-5-4.5c-3.6-3-7.3-6-11-8.6A177.3 177.3 0 0 0 222.8 71c-16-8.2-34-15-51.8-17-.2 3 6.3.6 0 0z" fill="#0092f8"/></svg>