<svg id="bfe6cda7-33e0-4899-b660-4a3889a252b3" data-name="Layer 1" xmlns="http://www.w3.org/2000/svg" viewBox="0 0 32 26"><title>entertainment</title><path id="f9c79d0a-2160-4d01-b610-86b75a0d7fd3" data-name="Fill-4" d="M24.5,27H7.5a1,1,0,0,0,0,2h17a1,1,0,0,0,0-2" transform="translate(0 -3)" fill="#1f2555" fill-rule="evenodd"/><path id="be1ed5a9-e4ed-443b-a34b-608df11d36f7" data-name="Fill-1" d="M2,6A.94.94,0,0,1,3,5H29a.94.94,0,0,1,1,1V23H2ZM30,3H2A2,2,0,0,0,0,5V24a2,2,0,0,0,2,2H30a2,2,0,0,0,2-2V5a2,2,0,0,0-2-2Z" transform="translate(0 -3)" fill="#1f2555" fill-rule="evenodd"/></svg>