<svg id="b00b6350-4261-4fe7-b35e-d21ced2631e6" data-name="Layer 1" xmlns="http://www.w3.org/2000/svg" viewBox="0 0 26 32"><title>financial</title><path id="e3a64186-4ad9-49eb-8933-1ba0d9760b3b" data-name="Fill-1" d="M5,30H27V2H5ZM27,0H5A2,2,0,0,0,3,2V30a2,2,0,0,0,2,2H27a2,2,0,0,0,2-2V2a2,2,0,0,0-2-2Z" transform="translate(-3)" fill="#1f2555" fill-rule="evenodd"/><path id="f2ed4c5c-5753-4c36-ac90-2682dd23ad47" data-name="Fill-3" d="M9,10.7H23v-5H9Zm-2,2H25v-9H7Z" transform="translate(-3)" fill="#1f2555" fill-rule="evenodd"/><polygon id="e51446a1-89ea-4b67-be86-b21c24af0312" data-name="Fill-4" points="6 18.3 8 18.3 8 16.3 6 16.3 6 18.3" fill="#1f2555" fill-rule="evenodd"/><polygon id="a2355132-4934-4784-978f-7c4b19b2c781" data-name="Fill-5" points="10 18.3 12 18.3 12 16.3 10 16.3 10 18.3" fill="#1f2555" fill-rule="evenodd"/><polygon id="a7fa37c4-7e71-4fa1-b4a5-3c2ee6fb22b3" data-name="Fill-6" points="14 18.3 16 18.3 16 16.3 14 16.3 14 18.3" fill="#1f2555" fill-rule="evenodd"/><polygon id="e45999c6-c72f-4663-91d4-176bf99dc1c8" data-name="Fill-7" points="18 18.3 20 18.3 20 16.3 18 16.3 18 18.3" fill="#1f2555" fill-rule="evenodd"/><polygon id="a5cdef6e-bce3-48d4-95db-619fecfb0e77" data-name="Fill-8" points="6 22.3 8 22.3 8 20.3 6 20.3 6 22.3" fill="#1f2555" fill-rule="evenodd"/><polygon id="ec69909e-0703-49de-bb08-7babf5584d64" data-name="Fill-9" points="10 22.3 12 22.3 12 20.3 10 20.3 10 22.3" fill="#1f2555" fill-rule="evenodd"/><polygon id="ebc32ae0-1bf4-4094-a54e-07efea21d7d1" data-name="Fill-10" points="14 22.3 16 22.3 16 20.3 14 20.3 14 22.3" fill="#1f2555" fill-rule="evenodd"/><polygon id="af208957-7c5b-4127-bd50-581993ce9b44" data-name="Fill-11" points="18 22.3 20 22.3 20 20.3 18 20.3 18 22.3" fill="#1f2555" fill-rule="evenodd"/><polygon id="bb0b8bb2-6af4-48ed-97b1-3d35bb189b90" data-name="Fill-12" points="6 26.3 8 26.3 8 24.3 6 24.3 6 26.3" fill="#1f2555" fill-rule="evenodd"/><polygon id="a6a66614-e297-4b51-a621-2702eb77f311" data-name="Fill-13" points="10 26.3 12 26.3 12 24.3 10 24.3 10 26.3" fill="#1f2555" fill-rule="evenodd"/><polygon id="b9df4b6f-3461-4e81-bd73-46a663b748d8" data-name="Fill-14" points="14 26.3 16 26.3 16 24.3 14 24.3 14 26.3" fill="#1f2555" fill-rule="evenodd"/><polygon id="b8e789d6-9bd8-4d69-a7d5-17634a91ff84" data-name="Fill-15" points="18 26.3 20 26.3 20 24.3 18 24.3 18 26.3" fill="#1f2555" fill-rule="evenodd"/></svg>