<svg id="ea0aba77-7d8d-4792-b976-9ad471861d21" data-name="Layer 1" xmlns="http://www.w3.org/2000/svg" viewBox="0 0 30 32"><title>retail</title><path id="ba2c2d66-2938-46eb-aae8-49a8afaf9b45" data-name="Page-1" d="M29,29a.94.94,0,0,1-1,1H17V11.4L23,14a2,2,0,0,0,2-2V7h3a.94.94,0,0,1,1,1ZM23,4.4V11a.94.94,0,0,1-1,1L17.6,9.8ZM9.6,2.3l-.1-.1A.76.76,0,0,1,10,2H22a.76.76,0,0,1,.5.2c-.1,0-.1.1-.2.1L16,8.6ZM15,30H4a.94.94,0,0,1-1-1V8A.94.94,0,0,1,4,7H7v5a2,2,0,0,0,2,2l6-2.6ZM9,4.4l5.4,5.4L10,12a.94.94,0,0,1-1-1ZM29,5H25V2a2,2,0,0,0-2-2H9A2,2,0,0,0,7,2V5H3A2,2,0,0,0,1,7V30a2,2,0,0,0,2,2H29a2,2,0,0,0,2-2V7a2,2,0,0,0-2-2ZM19,20h8V18H19Z" transform="translate(-1)" fill="#1f2555" fill-rule="evenodd"/></svg>