<?xml version="1.0" encoding="UTF-8"?>
<svg width="32px" height="32px" viewBox="0 0 32 32" version="1.1" xmlns="http://www.w3.org/2000/svg" xmlns:xlink="http://www.w3.org/1999/xlink">
    <!-- Generator: Sketch 49.3 (51167) - http://www.bohemiancoding.com/sketch -->
    <title>brand icons/community/brand-agile</title>
    <desc>Created with Sketch.</desc>
    <defs>
        <path d="M31.9194,25.6496 C32.0204,25.8896 32.0204,26.1706 31.9194,26.4106 C31.8694,26.5296 31.7994,26.6396 31.7094,26.7406 L26.9694,31.4696 C26.7704,31.6706 26.5204,31.7696 26.2604,31.7696 C26.0104,31.7696 25.7494,31.6706 25.5494,31.4696 C25.1594,31.0806 25.1594,30.4496 25.5494,30.0596 L26.3294,29.2796 L28.5894,27.0296 L17.6804,27.0296 L17.6694,27.0296 C14.3904,27.0196 11.3794,25.8496 9.0394,23.8996 C8.6094,23.5406 8.1994,23.1496 7.8104,22.7406 C5.5494,20.3206 4.1594,17.0806 4.1594,13.5096 C4.1594,11.7796 4.4894,10.1296 5.0794,8.6206 C6.6494,4.5806 10.1094,1.4796 14.3694,0.4096 L14.3794,0.4096 C15.4404,0.1396 16.5394,0.0006 17.6804,0.0006 C21.5104,0.0006 24.9804,1.5996 27.4404,4.1796 C29.7704,6.6096 31.1904,9.8896 31.1904,13.5096 C31.1904,14.3896 31.1004,15.2696 30.9304,16.1296 C30.6804,17.4296 30.2304,18.6996 29.6004,19.8706 C29.5604,19.9606 29.4994,20.0296 29.4404,20.0996 L27.9804,18.6396 C28.1694,18.2696 28.3294,17.8896 28.4694,17.5006 C28.7094,16.8796 28.8794,16.2296 28.9994,15.5806 C29.1294,14.8996 29.1904,14.2106 29.1904,13.5096 C29.1904,7.1606 24.0294,2.0006 17.6804,2.0006 C12.8394,2.0006 8.6804,5.0006 6.9894,9.2406 C6.4494,10.5596 6.1594,12.0006 6.1594,13.5096 C6.1594,16.1706 7.0694,18.6206 8.5894,20.5706 C8.8794,20.9496 9.1994,21.3096 9.5394,21.6496 C11.6194,23.7406 14.4994,25.0296 17.6804,25.0296 L28.5894,25.0296 L28.2994,24.7406 L26.2894,22.7406 L25.5494,22.0006 C25.1594,21.5996 25.1594,20.9696 25.5494,20.5806 C25.9494,20.1896 26.5794,20.1896 26.9694,20.5806 L29.1294,22.7406 L31.6094,25.2196 L31.7094,25.3206 C31.7994,25.4106 31.8694,25.5196 31.9194,25.6496 Z M7.395,25.0285 C7.948,25.0285 8.395,25.4755 8.395,26.0285 C8.395,26.5815 7.948,27.0285 7.395,27.0285 L1,27.0285 C0.448,27.0285 -2.36431606e-17,26.5815 -2.36431606e-17,26.0285 C-2.36431606e-17,25.4755 0.448,25.0285 1,25.0285 L7.395,25.0285 Z" id="path-1"></path>
    </defs>
    <g id="brand-icons/community/brand-agile" stroke="none" stroke-width="1" fill="none" fill-rule="evenodd">
        <mask id="mask-2" fill="white">
            <use xlink:href="#path-1"></use>
        </mask>
        <g id="Mask"></g>
        <g id="z_atom/Icon-color/brand-black" mask="url(#mask-2)" fill="#2D2E33">
            <rect id="Rectangle-15" x="0" y="0" width="32" height="32"></rect>
        </g>
    </g>
</svg>