<?xml version="1.0" encoding="UTF-8"?>
<svg width="32px" height="32px" viewBox="0 0 32 32" version="1.1" xmlns="http://www.w3.org/2000/svg" xmlns:xlink="http://www.w3.org/1999/xlink">
    <!-- Generator: Sketch 49.3 (51167) - http://www.bohemiancoding.com/sketch -->
    <title>brand icons/community/brand-java</title>
    <desc>Created with Sketch.</desc>
    <path d="M23.4893,24.9567 C23.2333,24.9567 22.9773,24.8587 22.7823,24.6637 C22.3913,24.2737 22.3913,23.6407 22.7823,23.2497 L29.5863,16.4447 L22.7823,9.6437 C22.3913,9.2527 22.3913,8.6197 22.7823,8.2287 C23.1733,7.8387 23.8053,7.8387 24.1963,8.2287 L31.7073,15.7377 C31.8943,15.9257 32.0003,16.1797 32.0003,16.4447 C32.0003,16.7097 31.8943,16.9647 31.7073,17.1517 L24.1963,24.6637 C24.0013,24.8587 23.7453,24.9567 23.4893,24.9567 Z M8.5107,24.9567 C8.2547,24.9567 7.9987,24.8587 7.8037,24.6637 L0.2927,17.1517 C0.1057,16.9647 -0.0003,16.7097 -0.0003,16.4447 C-0.0003,16.1797 0.1057,15.9257 0.2927,15.7377 L7.8037,8.2287 C8.1947,7.8387 8.8267,7.8387 9.2177,8.2287 C9.6087,8.6197 9.6087,9.2527 9.2177,9.6437 L2.4137,16.4447 L9.2177,23.2497 C9.6087,23.6407 9.6087,24.2737 9.2177,24.6637 C9.0227,24.8587 8.7667,24.9567 8.5107,24.9567 Z M10.8213,28.4611 C10.6823,28.4611 10.5413,28.4321 10.4073,28.3701 C9.9043,28.1411 9.6833,27.5471 9.9133,27.0451 L20.1723,4.5851 C20.4013,4.0831 20.9963,3.8601 21.4963,4.0911 C21.9993,4.3201 22.2193,4.9141 21.9903,5.4161 L11.7313,27.8761 C11.5633,28.2441 11.2013,28.4611 10.8213,28.4611 Z" id="path-1"></path>
    <g id="brand-icons/community/brand-java" stroke="none" stroke-width="1" fill="none" fill-rule="evenodd">
        <mask id="mask-2" fill="white">
            <use xlink:href="#path-1"></use>
        </mask>
        <use id="Mask" fill="#514051" xlink:href="#path-1"></use>
        <g id="z_atom/Icon-color/brand-black" mask="url(#mask-2)" fill="#2D2E33">
            <rect id="Rectangle-15" x="0" y="0" width="32" height="32"></rect>
        </g>
    </g>
</svg>