<?xml version="1.0" encoding="UTF-8" standalone="no"?>
<svg width="32px" height="32px" viewBox="0 0 32 32" version="1.1" xmlns="http://www.w3.org/2000/svg" xmlns:xlink="http://www.w3.org/1999/xlink">
    <!-- Generator: Sketch 47.1 (45422) - http://www.bohemiancoding.com/sketch -->
    <title>Icon/How/Partners</title>
    <desc>Created with Sketch.</desc>
    <defs></defs>
    <g id="Symbols" stroke="none" stroke-width="1" fill="none" fill-rule="evenodd">
        <g id="Icon/How/Partners" fill="#1F2555">
            <path d="M25.375,16.875 C26.791,16.084 27.916,14.99 28.75,13.594 C29.584,12.198 30,10.667 30,9 C30,6.542 29.115,4.428 27.344,2.656 C25.572,0.886 23.459,0 21,0 C19.416,0 17.947,0.386 16.594,1.156 C15.24,1.928 14.166,2.959 13.375,4.25 C13.416,4.375 13.5,4.542 13.625,4.75 C13.791,5.209 13.937,5.542 14.062,5.75 C14.187,5.959 14.334,6.136 14.5,6.281 C14.666,6.428 14.822,6.386 14.969,6.156 C15.115,5.928 15.25,5.5 15.375,4.875 C16.75,2.959 18.625,2 21,2 C22.916,2 24.563,2.687 25.937,4.062 C27.312,5.437 28,7.084 28,9 C28,10.75 27.428,12.281 26.281,13.594 C25.135,14.906 23.688,15.688 21.937,15.938 C21.896,16.813 21.709,17.687 21.375,18.562 C27.125,19.563 30,22.042 30,26 L32,26 C32,21.542 29.791,18.5 25.375,16.875 L25.375,16.875 Z M15.937,19.938 C17.312,18.562 18,16.917 18,15 C18,13.084 17.312,11.438 15.937,10.063 C14.562,8.687 12.916,8 11,8 C9.084,8 7.438,8.687 6.063,10.063 C4.688,11.438 4,13.084 4,15 C4,16.917 4.688,18.562 6.063,19.938 C7.438,21.312 9.084,22 11,22 C12.916,22 14.562,21.312 15.937,19.938 L15.937,19.938 Z M20,32 C20,29.875 19.219,28.094 17.656,26.656 C16.094,25.219 13.875,24.5 11,24.5 C7.875,24.5 5.594,25.198 4.156,26.594 C2.719,27.99 2,29.792 2,32 L0,32 C0,29.959 0.584,28.115 1.75,26.469 C2.916,24.823 4.541,23.625 6.625,22.875 C5.209,22.084 4.084,20.99 3.25,19.594 C2.416,18.198 2,16.667 2,15 C2,12.542 2.885,10.428 4.656,8.656 C6.428,6.886 8.541,6 11,6 C13.459,6 15.572,6.886 17.344,8.656 C19.115,10.428 20,12.542 20,15 C20,16.667 19.584,18.198 18.75,19.594 C17.916,20.99 16.791,22.084 15.375,22.875 C19.791,24.5 22,27.542 22,32 L20,32 Z" id="Page-1"></path>
        </g>
    </g>
</svg>