<?xml version="1.0" encoding="UTF-8" standalone="no"?>
<svg width="32px" height="32px" viewBox="0 0 32 32" version="1.1" xmlns="http://www.w3.org/2000/svg" xmlns:xlink="http://www.w3.org/1999/xlink">
    <!-- Generator: Sketch 47.1 (45422) - http://www.bohemiancoding.com/sketch -->
    <title>Icon/How/Product</title>
    <desc>Created with Sketch.</desc>
    <defs></defs>
    <g id="Symbols" stroke="none" stroke-width="1" fill="none" fill-rule="evenodd">
        <g id="Icon/How/Product" fill="#1F2555">
            <path d="M15,23.5 L17,23.5 L17,13.5 L15,13.5 L15,23.5 Z M17.187,9.688 C17.187,10.021 17.072,10.303 16.844,10.531 C16.615,10.761 16.334,10.875 16,10.875 C15.666,10.875 15.385,10.761 15.156,10.531 C14.928,10.303 14.813,10.021 14.813,9.688 C14.813,9.396 14.928,9.125 15.156,8.875 C15.385,8.625 15.666,8.5 16,8.5 C16.334,8.5 16.615,8.625 16.844,8.875 C17.072,9.125 17.187,9.396 17.187,9.688 L17.187,9.688 Z M30,16 C30,12.125 28.635,8.823 25.906,6.094 C23.178,3.365 19.875,2 16,2 C12.125,2 8.822,3.365 6.094,6.094 C3.365,8.823 2,12.125 2,16 C2,19.875 3.365,23.178 6.094,25.906 C8.822,28.636 12.125,30 16,30 C19.875,30 23.178,28.636 25.906,25.906 C28.635,23.178 30,19.875 30,16 L30,16 Z M32,16 C32,20.417 30.437,24.188 27.312,27.313 C24.187,30.438 20.416,32 16,32 C11.584,32 7.812,30.438 4.687,27.313 C1.562,24.188 0,20.417 0,16 C0,11.584 1.562,7.813 4.687,4.688 C7.812,1.563 11.584,0 16,0 C20.416,0 24.187,1.563 27.312,4.688 C30.437,7.813 32,11.584 32,16 L32,16 Z" id="Page-1"></path>
        </g>
    </g>
</svg>