<?xml version="1.0" encoding="UTF-8"?>
<svg width="32px" height="32px" viewBox="0 0 32 32" version="1.1" xmlns="http://www.w3.org/2000/svg" xmlns:xlink="http://www.w3.org/1999/xlink">
    <!-- Generator: Sketch 49.3 (51167) - http://www.bohemiancoding.com/sketch -->
    <title>brand icons/community/brand-scalability</title>
    <desc>Created with Sketch.</desc>
    <g id="brand-icons/community/brand-scalability" stroke="none" stroke-width="1" fill="none" fill-rule="evenodd">
      <path d="M16,27 L16,26 L18,26 L18,27 L24,27 L24,24 L27,24 L27,8.001 L24,8.001 L24,5 L8,5 L8,8.001 L5,8.001 L5,14 L6,14 L6,16 L5,16 L5,24 L8,24 L8,27 L16,27 Z M24,0 L32,0 L32,8.001 L28.999,8.001 L28.999,24 L32,24 L32,32 L24,32 L24,29.001 L8,29.001 L8,32 L0,32 L0,24 L2.999,24 L2.999,8.001 L0,8.001 L0,0 L8,0 L8,3.001 L24,3.001 L24,0 Z M26,5 L26,6 L27,6 L28.999,6 L29.999,6 L29.999,2.001 L26,2.001 L26,3.001 L26,5 Z M1.999,2.001 L1.999,6 L2.999,6 L5,6 L6,6 L6,5 L6,3.001 L6,2.001 L1.999,2.001 Z M26,29.001 L26,30.001 L29.999,30.001 L29.999,26 L28.999,26 L27,26 L26,26 L26,27 L26,29.001 Z M1.999,26 L1.999,30.001 L6,30.001 L6,29.001 L6,27 L6,26 L5,26 L2.999,26 L1.999,26 Z M8,14 L10,14 L10,16 L8,16 L8,14 Z M12,14 L14,14 L14,16 L12,16 L12,14 Z M16,14 L18,14 L18,16 L16,16 L16,14 Z M16,18 L18,18 L18,20 L16,20 L16,18 Z M16,22 L18,22 L18,24 L16,24 L16,22 Z" id="path-1"></path>
        <mask id="mask-2" fill="white">
            <use xlink:href="#path-1"></use>
        </mask>
        <g id="Mask"></g>
        <g id="z_atom/Icon-color/brand-black" mask="url(#mask-2)" fill="#2D2E33">
            <rect id="Rectangle-15" x="0" y="0" width="32" height="32"></rect>
        </g>
    </g>
</svg>