<?xml version="1.0" encoding="UTF-8"?>
<svg width="32px" height="32px" viewBox="0 0 32 32" version="1.1" xmlns="http://www.w3.org/2000/svg" xmlns:xlink="http://www.w3.org/1999/xlink">
    <!-- Generator: Sketch 49.3 (51167) - http://www.bohemiancoding.com/sketch -->
    <title>brand icons/community/brand-support</title>
    <desc>Created with Sketch.</desc>
    <path d="M23.7392,17.9999 C23.9042,17.3599 24.0002,16.6919 24.0002,15.9999 C24.0002,15.3079 23.9042,14.6399 23.7392,13.9999 L29.8482,13.9999 C29.9422,14.6539 30.0002,15.3199 30.0002,15.9999 C30.0002,16.6799 29.9422,17.3459 29.8482,17.9999 L23.7392,17.9999 Z M20.0002,29.4129 L20.0002,22.9209 C21.2112,22.2199 22.2182,21.2099 22.9212,20.0009 L29.4072,20.0009 C28.0612,24.5109 24.5122,28.0689 20.0002,29.4129 Z M18.0002,29.8409 C17.3442,29.9349 16.6802,29.9999 16.0002,29.9999 C15.3192,29.9999 14.6552,29.9349 14.0002,29.8409 L14.0002,23.7379 C14.6402,23.9029 15.3082,23.9999 16.0002,23.9999 C16.6922,23.9999 17.3602,23.9029 18.0002,23.7379 L18.0002,29.8409 Z M12.0002,29.4129 C7.4882,28.0689 3.9382,24.5109 2.5932,20.0009 L9.0792,20.0009 C9.7812,21.2099 10.7902,22.2199 12.0002,22.9209 L12.0002,29.4129 Z M2.0002,15.9999 C2.0002,15.3199 2.0572,14.6539 2.1512,13.9999 L8.2602,13.9999 C8.0952,14.6399 8.0002,15.3079 8.0002,15.9999 C8.0002,16.6919 8.0952,17.3599 8.2612,17.9999 L2.1512,17.9999 C2.0572,17.3459 2.0002,16.6799 2.0002,15.9999 Z M12.0002,2.5869 L12.0002,9.0789 C10.7892,9.7809 9.7802,10.7909 9.0772,12.0009 L2.5922,12.0009 C3.9372,7.4899 7.4872,3.9319 12.0002,2.5869 Z M14.0002,2.1589 C14.6552,2.0649 15.3192,1.9999 16.0002,1.9999 C16.6802,1.9999 17.3442,2.0649 18.0002,2.1589 L18.0002,8.2619 C17.3602,8.0969 16.6922,7.9999 16.0002,7.9999 C15.3082,7.9999 14.6402,8.0969 14.0002,8.2619 L14.0002,2.1589 Z M22.0002,15.9999 C22.0002,19.3139 19.3142,21.9999 16.0002,21.9999 C12.6862,21.9999 10.0002,19.3139 10.0002,15.9999 C10.0002,12.6879 12.6862,10.0009 16.0002,10.0009 C19.3142,10.0009 22.0002,12.6879 22.0002,15.9999 Z M20.0002,2.5869 C24.5122,3.9319 28.0622,7.4899 29.4082,12.0009 L22.9232,12.0009 C22.2192,10.7909 21.2122,9.7799 20.0002,9.0789 L20.0002,2.5869 Z M16.0002,-0.0001 C7.1642,-0.0001 0.0002,7.1639 0.0002,15.9999 C0.0002,24.8369 7.1642,31.9999 16.0002,31.9999 C24.8372,31.9999 32.0002,24.8369 32.0002,15.9999 C32.0002,7.1639 24.8372,-0.0001 16.0002,-0.0001 Z" id="path-1"></path>
    <g id="brand-icons/community/brand-support" stroke="none" stroke-width="1" fill="none" fill-rule="evenodd">
        <mask id="mask-2" fill="white">
            <use xlink:href="#path-1"></use>
        </mask>
        <g id="Mask"></g>
        <g id="z_atom/Icon-color/brand-black" mask="url(#mask-2)" fill="#2D2E33">
            <rect id="Rectangle-15" x="0" y="0" width="32" height="32"></rect>
        </g>
    </g>
</svg>