<?xml version="1.0" encoding="UTF-8"?>
<svg width="32px" height="32px" viewBox="0 0 32 32" version="1.1" xmlns="http://www.w3.org/2000/svg" xmlns:xlink="http://www.w3.org/1999/xlink">
    <!-- Generator: Sketch 49.3 (51167) - http://www.bohemiancoding.com/sketch -->
    <title>brand icons/service/brand-training</title>
    <desc>Created with Sketch.</desc>
    <path d="M25.3509919,24.3525 C24.8549919,24.2355 24.3589919,24.5125 24.1879919,24.9875 L22.9239919,28.5115 L20.0279919,23.2335 C22.3259919,22.4095 24.2949919,20.9085 25.6979919,18.9635 L29.0739919,25.2065 L25.3509919,24.3525 Z M16.0089919,21.9455 C10.5009919,21.9455 6.01999187,17.4705 6.01999187,11.9725 C6.01999187,6.4745 10.5009919,1.9995 16.0089919,1.9995 C21.5159919,1.9995 25.9969919,6.4745 25.9969919,11.9725 C25.9969919,17.4705 21.5159919,21.9455 16.0089919,21.9455 Z M9.06799187,28.4865 L7.81299187,24.9875 C7.64099187,24.5125 7.14299187,24.2355 6.64899187,24.3525 L2.94299187,25.2025 L6.33099187,19.0235 C7.71899187,20.9225 9.64899187,22.3925 11.8979919,23.2125 L9.06799187,28.4865 Z M31.8799919,26.1965 L26.8749919,16.9425 C27.5679919,15.4265 27.9649919,13.7475 27.9649919,11.9725 C27.9649919,5.3605 22.6049919,0.0005 15.9929919,0.0005 C9.37999187,0.0005 4.01999187,5.3605 4.01999187,11.9725 C4.01999187,13.7795 4.43199187,15.4875 5.14799187,17.0255 L0.122991868,26.1935 C-0.0660081317,26.5355 -0.0350081317,26.9605 0.200991868,27.2755 C0.437991868,27.5875 0.838991868,27.7355 1.22199187,27.6455 L6.23199187,26.4955 L7.94699187,31.2725 C8.07999187,31.6435 8.41999187,31.9015 8.81299187,31.9305 C8.83799187,31.9315 8.86199187,31.9325 8.88699187,31.9325 C9.25199187,31.9325 9.59199187,31.7335 9.76599187,31.4065 L13.8769919,23.7475 C14.5649919,23.8705 15.2699919,23.9455 15.9929919,23.9455 C16.6919919,23.9455 17.3729919,23.8735 18.0389919,23.7585 L22.2379919,31.4135 C22.4139919,31.7365 22.7509919,31.9325 23.1129919,31.9325 C23.1389919,31.9325 23.1649919,31.9315 23.1909919,31.9305 C23.5829919,31.8995 23.9209919,31.6425 24.0529919,31.2725 L25.7679919,26.4955 L30.7779919,27.6455 C31.1629919,27.7365 31.5599919,27.5885 31.7959919,27.2775 C32.0339919,26.9635 32.0659919,26.5415 31.8799919,26.1965 Z" id="path-1"></path>
    <g id="brand-icons/service/brand-training" stroke="none" stroke-width="1" fill="none" fill-rule="evenodd">
        <mask id="mask-2" fill="white">
            <use xlink:href="#path-1"></use>
        </mask>
        <g id="Mask"></g>
        <g id="z_atom/Icon-color/brand-black" mask="url(#mask-2)" fill="#2D2E33">
            <rect id="Rectangle-15" x="0" y="0" width="32" height="32"></rect>
        </g>
    </g>
</svg>