<svg version="1.1" id="Layer_1" xmlns="http://www.w3.org/2000/svg" xmlns:xlink="http://www.w3.org/1999/xlink" x="0px" y="0px"
	 viewBox="0 0 64 64" enable-background="new 0 0 64 64" xml:space="preserve">
<path fill="#1f2555" d="M32.2,26.1c-4.6,0-8.4,3.8-8.4,8.4s3.8,8.4,8.4,8.4s8.4-3.8,8.4-8.4S36.8,26.1,32.2,26.1z M32.2,40.6
	c-3.4,0-6.2-2.8-6.2-6.2s2.8-6.2,6.2-6.2c3.4,0,6.2,2.8,6.2,6.2C38.4,37.9,35.6,40.6,32.2,40.6z M37.8,5.9c-0.3-3.1-3.1-5.4-6.2-5.1
	c-2.7,0.3-4.9,2.4-5.1,5.1C10.8,9,0.5,24.3,3.6,40.1c2.7,13.6,14.7,23.5,28.6,23.5c16.1,0,29.1-13,29.1-29.1
	C61.3,20.6,51.5,8.6,37.8,5.9z M32.2,3.1c1.9,0,3.4,1.5,3.4,3.4c0,1.9-1.5,3.4-3.4,3.4s-3.4-1.5-3.4-3.4C28.8,4.6,30.3,3.1,32.2,3.1
	z M26.8,60.8C14.3,58.2,5.4,47.2,5.4,34.5c0-12.7,9-23.7,21.4-26.3c0.9,3,4.1,4.7,7.1,3.8c1.8-0.6,3.2-2,3.8-3.8
	c14.5,3,23.9,17.2,20.9,31.7S41.3,63.8,26.8,60.8z M32.3,16.4c-10,0-18.1,8-18.1,18c0,3.5,1,6.9,2.9,9.8c-1.1,1.5-0.9,3.6,0.4,4.9
	c0.7,0.7,1.7,1.1,2.7,1.1c0.8,0,1.5-0.2,2.2-0.7c2.9,1.9,6.3,2.9,9.8,2.9c10,0,18.1-8,18.1-18C50.4,24.5,42.3,16.4,32.3,16.4z
	 M21.4,47.6c-0.6,0.6-1.7,0.6-2.3,0c-0.6-0.6-0.6-1.7,0-2.3c0.6-0.6,1.7-0.6,2.3,0c0,0,0,0,0,0C22,45.9,22,47,21.4,47.6z M43.4,45.6
	c-5.2,5.2-13.3,6.2-19.6,2.2c0.6-1.4,0.2-3.1-0.8-4.2c-1.1-1.1-2.7-1.4-4.2-0.8c-4.6-7.4-2.3-17.1,5.1-21.7c6.2-3.9,14.3-3,19.5,2.2
	C49.5,29.5,49.6,39.5,43.4,45.6z"/>
</svg>
