<svg id="Layer_1" data-name="Layer 1" xmlns="http://www.w3.org/2000/svg" viewBox="0 0 56.95 62.83"><title>brand-atom</title><path d="M683.19,415.66c-9.22,0-16.44-13.8-16.44-31.42s7.22-31.41,16.44-31.41,16.44,13.8,16.44,31.41S692.41,415.66,683.19,415.66Zm0-60.93c-8,0-14.53,13.24-14.53,29.51s6.52,29.51,14.53,29.51,14.54-13.23,14.54-29.51S691.21,354.73,683.19,354.73Z" transform="translate(-654.72 -352.83)"/><path d="M668.52,405.54c-5.81,0-10.37-1.85-12.54-5.59-4.6-8,3.74-21.13,19-29.95h0c15.26-8.8,30.82-9.45,35.43-1.47s-3.73,21.14-19,30C683.31,403.16,675.11,405.54,668.52,405.54Zm7.4-33.89c-14.09,8.14-22.29,20.41-18.29,27.35s18.74,6,32.83-2.17,22.3-20.4,18.29-27.34-18.73-6-32.83,2.16Z" transform="translate(-654.72 -352.83)"/><path d="M697.87,405.54c-6.59,0-14.79-2.38-22.9-7.06h0c-15.25-8.81-23.59-22-19-30,2.25-3.9,7.25-5.86,14.07-5.49,6.6.35,14.18,2.82,21.35,7,15.26,8.81,23.6,22,19,29.95C708.24,403.69,703.68,405.54,697.87,405.54Zm-21.94-8.71C690,405,704.74,405.94,708.75,399s-4.2-19.21-18.29-27.35c-6.92-4-14.2-6.38-20.5-6.71-6.06-.32-10.44,1.29-12.32,4.55-4,6.94,4.19,19.21,18.29,27.34Z" transform="translate(-654.72 -352.83)"/><path d="M686.09,384.24a2.9,2.9,0,1,1-2.9-2.89A2.9,2.9,0,0,1,686.09,384.24Z" transform="translate(-654.72 -352.83)"/></svg>