<svg id="Layer_1" data-name="Layer 1"
  xmlns="http://www.w3.org/2000/svg" viewBox="0 0 64 64">
  <title>Component_Icons</title>
  <path fill="#1f2555" class="cls-1" d="M59.65,36.64,50.28,25.19l-4-4.87c-.39-.49-.79-1-1.2-1.45a1.22,1.22,0,0,0-1.83-.27,1.32,1.32,0,0,0-.51.89,1.4,1.4,0,0,0,.39,1l4.42,5.36C51,30,54.39,34.12,57.77,38.28a12.74,12.74,0,0,1,2.57,11.94,13,13,0,0,1-22.65,4.49Q28,42.95,18.29,31.2L9.67,20.74,7.06,17.59a1.38,1.38,0,0,0-.95-.53,1,1,0,0,0-.8.3,1.88,1.88,0,0,0-.45,1.22,1,1,0,0,0,.35.74l7.56,9.22q11.44,14,22.89,27.88a15.4,15.4,0,0,0,12.06,5.8h.1A14.64,14.64,0,0,0,54,61a15.12,15.12,0,0,0,9.26-12.81A15.16,15.16,0,0,0,59.65,36.64Z"/>
  <path fill="#1f2555" class="cls-1" d="M35.71,45.44A11.07,11.07,0,0,0,46.94,56.62H47a11,11,0,0,0,7.81-3.25A11.19,11.19,0,0,0,47,34.24h0a11.22,11.22,0,0,0-8,3.33A11,11,0,0,0,35.71,45.44Zm11.14-8.67H47a8.6,8.6,0,0,1,8.62,8.73A8.62,8.62,0,0,1,46.88,54a8.76,8.76,0,0,1-8.6-8.63,8.59,8.59,0,0,1,2.62-6.11A8.49,8.49,0,0,1,46.85,36.77Z"/>
  <path fill="#1f2555" class="cls-1" d="M5.22,10.18q12,14.58,23.92,29.17h0a2.76,2.76,0,0,0,.72.63,1.27,1.27,0,0,0,.59.16A1.07,1.07,0,0,0,31,40a1.36,1.36,0,0,0,.65-1.2v-.15l-.14-.24a3.62,3.62,0,0,0-.37-.57Q19.2,23.26,7.27,8.69l-.12-.15a7.53,7.53,0,0,0-.65-.73,1.25,1.25,0,0,0-1-.38,1,1,0,0,0-.74.44,1.81,1.81,0,0,0-.19,1.38,1.72,1.72,0,0,0,.48.76A1.29,1.29,0,0,1,5.22,10.18Z"/>
  <path fill="#1f2555" class="cls-1" d="M21.84,4.33l.1.12h0L39.76,26.17l2.75,3.34a1.75,1.75,0,0,0,1.29.78,1.19,1.19,0,0,0,.71-.25,1.11,1.11,0,0,0,.44-.76,1.93,1.93,0,0,0-.58-1.43l-12-14.63Q28.06,7.88,23.68,2.55A3.63,3.63,0,0,0,23.07,2l-.13-.1-.14-.12h-.17a1.45,1.45,0,0,0-1.27.62,1.25,1.25,0,0,0,0,1.24A5.32,5.32,0,0,0,21.84,4.33Z"/>
  <path fill="#1f2555" class="cls-1" d="M17.9,17.35l.42-.28-.39.32L25.85,27c1.69,2.05,3.37,4.1,5.07,6.13a3.15,3.15,0,0,0,.61.54l.29.22.33.27.31-.28a2,2,0,0,1,.25-.18,1.1,1.1,0,0,0,.56-.75,2,2,0,0,0-.39-1.33Q27.06,24.47,21.2,17.36l-1.51-1.84a2.33,2.33,0,0,0-.38-.4,1.19,1.19,0,0,0-1.65,0,1.17,1.17,0,0,0-.19,1.65Z"/>
</svg>