<?xml version="1.0" encoding="utf-8"?>
<!-- Generator: Adobe Illustrator 24.0.3, SVG Export Plug-In . SVG Version: 6.00 Build 0)  -->
<svg version="1.1" id="Layer_1" xmlns="http://www.w3.org/2000/svg" xmlns:xlink="http://www.w3.org/1999/xlink" x="0px" y="0px"
	 viewBox="0 0 64 64" enable-background="new 0 0 64 64" xml:space="preserve">
<path d="M22.5,51.6L22.5,51.6c-5.5,0-10-4.4-10-10c0-0.6-0.5-1.2-1.2-1.2c-0.6,0-1.2,0.5-1.2,1.2c0,6.8,5.5,12.3,12.3,12.3
	c0.6-0.1,1.1-0.6,1.1-1.3C23.5,52.2,23.1,51.7,22.5,51.6z M22.5,59.2C12.8,59.2,5,51.4,5,41.7c0-0.6-0.5-1.2-1.2-1.2
	c-0.6,0-1.2,0.5-1.2,1.2c0,11,8.9,19.8,19.9,19.8c0.6-0.1,1.1-0.6,1.1-1.3C23.5,59.7,23.1,59.2,22.5,59.2z M62.7,50.3
	C62.7,50.3,62.7,50.3,62.7,50.3L48.9,36.5c-0.1-0.1-0.2-0.2-0.4-0.3l-6.1-2.4l5.5-5.5c1.4-1.4,1.4-3.7,0-5.1l-7-7
	c-1.4-1.4-3.7-1.4-5.1,0c0,0,0,0,0,0l-5.5,5.5l-2.4-6.1c-0.1-0.2-0.1-0.3-0.3-0.4L13.9,1.5c-0.5-0.4-1.2-0.4-1.7,0L2,11.7
	c-0.5,0.4-0.5,1.2,0,1.6c0,0,0,0,0,0l13.8,13.8c0.1,0.1,0.2,0.2,0.4,0.3l6.1,2.4l-0.8,0.8c-2.2,2.2-2.5,5.6-0.8,8.2l-2.4,2.4
	c-0.5,0.5-0.5,1.2,0,1.7l3,3c0.5,0.4,1.2,0.4,1.7,0l2.4-2.4c2.6,1.7,6,1.3,8.2-0.8l0.8-0.8l2.4,6.1c0.1,0.1,0.1,0.3,0.3,0.4
	l13.8,13.8c0.2,0.2,0.5,0.3,0.8,0.3c0.3,0,0.6-0.1,0.8-0.3L62.7,52C63.1,51.6,63.2,50.8,62.7,50.3z M17.3,25.3L4.5,12.6L13.1,4
	l12.8,12.8l2.7,6.8L24.1,28L17.3,25.3z M31.9,41c-1.6,1.6-4.2,1.6-5.8,0c-0.4-0.5-1.2-0.5-1.6,0c0,0,0,0,0,0
	c-0.1,0.1-0.1,0.2-0.2,0.3l-2.1,2.1L20.8,42l2.1-2.1c0.1,0,0.2-0.1,0.3-0.1c0.4-0.4,0.4-1,0.2-1.4l-0.2-0.2
	c-1.5-1.6-1.5-4.2,0.1-5.8L37.5,18c0.5-0.5,1.3-0.5,1.8,0l7,7c0.2,0.2,0.4,0.6,0.4,0.9c0,0.3-0.1,0.7-0.4,0.9L31.9,41z M51.7,59.7
	L38.9,46.9l-2.7-6.8l4.4-4.4l6.8,2.7l12.8,12.8L51.7,59.7z"/>
</svg>
