<svg xmlns="http://www.w3.org/2000/svg" viewBox="0 0 63.97 64">
  <title>brand-rocket</title>
  <g id="Layer_2" data-name="Layer 2">
    <g id="Layer_1-2" data-name="Layer 1">
      <path d="M29.26,51.33a.91.91,0,0,1-.67-.28L12.92,35.38a.93.93,0,0,1-.22-1c.19-.53,4.93-13.07,17.39-25.53C42.81-3.87,61.39,1.71,61.58,1.77a1,1,0,0,1,.63.62c0,.19,5.62,18.76-7.1,31.48-12.46,12.47-25,17.21-25.52,17.4A.92.92,0,0,1,29.26,51.33ZM14.71,34.48,29.49,49.26A79.92,79.92,0,0,0,53.76,32.52C64.55,21.74,61.27,6.39,60.52,3.46c-2.94-.76-18.3-4-29.07,6.74A79.63,79.63,0,0,0,14.71,34.48Z" stroke="#231f20" fill="#231f20" stroke-miterlimit="10"/>
      <path d="M1.46,37.31A1,1,0,0,1,1,37.19a1,1,0,0,1-.47-1c.08-.33,1.88-8.09,6.34-12.55s12.3-3.41,12.62-3.36a1,1,0,0,1-.3,1.89c-.07,0-7.07-1.08-11,2.82A23.74,23.74,0,0,0,3.28,33.6a20.2,20.2,0,0,1,12-3.31,1,1,0,0,1,.92,1,.93.93,0,0,1-1,.93A17.52,17.52,0,0,0,2.13,37,1,1,0,0,1,1.46,37.31Z" stroke="#231f20" fill="#231f20" stroke-miterlimit="10"/>
      <path d="M27.65,63.5A1,1,0,0,1,27,61.87c4.6-4.6,4.91-10.67,4.83-13.07a1,1,0,0,1,1.91-.06,20.52,20.52,0,0,1-3.32,12c2.56-.9,6.23-2.5,8.67-4.94,3.92-3.92,2.83-10.9,2.82-11a1,1,0,0,1,1.89-.3c0,.32,1.24,8-3.36,12.62S28.19,63.4,27.86,63.48Z" stroke="#231f20" fill="#231f20" stroke-miterlimit="10"/>
      <path d="M45.89,25a6.89,6.89,0,1,1,0-13.78h0A6.9,6.9,0,0,1,50.76,23h0A6.87,6.87,0,0,1,45.89,25Zm0-11.87a5,5,0,1,0,3.52,1.46,5,5,0,0,0-3.52-1.46Zm4.2,9.18h0Z" stroke="#231f20" fill="#231f20" stroke-miterlimit="10"/>
      <path d="M7.58,57.34a1,1,0,0,1-.68-.28.92.92,0,0,1-.27-.79C6.74,55.43,7.75,48,9.81,46A5.8,5.8,0,0,1,18,54.16h0C16,56.22,8.54,57.23,7.7,57.34Zm6.33-11.17a3.89,3.89,0,0,0-2.75,1.14c-1.05,1-2,5-2.45,7.95,2.94-.48,6.9-1.41,8-2.45a3.89,3.89,0,0,0-2.75-6.64Zm3.43,7.31h0Z" stroke="#231f20" fill="#231f20" stroke-miterlimit="10"/>
    </g>
  </g>
</svg>