<svg id="Layer_1" data-name="Layer 1" xmlns="http://www.w3.org/2000/svg" viewBox="0 0 32 32"><title>Triangle</title><path fill="#1f2555" d="M26.34,18.2l-1.07-1.8h1a2.77,2.77,0,0,0,1.8,1.73,2.76,2.76,0,0,0,3.43-3.51,2.76,2.76,0,0,0-5.23-.08h0c-.63,0-1.31,0-2.12,0L21.26,9.64,16.89,2.27a1,1,0,0,0-1.11-.56,1.4,1.4,0,0,0-.69.59c-.5.83-1,1.67-1.49,2.51L12.48,6.69v0H9.87a2.77,2.77,0,1,0,0,1.88h1.48L.57,26.79a1,1,0,0,0-.09,1.07,1,1,0,0,0,1,.48H30.61c.53,0,.85-.21.94-.61a1.36,1.36,0,0,0-.15-1Q28.88,22.48,26.34,18.2Zm-12-9.61H15a1,1,0,0,0,1.05-1c0-.41-.29-.9-1.07-.91h-.28L16,4.44l3.53,5.93h-7c.35-.59.71-1.2,1.07-1.77Zm2.8,5.93c-.83,0-1.13.49-1.13.94s.3.94,1.15.94h6c.49.85,1,1.69,1.5,2.55l.09.14H7.31L9,16.3q1.18-2,2.36-4l.08-.05h9.25c.39.7.8,1.39,1.26,2.17l0,.09ZM3,26.46l1.78-3c.48-.8,1-1.61,1.47-2.45q9.8,0,19.6,0l2.61,4.44L29,26.46Zm25.9-9.65a1.34,1.34,0,0,1-.94-2.32,1.33,1.33,0,0,1,.94-.39,1.37,1.37,0,0,1,1,2.34A1.37,1.37,0,0,1,28.85,16.81ZM8.64,7.65a1.39,1.39,0,0,1-.43,1,1.36,1.36,0,0,1-1,.41A1.42,1.42,0,0,1,5.9,7.65a1.33,1.33,0,0,1,.39-1,1.26,1.26,0,0,1,.92-.39h.08A1.35,1.35,0,0,1,8.64,7.65Z"/></svg>