<svg version="1.1" id="Layer_1" xmlns="http://www.w3.org/2000/svg" xmlns:xlink="http://www.w3.org/1999/xlink" x="0px" y="0px"
	 viewBox="0 0 64 64" enable-background="new 0 0 64 64" xml:space="preserve">
<path fill="#1f2555" d="M62.9,54.9c-3.4-5.8-6.9-11.7-10.4-17.5l-2.8-4.8h0.4h0.3c0.9,0,1.8,0,2.7,0c0.4,0,0.5,0.1,0.6,0.5
	c0.5,1.5,1.7,2.7,3.3,3.1c1.5,0.5,3.2,0.2,4.5-0.8c2.1-1.8,2.4-4.9,0.7-7c-0.9-1.1-2.3-1.8-3.7-1.8c-2.1,0-3.9,1.3-4.6,3.2
	c-0.2,0.4-0.3,0.5-0.8,0.5c-1.3,0-2.7,0-4.2,0c-0.3,0-0.6-0.1-0.8-0.4c-2-3.3-3.9-6.6-5.9-9.9l-3.8-6.4c-1.7-2.9-3.5-5.8-5.2-8.7
	c-0.3-0.6-0.7-1-1.4-0.8c-0.4,0.2-0.8,0.5-1,0.9c-1,1.7-2,3.4-3.1,5.1l-0.3,0.4c-0.7,1.1-1.4,2.3-2,3.4c-0.1,0.1-0.2,0.2-0.3,0.3
	l-0.1,0.1H25c-1.5,0-3,0-4.5,0h-1.6L18.9,14c0-0.1,0-0.2-0.1-0.2c-0.8-2.3-3.1-3.6-5.4-3.3c-2.7,0.5-4.5,3.1-4,5.8
	c0.3,1.8,1.6,3.2,3.3,3.8c2.5,0.7,5.2-0.6,6.1-3.1c0-0.1,0.1-0.2,0.2-0.3l0.1-0.1h0.1h2.7h1.9L1,55c-0.3,0.4-0.4,1-0.2,1.5
	c0.3,0.5,0.9,0.7,1.4,0.6H62c0.5,0,1.1-0.1,1.2-0.7C63.3,55.9,63.2,55.3,62.9,54.9z M56.6,29.6c0.5-0.5,1.1-0.7,1.8-0.7
	c1.4,0,2.6,1.2,2.6,2.6c0,0.7-0.3,1.3-0.7,1.8C59.7,33.7,59,34,58.4,34l0,0c-1.4,0-2.5-1.1-2.5-2.5c0,0,0,0,0,0
	C55.8,30.7,56.1,30.1,56.6,29.6z M15.9,17.2c-0.5,0.5-1.1,0.8-1.8,0.8h-0.1c-1.4-0.1-2.5-1.2-2.5-2.6c0-0.7,0.3-1.3,0.7-1.8
	c0.5-0.5,1.2-0.8,1.9-0.7c1.4,0,2.6,1.1,2.6,2.5c0,0,0,0,0,0C16.7,16.1,16.4,16.7,15.9,17.2z M24,20.8c0.8-1.3,1.5-2.6,2.4-3.9l0,0
	c0.1-0.2,0.3-0.3,0.5-0.3c0.5,0,1.1,0,1.6,0h1.3c0.9,0,1.5-0.5,1.5-1.2c0-0.3-0.1-1.1-1.5-1.1H28l4-6.8l8.5,14.3h-17L24,20.8z
	 M16.7,33.1c1.7-2.9,3.4-5.7,5.1-8.6c0.1-0.3,0.5-0.5,0.8-0.5c6.1,0,12.2,0,18.9,0c0.3,0,0.6,0.1,0.7,0.4c0.8,1.5,1.7,2.9,2.6,4.5
	l0.8,1.3H34.3c-1.4,0-1.6,0.8-1.6,1.2s0.2,1.2,1.6,1.2h12.2c0.3,0,0.6,0.1,0.7,0.4c1,1.7,2,3.5,3.1,5.2l0.8,1.4H12.9L16.7,33.1z
	 M4,54.7l4.3-7.3c1-1.7,2-3.3,2.9-5c0.1-0.3,0.4-0.5,0.7-0.4c13.4,0,26.8,0,40.1,0c0.4,0,0.5,0,0.6,0.3c1.8,3,3.6,6,5.4,9.1l1.9,3.3
	H4z"/>
</svg>
