<svg xmlns="http://www.w3.org/2000/svg" viewBox="0 0 63.32 53.85"><title>brand-triangle</title><g id="Layer_2" data-name="Layer 2"><g id="Layer_1-2" data-name="Layer 1"><path d="M52.33,33.48l-2.45-4.14v0h.32c.92,0,1.8,0,2.68,0,.23,0,.23,0,.33.28A5.2,5.2,0,0,0,61.32,32a5.22,5.22,0,0,0-3.22-9.33,5.1,5.1,0,0,0-4.87,3.43c-.11.32-.15.35-.51.34-1.33,0-2.71,0-4.22,0a.5.5,0,0,1-.55-.32c-2.05-3.5-4.12-7-6.19-10.47l-3.5-5.89L33.08,1C32.84.6,32.33-.25,31.37.07a2.36,2.36,0,0,0-1.16,1C29.14,2.84,28.08,4.63,27,6.42c-.72,1.22-1.44,2.45-2.17,3.67a1.44,1.44,0,0,1-.22.27c-1.64,0-3.28,0-4.92,0h-1c0-.09-.06-.17-.08-.25a5.21,5.21,0,1,0,0,3.39.91.91,0,0,1,.13-.22c1.26,0,2.53,0,3.86,0H23L.37,51.41a1.58,1.58,0,0,0-.18,1.71,1.64,1.64,0,0,0,1.65.73H61.69c.49,0,1.27-.05,1.47-.88a2.42,2.42,0,0,0-.27-1.65Q57.63,42.38,52.33,33.48ZM13,35.84,16.44,30q2.61-4.39,5.21-8.82a.55.55,0,0,1,.59-.35h0q9.45,0,18.9,0a.46.46,0,0,1,.5.27c.84,1.48,1.71,3,2.59,4.46l.53.9H34c-1.68,0-1.86,1-1.86,1.46s.14,1.43,1.88,1.44H46.17c.28,0,.36,0,.49.27,1,1.74,2,3.47,3.09,5.24l.61,1ZM26.24,13.48a.72.72,0,0,1,.36-.18c.57,0,1.15,0,1.73,0h1.19c1,0,1.71-.62,1.69-1.48,0-.68-.47-1.4-1.73-1.41H28.06l3.6-6.11,8.1,13.61H23.59l.29-.49C24.66,16.09,25.43,14.78,26.24,13.48ZM8,44.28Q9.5,41.67,11,39.06a.45.45,0,0,1,.49-.3H51.78c.32,0,.34,0,.43.17q2.76,4.7,5.54,9.38L59.31,51H4ZM58.1,30.18h0a2.32,2.32,0,0,1,0-4.64h0a2.31,2.31,0,0,1,2.28,2.33,2.33,2.33,0,0,1-.67,1.67A2.36,2.36,0,0,1,58.1,30.18Zm-42-18.36a2.37,2.37,0,0,1-.72,1.65,2.29,2.29,0,0,1-1.65.69,2.37,2.37,0,0,1-2.3-2.34,2.27,2.27,0,0,1,2.35-2.31A2.31,2.31,0,0,1,16.06,11.82Z" fill="#099"/></g></g></svg>