<svg version="1.1" id="Layer_1" xmlns="http://www.w3.org/2000/svg" xmlns:xlink="http://www.w3.org/1999/xlink" x="0px" y="0px"
	 viewBox="0 0 64 64" xml:space="preserve">
<path fill="#000000" d="M59.7,36.6l-9.4-11.5l-4-4.9c-0.4-0.5-0.8-1-1.2-1.5c-0.4-0.6-1.1-0.7-1.7-0.4c-0.1,0-0.1,0.1-0.1,0.1
	c-0.3,0.2-0.5,0.5-0.5,0.9c0,0.4,0.1,0.7,0.4,1l4.4,5.4c3.5,4.2,6.8,8.3,10.2,12.4c2.8,3.3,3.8,7.8,2.6,11.9
	c-2,6.9-9.2,10.9-16.1,8.9c-2.6-0.7-4.9-2.3-6.5-4.4C31.2,46.9,24.8,39,18.3,31.2L9.7,20.7l-2.6-3.2c-0.2-0.3-0.6-0.5-1-0.5
	c-0.3,0-0.6,0.1-0.8,0.3c-0.3,0.3-0.4,0.8-0.5,1.2c0,0.3,0.1,0.6,0.4,0.7l7.6,9.2c7.6,9.3,15.3,18.6,22.9,27.9
	c2.9,3.7,7.4,5.8,12.1,5.8h0.1c2.1,0,4.2-0.4,6.2-1.2c5.3-2.2,8.8-7.1,9.3-12.8C63.7,44,62.4,39.8,59.7,36.6z M35.7,45.4
	c-0.1,6.1,4.8,11.1,11,11.2c0.1,0,0.2,0,0.3,0H47c2.9,0,5.7-1.2,7.8-3.2c4.4-4.4,4.4-11.4,0.1-15.8c-2.1-2.1-4.9-3.3-7.9-3.3
	c-3,0-5.9,1.2-8,3.3C36.9,39.6,35.7,42.5,35.7,45.4z M46.8,36.8H47c4.7,0,8.6,3.8,8.6,8.6c0,0.1,0,0.1,0,0.2c-0.1,4.8-4,8.6-8.7,8.5
	h0c-4.7-0.1-8.5-3.9-8.6-8.6c0-2.3,1-4.5,2.6-6.1C42.5,37.7,44.6,36.8,46.8,36.8z M5.2,10.2c8,9.7,16,19.4,23.9,29.2
	c0.2,0.3,0.4,0.5,0.7,0.6c0.2,0.1,0.4,0.2,0.6,0.2c0.2,0,0.4,0,0.5-0.1c0.4-0.3,0.7-0.7,0.7-1.2v-0.2l-0.1-0.2
	c-0.1-0.2-0.2-0.4-0.4-0.6c-8-9.7-15.9-19.4-23.9-29.1L7.2,8.5C6.9,8.3,6.7,8,6.5,7.8c-0.3-0.3-0.6-0.4-1-0.4
	c-0.3,0-0.6,0.2-0.7,0.4C4.5,8.3,4.4,8.8,4.6,9.2C4.7,9.5,4.8,9.8,5,10C5.1,10.1,5.2,10.1,5.2,10.2z M21.8,4.3l0.1,0.1l17.8,21.7
	l2.8,3.3c0.3,0.4,0.8,0.7,1.3,0.8c0.3,0,0.5-0.1,0.7-0.2c0.2-0.2,0.4-0.5,0.4-0.8c0-0.5-0.2-1.1-0.6-1.4l-12-14.6
	c-2.9-3.6-5.8-7.1-8.7-10.7c-0.2-0.2-0.4-0.4-0.6-0.5l-0.1-0.1l-0.1-0.1h-0.2c-0.5,0-1,0.2-1.3,0.6c-0.2,0.4-0.2,0.9,0,1.2
	C21.5,3.9,21.7,4.1,21.8,4.3z M17.5,16.8l0.4,0.6l0.4-0.3l-0.4,0.3l7.9,9.6c1.7,2,3.4,4.1,5.1,6.1c0.2,0.2,0.4,0.4,0.6,0.5l0.3,0.2
	l0.3,0.3l0.3-0.3c0.1-0.1,0.2-0.1,0.2-0.2c0.3-0.2,0.5-0.4,0.6-0.8c0-0.5-0.1-0.9-0.4-1.3c-3.9-4.8-7.8-9.5-11.7-14.3l-1.5-1.8
	c-0.1-0.1-0.2-0.3-0.4-0.4c-0.5-0.4-1.2-0.4-1.7,0C17.2,15.5,17.1,16.3,17.5,16.8C17.5,16.8,17.5,16.8,17.5,16.8z"/>
</svg>
