<svg id="Layer_1" data-name="Layer 1"
  xmlns="http://www.w3.org/2000/svg" viewBox="0 0 64 64">
  <title>Component_Icons</title>
  <path fill="#1f2555" d="M61.39,3.11a1.07,1.07,0,0,0-.7-.7C60.51,2.36,42.3-3,29.9,9.35a82.77,82.77,0,0,0-9.56,11.46,1,1,0,0,0-.66-.41c-.08,0-7.84-1.27-12.41,3.3C2.9,28.07,1.14,35.67,1.07,36a1.06,1.06,0,0,0,.52,1.16A1.08,1.08,0,0,0,2.84,37a16.48,16.48,0,0,1,10.9-4.65c-.51,1.12-.76,1.8-.81,1.93a1.05,1.05,0,0,0,.24,1.12L28.43,50.63a1.1,1.1,0,0,0,1.12.25c.13-.05.82-.32,2-.83A16.65,16.65,0,0,1,26.86,61a1.06,1.06,0,0,0,.75,1.8l.23,0c.32-.08,7.91-1.83,12.29-6.21,4.53-4.53,3.36-12.09,3.3-12.41a1,1,0,0,0-.45-.68A83.51,83.51,0,0,0,54.45,33.9C66.92,21.43,61.45,3.31,61.39,3.11Zm-22.75,52a22.5,22.5,0,0,1-8,4.65,20.15,20.15,0,0,0,3-10.69,75.75,75.75,0,0,0,7.71-4.47C41.46,45.29,42.19,51.52,38.64,55.07ZM53,32.41C45.29,40.07,30.83,48,29.43,48.64L15.16,34.37c.6-1.15,8.41-15.71,16.24-23.53C41.76.48,56.48,3.51,59.52,4.28,60.3,7.32,63.33,22,53,32.41ZM19.22,22.46a78.1,78.1,0,0,0-4.47,7.72,19.63,19.63,0,0,0-10.63,3,22.54,22.54,0,0,1,4.64-8c2.42-2.42,6.12-2.85,8.44-2.85A18.36,18.36,0,0,1,19.22,22.46Z"/>
  <path fill="#1f2555" d="M45.38,11.59h0a6.84,6.84,0,1,0,4.83,11.67l0,0h0a6.86,6.86,0,0,0,0-9.64A6.78,6.78,0,0,0,45.38,11.59Zm3.34,10.18a4.73,4.73,0,1,1,0-6.69A4.74,4.74,0,0,1,48.72,21.77Z"/>
  <path fill="#1f2555" d="M10.15,45.49h0c-2,2-3,9.29-3.14,10.12a1,1,0,0,0,1.05,1.18H8.2c.82-.11,8.08-1.11,10.11-3.13a5.77,5.77,0,0,0-8.16-8.17Zm6.67,6.67c-1,1-4.61,1.85-7.51,2.33.48-2.9,1.37-6.55,2.33-7.51a3.66,3.66,0,1,1,5.18,5.18Z"/>
</svg>