<?xml version="1.0" encoding="utf-8"?>
<!-- Generator: Adobe Illustrator 24.0.3, SVG Export Plug-In . SVG Version: 6.00 Build 0)  -->
<svg version="1.1" id="Layer_1" xmlns="http://www.w3.org/2000/svg" xmlns:xlink="http://www.w3.org/1999/xlink" x="0px" y="0px"
	 viewBox="0 0 64 64" enable-background="new 0 0 64 64" xml:space="preserve">
<path d="M61.4,3.1c-0.1-0.3-0.4-0.6-0.7-0.7c-0.2,0-18.4-5.4-30.8,6.9c-3.5,3.5-6.7,7.4-9.6,11.5c-0.2-0.2-0.4-0.4-0.7-0.4
	c-0.1,0-7.8-1.3-12.4,3.3c-4.4,4.4-6.1,12-6.2,12.3c-0.1,0.5,0.1,0.9,0.5,1.2C2,37.4,2.5,37.3,2.8,37c2.9-2.8,6.8-4.5,10.9-4.7
	c-0.5,1.1-0.8,1.8-0.8,1.9c-0.1,0.4-0.1,0.8,0.2,1.1l15.3,15.2c0.3,0.3,0.7,0.4,1.1,0.2c0.1,0,0.8-0.3,2-0.8c-0.2,4.1-1.8,8-4.7,11
	c-0.4,0.4-0.4,1.1,0,1.5c0.2,0.2,0.5,0.3,0.7,0.3h0.2c0.3-0.1,7.9-1.8,12.3-6.2c4.5-4.5,3.4-12.1,3.3-12.4c0-0.3-0.2-0.5-0.5-0.7
	c4.1-2.9,7.9-6.1,11.5-9.6C66.9,21.4,61.5,3.3,61.4,3.1z M4.1,33.2c1-3,2.6-5.7,4.6-8c2.4-2.4,6.1-2.9,8.4-2.9c0.7,0,1.3,0,2,0.1
	c-1.6,2.5-3.1,5.1-4.5,7.7C11,30.1,7.3,31.2,4.1,33.2z M38.6,55.1L38.6,55.1c-2.3,2.1-5,3.7-8,4.7c2-3.2,3-6.9,3-10.7
	c2.7-1.3,5.2-2.8,7.7-4.5C41.5,45.3,42.2,51.5,38.6,55.1z M29.4,48.6L15.2,34.4c0.6-1.2,8.4-15.7,16.2-23.5
	C41.8,0.5,56.5,3.5,59.5,4.3c0.8,3,3.8,17.7-6.5,28.1C45.3,40.1,30.8,48,29.4,48.6z M45.4,11.6c-3.8,0-6.8,3-6.9,6.8
	c0,3.8,3,6.8,6.8,6.9c1.8,0,3.6-0.7,4.9-2c2.6-2.7,2.6-7,0-9.6C48.9,12.3,47.2,11.6,45.4,11.6z M48.7,21.8c-1.8,1.8-4.8,1.8-6.7,0
	s-1.8-4.8,0-6.7c1.8-1.8,4.8-1.8,6.7,0C50.6,16.9,50.6,19.9,48.7,21.8z M10.2,45.5c-2,2-3,9.3-3.1,10.1c-0.1,0.5,0.3,1.1,0.8,1.2
	c0.1,0,0.2,0,0.2,0h0.1c0.8-0.1,8.1-1.1,10.1-3.1c2.3-2.3,2.3-5.9,0-8.2S12.4,43.2,10.2,45.5z M16.8,52.2c-1,1-4.6,1.9-7.5,2.3
	c0.5-2.9,1.4-6.5,2.3-7.5c1.4-1.4,3.7-1.4,5.2,0S18.3,50.7,16.8,52.2z"/>
</svg>
