<svg version="1.1" id="b0f36f70-c80f-46c0-bc35-90d3e7ba5610"
	 xmlns="http://www.w3.org/2000/svg" xmlns:xlink="http://www.w3.org/1999/xlink" x="0px" y="0px" viewBox="0 0 32 32"
	 xml:space="preserve">
<path fill="#000000" d="M16.9,19.8l8.6-11.2l-11.2,8.6
	c-0.8,0.6-0.9,1.8-0.2,2.6l0.1,0.1C15,20.6,16.2,20.6,16.9,19.8L16.9,19.8z M19.4,4c-0.7-0.2-1.3-0.3-2-0.4l-0.2,1.9l1.7,0.3L19.4,4
	z M13.9,5.7l-0.4-1.9c-0.7,0.1-1.3,0.3-1.9,0.6l0.7,1.8C12.8,5.9,13.3,5.8,13.9,5.7z M24.6,7c-0.5-0.5-1-0.9-1.6-1.3l-1,1.6
	c0.5,0.3,0.9,0.7,1.3,1.1L24.6,7z M9.3,7.9L8.1,6.4c-0.5,0.4-1,0.9-1.4,1.4L8.1,9C8.5,8.6,8.9,8.2,9.3,7.9z M27.8,12
	c-0.2-0.6-0.5-1.2-0.8-1.8l-1.7,0.9c0.3,0.5,0.5,1,0.7,1.6L27.8,12z M6.3,11.9l-1.8-0.7c-0.3,0.6-0.5,1.2-0.6,1.9l1.9,0.5
	C5.9,13,6.1,12.4,6.3,11.9z M28.5,16h-1.9c0,0.6,0,1.1-0.1,1.7l1.9,0.3C28.4,17.3,28.5,16.7,28.5,16z M5.8,18.5
	c-0.1-0.5-0.2-1.1-0.3-1.7L3.6,17c0.1,0.7,0.2,1.3,0.3,2L5.8,18.5z M27,21.8l-1.7-0.9c-0.3,0.5-0.6,1-0.9,1.4l1.5,1.2
	C26.3,23,26.7,22.4,27,21.8z M8.1,23c-0.4-0.4-0.7-0.9-1-1.4l-1.6,1c0.4,0.6,0.8,1.1,1.2,1.6L8.1,23z M16,2C8.3,2,2,8.3,2,16
	s6.3,14,14,14s14-6.3,14-14S23.7,2,16,2z M16,32C7.2,32,0,24.8,0,16S7.2,0,16,0s16,7.2,16,16S24.8,32,16,32z"/>
</svg>
