<svg id="Layer_1" data-name="Layer 1" xmlns="http://www.w3.org/2000/svg" viewBox="0 0 32 32"><title>Comet</title><path fill="#1f2555" d="M29.19,17.75,22.52,9.59l-.59-.7a1,1,0,0,0-1.42-.18,1,1,0,0,0-.37.69,1,1,0,0,0,.27.77l2.21,2.67C24.31,14.9,26,17,27.69,19a6,6,0,0,1,1.22,5.63,6.1,6.1,0,0,1-10.66,2.11L4.28,9.83,3,8.25a1,1,0,0,0-.72-.39.86.86,0,0,0-.67.25A1.25,1.25,0,0,0,1.24,9a.83.83,0,0,0,.26.63l3.77,4.59Q11,21.12,16.68,28.06a8,8,0,0,0,6.33,3,7.48,7.48,0,0,0,3.22-.67,7.85,7.85,0,0,0,4.82-6.67A7.86,7.86,0,0,0,29.19,17.75Z"/><path fill="#1f2555" d="M18,22.78a4.95,4.95,0,1,0,5-4.94,5,5,0,0,0-3.53,1.46A4.9,4.9,0,0,0,18,22.78Zm1.72-.05a3.24,3.24,0,0,1,1-2.28,3.14,3.14,0,0,1,2.21-.91h0a3.21,3.21,0,0,1,3.22,3.25A3.23,3.23,0,0,1,23,26h0A3.28,3.28,0,0,1,19.75,22.73Z"/><path fill="#1f2555" d="M1.61,4.78l12,14.61a1.62,1.62,0,0,0,.45.39.94.94,0,0,0,.48.13A.92.92,0,0,0,15,19.8a1.06,1.06,0,0,0,.51-1v-.11l-.12-.2a1.94,1.94,0,0,0-.22-.34Q9.2,10.91,3.25,3.65l-.06-.07a3.34,3.34,0,0,0-.35-.4,1,1,0,0,0-.78-.29.9.9,0,0,0-.63.37,1.3,1.3,0,0,0-.15,1A1.11,1.11,0,0,0,1.61,4.78Z"/><path fill="#1f2555" d="M9.79,2.1l.05.06L20.09,14.65a1.23,1.23,0,0,0,.92.53,1,1,0,0,0,.57-.2,1,1,0,0,0,.36-.62,1.32,1.32,0,0,0-.36-1L15.57,6,11.26.76a2.17,2.17,0,0,0-.38-.34l-.1-.09-.1-.08h-.22a1.09,1.09,0,0,0-.94.48,1,1,0,0,0,0,1A2.17,2.17,0,0,0,9.79,2.1Z"/><path fill="#1f2555" d="M8.25,8.17h0l4,4.82,2.5,3a1.74,1.74,0,0,0,.25.23l.09.07a.82.82,0,0,0,.52.15,1.06,1.06,0,0,0,.52-.11.85.85,0,0,0,.43-.64,1.32,1.32,0,0,0-.27-.91c-1.94-2.38-3.88-4.74-5.83-7.11L9.7,6.8a1.39,1.39,0,0,0-.24-.26,1,1,0,0,0-1.3,0A.94.94,0,0,0,8,7.88Z"/></svg>