<svg xmlns="http://www.w3.org/2000/svg" viewBox="0 0 60.1 64.77"><title>brand-orbit</title><g id="Layer_2" data-name="Layer 2"><g id="Layer_1-2" data-name="Layer 1"><path d="M30.05,26.36a8.36,8.36,0,1,0,8.36,8.36A8.37,8.37,0,0,0,30.05,26.36Zm0,14.92a6.57,6.57,0,1,1,6.57-6.56A6.56,6.56,0,0,1,30.05,41.28Z" fill="#231f20" stroke="#231f20" stroke-miterlimit="10"/><path d="M35.6,5.69a5.56,5.56,0,0,0-11.09,0,29.55,29.55,0,1,0,11.09,0Zm-5.55-3.4a3.77,3.77,0,1,1-3.77,3.77A3.77,3.77,0,0,1,30.05,2.29Zm0,60.19a27.76,27.76,0,0,1-5.37-55,5.55,5.55,0,0,0,10.74,0,27.76,27.76,0,0,1-5.37,55Z" fill="#231f20" stroke="#231f20" stroke-miterlimit="10"/><path d="M30.05,16.48A18.23,18.23,0,0,0,14.84,44.75a3.7,3.7,0,0,0,2.95,6A3.75,3.75,0,0,0,20,49.94a18.24,18.24,0,1,0,10-33.46ZM16.43,48.34a1.91,1.91,0,0,1,0-2.72,1.91,1.91,0,0,1,2.72,0,1.92,1.92,0,1,1-2.72,2.72Zm25.25-2a16.38,16.38,0,0,1-20.53,2.18,3.7,3.7,0,0,0-.73-4.18,3.8,3.8,0,0,0-4.18-.72,16.44,16.44,0,1,1,25.44,2.72Z" fill="#231f20" stroke="#231f20" stroke-miterlimit="10"/></g></g></svg>