<svg id="Layer_1" data-name="Layer 1"
  xmlns="http://www.w3.org/2000/svg" viewBox="0 0 64 64">
  <title>Component_Icons</title>
  <path fill="#1f2555" d="M22.51,51.69a10,10,0,0,1-10-10,1.17,1.17,0,0,0-2.34,0A12.35,12.35,0,0,0,22.51,54a1.18,1.18,0,0,0,0-2.35Z"/>
  <path fill="#1f2555" d="M22.51,59.18A17.5,17.5,0,0,1,5,41.7a1.17,1.17,0,0,0-2.34,0A19.85,19.85,0,0,0,22.51,61.53a1.18,1.18,0,0,0,0-2.35Z"/>
  <path fill="#1f2555" d="M62.68,50.32,48.9,36.53a1.15,1.15,0,0,0-.4-.26l-6.09-2.4,5.48-5.48a3.59,3.59,0,0,0,0-5.09l-7-7a3.6,3.6,0,0,0-5.1,0l-5.48,5.49-2.4-6.09a1.07,1.07,0,0,0-.26-.4L13.89,1.53a1.2,1.2,0,0,0-1.65,0L2,11.73a1.15,1.15,0,0,0,0,1.65L15.83,27.17a1,1,0,0,0,.4.26l6.09,2.4-.79.78a6.46,6.46,0,0,0-.81,8.18L18.3,41.22a1.17,1.17,0,0,0,0,1.65l3,3a1.18,1.18,0,0,0,1.65,0l2.43-2.42a6.62,6.62,0,0,0,8.18-.81l.78-.78L36.78,48a1.31,1.31,0,0,0,.26.4L50.83,62.18a1.16,1.16,0,0,0,.83.34,1.19,1.19,0,0,0,.83-.34L62.68,52A1.17,1.17,0,0,0,62.68,50.32ZM40.6,35.68l6.81,2.68L60.2,51.15l-8.54,8.54L38.87,46.9l-2.68-6.81ZM23.15,39.75a1.19,1.19,0,0,0,.18-1.42l0,0-.24-.25a4.15,4.15,0,0,1,.07-5.78L37.48,18a1.26,1.26,0,0,1,1.78,0l7,7a1.29,1.29,0,0,1,.36.89,1.25,1.25,0,0,1-.36.89L31.94,41a4.23,4.23,0,0,1-5.84,0,1.15,1.15,0,0,0-1.63,0,1.31,1.31,0,0,0-.19.27l-2.11,2.11-1.39-1.38,2.1-2.1A1.05,1.05,0,0,0,23.15,39.75ZM17.31,25.34,4.52,12.56,13.07,4,25.85,16.8l2.68,6.81L24.12,28Z"/>
</svg>