<svg id="Layer_1" data-name="Layer 1" xmlns="http://www.w3.org/2000/svg" viewBox="0 0 64 64"><defs><style>.cls-1{fill:#231f20;}</style></defs><title>Component_Icons</title><path class="cls-1" d="M32.2,26.07a8.41,8.41,0,1,0,8.41,8.41A8.41,8.41,0,0,0,32.2,26.07Zm6.16,8.41a6.16,6.16,0,1,1-6.16-6.16A6.16,6.16,0,0,1,38.36,34.48Z"/><path class="cls-1" d="M32.2,63.57A29.09,29.09,0,0,0,37.85,5.94a5.67,5.67,0,0,0-11.29,0A29.09,29.09,0,0,0,32.2,63.57Zm0-53.63a3.43,3.43,0,1,1,3.43-3.43A3.43,3.43,0,0,1,32.2,9.94ZM5.36,34.48A26.87,26.87,0,0,1,26.78,8.19a5.67,5.67,0,0,0,10.84,0A26.84,26.84,0,1,1,5.36,34.48Z"/><path class="cls-1" d="M17.49,49.19a3.86,3.86,0,0,0,2.74,1.13,3.79,3.79,0,0,0,2.19-.69,17.92,17.92,0,0,0,9.78,2.92h0a18.08,18.08,0,1,0-15.15-8.29A3.89,3.89,0,0,0,17.49,49.19Zm6.34-1.32A3.92,3.92,0,0,0,23,43.7a4,4,0,0,0-4.16-.84A15.79,15.79,0,0,1,43.37,23.31,15.79,15.79,0,0,1,23.83,47.87Zm-4.75-2.58a1.63,1.63,0,0,1,2.31,0,1.65,1.65,0,0,1,0,2.31,1.68,1.68,0,0,1-2.31,0A1.65,1.65,0,0,1,19.08,45.29Z"/></svg>