<svg id="Layer_1" data-name="Layer 1" xmlns="http://www.w3.org/2000/svg" viewBox="0 0 32 32"><title>Molecule</title><path fill="#1f2555" d="M28.62,12.61l-3.1-5.38,3.1-5.37A.94.94,0,0,0,28.28.57a1,1,0,0,0-.71-.09A.91.91,0,0,0,27,.92L23.89,6.29H18.23L15.13.92A1,1,0,0,0,13.84.57a.94.94,0,0,0-.43.58.89.89,0,0,0,.09.71l3.1,5.37-2.83,4.91H8.11L5,6.76a.92.92,0,0,0-.57-.43.89.89,0,0,0-.71.09A.93.93,0,0,0,3.38,7.7l3.1,5.38-3.1,5.37a.93.93,0,0,0,0,.94l3.1,5.38-3.1,5.37a.94.94,0,0,0,.34,1.29A1,1,0,0,0,5,31.08l3.11-5.37h5.66l3.1,5.37a1.12,1.12,0,0,0,.29.3.87.87,0,0,0,.29.14,1,1,0,0,0,.24,0h.15a1.1,1.1,0,0,0,.32-.11,1,1,0,0,0,.44-.57,1,1,0,0,0-.1-.72l-3.1-5.37,2.83-4.91h5.66L27,25.24a.94.94,0,1,0,1.62-.94l-3.1-5.38,3.1-5.37A.93.93,0,0,0,28.62,12.61Zm-12,6.31-2.83,4.91H8.11L5.27,18.92,8.11,14h5.66Zm10.13-5.84L23.89,18H18.23l-2.83-4.9,2.83-4.91h5.66ZM18,31.11Z"/></svg>