<svg id="Layer_1" data-name="Layer 1" xmlns="http://www.w3.org/2000/svg" viewBox="0 0 32 32"><title>Rocket</title><path fill="#1f2555" d="M31,1.94h0a.91.91,0,0,0-.58-.58c-.09,0-9.24-2.73-15.47,3.5a40.79,40.79,0,0,0-4.52,5.37l-.18-.05S6.2,9.5,3.8,11.9A14.32,14.32,0,0,0,.66,18.11a.89.89,0,0,0,.43,1,.88.88,0,0,0,1.05-.15A7.54,7.54,0,0,1,6.66,16.8a3.82,3.82,0,0,0-.16.41.89.89,0,0,0,.2.93l7.49,7.48a.89.89,0,0,0,.93.21l.42-.17a7.65,7.65,0,0,1-2.12,4.54A.88.88,0,0,0,14,31.7l.19,0a14.63,14.63,0,0,0,6.21-3.14c2.34-2.35,1.75-6.24,1.72-6.41a.89.89,0,0,0-.06-.2,41.45,41.45,0,0,0,5.37-4.52C33.7,11.18,31,2,31,1.94ZM26.22,16.17C22.79,19.6,16.41,23.22,15,24L8.37,17.33c.7-1.3,4.25-7.7,7.78-11.23C20.9,1.35,27.62,2.51,29.4,2.92,29.82,4.7,31,11.42,26.22,16.17ZM9.29,11.86C8.63,12.9,8,14,7.51,15a10.32,10.32,0,0,0-4.29,1A9.64,9.64,0,0,1,5,13.14a5.67,5.67,0,0,1,3.89-1.29ZM19.2,27.3a9.61,9.61,0,0,1-2.88,1.82,10.53,10.53,0,0,0,1-4.31c1-.53,2.08-1.13,3.12-1.79A5.84,5.84,0,0,1,19.2,27.3Z"/><path fill="#1f2555" d="M22.76,5.85h0a3.72,3.72,0,1,0,2.65,6.32,3.72,3.72,0,0,0-2.65-6.32ZM24.14,11a2,2,0,1,1,0-2.77A1.95,1.95,0,0,1,24.14,11Z"/><path fill="#1f2555" d="M5.22,22.59h0c-1.07,1.07-1.56,4.5-1.65,5.18a.89.89,0,0,0,.25.73.92.92,0,0,0,.63.26h.11c.68-.09,4.11-.59,5.17-1.64a3.19,3.19,0,0,0-4.51-4.52Zm3.27,3.28a8.23,8.23,0,0,1-3,.95,8,8,0,0,1,1-3,1.42,1.42,0,0,1,1-.42,1.4,1.4,0,0,1,1,.43A1.44,1.44,0,0,1,8.49,25.87Z"/></svg>