<svg id="Layer_1" data-name="Layer 1" xmlns="http://www.w3.org/2000/svg" viewBox="0 0 32 32"><title>Orbit</title><path fill="#1f2555" d="M16.41,21.61a4.49,4.49,0,1,0-4.49-4.49A4.49,4.49,0,0,0,16.41,21.61Zm0-7.16a2.67,2.67,0,1,1-2.67,2.67A2.68,2.68,0,0,1,16.41,14.45Z"/><path fill="#1f2555" d="M19.5,2.79a3.15,3.15,0,0,0-6.19,0,14.67,14.67,0,1,0,6.19,0ZM16.41,1.7a1.67,1.67,0,1,1-1.67,1.67A1.67,1.67,0,0,1,16.41,1.7Zm0,28.26A12.84,12.84,0,0,1,13.52,4.61a3.14,3.14,0,0,0,5.78,0A12.84,12.84,0,0,1,16.41,30Z"/><path fill="#1f2555" d="M16.41,7.89a9.22,9.22,0,0,0-7.87,14,2.26,2.26,0,0,0,.38,2.68h0A2.29,2.29,0,0,0,11.6,25a9.23,9.23,0,1,0,4.81-17.1ZM12.13,21.4A2.3,2.3,0,0,0,10,20.82a7.4,7.4,0,1,1,2.72,2.72A2.26,2.26,0,0,0,12.13,21.4Zm-2.38.83a1.13,1.13,0,0,1,1.55,0,1.09,1.09,0,0,1,0,1.55,1.15,1.15,0,0,1-1.55,0A1.09,1.09,0,0,1,9.75,22.23Z"/></svg>