<svg version="1.1" id="Layer_1" xmlns="http://www.w3.org/2000/svg" xmlns:xlink="http://www.w3.org/1999/xlink" x="0px" y="0px"
	 viewBox="0 0 64 64" xml:space="preserve">
<path fill="#1f2555" d="M57.1,25.8l-6.5-11.3l6.5-11.3c0.3-0.6,0.1-1.3-0.4-1.6c-0.3-0.2-0.6-0.2-0.9-0.1C55.4,1.6,55.2,1.8,55,2l-6.5,11.3H36.1
	L29.6,2c-0.3-0.5-1-0.7-1.6-0.4c-0.3,0.2-0.5,0.4-0.5,0.7c-0.1,0.3,0,0.6,0.1,0.9l6.5,11.3l-6.2,10.7H15.5L9,14
	c-0.2-0.3-0.4-0.5-0.7-0.6c-0.6-0.2-1.3,0.2-1.4,0.8c-0.1,0.3,0,0.6,0.1,0.9l6.5,11.3L6.9,37.7c-0.2,0.4-0.2,0.8,0,1.2l6.5,11.3
	L6.9,61.5c-0.3,0.6-0.1,1.3,0.4,1.6c0.6,0.3,1.3,0.1,1.6-0.4l6.5-11.3h12.4l6.5,11.3c0.1,0.1,0.2,0.2,0.3,0.3l0.1,0.1
	c0.1,0.1,0.2,0.1,0.4,0.2c0.1,0,0.2,0,0.3,0h0.1h0.1c0.1,0,0.3-0.1,0.4-0.1c0.3-0.2,0.5-0.4,0.5-0.7c0.1-0.3,0-0.6-0.1-0.9
	l-6.5-11.3l6.2-10.7h12.4L55,50.8c0.3,0.6,1.1,0.8,1.6,0.4c0.6-0.3,0.8-1,0.4-1.6l-6.5-11.3L57.1,27C57.3,26.6,57.3,26.2,57.1,25.8z
	 M34.1,38.3L27.9,49H15.5L9.3,38.3l6.2-10.7h12.4L34.1,38.3z M54.7,26.4l-6.2,10.7H36.1l-6.2-10.7l6.2-10.7h12.4L54.7,26.4z"/>
</svg>
