<svg id="Layer_1" data-name="Layer 1" xmlns="http://www.w3.org/2000/svg" viewBox="0 0 64 64"><defs><style>.cls-1{fill:#231f20;}</style></defs><title>Component_Icons</title><path class="cls-1" d="M62.92,54.91Q57.76,46.15,52.56,37.4l-2.83-4.78.43,0h.31c.94,0,1.81,0,2.67,0,.37,0,.46.11.58.45A4.86,4.86,0,0,0,57,36.15a4.91,4.91,0,0,0,4.47-.84,5,5,0,0,0-3.07-8.85,4.79,4.79,0,0,0-4.61,3.25c-.15.43-.3.53-.75.51-1.3,0-2.67,0-4.2,0a.75.75,0,0,1-.77-.44q-2.93-5-5.87-9.92l-3.79-6.39c-1.72-2.91-3.45-5.81-5.16-8.72-.34-.56-.74-1-1.42-.82a2.07,2.07,0,0,0-1,.88c-1,1.71-2.05,3.43-3.06,5.14l-.26.43c-.67,1.14-1.35,2.28-2,3.42a1.34,1.34,0,0,1-.26.34l-.07.06H25c-1.5,0-3,0-4.5,0H18.93l-.06-.17c0-.08-.05-.16-.08-.24a5,5,0,0,0-5.43-3.31,5,5,0,0,0-.66,9.65A5,5,0,0,0,18.79,17a1.48,1.48,0,0,1,.17-.29l.08-.09h.11l2.73,0h1.88L1,55a1.33,1.33,0,0,0-.18,1.46,1.38,1.38,0,0,0,1.41.6H62c.54,0,1.07-.08,1.22-.69A2.18,2.18,0,0,0,62.92,54.91ZM56.58,29.57a2.53,2.53,0,0,1,1.77-.74,2.59,2.59,0,0,1,1.82,4.41,2.51,2.51,0,0,1-1.8.72h0a2.54,2.54,0,0,1-2.54-2.55A2.59,2.59,0,0,1,56.58,29.57ZM15.9,17.22a2.52,2.52,0,0,1-1.75.77h-.08a2.63,2.63,0,0,1-2.53-2.59,2.54,2.54,0,0,1,.74-1.82,2.46,2.46,0,0,1,1.86-.73A2.55,2.55,0,0,1,16.7,15.4,2.58,2.58,0,0,1,15.9,17.22ZM24,20.84c.77-1.29,1.55-2.62,2.36-3.91h0a.87.87,0,0,1,.55-.29c.54,0,1.08,0,1.61,0h1.31c.89,0,1.46-.5,1.45-1.23,0-.27-.13-1.14-1.48-1.15H28l4-6.84,8.51,14.32h-17Zm-7.3,12.31q2.55-4.29,5.07-8.59a.79.79,0,0,1,.81-.47c6.06,0,12.23,0,18.85,0a.72.72,0,0,1,.72.4c.84,1.48,1.7,2.94,2.58,4.45l.75,1.27H34.3c-1.4,0-1.61.76-1.61,1.2s.16,1.19,1.62,1.19H46.46a.69.69,0,0,1,.72.39c1,1.74,2,3.46,3.08,5.23l.83,1.39H12.91ZM4,54.67,8.29,47.4c1-1.65,2-3.3,2.92-5a.7.7,0,0,1,.71-.43Q32,42,52.06,42c.36,0,.5,0,.64.3,1.78,3,3.58,6,5.37,9.07L60,54.67Z"/></svg>