<svg xmlns="http://www.w3.org/2000/svg" viewBox="0 0 56.95 62.83"><title>brand-atom</title><g id="Layer_2" data-name="Layer 2"><g id="Layer_1-2" data-name="Layer 1"><path d="M28.47,62.83C19.26,62.83,12,49,12,31.42S19.26,0,28.47,0,44.92,13.8,44.92,31.42,37.69,62.83,28.47,62.83Zm0-60.93c-8,0-14.53,13.24-14.53,29.52s6.52,29.51,14.53,29.51S43,47.69,43,31.42,36.49,1.9,28.47,1.9Z"/><path d="M13.8,52.71C8,52.71,3.43,50.87,1.27,47.13c-4.61-8,3.73-21.14,19-29.95h0c15.26-8.81,30.82-9.45,35.43-1.47S52,36.85,36.7,45.66C28.59,50.34,20.39,52.71,13.8,52.71Zm7.41-33.88C7.11,27-1.09,39.24,2.92,46.18s18.73,6,32.82-2.17S58,23.6,54,16.66s-18.73-6-32.82,2.17Z"/><path d="M43.15,52.71c-6.59,0-14.79-2.37-22.89-7.05h0c-15.26-8.81-23.6-22-19-29.95,2.26-3.91,7.26-5.86,14.08-5.5,6.59.35,14.17,2.83,21.35,7,15.25,8.81,23.59,22,19,30C53.52,50.87,49,52.71,43.15,52.71ZM21.21,44C35.3,52.14,50,53.12,54,46.18S49.84,27,35.74,18.83c-6.92-4-14.2-6.38-20.49-6.72C9.18,11.79,4.8,13.4,2.92,16.66c-4,6.94,4.2,19.21,18.29,27.35Z"/><path d="M31.37,31.42a2.9,2.9,0,1,1-2.9-2.9A2.89,2.89,0,0,1,31.37,31.42Z"/></g></g></svg>