<svg version="1.1" id="Layer_1" xmlns="http://www.w3.org/2000/svg" xmlns:xlink="http://www.w3.org/1999/xlink" x="0px" y="0px"
	 viewBox="0 0 57 62.8" xml:space="preserve">
<path fill="#000000" d="M55.7,15.7c-2.5-4.3-8-6.1-15-5.5C37.7,3.9,33.4,0,28.5,0c-4.9,0-9.3,3.9-12.2,10.2c-0.3,0-0.6-0.1-0.9-0.1
	C8.5,9.8,3.5,11.8,1.2,15.7C-1.2,19.9,0,25.6,4,31.4c-4,5.7-5.2,11.5-2.8,15.7c2.2,3.7,6.7,5.6,12.5,5.6c0.8,0,1.6,0,2.4-0.1
	c3,6.3,7.3,10.2,12.2,10.2c4.9,0,9.2-3.9,12.2-10.2c0.8,0.1,1.7,0.1,2.4,0.1c5.8,0,10.4-1.8,12.5-5.6c2.4-4.2,1.2-9.9-2.7-15.7
	C56.9,25.7,58.1,20,55.7,15.7z M54,16.7c2,3.5,1,8.2-2.3,13.1c-2-2.6-4.5-5.1-7.5-7.5c-0.6-3.8-1.5-7.2-2.7-10.2
	C47.4,11.7,52,13.2,54,16.7z M44.6,25.1c2.4,2,4.4,4.2,6,6.3c-1.6,2.1-3.6,4.3-6,6.3c0.2-2,0.3-4.1,0.3-6.3
	C44.9,29.2,44.8,27.1,44.6,25.1z M14.5,39.5c-0.4-2.6-0.6-5.3-0.6-8.1c0-2.8,0.2-5.5,0.6-8.1c2-1.6,4.3-3.1,6.7-4.5
	c2.4-1.4,4.9-2.6,7.2-3.6c2.4,1,4.9,2.2,7.3,3.6c2.4,1.4,4.7,2.9,6.7,4.5c0.4,2.6,0.6,5.3,0.6,8.1c0,2.8-0.2,5.5-0.6,8.1
	c-2,1.6-4.3,3.1-6.7,4.5c-2.4,1.4-4.9,2.6-7.3,3.6c-2.4-1-4.8-2.2-7.3-3.6v0C18.8,42.6,16.5,41.1,14.5,39.5z M42,20.6
	c-1.7-1.2-3.4-2.4-5.3-3.4c-1.8-1.1-3.7-2-5.6-2.9c2.9-1,5.8-1.7,8.4-2C40.6,14.7,41.4,17.5,42,20.6z M28.5,1.9
	c4,0,7.6,3.3,10.2,8.6c-3.2,0.5-6.6,1.4-10.2,2.7c-3.5-1.4-7-2.3-10.3-2.7C20.9,5.2,24.5,1.9,28.5,1.9z M17.4,12.3
	c2.7,0.3,5.6,1,8.4,2c-1.9,0.8-3.7,1.8-5.6,2.9c-1.9,1.1-3.6,2.2-5.3,3.4C15.5,17.6,16.4,14.8,17.4,12.3z M2.9,16.7
	c1.9-3.3,6.3-4.9,12.3-4.5c0.1,0,0.1,0,0.2,0c-1.2,3-2.1,6.4-2.7,10.2c-3,2.4-5.5,4.9-7.5,7.5C2,24.9,0.9,20.1,2.9,16.7z M12.3,37.7
	c-2.4-2-4.4-4.2-6-6.3c1.6-2.1,3.6-4.3,6-6.3c-0.2,2-0.3,4.1-0.3,6.3S12.1,35.7,12.3,37.7z M2.9,46.2C0.9,42.7,2,38,5.2,33
	c2,2.6,4.5,5.1,7.5,7.5c0.6,3.8,1.5,7.2,2.7,10.3C9.5,51.1,4.9,49.6,2.9,46.2z M15,42.2c1.7,1.2,3.4,2.3,5.3,3.4
	c1.9,1.1,3.8,2,5.7,2.9c-3,1-5.8,1.7-8.5,2C16.4,48.1,15.6,45.3,15,42.2z M28.5,60.9c-4,0-7.6-3.3-10.2-8.6
	c3.2-0.5,6.7-1.4,10.2-2.8c3.6,1.4,7,2.3,10.2,2.8C36.1,57.6,32.5,60.9,28.5,60.9z M39.5,50.6c-2.6-0.3-5.5-1-8.4-2
	c1.9-0.8,3.7-1.8,5.6-2.8c1.9-1.1,3.6-2.2,5.3-3.4C41.4,45.3,40.6,48.1,39.5,50.6z M54,46.2c-2,3.4-6.6,4.9-12.5,4.6
	c1.2-3,2.1-6.4,2.7-10.2c3-2.4,5.5-4.9,7.5-7.5C55,38,56,42.7,54,46.2z M28.5,34.3c1.6,0,2.9-1.3,2.9-2.9c0-1.6-1.3-2.9-2.9-2.9h0
	c-1.6,0-2.9,1.3-2.9,2.9C25.6,33,26.9,34.3,28.5,34.3z"/>
</svg>
