<svg id="Layer_1" data-name="Layer 1"
  xmlns="http://www.w3.org/2000/svg" viewBox="0 0 64 64">
  <title>Component_Icons</title>
  <path fill="#1f2555" d="M57.06,25.84l-6.53-11.3L57.06,3.23A1.18,1.18,0,0,0,55.73,1.5a1.2,1.2,0,0,0-.72.55L48.49,13.36H36.12L29.59,2.05A1.19,1.19,0,0,0,28,1.62a1.14,1.14,0,0,0-.55.72,1.15,1.15,0,0,0,.11.89l6.53,11.31L27.89,25.25H15.51L9,14a1.2,1.2,0,0,0-.72-.55,1.18,1.18,0,0,0-1.33,1.73l6.53,11.3L6.94,37.74a1.18,1.18,0,0,0,0,1.18l6.53,11.3L6.94,61.53a1.19,1.19,0,0,0,.43,1.61A1.23,1.23,0,0,0,9,62.71L15.51,51.4H27.89l6.52,11.31a1.54,1.54,0,0,0,.27.31l.09.06a1.35,1.35,0,0,0,.36.18,1.54,1.54,0,0,0,.3,0l.11,0h.09a1.12,1.12,0,0,0,.39-.13,1.14,1.14,0,0,0,.55-.72,1.15,1.15,0,0,0-.11-.89L29.93,50.22l6.19-10.71H48.49L55,50.81a1.2,1.2,0,0,0,1.62.43,1.18,1.18,0,0,0,.43-1.61l-6.53-11.3L57.06,27A1.18,1.18,0,0,0,57.06,25.84Zm-23,12.49L27.89,49H15.51L9.33,38.33l6.18-10.72H27.89Zm20.6-11.9L48.49,37.15H36.12L29.93,26.43l6.18-10.71H48.49Z"/>
</svg>