<?xml version="1.0" encoding="utf-8"?>
<!-- Generator: Adobe Illustrator 24.0.3, SVG Export Plug-In . SVG Version: 6.00 Build 0)  -->
<svg version="1.1" id="Layer_1" xmlns="http://www.w3.org/2000/svg" xmlns:xlink="http://www.w3.org/1999/xlink" x="0px" y="0px"
	 viewBox="0 0 86.1 75.5" enable-background="new 0 0 86.1 75.5" xml:space="preserve">
<path d="M85.1,52.5c-1.4-3.1-4-5.6-7.2-6.8c0.2-0.4,0.4-0.8,0.4-1.2s0-0.8,0-1.3c-0.1-3.1-0.6-6.1-1.5-9
	c-2.8-9.1-9.1-16.7-17.5-21.1c-0.8-0.5-1.7-0.9-2.6-1.2c-0.4-0.1-0.9-0.1-1.3,0c-0.2-3.6-2-7-4.9-9.2s-6.7-3.2-10.3-2.6
	c-6.2,0.8-10.8,6-11,12.2c-0.5,0-1,0.1-1.4,0.4c-3.2,1.6-6.1,3.7-8.7,6.2C12,25.5,8,34.8,8,44.5c0,0.5,0,0.9,0,1.4s0,1,0.1,1.4H8
	c-6.4,2.4-9.6,9.5-7.2,15.9c0.5,1.2,1.1,2.4,2,3.4c4.1,4.9,11,6.3,16.7,3.4c0.7-0.4,1.4-0.9,2.1-1.4c0.2,0.7,0.7,1.3,1.3,1.7
	c6.1,3.6,13.1,5.4,20.2,5.2c4,0,8-0.6,11.8-1.9c3.2-1.1,6.2-2.5,9-4.4c0.6-0.4,1-0.9,1.2-1.6c2.9,2.1,6.4,2.9,9.9,2.3
	c6.1-0.8,11.2-6.1,11.1-12.4C86.1,55.8,85.8,54.1,85.1,52.5z M40.2,4.9C44,4,47.8,5.7,49.7,9c2,3.8,0.5,8.6-3.4,10.5
	c-0.7,0.4-1.4,0.6-2.2,0.7c-0.5,0.1-1,0.1-1.5,0.2c-4.1,0.2-7.8-2.6-8.5-6.7C33.5,9.7,36.2,5.8,40.2,4.9z M21.2,60.9
	c-0.7,2.8-3,5-5.9,5.6c-0.6,0.1-1.2,0.2-1.8,0.3c-2.8,0.1-5.4-1.2-7.1-3.3C4,60.4,4.4,56,7.3,53.3c3.3-3.1,8.5-3,11.8,0.1
	C21.1,55.3,22,58.2,21.2,60.9L21.2,60.9z M44.4,70.8C40.2,71,36,70.5,32,69.1c-2.4-0.8-4.7-1.8-6.9-3.2c-0.3-0.2-0.6-0.3-1-0.3
	c2.1-3.1,2.7-7.1,1.5-10.7c-1.9-5.3-6.9-8.8-12.5-8.8h-0.3c-0.2-2.5-0.1-5,0.5-7.5c1.7-8.8,7.1-16.4,14.9-20.8
	c0.6-0.3,1.1-0.6,1.7-1c0.3,0.8,0.7,1.6,1.2,2.4c4.2,6.1,12.6,7.7,18.8,3.5c0.6-0.4,1.1-0.8,1.6-1.3c1.6-1.5,2.7-3.3,3.4-5.4
	c0.3,0.2,0.6,0.4,1,0.5c4.2,2.1,7.9,5,10.8,8.6c3.5,4.3,5.8,9.5,6.5,15.1c0.2,1.5,0.2,2.9,0.4,4.4c0,0,0,0,0,0.1
	c-2.9-0.1-5.8,0.7-8.3,2.4c-5.6,3.7-7.1,11.3-3.4,16.9c0.2,0.3,0.3,0.5,0.5,0.7c-0.4,0.1-0.8,0.2-1.1,0.4
	C56.2,68.6,50.4,70.5,44.4,70.8L44.4,70.8z M74.6,65.2c-0.6,0.1-1.1,0.1-1.7,0.2c-4.1,0.1-7.6-2.8-8.2-6.8c-0.5-2.8,0.7-5.7,3.1-7.3
	c3.8-2.8,9.1-2,11.9,1.7c0.1,0.2,0.2,0.3,0.3,0.5C83,58,80.2,64.1,74.6,65.2L74.6,65.2z"/>
</svg>
