<svg version="1.1" id="Layer_1" xmlns="http://www.w3.org/2000/svg" xmlns:xlink="http://www.w3.org/1999/xlink" x="0px" y="0px"
	 viewBox="0 0 46 48" enable-background="new 0 0 46 48" xml:space="preserve">
<path fill-rule="evenodd" clip-rule="evenodd" d="M22.9,0.1C10.3,0.1,0.1,9.5,0.1,21c0,6.7,3.4,12.7,8.8,16.5v9.7l8.4-5.9
	c1.8,0.4,3.7,0.6,5.6,0.6c12.6,0,22.8-9.4,22.8-21C45.7,9.5,35.5,0.1,22.9,0.1z M22.9,38.5c-2.1,0-4.2-0.3-6.1-0.9l-4.4,2.6v-4.6
	C7.1,32.5,3.6,27.2,3.6,21c0-9.6,8.6-17.5,19.3-17.5S42.2,11.3,42.2,21C42.2,30.7,33.6,38.5,22.9,38.5z M14.8,18.3
	c-1.4,0-2.4,1.1-2.4,2.6s1,2.6,2.4,2.6c1.5,0,2.4-1.1,2.4-2.6C17.2,19.3,16.2,18.3,14.8,18.3z M23.2,18.3c-1.4,0-2.4,1.1-2.4,2.6
	s1,2.6,2.4,2.6c1.5,0,2.4-1.1,2.4-2.6C25.6,19.3,24.6,18.3,23.2,18.3z M31.6,18.3c-1.4,0-2.4,1.1-2.4,2.6s1,2.6,2.4,2.6
	c1.5,0,2.4-1.1,2.4-2.6C34.1,19.3,33.1,18.3,31.6,18.3z"/>
</svg>
