<svg version="1.1" id="Layer_1" xmlns="http://www.w3.org/2000/svg" xmlns:xlink="http://www.w3.org/1999/xlink" x="0px" y="0px"
	 viewBox="0 0 35 50" enable-background="new 0 0 35 50" xml:space="preserve">
<path fill="#1f2555" fill-rule="evenodd" clip-rule="evenodd" d="M33,9.7c-2.2-4-5.8-7-10.3-8.3C13.6-1.3,3.9,3.8,1.2,12.8
	c-1.5,4.8-0.7,10,2.1,14.2c0.8,1.6,0.7,3.5,0.5,4.9c-0.1,0.7,0.3,1.5,1,1.7l14.7,4.3c0.2,0.1,0.4,0.1,0.6,0.1c0.5-0.1,1-0.4,1.2-0.9
	c0.6-1.3,1.6-3,3.3-3.9c4.6-2,8.2-5.9,9.6-10.7C35.6,18.2,35.1,13.6,33,9.7z M31.4,21.6c-1.2,4-4.2,7.2-8.1,8.9
	c-0.1,0-0.2,0.1-0.3,0.2c-1.9,1.1-3.1,2.7-3.9,4.1L6.9,31.1c0.1-1.5,0-3.6-1-5.6c-2.4-3.6-3-7.9-1.8-11.9C6.3,6.2,14.3,2,21.9,4.2
	c3.7,1.1,6.7,3.5,8.5,6.8C32.1,14.3,32.5,18.1,31.4,21.6z M18.9,39.2l-15-4.1C3.5,35,3.1,35,2.8,35.2c-0.4,0.2-0.6,0.5-0.7,0.9
	c-0.2,0.8,0.3,1.6,1.1,1.8l15,4.1c0.2,0.1,0.4,0.1,0.6,0c0.2,0,0.4-0.1,0.5-0.2c0.4-0.2,0.6-0.5,0.7-0.9
	C20.2,40.2,19.7,39.4,18.9,39.2z M16.9,44.2L2,40.1c-0.8-0.2-1.6,0.2-1.9,1l0,0C0,41.5,0,41.8,0.2,42.2c0.2,0.3,0.5,0.6,0.9,0.7
	l14.9,4c0.2,0.1,0.4,0.1,0.6,0c0.6-0.1,1.1-0.4,1.3-1c0.1-0.4,0.1-0.7-0.1-1.1C17.6,44.5,17.3,44.3,16.9,44.2z M11.4,47.2l-6.2-1.7
	c-0.8-0.2-1.7,0.2-1.9,1c-0.1,0.4-0.1,0.7,0.1,1.1c0.2,0.3,0.5,0.6,0.9,0.7l6.2,1.7c0.2,0.1,0.4,0.1,0.6,0c0.6-0.1,1.1-0.4,1.3-1
	c0.1-0.4,0.1-0.7-0.1-1.1C12.1,47.6,11.8,47.3,11.4,47.2z M15.1,22.4l2.3,0.7l4.6-13L18.4,9L15.1,22.4z M15.6,24.9
	C15,24.7,14.5,24.8,14,25c-0.4,0.2-0.7,0.7-0.9,1.3c-0.2,0.6-0.2,1.2,0.1,1.6c0.2,0.5,0.6,0.8,1.2,1c0.6,0.2,1.1,0.2,1.6-0.1
	c0.4-0.2,0.8-0.7,1-1.3c0.2-0.6,0.2-1.2-0.1-1.6C16.7,25.4,16.2,25.1,15.6,24.9z"/>
</svg>
