<?xml version="1.0" encoding="UTF-8"?>
<svg width="35px" height="50px" viewBox="0 0 35 50" version="1.1" xmlns="http://www.w3.org/2000/svg" xmlns:xlink="http://www.w3.org/1999/xlink">
    <!-- Generator: sketchtool 54.1 (76490) - https://sketchapp.com -->
    <title>9CE422FB-C069-4465-A851-DEB23935DE7E</title>
    <desc>Created with sketchtool.</desc>
    <defs></defs>
    <g id="Collaboration-Center_UI_V1" stroke="none" stroke-width="1" fill="#000000" fill-rule="evenodd">
        <g id="Ideas-Icon-White" transform="translate(35, 0) scale(-1, 1)">
            <path d="M28.11945,31.10625 L15.82845,34.70175 C15.08745,33.38775 13.85295,31.72125 11.97195,30.64575 C11.88495,30.58575 11.79195,30.53475 11.69295,30.49275 C7.78395,28.84725 4.83945,25.61925 3.61545,21.63825 C2.52645,18.09675 2.89695,14.34375 4.66095,11.07375 C6.45795,7.74075 9.47295,5.31225 13.14795,4.23375 C20.68245,2.03025 28.66695,6.24825 30.94245,13.64625 C32.16645,17.62425 31.51095,21.93375 29.11695,25.51275 C28.09695,27.47175 27.99495,29.57475 28.11945,31.10625 M15.47445,37.89225 L30.19995,33.58575 C30.93345,33.37125 31.38345,32.64975 31.24695,31.90725 C31.00095,30.55275 30.88545,28.59675 31.70145,27.00825 C34.52895,22.80225 35.29995,17.62125 33.81495,12.79275 C31.06095,3.84075 21.40395,-1.27125 12.28695,1.40025 C7.83795,2.70375 4.18845,5.64375 2.01195,9.67875 C-0.12705,13.64775 -0.57855,18.19725 0.74295,22.49325 C2.21595,27.28125 5.74095,31.17225 10.36995,33.14475 C12.08445,34.09575 13.11045,35.80275 13.67145,37.06875 C13.89195,37.56075 14.35545,37.88325 14.86995,37.94475 C15.06795,37.96725 15.27345,37.95225 15.47445,37.89225"></path>
            <path d="M31.8944268,37.8421033 C32.691312,37.6253954 33.1649325,36.8237177 32.9469168,36.0574497 C32.8386606,35.6806895 32.5830559,35.3690833 32.2252093,35.1792868 C31.8748805,34.9965723 31.4689201,34.9498314 31.0810024,35.0560607 L16.1055732,39.1579313 C15.308688,39.3746392 14.8350675,40.1749005 15.0530832,40.9411685 C15.1598358,41.3165123 15.4169441,41.6309513 15.7732871,41.8193314 C15.9401819,41.9071477 16.1176017,41.9638033 16.2995321,41.9864656 C16.5040159,42.013377 16.7145139,42.0006295 16.9189976,41.9439738 L31.8944268,37.8421033 Z"></path>
            <path d="M34.9321396,41.020812 L34.9321396,41.0193391 C34.6867356,40.2681707 33.8346806,39.8351442 33.0390228,40.0590219 L18.0891918,44.1889753 C17.6913629,44.2994412 17.366698,44.5498307 17.1746426,44.8944844 C16.98716,45.2303009 16.9490538,45.6176681 17.0679452,45.9799964 C17.2508551,46.5411634 17.7690996,46.9226391 18.3528869,46.9889187 C18.5510392,47.0124848 18.758337,46.9992289 18.9610621,46.9417866 L33.910893,42.8118332 C34.3071977,42.7013672 34.6318626,42.4509778 34.823918,42.106324 C35.0129248,41.7690347 35.051031,41.3846132 34.9321396,41.020812"></path>
            <path d="M7.84494286,0.5516 L1.62522857,2.2256 C1.22294286,2.3336 0.896085714,2.5826 0.7028,2.9261 C0.5158,3.2561 0.479657143,3.6371 0.599085714,3.9941 C0.782942857,4.5461 1.30465714,4.9226 1.88922857,4.9886 C2.0888,5.0126 2.29622857,4.9991 2.49894286,4.9451 L8.72022857,3.2696 C9.12094286,3.1616 9.44937143,2.9126 9.64108571,2.5706 C9.82808571,2.2391 9.8658,1.8596 9.7448,1.5026 C9.49808571,0.7601 8.64322857,0.3386 7.84494286,0.5516" transform="translate(22.000000, 45.000000)"></path>
            <path d="M19.8757182,22.4052427 L17.6154519,23.077801 L13,10.0710565 L16.5980354,9 L19.8757182,22.4052427 Z M18.0203421,27.4642441 C17.8290204,26.8242767 17.8527502,26.2880077 18.0900485,25.8539558 C18.3288299,25.4199038 18.7604162,25.11029 19.3833242,24.9251142 C19.9988167,24.7429013 20.522356,24.7754922 20.9539423,25.022887 C21.3870117,25.2702818 21.6940164,25.701371 21.8779226,26.3161545 C22.0603456,26.9294565 22.0380989,27.4672069 21.8126655,27.9249613 C21.585749,28.3827158 21.170477,28.7012181 20.5638832,28.8819496 C19.9483908,29.0656439 19.4189189,29.0345344 18.9739846,28.7915838 C18.5290503,28.5471518 18.2101807,28.1042115 18.0203421,27.4642441 L18.0203421,27.4642441 Z"></path>
        </g>
    </g>
</svg>