<?xml version="1.0" encoding="UTF-8"?>
<svg width="47px" height="46px" viewBox="0 0 47 46" version="1.1" xmlns="http://www.w3.org/2000/svg" xmlns:xlink="http://www.w3.org/1999/xlink">
    <!-- Generator: sketchtool 54.1 (76490) - https://sketchapp.com -->
    <desc>Created with sketchtool.</desc>
    <defs></defs>
    <g id="Collaboration-Center_UI_V1" stroke="none" stroke-width="1" fill="#000000" fill-rule="evenodd" transform="translate(0, -.056604)">
        <path d="M0.0182068966,20.6242133 C0.0182068966,27.166666 3.52551724,32.9858482 8.97434483,36.7279865 L8.97434483,36.7279865 L8.97434483,46.1415082 L17.558069,40.4323889 C19.3986207,40.8427662 21.3235862,41.062892 23.3064828,41.062892 L23.3064828,41.062892 C36.1704828,41.062892 46.598069,31.9103765 46.598069,20.6242133 L46.598069,20.6242133 C46.598069,9.3396224 36.1704828,0.190251574 23.3064828,0.190251574 L23.3064828,0.190251574 C10.4457931,0.190251574 0.0182068966,9.3396224 0.0182068966,20.6242133 L0.0182068966,20.6242133 Z M12.5577931,34.8647809 C7.16855172,31.8254726 3.6,26.5739001 3.6,20.6006295 L3.6,20.6006295 C3.6,11.1981135 12.4237241,3.57861638 23.3064828,3.57861638 L23.3064828,3.57861638 C34.1925517,3.57861638 43.0129655,11.1981135 43.0129655,20.6006295 L43.0129655,20.6006295 C43.0129655,29.9984285 34.1925517,37.6226426 23.3064828,37.6226426 L23.3064828,37.6226426 C21.1332414,37.6226426 19.0427586,37.3128942 17.088,36.7500011 L17.088,36.7500011 L12.5577931,39.3317621 L12.5577931,34.8647809 Z"></path>
        <path d="M0.288333333,2.34748424 C0.288333333,3.32547165 1.07,4.06446536 2.105,4.06446536 L2.105,4.06446536 C3.17166667,4.06446536 3.945,3.34276725 3.945,2.34748424 L3.945,2.34748424 C3.945,1.34119494 3.18166667,0.613207525 2.12833333,0.613207525 L2.12833333,0.613207525 C1.06,0.613207525 0.288333333,1.34119494 0.288333333,2.34748424 L0.288333333,2.34748424 Z" transform="translate(21.000000, 25.471698)"></path>
        <path d="M0.495,1.01729558 L0.126666667,1.28301885 L1.10833333,3.83176096 L1.74333333,3.35377354 C2.19,3.01729556 2.94833333,2.79245279 3.62166667,2.79245279 L3.62166667,2.79245279 C4.63833333,2.80660374 5.15333333,3.2468553 5.15333333,4.09748422 L5.15333333,4.09748422 C5.15333333,4.82547164 4.78166667,5.51729553 3.73166667,6.73899362 L3.73166667,6.73899362 C2.58,8.10691813 2.05666667,9.58018856 2.21333333,10.9795596 L2.21333333,10.9795596 L2.29833333,12.0959118 L5.21166667,12.0959118 L5.165,10.8977986 C5.10666667,9.89937094 5.43333333,9.08018856 6.295,8.07075461 L6.295,8.07075461 C7.46166667,6.7028301 8.35333333,5.52358483 8.35333333,3.85377354 L8.35333333,3.85377354 C8.35333333,1.94496853 7.01666667,0.0220125787 4.035,0.0220125787 L4.035,0.0220125787 C2.725,0.0220125787 1.33666667,0.411949681 0.495,1.01729558 L0.495,1.01729558 Z" transform="translate(19.000000, 12.264151)"></path>
    </g>
</svg>