<svg version="1.1" id="Layer_1" xmlns="http://www.w3.org/2000/svg" xmlns:xlink="http://www.w3.org/1999/xlink" x="0px" y="0px"
	 viewBox="0 0 47 46" enable-background="new 0 0 47 46" xml:space="preserve">
<path fill="#1f2555" fill-rule="evenodd" clip-rule="evenodd" d="M23.3,0.1C10.4,0.1,0,9.3,0,20.6C0,27.1,3.5,33,9,36.7v9.4l8.6-5.7
	c1.8,0.4,3.8,0.6,5.7,0.6c12.9,0,23.3-9.2,23.3-20.4C46.6,9.3,36.2,0.1,23.3,0.1z M23.3,37.6c-2.2,0-4.3-0.3-6.2-0.9l-4.5,2.6v-4.5
	c-5.4-3-9-8.3-9-14.3c0-9.4,8.8-17,19.7-17S43,11.1,43,20.5S34.2,37.6,23.3,37.6z M23.1,26c-1.1,0-1.8,0.7-1.8,1.7s0.8,1.7,1.8,1.7
	c1.1,0,1.8-0.7,1.8-1.7C24.9,26.8,24.2,26,23.1,26z M23,12.2c-1.3,0-2.7,0.4-3.5,1l-0.4,0.3l1,2.5l0.6-0.5c0.4-0.3,1.2-0.6,1.9-0.6
	c1,0,1.5,0.5,1.5,1.3c0,0.7-0.4,1.4-1.4,2.6c-1.2,1.4-1.7,2.8-1.5,4.2l0.1,1.1h2.9v-1.2c-0.1-1,0.3-1.8,1.1-2.8
	c1.2-1.4,2.1-2.5,2.1-4.2C27.4,14.2,26,12.2,23,12.2z"/>
</svg>
