<svg id="Layer_1" data-name="Layer 1" xmlns="http://www.w3.org/2000/svg" viewBox="0 0 64 64"><title>thumbs-up-outline</title><circle cx="32" cy="32" r="30" fill="none" stroke="#000" stroke-miterlimit="10" stroke-width="4"/><path fill="currentColor" d="M18,33.45v5.82a3.94,3.94,0,0,0,4,3.88h2V29.57H22A3.94,3.94,0,0,0,18,33.45Z"/><path fill="currentColor" d="M47.5,31.54a5.23,5.23,0,0,0,.5-1.81A2.36,2.36,0,0,0,47.2,28a2.61,2.61,0,0,0-1.88-.77H36.69c1.54-4.65,2.3-7.74,2.3-9.28a1.93,1.93,0,0,0-1.21-1.87C37.61,16,36.33,16,36,16c-1,0-1.5.82-2,1.94q-.49,1.11-3,9.21l-5,4.32v9.74L39.73,44a3.24,3.24,0,0,0,2.92-1A3.54,3.54,0,0,0,44,40.6c0-.55-.06-.92-.34-1.11.73,0,1.49-.64,2.3-1.92a5,5,0,0,0,.88-3.66,6.51,6.51,0,0,0-.17-.76c-.06-.19-.12-.29-.21-.32l-.21,0h-.16C46.69,32.75,47.16,32.33,47.5,31.54Z"/></svg>