<svg version="1.1" id="Layer_1" xmlns="http://www.w3.org/2000/svg" xmlns:xlink="http://www.w3.org/1999/xlink" x="0px" y="0px"
	 viewBox="0 0 64 64" enable-background="new 0 0 64 64" xml:space="preserve">
<path d="M32,0C14.4,0,0,14.4,0,32s14.4,32,32,32c17.6,0,32-14.4,32-32S49.6,0,32,0z M32,60C16.6,60,4,47.4,4,32C4,16.6,16.6,4,32,4
	s28,12.6,28,28C60,47.4,47.4,60,32,60z M18,33.4v5.8c0,2.2,1.8,3.9,4,3.9c0,0,0,0,0,0h2V29.6h-2C19.8,29.5,18,31.3,18,33.4z
	 M45.3,27.2h-8.6c1.5-4.7,2.3-7.7,2.3-9.3c0-0.8-0.5-1.6-1.2-1.9C37.6,16,36.3,16,36,16c-1,0-1.5,0.8-2,1.9c-0.3,0.7-1.3,3.8-3,9.2
	l-5,4.3v9.7L39.7,44c1.1,0.2,2.2-0.2,2.9-1c0.8-0.6,1.2-1.5,1.3-2.4c0-0.5-0.1-0.9-0.3-1.1c0.7,0,1.5-0.6,2.3-1.9
	c0.8-1.1,1.1-2.4,0.9-3.7c0-0.3-0.1-0.5-0.2-0.8c-0.1-0.2-0.1-0.3-0.2-0.3h-0.4c0.6-0.1,1.1-0.5,1.4-1.3c0.3-0.6,0.4-1.2,0.5-1.8
	c0-0.7-0.3-1.3-0.8-1.7C46.7,27.5,46,27.2,45.3,27.2z"/>
</svg>
