<svg id="Layer_1" data-name="Layer 1" xmlns="http://www.w3.org/2000/svg" xmlns:xlink="http://www.w3.org/1999/xlink" viewBox="0 0 64 64"><title>world-outline</title><path id="path-3" d="M32,16a15.66,15.66,0,0,1,8,2.15A15.92,15.92,0,0,1,45.85,24a16.07,16.07,0,0,1,0,16.06A15.92,15.92,0,0,1,40,45.85a16.07,16.07,0,0,1-16.06,0A15.92,15.92,0,0,1,18.15,40a16.07,16.07,0,0,1,0-16.06A15.92,15.92,0,0,1,24,18.15,15.66,15.66,0,0,1,32,16Zm5.71,10.85a1.13,1.13,0,0,0-.2.2.51.51,0,0,1-.28.2s.06,0,.09-.1.07-.15.11-.23a.51.51,0,0,1,.07-.15,1.44,1.44,0,0,1,.46-.31A5.09,5.09,0,0,1,39,26.21a1,1,0,0,1,1.06.23s0-.12.2-.27a1.16,1.16,0,0,1,.3-.25,1.33,1.33,0,0,1,.32-.1.45.45,0,0,0,.31-.15l0-.46a.37.37,0,0,1-.36-.15.79.79,0,0,1-.14-.43.42.42,0,0,1-.12.16c0-.1,0-.15-.1-.16a.42.42,0,0,0-.24,0,.49.49,0,0,1-.19,0,.9.9,0,0,1-.31-.16.67.67,0,0,1-.16-.34c0-.17-.07-.27-.09-.32a.56.56,0,0,0-.2-.22.79.79,0,0,1-.19-.21s0-.07-.06-.12l-.06-.13a.83.83,0,0,0-.08-.12.18.18,0,0,0-.12-.05s-.09,0-.14.1l-.16.21c0,.07-.08.11-.09.11a.15.15,0,0,0-.13,0l-.09,0s-.05,0-.09.06l-.11.07a.38.38,0,0,1-.18.06l-.17,0c.21-.07.2-.15,0-.23a.69.69,0,0,0-.34-.07.21.21,0,0,0,.16-.25.51.51,0,0,0-.18-.29h.11a.42.42,0,0,0-.18-.17,1.73,1.73,0,0,0-.36-.18l-.28-.13a2.21,2.21,0,0,0-.7-.19,1.18,1.18,0,0,0-.69,0,.33.33,0,0,0-.1.21,1.74,1.74,0,0,0,.09.3.83.83,0,0,1,.07.26.34.34,0,0,1-.11.27.4.4,0,0,0-.14.25c0,.09.1.2.29.32a.36.36,0,0,1,.21.45.73.73,0,0,1-.33.33,2,2,0,0,0-.34.25.44.44,0,0,0,0,.39.75.75,0,0,0,.22.34s0,.06,0,.08,0,.06-.07.1l-.11.08a.91.91,0,0,1-.14.07l-.06.05a.36.36,0,0,1-.43-.13,1.27,1.27,0,0,1-.28-.54,1.1,1.1,0,0,0-.33-.63c-.32-.11-.53-.1-.61,0-.07-.18-.35-.36-.85-.54A2.52,2.52,0,0,0,31,24c.08,0,.08-.12,0-.31s-.23-.29-.4-.25a1.33,1.33,0,0,0,.09-.37c0-.16,0-.25,0-.28a1,1,0,0,1,.25-.48l.14-.18a1.47,1.47,0,0,0,.2-.28c0-.08,0-.12,0-.12a1.24,1.24,0,0,0,1-.23,1.71,1.71,0,0,0,.24-.35,3.18,3.18,0,0,1,.22-.36.5.5,0,0,1,.29-.11.82.82,0,0,1,.31.11.74.74,0,0,0,.3.11c.19,0,.3-.07.32-.23a.45.45,0,0,0-.16-.42c.17,0,.19-.1.07-.35a.46.46,0,0,0-.17-.19.66.66,0,0,0-.56.1c-.11.06-.1.11,0,.17s-.08.06-.2.22a1.71,1.71,0,0,1-.34.36c-.11.09-.22.05-.34-.1s-.05-.11-.11-.28-.13-.27-.2-.28-.22.1-.33.31c0-.11,0-.22-.23-.31a1.4,1.4,0,0,0-.5-.17c.26-.17.21-.36-.17-.56a1,1,0,0,0-.42-.11.58.58,0,0,0-.41.09.56.56,0,0,0-.12.23.19.19,0,0,0,.11.17l.22.12.24.08.17.06c.2.14.25.24.17.29l-.18.08-.24.09a.26.26,0,0,0-.12.08.38.38,0,0,0,0,.3c0,.13,0,.23,0,.29a1,1,0,0,1-.19-.37,1.12,1.12,0,0,0-.15-.34c.1.12-.07.17-.52.12l-.21,0-.33,0a1.69,1.69,0,0,1-.43,0,.42.42,0,0,1-.28-.17.6.6,0,0,1,0-.42c0-.05,0-.07.09,0a1.69,1.69,0,0,1-.23-.2,1.37,1.37,0,0,0-.21-.17,11.3,11.3,0,0,0-2,.85.53.53,0,0,0,.25,0,1.77,1.77,0,0,0,.27-.14L26.5,20c.47-.2.76-.24.88-.15l.1-.1c.19.22.33.39.42.52a1.18,1.18,0,0,0-.63,0c-.28.08-.43.16-.46.25a.54.54,0,0,1,.11.37,2.49,2.49,0,0,1-.24-.2,1.72,1.72,0,0,0-.3-.23.94.94,0,0,0-.32-.11l-.46,0a13.16,13.16,0,0,0-4.89,4.63.57.57,0,0,0,.25.16c.05,0,.09.08.1.19a1.19,1.19,0,0,0,.05.23s.11,0,.24-.06a.28.28,0,0,1,.07.39,9.38,9.38,0,0,1,.91.57,2.82,2.82,0,0,1,.44.43c0,.16,0,.28-.21.38a.83.83,0,0,0-.18-.19c-.12-.1-.18-.12-.19-.08a.54.54,0,0,0,0,.38c.05.19.12.28.22.26-.1,0-.17.12-.2.34a4.24,4.24,0,0,0,0,.74,3.88,3.88,0,0,1,0,.49l0,0a1.3,1.3,0,0,0,.11.72c.12.31.27.44.45.4q-.27.06.42.9a1.53,1.53,0,0,0,.16.19l.25.15.32.21a.83.83,0,0,1,.2.22,1.51,1.51,0,0,1,.21.47,1.14,1.14,0,0,0,.29.49c0,.08,0,.22.2.41a.76.76,0,0,1,.22.48l-.05,0,0,0a.77.77,0,0,0,.32.29.69.69,0,0,1,.32.27.7.7,0,0,1,0,.21,1,1,0,0,0,.07.23s.08.06.16,0a2.47,2.47,0,0,0-.5-1.3c-.21-.34-.32-.54-.35-.6a1.56,1.56,0,0,1-.12-.32,1.08,1.08,0,0,0-.09-.3l.13,0,.17.07.16.08s.05.05,0,.07a.44.44,0,0,0,0,.36,2.17,2.17,0,0,0,.25.39l.36.39.25.27a2.48,2.48,0,0,1,.29.41c.11.19.11.28,0,.28a.66.66,0,0,1,.42.22,2.07,2.07,0,0,1,.35.41,1.71,1.71,0,0,1,.17.54,3.8,3.8,0,0,0,.1.5.74.74,0,0,0,.18.28,1.13,1.13,0,0,0,.26.2l.33.16.27.15a3.23,3.23,0,0,1,.39.22,2.55,2.55,0,0,0,.45.24,1,1,0,0,0,.33.08,1.33,1.33,0,0,0,.3,0l.28-.08a.71.71,0,0,1,.61.32,2.53,2.53,0,0,0,.43.44,1.4,1.4,0,0,0,1.15.22s0,.07,0,.16a1.45,1.45,0,0,0,.17.32c.07.13.14.23.18.31l.12.17a1.87,1.87,0,0,0,.37.32,1.7,1.7,0,0,1,.38.31.31.31,0,0,0,.14-.19q-.06.16.15.42c.14.16.26.23.38.2s.29-.26.29-.66a.7.7,0,0,1-1-.38.4.4,0,0,0-.06-.11,1.42,1.42,0,0,1-.08-.18.78.78,0,0,1,0-.18.19.19,0,0,1,0-.15.09.09,0,0,1,.1-.06c.13,0,.2,0,.21-.08a.59.59,0,0,0,0-.26,2.19,2.19,0,0,1-.08-.27.91.91,0,0,0-.23-.41,3.39,3.39,0,0,1-.25-.32.32.32,0,0,1-.34.17.41.41,0,0,1-.33-.19.63.63,0,0,1,0,.12.45.45,0,0,0,0,.13,1.56,1.56,0,0,1-.32,0,1.52,1.52,0,0,0,.06-.36,3,3,0,0,1,.07-.47.94.94,0,0,1,.11-.25,2.25,2.25,0,0,0,.16-.3.92.92,0,0,0,.08-.27.16.16,0,0,0-.09-.19.55.55,0,0,0-.36,0,.58.58,0,0,0-.55.41l-.06.22a.91.91,0,0,1-.1.24.6.6,0,0,1-.19.15,1.33,1.33,0,0,1-.5,0,1.23,1.23,0,0,1-.5-.11,1.3,1.3,0,0,1-.47-.6,2,2,0,0,1-.2-.77,3.35,3.35,0,0,1,.06-.55c0-.23.05-.41.06-.52a1.39,1.39,0,0,0-.12-.51,1.26,1.26,0,0,0,.19-.2.89.89,0,0,1,.21-.22.16.16,0,0,1,.09,0h.1l.08,0a.23.23,0,0,0,.06-.13l-.08-.06-.08-.06a1.15,1.15,0,0,0,.59,0c.3-.06.49,0,.57,0s.36.13.46,0l-.05-.19a.39.39,0,0,1,0-.28q.11.55.6.18a.7.7,0,0,0,.33.11A1,1,0,0,1,33,33l.15.12.11.09a.12.12,0,0,0,.1,0,.63.63,0,0,0,.18-.14,1.44,1.44,0,0,1,.25.5c.15.56.29.86.4.92a.34.34,0,0,0,.23,0s.08-.08.09-.2a1.4,1.4,0,0,0,0-.29c0-.07,0-.16,0-.26l0-.17v-.37l0-.17c-.21,0-.34-.12-.39-.25a.43.43,0,0,1,0-.38,1.57,1.57,0,0,1,.32-.39l.16-.07.33-.14a1.18,1.18,0,0,0,.26-.16c.29-.27.39-.51.31-.73.1,0,.17-.06.23-.19s0,0-.11-.06l-.15-.11-.1,0c.13-.07.14-.18.05-.33a.4.4,0,0,0,.15-.23.33.33,0,0,1,.16-.21.26.26,0,0,0,.43,0,.21.21,0,0,0,0-.33.69.69,0,0,1,.42-.22c.22-.05.35-.11.39-.2s.15,0,.16,0a.77.77,0,0,0,0-.25.44.44,0,0,1,.06-.25.72.72,0,0,1,.31-.19l.27-.1.36-.23c0-.05,0-.08,0-.08a.74.74,0,0,0,.64-.23q.21-.23-.12-.42a.14.14,0,0,0-.07-.2,1.37,1.37,0,0,0-.31-.11.78.78,0,0,1,.24,0c.12,0,.19,0,.22,0,.21-.14.16-.25-.15-.34A1.14,1.14,0,0,0,37.71,26.85Zm-3.4,18.27a12.89,12.89,0,0,0,7.31-3.93.46.46,0,0,0-.26-.1A.77.77,0,0,1,41.1,41a3.6,3.6,0,0,0-.5-.17.38.38,0,0,0-.05-.27.57.57,0,0,0-.16-.18l-.27-.17-.22-.15L39.75,40l-.15-.12-.15-.09c-.08,0-.14-.06-.18,0l-.21,0-.06,0-.11,0-.12.06a.3.3,0,0,0-.08.07s0,0,0,0a2.48,2.48,0,0,0-.75-.46.53.53,0,0,1-.23-.11l-.22-.15a.36.36,0,0,0-.21,0,.4.4,0,0,0-.24.15.44.44,0,0,0-.12.31c0,.14,0,.23,0,.27s-.1-.19,0-.37.11-.3,0-.38a.18.18,0,0,0-.22-.1.86.86,0,0,0-.25.1l-.24.18a1.61,1.61,0,0,1-.19.13.86.86,0,0,0-.18.12.53.53,0,0,0-.17.15.83.83,0,0,0-.13.25,1.08,1.08,0,0,1-.1.23.38.38,0,0,0-.24-.13c-.13,0-.2-.08-.2-.12a5.24,5.24,0,0,1,.08.73,6.21,6.21,0,0,0,.11.79,1,1,0,0,1-.25,1,1.73,1.73,0,0,0-.61.84c0,.3,0,.48.25.54a.93.93,0,0,1-.16.42.84.84,0,0,0-.15.45A1.47,1.47,0,0,0,34.31,45.12Z" fill="currentColor" fill-rule="evenodd"/><circle cx="32" cy="32" r="30" fill="none" stroke="currentColor" stroke-miterlimit="10" stroke-width="4"/></svg>