<svg version="1.1" id="Layer_1" xmlns="http://www.w3.org/2000/svg" xmlns:xlink="http://www.w3.org/1999/xlink" x="0px" y="0px"
	 viewBox="0 0 64 64" enable-background="new 0 0 64 64" xml:space="preserve">
<path d="M40,18.1c-2.4-1.4-5.2-2.2-8-2.1c-2.8,0-5.6,0.7-8,2.1c-2.4,1.4-4.4,3.4-5.8,5.8c-2.9,5-2.9,11.1,0,16.1
	c1.4,2.4,3.4,4.4,5.8,5.8c5,2.9,11.1,2.9,16.1,0c2.4-1.4,4.4-3.4,5.8-5.8c2.9-5,2.9-11.1,0-16.1C44.4,21.6,42.4,19.6,40,18.1z
	 M33.8,40c0,0.1-0.1,0.1-0.1,0.2c-0.1-0.1-0.2-0.2-0.4-0.3c-0.1-0.1-0.3-0.2-0.4-0.3l-0.1-0.2c0-0.1-0.1-0.2-0.2-0.3
	c-0.1-0.1-0.1-0.2-0.2-0.3c0-0.1,0-0.2,0-0.2c-0.4,0.1-0.8,0-1.1-0.2c-0.2-0.1-0.3-0.3-0.4-0.4c-0.1-0.2-0.4-0.3-0.6-0.3L30,37.6
	c-0.1,0-0.2,0-0.3,0c-0.1,0-0.2,0-0.3-0.1c-0.2-0.1-0.3-0.1-0.5-0.2c-0.1-0.1-0.3-0.2-0.4-0.2L28.2,37l-0.3-0.2
	c-0.1-0.1-0.2-0.1-0.3-0.2c-0.1-0.1-0.1-0.2-0.2-0.3c0-0.2-0.1-0.3-0.1-0.5c0-0.2-0.1-0.4-0.2-0.5c-0.1-0.2-0.2-0.3-0.3-0.4
	c-0.1-0.1-0.3-0.2-0.4-0.2c0.1,0,0.1-0.1,0-0.3c-0.1-0.1-0.2-0.3-0.3-0.4l-0.2-0.3l-0.4-0.4c-0.1-0.1-0.2-0.3-0.2-0.4
	c-0.1-0.1-0.1-0.2,0-0.4c0,0,0-0.1,0-0.1l-0.2-0.1l-0.2-0.1h-0.1c0,0.1,0.1,0.2,0.1,0.3c0,0.1,0.1,0.2,0.1,0.3
	c0,0.1,0.1,0.3,0.3,0.6c0.3,0.4,0.5,0.8,0.5,1.3c-0.1,0.1-0.2,0-0.2,0c0-0.1-0.1-0.2-0.1-0.2c0-0.1,0-0.1,0-0.2
	c-0.1-0.1-0.2-0.2-0.3-0.3c-0.1-0.1-0.2-0.2-0.3-0.3h0c0-0.2-0.1-0.4-0.2-0.5c-0.2-0.2-0.2-0.3-0.2-0.4c-0.1-0.1-0.2-0.3-0.3-0.5
	c0-0.2-0.1-0.3-0.2-0.5c-0.1-0.1-0.1-0.2-0.2-0.2l-0.3-0.2l-0.2-0.2c-0.1-0.1-0.1-0.1-0.2-0.2c-0.5-0.6-0.6-0.9-0.4-0.9
	c-0.2,0-0.3-0.1-0.5-0.4c-0.1-0.2-0.1-0.5-0.1-0.7c0-0.2,0-0.3,0-0.5c0-0.2,0-0.5,0-0.7c0-0.2,0.1-0.3,0.2-0.3
	c-0.1,0-0.2-0.1-0.2-0.3c0-0.1,0-0.3,0-0.4c0,0,0.1,0,0.2,0.1c0.1,0.1,0.1,0.1,0.2,0.2c0.2-0.1,0.2-0.2,0.2-0.4
	c-0.1-0.2-0.3-0.3-0.4-0.4c-0.3-0.2-0.6-0.4-0.9-0.6c0,0,0,0,0,0c0.1-0.1,0.1-0.3-0.1-0.4c-0.1,0.1-0.2,0.1-0.2,0.1
	c0-0.1,0-0.2,0-0.2c0-0.1,0-0.2-0.1-0.2c-0.1,0-0.2-0.1-0.2-0.2c1.2-1.9,2.9-3.5,4.9-4.6h0.5c0.1,0,0.2,0.1,0.3,0.1
	c0.1,0.1,0.2,0.1,0.3,0.2c0.1,0.1,0.2,0.1,0.2,0.2c0-0.1,0-0.3-0.1-0.4c0-0.1,0.2-0.2,0.5-0.2c0.2-0.1,0.4-0.1,0.6,0
	c-0.1-0.1-0.2-0.3-0.4-0.5l-0.1,0.1c-0.1-0.1-0.4,0-0.9,0.2l-0.3,0.1c-0.1,0.1-0.2,0.1-0.3,0.1c-0.1,0-0.2,0-0.2,0
	c0.6-0.3,1.3-0.6,2-0.9c0.1,0,0.1,0.1,0.2,0.2c0.1,0.1,0.1,0.1,0.2,0.2c-0.1-0.1-0.1-0.1-0.1,0C28,19.9,28,20,28,20.2
	c0.1,0.1,0.2,0.2,0.3,0.2c0.1,0,0.3,0,0.4,0h0.5c0.4,0,0.6,0,0.5-0.1c0.1,0.1,0.1,0.2,0.2,0.3c0,0.1,0.1,0.3,0.2,0.4v-0.3
	c0-0.1,0-0.2,0-0.3c0,0,0.1-0.1,0.1-0.1l0.2-0.1l0.2-0.1c0.1,0,0-0.2-0.2-0.3l-0.2-0.1l-0.2-0.1l-0.2-0.1c-0.1,0-0.1-0.1-0.1-0.2
	c0-0.1,0.1-0.2,0.1-0.2c0.1-0.1,0.3-0.1,0.4-0.1c0.1,0,0.3,0,0.4,0.1c0.4,0.2,0.4,0.4,0.2,0.6c0.2,0,0.3,0.1,0.5,0.2
	c0.2,0.1,0.2,0.2,0.2,0.3c0.1-0.2,0.3-0.3,0.3-0.3s0.1,0.1,0.2,0.3s0,0.1,0.1,0.3c0.1,0.2,0.2,0.2,0.3,0.1c0.1-0.1,0.2-0.2,0.3-0.4
	c0.1-0.2,0.3-0.2,0.2-0.2c-0.1-0.1-0.1-0.1,0-0.2c0.2-0.1,0.4-0.2,0.6-0.1c0.1,0,0.1,0.1,0.2,0.2c0.1,0.2,0.1,0.4-0.1,0.4
	c0.1,0.1,0.2,0.3,0.2,0.4c0,0.2-0.1,0.2-0.3,0.2c-0.1,0-0.2-0.1-0.3-0.1c-0.1-0.1-0.2-0.1-0.3-0.1c-0.1,0-0.2,0-0.3,0.1
	c-0.1,0.1-0.2,0.2-0.2,0.4c-0.1,0.1-0.1,0.2-0.2,0.4c-0.3,0.2-0.6,0.3-1,0.2c0,0,0,0,0,0.1c-0.1,0.1-0.1,0.2-0.2,0.3l-0.1,0.2
	c-0.1,0.1-0.2,0.3-0.2,0.5v0.3c0,0.1,0,0.3-0.1,0.4c0.2,0,0.3,0.1,0.4,0.2s0.1,0.3,0,0.3c0.4-0.1,0.8-0.1,1.1,0
	c0.5,0.2,0.8,0.4,0.8,0.5c0.1-0.1,0.3-0.1,0.6,0c0.2,0.2,0.3,0.4,0.3,0.6c0,0.2,0.1,0.4,0.3,0.5c0.1,0.1,0.3,0.2,0.4,0.1l0.1,0
	c0,0,0.1,0,0.1-0.1l0.1-0.1c0.1,0,0.1-0.1,0.1-0.1c0,0,0-0.1,0-0.1c-0.1-0.1-0.2-0.2-0.2-0.3c-0.1-0.1-0.1-0.3,0-0.4
	c0.1-0.1,0.2-0.2,0.3-0.2c0.1-0.1,0.3-0.2,0.3-0.3c0.1-0.2,0-0.4-0.2-0.5c-0.2-0.1-0.3-0.2-0.3-0.3c0-0.1,0.1-0.2,0.1-0.2
	c0.1-0.1,0.1-0.2,0.1-0.3c0-0.1,0-0.2-0.1-0.3c0-0.1-0.1-0.2-0.1-0.3c0-0.1,0-0.2,0.1-0.2c0.2-0.1,0.5-0.1,0.7,0
	c0.2,0,0.5,0.1,0.7,0.2l0.3,0.1c0.1,0,0.2,0.1,0.4,0.2c0.1,0,0.1,0.1,0.2,0.2h-0.1c0.1,0.1,0.2,0.2,0.2,0.3c0,0.1,0,0.2-0.2,0.2
	c0.1,0,0.2,0,0.3,0.1c0.2,0.1,0.2,0.2,0,0.2h0.2c0.1,0,0.1,0,0.2-0.1l0.1-0.1c0-0.1,0.1-0.1,0.1-0.1h0.1c0,0,0.1,0,0.1,0
	c0,0,0.1,0,0.1-0.1l0.2-0.2c0-0.1,0.1-0.1,0.1-0.1c0,0,0.1,0,0.1,0.1c0,0,0.1,0.1,0.1,0.1l0.1,0.1c0.1,0,0.1,0.1,0.1,0.1
	c0.1,0.1,0.1,0.2,0.2,0.2c0.1,0.1,0.2,0.1,0.2,0.2c0,0,0.1,0.1,0.1,0.3c0,0.1,0.1,0.2,0.2,0.3c0.1,0.1,0.2,0.1,0.3,0.2
	c0.1,0,0.1,0,0.2,0c0.1,0,0.2,0,0.2,0c0.1,0,0.1,0.1,0.1,0.2c0.1,0,0.1-0.1,0.1-0.2c0,0.2,0.1,0.3,0.1,0.4c0.1,0.1,0.2,0.2,0.4,0.1
	v0.5c-0.1,0.1-0.2,0.1-0.3,0.2c-0.1,0-0.2,0.1-0.3,0.1c-0.1,0.1-0.2,0.2-0.3,0.2c-0.2,0.2-0.2,0.3-0.2,0.3c-0.3-0.3-0.7-0.4-1.1-0.2
	c-0.4,0-0.7,0.1-1,0.2c-0.2,0.1-0.3,0.2-0.5,0.3c0,0-0.1,0.1-0.1,0.2c0,0.1-0.1,0.1-0.1,0.2c0,0,0,0.1-0.1,0.1
	c0.1,0,0.2-0.1,0.2-0.2c0.1-0.1,0.1-0.1,0.2-0.2c0.2-0.2,0.6-0.3,0.9-0.2c0.3,0.1,0.4,0.2,0.1,0.3h-0.2c-0.1,0-0.2,0-0.2,0
	c0.1,0,0.2,0.1,0.3,0.1c0,0,0,0,0,0c0.1,0,0.1,0.1,0.1,0.2c0.2,0.1,0.3,0.3,0.1,0.4c-0.2,0.2-0.4,0.3-0.6,0.2c0,0,0,0,0,0.1
	l-0.4,0.2l-0.3,0.1c-0.1,0-0.2,0.1-0.3,0.2c0,0.1-0.1,0.2-0.1,0.2c0,0.1,0,0.2,0,0.2c0,0-0.1-0.1-0.2,0c0,0.1-0.2,0.2-0.4,0.2
	c-0.2,0-0.3,0.1-0.4,0.2c0,0,0,0,0,0c0.1,0.1,0.1,0.2,0,0.3c0,0,0,0.1-0.1,0.1c-0.1,0.1-0.3,0-0.4-0.1c-0.1,0-0.1,0.1-0.2,0.2
	c0,0.1-0.1,0.2-0.2,0.2c0.1,0.2,0.1,0.3,0,0.3h0.1l0.1,0.1c0.1,0.1,0.2-0.1,0.1,0.1s-0.1,0.2-0.2,0.2c0.1,0.2,0,0.5-0.3,0.7
	c-0.1,0.1-0.2,0.1-0.3,0.2l-0.3,0.1L34.4,32c-0.1,0.1-0.2,0.2-0.3,0.4c-0.1,0.1-0.1,0.3,0,0.4c0,0.1,0.2,0.2,0.4,0.2v1
	c0,0.1,0,0.2,0,0.3c0,0.1-0.1,0.2-0.1,0.2c-0.1,0-0.2,0-0.2,0c-0.1-0.1-0.2-0.4-0.4-0.9c0-0.2-0.1-0.4-0.2-0.5
	c-0.1,0.1-0.1,0.1-0.2,0.1c0,0-0.1,0-0.1,0l-0.1-0.1L33,33c-0.1,0-0.2,0-0.2,0c-0.1,0-0.2,0-0.3-0.1c-0.3,0.2-0.5,0.2-0.6-0.2
	c0,0.1,0,0.2,0,0.3l0,0.2c-0.1,0.1-0.4,0-0.5,0c-0.1,0-0.3-0.1-0.6,0c-0.2,0.1-0.4,0.1-0.6,0l0.1,0.1l0.1,0.1c0,0,0,0.1-0.1,0.1
	h-0.2c0,0-0.1,0-0.1,0c-0.1,0.1-0.2,0.1-0.2,0.2c-0.1,0.1-0.1,0.1-0.2,0.2c0.1,0.2,0.1,0.3,0.1,0.5c0,0.1-0.1,0.3-0.1,0.5
	c0,0.2-0.1,0.4-0.1,0.5c0,0.3,0.1,0.5,0.2,0.8c0.1,0.2,0.3,0.5,0.5,0.6c0.2,0.1,0.3,0.1,0.5,0.1c0.2,0,0.3,0,0.5,0
	c0.1,0,0.1-0.1,0.2-0.2c0-0.1,0.1-0.2,0.1-0.2l0.1-0.2c0.1-0.2,0.3-0.4,0.5-0.4c0.1,0,0.2,0,0.4,0c0.1,0,0.1,0.1,0.1,0.2
	c0,0.1,0,0.2-0.1,0.3c0,0.1-0.1,0.2-0.2,0.3c0,0.1-0.1,0.2-0.1,0.2c0,0.2-0.1,0.3-0.1,0.5c0,0.1,0,0.2-0.1,0.4c0.1,0,0.2,0,0.3,0
	c0,0,0-0.1,0-0.1c0,0,0-0.1,0-0.1c0.1,0.1,0.2,0.2,0.3,0.2c0.1,0,0.3,0,0.3-0.2c0.1,0.1,0.2,0.2,0.2,0.3c0.1,0.1,0.2,0.3,0.2,0.4
	c0,0.1,0,0.2,0.1,0.3c0,0.1,0,0.2,0,0.3c0,0.1-0.1,0.1-0.2,0.1c0,0-0.1,0-0.1,0.1c0,0,0,0.1,0,0.2c0,0.1,0,0.1,0,0.2
	c0,0.1,0,0.1,0.1,0.2c0,0,0,0.1,0.1,0.1c0,0,0,0.1,0,0.1c0.2,0.3,0.6,0.5,1,0.3c0,0.4-0.2,0.6-0.3,0.7c-0.1,0-0.2,0-0.4-0.2
	C33.8,40.2,33.8,40.1,33.8,40z M34.3,45.1c0-0.1,0-0.2,0-0.4c0-0.2,0.1-0.3,0.1-0.5c0.1-0.1,0.1-0.3,0.2-0.4
	c-0.2-0.1-0.2-0.2-0.2-0.5c0.1-0.3,0.3-0.6,0.6-0.8c0.3-0.3,0.4-0.6,0.2-1c-0.1-0.3-0.1-0.5-0.1-0.8c0-0.2,0-0.5-0.1-0.7
	c0,0,0.1,0.1,0.2,0.1c0.1,0,0.2,0.1,0.2,0.1c0-0.1,0.1-0.1,0.1-0.2c0-0.1,0.1-0.2,0.1-0.2c0-0.1,0.1-0.1,0.2-0.2
	c0.1,0,0.1-0.1,0.2-0.1c0.1,0,0.1-0.1,0.2-0.1l0.2-0.2c0.1,0,0.2-0.1,0.2-0.1c0.1,0,0.2,0,0.2,0.1c0.1,0.1,0.1,0.2,0,0.4
	c-0.1,0.2,0,0.4,0,0.4v-0.3c0-0.1,0-0.2,0.1-0.3c0.1-0.1,0.1-0.1,0.2-0.1c0.1,0,0.1,0,0.2,0l0.2,0.1c0.1,0.1,0.1,0.1,0.2,0.1
	c0.3,0.1,0.5,0.3,0.8,0.5c0,0,0-0.1,0.1-0.1l0.1-0.1h0.4c0-0.1,0.1,0,0.2,0l0.1,0.1l0.2,0.1l0.2,0.1l0.2,0.1l0.3,0.2
	c0.1,0,0.1,0.1,0.2,0.2c0,0.1,0.1,0.2,0,0.3c0.2,0,0.3,0.1,0.5,0.2c0.1,0,0.2,0.1,0.3,0.1c0.1,0,0.2,0,0.3,0.1
	C39.7,43.3,37.1,44.7,34.3,45.1z M32,0C14.4,0,0,14.4,0,32s14.4,32,32,32c17.6,0,32-14.4,32-32S49.6,0,32,0z M32,60
	C16.6,60,4,47.4,4,32C4,16.6,16.6,4,32,4s28,12.6,28,28C60,47.4,47.4,60,32,60z"/>
</svg>
