<?xml version="1.0" encoding="UTF-8" standalone="no"?>
<svg width="32px" height="32px" viewBox="0 0 32 32" version="1.1" xmlns="http://www.w3.org/2000/svg" xmlns:xlink="http://www.w3.org/1999/xlink">
    <!-- Generator: Sketch 46.2 (44496) - http://www.bohemiancoding.com/sketch -->
    <title>Icon/How/Product</title>
    <desc>Created with Sketch.</desc>
    <defs>
        <polygon id="path-1" points="32 15.000025 32 30 0 30 0 15.000025 0 5e-05 32 5e-05"></polygon>
    </defs>
    <g id="Symbols" stroke="none" stroke-width="1" fill="none" fill-rule="evenodd">
        <circle class="c-bolt-icon--background c-bolt-icon--circle-background" cx="50%" cy="50%" r="50%"/>
        <path d="M9,6.99805 C8.448,6.99805 8,7.44705 8,8.00005 L8,21.00005 C8,21.55055 8.448,22.00005 9,22.00005 C9.552,22.00005 10,21.55055 10,21.00005 L10,8.00005 C10,7.44705 9.552,6.99805 9,6.99805 L9,6.99805 Z M30,24.99805 L24,22.00005 L17,26.00005 L8,24.00005 L2,27.00005 L2,6.99805 L8,3.99905 L17,8.00005 L24,2.00005 L30,6.00005 L30,24.99805 Z M24,5e-05 L17,6.00005 L8,2.00005 L0,5.97755 L0,30.00005 L8,26.00005 L17,27.99905 L24,24.00005 L32,27.99905 L32,4.99905 L24,5e-05 Z M24,19.00005 C24,19.55055 24.448,19.99905 25,19.99905 C25.552,19.99905 26,19.55055 26,19.00005 L26,6.00005 C26,5.44705 25.552,4.99905 25,4.99905 C24.448,4.99905 24,5.44705 24,6.00005 L24,19.00005 Z M17,9.99805 C16.448,9.99805 16,10.44705 16,11.00005 L16,22.00005 C16,22.55155 16.448,23.00005 17,23.00005 C17.552,23.00005 18,22.55155 18,22.00005 L18,11.00005 C18,10.44705 17.552,9.99805 17,9.99805 L17,9.99805 Z" id="Fill-1" fill="#1F2555"></path>
    </g>
</svg>