<?xml version="1.0" encoding="UTF-8" standalone="no"?>
<svg width="12px" height="12px" viewBox="0 0 12 12" version="1.1" xmlns="http://www.w3.org/2000/svg" xmlns:xlink="http://www.w3.org/1999/xlink">
    <!-- Generator: Sketch 46.2 (44496) - http://www.bohemiancoding.com/sketch -->
    <title>Icon/utility/Indigo/12px/arrow-right</title>
    <desc>Created with Sketch.</desc>
    <defs></defs>
    <g id="Symbols" stroke="none" stroke-width="1" fill="none" fill-rule="evenodd">
        <g id="Icon/utility/Indigo/12px/arrow-right">
            <rect id="Rectangle-6" x="0" y="0" width="12" height="12"></rect>
            <path d="M10.4654731,6.1895862 C10.4844879,6.1335792 10.4969977,6.08357295 10.5,6.03056632 L10.5,5.97805976 C10.4969977,5.91005126 10.4844879,5.86004501 10.4654731,5.81303913 C10.443456,5.75703213 10.4154342,5.71652707 10.3844101,5.676022 C10.3693984,5.65801975 10.3628934,5.65151894 10.3568887,5.64551819 L7.35455354,2.64514314 C7.16090292,2.45161895 6.84165462,2.45161895 6.64750361,2.64514314 C6.45335261,2.83866733 6.453853,3.15770721 6.64750361,3.35173147 L8.7961748,5.49899987 L2.00038919,5.49899987 C1.72517514,5.49899987 1.5,5.724028 1.5,5.99906238 C1.5,6.27409676 1.72517514,6.49912489 2.00038919,6.49912489 L8.79917714,6.49912489 L6.65050595,8.6463933 C6.45685533,8.83991749 6.45685533,9.15895737 6.65050595,9.35298162 C6.74758145,9.44999375 6.87568109,9.5 7.00378072,9.5 C7.13188035,9.5 7.26048037,9.44999375 7.35705549,9.35298162 L10.3563883,6.35560695 C10.3658957,6.34310539 10.3719004,6.3336042 10.3784054,6.32760345 C10.4219393,6.27409676 10.4464584,6.2335917 10.4654731,6.1895862 Z" id="Fill-1" stroke="#1F2555" fill="#1F2555"></path>
        </g>
    </g>
</svg>