<?xml version="1.0" encoding="UTF-8" standalone="no"?>
<svg width="12px" height="12px" viewBox="0 0 12 12" version="1.1" xmlns="http://www.w3.org/2000/svg" xmlns:xlink="http://www.w3.org/1999/xlink">
    <!-- Generator: Sketch 46.2 (44496) - http://www.bohemiancoding.com/sketch -->
    <title>Icon/utility/Indigo/12px/Info</title>
    <desc>Created with Sketch.</desc>
    <defs></defs>
    <g id="Symbols" stroke="none" stroke-width="1" fill="none" fill-rule="evenodd">
        <g id="Icon/utility/Indigo/12px/Info" fill="#1F2555">
            <g id="i" transform="translate(5.000000, 1.000000)">
                <path d="M1.7061,1.706 C1.5191,1.894 1.2621,2 1.0001,2 C0.7381,2 0.4821,1.894 0.2941,1.706 C0.1061,1.519 0.0001,1.262 0.0001,1 C0.0001,0.738 0.1071,0.482 0.2941,0.294 C0.4811,0.106 0.7381,0 1.0001,0 C1.2621,0 1.5181,0.106 1.7061,0.294 C1.8931,0.481 2.0001,0.738 2.0001,1 C2.0001,1.262 1.8931,1.518 1.7061,1.706 L1.7061,1.706 Z" id="Path"></path>
                <path d="M2.0001,9 C2.0001,9.55 1.5501,10 1.0001,10 C0.4501,10 0.0001,9.55 0.0001,9 L0.0001,5 C0.0001,4.45 0.4501,4 1.0001,4 C1.5501,4 2.0001,4.45 2.0001,5 L2.0001,9 Z" id="Path"></path>
            </g>
        </g>
    </g>
</svg>