<?xml version="1.0" encoding="UTF-8" standalone="no"?>
<svg width="12px" height="12px" viewBox="0 0 12 12" version="1.1" xmlns="http://www.w3.org/2000/svg" xmlns:xlink="http://www.w3.org/1999/xlink">
    <!-- Generator: Sketch 46.2 (44496) - http://www.bohemiancoding.com/sketch -->
    <title>Icon/utility/Indigo/12px/Paperclip</title>
    <desc>Created with Sketch.</desc>
    <defs></defs>
    <g id="Symbols" stroke="none" stroke-width="1" fill="none" fill-rule="evenodd">
        <g id="Icon/utility/Indigo/12px/Paperclip" fill="#1F2555">
            <g id="Page-1">
                <path d="M5.00980714,9.70013833 C4.23799448,10.4682159 2.89183963,10.3798869 2.01161182,9.50683881 C1.57666054,9.07543527 1.32111053,8.52113932 1.29142543,7.94764143 C1.26303099,7.39718587 1.44888554,6.89537522 1.81414136,6.53181852 L2.50077068,5.85206991 C2.14971208,6.20154518 1.97031081,6.67263274 1.99483329,7.18084403 C2.01935576,7.66601301 2.22973279,8.12685952 2.58595402,8.48273544 C2.97960428,8.87317485 3.49199496,9.07031475 3.99147907,9.07031475 C4.44966217,9.07031475 4.90010133,8.90389795 5.23825336,8.5685041 L7.45431077,6.36924211 L6.54181654,5.46419076 L4.32575913,7.66345275 C4.12570736,7.86059265 3.74625431,7.82218877 3.49844824,7.57768409 C3.36938258,7.44839104 3.29323384,7.2845345 3.28419925,7.1181177 C3.28032728,7.0349093 3.29194319,6.87873354 3.41326491,6.75840139 L3.4997389,6.67263274 L8.06221003,2.14609584 C8.31776004,1.89135012 8.69721309,1.76845772 9.06375957,1.78253914 C9.47806034,1.80302121 9.87816389,1.98607968 10.1917934,2.29715108 C10.8203432,2.92057401 10.888748,3.86786963 10.3440909,4.40808416 L9.96334723,4.78572227 L5.00980714,9.70013833 Z M11.1042877,1.39209973 C10.5647932,0.857005718 9.86267601,0.540813802 9.12700174,0.503690055 C8.37325828,0.465286178 7.66726911,0.727712667 7.14971581,1.24104448 L3.41455556,4.94573843 L5.69643646,2.68246998 L4.78394223,1.77741862 L0.901647135,5.62676717 C-0.3735216,6.89281496 -0.285756951,9.03831152 1.0991176,10.4118902 C1.82704793,11.133883 2.77309923,11.5 3.69075608,11.5 C4.51548566,11.5 5.31827407,11.2042902 5.92230137,10.6051897 L9.65746161,6.90049574 L11.2565852,5.31313551 C12.3045983,4.27367059 12.2361935,2.51477305 11.1042877,1.39209973 L11.1042877,1.39209973 Z" id="Fill-1"></path>
            </g>
        </g>
    </g>
</svg>