<?xml version="1.0" encoding="UTF-8" standalone="no"?>
<svg width="12px" height="12px" viewBox="0 0 12 12" version="1.1" xmlns="http://www.w3.org/2000/svg" xmlns:xlink="http://www.w3.org/1999/xlink">
    <!-- Generator: Sketch 46.2 (44496) - http://www.bohemiancoding.com/sketch -->
    <title>Icon/utility/Indigo/12px/Pause</title>
    <desc>Created with Sketch.</desc>
    <defs></defs>
    <g id="Symbols" stroke="none" stroke-width="1" fill="none" fill-rule="evenodd">
        <g id="Icon/utility/Indigo/12px/Pause">
            <rect id="Rectangle-6" x="0" y="0" width="12" height="12"></rect>
            <g id="Page-1" transform="translate(3.000000, 1.500000)" fill="#1F2555">
                <path d="M1.5,0 L0.75,0 C0.3375,0 0,0.45 0,1 L0,8 C0,8.55 0.3375,9 0.75,9 L1.5,9 C1.9125,9 2.25,8.55 2.25,8 L2.25,1 C2.25,0.45 1.9125,0 1.5,0 L1.5,0 Z" id="Fill-1"></path>
                <path d="M5.16666667,0 L4.41666667,0 C4.00416667,0 3.66666667,0.45 3.66666667,1 L3.66666667,8 C3.66666667,8.55 4.00416667,9 4.41666667,9 L5.16666667,9 C5.57916667,9 5.91666667,8.55 5.91666667,8 L5.91666667,1 C5.91666667,0.45 5.57916667,0 5.16666667,0 L5.16666667,0 Z" id="Fill-3"></path>
            </g>
        </g>
    </g>
</svg>