<?xml version="1.0" encoding="UTF-8" standalone="no"?>
<svg width="12px" height="12px" viewBox="0 0 12 12" version="1.1" xmlns="http://www.w3.org/2000/svg" xmlns:xlink="http://www.w3.org/1999/xlink">
    <!-- Generator: Sketch 46.2 (44496) - http://www.bohemiancoding.com/sketch -->
    <title>Icon/utility/Indigo/12px/Previous</title>
    <desc>Created with Sketch.</desc>
    <defs></defs>
    <g id="Symbols" stroke="none" stroke-width="1" fill="none" fill-rule="evenodd">
        <g id="Icon/utility/Indigo/12px/Previous" fill="#1F2555">
            <g id="Page-1" transform="translate(0.000000, 1.500000)">
                <path d="M5.69609779,0.0575339392 C5.50900964,-0.0375567777 5.28701291,-0.0127994313 5.12065173,0.117176637 L0.211633242,4.05584539 C0.0785442958,4.16162678 0,4.3264882 0,4.49866429 C0,4.67084038 0.0790897423,4.83626447 0.211633242,4.94148319 L5.12065173,8.88015194 C5.2188321,8.95779998 5.3350122,9 5.45391954,9 C5.53628196,9 5.61809894,8.98255732 5.69337055,8.9437333 C5.8804587,8.84864259 5.99991149,8.65170915 5.99991149,8.43733304 L5.99991149,0.56337154 C6.00372961,0.348995427 5.88373138,0.152061989 5.69664323,0.0569712723 L5.69609779,0.0575339392 Z" id="Fill-1"></path>
                <path d="M11.6966432,0.0575339392 C11.5090096,-0.0375567777 11.2875584,-0.0127994313 11.1206517,0.117176637 L6.21163324,4.05584539 C6.0785443,4.16162678 6,4.3264882 6,4.49866429 C6,4.67084038 6.07908974,4.83626447 6.21163324,4.94148319 L11.1206517,8.88015194 C11.2193775,8.95779998 11.3350122,9 11.4539195,9 C11.536282,9 11.6180989,8.98255732 11.6933706,8.9437333 C11.8804587,8.84864259 11.9999115,8.65170915 11.9999115,8.43733304 L11.9999115,0.56337154 C12.0037296,0.348995427 11.8837314,0.152061989 11.6966432,0.0569712723 L11.6966432,0.0575339392 Z" id="Fill-4"></path>
            </g>
        </g>
    </g>
</svg>