<?xml version="1.0" encoding="UTF-8" standalone="no"?>
<svg width="12px" height="12px" viewBox="0 0 12 12" version="1.1" xmlns="http://www.w3.org/2000/svg" xmlns:xlink="http://www.w3.org/1999/xlink">
    <!-- Generator: Sketch 46.2 (44496) - http://www.bohemiancoding.com/sketch -->
    <title>Icon/utility/Indigo/12px/Triangle right</title>
    <desc>Created with Sketch.</desc>
    <defs></defs>
    <g id="Symbols" stroke="none" stroke-width="1" fill="none" fill-rule="evenodd">
        <g id="Icon/utility/Indigo/12px/Triangle-right">
            <rect id="Rectangle-6" x="0" y="0" width="12" height="12"></rect>
            <path d="M6.29466667,7.85933333 L8.91933333,4.58666667 C9.008,4.47733333 9.02466667,4.33 8.962,4.20466667 C8.89866667,4.07933333 8.76733333,4 8.62466667,4 L3.37466667,4 C3.232,4 3.10066667,4.07933333 3.03733333,4.20466667 C3.01133333,4.25533333 3,4.30933333 3,4.364 C3,4.44333333 3.02533333,4.52333333 3.07933333,4.58666667 L5.70466667,7.85933333 C5.77466667,7.948 5.88466667,8 5.99933333,8 C6.114,8 6.22466667,7.948 6.29466667,7.85933333 Z" id="Triangle-right" fill="#1F2555" transform="translate(5.999795, 6.000000) rotate(-90.000000) translate(-5.999795, -6.000000) "></path>
        </g>
    </g>
</svg>