<svg class="{{ classes|join(' ')|trim }}" height="24" viewBox="0 0 24 24" width="24" xmlns="http://www.w3.org/2000/svg"><path d="m22.7344 3.2007-1.929-1.928c-.809-.845-1.819-1.273-3.001-1.273-1.173 0-2.177.393-2.998 1.18l-2.051 2.096c-.275.253-.418.535-.425.84-.007.31.131.61.41.889.503.502 1.258.458 1.714 0l2.07-2.07c.327-.327.781-.476 1.27-.467.537.012.959.179 1.292.512l1.947 1.947c.351.328.521.742.521 1.268 0 .533-.16.951-.489 1.281l-6.524 6.525c-.369.367-.848.565-1.468.603-.604.036-1.017-.098-1.319-.423l-.804-.804-.668-.668c-.28-.303-.575-.447-.902-.446-.311.007-.598.163-.795.406-.3.254-.456.541-.463.852-.006.319.143.622.433.888l1.453 1.454.027.307h.342c.698.57 1.557.858 2.556.858.054 0 .108-.001.161-.003.94-.028 1.781-.294 2.506-.79l.09.089.339-.339c.029-.03.069-.077.119-.145l6.684-6.658c.775-.809 1.168-1.814 1.168-2.987 0-1.181-.429-2.19-1.266-2.994m-11.47 15.714c.313.308.45.604.45.915s-.137.607-.41.88l-2.056 2.054c-.824.826-1.816 1.236-2.963 1.236-1.144 0-2.149-.408-2.988-1.213l-2.077-2.077c-.811-.846-1.22-1.851-1.22-2.995 0-1.147.41-2.139 1.22-2.949l6.795-6.795c.81-.81 1.802-1.221 2.949-1.221 1.148 0 2.14.411 2.95 1.221l1.575 1.575c.271.227.427.514.433.825.006.319-.143.622-.447.902-.471.474-1.242.443-1.7-.013l-1.575-1.575c-.662-.663-1.765-.658-2.484.012l-6.782 6.783c-.325.349-.489.764-.489 1.258 0 .487.16.883.489 1.213l2.115 2.115c.663.662 1.764.657 2.484-.012l2.054-2.099c.15-.15.413-.325.837-.325.322 0 .604.096.84.285" fill="#1f2555" fill-rule="evenodd"/></svg>
