<svg class="{{ classes|join(' ')|trim }}" height="24" viewBox="0 0 24 24" width="24" xmlns="http://www.w3.org/2000/svg"><g fill="#1f2555" fill-rule="evenodd" transform="translate(0 1)"><path d="m21 2.2832v12.434c0 .152-.131.276-.291.276h-17.418c-.16 0-.291-.124-.291-.276v-12.434c0-.152.131-.276.291-.276h17.418c.16 0 .291.124.291.276m2-2.283h-22c-.552 0-1 .449-1 1s.448 1 1 1h.001c-.001.014-.001.029-.001.044v12.912c0 1.128.962 2.046 2.144 2.046h6.088l-2.096 3.52c-.135.227-.171.493-.102.748.07.258.237.472.472.605.473.265 1.081.103 1.357-.358l2.688-4.515h.898l2.689 4.516c.185.311.521.485.865.484.168 0 .337-.041.491-.127.235-.132.402-.346.472-.603.069-.256.033-.522-.103-.752l-2.095-3.518h6.089c1.182 0 2.143-.918 2.143-2.046v-12.912c0-.015 0-.03-.001-.044h.001c.552 0 1-.449 1-1s-.448-1-1-1"/><path d="m18.9717 4.0244h-.001c-.268 0-.52.105-.708.295l-4.406 5.288-4.092-3.261-.008-.009.001-.024-.053-.029c-.381-.375-.999-.375-1.38.006l-4.064 4.064c-.382.382-.382 1.003.001 1.386.19.189.44.284.69.284.251 0 .501-.095.693-.285l3.411-3.41 4.22 3.371.012.012c.19.189.441.292.701.292h.007c.284-.011.526-.101.774-.366l4.911-5.902c.391-.391.391-1.027 0-1.418-.189-.19-.441-.294-.709-.294"/></g></svg>
