<svg class="{{ classes|join(' ')|trim }}" height="182" viewBox="0 0 198 182" width="198" xmlns="http://www.w3.org/2000/svg"><g fill="none" fill-rule="evenodd" transform="matrix(-1 0 0 -1 204 182)"><path d="m131.25 133h-52.5c-.9664983 0-1.75-.783502-1.75-1.75v-31.5c0-.9664983.7835017-1.75 1.75-1.75h52.5c.966498 0 1.75.7835017 1.75 1.75v31.5c0 .966498-.783502 1.75-1.75 1.75z" fill="#ffcc4c"/><path d="m202.933253 103.249029-16.658934 28.875485c-.312534.541726-.89041.875486-1.515825.875486h-36.008494c-.966498 0-1.75-.783502-1.75-1.75v-31.5c0-.9664983.783502-1.75 1.75-1.75h51.151603c1.932997 0 3.5 1.5670034 3.5 3.5 0 .613998-.161522 1.217192-.46835 1.749029z" fill="#f63"/><path d="m63 99.75v31.5c0 .966498-.7835017 1.75-1.75 1.75h-36.0084939c-.6254151 0-1.2032908-.33376-1.5158248-.875486l-16.65893404-28.875485c-.96596181-1.674334-.39171285-3.8147167 1.28262097-4.7806786.5318362-.3068285 1.1350306-.4683504 1.74902857-.4683504h51.1516032c.9664983 0 1.75.7835017 1.75 1.75z" fill="#e1e2eb"/><path d="m119 180.25v-31.5c0-.966498.783502-1.75 1.75-1.75h53.91234c.966498 0 1.75.783502 1.75 1.75 0 .306999-.080761.608596-.234175.874514l-14.637462 25.3716c-2.500272 4.333805-7.123277 7.003886-12.126598 7.003886h-28.664105c-.966498 0-1.75-.783502-1.75-1.75z" fill="#f63"/><path d="m103.25 182h-42.6641051c-5.0033211 0-9.6263263-2.670081-12.1265982-7.003886l-14.6374615-25.3716c-.4829809-.837167-.1958565-1.907358.6413105-2.390339.2659181-.153414.5675153-.234175.8745142-.234175h67.9123401c.966498 0 1.75.783502 1.75 1.75v31.5c0 .966498-.783502 1.75-1.75 1.75z" fill="#ffcc4c"/><path d="m161.540703 7.00388565 14.637462 25.37160005c.482981.8371669.195856 1.9073582-.641311 2.3903391-.265918.1534143-.567515.2341752-.874514.2341752h-67.91234c-.966498 0-1.75-.7835017-1.75-1.75v-31.5c0-.96649831.783502-1.75 1.75-1.75h42.664105c5.003321 0 9.626326 2.67008102 12.126598 7.00388565z" fill="#6c79d9"/><path d="m89.25 35h-53.9123401c-.9664983 0-1.75-.7835017-1.75-1.75 0-.306999.080761-.6085962.2341753-.8745143l14.6374615-25.37160005c2.5002719-4.33380463 7.1232771-7.00388565 12.1265982-7.00388565h28.6641051c.9664983 0 1.75.78350169 1.75 1.75v31.5c0 .9664983-.7835017 1.75-1.75 1.75z" fill="#12b3b3"/><path d="m133 82.25v-31.5c0-.9664983.783502-1.75 1.75-1.75h50.008494c.625415 0 1.203291.3337601 1.515825.8754857l16.658934 28.8754857c.965962 1.6743338.391713 3.8147163-1.282621 4.7806782-.531836.3068285-1.135031.4683504-1.749029.4683504h-65.151603c-.966498 0-1.75-.7835017-1.75-1.75z" fill="#6c79d9"/><path d="m117.25 84h-107.1516032c-1.93299661 0-3.49999999-1.5670034-3.49999999-3.5 0-.613998.16152187-1.2171924.46835045-1.7490286l16.65893404-28.8754857c.312534-.5417256.8904097-.8754857 1.5158248-.8754857h92.0084939c.966498 0 1.75.7835017 1.75 1.75v31.5c0 .9664983-.783502 1.75-1.75 1.75z" fill="#12b3b3"/></g></svg>
