<svg class="{{ classes|join(' ')|trim }}" height="24" viewBox="0 0 24 24" width="24" xmlns="http://www.w3.org/2000/svg"><g fill="none" fill-rule="evenodd"><path d="m0 0h24v24h-24z"/><g fill="#1f2555"><path d="m19 20c0 .55-.45 1-1 1h-12c-.55 0-1-.45-1-1v-14c0-.55.45-1 1-1h1c0 1.1.9 2 2 2h6c1.1 0 2-.9 2-2h1c.55 0 1 .45 1 1zm-10-17h6v2h-6v-.963-.038-.038-.963zm9 0h-1c0-1.1-.9-2-2-2h-6c-1.1 0-2 .9-2 2h-1c-1.656 0-3 1.344-3 3v14c0 1.656 1.344 3 3 3h12c1.656 0 3-1.344 3-3v-14c0-1.656-1.344-3-3-3z"/><path d="m13 13v-2c0-.55-.45-1-1-1s-1 .45-1 1v2h-2c-.55 0-1 .45-1 1s.45 1 1 1h2v2c0 .55.45 1 1 1s1-.45 1-1v-2h2c.55 0 1-.45 1-1s-.45-1-1-1z"/></g></g></svg>
