<svg class="{{ classes|join(' ')|trim }}" viewBox="0 0 24 24" xmlns="http://www.w3.org/2000/svg"><g fill="none" fill-rule="evenodd"><path d="m0 0h24v24h-24z"/><g fill="#1f2555"><path d="m10.1389 4.7082c.568-.138 1.199-.213 1.844-.213h.024c2.6 0 5.074 1.225 7.355 3.643 1.25 1.325 2.099 2.674 2.493 3.349-.536.931-1.131 1.781-1.799 2.575-.356.418-.307 1.049.118 1.405.189.156.419.237.645.237.28 0 .568-.119.761-.356.875-1.037 1.624-2.143 2.299-3.386.156-.288.162-.631.013-.925-.044-.087-1.087-2.155-3.037-4.237-2.65-2.812-5.711-4.304-8.855-4.304h-.025c-.793 0-1.594.093-2.318.268-.538.132-.863.675-.731 1.206.138.537.675.869 1.212.738z"/><path d="m12.0012 18.4919c-2.6 0-5.074-1.231-7.36-3.643-1.25-1.325-2.1-2.669-2.494-3.35 1.025-1.768 2.319-3.311 3.843-4.604l2.55 2.549c-.394.631-.612 1.369-.612 2.125 0 2.205 1.794 3.999 3.999 3.999.756 0 1.494-.22 2.125-.612l2.324 2.324c-1.318.769-2.813 1.188-4.374 1.212zm-1.975-7.554 2.531 2.53c-.201.069-.412.1-.631.1-1.1 0-1.999-.9-1.999-1.999 0-.22.038-.431.099-.631zm13.178 10.347-4.549-4.549c-.006-.006-.011-.012-.024-.025l-16.422-16.421c-.387-.387-1.024-.387-1.412 0-.389.387-.388 1.025 0 1.413l3.773 3.774c-1.793 1.544-3.287 3.405-4.448 5.536-.156.289-.162.631-.019.925.044.087 1.087 2.156 3.043 4.236 2.649 2.825 5.71 4.318 8.86 4.318h.019c2.093-.037 4.08-.637 5.798-1.755l3.962 3.962c.194.194.449.293.705.293.257 0 .514-.099.706-.293.401-.387.401-1.025.006-1.413z"/></g></g></svg>
