<svg class="{{ classes|join(' ')|trim }}" viewBox="0 0 24 24" xmlns="http://www.w3.org/2000/svg"><g fill="#fafafa"><path d="m11.9 14.3c-1.7 0-3.3.8-4.3 2.2l1.1.8c.8-1 1.9-1.6 3.2-1.6s2.5.6 3.2 1.6l1.1-.8c-1-1.4-2.6-2.2-4.3-2.2z"/><path d="m9 9.6c0-.8-.6-1.4-1.4-1.4s-1.4.6-1.4 1.4.6 1.4 1.4 1.4 1.4-.7 1.4-1.4z"/><path d="m12 0c-6.6 0-12 5.4-12 12s5.4 12 12 12 12-5.4 12-12-5.4-12-12-12zm0 22.6c-5.8 0-10.6-4.8-10.6-10.6s4.8-10.6 10.6-10.6 10.6 4.7 10.6 10.6-4.8 10.6-10.6 10.6z"/><path d="m16 8.2c-.8 0-1.4.6-1.4 1.4s.6 1.4 1.4 1.4 1.4-.6 1.4-1.4-.6-1.4-1.4-1.4z"/></g></svg>
