<svg class="{{ classes|join(' ')|trim }}" height="32" viewBox="0 0 32 32" width="32" xmlns="http://www.w3.org/2000/svg"><path d="m21.906.581c-.162-.356-.519-.581-.906-.581h-20c-.387 0-.744.225-.906.581s-.106.769.144 1.069l7.762 9.175v6.175c0 .381.213.725.55.894l4 2c.144.069.294.106.45.106.181 0 .363-.05.525-.15.294-.181.475-.506.475-.85v-8.175l7.763-9.181c.25-.294.306-.712.144-1.062zm-9.669 9.232c-.15.181-.237.406-.237.644v6.925l-2-1v-5.925c0-.237-.081-.462-.237-.644l-6.606-7.812h15.687l-6.606 7.812z" fill="#1f2555" transform="translate(5 6)"/></svg>
