<svg class="{{ classes|join(' ')|trim }}" height="24" viewBox="0 0 24 24" width="24" xmlns="http://www.w3.org/2000/svg"><g fill="none" fill-rule="evenodd"><path d="m0 0h24v24h-24z"/><g fill="#1f2555" transform="translate(2 2)"><path d="m20 .9401v-.012-.007-.005-.006c-.006-.106-.031-.206-.069-.3v-.006-.006s0-.006-.006-.006c-.038-.094-.094-.175-.156-.256l-.006-.006-.006-.006-.006-.006v-.006c-.025-.025-.044-.05-.069-.069h-.006l-.006-.006s-.006 0-.006-.006h-.006l-.006-.006c-.075-.069-.162-.119-.256-.156h-.006-.006-.006c-.094-.037-.194-.064-.3-.069h-.006-.006-.006-.006-.006-.038-6c-.55 0-1 .45-1 1s.45 1 1 1h3.588l-5.294 5.294c-.387.387-.387 1.025 0 1.413.194.194.45.294.706.294s.513-.1.706-.294l5.287-5.313v3.588c0 .55.45 1 1 1s1-.45 1-1v-6-.037z"/><path d="m7.294 1.2972-5.294 5.294v-3.588c0-.55-.45-1-1-1s-1 .45-1 1v6c0 .138.025.269.075.387 0 0 0 .006.006.006v.005.006c.038.088.087.17.15.244l.006.006.006.007.006.006.006.006c.025.025.044.05.069.069l.006.006.006.006.006.006.006.006.006.006c.075.063.15.106.231.144h.006.006c.106.044.225.075.35.081h.012.006.006.006.012 6c.55 0 1-.45 1-1 0-.551-.45-1-1-1h-3.581l5.294-5.294c.387-.388.387-1.025 0-1.413-.387-.394-1.025-.394-1.413 0z" transform="translate(0 9.974)"/></g></g></svg>
