<svg class="{{ classes|join(' ')|trim }}" height="24" viewBox="0 0 24 24" width="24" xmlns="http://www.w3.org/2000/svg"><g fill="none" fill-rule="evenodd"><path d="m0 0h24v24h-24z"/><path d="m12 1c1.9956697 0 3.8361461.49174855 5.5214844 1.47526042 1.6853383.98351186 3.0197433 2.31791692 4.0032552 4.0032552.9835118 1.68533829 1.4752604 3.52581468 1.4752604 5.52148438s-.4917486 3.8361461-1.4752604 5.5214844c-.9835119 1.6853383-2.3179169 3.0197433-4.0032552 4.0032552-1.6853383.9835118-3.5258147 1.4752604-5.5214844 1.4752604s-3.83614609-.4917486-5.52148438-1.4752604c-1.68533828-.9835119-3.01974334-2.3179169-4.0032552-4.0032552-.98351187-1.6853383-1.47526042-3.5258147-1.47526042-5.5214844s.49174855-3.83614609 1.47526042-5.52148438c.98351186-1.68533828 2.31791692-3.01974334 4.0032552-4.0032552 1.68533829-.98351187 3.52581468-1.47526042 5.52148438-1.47526042zm3.9244792 7.46223958c-.0190974.00954866-.0644528.05490411-.1360677.13606771-.071615.0811636-.1360675.12651905-.1933594.13606771.0190973 0 .0405815-.02387129.0644531-.07161458.0238717-.0477433.0477429-.10026013.0716146-.15755209.0238716-.05729195.0405815-.09071175.0501302-.10026041.057292-.06684062.1623256-.13845448.3151042-.21484375.1336812-.05729196.3819426-.11458305.7447916-.171875.3246544-.07638927.5681416-.02387244.7304688.15755208-.0190973-.01909732.0262581-.08116267.1360677-.18619792.1098096-.10503524.1790363-.16232634.2076823-.171875.028646-.01909731.1002598-.04058147.2148437-.06445312s.1861978-.05967858.2148438-.10742188l.0286458-.31510416c-.1145839.00954866-.1981334-.02387115-.250651-.10026042s-.0835503-.17664868-.093099-.30078125c0 .01909732-.0286455.05729138-.0859375.11458333 0-.06684061-.0214841-.10503467-.0644531-.11458333s-.0978729-.0047744-.1647135.01432292c-.0668407.01909731-.109809.02387157-.1289063.01432291-.0954866-.02864597-.1671005-.06445291-.2148437-.10742187-.0477433-.04296897-.0859374-.12174422-.1145834-.23632813-.028646-.1145839-.047743-.18619777-.0572917-.21484375-.0190973-.04774329-.0644527-.10026013-.1360677-.15755208-.0716149-.05729195-.1169703-.10503453-.1360677-.14322917-.0095486-.01909731-.0214843-.04535573-.0358073-.07877604-.0143229-.0334203-.0286457-.06445298-.0429687-.09309896-.014323-.02864597-.03342-.05490439-.0572917-.07877604-.0238716-.02387165-.05013-.03580729-.078776-.03580729s-.0620658.02387129-.1002604.07161458c-.0381947.0477433-.0740016.09548588-.1074219.14322917s-.0549045.07161458-.0644531.07161458c-.028646-.01909731-.0572916-.0262587-.0859375-.02148437-.028646.00477433-.0501302.00954859-.0644532.01432291-.0143229.00477433-.0358071.01909711-.0644531.04296875-.028646.02387165-.0525172.04058155-.0716146.05013021-.0286459.01909732-.0692271.03342009-.1217448.04296875-.0525176.00954866-.0930988.01909718-.1217447.02864584.1432298-.0477433.1384556-.10026013-.014323-.15755209-.0954866-.03819463-.1718747-.05251741-.2291666-.04296875.0859379-.03819463.1217448-.09548573.1074218-.171875-.0143229-.07638927-.0549041-.14322888-.1217448-.20052083h.0716146c-.0095486-.03819464-.0501298-.07877583-.1217448-.12174479-.0716149-.04296897-.1551644-.08355016-.250651-.12174479-.0954866-.03819464-.1575519-.06684019-.1861979-.0859375-.0763893-.0477433-.2387141-.09309875-.4869792-.13606771-.2482651-.04296897-.4058156-.0453561-.4726562-.00716146-.0477433.05729195-.0692275.10742166-.0644532.15039062.0047744.04296897.0238714.10980858.0572917.20052084s.0501302.15039048.0501302.17903646c.0095487.05729195-.0167097.1193573-.078776.18619791-.0620663.06684062-.093099.12413171-.093099.171875 0 .06684062.0668396.14084161.2005209.22200521.1336812.0811636.1814238.18381014.1432291.30794271-.028646.07638927-.1050341.1527774-.2291667.22916667-.1241325.07638927-.2005206.13368036-.2291666.171875-.0477433.07638927-.0549047.16471304-.0214844.26497395.0334203.10026092.08355.17903618.1503906.23632813.0190974.01909732.0262587.03819435.0214844.05729167-.0047743.01909731-.0214842.04058147-.0501302.06445312s-.0549044.04296868-.078776.05729167c-.0238717.01432299-.0549044.03103289-.093099.05013021l-.0429688.02864583c-.1050352.04774329-.2029075.01909775-.2936197-.0859375-.0907123-.10503525-.1551648-.22916595-.1933594-.37239583-.0668406-.23871647-.1432288-.38194421-.2291667-.4296875-.2196191-.07638927-.3580726-.07161502-.4153646.01432291-.0477433-.12413256-.2434878-.24826326-.5872396-.37239583-.2387164-.08593793-.5156234-.10503496-.8307291-.05729167.0572919-.00954866.0572919-.08116252 0-.21484375-.0668406-.14322988-.1575515-.20052097-.2721354-.171875.0286459-.05729195.047743-.14084146.0572916-.25065104.0095487-.10980958.014323-.17426206.014323-.19335937.0286459-.12413257.085937-.2339405.171875-.32942709.0095486-.00954866.0429684-.05012985.1002604-.12174479.0572919-.07161494.1026474-.13606742.1360677-.19335937.0334203-.05729196.0358074-.0859375.0071614-.0859375.3342031.03819463.572916-.0143222.7161459-.15755209.0477433-.04774329.1026472-.12890567.1647135-.24348958s.112196-.19574629.1503906-.24348958c.085938-.05729196.1527776-.08355037.2005209-.07877605.0477433.00477433.11697.03103275.2076823.07877605.0907122.04774329.159939.07161458.2076823.07161458.1336812.00954866.2076822-.04296818.2220052-.15755208.0143229-.11458391-.021484-.21006907-.1074219-.28645834.1145839.00954866.1289067-.07161372.0429687-.24348958-.0381946-.06684061-.0763887-.10980893-.1145833-.12890625-.1145839-.03819464-.2434889-.01432335-.3867187.07161458-.0763893.03819464-.0668408.0763887.0286458.11458334-.0095487-.00954866-.0549041.04058104-.1360677.15039062s-.1599389.19335909-.2363281.25065104c-.0763893.05729196-.1527774.03342067-.2291667-.07161458-.0095487-.00954866-.0358071-.07400114-.0787761-.19335938-.0429689-.11935823-.0883244-.18381071-.1360677-.19335937-.0763892 0-.1527774.07161387-.2291666.21484375.0286459-.07638927-.0238709-.14800314-.1575521-.21484375s-.2482634-.10503467-.34375-.11458333c.1814245-.11458391.1432304-.24348887-.1145834-.38671875-.0668406-.03819464-.1647128-.06206593-.2936197-.07161459s-.222005.00954838-.2792969.05729167c-.0477433.06684061-.0740017.12174458-.0787761.16471354-.0047743.04296897.019097.08116303.0716146.11458333.0525176.03342031.1026474.05967873.1503907.07877605.0477432.01909731.1026472.03819435.1647135.05729166.0620663.01909732.1026475.03342009.1217448.04296875.1336812.09548659.1718753.1623262.1145833.20052084-.0190973.00954866-.0596785.02625856-.1217448.0501302-.0620663.02387165-.1169702.04535581-.1647135.06445313s-.0763889.03819435-.0859375.05729167c-.028646.03819463-.028646.10503424 0 .20052083s.0190974.1623262-.0286458.20052083c-.0477433-.04774329-.0907117-.1312928-.1289063-.25065104-.0381946-.11935823-.0716144-.19813349-.1002604-.23632812.0668406.08593793-.0525159.11458347-.3580729.0859375l-.1432292-.01432292c-.03819464 0-.11458276.00954852-.22916667.02864583-.1145839.01909732-.21245619.02387158-.29361979.01432292s-.14561608-.04774272-.19335937-.11458333c-.03819464-.07638927-.03819464-.17187443 0-.28645834.00954866-.03819463.02864569-.04774315.05729166-.02864583-.03819463-.02864598-.09071147-.07400143-.15755208-.13606771s-.11458319-.10264747-.14322917-.12174479c-.4392383.14322988-.88801854.33897445-1.34635416.58723958.05729195.00954866.11458304.0047744.171875-.01432291.04774329-.01909732.10980864-.05013.18619791-.09309896.07638927-.04296897.12413185-.06922738.14322917-.07877604.3246544-.13368123.52517323-.16710103.6015625-.10026042l.07161458-.07161458c.13368123.15277854.22916638.27213498.28645834.35807291-.06684062-.03819463-.21006835-.04296889-.4296875-.01432291-.19097318.05729195-.29600685.11458304-.31510417.171875.06684061.1145839.0907119.20052054.07161458.2578125-.03819463-.02864598-.0930986-.07638856-.16471354-.14322917s-.14084168-.11935745-.20768229-.15755208c-.06684061-.03819464-.13845448-.06206593-.21484375-.07161459-.15277854 0-.25781221.00477426-.31510417.01432292-1.39410419.76389271-2.51605478 1.82377794-3.36588541 3.1796875.06684061.06684061.1241317.10503467.171875.11458333.03819463.00954866.06206592.05251698.07161458.12890625s.0214843.12890611.03580729.15755209c.01432299.02864597.06922695.0143232.16471354-.04296875.08593793.07638927.10026071.16710017.04296875.27213541.00954866-.00954866.21961601.11935631.63020834.38671875.18142451.1623272.28168393.26258662.30078125.30078125.02864597.10503525-.0190966.19097189-.14322917.2578125-.00954866-.01909731-.05251698-.06206563-.12890625-.12890625-.07638927-.06684061-.11935759-.08593764-.12890625-.05729166-.02864598.04774329-.02625885.13606706.00716146.26497395.0334203.1289069.08355001.18858512.15039062.17903646-.06684061 0-.11219606.07638813-.13606771.22916667-.02387164.15277854-.03580729.32226469-.03580729.50846354s-.00477425.29839391-.01432291.33658851l.02864583.0143229c-.02864598.114584-.00238756.2792959.07877604.4941407s.18381014.3079428.30794271.2792968c-.12413257.028646-.02864741.2339391.28645833.6158855.05729196.0763892.09548602.1193576.11458334.1289062.02864597.0190973.08593707.0549043.171875.1074219s.15755179.1002602.21484375.1432292c.05729195.0429689.10503453.0930986.14322916.1503906.03819464.0477433.08593722.1551641.14322917.3222656s.12413156.2792966.20052083.3365885c-.01909731.057292.02625813.1527772.13606771.2864584s.15993929.2434891.15039063.3294271c-.00954866 0-.02148431.0047742-.0358073.0143229-.01432298.0095486-.02625863.0143229-.03580729.0143229.02864598.0668406.10264698.1336802.22200521.2005208.11935824.0668406.19335923.128906.22200521.1861979.00954866.028646.01909717.0763886.02864583.1432292s.02387144.1193575.04296875.1575521c.01909732.0381946.05729138.0477432.11458334.0286458.01909731-.1909731-.09548487-.4869771-.34375-.8880208-.14322989-.2387165-.22439227-.3771699-.24348959-.4153646-.02864597-.0477433-.05490439-.1217443-.07877604-.2220052s-.04535581-.1694876-.06445312-.2076823c.01909731 0 .04774286.0071614.0859375.0214844.03819463.014323.07877582.0310329.12174479.0501302.04296896.0190973.0787759.0381943.10742187.0572917.02864598.0190973.0381945.0334201.02864584.0429687-.02864598.0668406-.01909746.1503901.02864583.2506511.04774329.1002609.10503439.1885846.171875.2649739s.14800299.1671002.24348958.2721354c.09548659.1050353.15277769.1671006.171875.1861979.05729196.057292.12413157.15039.20052084.2792969s.07638927.1933594 0 .1933594c.08593793 0 .18142308.0501297.28645833.1503906s.18619763.193359.24348958.2792969c.0477433.0763893.08593736.20052.11458334.3723958.02864597.1718759.05251726.2864581.07161458.34375.01909732.0668406.05967851.1312931.12174479.1933594s.12174451.1074217.17903646.1360677l.22916667.1145833c.09548659.0477433.15755194.0811631.18619791.1002605.0477433.0190973.13606707.069227.26497396.1503906.12890691.0811636.23155341.1360676.30794271.1647135.0954866.0381947.1718747.0572917.2291667.0572917.0572919 0 .1265187-.0119356.2076823-.0358073.0811636-.0238716.145616-.0405815.1933593-.0501302.1432299-.0190973.2816834.0525165.4153646.2148437.1336812.1623273.2339407.2625867.3007813.3007813.3437517.1814245.6063359.2339414.7877604.1575521-.0190973.0095486-.0167102.0453556.0071614.1074219.0238717.0620662.0620658.1360672.1145834.2220052.0525176.0859379.0954859.1551646.1289062.2076823.0334203.0525176.0596787.0930988.0787761.1217447.0477433.057292.1336799.1289059.2578125.2148438.1241325.0859379.2100692.1575518.2578125.2148437.0572919-.0381946.0907117-.0811629.1002604-.1289062-.028646.0763893.0047738.1718744.1002604.2864583s.1814232.1623265.2578125.1432292c.1336812-.028646.2005208-.1814222.2005208-.4583333-.2960084.1432298-.529947.0572932-.7018229-.2578125 0-.0095487-.0119356-.0358071-.0358073-.0787761-.0238716-.0429689-.0429687-.0835501-.0572916-.1217448-.014323-.0381946-.0262587-.0787758-.0358073-.1217448-.0095487-.0429689-.0095487-.0787759 0-.1074218.0095486-.028646.0334199-.0429688.0716146-.0429688.0859379 0 .1336805-.0167099.1432291-.0501302.0095487-.0334203.0000002-.0930985-.0286458-.1790365-.028646-.0859379-.047743-.1480032-.0572917-.1861979-.0095486-.0763892-.0620655-.1718744-.1575521-.2864583s-.1527776-.1861978-.171875-.2148438c-.0477433.085938-.1241314.124132-.2291666.1145834-.1050353-.0095487-.1814234-.052517-.2291667-.1289063 0 .0095487-.0071614.0358071-.0214844.0787761-.014323.0429689-.0214843.0740016-.0214843.0930989-.1241326 0-.1957465-.0047742-.2148438-.0143229.0095487-.028646.0214843-.1121955.0358073-.250651.014323-.1384556.0310329-.2458764.0501302-.3222657.0095487-.0381946.0358071-.0954857.078776-.171875.042969-.0763892.0787759-.145616.1074219-.2076822.028646-.0620663.047743-.1217445.0572917-.1790365.0095486-.057292-.0119355-.1026474-.0644531-.1360677-.0525177-.0334203-.1360672-.045356-.2506511-.0358073-.1814245.0095487-.3055552.1050338-.3723958.2864583-.0095487.028646-.0238714.0787757-.0429688.1503907-.0190973.0716149-.0429686.1265189-.0716145.1647135-.028646.0381946-.0716143.0716144-.1289063.1002604-.0668406.028646-.1814228.0381945-.34375.0286458-.1623272-.0095486-.2769094-.0334199-.34375-.0716145-.1241326-.0763893-.2315534-.2148428-.3222656-.4153646-.0907123-.2005219-.1360677-.3771694-.1360677-.5299479 0-.0954866.0119356-.2220045.0358073-.3795573.0238716-.1575529.0381944-.2769093.0429687-.3580729s-.0214841-.198133-.078776-.3509115c.0286459-.0190973.0716143-.0644528.1289062-.1360677.057292-.0716149.1050345-.1217447.1432292-.1503906.0190973-.0095487.0405815-.0167101.0644531-.0214844.0238717-.0047743.0453558-.0047743.0644531 0 .0190974.0047743.0381944-.0023871.0572917-.0214844s.0334201-.0477428.0429687-.0859375c-.0095486-.0095486-.0286456-.0238714-.0572916-.0429687-.028646-.028646-.047743-.0429688-.0572917-.0429688.0668406.028646.202907.0214846.4082031-.0214844.2052962-.0429689.3365883-.0358075.3938802.0214844.1432299.1050353.2482636.0954867.3151042-.0286458 0-.0095487-.0119356-.0549041-.0358073-.1360677-.0238716-.0811636-.0262588-.1456161-.0071614-.1933594.0477433.2578138.1861967.3007821.4153646.1289062.0286459.028646.1026469.0525173.2220052.0716146.1193582.0190974.2029077.0429686.250651.0716146.028646.0190973.0620658.0453558.1002604.0787761.0381947.0334203.0644531.0549044.0787761.0644531.0143229.0095486.0381942.0071615.0716145-.0071615s.0740015-.0453556.1217448-.0930989c.0954866.1336812.1527777.2482634.171875.34375.1050353.3819463.1957462.5920137.2721355.6302083.0668406.028646.1193574.0381945.157552.0286458.0381947-.0095486.0596788-.0549041.0644532-.1360677.0047743-.0811636.0047743-.1480032 0-.2005208-.0047744-.0525176-.0119358-.1121959-.0214844-.1790365l-.0143229-.1145833v-.2578125l-.0143229-.1145833c-.1432299-.028646-.2315537-.0859371-.264974-.171875-.0334203-.085938-.0262589-.1742617.0214844-.264974s.1193571-.179036.2148437-.264974c.0095487-.0095486.0477427-.0262585.1145834-.0501302.0668406-.0238716.1408416-.0549043.2220052-.0930989.0811636-.0381947.1408418-.0763887.1790364-.1145834.2005219-.1814245.2721357-.3485235.2148438-.501302.0668406 0 .1193574-.0429684.157552-.1289063-.0095486 0-.0334199-.0143228-.0716145-.0429687-.0381947-.028646-.0740016-.0525173-.1074219-.0716146s-.0549045-.0286459-.0644531-.0286459c.0859379-.0477432.0954864-.1241314.0286458-.2291666.0477433-.028646.0835502-.0811628.1074219-.1575521.0238716-.0763893.0596786-.1241318.1074218-.1432292.085938.1145839.1861974.1241325.3007813.0286459.0763893-.0763893.0811635-.1527774.0143229-.2291667.0477433-.0668406.1456156-.1169703.2936198-.1503906s.236328-.0787758.264974-.13606773c.0668406.01909733.1050346.00954883.1145833-.02864584.0095487-.03819463.0143229-.09548573.0143229-.171875s.0143228-.13368036.0429688-.171875c.0381946-.04774329.1098085-.09071161.2148437-.12890625.1050353-.03819463.1671006-.06206592.1861979-.07161458l.2434896-.15755208c.028646-.03819464.028646-.05729167 0-.05729167.1718759.01909732.3198779-.03341952.4440104-.15755208.0954866-.10503525.0668411-.20052041-.0859375-.28645834.028646-.05729195.0143232-.1026474-.0429687-.13606771-.057292-.0334203-.1289058-.05967872-.2148438-.07877604.028646-.00954866.08355-.01193578.1647136-.00716146.0811636.00477433.1312933-.00238705.1503906-.02148437.1432299-.09548659.1098101-.17187471-.1002604-.22916667-.1623272-.04774329-.3676203.0095478-.6158854.171875zm-2.3346355 12.56119792c1.9670238-.3437517 3.6427883-1.2460864 5.0273438-2.7070313-.028646-.0286459-.0883242-.0501301-.1790365-.0644531-.0907122-.014323-.1503904-.0310329-.1790364-.0501302-.1718759-.0668406-.2864581-.1050347-.34375-.1145833.0095486-.0668406-.002387-.128906-.0358073-.1861979-.0334203-.057292-.0716144-.1002603-.1145833-.1289063-.042969-.028646-.1026472-.06684-.1790365-.1145833s-.1289061-.0811631-.1575521-.1002604c-.0190973-.0190974-.0525171-.0477429-.1002604-.0859375-.0477433-.0381947-.0811631-.0644531-.1002604-.0787761s-.0549043-.0358071-.1074219-.0644531-.0930988-.0381945-.1217448-.0286458c-.028646.0095486-.0763885.0143229-.1432292.0143229l-.0429687.0143229c-.028646.0095487-.0549044.0214843-.078776.0358073-.0238717.014323-.0501301.0286458-.0787761.0429687-.028646.014323-.047743.0286458-.0572917.0429688-.0095486.014323-.0095486.0262586 0 .0358073-.2005218-.1623272-.3723951-.2673609-.5156249-.3151042-.0477433-.0095486-.1002602-.0358071-.1575521-.078776-.057292-.042969-.1074217-.0763888-.1503907-.1002604-.0429689-.0238717-.0907115-.0310331-.1432291-.0214844-.0525176.0095486-.1074216.0429684-.1647136.1002604-.0477433.0477433-.0763888.1193572-.0859375.2148437-.0095486.0954866-.0190971.157552-.0286458.186198-.0668406-.0477433-.0668406-.1312928 0-.2506511.0668406-.1193582.0763891-.207682.0286458-.2649739-.0286459-.057292-.0787757-.0787761-.1503906-.0644532-.0716149.014323-.128906.0358072-.171875.0644532-.042969.0286459-.0978729.0692271-.1647135.1217448-.0668406.0525176-.109809.0835503-.1289063.0930989-.0190973.0095487-.0596785.0358071-.1217448.0787761-.0620663.0429689-.1026474.0787759-.1217448.1074218-.0286459.0381947-.0572915.0954858-.0859375.171875-.0286459.0763893-.0525172.1289061-.0716145.1575521-.0190974-.0381946-.0740013-.0692273-.1647136-.0930989-.0907123-.0238717-.1360677-.0501301-.1360677-.0787761.0190973.0954866.0381943.2625856.0572917.5013021.0190973.2387165.0429686.4201383.0716145.5442708.0668407.2960085.0095496.5251728-.1718749.6875-.2578138.2387165-.3962673.4296868-.4153646.5729167-.0381947.2100705.0190964.3342012.171875.3723958 0 .0668406-.0381941.1647129-.1145834.2936198-.0763892.1289069-.109809.2315535-.1002604.3079427 0 .057292.0095485.1336801.0286458.2291667z" fill="#1f2555"/></g></svg>
