<svg class="{{ classes|join(' ')|trim }}" height="24" viewBox="0 0 24 24" width="24" xmlns="http://www.w3.org/2000/svg"><g fill="none" fill-rule="evenodd"><path d="m0 0h24v24h-24z"/><g fill="#1f2555"><path d="m19.6512 8.8692c-.573 0-1.043.47-1.043 1.044v2.086c0 3.45-2.811 6.261-6.261 6.261-3.449 0-6.26-2.811-6.26-6.261v-2.086c0-.574-.47-1.044-1.043-1.044-.575 0-1.044.47-1.044 1.044v2.086c0 4.252 3.188 7.767 7.304 8.283v1.631h-3.131c-.574 0-1.043.47-1.043 1.044 0 .573.469 1.043 1.043 1.043h8.348c.574 0 1.043-.47 1.043-1.043 0-.574-.469-1.044-1.043-1.044h-3.131v-1.631c4.116-.516 7.305-4.031 7.305-8.283v-2.086c0-.574-.47-1.044-1.044-1.044"/><path d="m10.2606 4.1739c0-1.147.939-2.087 2.087-2.087 1.147 0 2.087.94 2.087 2.087v7.825c0 1.149-.94 2.087-2.087 2.087-1.148 0-2.087-.938-2.087-2.087zm2.087 11.999c2.302 0 4.174-1.871 4.174-4.174v-7.825c0-2.302-1.872-4.174-4.174-4.174s-4.174 1.872-4.174 4.174v7.825c0 2.303 1.872 4.174 4.174 4.174z"/></g></g></svg>
