<svg class="{{ classes|join(' ')|trim }}" height="24" viewBox="0 0 24 24" width="24" xmlns="http://www.w3.org/2000/svg"><g fill="none" fill-rule="evenodd"><path d="m0 0h24v24h-24z"/><g fill="#1f2555" transform="translate(4 3)"><path d="m15.0229 16.5489h-14.048c-.536 0-.975.438-.975.976 0 .536.439.975.975.975h14.048c.536 0 .976-.439.976-.975 0-.538-.44-.976-.976-.976"/><path d="m2.7495 7.6788h2.527v7.321h5.333v-7.321h2.64c.285 0 .548-.152.675-.393.052-.096.075-.201.075-.305 0-.154-.052-.306-.16-.428l-5.25-6.282c-.141-.171-.361-.271-.59-.271s-.45.101-.591.271h.001l-5.25 6.282c-.178.21-.211.493-.085.733.126.241.39.393.675.393"/></g></g></svg>
