<svg class="{{ classes|join(' ')|trim }}" viewBox="0 0 31.51 31.51" xmlns="http://www.w3.org/2000/svg"><path d="m25.63 5.82a12.23 12.23 0 0 1 1.66 3.92 9.3 9.3 0 0 1 2.26 6 9.81 9.81 0 0 1 -6.13 8.87h1.21v2.95l-3.63-2.19a11.89 11.89 0 0 1 -5.14-.13 17.38 17.38 0 0 1 -3.52.36h-.73a13.47 13.47 0 0 0 7.13 2 14 14 0 0 0 2.05-.15l5.82 4.06v-6.43a11.49 11.49 0 0 0 4.92-9.32 11.64 11.64 0 0 0 -5.88-9.94m-16.27 15.33-2.49 1.49v-2.59a9.65 9.65 0 0 1 -4.89-8.25c0-5.44 4.82-9.8 10.8-9.8s10.83 4.36 10.83 9.8-4.85 9.85-10.83 9.85a11.33 11.33 0 0 1 -3.42-.5m16.22-9.33c0-6.53-5.73-11.82-12.8-11.82s-12.8 5.29-12.8 11.82a11.51 11.51 0 0 0 4.92 9.32v5.45l4.72-3.3a14.05 14.05 0 0 0 3.16.36c7.07 0 12.8-5.3 12.8-11.83" fill="#1f2555"/></svg>
