<svg class="{{ classes|join(' ')|trim }}" viewBox="0 0 32 24" xmlns="http://www.w3.org/2000/svg"><path d="m30 20-.8-4h-7.2v2.1a4.14 4.14 0 0 1 1-.1 4.93 4.93 0 0 1 4 2zm-8-6h6.8l-.8-4h-6zm4 9a3 3 0 0 0 -5.1-2.1 3 3 0 1 0 4.2 4.2 2.88 2.88 0 0 0 .9-2.1zm-16 0a2.88 2.88 0 0 0 -.9-2.1 2.9 2.9 0 0 0 -4.2 0 2.9 2.9 0 0 0 0 4.2 2.9 2.9 0 0 0 4.2 0 2.88 2.88 0 0 0 .9-2.1zm10-4v-12a1.08 1.08 0 0 0 -.3-.7.91.91 0 0 0 -.7-.3h-16a.91.91 0 0 0 -.7.3 1.08 1.08 0 0 0 -.3.7v12c0 .7.3 1 1 1a4.93 4.93 0 0 1 4-2 4.93 4.93 0 0 1 4 2h8a4.74 4.74 0 0 1 1-1zm12 2a1.08 1.08 0 0 1 -.3.7.91.91 0 0 1 -.7.3h-3.1a4.14 4.14 0 0 1 .1 1 4.54 4.54 0 0 1 -1.5 3.5 4.85 4.85 0 0 1 -3.5 1.5 4.69 4.69 0 0 1 -3.5-1.5 4.85 4.85 0 0 1 -1.5-3.5v-.2h-6v.2a4.54 4.54 0 0 1 -1.5 3.5 4.85 4.85 0 0 1 -3.5 1.5 4.69 4.69 0 0 1 -3.5-1.5 4.85 4.85 0 0 1 -1.5-3.5v-.2a2 2 0 0 1 -1.4-.6 2 2 0 0 1 -.6-1.5v-14.6a2 2 0 0 1 .6-1.5 2 2 0 0 1 1.4-.6h18a2 2 0 0 1 1.4.6 2 2 0 0 1 .6 1.5v1.9h7c.7 0 1 .3 1 1z" fill="#1f2555" fill-rule="evenodd" transform="translate(0 -4)"/></svg>
