<?xml version="1.0" standalone="no"?>
<!DOCTYPE svg PUBLIC "-//W3C//DTD SVG 20010904//EN"
 "http://www.w3.org/TR/2001/REC-SVG-20010904/DTD/svg10.dtd">
<svg version="1.0" xmlns="http://www.w3.org/2000/svg"
 width="400.000000pt" height="400.000000pt" viewBox="0 0 400.000000 400.000000"
 preserveAspectRatio="xMidYMid meet">
<metadata>
Created by potrace 1.11, written by Peter Selinger 2001-2013
</metadata>
<g transform="translate(0.000000,400.000000) scale(0.100000,-0.100000)"
fill="#000000" stroke="none">
<path d="M2665 3155 c-13 -20 -228 -395 -271 -472 -13 -23 -53 -92 -89 -153
-36 -61 -65 -113 -65 -115 0 -1 -19 -34 -42 -71 -40 -67 -56 -94 -143 -252
-22 -39 -42 -72 -45 -72 -3 0 -153 259 -334 576 -225 394 -332 572 -339 565
-6 -6 -84 -138 -173 -293 l-163 -283 23 -40 c12 -22 83 -146 158 -275 74 -129
140 -244 146 -255 8 -17 3 -34 -33 -95 -23 -41 -77 -136 -120 -210 -43 -74
-90 -157 -105 -185 -16 -27 -112 -196 -214 -374 -102 -179 -186 -326 -186
-328 0 -2 152 -3 338 -3 l337 0 95 166 c52 91 106 185 118 207 13 23 65 114
116 202 51 88 146 253 212 367 65 115 121 208 124 208 3 0 76 -125 164 -278
87 -152 235 -411 329 -575 94 -163 174 -294 178 -290 8 9 241 409 296 508 18
33 33 66 33 73 0 7 -37 77 -81 155 -45 78 -119 207 -165 287 l-83 145 28 50
c15 28 115 201 221 385 106 184 200 349 210 365 9 17 61 106 114 198 53 92 96
171 96 175 0 4 -151 7 -336 7 -326 0 -337 -1 -349 -20z"/>
</g>
</svg>
