<svg id="icon-heath-shield" data-name="heath-shield" xmlns="http://www.w3.org/2000/svg" viewBox="0 0 32 32"><path d="M27.32,3.51H26A14.77,14.77,0,0,1,17.72,1L16.56.17a1,1,0,0,0-1.12,0L14.28,1A14.77,14.77,0,0,1,6,3.51H4.68a1,1,0,0,0-1,1V21.17a5.06,5.06,0,0,0,2.22,4.2l9.54,6.46a1,1,0,0,0,1.12,0l9.54-6.46a5.06,5.06,0,0,0,2.22-4.2V4.51A1,1,0,0,0,27.32,3.51Zm-1,17.66A3.07,3.07,0,0,1,25,23.72l-9,6.07L7,23.72a3.07,3.07,0,0,1-1.34-2.55V5.51H6a16.72,16.72,0,0,0,9.42-2.9l.6-.4.6.4A16.72,16.72,0,0,0,26,5.51h.3Z"/><path d="M22,13H19V9.92a1,1,0,0,0-1-1H14a1,1,0,0,0-1,1V13H10a1,1,0,0,0-1,1V18a1,1,0,0,0,1,1h3v3a1,1,0,0,0,1,1h4a1,1,0,0,0,1-1V19h3a1,1,0,0,0,1-1V14A1,1,0,0,0,22,13ZM21,17H18a1,1,0,0,0-1,1v3H15V18a1,1,0,0,0-1-1H11V15h3a1,1,0,0,0,1-1V10.92h2V14a1,1,0,0,0,1,1h3Z"/></svg>
