<svg viewBox="0 0 32 32" xmlns="http://www.w3.org/2000/svg"><g fill="#151619"><path d="m26.59 24.49h-2.06l2.17-9.8a1 1 0 0 0 -.7-1.18l-1.79-.51v-4.08a1 1 0 0 0 -1-1h-1v-2.23a1 1 0 0 0 -1-1h-2.47v-3.69a1 1 0 0 0 -1-1h-3.19a1 1 0 0 0 -1 1v3.69h-2.47a1 1 0 0 0 -1 1v2.23h-1a1 1 0 0 0 -1 1v4.08l-1.77.47a1 1 0 0 0 -.72 1.18l2.17 9.8h-2.35a1 1 0 0 0 0 2h21.18a1 1 0 0 0 0-2zm-11.04-22.49h1.19v2.69h-1.19zm-5.47 7.92h1a1 1 0 0 0 1-1v-2.23h8.13v2.23a1 1 0 0 0 1 1h1v2.56l-5.67-1.55a1 1 0 0 0 -.52 0l-5.94 1.57zm-2.33 5.27 8.53-2.26 8.26 2.26-2.06 9.3h-12.67z"/><path d="m24.7 27.25h-17.4a1 1 0 1 0 0 2h17.4a1 1 0 1 0 0-2z"/><path d="m22.53 30h-13.06a1 1 0 1 0 0 2h13.06a1 1 0 0 0 0-2z"/></g></svg>
