<svg viewBox="0 0 32 32" xmlns="http://www.w3.org/2000/svg"><g fill="#151619"><path d="m29.46 16.12h-.38l-5-6.85a1 1 0 0 0 -.81-.41h-4.65v-1.81a1 1 0 0 0 -1-1h-5.35a2.89 2.89 0 0 0 -5.7 0h-4.39a2.17 2.17 0 0 0 -2.18 2.16v15.45a2.17 2.17 0 0 0 2.18 2.16h2.23a3.58 3.58 0 0 0 6.85 0h9.21a3.58 3.58 0 0 0 6.85 0h2.5a2.17 2.17 0 0 0 2.18-2.16v-5a2.53 2.53 0 0 0 -2.54-2.54zm-19.31-10.12h-1.46a1 1 0 0 1 1.46 0zm12.64 4.85 3.82 5.26h-8v-5.25zm-15 15.49a1.53 1.53 0 1 1 1.59-1.53 1.57 1.57 0 0 1 -1.55 1.54zm16.07 0a1.53 1.53 0 1 1 1.59-1.53 1.56 1.56 0 0 1 -1.55 1.54zm6.14-2.68a.17.17 0 0 1 -.18.16h-2.5a3.58 3.58 0 0 0 -6.85 0h-9.21a3.58 3.58 0 0 0 -6.85 0h-2.23a.17.17 0 0 1 -.18-.16v-15.45a.17.17 0 0 1 .18-.16h14.44v9.07a1 1 0 0 0 1 1h11.84a.53.53 0 0 1 .54.51z"/><path d="m13.22 12.62h-2.67v-2.62a1 1 0 0 0 -2 0v2.58h-2.66a1 1 0 1 0 0 2h2.66v2.62a1 1 0 0 0 2 0v-2.58h2.67a1 1 0 0 0 0-2z"/></g></svg>
