<svg viewBox="0 0 32 32" xmlns="http://www.w3.org/2000/svg"><g fill="#151619"><path d="m3.45 28a1 1 0 1 0 0 2.09 1 1 0 0 0 0-2.09z"/><path d="m1.05 26.25a1 1 0 1 0 1 1 1 1 0 0 0 -1-1z"/><path d="m9.66 27a8.57 8.57 0 1 0 -8.57-8.57 8.58 8.58 0 0 0 8.57 8.57zm0-15.13a6.57 6.57 0 1 1 -6.57 6.56 6.57 6.57 0 0 1 6.57-6.61z"/><path d="m22.52 5.36a5 5 0 1 0 5 5 5 5 0 0 0 -5-5zm0 8a3 3 0 1 1 3-3 3 3 0 0 1 -3 3.02z"/><path d="m22.77 17.64a1 1 0 0 0 -1.34-.14l-2.33 1.75a1 1 0 1 0 1.2 1.6l.53-.4a11.37 11.37 0 0 1 -11.17 9.3 1 1 0 1 0 0 2 13.38 13.38 0 0 0 13.16-11.07l.33.36a1 1 0 0 0 1.41.08 1 1 0 0 0 .08-1.42z"/><path d="m32 2.53a1 1 0 0 0 -.86-1.13 1 1 0 0 0 -1.14.86l-.09.7a10.09 10.09 0 0 0 -12.44-1 1 1 0 0 0 1.1 1.67 8.08 8.08 0 0 1 9.7.59h-.41a1 1 0 0 0 -1 1 1 1 0 0 0 1 1l2.78.12h.05.1.2l.17-.08h.08a1 1 0 0 0 .23-.23 1.2 1.2 0 0 0 .13-.31s0 0 0 0z"/><path d="m6.46 29.31a1 1 0 1 0 1 1 1 1 0 0 0 -1-1z"/><path d="m15.11 5.63a1 1 0 1 0 -1-1 1 1 0 0 0 1 1z"/><path d="m13.54 8.45a1 1 0 1 0 -1-1 1 1 0 0 0 1 1z"/></g></svg>
