<svg viewBox="0 0 32 32" xmlns="http://www.w3.org/2000/svg"><g fill="#151619"><path d="m8.68 14.25a1 1 0 0 0 1-1 1 1 0 0 0 -.29-.71 1 1 0 0 0 -1.41 0 1 1 0 0 0 -.3.71 1 1 0 0 0 1 1z"/><path d="m31 12.41v-1.28h.7v-2.52h-20.11l-.06-.11a1 1 0 0 0 -.86-.5h-4.74a1 1 0 0 0 -1 1v2.14h-3.93a1 1 0 0 0 -1 1v3.72a1 1 0 0 0 .48.86l3.4 2a3.17 3.17 0 0 0 -.62.92h-1.64v2.36h1.61a3.19 3.19 0 0 0 5.14 1.14 3.2 3.2 0 0 0 5.15-1.14h5.23a3.19 3.19 0 0 0 6-.14h2.57a1.22 1.22 0 0 0 1.22-1.22v-.95-1.9a2 2 0 0 0 -1.7-1.92l-2.9-.31-.72-1.83a2 2 0 0 0 -1.83-1.23h-3.68a1 1 0 0 0 -1 1v6.18h-3.22a3.15 3.15 0 0 0 -.53-.81 1 1 0 0 0 .29-.7v-3l3.65-4 .05-.07h12.5v1.44a1.3 1.3 0 0 0 .87 1.2.27.27 0 0 1 .18.24c0 .29-.6.29-.6 0a.75.75 0 1 0 -1.5 0 1.8 1.8 0 0 0 3.6.02 1.76 1.76 0 0 0 -1-1.59zm-29 .74h3.93a1 1 0 0 0 1-1v-2.15h3.17l1.15 2v5.22h-6.15l-3.1-1.92zm4.19 8.85a1.11 1.11 0 1 1 0-2.21 1.11 1.11 0 1 1 0 2.21zm4.36 0a1.11 1.11 0 1 1 1.19-1.11 1.14 1.14 0 0 1 -1.19 1.11zm11.16 0a1.11 1.11 0 1 1 1.18-1.11 1.14 1.14 0 0 1 -1.18 1.11zm-3-7.5h2.6l.94 2.39a1 1 0 0 0 .82.63l3.42.37v1.83h-1.85a3.21 3.21 0 0 0 -5.86 0h-.07zm-5.46-1.4v-1.42a1 1 0 0 0 -.14-.51h2z"/></g></svg>
