<svg viewBox="0 0 32 32" xmlns="http://www.w3.org/2000/svg"><path fill="#fff" d="m9.8 21.81-.8-3.23a2.32 2.32 0 0 0 -2.47-1.73l.47-2.15a2.4 2.4 0 0 0 -4.6-1.37l-1.92 6.53a1.05 1.05 0 0 0 0 .5l1.82 8.2v2.44a1 1 0 0 0 2 0v-2.55a1.64 1.64 0 0 0 0-.22l-1.83-8.06 1.82-6.17a.38.38 0 0 1 .49-.24.42.42 0 0 1 .26.51l-.87 3.73a1 1 0 0 0 0 .45l1 4.43a1 1 0 0 0 1.2.75 1 1 0 0 0 .75-1.19l-.7-3.14a.33.33 0 0 1 .24-.41.31.31 0 0 1 .37.24l.83 3.19a5.7 5.7 0 0 0 .4 1 4.83 4.83 0 0 1 .11 4.68 1 1 0 0 0 -.1.45v2.55a1 1 0 0 0 1 1 1 1 0 0 0 1-1v-2.32a6.78 6.78 0 0 0 -.21-6.23 3.58 3.58 0 0 1 -.26-.64z"/><path fill="#fff" d="m31.52 19.86-1.94-6.61a2.38 2.38 0 0 0 -3-1.41 2.41 2.41 0 0 0 -1.58 2.86l.51 2.15a2.32 2.32 0 0 0 -2.47 1.73l-.86 3.26a3.41 3.41 0 0 1 -.25.61 6.78 6.78 0 0 0 -.21 6.23v2.32a1 1 0 0 0 1 1 1 1 0 0 0 1-1v-2.55a1 1 0 0 0 -.1-.45 4.83 4.83 0 0 1 .12-4.71 5.76 5.76 0 0 0 .39-1l.87-3.2a.3.3 0 0 1 .36-.24.33.33 0 0 1 .24.41l-.7 3.14a1 1 0 0 0 .75 1.19 1 1 0 0 0 1.2-.75l1-4.44a1 1 0 0 0 0-.45l-.85-3.71a.42.42 0 0 1 .26-.51.37.37 0 0 1 .46.16l1.85 6.29-1.79 8.05a1.64 1.64 0 0 0 0 .22v2.55a1 1 0 0 0 2 0v-2.44l1.82-8.2a1.05 1.05 0 0 0 -.08-.5z"/><path fill="#fff" d="m13.72 11.19h-1.39v-1.44a1 1 0 0 0 -2 0v1.44h-1.39a1 1 0 1 0 0 2h1.39v1.43a1 1 0 0 0 2 0v-1.43h1.39a1 1 0 0 0 0-2z"/><path fill="#fff" d="m17.71 5.88v-1.44h1.4a1 1 0 0 0 0-2h-1.4v-1.44a1 1 0 0 0 -2 0v1.44h-1.39a1 1 0 1 0 0 2h1.39v1.44a1 1 0 0 0 2 0z"/><path fill="#fff" d="m21.6 12.71v-1.44h1.4a1 1 0 0 0 0-2h-1.4v-1.44a1 1 0 1 0 -2 0v1.44h-1.39a1 1 0 0 0 0 2h1.39v1.44a1 1 0 0 0 2 0z"/></svg>
