<svg id="icon-building-complex" data-name="building-complex" xmlns="http://www.w3.org/2000/svg" viewBox="0 0 32 32"><path d="M31,28.89H29.62V20a1,1,0,0,0-.38-.78l-3.06-2.43V5.62a1,1,0,0,0-1-1H22.6V2.11a1,1,0,0,0-1-1H12.28a1,1,0,0,0-1,1V4.62H8.58a1,1,0,0,0-1,1V28.89H4.93V22.41A3.77,3.77,0,0,0,7.25,18.8,3.6,3.6,0,0,0,3.93,15,3.6,3.6,0,0,0,.61,18.8a3.77,3.77,0,0,0,2.32,3.61v6.48H1a1,1,0,0,0,0,2H31a1,1,0,0,0,0-2ZM3.93,17c.71,0,1.32.83,1.32,1.81s-.61,1.81-1.32,1.81-1.32-.83-1.32-1.81S3.22,17,3.93,17Zm23.69,11.9H26.35V22.73a1,1,0,0,0-1-1H19.09a1,1,0,0,0-1,1v6.16H16.7V20.46l5.47-4.34,5.45,4.34Zm-3.27,0H20.09V23.73h4.26ZM24.18,6.62v8.55l-1.39-1.1A.72.72,0,0,0,22.6,14V6.62ZM13.28,3.11H20.6v11.7L15.08,19.2a1,1,0,0,0-.38.78v8.91H13.28ZM9.58,6.62h1.7V28.89H9.58Z"/><path d="M15.77,14.82h2.86a1,1,0,1,0,0-2H15.77a1,1,0,0,0,0,2Z"/><path d="M15.77,11.23h2.86a1,1,0,0,0,0-2H15.77a1,1,0,0,0,0,2Z"/><path d="M15.77,7.64h2.86a1,1,0,0,0,0-2H15.77a1,1,0,0,0,0,2Z"/></svg>
