<svg viewBox="0 0 32 32" xmlns="http://www.w3.org/2000/svg"><path fill="#151619" d="m26.24 17a2.94 2.94 0 1 0 0-2h-2.74v-4.15a1.88 1.88 0 0 1 1.9-1.85h.84a2.94 2.94 0 1 0 0-2h-.84a3.88 3.88 0 0 0 -3.9 3.85v4.15h-2.7a3 3 0 0 0 -2.8-1.94 3 3 0 0 0 -2.8 1.94h-2.7v-4.15a3.88 3.88 0 0 0 -3.9-3.85h-.84a2.94 2.94 0 1 0 0 2h.84a1.88 1.88 0 0 1 1.9 1.85v4.15h-2.74a2.94 2.94 0 1 0 0 2h2.74v4.15a1.88 1.88 0 0 1 -1.9 1.85h-.84a2.94 2.94 0 1 0 0 2h.84a3.88 3.88 0 0 0 3.9-3.85v-4.15h2.7a3 3 0 0 0 2.8 1.94 3 3 0 0 0 2.8-1.94h2.7v4.15a3.88 3.88 0 0 0 3.9 3.85h.84a2.94 2.94 0 1 0 0-2h-.84a1.88 1.88 0 0 1 -1.9-1.85v-4.15zm2.76-1.94a.94.94 0 1 1 -1 .94 1 1 0 0 1 1-.94zm0-8a.94.94 0 1 1 -1 .94 1 1 0 0 1 1-.94zm-26 1.88a.94.94 0 1 1 0-1.88.94.94 0 1 1 0 1.88zm0 8a.94.94 0 1 1 0-1.88.94.94 0 1 1 0 1.88zm0 8a.94.94 0 1 1 0-1.88.94.94 0 1 1 0 1.88zm12-8.94a1 1 0 1 1 1 .94 1 1 0 0 1 -1-.94zm14 7.06a.94.94 0 1 1 -1 .94 1 1 0 0 1 1-.94z"/></svg>
