<svg viewBox="0 0 32 32" xmlns="http://www.w3.org/2000/svg"><g fill="#151619"><path d="m22.85 7.18h-21.85a1 1 0 0 0 0 2h21.85a7 7 0 0 1 7.15 6.82 7 7 0 0 1 -7.15 6.82 7.18 7.18 0 0 1 -6.42-3.82 1 1 0 0 0 -.89-.54h-4.71a1 1 0 0 0 0 2h4.17a9.18 9.18 0 0 0 7.89 4.34 9 9 0 0 0 9.11-8.8 9 9 0 0 0 -9.15-8.82z"/><path d="m22.85 9.8a1 1 0 0 0 -1 1v5.2a1 1 0 0 0 .29.71l2.28 2.29a1 1 0 0 0 1.41-1.41l-2-2v-4.79a1 1 0 0 0 -.98-1z"/><path d="m15.9 12a1 1 0 0 0 -1-1h-10.29a1 1 0 1 0 0 2h10.29a1 1 0 0 0 1-1z"/><path d="m14.59 15.65a1 1 0 0 0 -1-1h-5.44a1 1 0 0 0 0 2h5.44a1 1 0 0 0 1-1z"/></g></svg>
