<svg viewBox="0 0 32 32" xmlns="http://www.w3.org/2000/svg"><g fill="#151619"><path d="m22.28 10.84c-2.26 0-4.19-1-6.23-2.1a26.78 26.78 0 0 0 -5.05-2.23c-3.67-1.1-7.72 3-7.76 3.05a1 1 0 0 1 -1.47-1.39c.23-.17 4.93-5.02 9.77-3.58a29.74 29.74 0 0 1 5.46 2.41c2.26 1.2 4.06 2.15 6.2 1.79a9.42 9.42 0 0 0 5.54-2.9 1 1 0 1 1 1.55 1.21 11.36 11.36 0 0 1 -6.77 3.64 7.67 7.67 0 0 1 -1.24.1z"/><path d="m22.28 19.29c-2.26 0-4.19-1-6.22-2.1a27.17 27.17 0 0 0 -5.06-2.19c-3.72-1.15-7.75 3-7.79 3a1 1 0 0 1 -1.44-1.39c.2-.21 4.93-5 9.77-3.58a29.44 29.44 0 0 1 5.46 2.39c2.27 1.2 4.06 2.15 6.2 1.79a9.53 9.53 0 0 0 5.54-2.9 1 1 0 1 1 1.56 1.24 11.36 11.36 0 0 1 -6.77 3.64 7.67 7.67 0 0 1 -1.25.1z"/><path d="m22.28 27.74c-2.26 0-4.19-1-6.23-2.09a26.79 26.79 0 0 0 -5.05-2.24c-3.67-1.09-7.72 3-7.76 3.05a1 1 0 0 1 -1.41 0 1 1 0 0 1 0-1.42c.2-.2 4.93-5 9.77-3.58a29.73 29.73 0 0 1 5.4 2.42c2.26 1.19 4.06 2.14 6.2 1.79a9.58 9.58 0 0 0 5.54-2.91 1 1 0 0 1 1.55 1.24 11.43 11.43 0 0 1 -6.77 3.63 7.67 7.67 0 0 1 -1.24.11z"/></g></svg>
