<svg id="icon-ai-brain" data-name="ai-brain" xmlns="http://www.w3.org/2000/svg" viewBox="0 0 32 32"><path d="M32,14.56v-.14a1.29,1.29,0,0,0,0-.19s0-.06,0-.09L28.79,5.86l-.06-.08a.32.32,0,0,0,0-.09l-.06-.07-.14-.15-.15-.1-.07-.06-8.52-4h0a1,1,0,0,0-.34-.08H8.56a1,1,0,0,0-.18,0l-.19.05L8,1.38a1.1,1.1,0,0,0-.14.09L.31,8.74h0l0,.06A1.13,1.13,0,0,0,.13,9a.2.2,0,0,0,0,.08A.82.82,0,0,0,0,9.26s0,0,0,.05v.25a.34.34,0,0,1,0,.1s0,0,0,0L2.62,20.54a1,1,0,0,0,0,.1l.06.14a.9.9,0,0,0,.15.19.35.35,0,0,0,0,.08H3a.83.83,0,0,0,.22.14l.08.05a1.21,1.21,0,0,0,.34.06h9.13l5.91,4.18,3.8,4.93a1,1,0,0,0,.79.39,1.13,1.13,0,0,0,.32,0,1,1,0,0,0,.68-1v-5.4l5-2.71,0,0a1,1,0,0,0,.26-.2.25.25,0,0,1,0-.07.49.49,0,0,0,.1-.15s0,0,0-.06l0-.05,2.22-6.32s0-.05,0-.08a.32.32,0,0,1,0-.09Zm-3.78,4.86-5.09-2.51,6.37-1.13ZM2.47,11.33,7.93,14.1l-3.8,4.14ZM8.63,3.54,12.18,6.6,4,8Zm17.14,2.8L22.05,8.67,16.28,6.79,19.55,3.4ZM11.25,13.2l3.57-4.78,6.09,2-1.62,4.85Zm6,3.6-3.83,2.14-1.93-3.61ZM4.18,10l8-1.32-2.9,3.9Zm10.2-4.08-3.1-2.68H17Zm-5,9.65,2,3.79H5.87Zm9.47,2.71-.34,4.69-3.56-2.51Zm3.94-7L28,14l-6.57,1.15Zm1.42-1.5,3.18-2,1.76,4.64ZM21.06,25.37l1.16-.29v1.79Zm1.8-2.5-2.43.59.4-5.46,5.77,2.85Z"/></svg>
