<svg id="icon-hand-give" data-name="hand-give" xmlns="http://www.w3.org/2000/svg" viewBox="0 0 32 32"><path d="M29.17,20.16a3.08,3.08,0,0,0-4.33.28L23.3,22.18a3.16,3.16,0,0,0-3.12-2.8H15.69a4.62,4.62,0,0,1-1.1-.38,9.42,9.42,0,0,0-8.42,0,1,1,0,0,0-.9-.58H2.76a1,1,0,0,0-1,1V31a1,1,0,0,0,1,1H5.27a1,1,0,0,0,1-1v-.23H19.08a1.26,1.26,0,0,0,.28,0l6.24-1.81a1.08,1.08,0,0,0,.49-.32l3.4-4A3.17,3.17,0,0,0,29.17,20.16Zm-25.41.26h.51V30H3.76ZM28,23.27l-3.2,3.81-5.82,1.69H6.27V21.16c3.79-1.92,6-1,7.54-.32a4.85,4.85,0,0,0,1.88.54h4.49a1.2,1.2,0,0,1,0,2.39H15a1,1,0,0,0,0,2h7.36a1,1,0,0,0,.75-.34l3.25-3.67a1.06,1.06,0,0,1,1.51-.09A1.14,1.14,0,0,1,28,23.27Z"/><path d="M18,10.11a4.37,4.37,0,1,0,4.31,4.37A4.34,4.34,0,0,0,18,10.11Zm0,6.74a2.37,2.37,0,1,1,2.31-2.37A2.34,2.34,0,0,1,18,16.85Z"/><path d="M24.28,12.11A4.37,4.37,0,1,0,20,7.74,4.34,4.34,0,0,0,24.28,12.11Zm0-6.74A2.37,2.37,0,1,1,22,7.74,2.34,2.34,0,0,1,24.28,5.37Z"/><path d="M15.25,8.74a4.34,4.34,0,0,0,4.31-4.37,4.31,4.31,0,1,0-8.61,0A4.34,4.34,0,0,0,15.25,8.74Zm0-6.74a2.34,2.34,0,0,1,2.31,2.37,2.31,2.31,0,1,1-4.61,0A2.34,2.34,0,0,1,15.25,2Z"/></svg>
