<svg viewBox="0 0 32 32" xmlns="http://www.w3.org/2000/svg"><path fill="#151619" d="m31.51 17.33a3.5 3.5 0 0 0 -1.85-1.93 3.45 3.45 0 0 0 -2.64 0 3.4 3.4 0 0 0 -1.36 1l-2.38-1.06a7.09 7.09 0 0 0 -1.28-6.34l2.65-2.48a3.34 3.34 0 0 0 1.68.48 3.52 3.52 0 1 0 -3.06-1.87l-2.7 2.52a7 7 0 0 0 -10.06 2.02l-3.35-1.48a3.37 3.37 0 0 0 -.16-1.68 3.42 3.42 0 0 0 -1.88-1.93 3.39 3.39 0 0 0 -2.65 0 3.48 3.48 0 0 0 2.53 6.42 3.32 3.32 0 0 0 1.35-1l3.36 1.5a7.37 7.37 0 0 0 -.26 1.89 7 7 0 0 0 1.14 3.85l-5.23 5a3.4 3.4 0 0 0 -1.64-.43 3.48 3.48 0 1 0 3.46 3.48 3.39 3.39 0 0 0 -.42-1.62l5.14-4.91a7.07 7.07 0 0 0 3.6 1.65v4.79a3.46 3.46 0 1 0 2 0v-4.79a7 7 0 0 0 5-3.29l2.38 1.06a3.52 3.52 0 0 0 .2 1.69 3.42 3.42 0 0 0 1.85 1.92 3.28 3.28 0 0 0 1.37.29 3.47 3.47 0 0 0 3.23-4.75zm-27.24-8.17a1.47 1.47 0 0 1 -1.11 0 1.49 1.49 0 0 1 0-2.74 1.4 1.4 0 0 1 .53-.11 1.45 1.45 0 0 1 1.36.94 1.49 1.49 0 0 1 -.78 1.91zm22.06-7.16a1.48 1.48 0 1 1 -1.47 1.48 1.47 1.47 0 0 1 1.47-1.48zm-22.61 24.77a1.48 1.48 0 1 1 1.46-1.48 1.47 1.47 0 0 1 -1.46 1.48zm14.28 1.75a1.46 1.46 0 1 1 -1.5-1.52 1.48 1.48 0 0 1 1.5 1.52zm-1.46-10a5.1 5.1 0 1 1 5-5.1 5.09 5.09 0 0 1 -5.04 5.07zm12.27 1.48a1.4 1.4 0 0 1 -1.1 0 1.48 1.48 0 0 1 -.79-.82 1.5 1.5 0 0 1 .83-1.92 1.39 1.39 0 0 1 .53-.1 1.48 1.48 0 0 1 .53 2.84z"/></svg>
