<svg id="icon-building-bank" data-name="building-bank" xmlns="http://www.w3.org/2000/svg" viewBox="0 0 32 32"><path d="M32,13.09v-3a1,1,0,0,0-.51-.87L16.58.79a1,1,0,0,0-1,0L.57,9.2a1,1,0,0,0-.51.87v3a1,1,0,0,0,1,1H3.92c0,.05,0,.1,0,.16V29.34H1a1,1,0,0,0,0,2H31a1,1,0,0,0,0-2H28.34V14.25a.76.76,0,0,0,0-.16H31A1,1,0,0,0,32,13.09Zm-26.14,1H9.54a.75.75,0,0,0,0,.16V29.34H5.89V14.25A.76.76,0,0,0,5.86,14.09ZM20.73,29.34H17.12V14.25c0-.06,0-.11,0-.16h3.67a.76.76,0,0,0,0,.16ZM15.12,14.25V29.34H11.5V14.25a.76.76,0,0,0,0-.16h3.68A.76.76,0,0,0,15.12,14.25Zm11.22,0V29.34H22.73V14.25a.76.76,0,0,0,0-.16h3.68A.75.75,0,0,0,26.34,14.25ZM30,12.09H2.06V10.66l14-7.85L30,10.66Z"/><path d="M12.82,8.19a3.28,3.28,0,1,0,3.27-3.26A3.27,3.27,0,0,0,12.82,8.19Zm3.27-1.26a1.26,1.26,0,1,1-1.27,1.26A1.27,1.27,0,0,1,16.09,6.93Z"/></svg>
