<svg viewBox="0 0 32 32" xmlns="http://www.w3.org/2000/svg"><path fill="#151619" d="m32 3.36a1.27 1.27 0 0 0 0-.34v-.1a.7.7 0 0 0 -.13-.24s0 0 0-.06 0 0 0 0a1.16 1.16 0 0 0 -.24-.2s0 0-.07 0a1.12 1.12 0 0 0 -.26-.08h-.3a.88.88 0 0 0 -.28 0h-.09l-29.96 9.16a1 1 0 0 0 -.7.84 1 1 0 0 0 .49 1l9.9 5.81v8a1 1 0 0 0 .64.85 1 1 0 0 0 .34.06 1 1 0 0 0 .77-.36l4.18-5.09 4.93 2.9a1 1 0 0 0 .5.13.81.81 0 0 0 .31-.05 1 1 0 0 0 .61-.55l9.25-21.41a1.34 1.34 0 0 0 .11-.27zm-5.92 2.42-14.8 11.57-7.85-4.61zm-13.72 18.51v-4l2.2 1.3zm8.91-1.06-8.14-4.79 15.37-12z" /></svg>
