<svg viewBox="0 0 32 32" xmlns="http://www.w3.org/2000/svg"><g fill="#151619"><path d="m16 9.07a6.93 6.93 0 1 0 6.91 6.93 6.93 6.93 0 0 0 -6.91-6.93zm0 11.86a4.93 4.93 0 1 1 4.91-4.93 4.92 4.92 0 0 1 -4.91 4.93z"/><path d="m31.27 19.46-2.82-1.63a12.95 12.95 0 0 0 0-3.66l2.82-1.63a1 1 0 0 0 .37-1.37l-3.64-6.34a1 1 0 0 0 -.61-.47 1 1 0 0 0 -.76.1l-2.84 1.64a12.49 12.49 0 0 0 -3.14-1.82v-3.28a1 1 0 0 0 -1-1h-7.3a1 1 0 0 0 -1 1v3.28a12.49 12.49 0 0 0 -3.14 1.82l-2.83-1.64a1 1 0 0 0 -1.38.37l-3.64 6.34a1 1 0 0 0 .37 1.37l2.82 1.63a12.95 12.95 0 0 0 0 3.66l-2.82 1.63a1 1 0 0 0 -.37 1.37l3.64 6.34a1 1 0 0 0 .61.47 1 1 0 0 0 .76-.1l2.84-1.64a12.49 12.49 0 0 0 3.14 1.82v3.28a1 1 0 0 0 1 1h7.3a1 1 0 0 0 1-1v-3.28a12.49 12.49 0 0 0 3.14-1.82l2.83 1.64a1 1 0 0 0 1.38-.37l3.65-6.34a1 1 0 0 0 -.38-1.37zm-4.51 5.84-2.57-1.49a1 1 0 0 0 -1.17.12 10.39 10.39 0 0 1 -3.69 2.14 1 1 0 0 0 -.68.95v3h-5.3v-3.02a1 1 0 0 0 -.68-.95 10.47 10.47 0 0 1 -3.67-2.12 1 1 0 0 0 -1.17-.12l-2.59 1.49-2.65-4.61 2.56-1.48a1 1 0 0 0 .48-1.06 11.11 11.11 0 0 1 0-4.3 1 1 0 0 0 -.48-1.06l-2.56-1.48 2.65-4.61 2.57 1.49a1 1 0 0 0 1.19-.12 10.3 10.3 0 0 1 3.69-2.14 1 1 0 0 0 .66-.93v-3h5.3v3a1 1 0 0 0 .68.95 10.3 10.3 0 0 1 3.67 2.12 1 1 0 0 0 1.17.12l2.59-1.49 2.65 4.61-2.56 1.48a1 1 0 0 0 -.48 1.06 11.06 11.06 0 0 1 0 4.29 1 1 0 0 0 .48 1.07l2.56 1.48z"/></g></svg>
