<svg viewBox="0 0 32 32" xmlns="http://www.w3.org/2000/svg"><path fill="#fff" d="m30 5.44h-12.33l-1.52-2.55a1 1 0 0 0 -.86-.49h-6.19a2 2 0 0 0 -2 2v1.17h-1.25a2 2 0 0 0 -2 2v1.7h-1.85a2 2 0 0 0 -2 2v16.3a2 2 0 0 0 2 2h20.9a2 2 0 0 0 2-2v-1.7h1.77a2 2 0 0 0 2-2v-1.15h1.33a2 2 0 0 0 2-2v-13.27a2 2 0 0 0 -2-2.01zm-7 22.15h-21v-16.31h5.67l1.52 2.55a1 1 0 0 0 .86.49h12.89zm2-3.7v-9.56a2 2 0 0 0 -2-2h-12.38l-1.53-2.56a1 1 0 0 0 -.86-.49h-2.41v-1.71h5.62l1.56 2.55a1 1 0 0 0 .86.49h12.89v13.27zm5-3.17h-1.25v-10.1a2 2 0 0 0 -2-2h-12.33l-1.52-2.57a1 1 0 0 0 -.9-.48h-3v-1.17h5.62l1.63 2.6a1 1 0 0 0 .86.49h12.89z"/></svg>
