<svg viewBox="0 0 32 32" xmlns="http://www.w3.org/2000/svg"><path fill="#151619" d="m28.7 6.34v-.07a.68.68 0 0 0 -.12-.12 16 16 0 0 0 -25.1 0 .74.74 0 0 0 -.12.13s0 .05 0 .08a15.78 15.78 0 0 0 -3.36 9.64 16 16 0 0 0 32 0 15.81 15.81 0 0 0 -3.3-9.66zm-1.14 17.5a18.71 18.71 0 0 0 -3.74-1.51 27.21 27.21 0 0 0 .65-5.33h5.53a13.73 13.73 0 0 1 -2.44 6.84zm-25.51-6.84h5.48a27.21 27.21 0 0 0 .65 5.36 19.06 19.06 0 0 0 -3.75 1.51 13.81 13.81 0 0 1 -2.38-6.87zm2.41-8.88a18.26 18.26 0 0 0 3.73 1.5 27.86 27.86 0 0 0 -.66 5.38h-5.48a13.94 13.94 0 0 1 2.41-6.88zm12.54 2.54a30.08 30.08 0 0 0 4.86-.56 26.46 26.46 0 0 1 .61 4.9h-5.47zm0-2v-6.41c1.78.62 3.34 2.83 4.34 5.92a28.37 28.37 0 0 1 -4.34.49zm-2-6.41v6.41a28.37 28.37 0 0 1 -4.34-.49c1-3.09 2.56-5.3 4.34-5.92zm0 8.41v4.34h-5.47a26.46 26.46 0 0 1 .61-4.87 30.08 30.08 0 0 0 4.86.53zm-5.48 6.34h5.48v4.32a30.21 30.21 0 0 0 -4.87.56 26.46 26.46 0 0 1 -.61-4.88zm5.48 6.29v6.46c-1.78-.63-3.35-2.86-4.35-6a27.17 27.17 0 0 1 4.35-.46zm2 6.46v-6.46a27.17 27.17 0 0 1 4.35.49c-1 3.11-2.57 5.35-4.35 5.97zm0-8.46v-4.29h5.48a26.46 26.46 0 0 1 -.61 4.88 30.21 30.21 0 0 0 -4.87-.59zm7.47-6.29a27.86 27.86 0 0 0 -.66-5.35 18.85 18.85 0 0 0 3.73-1.5 13.9 13.9 0 0 1 2.46 6.85zm1.79-8.42a16.81 16.81 0 0 1 -3 1.15 15.76 15.76 0 0 0 -2.26-4.73 14 14 0 0 1 5.26 3.55zm-15.21-3.58a15.88 15.88 0 0 0 -2.33 4.7 16.81 16.81 0 0 1 -3-1.15 14 14 0 0 1 5.33-3.55zm-5.34 22.42a16.93 16.93 0 0 1 3-1.17 16 16 0 0 0 2.34 4.75 14 14 0 0 1 -5.34-3.58zm15.29 3.58a16 16 0 0 0 2.35-4.77 16.93 16.93 0 0 1 3 1.17 14 14 0 0 1 -5.35 3.6z" /></svg>
