<svg viewBox="0 0 32 32" xmlns="http://www.w3.org/2000/svg"><path fill="#151619" d="m24.74 23.41a35.44 35.44 0 0 0 1.69-10c0-2.13-.28-7.43-3.55-10.74a9.24 9.24 0 0 0 -6.88-2.67c-7.19 0-10.45 6.73-10.47 13.41v.24a31.06 31.06 0 0 0 1.79 10c-2.62 1.46-3.62 2.54-3.62 7.35a1 1 0 0 0 2 0c0-3.56.5-4.36 1.92-5.2a14.1 14.1 0 0 0 8.27 2.32 16.3 16.3 0 0 0 8.8-2.4c1.13.82 1.61 1.92 1.61 5.28a1 1 0 0 0 2 0c0-4.69-.94-6.13-3.56-7.59zm-11-4c-1.22-.89-2.67-2.23-2.67-3.62v-2a5.51 5.51 0 0 0 2.93-2.23l.11-.2c.86-1.53 1.82-3.26 4.85-3.55.14 1.3.6 3.49 2 4.66v3.29a2.52 2.52 0 0 1 -.31 1.11h-3.78a1.12 1.12 0 0 0 -.87-.45 1.15 1.15 0 0 0 0 2.3 1.09 1.09 0 0 0 .87-.45h2.57a20.18 20.18 0 0 1 -1.92 1.62 2.79 2.79 0 0 1 -3 0c-.22-.14-.46-.3-.71-.48zm-4.64 3.31a30.24 30.24 0 0 1 -1.55-8.14 14.82 14.82 0 0 0 2.1-.35v1.53a5.47 5.47 0 0 0 2.12 3.83v1.69zm11.13-3.28 1.26-1.18a3.05 3.05 0 0 0 2.8-2.43 35.78 35.78 0 0 1 -1.29 6.6l-2.77-1.43zm-4.23-17.44a7.29 7.29 0 0 1 5.41 2.09c2.75 2.77 3 7.43 3 9.31 0 .59 0 1.17-.08 1.74a.7.7 0 0 0 -1.39 0 1.73 1.73 0 0 1 -.72 1.4 3.36 3.36 0 0 0 .11-.82v-2.57l.25.06a1 1 0 0 0 1.14-.84 1 1 0 0 0 -.84-1.14c-1.65-.26-2-3.39-2-4.46a1 1 0 0 0 -1-1c-4.94 0-6.5 2.78-7.53 4.62l-.1.19c-.61 1.07-2.72 1.79-4.68 2 .23-5.07 2.54-10.58 8.43-10.58zm-7 23 4.22-2.28.11-.08a1 1 0 0 0 .16-.14.78.78 0 0 0 .1-.15 1.4 1.4 0 0 0 .09-.17 1.42 1.42 0 0 0 0-.2.7.7 0 0 0 0-.14v-.74a4.2 4.2 0 0 0 2.23.64 4.29 4.29 0 0 0 2.23-.64v.46a.7.7 0 0 0 0 .14 1.42 1.42 0 0 0 0 .2 1.4 1.4 0 0 0 .09.17.78.78 0 0 0 .1.15.75.75 0 0 0 .17.14.39.39 0 0 0 .1.08l4.55 2.46a15.22 15.22 0 0 1 -7.42 1.82 13.35 13.35 0 0 1 -6.73-1.72z"/></svg>
