<svg viewBox="0 0 32 32" xmlns="http://www.w3.org/2000/svg"><path fill="#151619" d="m28.16 15.7a1.9 1.9 0 0 0 -1.3-.75l-4.24-.54-3.87-3.35a2.84 2.84 0 0 0 -1.84-.69h-6.42a2.22 2.22 0 0 0 -1.91 1.08l-1.72 2.77-2 .61a2.11 2.11 0 0 0 -1.44 2.32l.32 2.14a2.55 2.55 0 0 0 2.56 2.19h1.06a2.82 2.82 0 0 0 5.34 0h7.16a2.81 2.81 0 0 0 5.33 0h.81a2.19 2.19 0 0 0 2.17-1.89l.36-2.39a2 2 0 0 0 -.37-1.5zm-18.16 5.69a.91.91 0 1 1 .85-.91.88.88 0 0 1 -.85.91zm12.49 0a.89.89 0 0 1 -.85-.9.86.86 0 1 1 1.71 0 .89.89 0 0 1 -.83.9zm3.68-2.1a.21.21 0 0 1 -.19.19h-.82a2.81 2.81 0 0 0 -5.33 0h-7.13a2.82 2.82 0 0 0 -5.34 0h-1.06a.57.57 0 0 1 -.54-.48l-.32-2.14a.1.1 0 0 1 0-.11l2.37-.75a1 1 0 0 0 .55-.43l1.92-3.09a.26.26 0 0 1 .21-.13h6.42a.81.81 0 0 1 .53.2l4.1 3.55a1 1 0 0 0 .53.24l4.49.54z"/><path fill="#151619" d="m18.51 14.64h-7.81a1 1 0 0 0 0 2h7.81a1 1 0 1 0 0-2z"/><path fill="#151619" d="m12.29 6.85a.79.79 0 0 0 0 1.13.8.8 0 0 0 1.13 0 2.81 2.81 0 0 1 4 0 .8.8 0 0 0 .57.24.8.8 0 0 0 .56-.22.79.79 0 0 0 0-1.13 4.35 4.35 0 0 0 -6.28 0z"/><path fill="#151619" d="m19.82 6.33a.78.78 0 0 0 .55-.23.79.79 0 0 0 0-1.13 6.88 6.88 0 0 0 -5-2.11 6.9 6.9 0 0 0 -5 2.11.8.8 0 0 0 1.15 1.12 5.28 5.28 0 0 1 7.63 0 .82.82 0 0 0 .67.24z"/><path fill="#151619" d="m9.21 4.45a.82.82 0 0 0 .58-.24 7.8 7.8 0 0 1 11.28 0 .8.8 0 0 0 1.13 0 .82.82 0 0 0 0-1.14 9.45 9.45 0 0 0 -6.77-2.87 9.41 9.41 0 0 0 -6.79 2.89.79.79 0 0 0 0 1.13.74.74 0 0 0 .57.23z"/><path fill="#151619" d="m15.43 26.49a4.38 4.38 0 0 0 3.14-1.34.79.79 0 0 0 0-1.13.8.8 0 0 0 -1.13 0 2.76 2.76 0 0 1 -2 .86 2.76 2.76 0 0 1 -2-.86.8.8 0 0 0 -1.13 0 .79.79 0 0 0 0 1.13 4.36 4.36 0 0 0 3.14 1.34z"/><path fill="#151619" d="m10.48 25.9a.8.8 0 0 0 0 1.13 6.9 6.9 0 0 0 9.93 0 .79.79 0 0 0 0-1.13.8.8 0 0 0 -1.13 0 5.28 5.28 0 0 1 -7.63 0 .8.8 0 0 0 -1.17 0z"/><path fill="#151619" d="m21.07 27.79a7.8 7.8 0 0 1 -11.28 0 .8.8 0 0 0 -1.13 0 .79.79 0 0 0 0 1.13 9.42 9.42 0 0 0 13.58 0 .8.8 0 0 0 -1.15-1.12z"/></svg>
