<svg viewBox="0 0 32 32" xmlns="http://www.w3.org/2000/svg"><g fill="#151619"><path d="m31.78 8.26a1 1 0 0 0 -.78-.38h-23.45l-.73-5.8a1 1 0 0 0 -1-.87h-4.82a1 1 0 0 0 0 2h3.94l2.21 17.51a1 1 0 0 0 1 .88h20.26a1 1 0 0 0 1-.79l2.59-11.71a1 1 0 0 0 -.22-.84zm-4.18 11.34h-18.6l-1.2-9.72h22z"/><path d="m13.3 23.16a3.82 3.82 0 1 0 3.86 3.84 3.84 3.84 0 0 0 -3.86-3.84zm0 5.63a1.82 1.82 0 1 1 1.86-1.79 1.84 1.84 0 0 1 -1.86 1.79z"/><path d="m24.13 23.16a3.82 3.82 0 1 0 3.87 3.84 3.85 3.85 0 0 0 -3.87-3.84zm0 5.63a1.82 1.82 0 1 1 1.87-1.79 1.85 1.85 0 0 1 -1.87 1.79z"/></g></svg>
