<svg viewBox="0 0 32 32" xmlns="http://www.w3.org/2000/svg"><g fill="#151619"><path d="m24.1 7.6c-2.8-4.7-8.9-6.3-13.6-3.5-2 1.2-3.6 3.1-4.3 5.3-3.6.2-6.3 3.1-6.2 6.7s3.1 6.3 6.7 6.1h.9c.5 0 1-.4 1-1s-.4-1-1-1h-.9c-2.4.1-4.5-1.8-4.6-4.2s1.8-4.5 4.2-4.6h.4.1c.5 0 .9-.3 1-.7 1.2-4.3 5.6-6.9 9.8-5.7 2.2.6 4 2.1 5.1 4.1.2.4.7.6 1.1.5.3 0 .5-.1.8-.1 3 0 5.4 2.4 5.5 5.4 0 3-2.5 5.4-5.5 5.3-.5 0-1 .4-1 1s.4 1 1 1c4.1 0 7.4-3.2 7.5-7.3-.1-4.1-3.5-7.4-7.6-7.3-.2-.1-.3-.1-.4 0z"/><path d="m16.7 17.1s-.1 0-.1-.1c-.1 0-.1-.1-.2-.1-.3-.2-.7-.1-1 .2h-.1l-4.2 4.1c-.4.4-.4 1 0 1.4.2.2.4.3.7.3s.5-.1.7-.3l2.5-2.4v8.1c0 .5.4 1 1 1 .5 0 1-.4 1-1v-8.1l2.5 2.5c.4.4 1 .4 1.4 0 .4-.4.4-1 0-1.4z"/></g></svg>
