<svg viewBox="0 0 32 32" xmlns="http://www.w3.org/2000/svg"><path fill="#fff" d="m29.12 6.76a3.08 3.08 0 0 0 -3.12-3.07h-20a3.08 3.08 0 0 0 -3.12 3.07v3.4a3.07 3.07 0 0 0 .82 2.07 3.07 3.07 0 0 0 -.82 2.07v3.4a3.07 3.07 0 0 0 .82 2.07 3.07 3.07 0 0 0 -.82 2.07v3.4a3.08 3.08 0 0 0 3.12 3.07h20a3.08 3.08 0 0 0 3.08-3.07v-3.4a3.07 3.07 0 0 0 -.82-2.07 3.07 3.07 0 0 0 .82-2.07v-3.4a3.07 3.07 0 0 0 -.82-2.07 3.07 3.07 0 0 0 .82-2.07zm-24.24 0a1.07 1.07 0 0 1 1.12-1.07h20a1.07 1.07 0 0 1 1.08 1.07v3.4a1.07 1.07 0 0 1 -1.08 1.07h-20a1.07 1.07 0 0 1 -1.08-1.07zm22.24 7.54v3.4a1.07 1.07 0 0 1 -1.12 1.07h-20a1.07 1.07 0 0 1 -1.12-1.07v-3.4a1.07 1.07 0 0 1 1.12-1.07h20a1.07 1.07 0 0 1 1.12 1.07zm0 10.94a1.07 1.07 0 0 1 -1.12 1.07h-20a1.07 1.07 0 0 1 -1.08-1.07v-3.4a1.07 1.07 0 0 1 1.08-1.07h20a1.07 1.07 0 0 1 1.08 1.07z"/><path fill="#fff" d="m7.8 22.12a1.5 1.5 0 1 0 1.5 1.49 1.5 1.5 0 0 0 -1.5-1.49zm0 2a.51.51 0 0 1 -.5-.51.5.5 0 0 1 .5-.5.5.5 0 0 1 .5.5.5.5 0 0 1 -.5.51z"/><path fill="#fff" d="m12.36 22.12a1.5 1.5 0 1 0 1.5 1.49 1.5 1.5 0 0 0 -1.5-1.49zm0 2a.51.51 0 0 1 -.5-.51.5.5 0 0 1 .5-.5.5.5 0 0 1 .5.5.5.5 0 0 1 -.5.51z"/><path fill="#fff" d="m7.8 17.5a1.5 1.5 0 1 0 -1.5-1.5 1.5 1.5 0 0 0 1.5 1.5zm0-2a.5.5 0 0 1 0 1 .5.5 0 0 1 0-1z"/><path fill="#fff" d="m12.36 17.5a1.5 1.5 0 1 0 -1.5-1.5 1.5 1.5 0 0 0 1.5 1.5zm0-2a.5.5 0 0 1 0 1 .5.5 0 0 1 0-1z"/><path fill="#fff" d="m7.8 10a1.5 1.5 0 1 0 0-3 1.5 1.5 0 1 0 0 3zm0-2a.5.5 0 0 1 .5.51.5.5 0 0 1 -.5.5.5.5 0 0 1 -.5-.5.51.51 0 0 1 .5-.51z"/><path fill="#fff" d="m12.36 10a1.5 1.5 0 1 0 0-3 1.5 1.5 0 1 0 0 3zm0-2a.5.5 0 0 1 .5.51.5.5 0 0 1 -.5.5.5.5 0 0 1 -.5-.5.51.51 0 0 1 .5-.51z"/></svg>
