<svg viewBox="0 0 32 32" xmlns="http://www.w3.org/2000/svg"><path fill="#fff" d="m30.59 7.74s0 0 0 0a.94.94 0 0 0 -.06-.29v-.08a1 1 0 0 0 -.19-.27s0 0 0 0l-.14-.11-.2-.14-17.29-6.78a1 1 0 0 0 -.8 0l-8.54 4.28h-.09a1.54 1.54 0 0 0 -.19.17 1.51 1.51 0 0 0 -.15.28v.06a1 1 0 0 0 0 .3v8.13a2.31 2.31 0 0 0 -1.4 2v13.6c0 2.11 3.51 3.06 7 3.06s7-.95 7-3.06v-.38l5.3 2.06a1.2 1.2 0 0 0 .32.06 1.11 1.11 0 0 0 .4-.09h.05l8.39-4.17a1 1 0 0 0 .56-.9v-17.72zm-18.19-5.65 14.72 5.77-6.11 3-14.73-5.73zm-9 20.08a13.73 13.73 0 0 0 5 .82 13.77 13.77 0 0 0 5-.82v2.22c-.24.35-1.93 1.14-5 1.14s-4.82-.82-5-1.06zm10-2.32c-.24.35-1.93 1.14-5 1.14s-4.82-.82-5-1.07v-2.33a13.73 13.73 0 0 0 5 .82 13.77 13.77 0 0 0 5-.82zm-5-3.44c-2.85 0-4.52-.69-4.93-1.07.41-.37 2.08-1.06 4.93-1.06s4.52.69 4.93 1.06c-.41.38-2.08 1.07-4.93 1.07zm0 13.59c-3.11 0-4.82-.82-5-1.06v-2.23a13.73 13.73 0 0 0 5 .82 13.77 13.77 0 0 0 5-.82v2.15c-.25.35-1.94 1.14-5 1.14zm7-14.66c0-2.11-3.51-3.06-7-3.06a15.88 15.88 0 0 0 -3.59.38v-5.95l15.24 5.94v15.58l-4.66-1.82zm13.2 9.51-6.54 3.23v-15.49l6.54-3.23z"/><path fill="#fff" d="m23.33 16.33a.46.46 0 0 0 .22-.06l4-2a.51.51 0 0 0 .28-.45v-.9a.49.49 0 0 0 -.24-.42.5.5 0 0 0 -.49 0l-4 2a.5.5 0 0 0 -.27.45v.9a.5.5 0 0 0 .23.42.53.53 0 0 0 .27.06z"/><path fill="#fff" d="m23.33 20.68a.46.46 0 0 0 .22-.06l4-2a.51.51 0 0 0 .28-.45v-.9a.49.49 0 0 0 -.24-.42.5.5 0 0 0 -.49 0l-4 2a.5.5 0 0 0 -.27.45v.9a.5.5 0 0 0 .23.42.53.53 0 0 0 .27.06z"/><path fill="#fff" d="m23.33 25a.44.44 0 0 0 .22-.05l4-2a.51.51 0 0 0 .28-.45v-.9a.49.49 0 0 0 -.24-.42.5.5 0 0 0 -.49 0l-4 2a.5.5 0 0 0 -.27.45v.89a.51.51 0 0 0 .23.43.52.52 0 0 0 .27.05z"/></svg>
