<svg viewBox="0 0 32 32" xmlns="http://www.w3.org/2000/svg"><path fill="#151619" d="m25.41 16.51a3.71 3.71 0 0 0 -1.68.38 3.21 3.21 0 0 0 -2.3-.92 3.44 3.44 0 0 0 -1.68.43 3 3 0 0 0 -2.29-1 3 3 0 0 0 -1 .18v-2.83c0-2.24-1.32-4-3-4s-3 1.76-3 4v8.57a3.1 3.1 0 0 0 -2-.71 2.92 2.92 0 0 0 -2.09.87c-1.2 1.22-.6 3.66 1.4 5.69l4.46 4.53a1 1 0 0 0 .77.3h10.4c2.76 0 5-2 5-4.39v-7.1c0-2.25-1.31-4-2.99-4zm1 11.1c-.01 1.29-1.41 2.39-3.01 2.39h-10l-4.13-4.24c-1.36-1.38-1.58-2.69-1.4-2.88a1 1 0 0 1 .67-.27 1.08 1.08 0 0 1 .77.33l1.46 1.48a.87.87 0 0 0 .32.22 1 1 0 0 0 .38.08h.11a.76.76 0 0 0 .26-.06.75.75 0 0 0 .28-.18 1 1 0 0 0 .22-.33 1 1 0 0 0 .08-.38v-11c0-1.2.59-2 1-2s1 .8 1 2v7.23a1 1 0 0 0 2 0v-1.82a1 1 0 0 1 2 0v1.82a1 1 0 0 0 2 0v-1.52c0-.18.37-.51 1-.51s1 .33 1 .51v1.52a1 1 0 0 0 2 0v-1.18a1.42 1.42 0 0 1 1-.31c.4 0 1 .8 1 2v7.1z"/><path fill="#151619" d="m13.48 6.47a1 1 0 0 0 1-1v-4.47a1 1 0 0 0 -2 0v4.47a1 1 0 0 0 1 1z"/><path fill="#151619" d="m16.4 7.71a1 1 0 0 0 .71-.3l3.11-3.16a1 1 0 0 0 -1.42-1.4l-3.11 3.15a1 1 0 0 0 .71 1.7z"/><path fill="#151619" d="m17 9.23a1 1 0 0 0 1 1h4.39a1 1 0 0 0 0-2h-4.39a1 1 0 0 0 -1 1z"/><path fill="#151619" d="m9.84 7.41a1 1 0 0 0 .71.3 1 1 0 0 0 .7-.29 1 1 0 0 0 0-1.41l-3.1-3.16a1 1 0 1 0 -1.42 1.4z"/><path fill="#151619" d="m10 9.23a1 1 0 0 0 -1-1h-4.4a1 1 0 1 0 0 2h4.4a1 1 0 0 0 1-1z"/></svg>
