<svg id="icon-customer-representative-female" data-name="customer-representative-female" xmlns="http://www.w3.org/2000/svg" viewBox="0 0 32 32"><path d="M24.74,23.41a35.44,35.44,0,0,0,1.69-10c0-2.13-.28-7.43-3.55-10.74A9.24,9.24,0,0,0,16,0C8.81,0,5.55,6.73,5.53,13.41v.24a31.06,31.06,0,0,0,1.79,10C4.7,25.11,3.7,26.19,3.7,31a1,1,0,0,0,2,0c0-3.56.5-4.36,1.92-5.2a14.1,14.1,0,0,0,8.27,2.32,16.3,16.3,0,0,0,8.8-2.4c1.13.82,1.61,1.92,1.61,5.28a1,1,0,0,0,2,0C28.3,26.31,27.36,24.87,24.74,23.41Zm-11-4c-1.22-.89-2.67-2.23-2.67-3.62v-2A5.51,5.51,0,0,0,14,11.56l.11-.2c.86-1.53,1.82-3.26,4.85-3.55.14,1.3.6,3.49,2,4.66v3.29a2.52,2.52,0,0,1-.31,1.11H16.87a1.12,1.12,0,0,0-.87-.45,1.15,1.15,0,0,0,0,2.3,1.09,1.09,0,0,0,.87-.45h2.57a20.18,20.18,0,0,1-1.92,1.62,2.79,2.79,0,0,1-3,0c-.22-.14-.46-.3-.71-.48v0ZM9.1,22.72a30.24,30.24,0,0,1-1.55-8.14,14.82,14.82,0,0,0,2.1-.35v1.53a5.47,5.47,0,0,0,2.12,3.83v1.69Zm11.13-3.28,1.26-1.18a3.05,3.05,0,0,0,2.8-2.43A35.78,35.78,0,0,1,23,22.43L20.23,21ZM16,2a7.29,7.29,0,0,1,5.41,2.09c2.75,2.77,3,7.43,3,9.31,0,.59,0,1.17-.08,1.74a.7.7,0,0,0-1.39,0,1.73,1.73,0,0,1-.72,1.4,3.36,3.36,0,0,0,.11-.82V13.15l.25.06a1,1,0,0,0,1.14-.84,1,1,0,0,0-.84-1.14c-1.65-.26-2-3.39-2-4.46a1,1,0,0,0-1-1c-4.94,0-6.5,2.78-7.53,4.62l-.1.19c-.61,1.07-2.72,1.79-4.68,2C7.8,7.51,10.11,2,16,2ZM9,25l4.22-2.28.11-.08a1,1,0,0,0,.16-.14.78.78,0,0,0,.1-.15,1.4,1.4,0,0,0,.09-.17,1.42,1.42,0,0,0,0-.2.7.7,0,0,0,0-.14V21.1a4.2,4.2,0,0,0,2.23.64,4.29,4.29,0,0,0,2.23-.64v.46a.7.7,0,0,0,0,.14,1.42,1.42,0,0,0,0,.2,1.4,1.4,0,0,0,.09.17.78.78,0,0,0,.1.15.75.75,0,0,0,.17.14.39.39,0,0,0,.1.08l4.55,2.46a15.22,15.22,0,0,1-7.42,1.82A13.35,13.35,0,0,1,9,25Z"/></svg>
