<svg viewBox="0 0 32 32" xmlns="http://www.w3.org/2000/svg"><path fill="#151619" d="m29.59 32h-27.18a1 1 0 0 1 -1-1v-3.53c0-2 1.79-3.7 5.48-5 2.17-.8 3.23-1.46 3.78-2.13-4.53-1.4-5.1-4.41-5.13-4.55a1 1 0 0 1 .44-1c.08-.05 2.18-1.53 2.18-5.29 0-2.88 0-9.5 7.84-9.5s7.84 6.62 7.84 9.45c0 3.76 2.1 5.24 2.19 5.3a1 1 0 0 1 .43 1c0 .14-.6 3.15-5.13 4.55.55.67 1.61 1.33 3.78 2.13 3.68 1.34 5.47 3 5.47 5v3.57a1 1 0 0 1 -.99 1zm-26.18-2h25.18v-2.53c0-1.43-2.61-2.6-4.16-3.16-2.93-1.07-4.87-2.18-5.51-4.4a1 1 0 0 1 .1-.79 1 1 0 0 1 .65-.47c3.1-.64 4.23-2 4.62-2.76a8.74 8.74 0 0 1 -2.45-6.44c0-4.72-.96-7.45-5.84-7.45s-5.84 2.73-5.84 7.45a8.74 8.74 0 0 1 -2.45 6.44c.39.74 1.51 2.12 4.62 2.76a1 1 0 0 1 .65.47 1 1 0 0 1 .1.79c-.64 2.22-2.58 3.33-5.51 4.4-1.57.56-4.16 1.69-4.16 3.16z" /></svg>
