<svg viewBox="0 0 32 32" xmlns="http://www.w3.org/2000/svg"><g fill="#151619"><path d="m17.7 2h10.66a1 1 0 0 0 0-2h-11.08a1 1 0 0 0 -.71.3l-15.28 15.47a1 1 0 0 0 0 1.41 1 1 0 0 0 .7.29 1 1 0 0 0 .71-.3z"/><path d="m24.19 13.29a3 3 0 0 0 2.18-.91 3.12 3.12 0 0 0 0-4.37 3 3 0 0 0 -2.18-.92 3 3 0 0 0 -2.19.91 3.12 3.12 0 0 0 0 4.37 3 3 0 0 0 2.19.92zm-.76-3.88a1.09 1.09 0 0 1 .76-.32 1.07 1.07 0 0 1 .75.32 1.1 1.1 0 0 1 0 1.56 1.08 1.08 0 0 1 -1.51 0 1.14 1.14 0 0 1 0-1.56z"/><path d="m30 3.31h-11.08a1 1 0 0 0 -.71.3l-15.29 15.47a1 1 0 0 0 0 1.4l11.08 11.22a1 1 0 0 0 .71.3 1 1 0 0 0 .71-.3l15.29-15.47a1 1 0 0 0 .29-.7v-11.22a1 1 0 0 0 -1-1zm-1 11.81-14.28 14.46-9.72-9.8 14.33-14.47h9.67z"/></g></svg>
