<svg viewBox="0 0 32 32" xmlns="http://www.w3.org/2000/svg"><path fill="#fff" d="m4.38 18.06h1.76v1.74h-1.76z"/><path fill="#fff" d="m4.38 21.83h1.76v1.74h-1.76z"/><path fill="#fff" d="m25.99 18.06h1.76v1.74h-1.76z"/><path fill="#fff" d="m25.99 21.83h1.76v1.74h-1.76z"/><path fill="#fff" d="m10.68 18.72h10.71a1 1 0 0 0 0-2h-10.71a1 1 0 0 0 0 2z"/><path fill="#fff" d="m14.9 15.47h2.38v-2.11h2.21v-2.2h-2.15v-2.24h-2.44v2.24h-2.15v2.2h2.15z"/><path fill="#fff" d="m31 24.48h-.27v-8.48a1 1 0 0 0 -1-1h-4.73v-8.48a1 1 0 0 0 -1-1h-15.88a1 1 0 0 0 -1 1v8.48h-4.71a1 1 0 0 0 -1 1v8.48h-.41a1 1 0 0 0 0 2h30a1 1 0 0 0 0-2zm-27.59-7.48h3.71v7.48h-3.71zm5.71-1v-8.48h13.88v17h-1.46v-2.79a1 1 0 0 0 .85-1 1 1 0 0 0 -1-1h-10.71a1 1 0 0 0 -1 1 1 1 0 0 0 .85 1v2.75h-1.41zm3.41 5.76h2.47v2.72h-2.47zm4.51 0h2.5v2.72h-2.54zm8 2.72v-7.48h3.71v7.48z"/></svg>
