<svg id="icon-building-retail" data-name="building-retail" xmlns="http://www.w3.org/2000/svg" viewBox="0 0 32 32"><path d="M31.93,7,29.71,1.31a1,1,0,0,0-.93-.63H3.22a1,1,0,0,0-.93.63L.07,7A.89.89,0,0,0,0,7.32v4.73a3.77,3.77,0,0,0,2.08,3.39l.2.09V28.76a2.57,2.57,0,0,0,2.57,2.56h22.3a2.57,2.57,0,0,0,2.57-2.56V15.5A4.17,4.17,0,0,0,32,11.75V7.32A.89.89,0,0,0,31.93,7ZM8.28,29.13V19.62h4.78v9.51Zm18.87.19H15.06V18.62a1,1,0,0,0-1-1H7.28a1,1,0,0,0-1,1v10.7H4.85a.57.57,0,0,1-.57-.56V15.88a4,4,0,0,0,1.85-.59A4.15,4.15,0,0,0,7,14.55a4,4,0,0,0,6,0,4,4,0,0,0,6,0,4,4,0,0,0,6,0l.24.25a3.92,3.92,0,0,0,2.48,1.07V28.76A.57.57,0,0,1,27.15,29.32ZM30,11.75a2.1,2.1,0,0,1-1.89,2.14,2,2,0,0,1-2.11-2,1,1,0,0,0-2,0,2,2,0,0,1-4,0,1,1,0,0,0-2,0,2,2,0,0,1-4,0,1,1,0,0,0-2,0,2,2,0,0,1-4,0,1,1,0,0,0-2,0,2,2,0,0,1-.93,1.67A2.11,2.11,0,0,1,3,13.64a1.76,1.76,0,0,1-1-1.59V7.51L3.9,2.68H28.1L30,7.51Z"/><path d="M24.72,17.62h-8a1,1,0,0,0-1,1v6.13a1,1,0,0,0,1,1h8a1,1,0,0,0,1-1V18.62A1,1,0,0,0,24.72,17.62Zm-1,6.13h-6V19.62h6Z"/></svg>
