<svg id="icon-connection-hierarchy-1" data-name="connection-hierarchy-1" xmlns="http://www.w3.org/2000/svg" viewBox="0 0 32 32"><path d="M31,21.36H28.51V16a1,1,0,0,0-1-1H17V10.64h2.49a1,1,0,0,0,1-1V4.12a1,1,0,0,0-1-1h-7a1,1,0,0,0-1,1V9.64a1,1,0,0,0,1,1H15V15H4.49a1,1,0,0,0-1,1v5.36H1a1,1,0,0,0-1,1v5.52a1,1,0,0,0,1,1H8a1,1,0,0,0,1-1V22.36a1,1,0,0,0-1-1H5.49V17H15v4.36H12.51a1,1,0,0,0-1,1v5.52a1,1,0,0,0,1,1h7a1,1,0,0,0,1-1V22.36a1,1,0,0,0-1-1H17V17h9.51v4.36H24a1,1,0,0,0-1,1v5.52a1,1,0,0,0,1,1h7a1,1,0,0,0,1-1V22.36A1,1,0,0,0,31,21.36ZM13.51,5.12h5V8.64h-5ZM7,26.88H2V23.36H7Zm11.52,0h-5V23.36h5Zm11.51,0H25V23.36h5Z"/></svg>
