<svg viewBox="0 0 32 32" xmlns="http://www.w3.org/2000/svg"><path fill="#151619" d="m24.06 7.51a10 10 0 0 0 -18.06 1.86 6.44 6.44 0 0 0 .53 12.87h.87a1 1 0 0 0 0-2h-.84a4.45 4.45 0 1 1 .05-8.89h.14a1 1 0 0 0 1-.75 8 8 0 0 1 14.86-1.6 1 1 0 0 0 1.11.53 5.12 5.12 0 0 1 .78-.06 5.44 5.44 0 0 1 5.5 5.4 5.44 5.44 0 0 1 -5.5 5.37 1 1 0 0 0 0 2 7.44 7.44 0 0 0 7.5-7.37 7.49 7.49 0 0 0 -7.94-7.36z"/><path fill="#151619" d="m16.7 17.11s-.09-.05-.13-.09a1.22 1.22 0 0 0 -.19-.12.91.91 0 0 0 -1 .17h-.07l-4.24 4.16a1 1 0 0 0 0 1.41 1 1 0 0 0 .71.3 1 1 0 0 0 .71-.29l2.51-2.44v8.12a1 1 0 0 0 2 0v-8.12l2.54 2.49a1 1 0 0 0 1.42 0 1 1 0 0 0 0-1.41z"/></svg>
