<svg viewBox="0 0 32 32" xmlns="http://www.w3.org/2000/svg"><path fill="#fff" d="m24.67 3h-1.67v-.17a1 1 0 0 0 -1-1h-3.38a2.79 2.79 0 0 0 -5.24 0h-3.38a1 1 0 0 0 -1 1v.17h-1.67a3 3 0 0 0 -3 3v23a3 3 0 0 0 3 3h17.34a3 3 0 0 0 3-3v-23a3 3 0 0 0 -3-3zm-13.67.83h3.2a1 1 0 0 0 1-1 .8.8 0 1 1 1.6 0 1 1 0 0 0 1 1h3.2v2.36h-10zm14.67 25.17a1 1 0 0 1 -1 1h-17.34a1 1 0 0 1 -1-1v-23a1 1 0 0 1 1-1h1.67v2.19a1 1 0 0 0 1 1h12a1 1 0 0 0 1-1v-2.19h1.69a1 1 0 0 1 1 1z"/><path fill="#fff" d="m23.22 17.36h-2.52l-1.94-4.2a1 1 0 0 0 -1-.58 1 1 0 0 0 -.9.67l-2.46 7.08-1-2.37a1 1 0 0 0 -.92-.6h-3.7a1 1 0 0 0 0 2h3.06l1.8 4.11a1 1 0 0 0 .92.6 1 1 0 0 0 .9-.67l2.54-7.15 1.16 2.53a1 1 0 0 0 .91.58h3.16a1 1 0 0 0 0-2z"/></svg>
