<svg id="icon-car-signal" data-name="car-signal" xmlns="http://www.w3.org/2000/svg" viewBox="0 0 32 32"><path d="M28.16,15.7a1.9,1.9,0,0,0-1.3-.75l-4.24-.54-3.87-3.35a2.84,2.84,0,0,0-1.84-.69H10.49a2.22,2.22,0,0,0-1.91,1.08L6.86,14.22l-2,.61a2.11,2.11,0,0,0-1.44,2.32l.32,2.14A2.55,2.55,0,0,0,6.3,21.48H7.36a2.82,2.82,0,0,0,5.34,0h7.16a2.81,2.81,0,0,0,5.33,0H26a2.19,2.19,0,0,0,2.17-1.89l.36-2.39A2,2,0,0,0,28.16,15.7ZM10,21.39a.91.91,0,1,1,.85-.91A.88.88,0,0,1,10,21.39Zm12.49,0a.89.89,0,0,1-.85-.9h0a.86.86,0,1,1,1.71,0h0A.89.89,0,0,1,22.52,21.39Zm3.68-2.1a.21.21,0,0,1-.19.19h-.82a2.81,2.81,0,0,0-5.33,0H12.7a2.82,2.82,0,0,0-5.34,0H6.3A.57.57,0,0,1,5.76,19l-.32-2.14a.1.1,0,0,1,0-.11L7.81,16a1,1,0,0,0,.55-.43l1.92-3.09a.26.26,0,0,1,.21-.13h6.42a.81.81,0,0,1,.53.2l4.1,3.55a1,1,0,0,0,.53.24l4.49.54Z"/><path d="M18.51,14.64H10.7a1,1,0,0,0,0,2h7.81a1,1,0,1,0,0-2Z"/><path d="M12.29,6.85a.79.79,0,0,0,0,1.13.8.8,0,0,0,1.13,0,2.81,2.81,0,0,1,4,0,.8.8,0,0,0,.57.24A.8.8,0,0,0,18.55,8a.79.79,0,0,0,0-1.13,4.35,4.35,0,0,0-6.28,0Z"/><path d="M19.82,6.33a.78.78,0,0,0,.55-.23.79.79,0,0,0,0-1.13,6.88,6.88,0,0,0-5-2.11h0a6.9,6.9,0,0,0-5,2.11.8.8,0,0,0,1.15,1.12,5.28,5.28,0,0,1,7.63,0A.82.82,0,0,0,19.82,6.33Z"/><path d="M9.21,4.45a.82.82,0,0,0,.58-.24,7.8,7.8,0,0,1,11.28,0,.8.8,0,0,0,1.13,0,.82.82,0,0,0,0-1.14A9.45,9.45,0,0,0,15.43.2h0A9.41,9.41,0,0,0,8.64,3.09a.79.79,0,0,0,0,1.13A.74.74,0,0,0,9.21,4.45Z"/><path d="M15.43,26.49a4.38,4.38,0,0,0,3.14-1.34.79.79,0,0,0,0-1.13.8.8,0,0,0-1.13,0,2.76,2.76,0,0,1-2,.86h0a2.76,2.76,0,0,1-2-.86.8.8,0,0,0-1.13,0,.79.79,0,0,0,0,1.13,4.36,4.36,0,0,0,3.14,1.34Z"/><path d="M10.48,25.9a.8.8,0,0,0,0,1.13,6.9,6.9,0,0,0,9.93,0,.79.79,0,0,0,0-1.13.8.8,0,0,0-1.13,0,5.28,5.28,0,0,1-7.63,0A.8.8,0,0,0,10.48,25.9Z"/><path d="M21.07,27.79a7.8,7.8,0,0,1-11.28,0,.8.8,0,0,0-1.13,0,.79.79,0,0,0,0,1.13,9.42,9.42,0,0,0,13.58,0,.8.8,0,0,0-1.15-1.12Z"/></svg>
