<svg viewBox="0 0 32 32" xmlns="http://www.w3.org/2000/svg"><path fill="#fff" d="m22.15 3.75a1 1 0 0 0 -1.15.34c-.13.17-3.21 4.16-10.27 4.16h-5.79a5 5 0 0 0 -5 5v1.75a5 5 0 0 0 3.68 4.8c.23 1.9 1.18 6.94 5 9.73a1 1 0 0 0 1.29-.09l2.09-2.07a1 1 0 0 0 .3-.79 1 1 0 0 0 -.42-.74 8.26 8.26 0 0 1 -3-5.83h1.87c7.07-.01 10.15 3.99 10.25 4.14a1 1 0 0 0 .8.41 1.06 1.06 0 0 0 .31 0 1 1 0 0 0 .69-1v-18.87a1 1 0 0 0 -.65-.94zm-12.31 22.94-.71.7c-2.39-2.2-3.2-5.66-3.46-7.38h1.23a10.67 10.67 0 0 0 2.94 6.68zm-4.9-8.69a3 3 0 0 1 -3-3v-1.75a3 3 0 0 1 3-3h4.79v3 1.75 3zm15.89 3.2a15.76 15.76 0 0 0 -9.07-3.2v-7.78a15.76 15.76 0 0 0 9.07-3.22z"/><path fill="#fff" d="m28.31 14.18a4.55 4.55 0 0 0 -2.93-4.24 1 1 0 0 0 -1.29.58 1 1 0 0 0 .58 1.29 2.53 2.53 0 0 1 .1 4.7 1 1 0 0 0 -.54 1.31 1 1 0 0 0 .93.61.84.84 0 0 0 .38-.08 4.51 4.51 0 0 0 2.77-4.17z"/><path fill="#fff" d="m26.66 6.55a1 1 0 0 0 -.66 1.87 6.19 6.19 0 0 1 4 5.76 6.13 6.13 0 0 1 -3.76 5.66 1 1 0 0 0 .39 1.93 1 1 0 0 0 .38-.08 8.15 8.15 0 0 0 -.29-15.14z"/></svg>
