<svg id="icon-connection-hierarchy-2" data-name="connection-hierarchy-2" xmlns="http://www.w3.org/2000/svg" viewBox="0 0 32 32"><path d="M26.24,17a2.94,2.94,0,1,0,0-2H23.5V10.85A1.88,1.88,0,0,1,25.4,9h.84a2.94,2.94,0,1,0,0-2H25.4a3.88,3.88,0,0,0-3.9,3.85V15H18.8A3,3,0,0,0,16,13.06h0A3,3,0,0,0,13.2,15H10.5V10.85A3.88,3.88,0,0,0,6.6,7H5.76a2.94,2.94,0,1,0,0,2H6.6a1.88,1.88,0,0,1,1.9,1.85V15H5.76a2.94,2.94,0,1,0,0,2H8.5v4.15A1.88,1.88,0,0,1,6.6,23H5.76a2.94,2.94,0,1,0,0,2H6.6a3.88,3.88,0,0,0,3.9-3.85V17h2.7A3,3,0,0,0,16,18.94h0A3,3,0,0,0,18.8,17h2.7v4.15A3.88,3.88,0,0,0,25.4,25h.84a2.94,2.94,0,1,0,0-2H25.4a1.88,1.88,0,0,1-1.9-1.85V17ZM29,15.06a.94.94,0,1,1-1,.94A1,1,0,0,1,29,15.06Zm0-8a.94.94,0,1,1-1,.94A1,1,0,0,1,29,7.06ZM3,8.94A.94.94,0,1,1,3,7.06.94.94,0,1,1,3,8.94Zm0,8a.94.94,0,1,1,0-1.88.94.94,0,1,1,0,1.88Zm0,8a.94.94,0,1,1,0-1.88.94.94,0,1,1,0,1.88ZM15,16a1,1,0,1,1,1,.94A1,1,0,0,1,15,16Zm14,7.06a.94.94,0,1,1-1,.94A1,1,0,0,1,29,23.06Z"/></svg>
