<svg id="icon-announce" data-name="announce" xmlns="http://www.w3.org/2000/svg" viewBox="0 0 32 32"><path d="M22.15,3.75A1,1,0,0,0,21,4.09c-.13.17-3.21,4.16-10.27,4.16H4.94a5,5,0,0,0-5,5V15a5,5,0,0,0,3.68,4.8c.23,1.9,1.18,6.94,5,9.73a1,1,0,0,0,1.29-.09L12,27.37a1,1,0,0,0,.3-.79,1,1,0,0,0-.42-.74,8.26,8.26,0,0,1-3-5.83h1.87C17.82,20,20.9,24,21,24.15a1,1,0,0,0,.8.41,1.06,1.06,0,0,0,.31,0,1,1,0,0,0,.69-1V4.69A1,1,0,0,0,22.15,3.75ZM9.84,26.69l-.71.7c-2.39-2.2-3.2-5.66-3.46-7.38H6.9A10.67,10.67,0,0,0,9.84,26.69ZM4.94,18a3,3,0,0,1-3-3V13.25a3,3,0,0,1,3-3H9.73c0,.67,0,1.71,0,3V15c0,1.32,0,2.34,0,3Zm15.89,3.2A15.76,15.76,0,0,0,11.76,18V10.22A15.76,15.76,0,0,0,20.83,7Z"/><path d="M28.31,14.18a4.55,4.55,0,0,0-2.93-4.24,1,1,0,0,0-1.29.58,1,1,0,0,0,.58,1.29,2.53,2.53,0,0,1,.1,4.7,1,1,0,0,0-.54,1.31,1,1,0,0,0,.93.61.84.84,0,0,0,.38-.08A4.51,4.51,0,0,0,28.31,14.18Z"/><path d="M26.66,6.55A1,1,0,0,0,26,8.42a6.19,6.19,0,0,1,4,5.76,6.13,6.13,0,0,1-3.76,5.66,1,1,0,0,0,.39,1.93,1,1,0,0,0,.38-.08,8.15,8.15,0,0,0-.29-15.14Z"/></svg>
