<svg viewBox="0 0 32 32" xmlns="http://www.w3.org/2000/svg"><path fill="#fff" d="m16 .12a16 16 0 0 0 -16 15.88 16 16 0 0 0 32 0 16 16 0 0 0 -16-15.88zm0 29.76a13.88 13.88 0 1 1 14-13.88 14 14 0 0 1 -14 13.88z"/><path fill="#fff" d="m22.54 8.19-9.36 4.55a1.31 1.31 0 0 0 -.27.19s0 0 0 0a.81.81 0 0 0 -.17.24l-4.6 9.27a1 1 0 0 0 .19 1.15 1 1 0 0 0 .71.3 1 1 0 0 0 .43-.1l9.36-4.56a1.31 1.31 0 0 0 .27-.19s0 0 0 0a1 1 0 0 0 .17-.23l4.59-9.27a1 1 0 0 0 -1.33-1.34zm-8.64 7.14 2.78 2.75-5.46 2.66zm4.2 1.34-2.77-2.75 5.45-2.65z"/></svg>
