<svg viewBox="0 0 32 32" xmlns="http://www.w3.org/2000/svg"><path fill="#151619" d="m23.23 18.05-1.23-1.18 9.64-8.81a1 1 0 0 0 .36-.73 1 1 0 0 0 -.31-.73l-4.87-4.68a1 1 0 0 0 -1.36 0l-9.77 8.74-1.3-1.28a6.53 6.53 0 0 0 -1.72-6.43 6.74 6.74 0 0 0 -7.32-1.44 1 1 0 0 0 -.35 1.64l3.17 3.09-1.6 1.58-3.17-3.12a1 1 0 0 0 -1.62.3 6.53 6.53 0 0 0 1.43 7.25 6.78 6.78 0 0 0 6.53 1.75l2.63 2.59-7.26 6.24-.67-.15a1.25 1.25 0 0 0 -1.16.32l-2.92 2.93a1.22 1.22 0 0 0 -.09 1.63l2.28 2.85a1.19 1.19 0 0 0 1 .46 1.21 1.21 0 0 0 .67-.19l3.61-2.35a1.22 1.22 0 0 0 .56-1v-.86l7.41-6.58 2.79 2.75a6.53 6.53 0 0 0 1.72 6.43 6.74 6.74 0 0 0 7.32 1.41 1 1 0 0 0 .32-1.64l-3.22-3.17 1.6-1.58 3.25 3.2a1 1 0 0 0 1.61-.29 6.52 6.52 0 0 0 -1.44-7.25 6.76 6.76 0 0 0 -6.52-1.7zm2.88-14.05 3.43 3.3-8.92 8.14-3.48-3.44zm-19.38 21.27a1 1 0 0 0 -.34.72v.88l-2.71 1.75-1.42-1.77 2.14-2.13.76.18a1 1 0 0 0 .84-.22l7.76-6.74.56.55zm20.65-2.94a1.34 1.34 0 0 0 -1.92-.18l-2.7 2.66a1.11 1.11 0 0 0 -.34.81 1.62 1.62 0 0 0 .52 1.12l2.3 2.26a4.66 4.66 0 0 1 -3.53-1.34 4.55 4.55 0 0 1 -1.05-4.92 1 1 0 0 0 -.23-1.08l-3.9-3.84-2-2-3.8-3.74a1 1 0 0 0 -.7-.29.92.92 0 0 0 -.36.07 4.76 4.76 0 0 1 -5-1 4.54 4.54 0 0 1 -1.42-3.49l2.27 2.22a1.33 1.33 0 0 0 1.91.18l2.7-2.65a1.15 1.15 0 0 0 .34-.82 1.69 1.69 0 0 0 -.47-1.12l-2.27-2.18a4.7 4.7 0 0 1 3.53 1.34 4.55 4.55 0 0 1 1.05 4.92 1 1 0 0 0 .23 1.08l9.72 9.56a1 1 0 0 0 1.06.22 4.78 4.78 0 0 1 5 1 4.54 4.54 0 0 1 1.37 3.47z" /></svg>
