<svg viewBox="0 0 32 32" xmlns="http://www.w3.org/2000/svg"><path fill="#151619" d="m30.25 27-9.4-12.67v-12.33h.42a1 1 0 0 0 0-2h-10.54a1 1 0 0 0 0 2h.42v12.35l-9.4 12.65a3.12 3.12 0 0 0 2.51 5h23.48a3.12 3.12 0 0 0 2.51-5zm-17.38-11.6.06-.08a1 1 0 0 0 .22-.63v-12.69h5.7v12.69a1.26 1.26 0 0 0 .26.67l3.47 4.69a3.86 3.86 0 0 0 -.76.48.9.9 0 0 1 -.67.29.92.92 0 0 1 -.68-.29 2.9 2.9 0 0 0 -3.8 0 .92.92 0 0 1 -.68.29.9.9 0 0 1 -.67-.29 2.9 2.9 0 0 0 -3.8 0 .93.93 0 0 1 -1.35 0 3.58 3.58 0 0 0 -.76-.48zm15.87 14a1.09 1.09 0 0 1 -1 .62h-23.48a1.12 1.12 0 0 1 -.9-1.78l4.77-6.43s.09 0 .14 0a.9.9 0 0 1 .67.29 2.89 2.89 0 0 0 1.9.71 2.84 2.84 0 0 0 1.9-.71.94.94 0 0 1 .68-.29.9.9 0 0 1 .67.29 2.89 2.89 0 0 0 1.9.71 2.84 2.84 0 0 0 1.9-.71.94.94 0 0 1 1.36 0 2.9 2.9 0 0 0 3.8 0 .91.91 0 0 1 .68-.29h.14l4.77 6.43a1.08 1.08 0 0 1 .1 1.14z"/></svg>
