<svg viewBox="0 0 32 32" xmlns="http://www.w3.org/2000/svg"><g fill="#151619"><path d="m31 1.51h-30a1 1 0 0 0 -1 1v22.49a1 1 0 0 0 1 1h10.72l-1.2 2.46h-2.67a1 1 0 1 0 0 2h16.3a1 1 0 0 0 0-2h-2.73l-1.21-2.46h10.79a1 1 0 0 0 1-1v-22.49a1 1 0 0 0 -1-1zm-11.81 27h-6.44l1.25-2.51h4zm10.81-4.51h-28v-20.49h28z"/><path d="m9.67 22.38h12.66a1 1 0 0 0 1-1v-1.44a2.82 2.82 0 0 0 -1.55-2.5l-2.34-1.44a4.66 4.66 0 0 0 1.24-2.95l.11-2.86a4.39 4.39 0 0 0 -4.41-4.35h-.76a4.39 4.39 0 0 0 -4.41 4.38l.11 2.83a4.6 4.6 0 0 0 1.24 2.95l-2.34 1.43a2.79 2.79 0 0 0 -1.55 2.49v1.44a1 1 0 0 0 1 1.02zm1-2.44a.79.79 0 0 1 .46-.71l.09-.05 3.63-2.18a1 1 0 0 0 -.08-1.75 2.61 2.61 0 0 1 -1.45-2.25l-.11-2.78a2.38 2.38 0 0 1 2.41-2.35h.76a2.37 2.37 0 0 1 2.41 2.31l-.11 2.82a2.62 2.62 0 0 1 -1.46 2.22 1 1 0 0 0 -.55.86 1 1 0 0 0 .48.89l3.63 2.22.09.05a.79.79 0 0 1 .46.71v.44h-10.66z"/></g></svg>
