<svg viewBox="0 0 32 32" xmlns="http://www.w3.org/2000/svg"><path fill="#fff" d="m17.07 27.86a.58.58 0 0 0 0-.19.64.64 0 0 0 -.08-.19.36.36 0 0 0 0-.09l-3.05-4.32a1 1 0 0 0 -1.39-.25 1 1 0 0 0 -.24 1.4l1.69 2.54a10.62 10.62 0 0 1 -8.57-10.39 1 1 0 1 0 -2 0 12.63 12.63 0 0 0 9.92 12.29l-2.18 1.52a1 1 0 0 0 -.24 1.39 1 1 0 0 0 .82.43 1 1 0 0 0 .57-.18l4.35-3s0-.05.06-.07a.86.86 0 0 0 .13-.14l.11-.15a1.34 1.34 0 0 0 .07-.18s0-.07 0-.11a.27.27 0 0 1 0-.09s0-.05 0-.08a.43.43 0 0 0 .03-.14z"/><path fill="#fff" d="m31.42 11.86-4.82-2.22h-.08-.2-.18a1.08 1.08 0 0 0 -.19 0l-.19.07h-.08a.46.46 0 0 0 -.07.07l-.16.13a1.63 1.63 0 0 0 -.11.17.17.17 0 0 0 -.06.08l-2.28 4.76a1 1 0 0 0 .49 1.33 1.06 1.06 0 0 0 .42.09 1 1 0 0 0 .91-.58l1.32-2.84a10.58 10.58 0 0 1 -4.74 12.62 1 1 0 0 0 -.37 1.36 1 1 0 0 0 1.37.37 12.57 12.57 0 0 0 5.72-14.71l2.42 1.12a1 1 0 0 0 .84-1.82z"/><path fill="#fff" d="m5 10.77a.84.84 0 0 0 0 .17.51.51 0 0 0 .09.18.41.41 0 0 0 .1.13 1.14 1.14 0 0 0 .16.15l.07.06h.09.09a.87.87 0 0 0 .32.06h.09l5.29-.48a1 1 0 0 0 .9-1.09 1 1 0 0 0 -1.08-.9l-3.06.35a10.71 10.71 0 0 1 13.34-2.23 1 1 0 0 0 1-1.74 12.71 12.71 0 0 0 -15.66 2.46l-.25-2.65a1 1 0 1 0 -2 .18l.51 5.26a.94.94 0 0 0 0 .09z"/></svg>
