<svg viewBox="0 0 32 32" xmlns="http://www.w3.org/2000/svg"><path fill="#151619" d="m27.34 24.53-5.57-1.66-1.36-1.74v-1.13c.69-.6 1.34-1.19 1.65-1.49a1.08 1.08 0 0 0 .23-.34 3 3 0 0 0 1.89-.92 2.15 2.15 0 0 0 1.29-2v-2.72a2.12 2.12 0 0 0 -.76-1.62l.15-.9a8.43 8.43 0 0 0 -.35-4.42 8.75 8.75 0 0 0 -8.44-5.59 8.81 8.81 0 0 0 -8.48 5.59 8.22 8.22 0 0 0 -.35 4.41l.14.85a2.12 2.12 0 0 0 -.83 1.67v2.76a2.15 2.15 0 0 0 2.15 2.16h.72a7.7 7.7 0 0 0 2.19 2.71v1l-1.36 1.74-5.59 1.64a6.74 6.74 0 0 0 -4.88 6.47 1 1 0 0 0 2 0 4.73 4.73 0 0 1 3.45-4.55l5.25-1.57 2.72 2.47a.82.82 0 0 0 .54.21.8.8 0 0 0 .57-.24l1.19-1.2v4.88a.5.5 0 0 0 1 0v-4.88l1.19 1.2a.8.8 0 0 0 .57.24.82.82 0 0 0 .54-.21l2.72-2.47 5.25 1.57a4.73 4.73 0 0 1 3.45 4.55 1 1 0 0 0 2 0 6.74 6.74 0 0 0 -4.88-6.47zm-11.34-1.08-2.28-1.84a4.78 4.78 0 0 0 2.28.59 4.72 4.72 0 0 0 2.28-.59zm6.93-11.14a1 1 0 0 0 .37.08.15.15 0 0 1 .15.14v2.76a.15.15 0 0 1 -.15.15h-.37zm-14.38 3v-2.78a.15.15 0 0 1 .15-.14h.37v3h-.37a.15.15 0 0 1 -.15-.1zm2.52.59v-4.76a1 1 0 0 0 -1-1 1 1 0 0 0 -.65.25h-.09l-.12-.72a6.31 6.31 0 0 1 .25-3.36 6.85 6.85 0 0 1 6.61-4.31 6.78 6.78 0 0 1 6.55 4.31 6.31 6.31 0 0 1 .27 3.22 1 1 0 0 0 -1-.78 1 1 0 0 0 -1 1v6.13a2.3 2.3 0 0 1 -.38 1.17.88.88 0 0 0 -.05.15h-3.28a1.27 1.27 0 1 0 0 1h2.24a17.74 17.74 0 0 1 -2 1.58 2.78 2.78 0 0 1 -2.94 0c-2.15-1.34-3.41-2.78-3.41-3.9zm2.64 9.77-2.11-1.94.61-.77a1.06 1.06 0 0 0 .4.08 1.09 1.09 0 0 0 .26-.05l1.94 1.55zm4.58 0-1.1-1.11 2.27-1.83h.12l.82 1z"/><path fill="#151619" d="m10.07 12.14a1 1 0 0 1 -1-1 3.17 3.17 0 0 1 1.13-2.43 3.12 3.12 0 0 1 2.54-.71 4.8 4.8 0 0 0 2.84-.41 10.57 10.57 0 0 1 4.06-1 3.22 3.22 0 0 1 2.36.89 3.14 3.14 0 0 1 1 2.27 1 1 0 0 1 -2 0 1.16 1.16 0 0 0 -.35-.83 1.19 1.19 0 0 0 -.88-.33 8.51 8.51 0 0 0 -3.28.84 6.8 6.8 0 0 1 -4 .56 1.15 1.15 0 0 0 -1.33 1.15 1 1 0 0 1 -1.09 1z"/></svg>
