<svg viewBox="0 0 32 32" xmlns="http://www.w3.org/2000/svg"><path fill="#fff" d="m31 21.36h-2.49v-5.36a1 1 0 0 0 -1-1h-10.51v-4.36h2.49a1 1 0 0 0 1-1v-5.52a1 1 0 0 0 -1-1h-7a1 1 0 0 0 -1 1v5.52a1 1 0 0 0 1 1h2.51v4.36h-10.51a1 1 0 0 0 -1 1v5.36h-2.49a1 1 0 0 0 -1 1v5.52a1 1 0 0 0 1 1h7a1 1 0 0 0 1-1v-5.52a1 1 0 0 0 -1-1h-2.51v-4.36h9.51v4.36h-2.49a1 1 0 0 0 -1 1v5.52a1 1 0 0 0 1 1h7a1 1 0 0 0 1-1v-5.52a1 1 0 0 0 -1-1h-2.51v-4.36h9.51v4.36h-2.51a1 1 0 0 0 -1 1v5.52a1 1 0 0 0 1 1h7a1 1 0 0 0 1-1v-5.52a1 1 0 0 0 -1-1zm-17.49-16.24h5v3.52h-5zm-6.51 21.76h-5v-3.52h5zm11.52 0h-5v-3.52h5zm11.51 0h-5.03v-3.52h5z"/></svg>
