<svg viewBox="0 0 32 32" xmlns="http://www.w3.org/2000/svg"><path fill="#151619" d="m32 23.68a.7.7 0 0 0 0-.14v-15.08a1 1 0 0 0 -.07-.34v-.09a1.14 1.14 0 0 0 -.15-.23s0 0 0 0a.76.76 0 0 0 -.25-.18l-15.08-7.52a1.09 1.09 0 0 0 -.9 0l-14.97 7.47a.76.76 0 0 0 -.25.18 1.14 1.14 0 0 0 -.2.25v.09a1 1 0 0 0 -.13.37v15.08a.7.7 0 0 0 0 .14 1.55 1.55 0 0 0 0 .21.86.86 0 0 0 .1.16.86.86 0 0 0 .1.16 1.09 1.09 0 0 0 .17.13.54.54 0 0 0 .12.09l15 7.47a.93.93 0 0 0 .84 0l15-7.47a.54.54 0 0 0 .12-.09 1.09 1.09 0 0 0 .17-.13 11816661806483.3 11816661806483.3 0 0 1 .2-.32 1.55 1.55 0 0 0 .18-.21zm-30-13.6 3.53 1.76v4.09a1 1 0 0 0 .56.89l4.24 2.11a1 1 0 0 0 1 0 1 1 0 0 0 .47-.85v-3.08l3.2 1.55v12.83l-13-6.46zm21.27-4.34-12.62 6.41-1.87-.94 12.61-6.41zm-13.48 8.26v2.45l-2.24-1.14v-2.47zm7.21 2.55 13-6.47v12.84l-13 6.46zm-1-1.74-3.12-1.55 12.62-6.41 3.24 1.61zm0-12.69 3.16 1.57-12.61 6.41-3.29-1.64z" /></svg>
