<svg viewBox="0 0 32 32" xmlns="http://www.w3.org/2000/svg"><path fill="#151619" d="m31.68 13.09-3.51-5.89a2.37 2.37 0 0 0 -3.17-.84l-.94.52a2.3 2.3 0 0 0 -1 1.1 16.91 16.91 0 0 0 -4.51-.83 6.32 6.32 0 0 0 -2.63.72 5.53 5.53 0 0 0 -2.65-.72 14.39 14.39 0 0 0 -4.35.79 2.26 2.26 0 0 0 -.92-1.06l-1-.52a2.37 2.37 0 0 0 -3.18.84l-3.5 5.89a2.24 2.24 0 0 0 -.24 1.75 2.26 2.26 0 0 0 1.1 1.41l.94.53a2.42 2.42 0 0 0 1.16.3 2.37 2.37 0 0 0 1-.24 6.44 6.44 0 0 1 1.51 1.68.6.6 0 0 0 .09.13c-.53.66-.9 1.61-.08 2.3a1.64 1.64 0 0 0 .59.32 2.1 2.1 0 0 0 -.39 1.41 2.4 2.4 0 0 0 .93 1.67 2.65 2.65 0 0 0 1.42.6 2.56 2.56 0 0 0 .85 1.25 2.68 2.68 0 0 0 1.68.63 2.25 2.25 0 0 0 .52-.07 2.31 2.31 0 0 0 .51.58.82.82 0 0 0 .2.12 2.6 2.6 0 0 0 1.14.26 2.57 2.57 0 0 0 .82-.14 4.11 4.11 0 0 0 1.66.37 4.44 4.44 0 0 0 1.88-.44 3 3 0 0 0 1-.72 2.9 2.9 0 0 0 1.92-.58 2.24 2.24 0 0 0 .74-1.09 2.74 2.74 0 0 0 2.16-1 2.32 2.32 0 0 0 .37-.78 2.85 2.85 0 0 0 1.47-.73 2.69 2.69 0 0 0 .84-2.06 2.2 2.2 0 0 0 -.24-1 12.21 12.21 0 0 0 1-1.59 3.56 3.56 0 0 1 .81-1.21 2.36 2.36 0 0 0 2.25 0l.94-.53a2.26 2.26 0 0 0 1.1-1.41 2.24 2.24 0 0 0 -.29-1.72zm-28.58 1.91-.94-.52a.3.3 0 0 1 -.16-.16.28.28 0 0 1 0-.21l3.55-5.89a.35.35 0 0 1 .3-.16.41.41 0 0 1 .15.04l1 .53a.28.28 0 0 1 .14.19.24.24 0 0 1 0 .2l-2 3.32-1.55 2.58a.37.37 0 0 1 -.49.08zm4.9 7.5s0-.07.07-.15l1-1.21.52-.6a.52.52 0 0 1 .7-.05.4.4 0 0 1 .06.59l-1.52 1.81c-.18.2-.51 0-.63-.09a.45.45 0 0 1 -.2-.3zm2.48 2.15a.48.48 0 0 1 -.21-.3s0-.07.07-.16l1.56-1.8a.52.52 0 0 1 .7-.05.41.41 0 0 1 .16.29.42.42 0 0 1 -.1.3l-1 1.15-.56.65c-.18.21-.51.01-.62-.08zm2.6 1 .17-.21.58-.76a.29.29 0 0 1 .39 0 .17.17 0 0 1 .08.14.26.26 0 0 1 -.08.19l-.43.54a.68.68 0 0 1 -.69.21s-.05-.14-.02-.15zm2.89.32a.08.08 0 0 0 0 0 1.29 1.29 0 0 0 .09-.16c0-.06.05-.11.07-.16a1 1 0 0 0 .21.2l.09.06a1.86 1.86 0 0 1 -.43.02zm7.93-4.76a.7.7 0 0 1 -.81.15l-.09-.13-3.19-2.38a1 1 0 0 0 -1.4.2 1 1 0 0 0 -.2.6 1 1 0 0 0 .4.8l3.22 2.41h.05a.21.21 0 0 1 0 .06 1.13 1.13 0 0 1 -.95.12l-2.38-1.66a1 1 0 0 0 -1.57.82 1 1 0 0 0 .43.82l2 1.42a.37.37 0 0 1 -.07.14 1 1 0 0 1 -.95.11c-.81-.65-1-.72-1.23-.76a1 1 0 0 0 -.88.28 2 2 0 0 0 -.24-.57l-.07-.11a2.43 2.43 0 0 0 -.43-.48 2.25 2.25 0 0 0 -.36-.24l-.18-.04-.23-.1a1.7 1.7 0 0 0 0-.22 2.38 2.38 0 0 0 -.89-1.66 2.19 2.19 0 0 0 -.37-.25l-.14-.07-.27-.11-.17-.05h-.27-.16-.06a.14.14 0 0 1 0-.06l-.09-.25c0-.09-.07-.18-.11-.27a.64.64 0 0 0 -.08-.14l-.16-.23-.09-.11a2.34 2.34 0 0 0 -.32-.31 2 2 0 0 0 -.39-.26.59.59 0 0 0 -.14-.06 1.59 1.59 0 0 0 -.27-.12h-.19l-.25-.05h-.2a1.92 1.92 0 0 0 -.24 0h-.21l-.24.05h-.19l-.25.1-.17.07a2.56 2.56 0 0 0 -.35.22l-1-1.48-.06-.08a7.59 7.59 0 0 0 -1.75-2l1.31-2.26 1.77-3a13.54 13.54 0 0 1 4.49-1 2.63 2.63 0 0 1 .41 0 11.11 11.11 0 0 0 -2 1.9 4.23 4.23 0 0 0 -.3.42 6.88 6.88 0 0 0 -.82 3.63c0 .78 0 2.23 1.28 2.75s2.53-.75 3.15-1.44 1.36-1.46 1.8-1.89l7.1 5.76.06.05a.4.4 0 0 1 .15.29.75.75 0 0 1 -.19.63zm1.1-4.11c-.18.35-.37.71-.6 1.07l-7.06-5.73a.86.86 0 0 0 -.31-.17h-.09a.93.93 0 0 0 -.23 0h-.21a.58.58 0 0 1 -.14 0 1 1 0 0 0 -.31.2s-1.14 1-2.55 2.62a5 5 0 0 1 -.9.85 5 5 0 0 1 0-.88 4.84 4.84 0 0 1 .55-2.56 1.74 1.74 0 0 1 .15-.22l.06-.07.13-.15c1-1.13 3.65-2.92 5.09-2.92a16.93 16.93 0 0 1 4.69 1l2.73 4.6.33.56a5.59 5.59 0 0 0 -1.33 1.8zm5-2.78a.3.3 0 0 1 -.15.19l-.95.49a.37.37 0 0 1 -.49-.11l-1.11-1.84-2.4-4.05a.24.24 0 0 1 0-.2.27.27 0 0 1 .1-.17l1-.53a.41.41 0 0 1 .19 0 .35.35 0 0 1 .3.16l3.51 5.85a.28.28 0 0 1 0 .21z" /></svg>
