<svg viewBox="0 0 32 32" xmlns="http://www.w3.org/2000/svg"><g fill="#151619"><path d="m29.17 7.2h-26.34a2.79 2.79 0 0 0 -2.83 2.8v9.71a2.8 2.8 0 0 0 2.83 2.75h3a3.51 3.51 0 0 0 6.66 0h8.84a3.51 3.51 0 0 0 6.66 0h1.19a2.8 2.8 0 0 0 2.82-2.8v-9.66a2.79 2.79 0 0 0 -2.83-2.8zm-20 15.6a1.39 1.39 0 1 1 0-2.78 1.39 1.39 0 1 1 0 2.78zm8-2.39v-7.51a.32.32 0 0 1 .32-.33h2a.32.32 0 0 1 .32.33v7.51zm7.52 2.39a1.45 1.45 0 0 1 -1.5-1.39 1.5 1.5 0 0 1 3 0 1.46 1.46 0 0 1 -1.54 1.39zm4.52-2.39h-1.21a3.53 3.53 0 0 0 -6.2-.93v-6.58a2.33 2.33 0 0 0 -2.32-2.33h-2a2.33 2.33 0 0 0 -2.32 2.33v7.51h-2.68a3.51 3.51 0 0 0 -6.66 0h-3a.79.79 0 0 1 -.82-.75v-9.66a.79.79 0 0 1 .83-.75h26.34a.79.79 0 0 1 .83.75v.62h-3.89a2.27 2.27 0 0 0 -2.26 2.27v1.27a2.26 2.26 0 0 0 2.26 2.26h3.89v3.29a.79.79 0 0 1 -.83.7zm.83-6h-3.93a.26.26 0 0 1 -.26-.26v-1.31a.27.27 0 0 1 .26-.27h3.89z"/><path d="m11.48 10.57h-6.12a2.53 2.53 0 0 0 -2.53 2.53v.74a2.53 2.53 0 0 0 2.53 2.53h6.12a2.53 2.53 0 0 0 2.52-2.53v-.74a2.54 2.54 0 0 0 -2.52-2.53zm.52 3.27a.53.53 0 0 1 -.53.53h-6.11a.53.53 0 0 1 -.53-.53v-.74a.53.53 0 0 1 .53-.53h6.12a.53.53 0 0 1 .53.53z"/></g></svg>
