<svg viewBox="0 0 32 32" xmlns="http://www.w3.org/2000/svg"><path fill="#151619" d="m31.87 14a1 1 0 0 0 -.47-.4l-3.4-1.9 3.08-1.76a1 1 0 0 0 .48-.76 1 1 0 0 0 0-.28 1 1 0 0 0 -.48-.76l-9.61-5.47a1 1 0 0 0 -1.21-.2l-4.26 2.41-4.39-2.52s-.06 0-.08 0a1 1 0 0 0 -1 0l-9.92 5.64a.87.87 0 0 0 -.15.13.64.64 0 0 0 -.13.15s0 .07 0 .11a.7.7 0 0 0 -.06.19.65.65 0 0 0 0 .19.58.58 0 0 0 0 .19.6.6 0 0 0 .06.19s0 .08 0 .12v.07l.06.07a1 1 0 0 0 .26.23l3.45 2-3.56 2a1 1 0 0 0 -.37.4.87.87 0 0 0 -.1.31.78.78 0 0 0 0 .16 1 1 0 0 0 0 .16.76.76 0 0 0 .1.3 1 1 0 0 0 .37.4l4.54 2.73v5a.53.53 0 0 0 0 .12.45.45 0 0 0 0 .2.89.89 0 0 0 .08.17.57.57 0 0 0 .11.16.64.64 0 0 0 .15.13.43.43 0 0 0 .1.09l10 5.66s0 0 .07 0h.08a.86.86 0 0 0 .68 0h.08.08l10-5.66.09-.09.16-.13a.86.86 0 0 0 .1-.16.89.89 0 0 0 .08-.17.65.65 0 0 0 .05-.2s0-.08 0-.12v-5.1l4.51-2.6a1 1 0 0 0 .37-1.4zm-2.87.54-8 4.52-3-1.7 8-4.51zm-18 4.58-8-4.51 3.09-1.76 7.91 4.51zm9.69-14.59 7.93 4.47-2.62 1.54-7.95-4.54zm-.36 9.23-4.33 2.45-7.9-4.52 7.9-4.51 8 4.51zm-9.57-5.88-4.68 2.66-2.95-1.68 7.93-4.51 2.94 1.65zm-.34 13.26a1 1 0 0 0 .5.13 1 1 0 0 0 .49-.13l3.59-2.06v8l-7.92-4.52v-3.32zm14.58 1.42-8 4.52v-8l3.48 2a1 1 0 0 0 .49.13h.05a1 1 0 0 0 .49-.13l3.49-1.97z" /></svg>
