<svg id="icon-arrows-cross" data-name="arrows-cross" xmlns="http://www.w3.org/2000/svg" viewBox="0 0 32 32"><path d="M1,9.63H6.59a7.68,7.68,0,0,1,4.93,2.23,1,1,0,0,0,.7.29,1,1,0,0,0,.71-.3,1,1,0,0,0,0-1.41A9.73,9.73,0,0,0,6.59,7.63H1a1,1,0,0,0,0,2Z"/><path d="M31.92,23a1,1,0,0,0-.21-.32h0l-4.84-4.8a1,1,0,0,0-1.41,1.42l3.12,3.09H24.1a7.51,7.51,0,0,1-5.75-3.26L16.51,16l1.84-3.11A7.51,7.51,0,0,1,24.1,9.63h4.47l-3.12,3.08a1,1,0,0,0,0,1.42,1,1,0,0,0,.71.29,1,1,0,0,0,.7-.28l4.84-4.8h0A1,1,0,0,0,31.92,9a1,1,0,0,0,0-.78.87.87,0,0,0-.22-.32h0L26.86,3.13a1,1,0,1,0-1.4,1.42l3.11,3.08H24.1a9.47,9.47,0,0,0-7.47,4.24l-4.29,7.24a7.51,7.51,0,0,1-5.75,3.26H1a1,1,0,0,0,0,2H6.59a9.47,9.47,0,0,0,7.47-4.24L15.34,18l1.29,2.17a9.47,9.47,0,0,0,7.47,4.24h4.47l-3.12,3.08a1,1,0,0,0,.71,1.71,1,1,0,0,0,.7-.29l4.84-4.79h0a1,1,0,0,0,.21-.33,1,1,0,0,0,.08-.38A1,1,0,0,0,31.92,23Z"/></svg>
