<svg viewBox="0 0 32 32" xmlns="http://www.w3.org/2000/svg"><g fill="#151619"><path d="m24.6 7.5h-.4c-2.8-4.7-8.9-6.3-13.7-3.5-2 1.2-3.6 3.1-4.3 5.4-3.6.1-6.3 3.1-6.2 6.7s3.1 6.3 6.7 6.2h1.6c.6 0 1-.4 1-1s-.4-1-1-1h-1.6c-2.5.1-4.5-1.8-4.6-4.3s1.8-4.5 4.3-4.6h.4.1c.5 0 .9-.3 1-.7 1.1-4.3 5.5-6.8 9.8-5.7 2.2.6 4 2.1 5.1 4.1.2.4.7.6 1.1.5.3 0 .5-.1.8-.1 3 0 5.5 2.4 5.5 5.4 0 3-2.5 5.4-5.5 5.4h-1.1c-.6 0-1 .4-1 1s.4 1 1 1h1.1c4.1 0 7.4-3.3 7.4-7.4s-3.4-7.4-7.5-7.4z"/><path d="m19.5 23.4-2.5 2.6v-8.2c0-.6-.4-1-1-1s-1 .4-1 1v8.2l-2.5-2.5c-.4-.4-1-.4-1.4 0-.4.4-.4 1 0 1.4l4.3 4.1s.1.1.1.1c.1 0 .1.1.2.1.1.1.2.1.4.1.1 0 .2 0 .4-.1.1 0 .2-.1.2-.1s.1 0 .1-.1l4.3-4.1c.4-.4.4-1 0-1.4-.5-.4-1.1-.5-1.6-.1z"/></g></svg>
