<svg viewBox="0 0 32 32" xmlns="http://www.w3.org/2000/svg"><g fill="#151619"><path d="m26.93 20.52c-3.64-3-5.27-1.83-7 0l-.23.25s-1 .23-4.81-3.58-3.54-4.85-3.55-4.85l.26-.26c1.77-1.76 2.89-3.4 0-7.07a4.61 4.61 0 0 0 -3.35-2.11c-1.68-.08-2.88 1.21-3.85 2.25l-.4.46c-2.39 2.39-.41 9.39 6.27 16.17 5.35 5.4 10.49 7.32 13.26 7.32a3.81 3.81 0 0 0 2.77-1l.46-.44c1-1 2.29-2.2 2.22-3.88a4.63 4.63 0 0 0 -2.05-3.26zm-1.56 5.74-.49.48a2 2 0 0 1 -1.35.36c-2.53 0-7.24-2.1-11.84-6.73-6.45-6.51-7.35-12.31-6.31-13.37l.48-.5c.72-.78 1.53-1.65 2.3-1.62s1.35.75 1.84 1.34c2 2.56 1.53 3.06.19 4.4l-.27.27c-1.79 1.81.95 5 3.55 7.67 3.7 3.74 5.3 4.17 6.19 4.17a2 2 0 0 0 1.43-.58l.27-.27c1.32-1.35 1.81-1.86 4.33.19.58.47 1.28 1.17 1.31 1.84s-.86 1.61-1.63 2.35z"/><path d="m23.3 14.33a1 1 0 0 0 .38.08 1 1 0 0 0 .92-.63 5 5 0 0 0 -1.07-5.37 4.93 4.93 0 0 0 -5.53-1.01 1 1 0 0 0 .83 1.82 2.91 2.91 0 0 1 3.26.6 3 3 0 0 1 .66 3.18 1 1 0 0 0 .55 1.33z"/><path d="m17.19 5.52a6.9 6.9 0 0 1 7.75 1.48 7.07 7.07 0 0 1 1.53 7.61 1 1 0 0 0 .56 1.3.94.94 0 0 0 .37.07 1 1 0 0 0 .93-.62 9.08 9.08 0 0 0 -2-9.77 8.93 8.93 0 0 0 -10-1.84 1 1 0 1 0 .83 1.82z"/></g></svg>
