<svg viewBox="0 0 32 32" xmlns="http://www.w3.org/2000/svg"><g fill="#151619"><path d="m26.61 4.29h-1.21a13.91 13.91 0 0 1 -7.79-2.39l-1.09-.74a.92.92 0 0 0 -1 0l-1.08.74a13.91 13.91 0 0 1 -7.84 2.39h-1.21a.94.94 0 0 0 -.94.94v15.62a4.76 4.76 0 0 0 2.08 3.94l8.94 6.05a1 1 0 0 0 1.06 0l8.94-6.05a4.76 4.76 0 0 0 2.08-3.94v-15.62a.94.94 0 0 0 -.94-.94zm-.94 16.56a2.9 2.9 0 0 1 -1.25 2.39l-8.42 5.69-8.42-5.69a2.9 2.9 0 0 1 -1.25-2.39v-14.68h.27a15.7 15.7 0 0 0 8.84-2.72l.56-.38.56.38a15.7 15.7 0 0 0 8.84 2.72h.27z"/><path d="m17.87 10.3h-3.74v3.8h-3.75v3.8h3.75v3.8h3.74v-3.8h3.75v-3.8h-3.75z"/></g></svg>
