<svg viewBox="0 0 32 32" xmlns="http://www.w3.org/2000/svg"><path fill="#151619" d="m32 16a16 16 0 0 0 -32 0 15.69 15.69 0 0 0 5.66 12.05l.06.07.08.06.26.19a10.16 10.16 0 0 0 .94.63c.15.11.32.2.48.31l.74.45.63.32c.22.11.44.22.67.31s.47.2.71.3l.65.23c.24.09.49.16.75.24l.69.17c.24.06.49.12.73.16s.57.09.85.13l.62.08a14.29 14.29 0 0 0 3 0l.62-.08c.28 0 .56-.07.84-.13s.5-.1.74-.16l.69-.17.76-.24.64-.23.72-.3c.22-.09.44-.2.65-.31s.43-.21.64-.33.49-.29.73-.44.34-.2.5-.31.59-.43.88-.65l.28-.22.08-.05v-.06a15.73 15.73 0 0 0 5.71-12.02zm-30 0a14 14 0 0 1 28 0 13.69 13.69 0 0 1 -4.57 10.18l-.71-.27a8.78 8.78 0 0 1 -3.54-1.91c4.28-1.33 4.83-4.17 4.85-4.3a1 1 0 0 0 -.44-1s-2.06-1.37-2.06-4.93c0-2.68 0-8.95-7.53-8.95s-7.53 6.27-7.53 9c0 3.5-2 4.88-2.06 4.93a1 1 0 0 0 -.44 1c0 .13.57 3 4.85 4.3a8.78 8.78 0 0 1 -3.54 1.92l-.72.27a13.72 13.72 0 0 1 -4.56-10.24zm20.71 12.12-.29.15-.77.37-.48.19-.68.25c-.16.05-.31.11-.47.15-.36.11-.72.2-1.09.28l-.4.07c-.29.05-.58.1-.87.13l-.4.05c-.42 0-.84.06-1.26.06s-.84 0-1.26-.06l-.4-.05c-.29 0-.58-.08-.87-.13l-.4-.07c-.37-.08-.73-.17-1.09-.28-.16 0-.31-.1-.47-.15l-.68-.25-.47-.19-.79-.38-.28-.14c-.29-.15-.57-.33-.85-.51 2.54-1 4.23-2 4.82-4a1 1 0 0 0 -.11-.8 1 1 0 0 0 -.65-.47c-2.89-.59-4-1.84-4.36-2.52a8.24 8.24 0 0 0 2.33-6.08c0-4.4.9-6.95 5.53-6.95s5.53 2.55 5.53 7a8.24 8.24 0 0 0 2.33 6.08c-.39.68-1.47 1.94-4.36 2.52a1 1 0 0 0 -.65.47 1 1 0 0 0 -.11.8c.59 2 2.28 3 4.82 4-.28.13-.56.34-.85.46z" /></svg>
