<svg id="icon-health-clipboard" data-name="health-clipboard" xmlns="http://www.w3.org/2000/svg" viewBox="0 0 32 32"><path d="M24.67,3H23V2.83a1,1,0,0,0-1-1H18.62a2.79,2.79,0,0,0-5.24,0H10a1,1,0,0,0-1,1V3H7.33a3,3,0,0,0-3,3V29a3,3,0,0,0,3,3H24.67a3,3,0,0,0,3-3V6A3,3,0,0,0,24.67,3ZM11,3.83H14.2a1,1,0,0,0,1-1,.8.8,0,1,1,1.6,0,1,1,0,0,0,1,1H21V6.19H11ZM25.67,29a1,1,0,0,1-1,1H7.33a1,1,0,0,1-1-1V6a1,1,0,0,1,1-1H9V7.19a1,1,0,0,0,1,1H22a1,1,0,0,0,1-1V5h1.69a1,1,0,0,1,1,1Z"/><path d="M23.22,17.36H20.7l-1.94-4.2a1,1,0,0,0-1-.58,1,1,0,0,0-.9.67l-2.46,7.08-1-2.37a1,1,0,0,0-.92-.6H8.78a1,1,0,0,0,0,2h3.06l1.8,4.11a1,1,0,0,0,.92.6h0a1,1,0,0,0,.9-.67L18,16.25l1.16,2.53a1,1,0,0,0,.91.58h3.16a1,1,0,0,0,0-2Z"/></svg>
