<svg viewBox="0 0 32 32" xmlns="http://www.w3.org/2000/svg"><g fill="#151619"><path d="m28.3 7.59a3.13 3.13 0 0 0 -3.13-3.13h-18.34a3.13 3.13 0 0 0 -3.13 3.13v2.68a3.13 3.13 0 0 0 .9 2.19 3.18 3.18 0 0 0 -.9 2.2v2.68a3.18 3.18 0 0 0 .9 2.2 3.13 3.13 0 0 0 -.9 2.19v2.68a3.13 3.13 0 0 0 3.13 3.13h18.34a3.13 3.13 0 0 0 3.13-3.13v-2.68a3.09 3.09 0 0 0 -.9-2.19 3.13 3.13 0 0 0 .9-2.2v-2.68a3.13 3.13 0 0 0 -.9-2.2 3.09 3.09 0 0 0 .9-2.19zm-22.73 0a1.27 1.27 0 0 1 1.26-1.26h18.34a1.26 1.26 0 0 1 1.25 1.26v2.68a1.26 1.26 0 0 1 -1.25 1.26h-18.34a1.27 1.27 0 0 1 -1.26-1.26zm20.85 7.07v2.68a1.26 1.26 0 0 1 -1.25 1.26h-18.34a1.27 1.27 0 0 1 -1.26-1.26v-2.68a1.27 1.27 0 0 1 1.26-1.26h18.34a1.26 1.26 0 0 1 1.25 1.26zm0 9.75a1.26 1.26 0 0 1 -1.25 1.26h-18.34a1.27 1.27 0 0 1 -1.26-1.26v-2.68a1.27 1.27 0 0 1 1.26-1.26h18.34a1.26 1.26 0 0 1 1.25 1.26z"/><path d="m10.71 21.74a1.4 1.4 0 1 0 1.41 1.4 1.4 1.4 0 0 0 -1.41-1.4z"/><path d="m10.71 17.4a1.4 1.4 0 1 0 -1.4-1.4 1.41 1.41 0 0 0 1.4 1.4z"/><path d="m10.71 10.33a1.4 1.4 0 1 0 -1.4-1.4 1.41 1.41 0 0 0 1.4 1.4z"/></g></svg>
