<svg id="icon-hand-receive" data-name="hand-receive" xmlns="http://www.w3.org/2000/svg" viewBox="0 0 32 32"><path d="M9.8,21.81,9,18.58a2.32,2.32,0,0,0-2.47-1.73L7,14.7A2.4,2.4,0,0,0,2.4,13.33L.48,19.86a1.05,1.05,0,0,0,0,.5l1.82,8.2V31a1,1,0,0,0,2,0V28.45a1.64,1.64,0,0,0,0-.22L2.47,20.17,4.29,14a.38.38,0,0,1,.49-.24.42.42,0,0,1,.26.51L4.17,18a1,1,0,0,0,0,.45l1,4.43h0a1,1,0,0,0,1.2.75,1,1,0,0,0,.75-1.19l-.7-3.14a.33.33,0,0,1,.24-.41.31.31,0,0,1,.37.24l.83,3.19a5.7,5.7,0,0,0,.4,1A4.83,4.83,0,0,1,8.37,28a1,1,0,0,0-.1.45V31a1,1,0,0,0,1,1,1,1,0,0,0,1-1V28.68a6.78,6.78,0,0,0-.21-6.23A3.58,3.58,0,0,1,9.8,21.81Z"/><path d="M31.52,19.86l-1.94-6.61a2.38,2.38,0,0,0-3-1.41A2.41,2.41,0,0,0,25,14.7l.51,2.15a2.32,2.32,0,0,0-2.47,1.73l-.86,3.26a3.41,3.41,0,0,1-.25.61,6.78,6.78,0,0,0-.21,6.23V31a1,1,0,0,0,1,1h0a1,1,0,0,0,1-1V28.45a1,1,0,0,0-.1-.45,4.83,4.83,0,0,1,.12-4.71,5.76,5.76,0,0,0,.39-1L25,19.09a.3.3,0,0,1,.36-.24.33.33,0,0,1,.24.41l-.7,3.14a1,1,0,0,0,.75,1.19,1,1,0,0,0,1.2-.75l1-4.44a1,1,0,0,0,0-.45L27,14.24a.42.42,0,0,1,.26-.51.37.37,0,0,1,.46.16l1.85,6.29-1.79,8.05a1.64,1.64,0,0,0,0,.22V31a1,1,0,0,0,2,0V28.56l1.82-8.2A1.05,1.05,0,0,0,31.52,19.86Z"/><path d="M13.72,11.19H12.33V9.75a1,1,0,0,0-2,0v1.44H8.94a1,1,0,1,0,0,2h1.39v1.43a1,1,0,0,0,2,0V13.19h1.39a1,1,0,0,0,0-2Z"/><path d="M17.71,5.88V4.44h1.4a1,1,0,0,0,0-2h-1.4V1a1,1,0,0,0-2,0V2.44H14.32a1,1,0,1,0,0,2h1.39V5.88a1,1,0,0,0,2,0Z"/><path d="M21.6,12.71V11.27H23a1,1,0,0,0,0-2H21.6V7.83a1,1,0,1,0-2,0V9.27H18.21a1,1,0,0,0,0,2H19.6v1.44a1,1,0,0,0,2,0Z"/></svg>
