<svg viewBox="0 0 32 32" xmlns="http://www.w3.org/2000/svg"><path fill="#151619" d="m26 13.1a6.1 6.1 0 0 0 -2.23.43l-1.61-2.62.7-1.25h.42a1 1 0 0 0 0-2h-4a1 1 0 0 0 0 2h1.3l-.1.19h-9.48l.35-.85h2.2a1 1 0 0 0 0-2h-2.86a1 1 0 0 0 -.93.61l-2.36 5.65a5.94 5.94 0 0 0 -1.35-.16 6 6 0 1 0 0 11.9 6 6 0 0 0 6.06-5.95 5.93 5.93 0 0 0 -2.86-5l.53-1.27 5.8 6.9v2.3a1 1 0 0 0 1 1h1.14a1 1 0 0 0 0-2h-.14v-.89h2.42a6 6 0 1 0 6-7zm-15.84 6a4 4 0 0 1 -4.11 3.9 4 4 0 1 1 0-7.9 3.31 3.31 0 0 1 .55.06l-1.47 3.51a1 1 0 0 0 .54 1.33.84.84 0 0 0 .38.08 1 1 0 0 0 .95-.64l1.48-3.55a3.92 3.92 0 0 1 1.63 3.16zm14.05-1h-2.21a3.91 3.91 0 0 1 1-1.77zm-4.87-6.2-3.11 5.4-4.59-5.45zm1.66 1 1 1.65a5.94 5.94 0 0 0 -2 3.5h-1.9zm5 10.1a4 4 0 0 1 -4-2.95h4a1 1 0 0 0 .85-1.52l-2-3.25a4.39 4.39 0 0 1 1.15-.18 4 4 0 1 1 0 7.9z" /></svg>
