<svg viewBox="0 0 32 32" xmlns="http://www.w3.org/2000/svg"><g fill="#151619"><path d="m29.77 8h-4.31l3.37-3.64a1 1 0 0 0 -1.47-1.36l-4.62 5h-13.48l-4.62-5a1 1 0 0 0 -1.47 1.32l3.37 3.68h-4.31a2.23 2.23 0 0 0 -2.23 2.19v2.81a2.23 2.23 0 0 0 2.23 2.22h.36l1.2 12a2.32 2.32 0 0 0 2.32 2.09h19.78a2.32 2.32 0 0 0 2.32-2.09l1.2-12h.36a2.23 2.23 0 0 0 2.23-2.22v-2.81a2.23 2.23 0 0 0 -2.23-2.19zm-3.55 19.07a.33.33 0 0 1 -.33.29h-19.78a.33.33 0 0 1 -.33-.29l-1.18-11.84h22.8zm3.78-14.07a.22.22 0 0 1 -.23.22h-27.54a.22.22 0 0 1 -.23-.22v-2.81a.23.23 0 0 1 .23-.19h27.54a.23.23 0 0 1 .23.23z"/><path d="m9.21 25.55a1 1 0 0 0 1-1v-6.76a1 1 0 0 0 -2 0v6.76a1 1 0 0 0 1 1z"/><path d="m13.74 25.55a1 1 0 0 0 1-1v-6.76a1 1 0 0 0 -2 0v6.76a1 1 0 0 0 1 1z"/><path d="m18.26 25.55a1 1 0 0 0 1-1v-6.76a1 1 0 0 0 -2 0v6.76a1 1 0 0 0 1 1z"/><path d="m22.79 25.55a1 1 0 0 0 1-1v-6.76a1 1 0 0 0 -2 0v6.76a1 1 0 0 0 1 1z"/></g></svg>
