<svg viewBox="0 0 32 32" xmlns="http://www.w3.org/2000/svg"><path fill="#151619" d="m31 6.63h-30a1 1 0 0 0 -1 1v16.74a1 1 0 0 0 1 1h30a1 1 0 0 0 1-1v-16.74a1 1 0 0 0 -1-1zm-4.41 16.74h-21.18a4.48 4.48 0 0 0 -3.41-3.32v-8.05a4.48 4.48 0 0 0 3.41-3.37h21.18a4.48 4.48 0 0 0 3.41 3.37v8.1a4.48 4.48 0 0 0 -3.41 3.27zm3.41-13.5a2.52 2.52 0 0 1 -1.31-1.24h1.31zm-26.69-1.24a2.52 2.52 0 0 1 -1.31 1.24v-1.24zm-1.31 13.5a2.52 2.52 0 0 1 1.31 1.24h-1.31zm26.69 1.24a2.52 2.52 0 0 1 1.31-1.24v1.24z"/><path fill="#151619" d="m16.74 15.44v-2.71a3.54 3.54 0 0 1 1.44.58.7.7 0 1 0 .88-1.09 5 5 0 0 0 -2.32-.91v-.31a.7.7 0 1 0 -1.4 0v.36a2.65 2.65 0 0 0 -2.45 2.64c0 1.42 1.41 2.11 2.45 2.49v2.51a6 6 0 0 1 -1.68-.79.7.7 0 1 0 -.85 1.11 7 7 0 0 0 2.53 1.12v.62a.7.7 0 0 0 1.4 0v-.56c1.27-.18 2.72-1 2.72-2.49 0-1.68-1.66-2.24-2.72-2.57zm-2.45-1.44a1.23 1.23 0 0 1 1.05-1.22v2.19c-.54-.28-1.05-.61-1.05-.97zm2.45 5.15v-2.2c.89.32 1.32.6 1.32 1.13s-.66.92-1.32 1.03z"/></svg>
