<svg id="icon-data-1" data-name="data-1" xmlns="http://www.w3.org/2000/svg" viewBox="0 0 32 32"><path d="M29.12,6.76A3.08,3.08,0,0,0,26,3.69H6A3.08,3.08,0,0,0,2.88,6.76v3.4a3.07,3.07,0,0,0,.82,2.07,3.07,3.07,0,0,0-.82,2.07v3.4a3.07,3.07,0,0,0,.82,2.07,3.07,3.07,0,0,0-.82,2.07v3.4A3.08,3.08,0,0,0,6,28.31H26a3.08,3.08,0,0,0,3.08-3.07v-3.4a3.07,3.07,0,0,0-.82-2.07,3.07,3.07,0,0,0,.82-2.07V14.3a3.07,3.07,0,0,0-.82-2.07,3.07,3.07,0,0,0,.82-2.07Zm-24.24,0A1.07,1.07,0,0,1,6,5.69H26a1.07,1.07,0,0,1,1.08,1.07v3.4A1.07,1.07,0,0,1,26,11.23H6a1.07,1.07,0,0,1-1.08-1.07ZM27.12,14.3v3.4A1.07,1.07,0,0,1,26,18.77H6A1.07,1.07,0,0,1,4.88,17.7V14.3A1.07,1.07,0,0,1,6,13.23H26A1.07,1.07,0,0,1,27.12,14.3Zm0,10.94A1.07,1.07,0,0,1,26,26.31H6a1.07,1.07,0,0,1-1.08-1.07v-3.4A1.07,1.07,0,0,1,6,20.77H26a1.07,1.07,0,0,1,1.08,1.07Z"/><path d="M7.8,22.12a1.5,1.5,0,1,0,1.5,1.49A1.5,1.5,0,0,0,7.8,22.12Zm0,2a.51.51,0,0,1-.5-.51.5.5,0,0,1,.5-.5.5.5,0,0,1,.5.5A.5.5,0,0,1,7.8,24.12Z"/><path d="M12.36,22.12a1.5,1.5,0,1,0,1.5,1.49A1.5,1.5,0,0,0,12.36,22.12Zm0,2a.51.51,0,0,1-.5-.51.5.5,0,0,1,.5-.5.5.5,0,0,1,.5.5A.5.5,0,0,1,12.36,24.12Z"/><path d="M7.8,17.5A1.5,1.5,0,1,0,6.3,16,1.5,1.5,0,0,0,7.8,17.5Zm0-2a.5.5,0,0,1,0,1,.5.5,0,0,1,0-1Z"/><path d="M12.36,17.5a1.5,1.5,0,1,0-1.5-1.5A1.5,1.5,0,0,0,12.36,17.5Zm0-2a.5.5,0,0,1,0,1,.5.5,0,0,1,0-1Z"/><path d="M7.8,10a1.5,1.5,0,1,0,0-3,1.5,1.5,0,1,0,0,3Zm0-2a.5.5,0,0,1,.5.51.5.5,0,0,1-.5.5.5.5,0,0,1-.5-.5A.51.51,0,0,1,7.8,8Z"/><path d="M12.36,10a1.5,1.5,0,1,0,0-3,1.5,1.5,0,1,0,0,3Zm0-2a.5.5,0,0,1,.5.51.5.5,0,0,1-.5.5.5.5,0,0,1-.5-.5A.51.51,0,0,1,12.36,8Z"/></svg>
