<svg viewBox="0 0 32 32" xmlns="http://www.w3.org/2000/svg"><path fill="#151619" d="m29.44 32h-26.88a1 1 0 0 1 -1-1v-3.43c0-2 1.74-3.61 5.32-4.93 3.88-1.42 4.29-2.43 4.29-4.4a1.12 1.12 0 0 0 -.28-.83 6.64 6.64 0 0 1 -1.13-2.93c-.83-.4-1.37-1-1.51-2.9a2.94 2.94 0 0 1 .5-1.79c-.05-.31-.12-.74-.18-1.19-.27-1.63-1-6 3.52-7.84 3.12-1.29 5.8-.76 6.91.24a4.55 4.55 0 0 1 3.2 1.5c1.62 1.89 1.25 5.82 1.05 7.27a2.85 2.85 0 0 1 .52 1.73c-.15 1.94-.69 2.57-1.52 3a6.53 6.53 0 0 1 -1.13 2.93 1.13 1.13 0 0 0 -.28.84c0 2 .41 3 4.29 4.4 3.58 1.32 5.32 2.93 5.32 4.93v3.4a1 1 0 0 1 -1.01 1zm-25.88-2h24.88v-2.43c0-1.37-2.51-2.5-4-3.05-4.24-1.55-5.6-3.08-5.6-6.28a3 3 0 0 1 .63-2 4.79 4.79 0 0 0 .82-2.19 1.82 1.82 0 0 1 1.1-1.42c.13-.06.31-.15.39-1.25a.73.73 0 0 0 -.11-.44 1 1 0 0 1 -.46-1c.27-1.48.51-4.94-.52-6.14a2.66 2.66 0 0 0 -2-.82.86.86 0 0 1 -.28 0 1.2 1.2 0 0 1 -.71-.49c-.24-.25-2.13-1-4.84.15-2.5 1-2.73 3-2.29 5.68.12.9.26 1.66.26 1.67a1 1 0 0 1 -.46 1 .88.88 0 0 0 -.11.52c.08 1 .26 1.11.39 1.17a1.82 1.82 0 0 1 1.1 1.42 4.79 4.79 0 0 0 .82 2.19 3 3 0 0 1 .63 2c0 3.2-1.36 4.73-5.6 6.28-1.5.55-4 1.68-4 3.05z" /></svg>
