<svg viewBox="0 0 32 32" xmlns="http://www.w3.org/2000/svg"><path fill="#151619" d="m24.5 7.5h-.44a10 10 0 0 0 -18.06 1.87 6.44 6.44 0 0 0 .53 12.87h1.57a1 1 0 0 0 0-2h-1.54a4.45 4.45 0 1 1 .05-8.89h.14a1 1 0 0 0 1-.75 8 8 0 0 1 14.86-1.6 1 1 0 0 0 1.11.53 5.12 5.12 0 0 1 .78-.06 5.44 5.44 0 0 1 5.5 5.4 5.44 5.44 0 0 1 -5.5 5.37h-1.11a1 1 0 0 0 0 2h1.11a7.37 7.37 0 1 0 0-14.74z"/><path fill="#151619" d="m19.54 23.45-2.54 2.55v-8.17a1 1 0 0 0 -2 0v8.17l-2.54-2.5a1 1 0 0 0 -1.42 0 1 1 0 0 0 0 1.41l4.26 4.09a1 1 0 0 0 .13.09 1.22 1.22 0 0 0 .19.12 1 1 0 0 0 .38.08.92.92 0 0 0 .36-.07.7.7 0 0 0 .23-.15.47.47 0 0 0 .11-.07l4.3-4.12a1 1 0 0 0 0-1.41 1 1 0 0 0 -1.46-.02z"/></svg>
