<svg viewBox="0 0 32 32" xmlns="http://www.w3.org/2000/svg"><g fill="#151619"><path d="m26.41 9.13h-3.57v-6.7a2.21 2.21 0 0 0 -2.21-2.21h-13.26a2.21 2.21 0 0 0 -2.21 2.21v27.57a2.21 2.21 0 0 0 2.21 2.21h13.26a2.21 2.21 0 0 0 2.21-2.21v-6.75h3.57a1.85 1.85 0 0 0 1.84-1.84v-10.41a1.85 1.85 0 0 0 -1.84-1.87zm-5.57 20.87a.21.21 0 0 1 -.21.21h-13.26a.21.21 0 0 1 -.21-.21v-27.57a.22.22 0 0 1 .21-.21h13.26a.21.21 0 0 1 .21.21v6.7h-8.76a1.84 1.84 0 0 0 -1.83 1.87v10.41a1.84 1.84 0 0 0 1.83 1.84h1.92v2.33a.82.82 0 0 0 .46.74.72.72 0 0 0 .35.08.78.78 0 0 0 .51-.18l3.72-3h1.8zm5.78-8.6a.22.22 0 0 1 -.21.21h-7.65a.82.82 0 0 0 -.51.17l-2.62 2.1v-1.45a.81.81 0 0 0 -.82-.81h-2.73a.21.21 0 0 1 -.2-.21v-10.41a.2.2 0 0 1 .2-.2h14.33a.21.21 0 0 1 .21.2z"/><path d="m14 6.17a1.35 1.35 0 1 0 -1.35-1.35 1.34 1.34 0 0 0 1.35 1.35z"/></g></svg>
