<svg viewBox="0 0 32 32" xmlns="http://www.w3.org/2000/svg"><path fill="#151619" d="m32 16a16 16 0 0 0 -32 0 15.74 15.74 0 0 0 6.69 12.84v.05a.41.41 0 0 1 .11.07l.63.4c.18.12.37.23.56.34s.42.24.63.34.46.23.69.33a5.62 5.62 0 0 0 .56.25c.41.17.83.33 1.26.46l.37.1c.34.1.68.19 1 .27l.49.09c.33.06.67.11 1 .15l.45.06c.49 0 1 .07 1.47.07s1 0 1.47-.07l.45-.06c.34 0 .68-.09 1-.15l.49-.09c.35-.08.69-.17 1-.27l.37-.1c.43-.13.85-.29 1.26-.46.19-.07.38-.16.57-.25l.68-.32.8-.35.54-.33c.22-.13.44-.27.65-.42l.09-.06h.05a15.76 15.76 0 0 0 6.67-12.89zm-19.49 4.89a4.59 4.59 0 0 1 -.83-2.15 1.78 1.78 0 0 0 -1.1-1.41c-.14-.07-.32-.15-.4-1.15a.82.82 0 0 1 .11-.5 1 1 0 0 0 .47-1s-.14-.76-.27-1.64c-.44-2.64-.21-4.6 2.31-5.6 2.74-1.1 4.65-.4 4.89-.16a1 1 0 0 0 .6.46h.13a.69.69 0 0 0 .25 0 2.79 2.79 0 0 1 2.06.82c1 1.19.79 4.59.51 6.06a1 1 0 0 0 .47 1 .67.67 0 0 1 .11.42c-.08 1.08-.26 1.16-.4 1.23a1.78 1.78 0 0 0 -1.1 1.41 4.69 4.69 0 0 1 -.83 2.16 3 3 0 0 0 -.63 2c0 2.62.92 4.09 3.62 5.39h-.09q-.66.33-1.35.6l-.23.08a12.43 12.43 0 0 1 -1.47.44 14.5 14.5 0 0 1 -6.65 0c-.49-.12-1-.27-1.46-.44l-.23-.03q-.69-.27-1.35-.6h-.09c2.7-1.3 3.62-2.77 3.62-5.39a3 3 0 0 0 -.67-2zm12 6.05c-3.3-1.28-3.66-2.26-3.66-4.09a1.06 1.06 0 0 1 .28-.82 6.56 6.56 0 0 0 1.14-2.89c.84-.39 1.39-1 1.54-2.95a2.84 2.84 0 0 0 -.52-1.72c.2-1.44.56-5.32-1.06-7.19a4.67 4.67 0 0 0 -3.23-1.51c-1.12-.95-3.82-1.49-7-.23-4.47 1.81-3.75 6.15-3.49 7.76.07.45.13.86.19 1.17a2.92 2.92 0 0 0 -.51 1.78c.14 1.86.69 2.48 1.53 2.88a6.56 6.56 0 0 0 1.14 2.87 1.06 1.06 0 0 1 .28.82c0 1.83-.36 2.81-3.66 4.09a13.75 13.75 0 0 1 -5.48-10.91 14 14 0 0 1 28 0 13.75 13.75 0 0 1 -5.48 10.94z" /></svg>
