<svg viewBox="0 0 32 32" xmlns="http://www.w3.org/2000/svg"><g fill="#151619"><path d="m31.57 14.74a2.24 2.24 0 0 0 -1.57-.87l-5.6-.65-5.1-4.09a3.43 3.43 0 0 0 -2.16-.76h-8.28a2.66 2.66 0 0 0 -2.22 1.17l-2.28 3.46-2.66.77a2.31 2.31 0 0 0 -1.7 2.53l.42 2.58a3 3 0 0 0 3 2.45h2.91a3.41 3.41 0 0 0 6.45 0h8.46a3.41 3.41 0 0 0 6.45 0h1.31a2.51 2.51 0 0 0 2.51-2.09l.49-2.88a2.1 2.1 0 0 0 -.43-1.62zm-22 6.89a1.3 1.3 0 1 1 0-2.59 1.3 1.3 0 1 1 0 2.59zm14.9 0a1.36 1.36 0 0 1 -1.4-1.29 1.41 1.41 0 0 1 2.81 0 1.37 1.37 0 0 1 -1.42 1.29zm5.53-5.63-.47 2.88a.54.54 0 0 1 -.54.41h-1.3a3.42 3.42 0 0 0 -6.45 0h-8.46a3.42 3.42 0 0 0 -6.45 0h-2.92a1 1 0 0 1 -1-.78l-.41-2.51a.33.33 0 0 1 .26-.34l3-.87a1 1 0 0 0 .56-.4l2.48-3.74a.69.69 0 0 1 .56-.28h8.32a1.48 1.48 0 0 1 .91.32l5.32 4.31a1 1 0 0 0 .51.21l5.89.69a.26.26 0 0 1 .16.08.12.12 0 0 1 .03.02z"/><path d="m19.26 13.5h-10.14a1 1 0 1 0 0 2h10.14a1 1 0 1 0 0-2z"/></g></svg>
