<svg id="icon-data-2" data-name="data-2" xmlns="http://www.w3.org/2000/svg" viewBox="0 0 32 32"><path d="M30.59,7.74s0,0,0,0a.94.94,0,0,0-.06-.29l0-.08a1,1,0,0,0-.19-.27s0,0,0,0l-.14-.11L30,6.85l0,0L12.71.07a1,1,0,0,0-.8,0L3.37,4.35l0,0-.09,0a1.54,1.54,0,0,0-.19.17l0,0a1.51,1.51,0,0,0-.15.28l0,.06a1,1,0,0,0,0,.3v8.13a2.31,2.31,0,0,0-1.4,2v13.6c0,2.11,3.51,3.06,7,3.06s7-.95,7-3.06v-.38l5.3,2.06h0a1.2,1.2,0,0,0,.32.06,1.11,1.11,0,0,0,.4-.09l.05,0L30,26.37a1,1,0,0,0,.56-.9V7.75ZM12.4,2.09,27.12,7.86l-6.11,3L6.28,5.13Zm-9,20.08a13.73,13.73,0,0,0,5,.82,13.77,13.77,0,0,0,5-.82v2.22c-.24.35-1.93,1.14-5,1.14s-4.82-.82-5-1.06Zm10-2.32c-.24.35-1.93,1.14-5,1.14s-4.82-.82-5-1.07V17.59a13.73,13.73,0,0,0,5,.82,13.77,13.77,0,0,0,5-.82Zm-5-3.44c-2.85,0-4.52-.69-4.93-1.07.41-.37,2.08-1.06,4.93-1.06s4.52.69,4.93,1.06C12.92,15.72,11.25,16.41,8.4,16.41ZM8.4,30c-3.11,0-4.82-.82-5-1.06V26.71a13.73,13.73,0,0,0,5,.82,13.77,13.77,0,0,0,5-.82v2.15C13.15,29.21,11.46,30,8.4,30Zm7-14.66c0-2.11-3.51-3.06-7-3.06a15.88,15.88,0,0,0-3.59.38V6.71l15.24,5.94V28.23l-4.66-1.82Zm13.2,9.51-6.54,3.23V12.59l6.54-3.23Z"/><path d="M23.33,16.33a.46.46,0,0,0,.22-.06l4-2a.51.51,0,0,0,.28-.45v-.9a.49.49,0,0,0-.24-.42.5.5,0,0,0-.49,0l-4,2a.5.5,0,0,0-.27.45v.9a.5.5,0,0,0,.23.42A.53.53,0,0,0,23.33,16.33Z"/><path d="M23.33,20.68a.46.46,0,0,0,.22-.06l4-2a.51.51,0,0,0,.28-.45v-.9a.49.49,0,0,0-.24-.42.5.5,0,0,0-.49,0l-4,2a.5.5,0,0,0-.27.45v.9a.5.5,0,0,0,.23.42A.53.53,0,0,0,23.33,20.68Z"/><path d="M23.33,25a.44.44,0,0,0,.22-.05l4-2a.51.51,0,0,0,.28-.45v-.9a.49.49,0,0,0-.24-.42.5.5,0,0,0-.49,0l-4,2a.5.5,0,0,0-.27.45v.89a.51.51,0,0,0,.23.43A.52.52,0,0,0,23.33,25Z"/></svg>
