<svg viewBox="0 0 32 32" xmlns="http://www.w3.org/2000/svg"><path fill="#151619" d="m13.08 17.58h2.43l.49 1.55h1.53l-2.37-6.54h-1.74l-2.36 6.54h1.53zm1.22-4a3.38 3.38 0 0 0 .12.44l.76 2.38h-1.75q.72-2.23.87-2.8z"/><path fill="#151619" d="m18.37 12.62h1.42v6.51h-1.42z"/><path fill="#151619" d="m29.57 13a2.44 2.44 0 0 0 -2.29 1.59h-3.47v-1.46h3.05a.8.8 0 0 0 .8-.8v-2.33a2.43 2.43 0 1 0 -1.6 0v1.52h-2.25v-2.44a1 1 0 0 0 -1-1h-4.48v-2.45h1.58a2.43 2.43 0 0 0 4.71-.8 2.43 2.43 0 0 0 -4.71-.83h-2.38a.8.8 0 0 0 -.8.8v3.28h-1.54v-3.25a.8.8 0 0 0 -.8-.8h-2.46a2.44 2.44 0 0 0 -4.72.8 2.43 2.43 0 0 0 4.72.8h1.66v2.45h-4.59a1 1 0 0 0 -1 1v2.45h-2.33v-1.53a2.38 2.38 0 0 0 -.8-4.64 2.38 2.38 0 0 0 -.8 4.64v2.32a.8.8 0 0 0 .8.8h3.13v1.45h-3.28a2.44 2.44 0 0 0 -2.29-1.57 2.39 2.39 0 1 0 0 4.78 2.43 2.43 0 0 0 2.29-1.59h3.28v1.54h-3.13a.8.8 0 0 0 -.8.8v2.24a2.38 2.38 0 0 0 .8 4.64 2.38 2.38 0 0 0 .8-4.64v-1.45h2.33v3.21a1 1 0 0 0 1 1h4.6v2.84h-1.67a2.39 2.39 0 1 0 0 1.6h2.46a.8.8 0 0 0 .8-.8v-3.64h1.28v3.64a.8.8 0 0 0 .8.8h2.64a2.4 2.4 0 1 0 0-1.6h-1.84v-2.84h4.74a1 1 0 0 0 1-1v-3.21h2.25v1.44a2.43 2.43 0 1 0 1.6 0v-2.24a.8.8 0 0 0 -.8-.8h-3.05v-1.54h3.47a2.42 2.42 0 1 0 2.29-3.18zm-2.71-6a.79.79 0 1 1 -.83.79.81.81 0 0 1 .83-.79zm-4.67-3a.8.8 0 1 1 -.83.79.81.81 0 0 1 .83-.79zm-12.54 1.63a.82.82 0 0 1 -.84-.8.82.82 0 0 1 .84-.83.8.8 0 1 1 0 1.59zm-4.78 1.37a.79.79 0 1 1 -.87.76.81.81 0 0 1 .87-.76zm-2.44 9.2a.79.79 0 1 1 0-1.58.79.79 0 1 1 0 1.58zm2.44 7.6a.79.79 0 1 1 .83-.8.81.81 0 0 1 -.83.8zm4.78 4.2a.8.8 0 1 1 .83-.79.81.81 0 0 1 -.83.79zm12.54-1.59a.8.8 0 1 1 -.83.8.82.82 0 0 1 .83-.84zm4.67-2.57a.79.79 0 1 1 .83-.79.81.81 0 0 1 -.83.75zm-5.05-2.27h-11.81v-11.49h11.81zm7.76-5.36a.79.79 0 1 1 .83-.79.81.81 0 0 1 -.83.75z"/></svg>
