<svg viewBox="0 0 32 32" xmlns="http://www.w3.org/2000/svg"><g fill="#151619"><path d="m29.63 14.93h-.28l-4.35-6.07a1 1 0 0 0 -.81-.41h-4v-1.45a1 1 0 0 0 -1-1h-11.49a1 1 0 0 0 0 2h10.42v8a1 1 0 0 0 1 1h10.51a.36.36 0 0 1 .37.34v4.46h-2.18a3.29 3.29 0 0 0 -6.25 0h-8a3.29 3.29 0 0 0 -6.25 0h-2.95a1 1 0 0 0 0 2h2.94a3.29 3.29 0 0 0 6.25 0h8a3.29 3.29 0 0 0 6.25 0h2.19a2 2 0 0 0 2.05-2v-4.5a2.36 2.36 0 0 0 -2.42-2.37zm-9.51-4.48h3.53l3.24 4.48h-6.77zm-9.68 13.61a1.26 1.26 0 1 1 1.3-1.26 1.28 1.28 0 0 1 -1.3 1.26zm14.26 0a1.26 1.26 0 1 1 1.3-1.26 1.28 1.28 0 0 1 -1.3 1.26z"/><path d="m5.2 11.6h7.54a1 1 0 0 0 0-2h-7.54a1 1 0 0 0 0 2z"/><path d="m3.1 15.58h7.53a1 1 0 0 0 0-2h-7.53a1 1 0 1 0 0 2z"/><path d="m9.53 18.57a1 1 0 0 0 -1-1h-7.53a1 1 0 0 0 0 2h7.53a1 1 0 0 0 1-1z"/></g></svg>
