<svg viewBox="0 0 32 32" xmlns="http://www.w3.org/2000/svg"><path fill="#151619" d="m16 7.56a1 1 0 0 1 -1-1v-5.56a1 1 0 1 1 2 0v5.56a1 1 0 0 1 -1 1z"/><path fill="#151619" d="m16 32a1 1 0 0 1 -1-1v-2.77a1 1 0 0 1 2 0v2.77a1 1 0 0 1 -1 1z"/><path fill="#151619" d="m5.36 17h-4.36a1 1 0 0 1 0-2h4.36a1 1 0 0 1 0 2z"/><path fill="#151619" d="m31 17h-.67a1 1 0 0 1 0-2h.67a1 1 0 0 1 0 2z"/><path fill="#151619" d="m11 8.33a1 1 0 0 1 -.87-.5l-2.5-4.33a1 1 0 0 1 1.74-1l2.49 4.33a1 1 0 0 1 -.36 1.36 1 1 0 0 1 -.5.14z"/><path fill="#151619" d="m23.5 30a1 1 0 0 1 -.87-.5l-1.1-1.92a1 1 0 1 1 1.73-1l1.11 1.92a1 1 0 0 1 -.87 1.5z"/><path fill="#151619" d="m3 24.5a1 1 0 0 1 -.87-.5 1 1 0 0 1 .37-1.36l3.41-2a1 1 0 0 1 1.38.36 1 1 0 0 1 -.37 1.37l-3.41 2a1 1 0 0 1 -.51.13z"/><path fill="#151619" d="m28.77 9.62a1 1 0 0 1 -.49-1.87l.22-.12a1 1 0 0 1 1.36.37 1 1 0 0 1 -.37 1.37l-.22.12a1 1 0 0 1 -.5.13z"/><path fill="#151619" d="m7 11.77a1 1 0 0 1 -.49-.13l-4-2.28a1 1 0 1 1 1-1.73l4 2.28a1 1 0 0 1 -.51 1.86z"/><path fill="#151619" d="m29 24.5a1 1 0 0 1 -.5-.13l-1.5-.86a1 1 0 1 1 1-1.73l1.49.86a1 1 0 0 1 .37 1.36 1 1 0 0 1 -.86.5z"/><path fill="#151619" d="m8.5 30a1 1 0 0 1 -.87-1.5l1.91-3.3a1 1 0 0 1 1.73 1l-1.9 3.3a1 1 0 0 1 -.87.5z"/></svg>
