<svg viewBox="0 0 32 32" xmlns="http://www.w3.org/2000/svg"><path fill="#fff" d="m24.12 25.05a11.39 11.39 0 0 1 -20.79-6.51 11.55 11.55 0 0 1 5.6-9.87 1 1 0 1 0 -1.02-1.67 13.44 13.44 0 1 0 17.86 19.19 1 1 0 0 0 -.26-1.39 1 1 0 0 0 -1.39.25z"/><path fill="#fff" d="m30.37 21.44a1 1 0 0 0 -1.41 0l-1.06 1.08-4.66-4.68a1 1 0 0 0 -.71-.3h-6.8v-4.81h6.47a1 1 0 0 0 0-2h-6.47v-2.33a4.25 4.25 0 1 0 -2 0v10.14a1 1 0 0 0 1 1h7.38l5.08 5.1a1 1 0 0 0 1.41 0l1.78-1.78a1 1 0 0 0 -.01-1.42zm-17.89-17.17a2.26 2.26 0 1 1 2.25 2.26 2.26 2.26 0 0 1 -2.25-2.26z"/></svg>
