<svg id="icon-dollar" data-name="dollar" xmlns="http://www.w3.org/2000/svg" viewBox="0 0 32 32"><path d="M31,6.63H1a1,1,0,0,0-1,1V24.37a1,1,0,0,0,1,1H31a1,1,0,0,0,1-1V7.63A1,1,0,0,0,31,6.63ZM26.59,23.37H5.41A4.48,4.48,0,0,0,2,20.05V12A4.48,4.48,0,0,0,5.41,8.63H26.59A4.48,4.48,0,0,0,30,12v8.1A4.48,4.48,0,0,0,26.59,23.37ZM30,9.87a2.52,2.52,0,0,1-1.31-1.24H30ZM3.31,8.63A2.52,2.52,0,0,1,2,9.87V8.63ZM2,22.13a2.52,2.52,0,0,1,1.31,1.24H2Zm26.69,1.24A2.52,2.52,0,0,1,30,22.13v1.24Z"/><path d="M16.74,15.44V12.73a3.54,3.54,0,0,1,1.44.58.7.7,0,1,0,.88-1.09,5,5,0,0,0-2.32-.91V11a.7.7,0,1,0-1.4,0v.36A2.65,2.65,0,0,0,12.89,14c0,1.42,1.41,2.11,2.45,2.49V19a6,6,0,0,1-1.68-.79.7.7,0,1,0-.85,1.11,7,7,0,0,0,2.53,1.12v.62a.7.7,0,0,0,1.4,0v-.56c1.27-.18,2.72-1,2.72-2.49C19.46,16.33,17.8,15.77,16.74,15.44ZM14.29,14a1.23,1.23,0,0,1,1.05-1.22v2.19C14.8,14.69,14.29,14.36,14.29,14Zm2.45,5.15v-2.2c.89.32,1.32.6,1.32,1.13S17.4,19,16.74,19.11Z"/></svg>
