<svg viewBox="0 0 32 32" xmlns="http://www.w3.org/2000/svg"><path fill="#151619" d="m29.21 13.19a2.79 2.79 0 0 0 -2.61 1.81h-2.3l-1.66-5.13a1 1 0 0 0 -1-.69 1 1 0 0 0 -.94.73l-2.9 10.53-3.23-13a1 1 0 0 0 -1-.76 1 1 0 0 0 -1 .76l-2.42 10-1.7-3a1 1 0 0 0 -.87-.5h-2.21a2.79 2.79 0 0 0 -5.37 1 2.76 2.76 0 0 0 2.79 2.72 2.78 2.78 0 0 0 2.58-1.72h1.69l2.66 4.65a1 1 0 0 0 1 .5 1 1 0 0 0 .83-.76l2-8.45 3.16 12.78a1 1 0 0 0 .95.76 1 1 0 0 0 1-.73l3.06-11 .86 2.66a1 1 0 0 0 .95.69h3.09a2.79 2.79 0 0 0 2.55 1.64 2.73 2.73 0 1 0 0-5.45zm-26.42 2.42a.75.75 0 0 1 -.79-.72.76.76 0 0 1 .79-.73.76.76 0 0 1 .78.73.75.75 0 0 1 -.78.72zm26.42 1a.75.75 0 0 1 -.78-.72.79.79 0 1 1 .78.72z" /></svg>
