<svg id="icon-cloud-upload" data-name="cloud-upload" xmlns="http://www.w3.org/2000/svg" viewBox="0 0 32 32"><path d="M24.06,7.51A10,10,0,0,0,6,9.37a6.44,6.44,0,0,0,.53,12.87h.87a1,1,0,0,0,0-2H6.56a4.45,4.45,0,1,1,.05-8.89h.14a1,1,0,0,0,1-.75A8,8,0,0,1,22.61,9a1,1,0,0,0,1.11.53,5.12,5.12,0,0,1,.78-.06A5.44,5.44,0,0,1,30,14.87a5.44,5.44,0,0,1-5.5,5.37,1,1,0,0,0,0,2A7.44,7.44,0,0,0,32,14.87,7.49,7.49,0,0,0,24.06,7.51Z"/><path d="M16.7,17.11s-.09-.05-.13-.09a1.22,1.22,0,0,0-.19-.12.91.91,0,0,0-1,.17l-.07,0h0l-4.24,4.16a1,1,0,0,0,0,1.41,1,1,0,0,0,.71.3,1,1,0,0,0,.71-.29L15,20.21v8.12a1,1,0,0,0,2,0V20.21l2.54,2.49a1,1,0,0,0,1.42,0,1,1,0,0,0,0-1.41Z"/></svg>
