<svg viewBox="0 0 32 32" xmlns="http://www.w3.org/2000/svg"><path fill="#fff" d="m32 16a1 1 0 0 0 -.08-.39 1 1 0 0 0 -.21-.32l-5.71-5.69a1 1 0 1 0 -1.44 1.4l4 4h-5.05a8.49 8.49 0 0 0 -6.51 3v-14.44l4 4a1 1 0 0 0 .7.29 1 1 0 0 0 .71-.3 1 1 0 0 0 0-1.41l-5.67-5.69a1.45 1.45 0 0 0 -.29-.19 1.15 1.15 0 0 0 -.36-.07.84.84 0 0 0 -.38.08.9.9 0 0 0 -.28.18l-5.84 5.69a1 1 0 0 0 0 1.41 1 1 0 0 0 1.42 0l4-4v14.52a8.5 8.5 0 0 0 -6.52-3.07h-5.06l4-4a1 1 0 1 0 -1.43-1.4l-5.7 5.69a1 1 0 0 0 -.21.32 1 1 0 0 0 -.09.39 1.43 1.43 0 0 0 0 .22v.16a1 1 0 0 0 .22.33l5.78 5.69a1 1 0 0 0 1.44-1.4l-4-4h5.05a6.46 6.46 0 0 1 6.51 6.42v7.42a1 1 0 0 0 1 1 1 1 0 0 0 1-1v-7.42a6.46 6.46 0 0 1 6.51-6.42h5.06l-4 4a1 1 0 1 0 1.43 1.4l5.74-5.69a1 1 0 0 0 .22-.33.58.58 0 0 0 0-.14.93.93 0 0 0 .04-.24z"/></svg>
