<svg viewBox="0 0 32 32" xmlns="http://www.w3.org/2000/svg"><path fill="#151619" d="m30.7 1.16a4 4 0 0 0 -5.55 0l-5.64 5.71-13.51-2.63a1 1 0 0 0 -.9.28l-3.45 3.48a1 1 0 0 0 -.26.93 1 1 0 0 0 .61.72l11.1 3.8-5.69 6.35-3.91-.95a1 1 0 0 0 -1 .27l-2.06 2.13a1 1 0 0 0 -.27.86 1 1 0 0 0 .53.73l5.64 2.9 2.87 5.71a1 1 0 0 0 .79.55h.16a1 1 0 0 0 .71-.3l2.11-2.13a1 1 0 0 0 .26-.93l-.95-4 6.28-5.77 3.75 11.2a1 1 0 0 0 1.66.38l3.4-3.45a1 1 0 0 0 .27-.89l-2.6-13.66 5.65-5.71a4 4 0 0 0 0-5.58zm-1.42 4.17-6 6.09a1 1 0 0 0 -.28.89l2.59 13.69-1.94 2-3.73-11.2a1 1 0 0 0 -.7-.65 1 1 0 0 0 -.92.23l-7.84 7.22a1 1 0 0 0 -.3 1l.95 4-.73.75-2.38-4.8a1 1 0 0 0 -.43-.44l-4.75-2.42.75-.76 3.94 1a1 1 0 0 0 1-.3l7.14-7.93a1 1 0 0 0 -.42-1.61l-11-3.77 1.95-2 13.47 2.61a1 1 0 0 0 .9-.28l6-6.08a1.94 1.94 0 0 1 2.7 0 2 2 0 0 1 .03 2.76z" /></svg>
