<svg id="icon-customer-representative-male" data-name="customer-representative-male" xmlns="http://www.w3.org/2000/svg" viewBox="0 0 32 32"><path d="M27.34,24.53l-5.57-1.66h0l-1.36-1.74V20c.69-.6,1.34-1.19,1.65-1.49a1.08,1.08,0,0,0,.23-.34,3,3,0,0,0,1.89-.92,2.15,2.15,0,0,0,1.29-2V12.53a2.12,2.12,0,0,0-.76-1.62l.15-.9a8.43,8.43,0,0,0-.35-4.42A8.75,8.75,0,0,0,16.07,0,8.81,8.81,0,0,0,7.59,5.59,8.22,8.22,0,0,0,7.24,10l.14.85a2.12,2.12,0,0,0-.83,1.67v2.76A2.15,2.15,0,0,0,8.7,17.44h.72a7.7,7.7,0,0,0,2.19,2.71v1l-1.36,1.74h0L4.66,24.53A6.74,6.74,0,0,0-.22,31a1,1,0,0,0,2,0,4.73,4.73,0,0,1,3.45-4.55l5.25-1.57,2.72,2.47a.82.82,0,0,0,.54.21.8.8,0,0,0,.57-.24l1.19-1.2V31a.5.5,0,0,0,1,0V26.12l1.19,1.2a.8.8,0,0,0,.57.24.82.82,0,0,0,.54-.21l2.72-2.47,5.25,1.57A4.73,4.73,0,0,1,30.22,31a1,1,0,0,0,2,0A6.74,6.74,0,0,0,27.34,24.53ZM16,23.45l-2.28-1.84A4.78,4.78,0,0,0,16,22.2a4.72,4.72,0,0,0,2.28-.59Zm6.93-11.14a1,1,0,0,0,.37.08.15.15,0,0,1,.15.14v2.76a.15.15,0,0,1-.15.15h-.37Zm-14.38,3V12.53a.15.15,0,0,1,.15-.14h.37v3H8.7A.15.15,0,0,1,8.55,15.29Zm2.52.59V11.14a1,1,0,0,0-1-1,1,1,0,0,0-.65.25H9.33l-.12-.72a6.31,6.31,0,0,1,.25-3.36A6.85,6.85,0,0,1,16.07,2a6.78,6.78,0,0,1,6.55,4.31,6.31,6.31,0,0,1,.27,3.22,1,1,0,0,0-1-.78,1,1,0,0,0-1,1v6.13a2.3,2.3,0,0,1-.38,1.17.88.88,0,0,0-.05.15H17.18a1.27,1.27,0,1,0,0,1h2.24a17.74,17.74,0,0,1-2,1.58,2.78,2.78,0,0,1-2.94,0C12.33,18.44,11.07,17,11.07,15.88Zm2.64,9.77L11.6,23.73l.61-.77a1.06,1.06,0,0,0,.4.08,1.09,1.09,0,0,0,.26-.05l1.94,1.55Zm4.58,0-1.1-1.11,2.27-1.83.12,0,.82,1Z"/><path d="M10.07,12.14a1,1,0,0,1-1-1A3.17,3.17,0,0,1,10.2,8.71,3.12,3.12,0,0,1,12.74,8a4.8,4.8,0,0,0,2.84-.41,10.57,10.57,0,0,1,4.06-1A3.22,3.22,0,0,1,22,7.48a3.14,3.14,0,0,1,1,2.27,1,1,0,0,1-2,0,1.16,1.16,0,0,0-.35-.83,1.19,1.19,0,0,0-.88-.33,8.51,8.51,0,0,0-3.28.84,6.8,6.8,0,0,1-4,.56,1.15,1.15,0,0,0-1.33,1.15A1,1,0,0,1,10.07,12.14Z"/></svg>
