<svg id="icon-connection-iot" data-name="connection-iot" xmlns="http://www.w3.org/2000/svg" viewBox="0 0 32 32"><path d="M31.51,17.33h0a3.5,3.5,0,0,0-1.85-1.93,3.45,3.45,0,0,0-2.64,0,3.4,3.4,0,0,0-1.36,1l-2.38-1.06A7.09,7.09,0,0,0,22,9l2.65-2.48A3.34,3.34,0,0,0,26.33,7a3.52,3.52,0,1,0-3.06-1.87l-2.7,2.52A7,7,0,0,0,10.51,9.67L7.16,8.19A3.37,3.37,0,0,0,7,6.51,3.42,3.42,0,0,0,5.12,4.58a3.39,3.39,0,0,0-2.65,0A3.48,3.48,0,0,0,5,11a3.32,3.32,0,0,0,1.35-1L9.71,11.5a7.37,7.37,0,0,0-.26,1.89,7,7,0,0,0,1.14,3.85l-5.23,5a3.4,3.4,0,0,0-1.64-.43,3.48,3.48,0,1,0,3.46,3.48,3.39,3.39,0,0,0-.42-1.62l5.14-4.91a7.07,7.07,0,0,0,3.6,1.65V25.2a3.46,3.46,0,1,0,2,0V20.41a7,7,0,0,0,5-3.29l2.38,1.06a3.52,3.52,0,0,0,.2,1.69,3.42,3.42,0,0,0,1.85,1.92,3.28,3.28,0,0,0,1.37.29,3.47,3.47,0,0,0,3.23-4.75ZM4.27,9.16a1.47,1.47,0,0,1-1.11,0,1.49,1.49,0,0,1,0-2.74,1.4,1.4,0,0,1,.53-.11,1.45,1.45,0,0,1,1.36.94A1.49,1.49,0,0,1,4.27,9.16ZM26.33,2a1.48,1.48,0,1,1-1.47,1.48A1.47,1.47,0,0,1,26.33,2ZM3.72,26.77a1.48,1.48,0,1,1,1.46-1.48A1.47,1.47,0,0,1,3.72,26.77ZM18,28.52A1.46,1.46,0,1,1,16.5,27,1.48,1.48,0,0,1,18,28.52Zm-1.46-10a5.1,5.1,0,1,1,5-5.1A5.09,5.09,0,0,1,16.5,18.49ZM28.81,20a1.4,1.4,0,0,1-1.1,0,1.48,1.48,0,0,1-.79-.82,1.5,1.5,0,0,1,.83-1.92,1.39,1.39,0,0,1,.53-.1A1.48,1.48,0,0,1,28.81,20Z"/></svg>
