<svg viewBox="0 0 32 32" xmlns="http://www.w3.org/2000/svg"><g fill="#151619"><path d="m26.92 21.22-5.39-.69v-2.17a2.47 2.47 0 0 0 -2.53-2.36 2.47 2.47 0 0 0 -2.57 2.37v4.69a2.65 2.65 0 0 0 -3.69.05 2.66 2.66 0 0 0 0 3.76l4.88 4.87a1 1 0 0 0 .71.29 1 1 0 0 0 .71-1.7l-4.89-4.88a.62.62 0 0 1 -.19-.46.6.6 0 0 1 .19-.46.66.66 0 0 1 .94 0l1.74 1.69a1 1 0 0 0 1.42 0 1 1 0 0 0 .17-1.13s0 0 0 0v-6.73c0-.17.24-.37.57-.37s.57.2.57.37v5.27a1 1 0 0 0 2 0v-1.08l5.19.66h.13a.31.31 0 0 1 .31.31v7.79a1 1 0 0 0 2 0v-7.78a2.32 2.32 0 0 0 -2.27-2.31z"/><path d="m18.6 10.09a1 1 0 0 0 -1 1v1a1 1 0 1 0 2 0v-1a1 1 0 0 0 -1-1z"/><path d="m21.23 14.33a1 1 0 0 0 1.41 0l.81-.81a1 1 0 0 0 -1.45-1.41l-.81.8a1 1 0 0 0 .04 1.42z"/><path d="m22.72 16.64a1 1 0 0 0 1 1h1a1 1 0 0 0 0-2h-1a1 1 0 0 0 -1 1z"/><path d="m14.56 14.33a1 1 0 1 0 1.44-1.42l-.81-.8a1 1 0 0 0 -1.41 0 1 1 0 0 0 0 1.41z"/><path d="m13.47 17.64a1 1 0 0 0 0-2h-1a1 1 0 0 0 0 2z"/><path d="m10.65 27.17h-3.34a.09.09 0 0 1 -.08-.08v-24.69a.08.08 0 0 1 .08-.08h11.93a.08.08 0 0 1 .09.08v4.89a1 1 0 0 0 2 0v-4.89a2.09 2.09 0 0 0 -2.09-2.08h-11.93a2.08 2.08 0 0 0 -2.08 2.08v24.69a2.08 2.08 0 0 0 2.08 2.08h3.34a1 1 0 0 0 0-2z"/><path d="m14.54 5.28a1.25 1.25 0 0 0 -1.26-1.28 1.26 1.26 0 1 0 1.26 1.26z"/></g></svg>
