<svg id="icon-arrows-triple" data-name="arrows-triple" xmlns="http://www.w3.org/2000/svg" viewBox="0 0 32 32"><path d="M32,16h0a1,1,0,0,0-.08-.39,1,1,0,0,0-.21-.32h0L26,9.6A1,1,0,1,0,24.56,11l4,4H23.51A8.49,8.49,0,0,0,17,18V3.56l4,4a1,1,0,0,0,.7.29,1,1,0,0,0,.71-.3,1,1,0,0,0,0-1.41L16.74.45h0l0,0a1.45,1.45,0,0,0-.29-.19,1.15,1.15,0,0,0-.36-.07h0a.84.84,0,0,0-.38.08.9.9,0,0,0-.28.18l0,0h0L9.59,6.14a1,1,0,0,0,0,1.41,1,1,0,0,0,1.42,0l4-4V18.07A8.5,8.5,0,0,0,8.49,15H3.43l4-4A1,1,0,1,0,6,9.6L.3,15.29h0a1,1,0,0,0-.21.32A1,1,0,0,0,0,16H0a1.43,1.43,0,0,0,0,.22c0,.05,0,.11,0,.16a1,1,0,0,0,.22.33L6,22.4A1,1,0,0,0,7.44,21l-4-4H8.49A6.46,6.46,0,0,1,15,23.42v7.42a1,1,0,0,0,1,1H16a1,1,0,0,0,1-1V23.42A6.46,6.46,0,0,1,23.51,17h5.06l-4,4A1,1,0,1,0,26,22.4l5.74-5.69a1,1,0,0,0,.22-.33.58.58,0,0,0,0-.14A.93.93,0,0,0,32,16Z"/></svg>
