<svg id="icon-map" data-name="map" xmlns="http://www.w3.org/2000/svg" viewBox="0 0 32 32"><path d="M31.55.83a1,1,0,0,0-.94-.08L21,4.86,11.39.75h-.06a1,1,0,0,0-.28-.06H11a1,1,0,0,0-.33.07h0L.61,5A1,1,0,0,0,0,6V30.34a1,1,0,0,0,.45.83,1,1,0,0,0,.55.17.89.89,0,0,0,.39-.09l6.77-2.9C9.17,29.7,10,30.7,10.23,31a1,1,0,0,0,1.53,0c.24-.28,1.07-1.28,2.08-2.63l6.77,2.9h0a.81.81,0,0,0,.7,0h0l10-4.28a1,1,0,0,0,.61-.92V1.66A1,1,0,0,0,31.55.83ZM2,28.82V6.61l8-3.43v7.76a7.76,7.76,0,0,0-6.79,7.65c0,2.18,1.91,5.46,3.75,8.1Zm9-.06C8.88,26.1,5.21,21,5.21,18.59a5.79,5.79,0,0,1,11.57,0C16.78,21,13.12,26.1,11,28.76Zm7.78-10.17A7.75,7.75,0,0,0,12,10.94V3.18l8,3.43V28.82l-5-2.13C16.87,24.05,18.78,20.77,18.78,18.59ZM30,25.39l-8,3.43V6.61l8-3.43Z"/><path d="M11,14.62a4,4,0,1,0,4,4A4,4,0,0,0,11,14.62Zm0,5.94a2,2,0,1,1,2-2A2,2,0,0,1,11,20.56Z"/></svg>
