<svg viewBox="0 0 32 32" xmlns="http://www.w3.org/2000/svg"><g fill="#151619"><path d="m10.92 18.15a1 1 0 0 0 .7.29 1 1 0 0 0 .71-.29 1 1 0 0 0 0-1.42 5.14 5.14 0 0 1 0-7.3 1 1 0 0 0 -1.41-1.43 7.13 7.13 0 0 0 0 10.13z"/><path d="m6.4 13.08a9.48 9.48 0 0 1 2.81-6.75 1 1 0 0 0 0-1.41 1 1 0 0 0 -1.42 0 11.5 11.5 0 0 0 0 16.33 1 1 0 0 0 .71.29 1 1 0 0 0 .71-.29 1 1 0 0 0 0-1.42 9.46 9.46 0 0 1 -2.81-6.75z"/><path d="m2 13.08a13.8 13.8 0 0 1 4.1-9.84 1 1 0 0 0 0-1.42 1 1 0 0 0 -1.41 0 15.87 15.87 0 0 0 0 22.53 1 1 0 0 0 1.41-1.42 13.82 13.82 0 0 1 -4.1-9.85z"/><path d="m19.67 18.15a1 1 0 0 0 .71.29 1 1 0 0 0 .7-.29 7.13 7.13 0 0 0 0-10.15 1 1 0 0 0 -1.41 1.41 5.14 5.14 0 0 1 0 7.3 1 1 0 0 0 0 1.44z"/><path d="m24.2 4.92a1 1 0 0 0 -1.42 0 1 1 0 0 0 0 1.41 9.51 9.51 0 0 1 0 13.5 1 1 0 0 0 0 1.42 1 1 0 0 0 .71.29 1 1 0 0 0 .71-.29 11.5 11.5 0 0 0 0-16.33z"/><path d="m27.31 1.82a1 1 0 0 0 -1.41 0 1 1 0 0 0 0 1.42 13.87 13.87 0 0 1 0 19.69 1 1 0 0 0 1.41 1.42 15.87 15.87 0 0 0 0-22.53z"/><path d="m19.48 25.35v-.05a26.77 26.77 0 0 1 -2.48-9.68c0-.06 0-.11 0-.16a2.57 2.57 0 1 0 -2 0v.2c-.18 2.5-1 9.25-4.94 13.14a1 1 0 0 0 0 1.42 1 1 0 0 0 .7.29 1 1 0 0 0 .71-.29 15.35 15.35 0 0 0 2.53-3.5h3.95a14.77 14.77 0 0 0 2.56 3.46 1 1 0 0 0 1.41 0 1 1 0 0 0 0-1.42 13.38 13.38 0 0 1 -2.44-3.41zm-3.48-12.83a.57.57 0 1 1 -.57.56.56.56 0 0 1 .57-.56zm-1.07 12.2a23.74 23.74 0 0 0 1-3 25.53 25.53 0 0 0 1 3z"/></g></svg>
