<svg viewBox="0 0 32 32" xmlns="http://www.w3.org/2000/svg"><path fill="#151619" d="m32 14.56v-.14a1.29 1.29 0 0 0 0-.19s0-.06 0-.09l-3.21-8.28-.06-.08a.32.32 0 0 0 0-.09l-.06-.07-.14-.15-.15-.1-.07-.06-8.52-4a1 1 0 0 0 -.34-.08h-10.89a1 1 0 0 0 -.18 0l-.19.05-.19.1a1.1 1.1 0 0 0 -.14.09l-7.55 7.27v.06a1.13 1.13 0 0 0 -.18.2.2.2 0 0 0 0 .08.82.82 0 0 0 -.13.18s0 0 0 .05v.25a.34.34 0 0 1 0 .1s0 0 0 0l2.62 10.88a1 1 0 0 0 0 .1l.06.14a.9.9 0 0 0 .15.19.35.35 0 0 0 0 .08h.17a.83.83 0 0 0 .22.14l.08.05a1.21 1.21 0 0 0 .34.06h9.13l5.91 4.18 3.8 4.93a1 1 0 0 0 .79.39 1.13 1.13 0 0 0 .32 0 1 1 0 0 0 .68-1v-5.4l5-2.71a1 1 0 0 0 .26-.2.25.25 0 0 1 0-.07.49.49 0 0 0 .1-.15s0 0 0-.06v-.05l2.22-6.32s0-.05 0-.08a.32.32 0 0 1 0-.09zm-3.78 4.86-5.09-2.51 6.37-1.13zm-25.75-8.09 5.46 2.77-3.8 4.14zm6.16-7.79 3.55 3.06-8.18 1.4zm17.14 2.8-3.72 2.33-5.77-1.88 3.27-3.39zm-14.52 6.86 3.57-4.78 6.09 2-1.62 4.85zm6 3.6-3.83 2.14-1.93-3.61zm-13.07-6.8 8-1.32-2.9 3.9zm10.2-4.08-3.1-2.68h5.72zm-5 9.65 2 3.79h-5.51zm9.47 2.71-.34 4.69-3.56-2.51zm3.94-7 5.21 2.72-6.57 1.15zm1.42-1.5 3.18-2 1.76 4.64zm-3.15 15.59 1.16-.29v1.79zm1.8-2.5-2.43.59.4-5.46 5.77 2.85z"/></svg>
