<svg viewBox="0 0 32 32" xmlns="http://www.w3.org/2000/svg"><path fill="#151619" d="m26.2 13.2c-.7 0-1.5.1-2.2.4l-1.6-2.6.7-1.2h.4c.5 0 1-.4 1-1 0-.5-.4-1-1-1h-3.9c-.5 0-1 .4-1 1 0 .5.4 1 1 1h1.3l-.1.2h-9.3l.3-.8h2.2c.5 0 1-.4 1-1 0-.5-.4-1-1-1h-2.8c-.4 0-.8.2-.9.6l-2.3 5.5c-.4-.1-.9-.2-1.3-.2-3.3-.4-6.2 1.9-6.7 5.1s1.9 6.2 5.1 6.6c.5.1 1 .1 1.5 0 3.2 0 5.9-2.6 5.9-5.8 0-2-1.1-3.9-2.8-4.9l.5-1.2 5.7 6.8v2.3c0 .5.4 1 1 1h1.1c.5 0 1-.4 1-1 0-.5-.4-1-1-1h-.1v-1h2.4c.5 3.2 3.6 5.4 6.8 4.8s5.4-3.6 4.8-6.8c-.5-2.8-2.9-4.8-5.7-4.8zm-15.5 5.8c-.1 2.2-1.9 3.9-4 3.8-2.1.3-4.1-1.1-4.5-3.3s1.1-4.1 3.3-4.5c.4-.1.8-.1 1.2 0 .2 0 .4 0 .5.1l-1.4 3.4c-.2.5 0 1.1.5 1.3.1.2.2.2.3.2.4 0 .8-.2.9-.6l1.5-3.5c1 .7 1.6 1.9 1.7 3.1zm13.7-.9h-2.2c.2-.7.5-1.3 1-1.7zm-4.7-6.1-3 5.3-4.5-5.3zm1.6 1 1 1.6c-1 .9-1.7 2.1-2 3.4h-1.9zm4.9 9.9c-1.8.1-3.4-1.1-3.9-2.9h3.9c.5 0 1-.4 1-1 0-.2-.1-.4-.1-.5l-2-3.2c.4-.1.7-.2 1.1-.2 2.1-.3 4.1 1.1 4.5 3.3.3 2.1-1.1 4.1-3.3 4.5-.4 0-.8 0-1.2 0z"/></svg>
