<svg id="icon-folder-multiple" data-name="folder-multiple" xmlns="http://www.w3.org/2000/svg" viewBox="0 0 32 32"><path d="M30,5.44H17.67L16.15,2.89a1,1,0,0,0-.86-.49H9.1a2,2,0,0,0-2,2V5.57H5.85a2,2,0,0,0-2,2v1.7H2a2,2,0,0,0-2,2v16.3a2,2,0,0,0,2,2H22.9a2,2,0,0,0,2-2v-1.7h1.77a2,2,0,0,0,2-2V22.72H30a2,2,0,0,0,2-2V7.45A2,2,0,0,0,30,5.44Zm-7,22.15H2L2,11.28H7.67l1.52,2.55a1,1,0,0,0,.86.49H22.94Zm2-3.7V14.33a2,2,0,0,0-2-2H10.62L9.09,9.77a1,1,0,0,0-.86-.49H5.82l0-1.71h5.62L13,10.12a1,1,0,0,0,.86.49H26.75l0,13.27Zm5-3.17H28.75V10.62a2,2,0,0,0-2-2H14.42L12.9,6.05A1,1,0,0,0,12,5.57h-3l0-1.17h5.62L16.25,7a1,1,0,0,0,.86.49H30Z"/></svg>
