<svg id="icon-compass" data-name="compass" xmlns="http://www.w3.org/2000/svg" viewBox="0 0 32 32"><path d="M16,.12A16,16,0,0,0,0,16a16,16,0,0,0,32,0A16,16,0,0,0,16,.12Zm0,29.76A13.88,13.88,0,1,1,30,16,14,14,0,0,1,16,29.88Z"/><path d="M22.54,8.19l-9.36,4.55a1.31,1.31,0,0,0-.27.19h0s0,0,0,0a.81.81,0,0,0-.17.24l-4.6,9.27a1,1,0,0,0,.19,1.15,1,1,0,0,0,.71.3,1,1,0,0,0,.43-.1l9.36-4.56a1.31,1.31,0,0,0,.27-.19h0s0,0,0,0a1,1,0,0,0,.17-.23l4.59-9.27a1,1,0,0,0-1.33-1.34ZM13.9,15.33l2.78,2.75-5.46,2.66Zm4.2,1.34-2.77-2.75,5.45-2.65Z"/></svg>
