<?xml version="1.0" encoding="UTF-8" standalone="no"?>
<svg width="32px" height="32px" viewBox="0 0 32 32" version="1.1" xmlns="http://www.w3.org/2000/svg" xmlns:xlink="http://www.w3.org/1999/xlink">
    <!-- Generator: Sketch 46.2 (44496) - http://www.bohemiancoding.com/sketch -->
    <title>Icon/product/Platform/Data-Integrations</title>
    <desc>Created with Sketch.</desc>
    <defs>
        <polygon id="path-1" points="31.5076923 15.7543138 31.5076923 0.000984615385 0 0.000984615385 0 15.7543138 0 31.5076431 31.5076923 31.5076431"></polygon>
    </defs>
    <g id="Symbols" stroke="none" stroke-width="1" fill="none" fill-rule="evenodd">
        <g id="Icon/product/Platform/Data-Integrations">
            <g id="Page-1">
                <g id="Group-3" transform="translate(0.000000, 0.491323)">
                    <mask id="mask-2" fill="white">
                        <use xlink:href="#path-1"></use>
                    </mask>
                    <g id="Clip-2"></g>
                    <path d="M6.89230769,1.97016615 L25.6,1.97016615 C26.1435077,1.97016615 26.5846154,1.52905846 26.5846154,0.985058462 C26.5846154,0.441550769 26.1435077,0.000935384615 25.6,0.000935384615 L6.89230769,0.000935384615 C6.3488,0.000935384615 5.90769231,0.441550769 5.90769231,0.985058462 C5.90769231,1.52905846 6.3488,1.97016615 6.89230769,1.97016615 L6.89230769,1.97016615 Z M1.96923077,29.5384123 L29.5384615,29.5384123 L29.5384615,9.84708923 L1.96923077,9.84708923 L1.96923077,29.5384123 Z M0,31.5076431 L31.5076923,31.5076431 L31.5076923,7.87736615 L0,7.87736615 L0,31.5076431 Z M2.95384615,5.90862769 L28.5538462,5.90862769 C29.0973538,5.90862769 29.5384615,5.46801231 29.5384615,4.92401231 C29.5384615,4.38001231 29.0973538,3.93841231 28.5538462,3.93841231 L2.95384615,3.93841231 C2.41033846,3.93841231 1.96923077,4.38001231 1.96923077,4.92401231 C1.96923077,5.46801231 2.41033846,5.90862769 2.95384615,5.90862769 L2.95384615,5.90862769 Z" id="Fill-1" fill="#1F2555" mask="url(#mask-2)"></path>
                </g>
                <path d="M8.86153846,20.1838769 C8.86153846,19.6398769 9.30264615,19.1997538 9.84615385,19.1997538 L21.6615385,19.1997538 C22.2050462,19.1997538 22.6461538,19.6398769 22.6461538,20.1838769 C22.6461538,20.7273846 22.2050462,21.1689846 21.6615385,21.1689846 L9.84615385,21.1689846 C9.30264615,21.1689846 8.86153846,20.7273846 8.86153846,20.1838769" id="Fill-4" fill="#1F2555"></path>
                <path d="M15.7538462,13.2910769 C16.2973538,13.2910769 16.7384615,13.7331692 16.7384615,14.2761846 L16.7384615,26.0915692 C16.7384615,26.6350769 16.2973538,27.0766769 15.7538462,27.0766769 C15.2103385,27.0766769 14.7692308,26.6350769 14.7692308,26.0915692 L14.7692308,14.2761846 C14.7692308,13.7331692 15.2103385,13.2910769 15.7538462,13.2910769" id="Fill-6" fill="#1F2555"></path>
            </g>
        </g>
    </g>
</svg>