<?xml version="1.0" encoding="UTF-8" standalone="no"?>
<svg width="32px" height="32px" viewBox="0 0 32 32" version="1.1" xmlns="http://www.w3.org/2000/svg" xmlns:xlink="http://www.w3.org/1999/xlink">
    <!-- Generator: Sketch 46.2 (44496) - http://www.bohemiancoding.com/sketch -->
    <title>Icon/product/CRM/Customer Service</title>
    <desc>Created with Sketch.</desc>
    <defs>
        <polygon id="path-1" points="31.5075938 32 -9.84615385e-05 32 -9.84615385e-05 0.492061538 31.5075938 0.492061538"></polygon>
    </defs>
    <g id="Symbols" stroke="none" stroke-width="1" fill="none" fill-rule="evenodd">
        <g id="Icon/product/CRM/Customer-Service">
            <g id="Page-1">
                <mask id="mask-2" fill="white">
                    <use xlink:href="#path-1"></use>
                </mask>
                <g id="Clip-2"></g>
                <path d="M25.6240246,6.30769231 C26.3984246,7.50990769 26.9650708,8.82683077 27.2801477,10.2230154 C28.6945477,11.8870154 29.5383631,13.9724308 29.5383631,16.2385231 C29.5383631,20.1459692 27.0354708,23.5222154 23.4071631,25.1133538 L24.6152862,25.1153231 L24.6152862,28.0617846 L20.9643323,25.8710154 C20.2362092,26.0113231 19.4815015,26.0866462 18.7075938,26.0866462 C17.7111631,26.0866462 16.7467323,25.9616 15.8300554,25.7326769 C14.6992246,25.9655385 13.52064,26.0925538 12.3075938,26.0925538 C12.0643938,26.0925538 11.8226708,26.0861538 11.5824246,26.0763077 C13.6191015,27.3395692 16.0703015,28.0770462 18.7075938,28.0770462 C19.4071631,28.0770462 20.0924554,28.0228923 20.7610092,27.9234462 L26.5845169,32.0002462 L26.5845169,25.5697231 C29.5802092,23.4055385 31.5075938,20.0386462 31.5075938,16.2537846 C31.5075938,12.0785231 29.16224,8.41132308 25.6240246,6.30769231 M9.38131692,21.6445538 L6.89220923,23.1377231 L6.89220923,20.5526154 C3.92950154,18.7950769 1.96913231,15.7560615 1.96913231,12.3000615 C1.96913231,6.86055385 6.81836308,2.45193846 12.7999015,2.45193846 C18.7819323,2.45193846 23.6306708,6.86055385 23.6306708,12.3000615 C23.6306708,17.7385846 18.7819323,22.1481846 12.7999015,22.1481846 C11.6050708,22.1481846 10.4565169,21.9694769 9.38131692,21.6445538 M25.5999015,12.3143385 C25.5999015,5.78535385 19.86944,0.492061538 12.7999015,0.492061538 C5.73085538,0.492061538 -9.84615385e-05,5.78535385 -9.84615385e-05,12.3143385 C-9.84615385e-05,16.0992 1.92777846,19.4665846 4.92297846,21.6307692 L4.92297846,27.0771692 L9.64076308,23.7747692 C10.6509785,24.0115692 11.70944,24.1385846 12.7999015,24.1385846 C19.86944,24.1385846 25.5999015,18.8443077 25.5999015,12.3143385" id="Fill-1" fill="#1F2555" mask="url(#mask-2)"></path>
            </g>
        </g>
    </g>
</svg>