<?xml version="1.0" encoding="UTF-8" standalone="no"?>
<svg width="32px" height="32px" viewBox="0 0 32 32" version="1.1" xmlns="http://www.w3.org/2000/svg" xmlns:xlink="http://www.w3.org/1999/xlink">
    <!-- Generator: Sketch 47.1 (45422) - http://www.bohemiancoding.com/sketch -->
    <title>Icon/product/CRM/Customer Decision Hub</title>
    <desc>Created with Sketch.</desc>
    <defs></defs>
    <g id="Symbols" stroke="none" stroke-width="1" fill="none" fill-rule="evenodd">
        <g id="Icon/product/CRM/Customer-Decision-Hub" fill="#1F2555">
            <g id="Icon" transform="translate(-1.000000, 0.000000)">
                <path d="M20.8955,19.3638 C19.0455,21.0548 17.7065,23.2388 16.8905,25.8868 C15.9825,23.2088 14.6205,21.0078 12.8145,19.3078 C11.2495,17.8638 9.3755,16.7698 7.2125,16.0348 C9.6145,15.2668 11.6355,14.0828 13.2535,12.4888 C14.8825,10.8598 16.1115,8.7888 16.9325,6.3008 C17.8465,9.2438 19.3835,11.6148 21.5335,13.3848 C23.0025,14.5548 24.7315,15.4508 26.7055,16.0648 C24.3765,16.8238 22.4325,17.9268 20.8955,19.3638 M32.0665,15.0028 C28.2315,14.7458 25.1065,13.6748 22.7915,11.8298 C19.9415,9.4828 18.3285,5.8168 17.9975,0.9328 C17.9625,0.4138 17.5365,0.0088 17.0165,-0.0002 L16.9995,-0.0002 C16.4875,-0.0002 16.0565,0.3888 16.0045,0.9008 C15.5625,5.3298 14.1605,8.7528 11.8445,11.0688 C9.5305,13.3478 6.1915,14.6728 1.9225,15.0038 C1.4025,15.0438 1.0015,15.4758 0.9995,15.9978 C0.9985,16.5188 1.3975,16.9538 1.9165,16.9968 C5.8875,17.3278 9.0975,18.5998 11.4515,20.7718 C13.9195,23.0938 15.4535,26.5758 16.0075,31.1218 C16.0685,31.6248 16.4965,32.0008 16.9995,32.0008 L17.0275,32.0008 C17.5435,31.9858 17.9635,31.5808 17.9985,31.0658 C18.2915,26.5878 19.7205,23.1468 22.2535,20.8328 C24.5025,18.7298 27.8165,17.4388 32.1035,16.9958 C32.6195,16.9418 33.0095,16.5018 32.9995,15.9828 C32.9905,15.4638 32.5845,15.0378 32.0665,15.0028" id="Fill-1"></path>
                <path d="M11.3745,24.8755 C10.4785,24.8755 9.6685,24.5345 8.9595,23.9005 C8.3975,23.1625 8.1245,22.4185 8.1245,21.6255 C8.1245,21.3555 7.9115,21.1345 7.6415,21.1255 C7.3905,21.1235 7.1435,21.3235 7.1255,21.5935 C7.0555,22.6745 6.6715,23.4995 5.9775,24.0965 C5.2785,24.6205 4.5905,24.8755 3.8745,24.8755 C3.6065,24.8755 3.3865,25.0865 3.3755,25.3545 C3.3645,25.6225 3.5655,25.8515 3.8325,25.8735 C4.6795,25.9445 5.4165,26.2365 6.0325,26.7165 C6.7335,27.4525 7.0905,28.2465 7.1255,29.1455 C7.1355,29.4135 7.3565,29.6255 7.6245,29.6255 L7.6345,29.6255 C7.9065,29.6205 8.1245,29.3975 8.1245,29.1255 C8.1245,28.2705 8.4275,27.5175 9.0125,26.8605 C9.6745,26.2685 10.4595,25.9455 11.4125,25.8745 C11.6805,25.8545 11.8845,25.6255 11.8745,25.3565 C11.8645,25.0885 11.6435,24.8755 11.3745,24.8755" id="Fill-4"></path>
                <path d="M22.5864,7.1235 C23.4974,7.1935 24.2824,7.5355 24.9294,8.1085 C25.4964,8.8185 25.8064,9.5725 25.8774,10.4175 C25.8984,10.6775 26.1164,10.8755 26.3744,10.8755 L26.3964,10.8755 C26.6634,10.8635 26.8754,10.6435 26.8754,10.3755 C26.8754,9.5195 27.1784,8.7655 27.7544,8.1175 C28.4944,7.4845 29.2754,7.1595 30.1454,7.1245 C30.4174,7.1135 30.6304,6.8875 30.6254,6.6155 C30.6194,6.3425 30.3974,6.1245 30.1254,6.1245 C29.2674,6.1245 28.5324,5.8405 27.8814,5.2575 C27.2044,4.6475 26.8754,3.8695 26.8754,2.8745 C26.8754,2.6055 26.6624,2.3855 26.3934,2.3755 C26.1214,2.3545 25.8964,2.5695 25.8764,2.8375 C25.8054,3.7885 25.4634,4.5915 24.8694,5.2565 C24.2174,5.8405 23.4824,6.1245 22.6254,6.1245 C22.3564,6.1245 22.1354,6.3375 22.1254,6.6055 C22.1154,6.8735 22.3184,7.1025 22.5864,7.1235" id="Fill-6"></path>
            </g>
        </g>
    </g>
</svg>