<svg id="ba27b727-9051-4bd8-b393-e9740cb45c1e" data-name="Layer 1" xmlns="http://www.w3.org/2000/svg" viewBox="0 0 24 30"><title>data-integrations</title><path id="bc082eba-85ec-42ab-a55d-60e98a203a6a" data-name="Fill-1" d="M26,22.3C23.7,24.1,20.3,25,16,25s-7.7-.9-10-2.7V25c0,1.1,1,2,2.9,2.8A18.83,18.83,0,0,0,16,29a18.83,18.83,0,0,0,7.1-1.2C25,27,26,26.1,26,25Zm0-6C23.7,18.1,20.3,19,16,19s-7.7-.9-10-2.7V19c0,1.1,1,2,2.9,2.8A18.83,18.83,0,0,0,16,23a18.83,18.83,0,0,0,7.1-1.2C25,21,26,20.1,26,19Zm0-6C23.7,12.1,20.3,13,16,13s-7.7-.9-10-2.7V13c0,1.1,1,2,2.9,2.8A18.83,18.83,0,0,0,16,17a18.83,18.83,0,0,0,7.1-1.2C25,15,26,14.1,26,13ZM26,7c0-1.1-1-2-2.9-2.8A18.83,18.83,0,0,0,16,3,18.83,18.83,0,0,0,8.9,4.2C7,5,6,5.9,6,7S7,9,8.9,9.8A18.83,18.83,0,0,0,16,11a18.83,18.83,0,0,0,7.1-1.2C25,9,26,8.1,26,7Zm2,19.1c-.5,1.4-1.8,2.6-4.1,3.5A21.42,21.42,0,0,1,16,31a21.42,21.42,0,0,1-7.9-1.4c-2.3-.9-3.7-2.1-4.1-3.5V7C4,5.3,5.2,3.9,7.5,2.8A18.41,18.41,0,0,1,16,1a19.8,19.8,0,0,1,8.5,1.7C26.8,3.9,28,5.3,28,7Z" transform="translate(-4 -1)" fill="#1f2555" fill-rule="evenodd"/></svg>