<svg id="b94f5788-f994-4de3-8bc3-c5c66f732e70" data-name="Layer 1" xmlns="http://www.w3.org/2000/svg" viewBox="0 0 20 32"><title>mobility</title><path id="fc214323-3076-4b82-9bfd-b41192da17fa" data-name="Page-1" d="M14.6,27.4a1.72,1.72,0,0,1-.2-2.4,1.7,1.7,0,0,1,2.3-.7,1.71,1.71,0,0,1,1.2,2.1c-.1,1-.7,1.5-1.8,1.6a1.75,1.75,0,0,1-1.5-.6ZM24,22H8v6a1.68,1.68,0,0,0,.6,1.4A2.25,2.25,0,0,0,10,30H22a1.68,1.68,0,0,0,1.4-.6A2.25,2.25,0,0,0,24,28ZM24,4a1.68,1.68,0,0,0-.6-1.4A2.25,2.25,0,0,0,22,2H10a1.68,1.68,0,0,0-1.4.6A2.25,2.25,0,0,0,8,4V20H24V4Zm2,0V28a4.1,4.1,0,0,1-4,4H10a3.78,3.78,0,0,1-2.8-1.2A3.78,3.78,0,0,1,6,28V4A3.78,3.78,0,0,1,7.2,1.2,3.78,3.78,0,0,1,10,0H22a3.78,3.78,0,0,1,2.8,1.2A3.78,3.78,0,0,1,26,4Z" transform="translate(-6)" fill="#1f2555" fill-rule="evenodd"/></svg>