<svg height="1000" viewBox="0 0 1440 1000" width="1440" xmlns="http://www.w3.org/2000/svg" xmlns:xlink="http://www.w3.org/1999/xlink"><defs><path id="a" d="m0 0h1440v1000h-1440z"/><mask id="b" fill="#fff"><use fill="#fff" fill-rule="evenodd" xlink:href="#a"/></mask></defs><g fill="none" fill-rule="evenodd"><use fill="#fff" xlink:href="#a"/><g mask="url(#b)" stroke="#b7e4e6"><g transform="matrix(-.17364818 -.98480775 .98480775 -.17364818 943.981592 486.688598)"><path d="m2.66767171 472.922286c-6.38082942-100.030268-11.7916672-216.361422 115.98328729-200.628326 160.187192 19.727439 149.405108-49.173351 153.337864-137.682741 3.932755-88.5093899 21.623555-173.0904578 137.606842-116.0472585 115.983288 57.0365971 133.680686 62.9389837 237.872306 27.5378686 104.185022-35.4077174 198.544754 25.5704063 169.055688 125.8779669-29.489066 100.314164-72.736177 121.956248-60.937911 222.263809s-64.877264 94.411777-141.546196 51.140813c-76.662334-43.277567-172.988443-57.0432-184.786709 31.472793-11.791667 88.50939-60.937911 180.953704-145.465755 84.574465-84.534442-96.379239-137.613441-3.928322-165.136129 76.704617-27.5226882 80.646144-104.1850215 19.674622-115.98328729-165.214007z" stroke-width="5.9466"/><path d="m43.5030005 459.279454c-5.7407669-90.034503-10.6105209-194.72594 104.3829785-180.564173 144.165834 17.753375 134.465918-44.254695 138.002758-123.917107 3.543439-79.6624128 19.465819-155.7794319 123.848798-104.4471547 104.382979 51.3388797 120.305359 56.6536677 214.077817 24.7847419 93.772458-31.8623241 178.696217 23.0153464 152.156717 113.3007338-26.539499 90.278786-65.45794 109.755341-54.847419 200.027525 10.61712 90.285387-58.384259 84.977201-127.379039 46.030692-69.001379-38.939906-155.700157-51.332277-166.310677 28.323533-10.623719 79.662413-54.854018 162.863616-130.929077 76.117019-76.081658-86.733392-123.848798-3.538791-148.619878 69.039437-24.771079 72.584831-93.7724576 17.70716-104.3829785-148.695247z" stroke-width="5.3526"/><path d="m84.3383292 445.636623c-5.107303-80.025535-9.4425718-173.090458 92.7892688-160.506623 128.137877 15.785913 119.520128-39.33604 122.661053-110.13827 3.147524-70.815434 17.301484-138.475007 110.090753-92.8470498 92.782671 45.6345598 106.943229 50.3551478 190.296526 22.0316158 83.346697-28.3235335 158.834483 20.460286 135.24455 100.710296-23.589933 80.243408-58.186302 97.561037-48.756928 177.811047 9.442572 80.25001-51.891254 75.522819-113.225079 40.907368-61.340425-34.61545-138.398673-45.627957-147.834646 25.180875-9.435973 70.808833-48.750329 144.760323-116.379202 67.659573-67.622275-77.10075-110.084155-3.14926-132.097027 61.374257-22.01947 64.510313-83.3532956 15.726493-92.7892688-132.183089z" stroke-width="4.7586"/><path d="m117.002633 434.721169c-4.592613-72.017039-8.492376-155.779432 83.505064-144.450019 115.336626 14.20138 107.576693-35.401115 110.407484-99.132365 2.824194-63.73125 15.566057-124.6235453 99.07112-83.557724 83.518261 41.072424 96.246927 45.317653 171.266213 19.826474 75.019286-25.484578 142.958293 18.413597 121.730653 90.641907-21.234239 72.221708-52.372951 87.79635-43.880575 160.024661 8.485778 72.221708-46.711366 67.976479-101.90851 36.820593-55.197144-31.155887-124.554846-41.072424-133.047222 22.665428-8.492376 63.724648-43.880575 130.28165-104.739303 60.892295-60.865326-69.389355-99.084317-2.832353-118.89986 55.23419-19.815544 58.05334-75.012688 14.155165-83.505064-118.96544z" stroke-width="4.2834"/></g></g><path d="m1473-308c272.82359 0 494 221.1739194 494 494.005568 0 272.820513-221.17641 493.994432-494 493.994432-272.83472 0-494-221.173919-494-493.994432 0-272.8316486 221.16528-494.005568 494-494.005568" fill="#86cac6" mask="url(#b)"/><path d="m1371.31975 1672h-177.28754c0-148.23939 68.61602-218.2708 123.94654-278.95436 46.81982-51.49043 77.74567-84.32939 77.74567-160.96836.04421-76.63898-30.92585-109.94201-77.81199-161.34404-55.24209-60.74987-123.90233-136.018709-123.94654-281.075863.06632-145.211846 68.77077-220.657477 123.96865-281.341045 46.79772-51.578824 77.78988-85.544827 77.83409-162.227996 0-76.68317-30.97006-110.781766-77.81199-162.338491-55.2863-60.794063-123.99075-136.3501884-123.94654-281.5620343-.0221-145.3444397 68.63813-220.9005647 123.81391-281.6946277 46.90825-51.623022 77.90041-85.67742 77.8783-162.493183l177.30964.132593c0 145.233945-68.68234 220.81217-123.85811 281.584134-46.95246 51.578823-77.8562 85.655321-77.81199 162.404787-.06631 76.8157627 30.94795 110.8480626 77.78988 162.5152816 55.2863 60.6172714 123.88022 136.2396944 123.88022 281.5399354.04421 145.14555-68.61602 220.701675-123.85811 281.495738-46.86404 51.556725-77.8562 85.589025-77.83409 162.227996 0 76.661071 30.97005 110.560777 77.83409 162.029106 55.19788 60.727769 123.94654 136.283889 123.88027 281.407339.06627 145.18975-68.61608 218.2045-123.88027 278.91017-46.86404 51.55672-77.83409 96.21859-77.83409 159.75292" fill="#ffe399" mask="url(#b)"/><path d="m1473-308c5.80722 0 11.59104.100209 17.34983.298992-13.74899 17.191023-27.86662 32.736433-41.19599 47.417735-46.95246 51.578823-77.8562 85.655321-77.81199 162.404787-.06631 76.8157627 30.94795 110.8480626 77.78988 162.5152816 55.2863 60.6172714 123.88022 136.2396944 123.88022 281.5399354.04421 145.14555-68.61602 220.701675-123.85811 281.495738-15.67077 17.239949-29.56682 32.520398-41.12199 48.089632-62.23464-8.17144-120.82107-27.931308-173.52294-57.039105l.00405-.013619c24.19053-45.297655 55.53033-79.729902 83.42158-110.393045 46.79772-51.578824 77.78988-85.544827 77.83409-162.227996 0-76.68317-30.97006-110.781766-77.81199-162.338491-55.2863-60.794063-123.99075-136.3501884-123.94654-281.5620343-.00855-56.2744727 10.27895-102.0870897 26.09342-140.6316597 73.97545-44.174731 160.47123-69.556151 252.89648-69.556151z" fill="#5f67b9" mask="url(#b)"/><g mask="url(#b)" stroke="#86cac6"><g transform="matrix(-.17364818 -.98480775 .98480775 -.17364818 1254.981592 1728.688598)"><path d="m2.66767171 472.922286c-6.38082942-100.030268-11.7916672-216.361422 115.98328729-200.628326 160.187192 19.727439 149.405108-49.173351 153.337864-137.682741 3.932755-88.5093899 21.623555-173.0904578 137.606842-116.0472585 115.983288 57.0365971 133.680686 62.9389837 237.872306 27.5378686 104.185022-35.4077174 198.544754 25.5704063 169.055688 125.8779669-29.489066 100.314164-72.736177 121.956248-60.937911 222.263809s-64.877264 94.411777-141.546196 51.140813c-76.662334-43.277567-172.988443-57.0432-184.786709 31.472793-11.791667 88.50939-60.937911 180.953704-145.465755 84.574465-84.534442-96.379239-137.613441-3.928322-165.136129 76.704617-27.5226882 80.646144-104.1850215 19.674622-115.98328729-165.214007z" stroke-width="5.9466"/><path d="m43.5030005 459.279454c-5.7407669-90.034503-10.6105209-194.72594 104.3829785-180.564173 144.165834 17.753375 134.465918-44.254695 138.002758-123.917107 3.543439-79.6624128 19.465819-155.7794319 123.848798-104.4471547 104.382979 51.3388797 120.305359 56.6536677 214.077817 24.7847419 93.772458-31.8623241 178.696217 23.0153464 152.156717 113.3007338-26.539499 90.278786-65.45794 109.755341-54.847419 200.027525 10.61712 90.285387-58.384259 84.977201-127.379039 46.030692-69.001379-38.939906-155.700157-51.332277-166.310677 28.323533-10.623719 79.662413-54.854018 162.863616-130.929077 76.117019-76.081658-86.733392-123.848798-3.538791-148.619878 69.039437-24.771079 72.584831-93.7724576 17.70716-104.3829785-148.695247z" stroke-width="5.3526"/><path d="m84.3383292 445.636623c-5.107303-80.025535-9.4425718-173.090458 92.7892688-160.506623 128.137877 15.785913 119.520128-39.33604 122.661053-110.13827 3.147524-70.815434 17.301484-138.475007 110.090753-92.8470498 92.782671 45.6345598 106.943229 50.3551478 190.296526 22.0316158 83.346697-28.3235335 158.834483 20.460286 135.24455 100.710296-23.589933 80.243408-58.186302 97.561037-48.756928 177.811047 9.442572 80.25001-51.891254 75.522819-113.225079 40.907368-61.340425-34.61545-138.398673-45.627957-147.834646 25.180875-9.435973 70.808833-48.750329 144.760323-116.379202 67.659573-67.622275-77.10075-110.084155-3.14926-132.097027 61.374257-22.01947 64.510313-83.3532956 15.726493-92.7892688-132.183089z" stroke-width="4.7586"/><path d="m117.002633 434.721169c-4.592613-72.017039-8.492376-155.779432 83.505064-144.450019 115.336626 14.20138 107.576693-35.401115 110.407484-99.132365 2.824194-63.73125 15.566057-124.6235453 99.07112-83.557724 83.518261 41.072424 96.246927 45.317653 171.266213 19.826474 75.019286-25.484578 142.958293 18.413597 121.730653 90.641907-21.234239 72.221708-52.372951 87.79635-43.880575 160.024661 8.485778 72.221708-46.711366 67.976479-101.90851 36.820593-55.197144-31.155887-124.554846-41.072424-133.047222 22.665428-8.492376 63.724648-43.880575 130.28165-104.739303 60.892295-60.865326-69.389355-99.084317-2.832353-118.89986 55.23419-19.815544 58.05334-75.012688 14.155165-83.505064-118.96544z" stroke-width="4.2834"/></g></g></g></svg>