<svg height="1000" viewBox="0 0 1440 1000" width="1440" xmlns="http://www.w3.org/2000/svg" xmlns:xlink="http://www.w3.org/1999/xlink"><defs><path id="a" d="m0 0h1440v1000h-1440z"/><mask id="b" fill="#fff"><use fill="#fff" fill-rule="evenodd" xlink:href="#a"/></mask></defs><g fill="none" fill-rule="evenodd"><use fill="#f5f5fa" xlink:href="#a"/><g mask="url(#b)"><g transform="matrix(-.64278761 -.76604444 .76604444 -.64278761 1472.255754 1631.295101)"><path d="m722.167564 464.882547c-1.219902-28.430712 2.823595-56.092426 8.854572-82.689374 15.75593-69.549875 45.102121-131.779489 29.62718-181.231919-21.389412-68.359409-128.405004-112.5915318-253.294221-151.6846839-124.83439-39.36673752-267.487579-73.8754836-340.332198-25.8501342-73.0365133 48.1510509-76.2233369 178.5552181-102.9241211 282.5990501-26.6596638 103.755459-76.6962207 181.305861-61.17330584 248.866695 15.65998254 67.716113 96.83146304 125.716242 189.54404194 193.587633 10.081328 7.364626 209.418856 146.434799 312.377245 154.568423 115.335599 9.257542 241.753121-49.970025 268.364812-136.208616 26.556863-85.950218-46.630425-199.177651-51.044005-301.957074" fill="#fff"/><path d="m835.391025 206.472225 5.648811 5.64648-127.346527 127.35352h-.004663l-5.64881-5.651142zm-13.269269-13.745053 5.64881 5.64881-127.351189 127.35119-5.648811-5.651142zm-13.269269-13.745054 5.64881 5.648712-127.351189 127.351288-5.648811-5.651043zm-13.912057-12.979009 5.64881 5.648811-127.351189 127.351189-5.648811-5.651142zm-13.269269-13.745053 5.64881 5.648711-127.351189 127.351289-5.648811-5.651043zm-13.26927-13.745054 5.648811 5.648811-127.351189 127.351189-5.648811-5.651142zm-13.912056-12.979009 5.64881 5.648712-127.351189 127.351288-5.648811-5.651043zm-13.26927-13.745053 5.648811 5.64881-127.351189 127.35119-5.648811-5.648811zm-13.269269-13.7450537 5.648811 5.6488107-127.351189 127.351189-5.648811-5.64881zm-13.912057-12.979009 5.648811 5.651142-127.351189 127.3488577-5.648811-5.64881z" fill="#f76923"/><path d="m757.459821 284.401189c-1.218608 5.013212-2.542234 10.094434-3.938303 15.240623l-39.828209 39.830413h-.004663l-5.64881-5.651142zm6.329401-33.341892c-.52955 4.379239-1.216004 8.823971-2.032769 13.331713l-61.337076 61.336162-5.648811-5.651142zm.932205-27.945447c.257377 3.616996.345328 7.289796.282398 11.016667l-77.853717 77.851601-5.648811-5.651043zm-4.236377-22.656587.164266.503991c.868017 2.773876 1.595014 5.587952 2.191299 8.441267l-89.602564 89.600588-5.648811-5.651142zm-8.367159-18.642715c1.418571 2.429601 2.722731 4.891454 3.90875 7.386604l-96.057859 96.056904-5.648811-5.651043zm-11.190191-15.825697c1.742624 2.088132 3.397095 4.201125 4.960588 6.339772l-99.188775 99.184379-5.648811-5.651142zm-13.120112-13.773594c1.977289 1.841131 3.883864 3.702215 5.717453 5.583888l-100.737585 100.734848-5.648811-5.651043zm-14.668481-12.341748c2.156608 1.651521 4.255075 3.319456 6.2935 5.004338l-99.91442 99.911093-5.648811-5.648811zm-15.835352-11.17752c2.298349 1.502448 4.547998 3.018653 6.747312 4.549074l-97.802149 97.798823-5.648811-5.64881zm-16.692759-10.200726c2.41365 1.38342 4.785919 2.778536 7.115362 4.185756l-95.389497 95.383858-5.648811-5.64881z" fill="#ffc836"/></g></g><g mask="url(#b)"><g transform="translate(895.774411 -492.695937)"><path d="m4.95494594 877.675921c-11.84796642-185.641159-21.91035254-401.538532 215.36465806-372.337882 297.432296 36.609328 277.425905-91.252031 284.726068-255.525417 7.300162-164.2635213 40.160758-321.2170147 255.525417-215.3646587 215.364658 105.8622207 248.215391 116.8124647 441.679561 51.1011374 193.47404-65.7014624 368.6878 47.4609213 313.92672 233.6249293-54.74136 186.164009-135.05301 226.314903-113.15252 412.488776 21.90049 186.164009-120.46255 175.213765-262.82558 94.902113-142.363035-80.301788-321.226881-105.852356-343.127369 58.411165-21.900487 164.263516-113.162383 335.827206-270.125742 156.963356-156.963359-178.863844-255.515552-7.30016-306.626555 142.36304-51.111002 149.66319-193.4641706 36.50081-215.36465806-306.626559" fill="#f76923" transform="matrix(-1 0 0 -1 1526.347428 1249)"/><path d="m321.068805 573.695937c-65.958991 0-121.909911 20.191758-166.743169 60.277803-61.7019346 55.155496-97.1000473 145.46337-97.1000473 247.764408 0 100.69034 49.4384213 204.398922 125.9348963 264.212382 37.878374 29.61651 99.043644 60.9453 175.228273 41.95794 287.492724-71.63975 309.836831-252.45865 309.836831-306.170322 0-159.58962-126.449804-285.311065-307.508867-305.749507-13.583418-1.530888-26.811478-2.292704-39.647917-2.292704m-8.233552 656.000003c-52.849809 0-105.315176-18.84361-151.839836-55.23878-84.9035157-66.39541-139.7698283-181.271746-139.7698283-292.671156 0-112.575321 39.7642948-212.701957 109.1088143-274.705851 60.654695-54.237075 141.72105-77.421392 234.400436-66.91804 199.895008 22.552809 339.49075 163.037868 339.49075 341.623891 0 161.041726-126.038743 288.599016-337.155087 341.217406-17.974448 4.47862-36.130236 6.69253-54.235249 6.69253" fill="#10a5ac"/><path d="m57.2255887 881.738148c0 100.69034 49.4384213 204.398922 125.9348963 264.212382 16.224757 12.68589 36.722047 25.68593 60.842134 34.91128-27.379832 2.59158-53.695923 1.55433-78.252617-2.76-1.590811-1.19525-3.176117-2.40985-4.754585-3.64465-81.7135476-63.90083-135.6045873-172.70799-139.5387921-280.102797 15.8490598-46.22145 32.985783-82.85731 48.748976-116.000818-8.5185963 32.259427-12.9800122 67.066233-12.9800122 103.384603zm307.5092503-341.576035c199.895008 22.552809 339.49075 163.037868 339.49075 341.623891 0 99.062973-47.692486 185.455596-133.543113 249.528676l-.010492-.01042c-17.676101-4.53871-34.471615-7.2909-51.387607-8.30984l.013048.00547c135.787494-84.12862 148.928164-200.07135 148.928164-241.261742 0-159.58962-126.449804-285.311065-307.508867-305.749507-13.583418-1.530888-26.811478-2.292704-39.647917-2.292704-65.958991 0-121.909911 20.191758-166.743169 60.277803-17.030808 15.223878-32.057644 33.12586-44.889267 53.218944 7.734707-23.199571 13.403697-47.634133 16.001844-75.609976l-.006927-.008859c1.617509-1.519282 3.251928-3.017297 4.903117-4.493696 60.654695-54.237075 141.72105-77.421392 234.400436-66.91804z" fill="#ffc836"/></g></g><g fill="#ffc836"><path d="m918.999742 18.1680661c12.622709 1.4185365 23.000258 10.2601139 23.000258 22.9164807 0 12.6553393-10.297622 22.9154532-23.000258 22.9154532-12.70212 0-22.999742-10.2601139-22.999742-22.9154532 0-12.6563668 7.55073-24.6525311 22.999742-22.9164807" mask="url(#b)"/><path d="m1245.99992 778.051151c3.8417.431728 7.00008 3.122643 7.00008 6.974581 0 3.851625-3.13406 6.974268-7.00008 6.974268-3.86586 0-6.99992-3.122643-6.99992-6.974268 0-3.851938 2.29805-7.502945 6.99992-6.974581" mask="url(#b)"/><path d="m953.499613 822.252099c18.934064 2.127805 34.500387 15.390171 34.500387 34.374721 0 18.983009-15.446434 34.37318-34.500387 34.37318-19.053179 0-34.499613-15.390171-34.499613-34.37318 0-18.98455 11.326095-36.978796 34.499613-34.374721" mask="url(#b)"/><path d="m1275.99992 612.051151c3.8417.431728 7.00008 3.122643 7.00008 6.974581 0 3.851625-3.13406 6.974268-7.00008 6.974268-3.86586 0-6.99992-3.122643-6.99992-6.974268 0-3.851938 2.29805-7.502945 6.99992-6.974581" mask="url(#b)"/><path d="m1328.99985 796.094994c7.13458.801781 13.00015 5.799195 13.00015 12.952793 0 7.153018-5.8204 12.952213-13.00015 12.952213-7.17945 0-12.99985-5.799195-12.99985-12.952213 0-7.153598 4.2678-13.934039 12.99985-12.952793" mask="url(#b)"/><path d="m1403.99985 716.094994c7.13458.801781 13.00015 5.799195 13.00015 12.952793 0 7.153018-5.8204 12.952213-13.00015 12.952213-7.17945 0-12.99985-5.799195-12.99985-12.952213 0-7.153598 4.2678-13.934039 12.99985-12.952793" mask="url(#b)"/></g><path d="m1615.70297 271.407348 5.64882 5.646479-127.34653 127.353521h-.00466l-5.64881-5.651142zm-13.26926-13.745054 5.64881 5.648811-127.35119 127.351189-5.64881-5.651142zm-13.26927-13.745053 5.64881 5.648712-127.35119 127.351288-5.64881-5.651043zm-13.91206-12.979009 5.64881 5.648811-127.35119 127.351189-5.64881-5.651142zm-13.26927-13.745054 5.64881 5.648712-127.35119 127.351288-5.64881-5.651042zm-13.26927-13.745053 5.64881 5.648811-127.35119 127.351189-5.64881-5.651142zm-13.91206-12.979009 5.64882 5.648712-127.35119 127.351288-5.64881-5.651043zm-13.26926-13.745054 5.64881 5.648811-127.35119 127.351189-5.64881-5.64881zm-13.26927-13.745053 5.64881 5.648811-127.35119 127.351189-5.64881-5.648811zm-13.91206-12.979009 5.64881 5.651142-127.35119 127.348858-5.64881-5.648811z" fill="#e8af17" mask="url(#b)" transform="matrix(-.64278761 -.76604444 .76604444 -.64278761 2242.26331 1599.991901)"/></g></svg>