<svg height="1000" viewBox="0 0 1440 1000" width="1440" xmlns="http://www.w3.org/2000/svg" xmlns:xlink="http://www.w3.org/1999/xlink"><defs><path id="a" d="m0 0h1440v1000h-1440z"/><mask id="b" fill="#fff"><use fill="#fff" fill-rule="evenodd" xlink:href="#a"/></mask></defs><g fill="none" fill-rule="evenodd"><use fill="#f5f5fa" xlink:href="#a"/><g mask="url(#b)"><g transform="matrix(-.64278761 -.76604444 .76604444 -.64278761 1472.255754 1593.295101)"><path d="m722.167564 464.882547c-1.219902-28.430712 2.823595-56.092426 8.854572-82.689374 15.75593-69.549875 45.102121-131.779489 29.62718-181.231919-21.389412-68.359409-128.405004-112.5915318-253.294221-151.6846839-124.83439-39.36673752-267.487579-73.8754836-340.332198-25.8501342-73.0365133 48.1510509-76.2233369 178.5552181-102.9241211 282.5990501-26.6596638 103.755459-76.6962207 181.305861-61.17330584 248.866695 15.65998254 67.716113 96.83146304 125.716242 189.54404194 193.587633 10.081328 7.364626 209.418856 146.434799 312.377245 154.568423 115.335599 9.257542 241.753121-49.970025 268.364812-136.208616 26.556863-85.950218-46.630425-199.177651-51.044005-301.957074" fill="#fff"/><path d="m835.391025 206.472225 5.648811 5.64648-127.346527 127.35352h-.004663l-5.64881-5.651142zm-13.269269-13.745053 5.64881 5.64881-127.351189 127.35119-5.648811-5.651142zm-13.269269-13.745054 5.64881 5.648712-127.351189 127.351288-5.648811-5.651043zm-13.912057-12.979009 5.64881 5.648811-127.351189 127.351189-5.648811-5.651142zm-13.269269-13.745053 5.64881 5.648711-127.351189 127.351289-5.648811-5.651043zm-13.26927-13.745054 5.648811 5.648811-127.351189 127.351189-5.648811-5.651142zm-13.912056-12.979009 5.64881 5.648712-127.351189 127.351288-5.648811-5.651043zm-13.26927-13.745053 5.648811 5.64881-127.351189 127.35119-5.648811-5.648811zm-13.269269-13.7450537 5.648811 5.6488107-127.351189 127.351189-5.648811-5.64881zm-13.912057-12.979009 5.648811 5.651142-127.351189 127.3488577-5.648811-5.64881z" fill="#86cac6"/><path d="m757.459821 284.401189c-1.218608 5.013212-2.542234 10.094434-3.938303 15.240623l-39.828209 39.830413h-.004663l-5.64881-5.651142zm6.329401-33.341892c-.52955 4.379239-1.216004 8.823971-2.032769 13.331713l-61.337076 61.336162-5.648811-5.651142zm.932205-27.945447c.257377 3.616996.345328 7.289796.282398 11.016667l-77.853717 77.851601-5.648811-5.651043zm-4.236377-22.656587.164266.503991c.868017 2.773876 1.595014 5.587952 2.191299 8.441267l-89.602564 89.600588-5.648811-5.651142zm-8.367159-18.642715c1.418571 2.429601 2.722731 4.891454 3.90875 7.386604l-96.057859 96.056904-5.648811-5.651043zm-11.190191-15.825697c1.742624 2.088132 3.397095 4.201125 4.960588 6.339772l-99.188775 99.184379-5.648811-5.651142zm-13.120112-13.773594c1.977289 1.841131 3.883864 3.702215 5.717453 5.583888l-100.737585 100.734848-5.648811-5.651043zm-14.668481-12.341748c2.156608 1.651521 4.255075 3.319456 6.2935 5.004338l-99.91442 99.911093-5.648811-5.648811zm-15.835352-11.17752c2.298349 1.502448 4.547998 3.018653 6.747312 4.549074l-97.802149 97.798823-5.648811-5.64881zm-16.692759-10.200726c2.41365 1.38342 4.785919 2.778536 7.115362 4.185756l-95.389497 95.383858-5.648811-5.64881z" fill="#b7e4e6"/></g></g><g mask="url(#b)"><g transform="translate(576.528404 -907)"><path d="m166.54475 1366.33819c-11.847967-185.64116-21.910353-401.53853 215.364658-372.33788 297.432296 36.60933 277.425905-91.252031 284.726067-255.525417 7.300163-164.263521 40.160759-321.217015 255.525417-215.364658 215.364658 105.862221 248.215388 116.812464 441.679558 51.101137 193.47404-65.701462 368.6878 47.460921 313.92672 233.62493-54.74135 186.164008-135.05301 226.314898-113.15252 412.488778 21.90049 186.16401-120.46254 175.21376-262.82558 94.90211-142.36303-80.30179-321.226878-105.85236-343.127365 58.41116-21.900488 164.26353-113.162384 335.82721-270.125742 156.96336-156.963359-178.86384-255.515553-7.30016-306.626555 142.36304-51.111003 149.66319-202.124425 31.50081-224.024913-311.62656" fill="#9fdad6" transform="matrix(-.5 -.8660254 .8660254 -.5 420.774674 2468.253897)"/><path d="m1020.09093 89c-162.900354 0-301.083559 49.860615-411.809233 148.847285-152.386611 136.19849-239.810101 359.200675-239.810101 611.818238 0 248.640177 122.099146 504.733477 311.024155 652.434127 93.549044 73.13368 244.610243 150.49557 432.765079 103.60903 710.02704-176.90396 765.21077-623.409979 765.21077-756.043157 0-394.083398-312.29584-704.534259-759.46134-755.004023-33.54727-3.7803054-66.2169-5.6615-97.91933-5.6615m-20.347732 1620c-130.538254 0-260.126944-46.53718-375.042173-136.42062-209.71044-163.97365-345.229429-447.67834-345.229429-722.796253 0-278.022 98.217226-525.300063 269.497175-678.428177 149.816207-133.9467657 350.048917-191.2039886 578.965649-165.26435128 493.73774 55.69761788 838.53718 402.64698928 838.53718 843.69252828 0 397.717203-311.31385 712.739483-832.76813 842.688643-44.39663 11.06065-89.24116 16.52823-133.960272 16.52823" fill="#86cac6"/><path d="m1771.90232 1343.75725-1.23428 1.376c-143.25148 157.60537-360.5938 278.46547-636.96457 347.33852-4.43185 1.10412-8.86815 2.1525-13.30835 3.14528l-.00419.01504c-10.68532-15.38597-20.63493-33.65142-29.74144-55.1216-4.09059-9.64476-8.16128-18.85304-12.2147-27.64033l.00052.02789c11.13565-1.95841 22.41235-4.34531 33.82552-7.18937 285.8003-71.20743 465.50119-186.0965 578.21089-306.61448l-.00935-.0176c48.7408-6.41998 76.85549 11.22253 81.43995 44.68065zm-1403.430724-494.091727c0 248.640177 122.099146 504.733477 311.024155 652.434127 11.016307 8.6122 22.830155 17.28303 35.408201 25.8027-31.934816 16.21222-63.992542 30.84457-94.680082 41.14666l4.477155 3.53037c-87.332026-68.28535-161.797541-157.33483-218.967437-257.88127l.008648-.0141c-11.217984-124.54536-28.689267-176.81934-99.518158-249.44752l-.009658-.00129c-17.462196-70.872332-26.742824-143.456223-26.742824-215.452073 0-84.801648 9.137722-166.743008 26.699341-244.024771l.014231-.002066c35.34998-7.446609 66.587419-11.623046 95.173412-14.513421-21.577653 80.535791-32.886984 167.563661-32.886984 258.422654z" fill="#b7e4e6"/></g></g><path d="m947.999742-14.8319339c12.622709 1.4185365 23.000258 10.26011386 23.000258 22.9164807 0 12.6553393-10.297622 22.9154532-23.000258 22.9154532-12.70212 0-22.999742-10.2601139-22.999742-22.9154532 0-12.65636684 7.55073-24.6525311 22.999742-22.9164807" fill="#10a5ac" mask="url(#b)"/><path d="m1245.99992 740.051151c3.8417.431728 7.00008 3.122643 7.00008 6.974581 0 3.851625-3.13406 6.974268-7.00008 6.974268-3.86586 0-6.99992-3.122643-6.99992-6.974268 0-3.851938 2.29805-7.502945 6.99992-6.974581" fill="#10a5ac" mask="url(#b)"/><path d="m953.499613 784.252099c18.934064 2.127805 34.500387 15.390171 34.500387 34.374721 0 18.983009-15.446434 34.37318-34.500387 34.37318-19.053179 0-34.499613-15.390171-34.499613-34.37318 0-18.98455 11.326095-36.978796 34.499613-34.374721" fill="#b7e4e6" mask="url(#b)"/><path d="m1528.49774-83.5275952c110.58591 12.4276135 201.50226 89.88751962 201.50226 200.7682992 0 110.871776-90.21613 200.759296-201.50226 200.759296-111.28161 0-201.49774-89.88752-201.49774-200.759296 0-110.88077958 66.15096-215.9776096 201.49774-200.7682992" fill="#10a5ac" mask="url(#b)"/><g mask="url(#b)" stroke="#86cac6"><g transform="matrix(-.98162718 -.190809 .190809 -.98162718 1668.991479 208.358352)"><path d="m1.85958138 329.569914c-4.44795044-69.709057-8.21973882-150.77787 80.84966372-139.813796 111.6633349 13.747651 104.1473569-34.267907 106.8888029-95.9482996 2.741446-61.6803922 15.073354-120.6232166 95.923018-80.8709722 80.849664 39.7476434 93.186172 43.8608965 165.816097 19.19058 72.625325-24.67491743 138.401634 17.8194957 117.845388 87.7217928-20.556247 69.906899-50.702956 84.988826-42.478617 154.891124 8.224339 69.902297-45.224663 65.793645-98.669064 35.638991-53.439802-30.159255-120.586834-39.752244-128.811173 21.932749-8.219739 61.680392-42.478616 126.102953-101.401311 58.938223-58.927293-67.164729-95.927617-2.737567-115.1131409 53.453886-19.1855235 56.200656-72.6253252 13.710844-80.84966372-115.134278z" stroke-width="4.1446"/><path d="m30.3250843 320.062502c-4.0017755-62.743212-7.396385-135.700543 72.7633177-125.831496 100.495161 12.371965 93.733541-30.840196 96.199002-86.35531 2.470062-55.5151135 13.569239-108.55951465 86.332556-72.7870957 72.763318 35.77702 83.862495 39.4807881 149.229428 17.2719822 65.366932-22.2042051 124.565611 16.0389263 106.065449 78.9569755-18.500162 62.913448-45.62944 76.486263-38.233055 139.395109 7.400985 62.918049-40.698517 59.218882-88.793418 32.077853-48.099502-27.136428-108.535511-35.772419-115.931896 19.738094-7.405584 55.515113-38.237654 113.496338-91.268079 53.044401-53.035024-60.442736-86.332556-2.466112-103.599987 48.112178-17.2674314 50.582891-65.3669327 12.339759-72.7633177-103.622691z" stroke-width="3.7306"/><path d="m58.7905872 310.555091c-3.5602003-55.768166-6.5822307-120.623217 64.6815708-111.853798 89.322388 11.000881 83.315126-27.412485 85.504603-76.753118 2.194077-49.3498353 12.060523-96.5004141 76.742094-64.7032195 64.676971 31.8017955 74.548017 35.0914777 132.651957 15.3533842 58.09934-19.7380936 110.720388 14.2583571 94.276311 70.1829553-16.444078 55.919998-40.560525 67.988301-33.987493 123.912899 6.58223 55.924599-36.172371 52.630315-78.926972 28.507512-42.759201-24.122803-96.474987-31.797194-103.052618 17.54804s-33.982893 100.880522-81.125648 47.150579c-47.138156-53.729944-76.737495-2.194656-92.082234 42.77047-15.349339 44.955923-58.1039399 10.959473-64.6815708-92.115704z" stroke-width="3.3166"/><path d="m81.5602296 302.948333c-3.2014204-50.187209-5.9198678-108.559515 58.2097344-100.664277 80.398889 9.896652 74.989592-24.670317 76.962881-69.083328 1.96869-44.4130108 10.850792-86.8476115 69.060526-58.2296763 58.218933 28.6225363 67.091835 31.5809493 119.386301 13.8166655 52.294466-17.7596832 99.653409 12.8320618 84.856039 63.1665008-14.801969 50.329838-36.508151 61.183489-30.588283 111.517928 5.915268 50.329838-32.561574 47.371424-71.038415 25.659521-38.476841-21.711902-86.824728-28.622536-92.744596 15.795076-5.919868 44.40841-30.588284 90.79063-73.011704 42.434601-42.428019-48.356029-69.069724-1.973809-82.882749 38.491583-13.813025 40.45619-52.2898665 9.864446-58.2097344-82.904594z" stroke-width="2.9854"/></g></g><path d="m1453.99936 525.416512c31.28237 3.515503 57.00064 25.427238 57.00064 56.793017 0 31.363232-25.52019 56.790471-57.00064 56.790471-31.47917 0-56.99936-25.427239-56.99936-56.790471 0-31.365779 18.71268-61.095403 56.99936-56.793017" fill="#10a5ac" mask="url(#b)"/><path d="m1328.99985 758.094994c7.13458.801781 13.00015 5.799195 13.00015 12.952793 0 7.153018-5.8204 12.952213-13.00015 12.952213-7.17945 0-12.99985-5.799195-12.99985-12.952213 0-7.153598 4.2678-13.934039 12.99985-12.952793" fill="#86cac6" mask="url(#b)"/><path d="m1029.99961 736.255753c19.20847 2.158642 35.00039 15.613217 35.00039 34.872905 0 19.258125-15.67029 34.871342-35.00039 34.871342-19.32932 0-34.99961-15.613217-34.99961-34.871342 0-19.259688 11.49024-37.514721 34.99961-34.872905" fill="#10a5ac" mask="url(#b)"/></g></svg>