<svg enable-background="new 0 0 1836.8 2362" viewBox="0 0 1836.8 2362" xmlns="http://www.w3.org/2000/svg" xmlns:xlink="http://www.w3.org/1999/xlink"><mask id="a" height="14" maskUnits="userSpaceOnUse" width="14" x="532.8" y="1647"><path clip-rule="evenodd" d="m-706.2 907h1440v1000h-1440z" fill="#fff" fill-rule="evenodd"/></mask><mask id="b" height="69" maskUnits="userSpaceOnUse" width="69" x="212.8" y="1691"><path clip-rule="evenodd" d="m-706.2 907h1440v1000h-1440z" fill="#fff" fill-rule="evenodd"/></mask><mask id="c" height="26" maskUnits="userSpaceOnUse" width="26" x="609.8" y="1665"><path clip-rule="evenodd" d="m-706.2 907h1440v1000h-1440z" fill="#fff" fill-rule="evenodd"/></mask><mask id="d" height="70" maskUnits="userSpaceOnUse" width="70" x="288.8" y="1643"><path clip-rule="evenodd" d="m-706.2 907h1440v1000h-1440z" fill="#fff" fill-rule="evenodd"/></mask><mask id="e" height="46" maskUnits="userSpaceOnUse" width="46" x="215.8" y="892"><path clip-rule="evenodd" d="m-438 408.3h946.3v657.2h-946.3z" fill="#fff" fill-rule="evenodd"/></mask><mask id="f" height="114" maskUnits="userSpaceOnUse" width="114" x="690.8" y="1432"><path clip-rule="evenodd" d="m-929.5 233.4h2345.1v1628.5h-2345.1z" fill="#fff" fill-rule="evenodd"/></mask><mask id="g" height="403" maskUnits="userSpaceOnUse" width="403" x="620.8" y="822"><path clip-rule="evenodd" d="m-5107.5-3415.2h8290.3v5757.1h-8290.3z" fill="#fff" fill-rule="evenodd"/></mask><g clip-rule="evenodd" fill-rule="evenodd"><path d="m658 1648.3c-21 19.2-44.8 33.9-69 46.4-63.4 32.6-129.9 50.2-157.9 93.8-38.6 60.3-3.7 170.7 46.6 291.5 50.1 120.9 115.3 252.4 199 277.3 83.8 25 185.8-56.4 282.6-102.8 96.6-46.3 188.2-57.8 230-113.1 41.8-55.5 34.1-155 26.5-269.6-.8-12.5-22.4-254.6-82.4-338.6-67-94.3-193.7-153.1-276.8-118-83 34.8-122.7 163.6-198.6 233.1" fill="#fff"/><path d="m387.3 1727.6.7-8 179.4 15.7-.7 8zm-2 19 .7-8 179.4 15.7-.7 8zm-2 19 .7-8 179.4 15.7-.7 8zm-1 19 .7-8 179.4 15.7-.7 8zm-2 19 .7-8 179.4 15.7-.7 8zm-2 19 .7-8 179.4 15.7-.7 8zm-1 19 .7-8 179.4 15.7-.7 8zm-2 19 .7-8 179.4 15.7-.7 8zm-2 19 .7-8 179.4 15.7-.7 8zm-1 19 .7-8 179.4 15.7-.7 8z" fill="#86cac6"/><path d="m497.1 1737.2c4.6-2.3 9.4-4.5 14.2-6.8l56.1 4.9-.7 8zm-29.6 16.6c3.7-2.4 7.5-4.7 11.5-7l86.4 7.6-.7 8zm-22 17.3c2.6-2.5 5.4-5 8.3-7.3l109.7 9.6-.7 8zm-14.7 17.8.3-.4c1.6-2.4 3.3-4.8 5.1-7.1l126.2 11-.7 8zm-8.9 18.4c.9-2.6 2-5.2 3.1-7.7l135.3 11.8-.7 8zm-4.9 18.7c.5-2.7 1-5.3 1.7-7.9l139.7 12.2-.7 8zm-2.1 18.9c.1-2.7.3-5.4.6-8l141.9 12.4-.7 8zm0 19.2c-.1-2.7-.2-5.4-.2-8l140.8 12.3-.7 8zm1.6 19.3c-.3-2.7-.6-5.4-.9-8.1l137.8 12.1-.7 8zm2.9 19.3c-.5-2.7-.9-5.5-1.4-8.1l134.4 11.8-.7 8z" fill="#b7e4e6"/><path d="m1391.2 1640.9c-154.8 103.1-336.8 219.7-430.1-.3-117-275.9-217.7-194.6-363.7-118.8-145.9 75.8-298.3 125.8-314.3-113.6s-22.9-273.4-176.6-408.1c-153.6-134.8-143.2-343.1 45.4-388.8s263.5 3.8 413.8-108.3c150.3-112 212 16.7 213.6 180.2 1.6 163.4 68.9 331.1 222.1 268s347.4-69.9 271 155.5c-76.4 225.3 121.5 224.9 276.6 194.3s128.3 159.3-157.9 349.8" fill="#9fdad6"/><path d="m890.5 89c-162.9 0-301.1 49.9-411.8 148.8-152.4 136.2-239.9 359.2-239.9 611.9 0 248.6 122.1 504.7 311 652.4 93.5 73.1 244.6 150.5 432.8 103.6 710-176.9 765.2-623.4 765.2-756 0-394.1-312.3-704.5-759.5-755-33.5-3.8-66.1-5.7-97.8-5.7m-20.4 1620c-130.5 0-260.1-46.5-375-136.4-209.7-164-345.2-447.7-345.2-722.8 0-278 98.2-525.3 269.5-678.4 149.8-133.9 350-191.2 579-165.3 493.7 55.7 838.5 402.6 838.5 843.7 0 397.7-311.3 712.7-832.8 842.7-44.4 11-89.3 16.5-134 16.5" fill="#86cac6"/><path d="m1642.3 1343.8-1.2 1.4c-143.3 157.6-360.6 278.5-637 347.3-4.4 1.1-8.9 2.2-13.3 3.1-10.7-15.4-20.6-33.7-29.7-55.1-4.1-9.6-8.2-18.9-12.2-27.6 11.1-2 22.4-4.3 33.8-7.2 285.8-71.2 465.5-186.1 578.2-306.6 48.7-6.4 76.8 11.2 81.4 44.7zm-1403.5-494.1c0 248.6 122.1 504.7 311 652.4 11 8.6 22.8 17.3 35.4 25.8-31.9 16.2-64 30.8-94.7 41.1l4.5 3.5c-87.3-68.3-161.8-157.3-219-257.9-11.2-124.5-28.7-176.8-99.5-249.4-17.5-70.9-26.7-143.5-26.7-215.5 0-84.8 9.1-166.7 26.7-244 35.3-7.4 66.6-11.6 95.2-14.5-21.5 80.6-32.9 167.6-32.9 258.5z" fill="#b7e4e6"/><path d="m539.8 1647.1c3.8.4 7 3.1 7 7s-3.1 7-7 7-7-3.1-7-7 2.3-7.6 7-7" fill="#10a5ac" mask="url(#a)"/><path d="m247.3 1691.3c18.9 2.1 34.5 15.4 34.5 34.4s-15.4 34.4-34.5 34.4-34.5-15.4-34.5-34.4c0-19.1 11.4-37.1 34.5-34.4" fill="#b7e4e6" mask="url(#b)"/><path d="m622.8 1665.1c7.1.8 13 5.8 13 13s-5.8 13-13 13-13-5.8-13-13 4.3-14 13-13" fill="#86cac6" mask="url(#c)"/><path d="m323.8 1643.3c19.2 2.2 35 15.6 35 34.9s-15.7 34.9-35 34.9-35-15.6-35-34.9 11.5-37.6 35-34.9" fill="#10a5ac" mask="url(#d)"/><path d="m238.8 892.2c12.6 1.4 23 10.3 23 22.9 0 12.7-10.3 22.9-23 22.9s-23-10.3-23-22.9c0-12.7 7.6-24.7 23-22.9" fill="#10a5ac" mask="url(#e)"/><path d="m747.8 1432.4c31.3 3.5 57 25.4 57 56.8s-25.5 56.8-57 56.8-57-25.4-57-56.8 18.8-61.1 57-56.8" fill="#10a5ac" mask="url(#f)"/><path d="m822.3 823.5c110.6 12.4 201.5 89.9 201.5 200.8s-90.2 200.8-201.5 200.8-201.5-89.9-201.5-200.8 66.2-216 201.5-200.8" fill="#10a5ac" mask="url(#g)"/></g><path d="m1023.9 791.5c-8.9 69.3-20.7 149.6-106 121.8-107-34.8-108.8 13.8-123.2 73.8s-37.8 115.5-109.6 61.1-83.1-60.8-159.1-50.5c-76 10.4-132.5-43.9-98.9-108.6 33.5-64.7 66-73.8 71.3-143.9 5.3-70.2 56.9-56 103.7-16.2 46.7 39.8 110.8 62 130.6 3s65.8-115.7 110.8-38.5 93.6 21 123.2-30.5c29.4-51.5 73.7.4 57.2 128.5z" fill="none" stroke="#86cac6" stroke-width="4.1446"/><path d="m994.1 795.4c-8 62.4-18.6 134.6-95.4 109.6-96.3-31.3-97.9 12.4-110.9 66.4s-34 104-98.6 55-74.8-54.8-143.2-45.4c-68.4 9.3-119.2-39.5-89.1-97.7 30.2-58.2 59.4-66.4 64.1-129.5 4.7-63.2 51.3-50.4 93.3-14.5 42 35.8 99.7 55.8 117.6 2.7s59.2-104.1 99.7-34.7c40.5 69.5 84.3 18.9 110.9-27.5s66.5.3 51.6 115.6z" fill="none" stroke="#86cac6" stroke-width="3.7306"/><path d="m964.4 799.3c-7.1 55.4-16.6 119.7-84.8 97.5-85.6-27.8-87 11-98.6 59s-30.3 92.4-87.7 48.9c-57.4-43.6-66.5-48.7-127.3-40.4s-106-35.1-79.2-86.9 52.8-59 57-115.2 45.6-44.8 82.9-12.9c37.4 31.8 88.6 49.6 104.5 2.4s52.6-92.5 88.6-30.8 74.9 16.8 98.6-24.4 59.2.4 46 102.8z" fill="none" stroke="#86cac6" stroke-width="3.3166"/><path d="m940.6 802.4c-6.4 49.9-14.9 107.7-76.3 87.7-77-25.1-78.3 9.9-88.7 53.1s-27.2 83.2-78.9 44-59.8-43.8-114.6-36.3c-54.7 7.5-95.4-31.6-71.2-78.2 24.1-46.6 47.5-53.1 51.3-103.6s41-40.3 74.6-11.6 79.8 44.7 94.1 2.2 47.3-83.3 79.8-27.7c32.4 55.6 67.4 15.1 88.7-22 21.1-37.2 53.1.2 41.2 92.4z" fill="none" stroke="#86cac6" stroke-width="2.9854"/></svg>