<svg height="1000" viewBox="0 0 1440 1000" width="1440" xmlns="http://www.w3.org/2000/svg" xmlns:xlink="http://www.w3.org/1999/xlink"><defs><path id="a" d="m0 0h1440v1000h-1440z"/><path id="b" d="m190.032075 2370h-189.96101726c0-158.68445 73.52107216-233.65031 132.80691126-298.60969 50.166762-55.11848 83.303354-90.27129 83.303354-172.3103.047372-82.03901-33.136592-117.6886-83.374412-172.71245-59.1910952-65.03035-132.75953918-145.60268-132.806911-300.88067.07105774-155.44357 73.6868736-236.20515 132.830597-301.16453 50.143077-55.2131 83.350726-91.57237 83.398098-173.658694 0-82.08632-33.183964-118.587528-83.374412-173.776975-59.2384672-65.077656-132.854283-145.957519-132.80691118-301.401094-.02368591-155.585511 73.54475808-236.465375 132.66479518-301.54303 50.261507-55.260416 83.469156-91.7143116 83.44547-173.942567l189.984703.141936c0 155.467231-73.59213 236.37075-132.712167 301.42475-50.308878 55.213104-83.421784 91.690655-83.374412 173.847943-.071057 82.228255 33.160278 118.658495 83.350726 173.966223 59.238467 64.888407 132.735853 145.839239 132.735853 301.377438.047372 155.37261-73.521072 236.25247-132.712167 301.33013-50.214134 55.18944-83.421784 91.61968-83.398098 173.65869 0 82.06266 33.183964 118.35097 83.398098 173.44579 59.143723 65.00669 132.806911 145.88655 132.735905 301.2355.071006 155.41992-73.521124 233.57935-132.735905 298.56238-50.214134 55.18944-83.398098 102.99822-83.398098 171.00922"/><mask id="c" fill="#fff"><use fill="#fff" fill-rule="evenodd" xlink:href="#a"/></mask><mask id="d" fill="#fff"><use fill="#fff" fill-rule="evenodd" xlink:href="#b"/></mask></defs><g fill="none" fill-rule="evenodd"><use fill="#f5f5fa" xlink:href="#a"/><g mask="url(#c)"><g transform="matrix(-.64278761 -.76604444 .76604444 -.64278761 1160.303421 1089.187332)"><path d="m248.702975 121.407348 5.648811 5.646479-127.346527 127.353521h-.004663l-5.64881-5.651142zm-13.269269-13.745054 5.64881 5.648811-127.351189 127.351189-5.648811-5.651142zm-13.269269-13.745053 5.64881 5.6487116-127.351189 127.3512884-5.6488108-5.651043zm-13.912057-12.9790091 5.64881 5.6488107-127.3511889 127.3511894-5.6488107-5.651142zm-13.269269-13.7450534 5.64881 5.6487116-127.3511891 127.3512879-5.6488107-5.651042zm-13.26927-13.7450535 5.648811 5.6488107-127.3511893 127.3511893-5.6488107-5.651142zm-13.912056-12.979009 5.64881 5.6487116-127.3511891 127.3512884-5.6488107-5.651043zm-13.26927-13.7450535 5.648811 5.6488107-127.3511893 127.3511888-5.6488107-5.64881zm-13.269269-13.7450535 5.648811 5.6488107-127.3511895 127.3511893-5.6488107-5.648811zm-13.912057-12.979009 5.648811 5.651142-127.35118933 127.348858-5.64881067-5.648811z" fill="#86cac6"/><path d="m170.771771 199.336312c-1.218608 5.013212-2.542234 10.094434-3.938303 15.240623l-39.828209 39.830413h-.004663l-5.64881-5.651142zm6.329401-33.341892c-.52955 4.379239-1.216004 8.823971-2.032769 13.331712l-61.337076 61.336162-5.648811-5.651142zm.932205-27.945448c.257377 3.616997.345328 7.289797.282398 11.016667l-77.853717 77.851602-5.6488108-5.651043zm-4.236377-22.656587.164266.503991c.868017 2.773876 1.595014 5.587953 2.191299 8.441267l-89.6025639 89.600589-5.6488107-5.651142zm-8.367159-18.6427141c1.418571 2.4296003 2.722731 4.8914531 3.90875 7.3866041l-96.0578591 96.056903-5.6488107-5.651042zm-11.190191-15.8256973c1.742624 2.0881317 3.397095 4.2011251 4.960588 6.3397718l-99.1887753 99.1843796-5.6488107-5.651142zm-13.120112-13.7735937c1.977289 1.8411306 3.883864 3.7022145 5.717453 5.5838882l-100.7375851 100.7348479-5.6488107-5.651043zm-14.668481-12.3417481c2.156608 1.6515206 4.255075 3.3194557 6.2935 5.0043377l-99.9144203 99.9110925-5.6488107-5.64881zm-15.835352-11.1775202c2.298349 1.5024483 4.547998 3.0186533 6.747312 4.5490738l-97.8021495 97.7988236-5.6488107-5.648811zm-16.6927589-10.2007261c2.4136493 1.3834199 4.7859193 2.7785366 7.1153619 4.1857559l-95.38949733 95.3838586-5.64881067-5.648811z" fill="#b7e4e6"/></g></g><g mask="url(#c)"><g transform="translate(-421.52668 -1361.533519)"><path d="m1094 1266 704.21055 1169.4332 83.30172 1.5668v-1171z" fill="#b7e4e6"/><path d="m1862 2198.20239v26.37073l-149 149.42688v-26.37072zm0-71.36338v26.37235l-149 149.42525v-26.37235zm0-69.62282v26.38156l-149 149.41605v-26.37073zm0-69.62281v26.37072l-149 149.42688v-26.37072zm0-69.62282v26.35989l-149 149.43772v-26.37073zm0-70.4931v26.37235l-149 149.42526v-26.37235zm0-69.62281v26.37072l-149 149.42688v-26.37072zm0-69.62282v26.37235l-149 149.42526v-26.37235zm0-69.62281v26.36314l-149 149.43446v-26.37397zm0-71.36339v26.37993l-149 149.41768v-26.3691zm0-69.62281v26.38318l-149 149.41442v-26.37235zm0-69.62282v26.37235l-149 149.42526v-26.36152z" fill="#86cac6"/><g fill="none" transform="translate(1620.916961)"><use fill="#86cac6" xlink:href="#b"/><path d="m241 2198.20239v26.37073l-149 149.42688v-26.37072zm0-71.36338v26.37235l-149 149.42525v-26.37235zm0-69.62282v26.38156l-149 149.41605v-26.37073zm0-69.62281v26.37072l-149 149.42688v-26.37072zm0-69.62282v26.35989l-149 149.43772v-26.37073zm0-70.4931v26.37235l-149 149.42526v-26.37235zm0-69.62281v26.37072l-149 149.42688v-26.37072zm0-69.62282v26.37235l-149 149.42526v-26.37235zm0-69.62281v26.36314l-149 149.43446v-26.37397zm0-71.36339v26.37993l-149 149.41768v-26.3691zm0-69.62281v26.38318l-149 149.41442v-26.37235zm0-69.62282v26.37235l-149 149.42526v-26.36152z" fill="#10a5ac" mask="url(#d)"/></g><path d="m1287.75898 1747.97197c-2.17532-50.69724 5.03499-100.02321 15.78934-147.45052 28.09575-124.02035 80.42547-234.98731 52.83077-323.17019-38.1413-121.89753-228.96998-200.77162-451.670668-270.48198-222.602917-70.198207-476.980063-131.733714-606.875556-46.095591-130.237677 85.862271-135.920376 318.397131-183.532836 503.926621-47.5391355 185.01527-136.7636152 323.30205-109.08337321 443.77557 27.92465911 120.75041 172.66849421 224.17542 337.99225221 345.20273 17.976881 13.13249 373.432739 261.12046 557.026679 275.62422 205.664812 16.50792 431.090742-89.10584 478.544332-242.88528 47.35582-153.26521-83.15071-355.17076-91.02094-538.44558" fill="#fff"/><path d="m1352.32522 1265.96202c1.5002 3.75445 2.85274 7.55051 4.05387 11.38924 27.5947 88.18288-24.73502 199.14984-52.83077 323.17019-.73912 3.25957-1.4615 6.52811-2.16525 9.80545l-207.36866-344.36338z" fill="#fff1cc"/></g></g><path d="m953.499613 784.252099c18.934064 2.127805 34.500387 15.390171 34.500387 34.374721 0 18.983009-15.446434 34.37318-34.500387 34.37318-19.053179 0-34.499613-15.390171-34.499613-34.37318 0-18.98455 11.326095-36.978796 34.499613-34.374721" fill="#b7e4e6" mask="url(#c)"/></g></svg>