<svg enable-background="new 0 0 2338.2 826.6" viewBox="0 0 2338.2 826.6" xmlns="http://www.w3.org/2000/svg" xmlns:xlink="http://www.w3.org/1999/xlink"><mask id="a" height="3.2" maskUnits="userSpaceOnUse" width="3.2" x="408.2" y="394.6"><path clip-rule="evenodd" d="m407.9 394.3h3.8v3.6h-3.8z" fill="#fff" fill-rule="evenodd"/></mask><mask id="b" height="3.2" maskUnits="userSpaceOnUse" width="3.2" x="391.1" y="394.6"><path clip-rule="evenodd" d="m390.8 394.3h3.8v3.6h-3.8z" fill="#fff" fill-rule="evenodd"/></mask><mask id="c" height="3.2" maskUnits="userSpaceOnUse" width="3.2" x="356.9" y="394.6"><path clip-rule="evenodd" d="m356.6 394.3h3.8v3.6h-3.8z" fill="#fff" fill-rule="evenodd"/></mask><mask id="d" height="3.2" maskUnits="userSpaceOnUse" width="3.2" x="374" y="394.6"><path clip-rule="evenodd" d="m373.7 394.3h3.8v3.6h-3.8z" fill="#fff" fill-rule="evenodd"/></mask><mask id="e" height="3.2" maskUnits="userSpaceOnUse" width="3.2" x="425.3" y="394.6"><path clip-rule="evenodd" d="m425 394.3h3.8v3.6h-3.8z" fill="#fff" fill-rule="evenodd"/></mask><mask id="f" height="3.2" maskUnits="userSpaceOnUse" width="3.2" x="374" y="64.1"><path clip-rule="evenodd" d="m373.7 64.1h3.8v3.6h-3.8z" fill="#fff" fill-rule="evenodd"/></mask><mask id="g" height="3.2" maskUnits="userSpaceOnUse" width="3.2" x="356.9" y="64.1"><path clip-rule="evenodd" d="m356.6 64.1h3.8v3.6h-3.8z" fill="#fff" fill-rule="evenodd"/></mask><mask id="h" height="3.2" maskUnits="userSpaceOnUse" width="3.2" x="391.1" y="64.1"><path clip-rule="evenodd" d="m390.8 64.1h3.8v3.6h-3.8z" fill="#fff" fill-rule="evenodd"/></mask><mask id="i" height="3.2" maskUnits="userSpaceOnUse" width="3.2" x="425.3" y="64.1"><path clip-rule="evenodd" d="m425 64.1h3.8v3.6h-3.8z" fill="#fff" fill-rule="evenodd"/></mask><mask id="j" height="3.2" maskUnits="userSpaceOnUse" width="3.2" x="408.2" y="64.1"><path clip-rule="evenodd" d="m407.9 64.1h3.8v3.6h-3.8z" fill="#fff" fill-rule="evenodd"/></mask><mask id="k" height="3.2" maskUnits="userSpaceOnUse" width="3.2" x="442.4" y="394.6"><path clip-rule="evenodd" d="m442.1 394.3h3.8v3.6h-3.8z" fill="#fff" fill-rule="evenodd"/></mask><g clip-rule="evenodd" fill-rule="evenodd"><path d="m1972.3 63c-609.9-163.5-583.2 322.1-1391.5 41.5-808.3-280.5-683.8 815.6-169.2 704.3s1834-101.4 1834-101.4 336.6-480.9-273.3-644.4z" fill="#b7e4e6"/><path d="m1461.8 84.7c-108.2-36.8-222.5-62.4-340.5-75.7-229.4-25.9-426 5.6-590.1 79.1 16.8 4.8 34 10.3 51.6 16.4 491.4 170.5 674.2 57.9 879-19.8z" fill="#fff"/><path d="m1461.1 84.2c-205.3 77.8-387.9 191.1-880.1 20.3-17.3-6-34.2-11.4-50.7-16.2-225.3 101.2-389.4 281.8-493.1 502 60.8 147.2 193.6 257.5 374.6 218.3 469.7-101.5 1610.1-102.1 1805.2-101.4l-5-9.5c-150.9-288-423.1-502.2-750.9-613.5z" fill="#fff1cc"/><g fill="#ffc836"><path d="m408.2 396.2c0 .9.7 1.6 1.6 1.6s1.6-.7 1.6-1.6-.7-1.6-1.6-1.6-1.6.7-1.6 1.6" mask="url(#a)"/><path d="m391.1 396.2c0 .9.7 1.6 1.6 1.6s1.6-.7 1.6-1.6-.7-1.6-1.6-1.6-1.6.7-1.6 1.6" mask="url(#b)"/><path d="m356.9 396.2c0 .5.2.9.5 1.2.5.1 1.1.2 1.6.3.6-.2 1.1-.8 1.1-1.5 0-.9-.7-1.6-1.6-1.6s-1.6.7-1.6 1.6" mask="url(#c)"/><path d="m374 396.2v.4.1c0 .1.1.2.1.3v.1c0 .1.1.2.2.2.3.3.7.6 1.2.6s.9-.2 1.2-.6c.1-.1.2-.3.2-.4 0 0 0 0 0-.1 0-.2.1-.3.1-.5 0-.9-.7-1.6-1.6-1.6-.7-.1-1.4.6-1.4 1.5" mask="url(#d)"/><path d="m425.3 396.2c0 .2 0 .3.1.5v.1c.1.1.1.3.2.4.3.4.7.6 1.2.6s.9-.2 1.2-.6c.1-.1.1-.2.2-.2 0 0 0 0 0-.1s.1-.2.1-.3v-.1c0-.1 0-.2 0-.4 0-.9-.7-1.6-1.6-1.6-.7.1-1.4.8-1.4 1.7" mask="url(#e)"/><path d="m322.7 374.2c0 .9.7 1.6 1.6 1.6s1.6-.7 1.6-1.6-.7-1.6-1.6-1.6-1.6.7-1.6 1.6"/><path d="m339.8 374.2c0 .9.7 1.6 1.6 1.6s1.6-.7 1.6-1.6-.7-1.6-1.6-1.6-1.6.7-1.6 1.6"/><path d="m305.6 374.2c0 .9.7 1.6 1.6 1.6s1.6-.7 1.6-1.6-.7-1.6-1.6-1.6-1.6.7-1.6 1.6"/><path d="m408.2 374.2c0 .9.7 1.6 1.6 1.6s1.6-.7 1.6-1.6-.7-1.6-1.6-1.6-1.6.7-1.6 1.6"/><path d="m425.3 374.2c0 .9.7 1.6 1.6 1.6s1.6-.7 1.6-1.6-.7-1.6-1.6-1.6-1.6.7-1.6 1.6"/><path d="m356.9 374.2c0 .9.7 1.6 1.6 1.6s1.6-.7 1.6-1.6-.7-1.6-1.6-1.6-1.6.7-1.6 1.6"/><path d="m391.1 374.2c0 .9.7 1.6 1.6 1.6s1.6-.7 1.6-1.6-.7-1.6-1.6-1.6-1.6.7-1.6 1.6"/><path d="m374 374.2c0 .9.7 1.6 1.6 1.6s1.6-.7 1.6-1.6-.7-1.6-1.6-1.6-1.6.7-1.6 1.6"/><path d="m356.9 352.2c0 .9.7 1.6 1.6 1.6s1.6-.7 1.6-1.6-.7-1.6-1.6-1.6c-.9-.1-1.6.7-1.6 1.6"/><path d="m391.1 352.2c0 .9.7 1.6 1.6 1.6s1.6-.7 1.6-1.6-.7-1.6-1.6-1.6c-.9-.1-1.6.7-1.6 1.6"/><path d="m374 352.2c0 .9.7 1.6 1.6 1.6s1.6-.7 1.6-1.6-.7-1.6-1.6-1.6c-.9-.1-1.6.7-1.6 1.6"/><path d="m305.6 352.2c0 .9.7 1.6 1.6 1.6s1.6-.7 1.6-1.6-.7-1.6-1.6-1.6c-.9-.1-1.6.7-1.6 1.6"/><path d="m339.8 352.2c0 .9.7 1.6 1.6 1.6s1.6-.7 1.6-1.6-.7-1.6-1.6-1.6c-.9-.1-1.6.7-1.6 1.6"/><path d="m408.2 352.2c0 .9.7 1.6 1.6 1.6s1.6-.7 1.6-1.6-.7-1.6-1.6-1.6c-.9-.1-1.6.7-1.6 1.6"/><path d="m322.7 352.2c0 .9.7 1.6 1.6 1.6s1.6-.7 1.6-1.6-.7-1.6-1.6-1.6c-.9-.1-1.6.7-1.6 1.6"/><path d="m274.2 353.2c.3-.3.4-.7.4-1.1 0-.9-.7-1.6-1.6-1.6-.4 0-.8.2-1.1.4.7.8 1.5 1.6 2.3 2.3"/><path d="m288.5 352.2c0 .9.7 1.6 1.6 1.6s1.6-.7 1.6-1.6-.7-1.6-1.6-1.6c-.9-.1-1.6.7-1.6 1.6"/><path d="m425.3 352.2c0 .9.7 1.6 1.6 1.6s1.6-.7 1.6-1.6-.7-1.6-1.6-1.6c-.9-.1-1.6.7-1.6 1.6"/><path d="m356.9 330.1c0 .9.7 1.6 1.6 1.6s1.6-.7 1.6-1.6-.7-1.6-1.6-1.6-1.6.7-1.6 1.6"/><path d="m391.1 330.1c0 .9.7 1.6 1.6 1.6s1.6-.7 1.6-1.6-.7-1.6-1.6-1.6-1.6.7-1.6 1.6"/><path d="m374 330.1c0 .9.7 1.6 1.6 1.6s1.6-.7 1.6-1.6-.7-1.6-1.6-1.6-1.6.7-1.6 1.6"/><path d="m322.7 330.1c0 .9.7 1.6 1.6 1.6s1.6-.7 1.6-1.6-.7-1.6-1.6-1.6-1.6.7-1.6 1.6"/><path d="m271.4 330.1c0 .9.7 1.6 1.6 1.6s1.6-.7 1.6-1.6-.7-1.6-1.6-1.6-1.6.7-1.6 1.6"/><path d="m288.5 330.1c0 .9.7 1.6 1.6 1.6s1.6-.7 1.6-1.6-.7-1.6-1.6-1.6-1.6.7-1.6 1.6"/><path d="m305.6 330.1c0 .9.7 1.6 1.6 1.6s1.6-.7 1.6-1.6-.7-1.6-1.6-1.6-1.6.7-1.6 1.6"/><path d="m339.8 330.1c0 .9.7 1.6 1.6 1.6s1.6-.7 1.6-1.6-.7-1.6-1.6-1.6-1.6.7-1.6 1.6"/><path d="m425.3 330.1c0 .9.7 1.6 1.6 1.6s1.6-.7 1.6-1.6-.7-1.6-1.6-1.6-1.6.7-1.6 1.6"/><path d="m408.2 330.1c0 .9.7 1.6 1.6 1.6s1.6-.7 1.6-1.6-.7-1.6-1.6-1.6-1.6.7-1.6 1.6"/><path d="m254.3 330.1v.2c.3.4.6.8.9 1.3.2.1.4.2.7.2.9 0 1.6-.7 1.6-1.6s-.7-1.6-1.6-1.6c-.9-.1-1.6.6-1.6 1.5"/><path d="m425.3 308.1c0 .9.7 1.6 1.6 1.6s1.6-.7 1.6-1.6-.7-1.6-1.6-1.6-1.6.7-1.6 1.6"/><path d="m408.2 308.1c0 .9.7 1.6 1.6 1.6s1.6-.7 1.6-1.6-.7-1.6-1.6-1.6-1.6.7-1.6 1.6"/><path d="m305.6 308.1c0 .9.7 1.6 1.6 1.6s1.6-.7 1.6-1.6-.7-1.6-1.6-1.6-1.6.7-1.6 1.6"/><path d="m288.5 308.1c0 .9.7 1.6 1.6 1.6s1.6-.7 1.6-1.6-.7-1.6-1.6-1.6-1.6.7-1.6 1.6"/><path d="m322.7 308.1c0 .9.7 1.6 1.6 1.6s1.6-.7 1.6-1.6-.7-1.6-1.6-1.6-1.6.7-1.6 1.6"/><path d="m391.1 308.1c0 .9.7 1.6 1.6 1.6s1.6-.7 1.6-1.6-.7-1.6-1.6-1.6-1.6.7-1.6 1.6"/><path d="m374 308.1c0 .9.7 1.6 1.6 1.6s1.6-.7 1.6-1.6-.7-1.6-1.6-1.6-1.6.7-1.6 1.6"/><path d="m356.9 308.1c0 .9.7 1.6 1.6 1.6s1.6-.7 1.6-1.6-.7-1.6-1.6-1.6-1.6.7-1.6 1.6"/><path d="m339.8 308.1c0 .9.7 1.6 1.6 1.6s1.6-.7 1.6-1.6-.7-1.6-1.6-1.6-1.6.7-1.6 1.6"/><path d="m271.4 308.1c0 .9.7 1.6 1.6 1.6s1.6-.7 1.6-1.6-.7-1.6-1.6-1.6-1.6.7-1.6 1.6"/><path d="m254.3 308.1c0 .9.7 1.6 1.6 1.6s1.6-.7 1.6-1.6-.7-1.6-1.6-1.6-1.6.7-1.6 1.6"/><path d="m408.2 286.1c0 .9.7 1.6 1.6 1.6s1.6-.7 1.6-1.6-.7-1.6-1.6-1.6-1.6.7-1.6 1.6"/><path d="m391.1 286.1c0 .9.7 1.6 1.6 1.6s1.6-.7 1.6-1.6-.7-1.6-1.6-1.6-1.6.7-1.6 1.6"/><path d="m425.3 286.1c0 .9.7 1.6 1.6 1.6s1.6-.7 1.6-1.6-.7-1.6-1.6-1.6-1.6.7-1.6 1.6"/><path d="m356.9 286.1c0 .9.7 1.6 1.6 1.6s1.6-.7 1.6-1.6-.7-1.6-1.6-1.6-1.6.7-1.6 1.6"/><path d="m374 286.1c0 .9.7 1.6 1.6 1.6s1.6-.7 1.6-1.6-.7-1.6-1.6-1.6-1.6.7-1.6 1.6"/><path d="m339.8 286.1c0 .9.7 1.6 1.6 1.6s1.6-.7 1.6-1.6-.7-1.6-1.6-1.6-1.6.7-1.6 1.6"/><path d="m271.4 286.1c0 .9.7 1.6 1.6 1.6s1.6-.7 1.6-1.6-.7-1.6-1.6-1.6-1.6.7-1.6 1.6"/><path d="m237.2 286.1c0 .9.7 1.6 1.6 1.6s1.6-.7 1.6-1.6-.7-1.6-1.6-1.6-1.6.7-1.6 1.6"/><path d="m254.3 286.1c0 .9.7 1.6 1.6 1.6s1.6-.7 1.6-1.6-.7-1.6-1.6-1.6-1.6.7-1.6 1.6"/><path d="m322.7 286.1c0 .9.7 1.6 1.6 1.6s1.6-.7 1.6-1.6-.7-1.6-1.6-1.6-1.6.7-1.6 1.6"/><path d="m288.5 286.1c0 .9.7 1.6 1.6 1.6s1.6-.7 1.6-1.6-.7-1.6-1.6-1.6-1.6.7-1.6 1.6"/><path d="m305.6 286.1c0 .9.7 1.6 1.6 1.6s1.6-.7 1.6-1.6-.7-1.6-1.6-1.6-1.6.7-1.6 1.6"/><path d="m356.9 264c0 .9.7 1.6 1.6 1.6s1.6-.7 1.6-1.6-.7-1.6-1.6-1.6-1.6.8-1.6 1.6"/><path d="m339.8 264c0 .9.7 1.6 1.6 1.6s1.6-.7 1.6-1.6-.7-1.6-1.6-1.6-1.6.8-1.6 1.6"/><path d="m237.2 264c0 .9.7 1.6 1.6 1.6s1.6-.7 1.6-1.6-.7-1.6-1.6-1.6-1.6.8-1.6 1.6"/><path d="m322.7 264c0 .9.7 1.6 1.6 1.6s1.6-.7 1.6-1.6-.7-1.6-1.6-1.6-1.6.8-1.6 1.6"/><path d="m391.1 264c0 .9.7 1.6 1.6 1.6s1.6-.7 1.6-1.6-.7-1.6-1.6-1.6-1.6.8-1.6 1.6"/><path d="m288.5 264c0 .9.7 1.6 1.6 1.6s1.6-.7 1.6-1.6-.7-1.6-1.6-1.6-1.6.8-1.6 1.6"/><path d="m271.4 264c0 .9.7 1.6 1.6 1.6s1.6-.7 1.6-1.6-.7-1.6-1.6-1.6-1.6.8-1.6 1.6"/><path d="m305.6 264c0 .9.7 1.6 1.6 1.6s1.6-.7 1.6-1.6-.7-1.6-1.6-1.6-1.6.8-1.6 1.6"/><path d="m408.2 264c0 .9.7 1.6 1.6 1.6s1.6-.7 1.6-1.6-.7-1.6-1.6-1.6-1.6.8-1.6 1.6"/><path d="m374 264c0 .9.7 1.6 1.6 1.6s1.6-.7 1.6-1.6-.7-1.6-1.6-1.6-1.6.8-1.6 1.6"/><path d="m425.3 264c0 .9.7 1.6 1.6 1.6s1.6-.7 1.6-1.6-.7-1.6-1.6-1.6-1.6.8-1.6 1.6"/><path d="m254.3 264c0 .9.7 1.6 1.6 1.6s1.6-.7 1.6-1.6-.7-1.6-1.6-1.6-1.6.8-1.6 1.6"/><path d="m391.1 242c0 .9.7 1.6 1.6 1.6s1.6-.7 1.6-1.6-.7-1.6-1.6-1.6-1.6.7-1.6 1.6"/><path d="m374 242c0 .9.7 1.6 1.6 1.6s1.6-.7 1.6-1.6-.7-1.6-1.6-1.6-1.6.7-1.6 1.6"/><path d="m356.9 242c0 .9.7 1.6 1.6 1.6s1.6-.7 1.6-1.6-.7-1.6-1.6-1.6-1.6.7-1.6 1.6"/><path d="m408.2 242c0 .9.7 1.6 1.6 1.6s1.6-.7 1.6-1.6-.7-1.6-1.6-1.6-1.6.7-1.6 1.6"/><path d="m425.3 242c0 .9.7 1.6 1.6 1.6s1.6-.7 1.6-1.6-.7-1.6-1.6-1.6-1.6.7-1.6 1.6"/><path d="m237.2 242c0 .9.7 1.6 1.6 1.6s1.6-.7 1.6-1.6-.7-1.6-1.6-1.6-1.6.7-1.6 1.6"/><path d="m254.3 242c0 .9.7 1.6 1.6 1.6s1.6-.7 1.6-1.6-.7-1.6-1.6-1.6-1.6.7-1.6 1.6"/><path d="m288.5 242c0 .9.7 1.6 1.6 1.6s1.6-.7 1.6-1.6-.7-1.6-1.6-1.6-1.6.7-1.6 1.6"/><path d="m305.6 242c0 .9.7 1.6 1.6 1.6s1.6-.7 1.6-1.6-.7-1.6-1.6-1.6-1.6.7-1.6 1.6"/><path d="m322.7 242c0 .9.7 1.6 1.6 1.6s1.6-.7 1.6-1.6-.7-1.6-1.6-1.6-1.6.7-1.6 1.6"/><path d="m339.8 242c0 .9.7 1.6 1.6 1.6s1.6-.7 1.6-1.6-.7-1.6-1.6-1.6-1.6.7-1.6 1.6"/><path d="m271.4 242c0 .9.7 1.6 1.6 1.6s1.6-.7 1.6-1.6-.7-1.6-1.6-1.6-1.6.7-1.6 1.6"/><path d="m374 220c0 .9.7 1.6 1.6 1.6s1.6-.7 1.6-1.6-.7-1.6-1.6-1.6-1.6.7-1.6 1.6"/><path d="m356.9 220c0 .9.7 1.6 1.6 1.6s1.6-.7 1.6-1.6-.7-1.6-1.6-1.6-1.6.7-1.6 1.6"/><path d="m322.7 220c0 .9.7 1.6 1.6 1.6s1.6-.7 1.6-1.6-.7-1.6-1.6-1.6-1.6.7-1.6 1.6"/><path d="m305.6 220c0 .9.7 1.6 1.6 1.6s1.6-.7 1.6-1.6-.7-1.6-1.6-1.6-1.6.7-1.6 1.6"/><path d="m288.5 220c0 .9.7 1.6 1.6 1.6s1.6-.7 1.6-1.6-.7-1.6-1.6-1.6-1.6.7-1.6 1.6"/><path d="m408.2 220c0 .9.7 1.6 1.6 1.6s1.6-.7 1.6-1.6-.7-1.6-1.6-1.6-1.6.7-1.6 1.6"/><path d="m391.1 220c0 .9.7 1.6 1.6 1.6s1.6-.7 1.6-1.6-.7-1.6-1.6-1.6-1.6.7-1.6 1.6"/><path d="m425.3 220c0 .9.7 1.6 1.6 1.6s1.6-.7 1.6-1.6-.7-1.6-1.6-1.6-1.6.7-1.6 1.6"/><path d="m271.4 220c0 .9.7 1.6 1.6 1.6s1.6-.7 1.6-1.6-.7-1.6-1.6-1.6-1.6.7-1.6 1.6"/><path d="m339.8 220c0 .9.7 1.6 1.6 1.6s1.6-.7 1.6-1.6-.7-1.6-1.6-1.6-1.6.7-1.6 1.6"/><path d="m254.3 220c0 .9.7 1.6 1.6 1.6s1.6-.7 1.6-1.6-.7-1.6-1.6-1.6-1.6.7-1.6 1.6"/><path d="m237.2 220c0 .9.7 1.6 1.6 1.6s1.6-.7 1.6-1.6-.7-1.6-1.6-1.6-1.6.7-1.6 1.6"/><path d="m425.3 198c0 .9.7 1.6 1.6 1.6s1.6-.7 1.6-1.6-.7-1.6-1.6-1.6c-.9-.1-1.6.7-1.6 1.6"/><path d="m356.9 198c0 .9.7 1.6 1.6 1.6s1.6-.7 1.6-1.6-.7-1.6-1.6-1.6c-.9-.1-1.6.7-1.6 1.6"/><path d="m408.2 198c0 .9.7 1.6 1.6 1.6s1.6-.7 1.6-1.6-.7-1.6-1.6-1.6c-.9-.1-1.6.7-1.6 1.6"/><path d="m374 198c0 .9.7 1.6 1.6 1.6s1.6-.7 1.6-1.6-.7-1.6-1.6-1.6c-.9-.1-1.6.7-1.6 1.6"/><path d="m339.8 198c0 .9.7 1.6 1.6 1.6s1.6-.7 1.6-1.6-.7-1.6-1.6-1.6c-.9-.1-1.6.7-1.6 1.6"/><path d="m391.1 198c0 .9.7 1.6 1.6 1.6s1.6-.7 1.6-1.6-.7-1.6-1.6-1.6c-.9-.1-1.6.7-1.6 1.6"/><path d="m271.4 198c0 .9.7 1.6 1.6 1.6s1.6-.7 1.6-1.6-.7-1.6-1.6-1.6c-.9-.1-1.6.7-1.6 1.6"/><path d="m237.2 198c0 .9.7 1.6 1.6 1.6s1.6-.7 1.6-1.6-.7-1.6-1.6-1.6c-.9-.1-1.6.7-1.6 1.6"/><path d="m322.7 198c0 .9.7 1.6 1.6 1.6s1.6-.7 1.6-1.6-.7-1.6-1.6-1.6c-.9-.1-1.6.7-1.6 1.6"/><path d="m254.3 198c0 .9.7 1.6 1.6 1.6s1.6-.7 1.6-1.6-.7-1.6-1.6-1.6c-.9-.1-1.6.7-1.6 1.6"/><path d="m288.5 198c0 .9.7 1.6 1.6 1.6s1.6-.7 1.6-1.6-.7-1.6-1.6-1.6c-.9-.1-1.6.7-1.6 1.6"/><path d="m305.6 198c0 .9.7 1.6 1.6 1.6s1.6-.7 1.6-1.6-.7-1.6-1.6-1.6c-.9-.1-1.6.7-1.6 1.6"/><path d="m237.2 175.9c0 .9.7 1.6 1.6 1.6s1.6-.7 1.6-1.6-.7-1.6-1.6-1.6-1.6.7-1.6 1.6"/><path d="m288.5 175.9c0 .9.7 1.6 1.6 1.6s1.6-.7 1.6-1.6-.7-1.6-1.6-1.6-1.6.7-1.6 1.6"/><path d="m271.4 175.9c0 .9.7 1.6 1.6 1.6s1.6-.7 1.6-1.6-.7-1.6-1.6-1.6-1.6.7-1.6 1.6"/><path d="m254.3 175.9c0 .9.7 1.6 1.6 1.6s1.6-.7 1.6-1.6-.7-1.6-1.6-1.6-1.6.7-1.6 1.6"/><path d="m339.8 175.9c0 .9.7 1.6 1.6 1.6s1.6-.7 1.6-1.6-.7-1.6-1.6-1.6-1.6.7-1.6 1.6"/><path d="m425.3 175.9c0 .9.7 1.6 1.6 1.6s1.6-.7 1.6-1.6-.7-1.6-1.6-1.6-1.6.7-1.6 1.6"/><path d="m322.7 175.9c0 .9.7 1.6 1.6 1.6s1.6-.7 1.6-1.6-.7-1.6-1.6-1.6-1.6.7-1.6 1.6"/><path d="m305.6 175.9c0 .9.7 1.6 1.6 1.6s1.6-.7 1.6-1.6-.7-1.6-1.6-1.6-1.6.7-1.6 1.6"/><path d="m408.2 175.9c0 .9.7 1.6 1.6 1.6s1.6-.7 1.6-1.6-.7-1.6-1.6-1.6-1.6.7-1.6 1.6"/><path d="m391.1 175.9c0 .9.7 1.6 1.6 1.6s1.6-.7 1.6-1.6-.7-1.6-1.6-1.6-1.6.7-1.6 1.6"/><path d="m374 175.9c0 .9.7 1.6 1.6 1.6s1.6-.7 1.6-1.6-.7-1.6-1.6-1.6-1.6.7-1.6 1.6"/><path d="m356.9 175.9c0 .9.7 1.6 1.6 1.6s1.6-.7 1.6-1.6-.7-1.6-1.6-1.6-1.6.7-1.6 1.6"/><path d="m374 153.9c0 .9.7 1.6 1.6 1.6s1.6-.7 1.6-1.6-.7-1.6-1.6-1.6-1.6.7-1.6 1.6"/><path d="m339.8 153.9c0 .9.7 1.6 1.6 1.6s1.6-.7 1.6-1.6-.7-1.6-1.6-1.6-1.6.7-1.6 1.6"/><path d="m356.9 153.9c0 .9.7 1.6 1.6 1.6s1.6-.7 1.6-1.6-.7-1.6-1.6-1.6-1.6.7-1.6 1.6"/><path d="m305.6 153.9c0 .9.7 1.6 1.6 1.6s1.6-.7 1.6-1.6-.7-1.6-1.6-1.6-1.6.7-1.6 1.6"/><path d="m322.7 153.9c0 .9.7 1.6 1.6 1.6s1.6-.7 1.6-1.6-.7-1.6-1.6-1.6-1.6.7-1.6 1.6"/><path d="m288.5 153.9c0 .9.7 1.6 1.6 1.6s1.6-.7 1.6-1.6-.7-1.6-1.6-1.6-1.6.7-1.6 1.6"/><path d="m254.3 153.9c0 .9.7 1.6 1.6 1.6s1.6-.7 1.6-1.6-.7-1.6-1.6-1.6-1.6.7-1.6 1.6"/><path d="m240.4 153.9c0-.5-.2-.9-.5-1.2-.5.9-.9 1.8-1.4 2.8h.2c1 0 1.7-.7 1.7-1.6"/><path d="m271.4 153.9c0 .9.7 1.6 1.6 1.6s1.6-.7 1.6-1.6-.7-1.6-1.6-1.6-1.6.7-1.6 1.6"/><path d="m391.1 153.9c0 .9.7 1.6 1.6 1.6s1.6-.7 1.6-1.6-.7-1.6-1.6-1.6-1.6.7-1.6 1.6"/><path d="m408.2 153.9c0 .9.7 1.6 1.6 1.6s1.6-.7 1.6-1.6-.7-1.6-1.6-1.6-1.6.7-1.6 1.6"/><path d="m425.3 153.9c0 .9.7 1.6 1.6 1.6s1.6-.7 1.6-1.6-.7-1.6-1.6-1.6-1.6.7-1.6 1.6"/><path d="m288.5 131.9c0 .9.7 1.6 1.6 1.6s1.6-.7 1.6-1.6-.7-1.6-1.6-1.6c-.9-.1-1.6.7-1.6 1.6"/><path d="m425.3 131.9c0 .9.7 1.6 1.6 1.6s1.6-.7 1.6-1.6-.7-1.6-1.6-1.6c-.9-.1-1.6.7-1.6 1.6"/><path d="m408.2 131.9c0 .9.7 1.6 1.6 1.6s1.6-.7 1.6-1.6-.7-1.6-1.6-1.6c-.9-.1-1.6.7-1.6 1.6"/><path d="m322.7 131.9c0 .9.7 1.6 1.6 1.6s1.6-.7 1.6-1.6-.7-1.6-1.6-1.6c-.9-.1-1.6.7-1.6 1.6"/><path d="m271.4 131.9c0 .9.7 1.6 1.6 1.6s1.6-.7 1.6-1.6-.7-1.6-1.6-1.6c-.9-.1-1.6.7-1.6 1.6"/><path d="m391.1 131.9c0 .9.7 1.6 1.6 1.6s1.6-.7 1.6-1.6-.7-1.6-1.6-1.6c-.9-.1-1.6.7-1.6 1.6"/><path d="m254.3 131.9c0 .9.7 1.6 1.6 1.6s1.6-.7 1.6-1.6-.7-1.6-1.6-1.6c-.9-.1-1.6.7-1.6 1.6"/><path d="m305.6 131.9c0 .9.7 1.6 1.6 1.6s1.6-.7 1.6-1.6-.7-1.6-1.6-1.6c-.9-.1-1.6.7-1.6 1.6"/><path d="m356.9 131.9c0 .9.7 1.6 1.6 1.6s1.6-.7 1.6-1.6-.7-1.6-1.6-1.6c-.9-.1-1.6.7-1.6 1.6"/><path d="m339.8 131.9c0 .9.7 1.6 1.6 1.6s1.6-.7 1.6-1.6-.7-1.6-1.6-1.6c-.9-.1-1.6.7-1.6 1.6"/><path d="m374 131.9c0 .9.7 1.6 1.6 1.6s1.6-.7 1.6-1.6-.7-1.6-1.6-1.6c-.9-.1-1.6.7-1.6 1.6"/><path d="m374 109.8c0 .9.7 1.6 1.6 1.6s1.6-.7 1.6-1.6-.7-1.6-1.6-1.6-1.6.7-1.6 1.6"/><path d="m356.9 109.8c0 .9.7 1.6 1.6 1.6s1.6-.7 1.6-1.6-.7-1.6-1.6-1.6-1.6.7-1.6 1.6"/><path d="m305.6 109.8c0 .9.7 1.6 1.6 1.6s1.6-.7 1.6-1.6-.7-1.6-1.6-1.6-1.6.7-1.6 1.6"/><path d="m271.4 109.8c0 .9.7 1.6 1.6 1.6s1.6-.7 1.6-1.6-.7-1.6-1.6-1.6-1.6.7-1.6 1.6"/><path d="m288.5 109.8c0 .9.7 1.6 1.6 1.6s1.6-.7 1.6-1.6-.7-1.6-1.6-1.6-1.6.7-1.6 1.6"/><path d="m339.8 109.8c0 .9.7 1.6 1.6 1.6s1.6-.7 1.6-1.6-.7-1.6-1.6-1.6-1.6.7-1.6 1.6"/><path d="m425.3 109.8c0 .9.7 1.6 1.6 1.6s1.6-.7 1.6-1.6-.7-1.6-1.6-1.6-1.6.7-1.6 1.6"/><path d="m322.7 109.8c0 .9.7 1.6 1.6 1.6s1.6-.7 1.6-1.6-.7-1.6-1.6-1.6-1.6.7-1.6 1.6"/><path d="m408.2 109.8c0 .9.7 1.6 1.6 1.6s1.6-.7 1.6-1.6-.7-1.6-1.6-1.6-1.6.7-1.6 1.6"/><path d="m391.1 109.8c0 .9.7 1.6 1.6 1.6s1.6-.7 1.6-1.6-.7-1.6-1.6-1.6-1.6.7-1.6 1.6"/><path d="m339.8 87.8c0 .9.7 1.6 1.6 1.6s1.6-.7 1.6-1.6-.7-1.6-1.6-1.6-1.6.7-1.6 1.6"/><path d="m374 87.8c0 .9.7 1.6 1.6 1.6s1.6-.7 1.6-1.6-.7-1.6-1.6-1.6-1.6.7-1.6 1.6"/><path d="m425.3 87.8c0 .9.7 1.6 1.6 1.6s1.6-.7 1.6-1.6-.7-1.6-1.6-1.6-1.6.7-1.6 1.6"/><path d="m391.1 87.8c0 .9.7 1.6 1.6 1.6s1.6-.7 1.6-1.6-.7-1.6-1.6-1.6-1.6.7-1.6 1.6"/><path d="m305.6 87.8c0 .9.7 1.6 1.6 1.6s1.6-.7 1.6-1.6-.7-1.6-1.6-1.6-1.6.7-1.6 1.6"/><path d="m322.7 87.8c0 .9.7 1.6 1.6 1.6s1.6-.7 1.6-1.6-.7-1.6-1.6-1.6-1.6.7-1.6 1.6"/><path d="m356.9 87.8c0 .9.7 1.6 1.6 1.6s1.6-.7 1.6-1.6-.7-1.6-1.6-1.6-1.6.7-1.6 1.6"/><path d="m408.2 87.8c0 .9.7 1.6 1.6 1.6s1.6-.7 1.6-1.6-.7-1.6-1.6-1.6-1.6.7-1.6 1.6"/><path d="m374 65.8c0 .9.7 1.6 1.6 1.6s1.6-.7 1.6-1.6-.7-1.6-1.6-1.6c-.9-.1-1.6.7-1.6 1.6" mask="url(#f)"/><path d="m360.1 65.8c0-.9-.7-1.6-1.6-1.6s-1.6.7-1.6 1.6.7 1.6 1.6 1.6 1.6-.7 1.6-1.6" mask="url(#g)"/><path d="m391.1 65.8c0 .9.7 1.6 1.6 1.6s1.6-.7 1.6-1.6-.7-1.6-1.6-1.6c-.9-.1-1.6.7-1.6 1.6" mask="url(#h)"/><path d="m425.3 65.8c0 .9.7 1.6 1.6 1.6s1.6-.7 1.6-1.6-.7-1.6-1.6-1.6c-.9-.1-1.6.7-1.6 1.6" mask="url(#i)"/><path d="m408.2 65.8c0 .9.7 1.6 1.6 1.6s1.6-.7 1.6-1.6-.7-1.6-1.6-1.6c-.9-.1-1.6.7-1.6 1.6" mask="url(#j)"/><path d="m343 65.8c-1 .3-2 .6-2.9.9.3.4.8.7 1.3.7.9 0 1.6-.7 1.6-1.6"/><path d="m442.4 396.2c0 .7.5 1.3 1.1 1.5.5-.1 1.1-.2 1.6-.3.3-.3.5-.7.5-1.2 0-.9-.7-1.6-1.6-1.6s-1.6.7-1.6 1.6" mask="url(#k)"/><path d="m476.6 374.2c0 .9.7 1.6 1.6 1.6s1.6-.7 1.6-1.6-.7-1.6-1.6-1.6c-.8 0-1.6.7-1.6 1.6"/><path d="m459.5 374.2c0 .9.7 1.6 1.6 1.6s1.6-.7 1.6-1.6-.7-1.6-1.6-1.6-1.6.7-1.6 1.6"/><path d="m493.7 374.2c0 .9.7 1.6 1.6 1.6s1.6-.7 1.6-1.6-.7-1.6-1.6-1.6c-.8 0-1.6.7-1.6 1.6"/><path d="m442.4 374.2c0 .9.7 1.6 1.6 1.6s1.6-.7 1.6-1.6-.7-1.6-1.6-1.6-1.6.7-1.6 1.6"/><path d="m442.4 352.2c0 .9.7 1.6 1.6 1.6s1.6-.7 1.6-1.6-.7-1.6-1.6-1.6c-.9-.1-1.6.7-1.6 1.6"/><path d="m493.7 352.2c0 .9.7 1.6 1.6 1.6s1.6-.7 1.6-1.6-.7-1.6-1.6-1.6c-.8-.1-1.6.7-1.6 1.6"/><path d="m459.5 352.2c0 .9.7 1.6 1.6 1.6s1.6-.7 1.6-1.6-.7-1.6-1.6-1.6c-.9-.1-1.6.7-1.6 1.6"/><path d="m476.6 352.2c0 .9.7 1.6 1.6 1.6s1.6-.7 1.6-1.6-.7-1.6-1.6-1.6c-.8-.1-1.6.7-1.6 1.6"/><path d="m527.9 352.2c0 .4.2.8.4 1.1.8-.8 1.6-1.5 2.3-2.3-.3-.3-.7-.4-1.1-.4-.8-.1-1.6.7-1.6 1.6"/><path d="m510.8 352.2c0 .9.7 1.6 1.6 1.6s1.6-.7 1.6-1.6-.7-1.6-1.6-1.6c-.8-.1-1.6.7-1.6 1.6"/><path d="m442.4 330.1c0 .9.7 1.6 1.6 1.6s1.6-.7 1.6-1.6-.7-1.6-1.6-1.6-1.6.7-1.6 1.6"/><path d="m476.6 330.1c0 .9.7 1.6 1.6 1.6s1.6-.7 1.6-1.6-.7-1.6-1.6-1.6c-.8 0-1.6.7-1.6 1.6"/><path d="m527.9 330.1c0 .9.7 1.6 1.6 1.6s1.6-.7 1.6-1.6-.7-1.6-1.6-1.6c-.8 0-1.6.7-1.6 1.6"/><path d="m510.8 330.1c0 .9.7 1.6 1.6 1.6s1.6-.7 1.6-1.6-.7-1.6-1.6-1.6c-.8 0-1.6.7-1.6 1.6"/><path d="m493.7 330.1c0 .9.7 1.6 1.6 1.6s1.6-.7 1.6-1.6-.7-1.6-1.6-1.6c-.8 0-1.6.7-1.6 1.6"/><path d="m459.5 330.1c0 .9.7 1.6 1.6 1.6s1.6-.7 1.6-1.6-.7-1.6-1.6-1.6-1.6.7-1.6 1.6"/><path d="m545 330.1c0 .9.7 1.6 1.6 1.6.2 0 .5-.1.7-.2.3-.4.6-.8.9-1.3 0-.1 0-.1 0-.2 0-.9-.7-1.6-1.6-1.6-.8.1-1.6.8-1.6 1.7"/><path d="m493.7 308.1c0 .9.7 1.6 1.6 1.6s1.6-.7 1.6-1.6-.7-1.6-1.6-1.6c-.8 0-1.6.7-1.6 1.6"/><path d="m510.8 308.1c0 .9.7 1.6 1.6 1.6s1.6-.7 1.6-1.6-.7-1.6-1.6-1.6c-.8 0-1.6.7-1.6 1.6"/><path d="m476.6 308.1c0 .9.7 1.6 1.6 1.6s1.6-.7 1.6-1.6-.7-1.6-1.6-1.6c-.8 0-1.6.7-1.6 1.6"/><path d="m442.4 308.1c0 .9.7 1.6 1.6 1.6s1.6-.7 1.6-1.6-.7-1.6-1.6-1.6-1.6.7-1.6 1.6"/><path d="m459.5 308.1c0 .9.7 1.6 1.6 1.6s1.6-.7 1.6-1.6-.7-1.6-1.6-1.6-1.6.7-1.6 1.6"/><path d="m527.9 308.1c0 .9.7 1.6 1.6 1.6s1.6-.7 1.6-1.6-.7-1.6-1.6-1.6c-.8 0-1.6.7-1.6 1.6"/><path d="m545 308.1c0 .9.7 1.6 1.6 1.6s1.6-.7 1.6-1.6-.7-1.6-1.6-1.6c-.8 0-1.6.7-1.6 1.6"/><path d="m442.4 286.1c0 .9.7 1.6 1.6 1.6s1.6-.7 1.6-1.6-.7-1.6-1.6-1.6-1.6.7-1.6 1.6"/><path d="m459.5 286.1c0 .9.7 1.6 1.6 1.6s1.6-.7 1.6-1.6-.7-1.6-1.6-1.6-1.6.7-1.6 1.6"/><path d="m527.9 286.1c0 .9.7 1.6 1.6 1.6s1.6-.7 1.6-1.6-.7-1.6-1.6-1.6c-.8 0-1.6.7-1.6 1.6"/><path d="m562.2 286.1c0 .9.7 1.6 1.6 1.6s1.6-.7 1.6-1.6-.7-1.6-1.6-1.6-1.6.7-1.6 1.6"/><path d="m545 286.1c0 .9.7 1.6 1.6 1.6s1.6-.7 1.6-1.6-.7-1.6-1.6-1.6c-.8 0-1.6.7-1.6 1.6"/><path d="m476.6 286.1c0 .9.7 1.6 1.6 1.6s1.6-.7 1.6-1.6-.7-1.6-1.6-1.6c-.8 0-1.6.7-1.6 1.6"/><path d="m510.8 286.1c0 .9.7 1.6 1.6 1.6s1.6-.7 1.6-1.6-.7-1.6-1.6-1.6c-.8 0-1.6.7-1.6 1.6"/><path d="m493.7 286.1c0 .9.7 1.6 1.6 1.6s1.6-.7 1.6-1.6-.7-1.6-1.6-1.6c-.8 0-1.6.7-1.6 1.6"/><path d="m442.4 264c0 .9.7 1.6 1.6 1.6s1.6-.7 1.6-1.6-.7-1.6-1.6-1.6-1.6.8-1.6 1.6"/><path d="m459.5 264c0 .9.7 1.6 1.6 1.6s1.6-.7 1.6-1.6-.7-1.6-1.6-1.6-1.6.8-1.6 1.6"/><path d="m562.2 264c0 .9.7 1.6 1.6 1.6s1.6-.7 1.6-1.6-.7-1.6-1.6-1.6-1.6.8-1.6 1.6"/><path d="m476.6 264c0 .9.7 1.6 1.6 1.6s1.6-.7 1.6-1.6-.7-1.6-1.6-1.6c-.8 0-1.6.8-1.6 1.6"/><path d="m510.8 264c0 .9.7 1.6 1.6 1.6s1.6-.7 1.6-1.6-.7-1.6-1.6-1.6c-.8 0-1.6.8-1.6 1.6"/><path d="m527.9 264c0 .9.7 1.6 1.6 1.6s1.6-.7 1.6-1.6-.7-1.6-1.6-1.6c-.8 0-1.6.8-1.6 1.6"/><path d="m493.7 264c0 .9.7 1.6 1.6 1.6s1.6-.7 1.6-1.6-.7-1.6-1.6-1.6c-.8 0-1.6.8-1.6 1.6"/><path d="m545 264c0 .9.7 1.6 1.6 1.6s1.6-.7 1.6-1.6-.7-1.6-1.6-1.6c-.8 0-1.6.8-1.6 1.6"/><path d="m579.3 242c0 .4.2.8.5 1.2.2.2.4.3.6.4.1-1 .1-2.1.2-3.1-.3.1-.6.2-.8.4-.4.3-.5.7-.5 1.1"/><path d="m442.4 242c0 .9.7 1.6 1.6 1.6s1.6-.7 1.6-1.6-.7-1.6-1.6-1.6-1.6.7-1.6 1.6"/><path d="m562.2 242c0 .9.7 1.6 1.6 1.6s1.6-.7 1.6-1.6-.7-1.6-1.6-1.6-1.6.7-1.6 1.6"/><path d="m545 242c0 .9.7 1.6 1.6 1.6s1.6-.7 1.6-1.6-.7-1.6-1.6-1.6c-.8 0-1.6.7-1.6 1.6"/><path d="m510.8 242c0 .9.7 1.6 1.6 1.6s1.6-.7 1.6-1.6-.7-1.6-1.6-1.6c-.8 0-1.6.7-1.6 1.6"/><path d="m493.7 242c0 .9.7 1.6 1.6 1.6s1.6-.7 1.6-1.6-.7-1.6-1.6-1.6c-.8 0-1.6.7-1.6 1.6"/><path d="m476.6 242c0 .9.7 1.6 1.6 1.6s1.6-.7 1.6-1.6-.7-1.6-1.6-1.6c-.8 0-1.6.7-1.6 1.6"/><path d="m459.5 242c0 .9.7 1.6 1.6 1.6s1.6-.7 1.6-1.6-.7-1.6-1.6-1.6-1.6.7-1.6 1.6"/><path d="m527.9 242c0 .9.7 1.6 1.6 1.6s1.6-.7 1.6-1.6-.7-1.6-1.6-1.6c-.8 0-1.6.7-1.6 1.6"/><path d="m579.3 220c0 .4.2.8.5 1.2.3.3.6.4.9.5 0-1.1-.1-2.1-.2-3.2-.3.1-.6.2-.8.4-.3.2-.4.7-.4 1.1"/><path d="m442.4 220c0 .9.7 1.6 1.6 1.6s1.6-.7 1.6-1.6-.7-1.6-1.6-1.6-1.6.7-1.6 1.6"/><path d="m476.6 220c0 .9.7 1.6 1.6 1.6s1.6-.7 1.6-1.6-.7-1.6-1.6-1.6c-.8 0-1.6.7-1.6 1.6"/><path d="m493.7 220c0 .9.7 1.6 1.6 1.6s1.6-.7 1.6-1.6-.7-1.6-1.6-1.6c-.8 0-1.6.7-1.6 1.6"/><path d="m510.8 220c0 .9.7 1.6 1.6 1.6s1.6-.7 1.6-1.6-.7-1.6-1.6-1.6c-.8 0-1.6.7-1.6 1.6"/><path d="m527.9 220c0 .9.7 1.6 1.6 1.6s1.6-.7 1.6-1.6-.7-1.6-1.6-1.6c-.8 0-1.6.7-1.6 1.6"/><path d="m459.5 220c0 .9.7 1.6 1.6 1.6s1.6-.7 1.6-1.6-.7-1.6-1.6-1.6-1.6.7-1.6 1.6"/><path d="m545 220c0 .9.7 1.6 1.6 1.6s1.6-.7 1.6-1.6-.7-1.6-1.6-1.6c-.8 0-1.6.7-1.6 1.6"/><path d="m562.2 220c0 .9.7 1.6 1.6 1.6s1.6-.7 1.6-1.6-.7-1.6-1.6-1.6-1.6.7-1.6 1.6"/><path d="m442.4 198c0 .9.7 1.6 1.6 1.6s1.6-.7 1.6-1.6-.7-1.6-1.6-1.6c-.9-.1-1.6.7-1.6 1.6"/><path d="m459.5 198c0 .9.7 1.6 1.6 1.6s1.6-.7 1.6-1.6-.7-1.6-1.6-1.6c-.9-.1-1.6.7-1.6 1.6"/><path d="m527.9 198c0 .9.7 1.6 1.6 1.6s1.6-.7 1.6-1.6-.7-1.6-1.6-1.6c-.8-.1-1.6.7-1.6 1.6"/><path d="m562.2 198c0 .9.7 1.6 1.6 1.6s1.6-.7 1.6-1.6-.7-1.6-1.6-1.6c-.9-.1-1.6.7-1.6 1.6"/><path d="m476.6 198c0 .9.7 1.6 1.6 1.6s1.6-.7 1.6-1.6-.7-1.6-1.6-1.6c-.8-.1-1.6.7-1.6 1.6"/><path d="m545 198c0 .9.7 1.6 1.6 1.6s1.6-.7 1.6-1.6-.7-1.6-1.6-1.6c-.8-.1-1.6.7-1.6 1.6"/><path d="m510.8 198c0 .9.7 1.6 1.6 1.6s1.6-.7 1.6-1.6-.7-1.6-1.6-1.6c-.8-.1-1.6.7-1.6 1.6"/><path d="m493.7 198c0 .9.7 1.6 1.6 1.6s1.6-.7 1.6-1.6-.7-1.6-1.6-1.6c-.8-.1-1.6.7-1.6 1.6"/><path d="m562.2 175.9c0 .9.7 1.6 1.6 1.6s1.6-.7 1.6-1.6-.7-1.6-1.6-1.6-1.6.7-1.6 1.6"/><path d="m510.8 175.9c0 .9.7 1.6 1.6 1.6s1.6-.7 1.6-1.6-.7-1.6-1.6-1.6c-.8 0-1.6.7-1.6 1.6"/><path d="m527.9 175.9c0 .9.7 1.6 1.6 1.6s1.6-.7 1.6-1.6-.7-1.6-1.6-1.6c-.8 0-1.6.7-1.6 1.6"/><path d="m545 175.9c0 .9.7 1.6 1.6 1.6s1.6-.7 1.6-1.6-.7-1.6-1.6-1.6c-.8 0-1.6.7-1.6 1.6"/><path d="m459.5 175.9c0 .9.7 1.6 1.6 1.6s1.6-.7 1.6-1.6-.7-1.6-1.6-1.6-1.6.7-1.6 1.6"/><path d="m476.6 175.9c0 .9.7 1.6 1.6 1.6s1.6-.7 1.6-1.6-.7-1.6-1.6-1.6c-.8 0-1.6.7-1.6 1.6"/><path d="m493.7 175.9c0 .9.7 1.6 1.6 1.6s1.6-.7 1.6-1.6-.7-1.6-1.6-1.6c-.8 0-1.6.7-1.6 1.6"/><path d="m442.4 175.9c0 .9.7 1.6 1.6 1.6s1.6-.7 1.6-1.6-.7-1.6-1.6-1.6-1.6.7-1.6 1.6"/><path d="m459.5 153.9c0 .9.7 1.6 1.6 1.6s1.6-.7 1.6-1.6-.7-1.6-1.6-1.6-1.6.7-1.6 1.6"/><path d="m442.4 153.9c0 .9.7 1.6 1.6 1.6s1.6-.7 1.6-1.6-.7-1.6-1.6-1.6-1.6.7-1.6 1.6"/><path d="m493.7 153.9c0 .9.7 1.6 1.6 1.6s1.6-.7 1.6-1.6-.7-1.6-1.6-1.6c-.8 0-1.6.7-1.6 1.6"/><path d="m476.6 153.9c0 .9.7 1.6 1.6 1.6s1.6-.7 1.6-1.6-.7-1.6-1.6-1.6c-.8 0-1.6.7-1.6 1.6"/><path d="m510.8 153.9c0 .9.7 1.6 1.6 1.6s1.6-.7 1.6-1.6-.7-1.6-1.6-1.6c-.8 0-1.6.7-1.6 1.6"/><path d="m545 153.9c0 .9.7 1.6 1.6 1.6s1.6-.7 1.6-1.6-.7-1.6-1.6-1.6c-.8 0-1.6.7-1.6 1.6"/><path d="m563.8 155.5h.2c-.4-.9-.9-1.8-1.4-2.8-.3.3-.5.7-.5 1.2.1.9.8 1.6 1.7 1.6"/><path d="m527.9 153.9c0 .9.7 1.6 1.6 1.6s1.6-.7 1.6-1.6-.7-1.6-1.6-1.6c-.8 0-1.6.7-1.6 1.6"/><path d="m510.8 131.9c0 .9.7 1.6 1.6 1.6s1.6-.7 1.6-1.6-.7-1.6-1.6-1.6c-.8-.1-1.6.7-1.6 1.6"/><path d="m476.6 131.9c0 .9.7 1.6 1.6 1.6s1.6-.7 1.6-1.6-.7-1.6-1.6-1.6c-.8-.1-1.6.7-1.6 1.6"/><path d="m527.9 131.9c0 .9.7 1.6 1.6 1.6s1.6-.7 1.6-1.6-.7-1.6-1.6-1.6c-.8-.1-1.6.7-1.6 1.6"/><path d="m545 131.9c0 .9.7 1.6 1.6 1.6s1.6-.7 1.6-1.6-.7-1.6-1.6-1.6c-.8-.1-1.6.7-1.6 1.6"/><path d="m493.7 131.9c0 .9.7 1.6 1.6 1.6s1.6-.7 1.6-1.6-.7-1.6-1.6-1.6c-.8-.1-1.6.7-1.6 1.6"/><path d="m442.4 131.9c0 .9.7 1.6 1.6 1.6s1.6-.7 1.6-1.6-.7-1.6-1.6-1.6c-.9-.1-1.6.7-1.6 1.6"/><path d="m459.5 131.9c0 .9.7 1.6 1.6 1.6s1.6-.7 1.6-1.6-.7-1.6-1.6-1.6c-.9-.1-1.6.7-1.6 1.6"/><path d="m442.4 109.8c0 .9.7 1.6 1.6 1.6s1.6-.7 1.6-1.6-.7-1.6-1.6-1.6-1.6.7-1.6 1.6"/><path d="m493.7 109.8c0 .9.7 1.6 1.6 1.6s1.6-.7 1.6-1.6-.7-1.6-1.6-1.6c-.8 0-1.6.7-1.6 1.6"/><path d="m527.9 109.8c0 .9.7 1.6 1.6 1.6s1.6-.7 1.6-1.6-.7-1.6-1.6-1.6c-.8 0-1.6.7-1.6 1.6"/><path d="m510.8 109.8c0 .9.7 1.6 1.6 1.6s1.6-.7 1.6-1.6-.7-1.6-1.6-1.6c-.8 0-1.6.7-1.6 1.6"/><path d="m459.5 109.8c0 .9.7 1.6 1.6 1.6s1.6-.7 1.6-1.6-.7-1.6-1.6-1.6-1.6.7-1.6 1.6"/><path d="m476.6 109.8c0 .9.7 1.6 1.6 1.6s1.6-.7 1.6-1.6-.7-1.6-1.6-1.6c-.8 0-1.6.7-1.6 1.6"/><path d="m459.5 87.8c0 .9.7 1.6 1.6 1.6s1.6-.7 1.6-1.6-.7-1.6-1.6-1.6-1.6.7-1.6 1.6"/><path d="m493.7 87.8c0 .9.7 1.6 1.6 1.6s1.6-.7 1.6-1.6-.7-1.6-1.6-1.6c-.8 0-1.6.7-1.6 1.6"/><path d="m476.6 87.8c0 .9.7 1.6 1.6 1.6s1.6-.7 1.6-1.6-.7-1.6-1.6-1.6c-.8 0-1.6.7-1.6 1.6"/><path d="m442.4 87.8c0 .9.7 1.6 1.6 1.6s1.6-.7 1.6-1.6-.7-1.6-1.6-1.6-1.6.7-1.6 1.6"/><path d="m442.4 65.8c0 .9.7 1.6 1.6 1.6s1.6-.7 1.6-1.6-.7-1.6-1.6-1.6c-.9-.1-1.6.7-1.6 1.6"/><path d="m461.1 67.4c.5 0 1-.3 1.3-.7-1-.3-1.9-.6-2.9-.9 0 .9.8 1.6 1.6 1.6"/></g></g></svg>