<svg enable-background="new 0 0 1526.3 1985.1" viewBox="0 0 1526.3 1985.1" xmlns="http://www.w3.org/2000/svg" xmlns:xlink="http://www.w3.org/1999/xlink"><mask id="a" height="14" maskUnits="userSpaceOnUse" width="14" x="343.2" y="1270.7"><path clip-rule="evenodd" d="m-895.8 530.7h1440v1000h-1440z" fill="#fff" fill-rule="evenodd"/></mask><mask id="b" height="69" maskUnits="userSpaceOnUse" width="69" x="23.2" y="1314.7"><path clip-rule="evenodd" d="m-895.8 530.7h1440v1000h-1440z" fill="#fff" fill-rule="evenodd"/></mask><mask id="c" height="14" maskUnits="userSpaceOnUse" width="14" x="373.2" y="1104.7"><path clip-rule="evenodd" d="m-895.8 530.7h1440v1000h-1440z" fill="#fff" fill-rule="evenodd"/></mask><mask id="d" height="46" maskUnits="userSpaceOnUse" width="46" x="473.2" y="1132.7"><path clip-rule="evenodd" d="m-895.8 530.7h1440v1000h-1440z" fill="#fff" fill-rule="evenodd"/></mask><mask id="e" height="26" maskUnits="userSpaceOnUse" width="26" x="420.2" y="1288.7"><path clip-rule="evenodd" d="m-895.8 530.7h1440v1000h-1440z" fill="#fff" fill-rule="evenodd"/></mask><mask id="f" height="26" maskUnits="userSpaceOnUse" width="26" x="207.2" y="1207.7"><path clip-rule="evenodd" d="m-895.8 530.7h1440v1000h-1440z" fill="#fff" fill-rule="evenodd"/></mask><mask id="g" height="194.7" maskUnits="userSpaceOnUse" width="195.1" x="500.8" y="672.6"><path clip-rule="evenodd" d="m-895.8 530.7h1440v1000h-1440z" fill="#fff" fill-rule="evenodd"/></mask><mask id="h" height="46" maskUnits="userSpaceOnUse" width="46" x="0" y="510.7"><path clip-rule="evenodd" d="m-612.7-12h960v666.7h-960z" fill="#fff" fill-rule="evenodd"/></mask><g clip-rule="evenodd" fill-rule="evenodd"><path d="m468.4 1272c-21 19.2-44.8 33.9-69 46.4-63.4 32.6-129.9 50.2-157.9 93.8-38.6 60.3-3.7 170.7 46.6 291.5 50.1 120.9 115.3 252.4 199 277.3 83.8 25 185.8-56.4 282.6-102.8 96.6-46.3 188.2-57.8 230-113.1 41.8-55.5 34.1-155 26.5-269.6-.8-12.5-22.4-254.6-82.4-338.6-67-94.3-193.7-153.1-276.8-118-83 34.8-122.7 163.6-198.6 233.1" fill="#fff"/><path d="m197.7 1351.3.7-8 179.4 15.7-.7 8zm-2 19 .7-8 179.4 15.7-.7 8zm-2 19 .7-8 179.4 15.7-.7 8zm-1 19 .7-8 179.4 15.7-.7 8zm-2 19 .7-8 179.4 15.7-.7 8zm-2 19 .7-8 179.4 15.7-.7 8zm-1 19 .7-8 179.4 15.7-.7 8zm-2 19 .7-8 179.4 15.7-.7 8zm-2 19 .7-8 179.4 15.7-.7 8zm-1 19 .7-8 179.4 15.7-.7 8z" fill="#86cac6"/><path d="m307.5 1360.9c4.6-2.3 9.4-4.5 14.2-6.8l56.1 4.9-.7 8zm-29.7 16.6c3.7-2.4 7.5-4.7 11.5-7l86.4 7.6-.7 8zm-22 17.3c2.6-2.5 5.4-5 8.3-7.3l109.7 9.6-.7 8zm-14.6 17.8.3-.4c1.6-2.4 3.3-4.8 5.1-7.1l126.2 11-.7 8zm-8.9 18.4c.9-2.6 2-5.2 3.1-7.7l135.3 11.8-.7 8zm-4.9 18.7c.5-2.7 1-5.3 1.7-7.9l139.7 12.2-.7 8zm-2.1 18.9c.1-2.7.3-5.4.6-8l141.9 12.4-.7 8zm-.1 19.2c-.1-2.7-.2-5.4-.2-8l140.8 12.3-.7 8zm1.6 19.3c-.3-2.7-.6-5.4-.9-8.1l137.8 12.1-.7 8zm3 19.3c-.5-2.7-.9-5.5-1.4-8.1l134.4 11.8-.7 8z" fill="#b7e4e6"/><path d="m1521.4 371.3c11.8 185.6 21.9 401.5-215.4 372.3-297.4-36.6-277.4 91.3-284.7 255.5-7.3 164.3-40.2 321.2-255.5 215.4-215.4-105.9-248.2-116.8-441.7-51.1-193.5 65.8-368.7-47.4-313.9-233.6 54.7-186.2 135.1-226.3 113.2-412.5s120.5-175.2 262.8-94.9c142.4 80.3 321.2 105.9 343.1-58.4s113.2-335.8 270.1-157 255.5 7.3 306.6-142.4c51.1-149.6 193.5-36.4 215.4 306.7" fill="#b7e4e6"/><path d="m321.1 573.7c-66 0-121.9 20.2-166.7 60.3-61.7 55.2-97.1 145.5-97.1 247.8 0 100.7 49.4 204.4 125.9 264.2 37.9 29.6 99 60.9 175.2 42 287.5-71.6 309.8-252.5 309.8-306.2 0-159.6-126.4-285.3-307.5-305.7-13.6-1.6-26.8-2.4-39.6-2.4m-8.3 656c-52.8 0-105.3-18.8-151.8-55.2-84.9-66.4-139.8-181.3-139.8-292.7 0-112.6 39.8-212.7 109.1-274.7 60.7-54.2 141.7-77.4 234.4-66.9 199.9 22.6 339.5 163 339.5 341.6 0 161-126 288.6-337.2 341.2-17.9 4.5-36.1 6.7-54.2 6.7" fill="#86cac6"/><path d="m57.2 881.7c0 100.7 49.4 204.4 125.9 264.2 16.2 12.7 36.7 25.7 60.8 34.9-27.4 2.6-53.7 1.6-78.3-2.8-1.6-1.2-3.2-2.4-4.8-3.6-81.7-63.9-135.6-172.7-139.5-280.1 15.8-46.2 33-82.9 48.7-116-8.3 32.3-12.8 67.1-12.8 103.4zm307.5-341.5c199.9 22.6 339.5 163 339.5 341.6 0 99.1-47.7 185.5-133.5 249.5-17.7-4.5-34.5-7.3-51.4-8.3 135.8-84.1 148.9-200.1 148.9-241.3 0-159.6-126.4-285.3-307.5-305.7-13.6-1.5-26.8-2.3-39.6-2.3-66 0-121.9 20.2-166.7 60.3-17 15.2-32.1 33.1-44.9 53.2 7.7-23.2 13.4-47.6 16-75.6 1.6-1.5 3.3-3 4.9-4.5 60.6-54.3 141.7-77.4 234.3-66.9z" fill="#49bdc3"/><path d="m350.2 1270.7c3.8.4 7 3.1 7 7s-3.1 7-7 7-7-3.1-7-7c0-3.8 2.3-7.5 7-7" fill="#10a5ac" mask="url(#a)"/><path d="m57.7 1314.9c18.9 2.1 34.5 15.4 34.5 34.4s-15.4 34.4-34.5 34.4-34.5-15.4-34.5-34.4 11.4-37 34.5-34.4" fill="#ffe399" mask="url(#b)"/><path d="m380.2 1104.7c3.8.4 7 3.1 7 7s-3.1 7-7 7-7-3.1-7-7c0-3.8 2.3-7.5 7-7" fill="#10a5ac" mask="url(#c)"/><path d="m496.2 1132.9c12.6 1.4 23 10.3 23 22.9 0 12.7-10.3 22.9-23 22.9s-23-10.3-23-22.9c0-12.7 7.6-24.7 23-22.9" fill="#b7e4e6" mask="url(#d)"/><path d="m433.2 1288.8c7.1.8 13 5.8 13 13s-5.8 13-13 13-13-5.8-13-13 4.3-14 13-13" fill="#86cac6" mask="url(#e)"/><path d="m220.2 1207.8c7.1.8 13 5.8 13 13s-5.8 13-13 13-13-5.8-13-13 4.3-14 13-13" fill="#10a5ac" mask="url(#f)"/><path d="m515.8 680.5.7-8 179.5 15.8-.7 8zm-2 19 .7-8 179.5 15.8-.7 8zm-2 19 .7-8 179.5 15.8-.7 8zm-1 19 .7-8 179.5 15.8-.7 8zm-2 19 .7-8 179.5 15.8-.7 8zm-2 19 .7-8 179.5 15.8-.7 8zm-1 19 .7-8 179.5 15.8-.7 8zm-2 19 .7-8 179.5 15.8-.7 8zm-2 19 .7-8 179.5 15.8-.7 8zm-1 19 .7-8 179.5 15.8-.7 8z" fill="#86cac6" mask="url(#g)"/><path d="m23 510.9c12.6 1.4 23 10.3 23 22.9 0 12.7-10.3 22.9-23 22.9s-23-10.3-23-22.9c0-12.7 7.6-24.7 23-22.9" fill="#ffe399" mask="url(#h)"/></g></svg>