<svg enable-background="new 0 0 932.7 1171" viewBox="0 0 932.7 1171" xmlns="http://www.w3.org/2000/svg" xmlns:xlink="http://www.w3.org/1999/xlink"><mask id="a" height="946" maskUnits="userSpaceOnUse" width="149" x="618.9" y="162"><path clip-rule="evenodd" d="m-482.5 2465.6h-190c0-158.7 73.5-233.7 132.8-298.6 50.2-55.1 83.3-90.3 83.3-172.3s-33.1-117.7-83.4-172.7c-59.2-65-132.8-145.6-132.8-300.9.1-155.4 73.7-236.2 132.8-301.2 50.1-55.2 83.4-91.6 83.4-173.7s-33.2-118.6-83.4-173.8c-59.2-65.1-132.9-146-132.8-301.4 0-155.6 73.5-236.5 132.7-301.5 50.3-55.3 83.5-91.7 83.4-173.9l190 .1c0 155.5-73.6 236.4-132.7 301.4-50.3 55.2-83.4 91.7-83.4 173.8-.1 82.2 33.2 118.7 83.4 174 59.2 64.9 132.7 145.8 132.7 301.4 0 155.4-73.5 236.3-132.7 301.3-50.2 55.2-83.4 91.6-83.4 173.7s33.2 118.4 83.4 173.4c59.1 65 132.8 145.9 132.7 301.2.1 155.4-73.5 233.6-132.7 298.6-50.1 55.3-83.3 103.1-83.3 171.1" fill="#fff" fill-rule="evenodd"/></mask><mask id="b" height="69" maskUnits="userSpaceOnUse" width="69" x="246.5" y="879.6"><path clip-rule="evenodd" d="m-672.5 95.6h1440v1000h-1440z" fill="#fff" fill-rule="evenodd"/></mask><g clip-rule="evenodd" fill-rule="evenodd"><path d="m421 916.2.7-8 179.4 15.7-.7 8zm-2 19 .7-8 179.4 15.7-.7 8zm-2 19 .7-8 179.4 15.7-.7 8zm-1 19 .7-8 179.4 15.7-.7 8zm-2 19 .7-8 179.4 15.7-.7 8zm-2 19 .7-8 179.4 15.7-.7 8zm-1 19 .7-8 179.4 15.7-.7 8zm-2 19 .7-8 179.4 15.7-.7 8zm-2 19 .7-8 179.4 15.7-.7 8zm-1 19 .7-8 179.4 15.7-.7 8z" fill="#86cac6"/><path d="m530.7 925.8c4.6-2.3 9.4-4.5 14.2-6.8l56.1 4.9-.7 8zm-29.6 16.6c3.7-2.4 7.5-4.7 11.5-7l86.4 7.6-.7 8zm-22 17.2c2.6-2.5 5.4-5 8.3-7.3l109.7 9.6-.7 8zm-14.6 17.8.3-.4c1.6-2.4 3.3-4.8 5.1-7.1l126.2 11-.7 8zm-8.9 18.4c.9-2.6 2-5.2 3.1-7.7l135.3 11.8-.7 8zm-4.9 18.8c.5-2.7 1-5.3 1.7-7.9l139.7 12.2-.7 8zm-2.2 18.9c.1-2.7.3-5.4.6-8l141.9 12.4-.7 8zm0 19.2c-.1-2.7-.2-5.4-.2-8l140.8 12.3-.7 8zm1.6 19.3c-.3-2.7-.6-5.4-.9-8.1l137.8 12.1-.7 8zm3 19.3c-.5-2.7-.9-5.5-1.4-8.1l134.4 11.8-.7 8z" fill="#b7e4e6"/><path d="m0 0 704.2 1169.4 83.3 1.6v-1171z" fill="#b7e4e6"/><path d="m768 932.2v26.4l-149 149.4v-26.4zm0-71.3v26.4l-149 149.4v-26.4zm0-69.6v26.4l-149 149.4v-26.4zm0-69.7v26.4l-149 149.4v-26.4zm0-69.6v26.4l-149 149.4v-26.4zm0-70.5v26.4l-149 149.4v-26.4zm0-69.6v26.4l-149 149.4v-26.4zm0-69.6v26.4l-149 149.4v-26.4zm0-69.7v26.4l-149 149.4v-26.4zm0-71.3v26.4l-149 149.4v-26.4zm0-69.6v26.3l-149 149.5v-26.4zm0-69.7v26.4l-149 149.4v-26.4z" fill="#86cac6"/><path d="m767.9 932.2v26.4l-149 149.4v-26.4zm0-71.3v26.4l-149 149.4v-26.4zm0-69.6v26.4l-149 149.4v-26.4zm0-69.7v26.4l-149 149.4v-26.4zm0-69.6v26.4l-149 149.4v-26.4zm0-70.5v26.4l-149 149.4v-26.4zm0-69.6v26.4l-149 149.4v-26.4zm0-69.6v26.4l-149 149.4v-26.4zm0-69.7v26.4l-149 149.4v-26.4zm0-71.3v26.4l-149 149.4v-26.4zm0-69.6v26.3l-149 149.4v-26.4zm0-69.7v26.4l-149 149.4v-26.4z" fill="#10a5ac" mask="url(#a)"/><path d="m258.3 0c1.5 3.8 2.9 7.6 4.1 11.4 27.6 88.2-24.7 199.1-52.8 323.2-.7 3.3-1.5 6.5-2.2 9.8l-207.4-344.4z" fill="#fff1cc"/><path d="m281 879.8c18.9 2.1 34.5 15.4 34.5 34.4s-15.4 34.4-34.5 34.4-34.5-15.4-34.5-34.4 11.3-37 34.5-34.4" fill="#b7e4e6" mask="url(#b)"/><path d="m716.9 159.8c0-75 27.7-111.8 70.8-159.7h-228.8c-19.2 43.1-31.9 94.8-32 159.5 0 155.3 73.6 235.9 132.8 300.9 50.2 55 83.4 90.7 83.4 172.7s-33.1 117.2-83.3 172.3c-59.3 64.9-132.8 139.9-132.8 298.5h190c0-68 33.2-115.8 83.4-171 59.2-65 132.8-143.1 132.7-298.6.1-155.3-73.6-236.2-132.7-301.2-50.3-55.1-83.5-91.4-83.5-173.4z" fill="#86cac6"/></g></svg>
