<svg enable-background="new 0 0 1526.1 1986.3" viewBox="0 0 1526.1 1986.3" xmlns="http://www.w3.org/2000/svg"><g fill="none"><path d="m561.7 943.9c-97.4 23.7-211 49.2-217.7-79.4-8.4-161.2-74.4-138.6-162.2-127.1s-174.2 8.8-138.2-115.3 38.8-142.6-14.2-239c-53-96.5-9.3-200 94.6-188.3 103.9 11.6 132.7 50.5 229.5 21.4s104.2 47.5 74.9 130.5-26.1 180.3 63.1 176.5 188.8 28.6 108.5 128.6c-80.2 100 20 136.2 104.2 149.3 84.3 13 37.6 99.1-142.5 142.8z" stroke="#b7e4e6" stroke-width="5.9466"/><path d="m541.2 906.1c-87.7 21.3-189.9 44.3-195.9-71.4-7.6-145.1-66.9-124.7-146-114.4s-156.8 7.9-124.4-103.8 34.9-128.3-12.8-215.1-8.4-180 85.2-169.5c93.5 10.5 119.5 45.4 206.5 19.3 87.1-26.1 93.8 42.7 67.5 117.5-26.4 74.7-23.5 162.2 56.8 158.9 80.3-3.4 169.9 25.7 97.7 115.7s18 122.6 93.8 134.4c75.7 11.6 33.6 89-128.4 128.4z" stroke="#b7e4e6" stroke-width="5.3526"/><path d="m520.7 868.2c-77.9 18.9-168.8 39.4-174.2-63.5-6.7-128.9-59.5-110.9-129.8-101.7s-139.4 7-110.6-92.3 31-114.1-11.3-191.2c-42.4-77.2-7.4-160 75.7-150.7s106.2 40.4 183.6 17.1c77.4-23.2 83.4 38 59.9 104.4-23.4 66.4-20.9 144.2 50.5 141.2s151 22.9 86.8 102.9 16 109 83.4 119.4c67.4 10.6 30 79.5-114 114.4z" stroke="#b7e4e6" stroke-width="4.7586"/><path d="m504.3 838c-70.1 17-151.9 35.4-156.8-57.2-6-116.1-53.5-99.8-116.8-91.5s-125.4 6.3-99.5-83.1 27.9-102.7-10.2-172.1c-38.1-69.5-6.7-144 68.1-135.6s95.6 36.3 165.2 15.4c69.7-20.9 75.1 34.2 54 94s-18.8 129.8 45.4 127.1 135.9 20.6 78.2 92.6c-57.8 72 14.4 98.1 75 107.5s27 71.4-102.6 102.9z" stroke="#b7e4e6" stroke-width="4.2834"/></g><path clip-rule="evenodd" d="m625.5 234c-272.8 0-494 221.2-494 494s221.2 494 494 494 494-221.2 494-494-221.2-494-494-494z" fill="#86cac6" fill-rule="evenodd"/><path clip-rule="evenodd" d="m523.8 1331.9c0-76.6 31-110.7 77.8-162.2 55.2-60.8 123.9-136.4 123.9-281.5 0-145.3-68.6-220.9-123.9-281.5-46.8-51.7-77.9-85.7-77.8-162.5 0-76.7 30.9-110.8 77.8-162.4 55.2-60.8 123.9-136.4 123.9-281.6l-177.3-.2c0 76.8-31 110.9-77.9 162.5-55.2 60.8-123.8 136.4-123.8 281.7 0 145.2 68.7 220.8 123.9 281.6 46.8 51.6 77.8 85.7 77.8 162.3 0 76.7-31 110.6-77.8 162.2-55.2 60.7-123.9 136.1-124 281.3 0 145.1 68.7 220.3 123.9 281.1 46.9 51.4 77.9 84.7 77.8 161.3 0 76.6-30.9 109.5-77.7 161-55.3 60.7-123.9 130.7-123.9 279h177.3c0-63.5 31-108.2 77.8-159.8 55.3-60.7 123.9-133.7 123.9-278.9.1-145.1-68.7-220.7-123.9-281.4-46.8-51.4-77.8-85.3-77.8-162z" fill="#ffe399" fill-rule="evenodd"/><path clip-rule="evenodd" d="m523.8 444.1c0-76.7 30.9-110.8 77.8-162.4 13.3-14.7 27.4-30.2 41.2-47.4-5.8-.2-11.5-.3-17.3-.3-92.4 0-178.9 25.4-252.9 69.6-15.8 38.5-26.1 84.4-26.1 140.6 0 145.2 68.7 220.8 123.9 281.6 46.8 51.6 77.8 85.7 77.8 162.3 0 76.7-31 110.6-77.8 162.2-27.9 30.7-59.2 65.1-83.4 110.4 52.7 29.1 111.3 48.9 173.5 57 11.6-15.6 25.5-30.8 41.1-48.1 55.2-60.8 123.9-136.4 123.9-281.5 0-145.3-68.6-220.9-123.9-281.5-46.8-51.6-77.9-85.7-77.8-162.5z" fill="#5f67b9" fill-rule="evenodd"/><path d="m872.7 2185.9c-97.4 23.7-211 49.2-217.7-79.4-8.4-161.2-74.4-138.6-162.2-127.1s-174.2 8.8-138.2-115.4c36-124.1 38.8-142.6-14.2-239-53-96.5-9.3-200 94.6-188.3 103.9 11.6 132.7 50.5 229.5 21.4s104.2 47.5 74.9 130.5-26.1 180.3 63.1 176.5 188.8 28.6 108.5 128.6c-80.2 100 20 136.2 104.2 149.3 84.3 13.1 37.6 99.2-142.5 142.9z" fill="none" stroke="#86cac6" stroke-width="5.9466"/><path d="m852.2 2148.1c-87.7 21.3-189.9 44.3-195.9-71.4-7.6-145.1-66.9-124.7-146-114.4s-156.8 7.9-124.4-103.8 34.9-128.3-12.8-215.1-8.4-180 85.2-169.5c93.5 10.5 119.5 45.4 206.5 19.3 87.1-26.1 93.8 42.7 67.5 117.5-26.4 74.7-23.5 162.2 56.8 158.9 80.3-3.4 169.9 25.7 97.7 115.7s18 122.6 93.8 134.4c75.7 11.6 33.6 89-128.4 128.4z" fill="none" stroke="#86cac6" stroke-width="5.3526"/><path d="m831.7 2110.2c-77.9 18.9-168.8 39.4-174.2-63.5-6.7-128.9-59.5-110.9-129.8-101.7s-139.4 7-110.6-92.3 31-114.1-11.3-191.2c-42.4-77.2-7.4-160 75.7-150.7s106.2 40.4 183.6 17.1c77.4-23.2 83.4 38 59.9 104.4-23.4 66.4-20.9 144.2 50.5 141.2s151 22.9 86.8 102.9 16 109 83.4 119.4c67.4 10.6 30 79.5-114 114.4z" fill="none" stroke="#86cac6" stroke-width="4.7586"/><path d="m815.3 2080c-70.1 17-151.9 35.4-156.8-57.2-6-116.1-53.5-99.8-116.8-91.5s-125.4 6.3-99.5-83.1 27.9-102.7-10.2-172.1c-38.1-69.5-6.7-144 68.1-135.6s95.6 36.3 165.2 15.4c69.7-20.9 75.1 34.2 54 94s-18.8 129.8 45.4 127.1 135.9 20.6 78.2 92.6c-57.8 72 14.4 98.1 75 107.5s27 71.4-102.6 102.9z" fill="none" stroke="#86cac6" stroke-width="4.2834"/></svg>
