<?xml version="1.0" encoding="UTF-8" standalone="no"?>
<svg width="12px" height="12px" viewBox="0 0 12 12" version="1.1" xmlns="http://www.w3.org/2000/svg" xmlns:xlink="http://www.w3.org/1999/xlink">
    <!-- Generator: Sketch 46.2 (44496) - http://www.bohemiancoding.com/sketch -->
    <title>Icon/utility/Indigo/12px/Triangle up</title>
    <desc>Created with Sketch.</desc>
    <defs></defs>
    <g id="Symbols" stroke="none" stroke-width="1" fill="none" fill-rule="evenodd">
        <g id="Icon/utility/Indigo/12px/Triangle-up">
            <rect id="Rectangle-6" x="0" y="0" width="12" height="12"></rect>
            <g id="Triangle-up" transform="translate(6.000000, 5.600000) scale(1, -1) translate(-6.000000, -5.600000) translate(3.000000, 3.600000)" fill="#1F2555">
                <path d="M3.26519991,3.47339991 L5.62739985,0.527999986 C5.70719985,0.429599989 5.72219985,0.296999992 5.66579985,0.184199995 C5.60879985,0.0713999981 5.49059985,0 5.36219986,0 L0.637199983,0 C0.508799987,0 0.39059999,0.0713999981 0.333599991,0.184199995 C0.310199992,0.229799994 0.299999992,0.278399993 0.299999992,0.327599991 C0.299999992,0.398999989 0.322799991,0.470999988 0.37139999,0.527999986 L2.73419993,3.47339991 C2.79719993,3.55319991 2.89619992,3.5999999 2.99939992,3.5999999 C3.10259992,3.5999999 3.20219992,3.55319991 3.26519991,3.47339991 Z" id="Fill-1"></path>
            </g>
        </g>
    </g>
</svg>