<?xml version="1.0" encoding="UTF-8" standalone="no"?>
<svg width="24px" height="24px" viewBox="0 0 24 24" version="1.1" xmlns="http://www.w3.org/2000/svg" xmlns:xlink="http://www.w3.org/1999/xlink">
    <!-- Generator: Sketch 46.2 (44496) - http://www.bohemiancoding.com/sketch -->
    <title>Icon/utility/Indigo/24px/Podcast</title>
    <desc>Created with Sketch.</desc>
    <defs></defs>
    <g id="Symbols" stroke="none" stroke-width="1" fill="none" fill-rule="evenodd">
        <g id="Icon/utility/Indigo/24px/Podcast">
            <rect id="Rectangle-6" x="0" y="0" width="24" height="24"></rect>
            <path d="M19.6512,8.8692 C19.0782,8.8692 18.6082,9.3392 18.6082,9.9132 L18.6082,11.9992 C18.6082,15.4492 15.7972,18.2602 12.3472,18.2602 C8.8982,18.2602 6.0872,15.4492 6.0872,11.9992 L6.0872,9.9132 C6.0872,9.3392 5.6172,8.8692 5.0442,8.8692 C4.4692,8.8692 4.0002,9.3392 4.0002,9.9132 L4.0002,11.9992 C4.0002,16.2512 7.1882,19.7662 11.3042,20.2822 L11.3042,21.9132 L8.1732,21.9132 C7.5992,21.9132 7.1302,22.3832 7.1302,22.9572 C7.1302,23.5302 7.5992,24.0002 8.1732,24.0002 L16.5212,24.0002 C17.0952,24.0002 17.5642,23.5302 17.5642,22.9572 C17.5642,22.3832 17.0952,21.9132 16.5212,21.9132 L13.3902,21.9132 L13.3902,20.2822 C17.5062,19.7662 20.6952,16.2512 20.6952,11.9992 L20.6952,9.9132 C20.6952,9.3392 20.2252,8.8692 19.6512,8.8692" id="Fill-4" fill="#1F2555"></path>
            <path d="M10.2606,4.1739 C10.2606,3.0269 11.1996,2.0869 12.3476,2.0869 C13.4946,2.0869 14.4346,3.0269 14.4346,4.1739 L14.4346,11.9989 C14.4346,13.1479 13.4946,14.0859 12.3476,14.0859 C11.1996,14.0859 10.2606,13.1479 10.2606,11.9989 L10.2606,4.1739 Z M12.3476,16.1729 C14.6496,16.1729 16.5216,14.3019 16.5216,11.9989 L16.5216,4.1739 C16.5216,1.8719 14.6496,-0.0001 12.3476,-0.0001 C10.0456,-0.0001 8.1736,1.8719 8.1736,4.1739 L8.1736,11.9989 C8.1736,14.3019 10.0456,16.1729 12.3476,16.1729 L12.3476,16.1729 Z" id="Fill-1" fill="#1F2555"></path>
        </g>
    </g>
</svg>