<?xml version="1.0" encoding="UTF-8" standalone="no"?>
<svg width="24px" height="24px" viewBox="0 0 24 24" version="1.1" xmlns="http://www.w3.org/2000/svg" xmlns:xlink="http://www.w3.org/1999/xlink">
    <!-- Generator: Sketch 46.2 (44496) - http://www.bohemiancoding.com/sketch -->
    <title>Icon/utility/Indigo/24px/Asset-Interactive</title>
    <desc>Created with Sketch.</desc>
    <defs>
        <polygon id="path-1" points="22.1427692 1.80267692 22.1427692 22.1532923 1.83710769 22.1532923 1.83710769 1.80267692 22.1427692 1.80267692"></polygon>
    </defs>
    <g id="Symbols" stroke="none" stroke-width="1" fill="none" fill-rule="evenodd">
        <g id="Icon/utility/Indigo/24px/Asset-Interactive">
            <g id="Page-1" transform="translate(1.000000, 0.000000)">
                <path d="M4.42781538,5.54086154 C4.42781538,5.13470769 4.09735385,4.8024 3.6912,4.8024 L0.737353846,4.8024 C0.3312,4.8024 0.000738461538,5.13470769 0.000738461538,5.54086154 C0.000738461538,5.95070769 0.3312,6.28116923 0.737353846,6.28116923 L3.6912,6.28116923 C4.09735385,6.28116923 4.42781538,5.95070769 4.42781538,5.54086154" id="Fill-1" fill="#1F2555"></path>
                <g id="Group-5" transform="translate(0.000000, 0.044123)">
                    <g id="Clip-4"></g>
                    <path d="M22.1392615,5.47698462 C22.1392615,5.46775385 22.1337231,5.46221538 22.1337231,5.45298462 C22.1226462,5.28313846 22.0580308,5.13175385 21.9509538,5.01175385 C21.9417231,4.99883077 21.9472615,4.98036923 21.9343385,4.96929231 C21.9232615,4.95636923 21.9029538,4.96190769 21.8918769,4.95083077 C21.8641846,4.92683077 21.8309538,4.91021538 21.7995692,4.88990769 L18.9269538,2.01175385 C18.6500308,1.73298462 18.2014154,1.73298462 17.9244923,2.01175385 C17.6475692,2.28683077 17.6475692,2.73729231 17.9244923,3.01421538 L19.6654154,4.75883077 L12.6075692,4.75883077 C12.5429538,3.14344615 11.2174154,1.8456 9.58726154,1.8456 C7.91464615,1.8456 6.55403077,3.20806154 6.55403077,4.87883077 L6.55403077,12.2080615 L6.31033846,11.9662154 C5.32633846,10.9766769 3.58726154,10.9785231 2.60326154,11.9643692 C2.10849231,12.4572923 1.83710769,13.1163692 1.83710769,13.8179077 C1.83710769,14.5194462 2.10849231,15.1785231 2.52572308,15.5846769 L7.32941538,21.7951385 C7.51033846,22.0296 7.78356923,22.1532923 8.05864615,22.1532923 C8.25618462,22.1532923 8.45556923,22.0905231 8.62356923,21.9612923 C9.02603077,21.6492923 9.10172308,21.0696 8.78972308,20.6671385 L3.90849231,14.3662154 C3.76264615,14.2203692 3.68326154,14.0265231 3.68326154,13.8179077 C3.68326154,13.6111385 3.76264615,13.4154462 3.90849231,13.2714462 C4.20018462,12.9797538 4.71341538,12.9797538 5.00510769,13.2714462 L6.82356923,15.0899077 C7.08941538,15.3557538 7.48818462,15.4351385 7.82972308,15.2892923 C8.17495385,15.1471385 8.40018462,14.8111385 8.40018462,14.4382154 L8.40018462,4.87883077 C8.40018462,4.22529231 8.93372308,3.69175385 9.58726154,3.69175385 C10.2426462,3.69175385 10.7743385,4.22529231 10.7743385,4.87883077 L10.7743385,10.9379077 C10.7743385,11.3366769 11.0272615,11.6892923 11.4057231,11.8148308 L15.5355692,13.1920615 C16.8943385,13.6443692 17.8081846,14.9126769 17.8081846,16.3452923 L17.8081846,21.2302154 C17.8081846,21.7416 18.2217231,22.1532923 18.7312615,22.1532923 C19.2426462,22.1532923 19.6543385,21.7416 19.6543385,21.2302154 L19.6543385,16.3452923 C19.6543385,14.1169846 18.2346462,12.1452923 16.1189538,11.4400615 L12.6204923,10.2732923 L12.6204923,6.2376 L19.6654154,6.2376 L17.9244923,7.98221538 C17.6475692,8.25913846 17.6475692,8.70775385 17.9244923,8.98467692 C18.2014154,9.2616 18.6500308,9.2616 18.9269538,8.98467692 L21.7995692,6.10652308 C21.8309538,6.08621538 21.8641846,6.0696 21.8900308,6.0456 C21.9029538,6.03452308 21.9214154,6.03821538 21.9343385,6.02713846 C21.9472615,6.01606154 21.9417231,5.99575385 21.9509538,5.98283077 C22.0561846,5.86467692 22.1208,5.71329231 22.1337231,5.54529231 C22.1337231,5.53606154 22.1392615,5.52867692 22.1374154,5.5176 C22.1392615,5.51021538 22.1429538,5.50467692 22.1429538,5.49729231 C22.1429538,5.48990769 22.1392615,5.48252308 22.1392615,5.47698462" id="Fill-3" fill="#1F2555" mask="url(#mask-2)"></path>
                </g>
            </g>
        </g>
    </g>
</svg>