<?xml version="1.0" encoding="UTF-8" standalone="no"?>
<svg width="24px" height="24px" viewBox="0 0 24 24" version="1.1" xmlns="http://www.w3.org/2000/svg" xmlns:xlink="http://www.w3.org/1999/xlink">
    <!-- Generator: Sketch 46.2 (44496) - http://www.bohemiancoding.com/sketch -->
    <title>Icon/utility/Indigo/24px/Close-solid</title>
    <desc>Created with Sketch.</desc>
    <defs></defs>
    <g id="Symbols" stroke="none" stroke-width="1" fill="none" fill-rule="evenodd">
        <g id="Icon/utility/Indigo/24px/Close-solid">
            <rect id="Rectangle-6" x="0" y="0" width="24" height="24"></rect>
            <g id="Icon/Background/Circle/indigo" transform="translate(1.000000, 1.000000)" fill="#1F2555">
                <circle id="Oval" cx="11" cy="11" r="11"></circle>
            </g>
            <path d="M15.5356,14.1211 L13.4136,12.0001 L15.5356,9.8791 C15.9246,9.4901 15.9246,8.8531 15.5356,8.4651 C15.1466,8.0751 14.5106,8.0751 14.1206,8.4651 L11.9996,10.5861 L9.8786,8.4651 C9.4896,8.0751 8.8536,8.0751 8.4646,8.4651 C8.0756,8.8531 8.0756,9.4901 8.4646,9.8791 L10.5856,12.0001 L8.4646,14.1211 C8.0756,14.5101 8.0756,15.1461 8.4646,15.5351 C8.8536,15.9251 9.4896,15.9251 9.8786,15.5351 L11.9996,13.4141 L14.1206,15.5351 C14.5106,15.9251 15.1466,15.9251 15.5356,15.5351 C15.9246,15.1461 15.9246,14.5101 15.5356,14.1211" id="Fill-3" fill="#FFFFFF"></path>
        </g>
    </g>
</svg>