<svg id="e06dd17a-c355-4c4f-9b52-cf32e5f55c23" data-name="Layer 1" xmlns="http://www.w3.org/2000/svg" viewBox="0 0 32 30.59"><title>linkedin</title><path d="M7.27,10.65V31.29H.4V10.65Zm.44-6.38A3.56,3.56,0,0,1,3.83,7.83h0A3.57,3.57,0,1,1,3.87.71,3.55,3.55,0,0,1,7.71,4.27ZM32,19.46V31.29H25.15v-11c0-2.77-1-4.67-3.48-4.67a3.75,3.75,0,0,0-3.52,2.5,5.12,5.12,0,0,0-.23,1.69V31.29H11.06c.09-18.71,0-20.64,0-20.64h6.86v3h-.05a6.81,6.81,0,0,1,6.23-3.48c4.53,0,7.9,3,7.9,9.29Z" transform="translate(0 -0.71)" fill="#1f2555"/></svg>