<?xml version="1.0" encoding="UTF-8" standalone="no"?>
<svg width="24px" height="24px" viewBox="0 0 24 24" version="1.1" xmlns="http://www.w3.org/2000/svg" xmlns:xlink="http://www.w3.org/1999/xlink">
    <!-- Generator: Sketch 46.2 (44496) - http://www.bohemiancoding.com/sketch -->
    <title>Icon/utility/Indigo/24px/Map-pin-solid</title>
    <desc>Created with Sketch.</desc>
    <defs></defs>
    <g id="Symbols" stroke="none" stroke-width="1" fill="none" fill-rule="evenodd">
        <g id="Icon/utility/Indigo/24px/Map-pin-solid">
            <rect id="Rectangle-6" x="0" y="0" width="24" height="24"></rect>
            <g id="map-pin" transform="translate(2.000000, 0.000000)" fill-rule="nonzero">
                <path d="M10,0 C4.488,0 0,4.488 0,10 C0,11.769 0.513,13.606 1.531,15.463 C2.318,16.907 3.412,18.369 4.775,19.813 C7.075,22.244 9.35,23.769 9.444,23.832 C9.613,23.945 9.807,24.001 10,24.001 C10.193,24.001 10.387,23.945 10.556,23.832 C10.65,23.769 12.925,22.245 15.225,19.813 C16.594,18.369 17.681,16.907 18.469,15.463 C19.481,13.607 20,11.763 20,10 C20,4.488 15.512,3.55271368e-15 10,0 Z" id="Shape" fill="#1F2555"></path>
                <path d="M10,6 C7.794,6 6,7.794 6,10 C6,12.206 7.794,14 10,14 C12.206,14 14,12.206 14,10 C14,7.794 12.206,6 10,6 Z" id="Shape" fill="#FFFFFF"></path>
            </g>
        </g>
    </g>
</svg>