<?xml version="1.0" encoding="UTF-8" standalone="no"?>
<svg width="24px" height="24px" viewBox="0 0 24 24" version="1.1" xmlns="http://www.w3.org/2000/svg" xmlns:xlink="http://www.w3.org/1999/xlink">
    <!-- Generator: Sketch 46.2 (44496) - http://www.bohemiancoding.com/sketch -->
    <title>Icon/utility/Indigo/24px/Warning</title>
    <desc>Created with Sketch.</desc>
    <defs></defs>
    <g id="Symbols" stroke="none" stroke-width="1" fill="none" fill-rule="evenodd">
        <g id="Icon/utility/Indigo/24px/Warning">
            <rect id="Rectangle-6" x="0" y="0" width="24" height="24"></rect>
            <g id="Warning" fill="#1F2555">
                <g id="Group-3" transform="translate(0.000000, 0.071800)">
                    <path d="M20.8688,19.9041 L3.1308,19.9041 C2.5598,19.8981 2.1018,19.4261 2.1018,18.8561 C2.1018,18.6731 2.1488,18.4951 2.2398,18.3381 L11.1098,3.5281 L11.1158,3.5221 C11.3128,3.2141 11.6398,3.0301 12.0068,3.0301 C12.3728,3.0301 12.7078,3.2201 12.9038,3.5351 L21.7598,18.3321 C21.8508,18.4891 21.8968,18.6731 21.8968,18.8561 C21.9028,19.4261 21.4378,19.8981 20.8688,19.9041 L20.8688,19.9041 Z M23.5668,17.2701 L23.5598,17.2641 L14.6908,2.4471 C14.6908,2.4411 14.6838,2.4411 14.6838,2.4341 C14.1018,1.4911 13.0998,0.9281 11.9988,0.9281 C10.8988,0.9281 9.8968,1.4911 9.3208,2.4281 C9.3138,2.4341 9.3078,2.4411 9.3078,2.4541 L0.4318,17.2711 C0.4318,17.2711 0.4318,17.2781 0.4258,17.2781 C0.1508,17.7491 -0.0002,18.3001 -0.0002,18.8561 C-0.0002,20.5721 1.3948,21.9801 3.1058,22.0001 L3.1178,22.0001 L20.8758,22.0001 L20.8888,22.0001 C22.6048,21.9801 23.9998,20.5721 23.9998,18.8561 C23.9998,18.3001 23.8488,17.7491 23.5688,17.2711 L23.5668,17.2701 Z" id="Fill-1"></path>
                </g>
                <path d="M11.9991,7.3992 C11.4221,7.3992 10.9511,7.8712 10.9511,8.4472 L10.9511,12.6392 C10.9511,13.2162 11.4221,13.6882 11.9991,13.6882 C12.5751,13.6882 13.0471,13.2162 13.0471,12.6392 L13.0471,8.4472 C13.0471,7.8712 12.5751,7.3992 11.9991,7.3992" id="Fill-4"></path>
                <path d="M11.9991,15.7835 C11.7241,15.7835 11.4551,15.8945 11.2591,16.0915 C11.0631,16.2885 10.9511,16.5565 10.9511,16.8315 C10.9511,17.1065 11.0621,17.3755 11.2591,17.5715 C11.4561,17.7685 11.7241,17.8795 11.9991,17.8795 C12.2731,17.8795 12.5431,17.7685 12.7391,17.5715 C12.9361,17.3745 13.0471,17.1065 13.0471,16.8315 C13.0471,16.5565 12.9361,16.2875 12.7391,16.0915 C12.5421,15.8945 12.2731,15.7835 11.9991,15.7835" id="Fill-6"></path>
            </g>
        </g>
    </g>
</svg>