<?xml version="1.0" encoding="UTF-8" standalone="no"?>
<svg width="32px" height="32px" viewBox="0 0 32 32" version="1.1" xmlns="http://www.w3.org/2000/svg" xmlns:xlink="http://www.w3.org/1999/xlink">
    <!-- Generator: Sketch 47.1 (45422) - http://www.bohemiancoding.com/sketch -->
    <title>Icon/Industry/Communications</title>
    <desc>Created with Sketch.</desc>
    <defs></defs>
    <g id="Symbols" stroke="none" stroke-width="1" fill="none" fill-rule="evenodd">
        <g id="Icon/Industry/Communications" fill="#1F2555">
            <path d="M16.0012,15.0344 C14.3442,15.0344 13.0012,16.3774 13.0012,18.0344 C13.0012,19.6914 14.3442,21.0344 16.0012,21.0344 C17.6582,21.0344 19.0012,19.6914 19.0012,18.0344 C19.0012,16.3774 17.6582,15.0344 16.0012,15.0344 M16.0002,7.6204 C10.2802,7.6204 5.6202,12.2804 5.6202,18.0004 C5.6202,20.9394 6.8902,23.7104 8.9892,25.6394 L10.0202,23.8404 C8.5202,22.3194 7.6202,20.2204 7.6202,18.0004 C7.6202,13.3804 11.3802,9.6204 16.0002,9.6204 C20.6102,9.6204 24.3702,13.3804 24.3702,18.0004 C24.3702,20.2204 23.4702,22.3194 21.9702,23.8494 L23.0002,25.6304 C25.1002,23.7104 26.3702,20.9394 26.3702,18.0004 C26.3702,12.2804 21.7202,7.6204 16.0002,7.6204 M32.0002,18.0004 C32.0002,23.0504 29.6892,27.6304 25.8702,30.5994 L24.8602,28.8404 C28.0692,26.2504 30.0002,22.3194 30.0002,18.0004 C30.0002,10.2804 23.7202,4.0004 16.0002,4.0004 C8.2802,4.0004 2.0002,10.2804 2.0002,18.0004 C2.0002,22.3094 3.9302,26.2504 7.1402,28.8494 L6.1202,30.5994 C2.3002,27.6304 0.0002,23.0404 0.0002,18.0004 C0.0002,9.1804 7.1702,2.0004 16.0002,2.0004 C24.8192,2.0004 32.0002,9.1804 32.0002,18.0004" id="Fill-1"></path>
        </g>
    </g>
</svg>