<svg data-name="Layer 1" xmlns="http://www.w3.org/2000/svg" viewBox="0 0 349.5 46.1"><path d="M204.5 3.9a3.4 3.4 0 011.1-2.9 6.6 6.6 0 017 0 3.4 3.4 0 011.2 2.9c0 2.6-1.6 3.8-4.7 3.8s-4.6-1.2-4.6-3.8zm8.9 31.6h-8.7V10.2h8.7zM251.1 35.5h-11.6l-11.9-23h-.2c.3 3.6.4 6.4.4 8.3v14.7H220V2.8h11.6l11.8 22.7h.2c-.2-3.3-.3-5.9-.3-7.9V2.8h7.8z" fill="#ffcc4c"/><path d="M18.9 13.1a8.6 8.6 0 01-3.1 7c-2.1 1.6-5 2.4-8.8 2.4H2.2v13H0V4.1h7.7c7.4 0 11.2 3 11.2 9zM2.2 20.6h4.3c3.5 0 6.1-.6 7.6-1.7s2.4-3.1 2.4-5.7a6.5 6.5 0 00-2.2-5.4Q12.1 6 7.4 6H2.2zM33.3 35.9c-3.4 0-6-1-7.9-3.1s-2.9-5-2.9-8.8a13.6 13.6 0 012.8-9 9.1 9.1 0 017.4-3.3 7.8 7.8 0 016.5 2.9 11.7 11.7 0 012.4 7.8v1.7H24.8c0 3.2.7 5.7 2.2 7.4a8.3 8.3 0 006.3 2.5 17.5 17.5 0 003.5-.3 26.6 26.6 0 003.9-1.2v1.9a15.8 15.8 0 01-3.7 1.2 20.5 20.5 0 01-3.7.3zm-.6-22.3a6.7 6.7 0 00-5.4 2.2 10.1 10.1 0 00-2.4 6.4h14.4c0-2.7-.5-4.8-1.7-6.3a5.7 5.7 0 00-4.9-2.3zM65.6 12.1v1.5l-4.9.3a8.3 8.3 0 012 5.3 7.3 7.3 0 01-2.3 5.5 8.4 8.4 0 01-6 2.1 9.5 9.5 0 01-2.2-.2 6.7 6.7 0 00-2 1.6 3.3 3.3 0 00-.6 1.9 1.8 1.8 0 00.8 1.7 6.5 6.5 0 002.9.5h4a9.9 9.9 0 015.9 1.5 5.4 5.4 0 012 4.6 6.6 6.6 0 01-3 5.7c-2 1.3-4.9 2-8.6 2a12 12 0 01-6.8-1.7 5.6 5.6 0 01-2.4-4.8 5.7 5.7 0 011.5-4 8 8 0 014.1-2.1 3.9 3.9 0 01-1.7-1.3 2.8 2.8 0 01-.7-1.9c0-1.6 1-2.9 3-4.1a7.6 7.6 0 01-3.2-2.7 7.8 7.8 0 01-1.1-4.1 7.3 7.3 0 012.2-5.6 8.4 8.4 0 016-2.1 11.1 11.1 0 013.6.4zM46.7 39.4c0 3.3 2.3 4.9 7.1 4.9s9.2-2 9.2-5.9a3.7 3.7 0 00-1.4-3.1 9.3 9.3 0 00-4.7-.9h-3.8c-4.3 0-6.4 1.7-6.4 5zm1.7-20a5.4 5.4 0 001.7 4.2 6.3 6.3 0 004.4 1.5 6.4 6.4 0 004.5-1.5 7 7 0 00-.1-8.8 6.5 6.5 0 00-4.5-1.4A6 6 0 0050 15a6.1 6.1 0 00-1.6 4.4zM83.9 35.5l-.5-3.7h-.2a11.5 11.5 0 01-3.6 3.2 9.9 9.9 0 01-4.4.9 8.1 8.1 0 01-5.4-1.7 6.6 6.6 0 01-1.9-4.9 6 6 0 012.9-5.3c1.9-1.3 4.6-2 8.2-2l4.5-.2v-1.5a7.8 7.8 0 00-1.4-5c-.9-1.2-2.3-1.7-4.3-1.7a14.7 14.7 0 00-6.8 1.8l-.8-1.9a18 18 0 017.6-1.8 7.8 7.8 0 015.8 2c1.3 1.4 1.9 3.4 1.9 6.3v15.5zM75.3 34a7.6 7.6 0 008.1-8.1v-2.3l-4.1.2c-3.3.1-5.6.6-7 1.5a4.5 4.5 0 00-2.1 4.1 4.4 4.4 0 001.3 3.4 5.6 5.6 0 003.8 1.2zM116.8 35.5H115l-6.9-24.3c-.6-1.9-1-3.6-1.3-4.9-.2 1.3-.6 2.7-1 4.3s-2.7 9.9-6.9 24.9H97L88.4 4.1h2.3l5.5 20.2.6 2.3c.2.7.3 1.3.5 1.9s.3 1.2.4 1.8L98 32c.4-1.9 1.1-4.9 2.2-8.9l5.4-19h2.4l6.3 21.8a57.4 57.4 0 011.6 6.2c.2-1.1.4-2.2.7-3.3s2.5-9.4 6.7-24.7h2.2zM147.8 23.8c0 3.8-.9 6.8-2.7 8.9a9.5 9.5 0 01-7.7 3.2 10 10 0 01-5.4-1.5 9.3 9.3 0 01-3.6-4.2 16.2 16.2 0 01-1.2-6.4c0-3.8.9-6.8 2.7-8.9a10.6 10.6 0 0115.2 0c1.8 2.2 2.7 5.1 2.7 8.9zm-18.4 0q0 4.8 2.1 7.5a8 8 0 0012 0q2.1-2.7 2.1-7.5t-2.1-7.5a7.4 7.4 0 00-6-2.7 7.2 7.2 0 00-6 2.7q-2.1 2.6-2.1 7.5zM162.8 11.7l3.2.3-.5 2a13.9 13.9 0 00-3-.3 5.8 5.8 0 00-4.9 2.5 10.1 10.1 0 00-1.9 6.4v12.9h-2.1V12.1h1.8l.2 4.2h.1a10.3 10.3 0 013.1-3.6 7.2 7.2 0 014-1zM172.5 35.5h-2.1V2h2.1zM188.3 11.7a10.2 10.2 0 014.4.9 9.1 9.1 0 013.3 3.2h.1c-.1-1.8-.1-3.6-.1-5.3V2h2.1v33.5h-1.4l-.6-3.6h-.1a8.7 8.7 0 01-7.7 4c-3.2 0-5.7-1-7.4-3s-2.5-4.9-2.5-8.8.8-7.1 2.5-9.2 4.1-3.2 7.4-3.2zm0 1.9a6.7 6.7 0 00-5.8 2.7c-1.3 1.8-1.9 4.4-1.9 7.8 0 6.6 2.6 9.9 7.7 9.9 2.7 0 4.6-.7 5.8-2.3s1.9-4 1.9-7.6v-.3q0-5.4-1.8-7.8c-1.3-1.6-3.2-2.4-5.9-2.4zM272.4 29.1a6 6 0 01-2.4 5.1q-2.4 1.8-6.9 1.8a14.7 14.7 0 01-7.3-1.5v-3.3a19.1 19.1 0 003.6 1.3 17.3 17.3 0 003.8.5 8.3 8.3 0 004.3-.9 2.9 2.9 0 001.5-2.7 3.1 3.1 0 00-1.2-2.4 21 21 0 00-4.6-2.3 24.6 24.6 0 01-4.7-2.1 7 7 0 01-2.1-2.1 6.1 6.1 0 01-.7-2.8 5.2 5.2 0 012.4-4.5 10.8 10.8 0 016.4-1.7 19.3 19.3 0 017.4 1.6l-1.2 2.9a16.9 16.9 0 00-6.5-1.5 8 8 0 00-3.8.8 2.6 2.6 0 00-.8 3.8 4.3 4.3 0 001.6 1.3 28.3 28.3 0 004.1 1.7c2.8 1.1 4.7 2.1 5.7 3.1a5.6 5.6 0 011.4 3.9zM288.4 36a9.3 9.3 0 01-4.2-.9 7.4 7.4 0 01-3.2-2.6h-.3a27.7 27.7 0 01.3 3.9v9.7h-3.6V12h2.9l.5 3.2h.2a7.8 7.8 0 013.2-2.8 9.3 9.3 0 014.2-.9 8.8 8.8 0 017.2 3.2c1.7 2.2 2.5 5.2 2.5 9s-.8 6.9-2.6 9a8.5 8.5 0 01-7.1 3.3zm-.6-21.4c-2.4 0-4.1.6-5.2 2S281 20 281 22.9v.8c0 3.3.5 5.7 1.6 7.1s2.9 2.2 5.3 2.2a5.5 5.5 0 004.8-2.5c1.2-1.7 1.7-3.9 1.7-6.8s-.5-5.2-1.7-6.8a5.8 5.8 0 00-4.9-2.3zM307.3 35.5h-3.6V12h3.6zM324.7 11.5a12 12 0 012.8.3l-.5 3.3-2.6-.3a6.2 6.2 0 00-4.8 2.3 8.4 8.4 0 00-2.1 5.8v12.6H314V12h2.9l.4 4.3h.2a10.7 10.7 0 013.1-3.5 7.6 7.6 0 014.1-1.3zM340.8 36a11 11 0 01-8.3-3.2c-2-2.1-3-5.1-3-8.9s.9-6.8 2.8-9a9.6 9.6 0 017.6-3.4 8.9 8.9 0 017 3 11.1 11.1 0 012.5 7.6v2.3h-16.2q.2 4.2 2.1 6.3a7.3 7.3 0 005.6 2.1 18.4 18.4 0 007.5-1.6v3.2a12.7 12.7 0 01-3.6 1.2 21.5 21.5 0 01-4 .4zm-1-21.5a5.5 5.5 0 00-4.5 1.9 8.5 8.5 0 00-2 5.1h12.3a7.9 7.9 0 00-1.5-5.2 5.2 5.2 0 00-4.3-1.8z" fill="#fff"/></svg>