<svg xmlns="http://www.w3.org/2000/svg" xmlns:xlink="http://www.w3.org/1999/xlink" width="2520" height="1530"><defs><linearGradient id="a"><stop offset="0" stop-color="#333"/><stop offset=".088" stop-color="#aaa"/><stop offset=".75" stop-color="#aaa"/><stop offset="1" stop-color="#333"/></linearGradient><linearGradient xlink:href="#a" id="d" gradientUnits="userSpaceOnUse" x1="693.03" y1="823.515" x2="693.59" y2="917.459"/><linearGradient xlink:href="#a" id="c" gradientUnits="userSpaceOnUse" x1="693.03" y1="823.515" x2="693.59" y2="917.459"/><filter id="b" x="-.139" width="1.277" y="-.891" height="2.782" color-interpolation-filters="sRGB"><feGaussianBlur stdDeviation="50.255"/></filter><filter color-interpolation-filters="sRGB" id="e" x="-.139" width="1.277" y="-.891" height="2.782"><feGaussianBlur stdDeviation="50.255"/></filter><filter color-interpolation-filters="sRGB" id="f" x="-.139" width="1.277" y="-.891" height="2.782"><feGaussianBlur stdDeviation="50.255"/></filter></defs><path style="marker:none" d="M1217.234 667.015c0 37.379-194.698 67.68-434.87 67.68-240.173 0-434.872-30.301-434.872-67.68 0-37.379 194.699-67.68 434.871-67.68 240.173 0 434.87 30.301 434.87 67.68z" transform="matrix(2.02914 0 0 .71847 -49.924 821.7)" color="#000" fill="#1a1a1a" fill-opacity=".667" overflow="visible" filter="url(#b)" enable-background="accumulate"/><g transform="matrix(3.2252 0 0 3.2252 -553.996 -1612.41)"><path style="marker:none" d="M640.5 823.112c-1.01 42.427-50 94.75-50 94.75H809s-48.99-52.323-50-94.75l-56.22.25z" color="#000" fill="url(#d)" overflow="visible" enable-background="accumulate" transform="translate(-51.232)"/><rect style="marker:none" width="521.239" height="309.107" x="387.899" y="513.951" rx="19.041" ry="18.269" color="#000" stroke="#aaa" stroke-width="1.55" overflow="visible" enable-background="accumulate"/><path style="marker:none" color="#000" fill="#fff" overflow="visible" enable-background="accumulate" d="M408.518 533.504h480v270h-480z"/><path style="marker:none" color="#000" fill="#aaa" overflow="visible" enable-background="accumulate" d="M538.664 909.931h219.708v9.091H538.664z"/></g><g color="#000"><path transform="matrix(.85876 0 0 .71847 92.26 906.991)" d="M1217.234 667.015c0 37.379-194.698 67.68-434.87 67.68-240.173 0-434.872-30.301-434.872-67.68 0-37.379 194.699-67.68 434.871-67.68 240.173 0 434.87 30.301 434.87 67.68z" style="marker:none" fill="#1a1a1a" fill-opacity=".667" overflow="visible" filter="url(#e)" enable-background="accumulate"/><g transform="matrix(3.2252 0 0 3.2252 -367.88 -1606.204)"><rect style="marker:none" width="200" height="266" x="247.143" y="671.362" rx="20" ry="20" stroke="#aaa" stroke-width=".93" overflow="visible" enable-background="accumulate"/><path style="marker:none" fill="#fff" overflow="visible" enable-background="accumulate" d="M263.643 687.362h167v222h-167z"/></g></g><g><path transform="matrix(.34001 0 0 .71847 87.614 959.77)" d="M1217.234 667.015c0 37.379-194.698 67.68-434.87 67.68-240.173 0-434.872-30.301-434.872-67.68 0-37.379 194.699-67.68 434.871-67.68 240.173 0 434.87 30.301 434.87 67.68z" style="marker:none" color="#000" fill="#1a1a1a" fill-opacity=".667" overflow="visible" filter="url(#f)" enable-background="accumulate"/><g transform="translate(-767.574 -2230.898) scale(3.99062)" color="#000"><rect style="marker:none" width="70" height="130.286" x="247.143" y="797.077" rx="7" ry="9.796" stroke="#aaa" stroke-width=".752" overflow="visible" enable-background="accumulate"/><path style="marker:none" fill="#fff" overflow="visible" enable-background="accumulate" d="M252.143 805.219h60v106h-60z"/></g></g></svg>