<?xml version="1.0" encoding="UTF-8" standalone="no"?>
<svg width="32px" height="32px" viewBox="0 0 32 32" version="1.1" xmlns="http://www.w3.org/2000/svg" xmlns:xlink="http://www.w3.org/1999/xlink">
    <!-- Generator: Sketch 46.2 (44496) - http://www.bohemiancoding.com/sketch -->
    <title>Icon/product/Platform/App-development</title>
    <desc>Created with Sketch.</desc>
    <defs></defs>
    <g id="Symbols" stroke="none" stroke-width="1" fill="none" fill-rule="evenodd">
        <g id="Icon/product/Platform/App-development" fill="#1F2555">
            <path d="M29,9 L3,9 L3,4 C3,3.4475 3.448,3 4,3 L28,3 C28.552,3 29,3.4475 29,4 L29,9 Z M29,28 C29,28.552 28.552,29 28,29 L4,29 C3.448,29 3,28.552 3,28 L3,11 L29,11 L29,28 Z M30,1 L2,1 C1.448,1 1,1.4475 1,1.999 L1,30 C1,30.5525 1.448,31 2,31 L30,31 C30.552,31 31,30.5525 31,30 L31,1.999 C31,1.4475 30.552,1 30,1 L30,1 Z M9,7 L11,7 L11,5 L9,5 L9,7 Z M13,7 L15,7 L15,5 L13,5 L13,7 Z M5,7 L7,7 L7,5 L5,5 L5,7 Z M15,25 L17,25 L17,21 L21,21 L21,19 L17,19 L17,15 L15,15 L15,19 L11,19 L11,21 L15,21 L15,25 Z" id="Page-1"></path>
        </g>
    </g>
</svg>