<svg height="183" viewBox="0 0 666 183" width="666" xmlns="http://www.w3.org/2000/svg"><g fill="none" fill-rule="evenodd"><g fill="#fff" transform="translate(231)"><path d="m284.772501 0h42.421441c.903495 0 1.635922.73409167 1.635922 1.63963964v176.53962836c0 .905548-.732427 1.63964-1.635922 1.63964h-42.421441c-.903495 0-1.635922-.734092-1.635922-1.63964v-176.53962836c0-.90554797.732427-1.63963964 1.635922-1.63963964zm-202.7650798 46.2876165c11.8642806 0 22.6461848 2.7465327 32.3460358 8.2396804 9.699851 5.4931478 17.395485 13.3692341 23.087133 23.6284954 5.691648 10.2592612 8.53743 22.1743667 8.53743 35.7456727s-2.845782 25.526801-8.53743 35.866844-13.387282 18.296909-23.087133 23.870839c-9.699851 5.573929-20.4817552 8.360852-32.3460358 8.360852-17.1551084 0-29.9811652-5.089163-38.4785554-15.267643v11.446911c0 .905548-.732427 1.63964-1.6359216 1.63964h-40.25702256c-.90349458 0-1.63592164-.734092-1.63592164-1.63964v-176.53962836c0-.90554797.73242706-1.63963964 1.63592164-1.63963964h42.42144126c.9034946 0 1.6359217.73409167 1.6359217 1.63963964v58.21921526c8.8180463-9.0475375 20.9226375-13.5712384 36.3141366-13.5712384zm-9.6196388 99.1185085c8.0164058 0 14.5897599-2.786923 19.7202596-8.360852s7.6957111-13.288455 7.6957111-23.143808c0-9.69379-2.5652114-17.2871455-7.6957111-22.7802932-5.1304997-5.4931478-11.7038538-8.2396805-19.7202596-8.2396805s-14.58976 2.7465327-19.7202597 8.2396805c-5.1304997 5.4931477-7.6957111 13.0865032-7.6957111 22.7802932 0 9.855353 2.5652114 17.569879 7.6957111 23.143808s11.7038539 8.360852 19.7202597 8.360852z"/><path d="m208.171028 182c-37.720898 0-68.299728-30.648327-68.299728-68.454955 0-37.8066276 30.57883-68.4549549 68.299728-68.4549549 37.720899 0 68.299728 30.6483273 68.299728 68.4549549 0 37.806628-30.578829 68.454955-68.299728 68.454955zm-.40898-36.891892c17.166397 0 31.082511-13.947742 31.082511-31.153153 0-17.2054114-13.916114-31.1531532-31.082511-31.1531532s-31.082511 13.9477418-31.082511 31.1531532c0 17.205411 13.916114 31.153153 31.082511 31.153153z"/><path d="m395.012155 57.3184048 37.62129-.1131206c.90349-.0027166 1.638111.7291695 1.640822 1.6347134l.000007 37.1181477c0 .9036276-.729439 1.6369214-1.631014 1.6396323l-37.631105.1131501v33.4945583c0 7.244384 5.859417 13.117117 13.087373 13.117117h24.538825c.903494 0 1.635921.734092 1.635921 1.63964v34.432432c0 .905548-.732427 1.63964-1.635921 1.63964h-37.626198c-25.297848 0-45.805806-20.554567-45.805806-45.90991v-89.945946c0-1.1611466.61265-2.23572 1.610754-2.8252252l41.728586-24.645946c.778395-.4597397 1.781257-.1999842 2.239954.5801802.1483.2522325.226512.5396626.226512.8324324z"/></g><g transform="matrix(-1 0 0 -1 204 183)"><path d="m131.25 133h-52.5c-.9664983 0-1.75-.783502-1.75-1.75v-31.5c0-.9664983.7835017-1.75 1.75-1.75h52.5c.966498 0 1.75.7835017 1.75 1.75v31.5c0 .966498-.783502 1.75-1.75 1.75z" fill="#ffcc4c"/><path d="m202.933253 103.249029-16.658934 28.875485c-.312534.541726-.89041.875486-1.515825.875486h-36.008494c-.966498 0-1.75-.783502-1.75-1.75v-31.5c0-.9664983.783502-1.75 1.75-1.75h51.151603c1.932997 0 3.5 1.5670034 3.5 3.5 0 .613998-.161522 1.217192-.46835 1.749029z" fill="#f63"/><path d="m63 99.75v31.5c0 .966498-.7835017 1.75-1.75 1.75h-36.0084939c-.6254151 0-1.2032908-.33376-1.5158248-.875486l-16.65893404-28.875485c-.96596181-1.674334-.39171285-3.8147167 1.28262097-4.7806786.5318362-.3068285 1.1350306-.4683504 1.74902857-.4683504h51.1516032c.9664983 0 1.75.7835017 1.75 1.75z" fill="#e1e2eb"/><path d="m119 180.25v-31.5c0-.966498.783502-1.75 1.75-1.75h53.91234c.966498 0 1.75.783502 1.75 1.75 0 .306999-.080761.608596-.234175.874514l-14.637462 25.3716c-2.500272 4.333805-7.123277 7.003886-12.126598 7.003886h-28.664105c-.966498 0-1.75-.783502-1.75-1.75z" fill="#f63"/><path d="m103.25 182h-42.6641051c-5.0033211 0-9.6263263-2.670081-12.1265982-7.003886l-14.6374615-25.3716c-.4829809-.837167-.1958565-1.907358.6413105-2.390339.2659181-.153414.5675153-.234175.8745142-.234175h67.9123401c.966498 0 1.75.783502 1.75 1.75v31.5c0 .966498-.783502 1.75-1.75 1.75z" fill="#ffcc4c"/><path d="m161.540703 7.00388565 14.637462 25.37160005c.482981.8371669.195856 1.9073582-.641311 2.3903391-.265918.1534143-.567515.2341752-.874514.2341752h-67.91234c-.966498 0-1.75-.7835017-1.75-1.75v-31.5c0-.96649831.783502-1.75 1.75-1.75h42.664105c5.003321 0 9.626326 2.67008102 12.126598 7.00388565z" fill="#6c79d9"/><path d="m89.25 35h-53.9123401c-.9664983 0-1.75-.7835017-1.75-1.75 0-.306999.080761-.6085962.2341753-.8745143l14.6374615-25.37160005c2.5002719-4.33380463 7.1232771-7.00388565 12.1265982-7.00388565h28.6641051c.9664983 0 1.75.78350169 1.75 1.75v31.5c0 .9664983-.7835017 1.75-1.75 1.75z" fill="#12b3b3"/><path d="m133 82.25v-31.5c0-.9664983.783502-1.75 1.75-1.75h50.008494c.625415 0 1.203291.3337601 1.515825.8754857l16.658934 28.8754857c.965962 1.6743338.391713 3.8147163-1.282621 4.7806782-.531836.3068285-1.135031.4683504-1.749029.4683504h-65.151603c-.966498 0-1.75-.7835017-1.75-1.75z" fill="#6c79d9"/><path d="m117.25 84h-107.1516032c-1.93299661 0-3.49999999-1.5670034-3.49999999-3.5 0-.613998.16152187-1.2171924.46835045-1.7490286l16.65893404-28.8754857c.312534-.5417256.8904097-.8754857 1.5158248-.8754857h92.0084939c.966498 0 1.75.7835017 1.75 1.75v31.5c0 .9664983-.783502 1.75-1.75 1.75z" fill="#12b3b3"/></g></g></svg>