<svg height="67" viewBox="0 0 534 67" width="534" xmlns="http://www.w3.org/2000/svg" xmlns:xlink="http://www.w3.org/1999/xlink"><mask id="a" fill="#fff"><path d="m0 .949h152.533162v67.051h-152.533162z" fill="#fff" fill-rule="evenodd"/></mask><g fill="none" fill-rule="evenodd" transform="translate(0 -1)"><path d="m136.1455 17.9363-.187-.089c-.019-.011-2.213-.999-3.928.806l-.219.231 3.513 1.721zm16.082 19.292s-1.532 2.74-2.218 3.753c-.689 1.021-2.844 1.655-4.707.765-.852-.405-8.823-5.055-11.873-4.788-15.439 1.346-19.645-5.015-20.141-5.593-.497-.578-1.426-.309-.763.827 3.387 5.809 13.411 8.501 13.411 8.501 2.62 6.317 2.934 10.742 2.934 10.742-2.596-2.023-5.398-3.728-8.371-5.144-7.946-5.332-20.385-11.935-37.506-16.074.983-13.583 7.836-33.217 39.884-28.573 0 0 6.431 1.054 10.717 4.018 0 0-1.03 1.08-2.384 2.432-1.354 1.349.144 2.215.144 2.215l6.769 5.321c.079 2.815.195 3.603 2.313 6.151 2.118 2.544 10.353 11.169 11.43 12.322 1.248 1.334.361 3.125.361 3.125zm-73.809-26.476c-1.694 6.983-1.565 13.135-.694 18.307-1.608-.321-3.242-.627-4.925-.901-35.074-5.708-45.653 11.578-41.558 25.595-11.596 4.359-22.493 9.348-31.242 14.247 13.766-33.017 43.682-62.075 68.932-65.895 8.244-1.086 10.562 4.262 9.487 8.647z" fill="#1f2555" mask="url(#a)" transform="translate(0 .051)"/><path d="m83.2778 40.979c13.665-1.08 26.562.291 37.221 5.363-7.946-5.332-20.385-11.934-37.507-16.073-.342 4.731.024 8.727.286 10.71m-1.973.172c-15.31 1.462-33.414 6.401-50.064 12.654-4.094-14.016 6.486-31.305 41.559-25.596 1.683.274 3.316.582 4.924.901.832 4.945 2.338 9.007 3.581 12.041" fill="#00a6a7"/><g fill="#1f2555"><path d="m286.4155 35.9283 4.749-11.593 4.75 11.593zm1.225-21.039-15.319 36h8.018l3.265-8.015h15.12l3.265 8.015h8.223l-15.319-36zm-99.208 12.704c0 3.083-2.311 5.449-6.272 5.449h-6.274v-11.004h6.119c3.961 0 6.427 1.903 6.427 5.452zm-5.758-12.704h-14.709v36h7.921v-10.8h6.015c8.075 0 14.557-4.322 14.557-12.653v-.103c0-7.354-5.193-12.444-13.784-12.444zm56.875 4.02c-3.775 3.687-5.689 8.355-5.689 13.876 0 5.525 1.878 10.158 5.588 13.779 3.703 3.617 8.359 5.448 13.84 5.448 6.489 0 11.562-1.964 15.084-5.839l.182-.205v-16.523h-15.657v6.688h8.166v6.749c-2.114 1.259-4.753 1.899-7.849 1.899-3.208 0-5.975-1.1-8.226-3.273-2.245-2.161-3.384-5.092-3.384-8.693 0-3.604 1.173-6.548 3.485-8.746 2.32-2.208 5.234-3.328 8.662-3.328 1.803 0 3.4.222 4.745.66 1.262.41 2.54 1.155 3.806 2.2l4.38-5.529c-2.311-2.036-6.47-4.716-13.394-4.716-5.341 0-9.964 1.869-13.739 5.553zm-29.428 17.584h15.506v-7.047h-15.506v-7.515h19.287v-7.042h-27.157v36h27.413v-7.045h-19.543z"/><path d="m353.34375 51-4.443359-11.3525391h-14.306641l-4.394531 11.3525391h-4.199219l14.111328-35.8398438h3.491211l14.038086 35.8398438zm-5.737305-15.0878906-4.15039-11.0595703c-.537112-1.3997466-1.090492-3.1168518-1.660157-5.1513672-.358074 1.5625078-.870764 3.279613-1.538086 5.1513672l-4.199218 11.0595703zm24.024414 15.5761718c-3.873717 0-6.872548-1.1922081-8.996582-3.5766601s-3.186035-5.7576279-3.186035-10.1196289c0-4.4759339 1.078277-7.9345581 3.234863-10.3759766 2.156587-2.4414184 5.228659-3.6621094 9.216309-3.6621094 1.285814 0 2.571608.138345 3.857422.4150391s2.294918.6022117 3.027344.9765625l-1.245118 3.4423828c-.895186-.3580747-1.871739-.6551095-2.929687-.8911133-1.057948-.2360037-1.993811-.3540039-2.807617-.3540039-5.436225 0-8.154297 3.4667622-8.154297 10.4003907 0 3.2877768.663242 5.810538 1.989746 7.5683593s3.291816 2.6367188 5.895996 2.6367188c2.229829 0 4.51659-.4801384 6.860352-1.4404297v3.5888672c-1.790374.927739-4.044583 1.3916015-6.762696 1.3916015zm28.56543-.4882812-.805664-3.8085938h-.195313c-1.334642 1.6764407-2.665195 2.8116833-3.991699 3.4057618s-2.982574.8911132-4.968261.8911132c-2.653008 0-4.732252-.6835869-6.237793-2.0507812-1.505542-1.3671943-2.258301-3.3121619-2.258301-5.8349609 0-5.4036729 4.321246-8.2356758 12.963867-8.4960938l4.541016-.1464844v-1.6601562c0-2.0996199-.451656-3.6498974-1.354981-4.6508789-.903325-1.0009816-2.347809-1.5014649-4.333496-1.5014649-2.229829 0-4.75259.683587-7.568359 2.0507813l-1.245117-3.100586c1.318365-.7161494 2.76285-1.2776672 4.333496-1.6845703 1.570645-.406903 3.145337-.6103515 4.724121-.6103515 3.19012 0 5.554191.7080007 7.092285 2.1240234 1.538093 1.4160227 2.307129 3.6865078 2.307129 6.8115234v18.2617188zm-9.155273-2.8564453c2.522799 0 4.504387-.6917249 5.944824-2.0751953 1.440437-1.3834705 2.160644-3.3203001 2.160644-5.8105469v-2.4169922l-4.052734.1708985c-3.222672.1139328-5.546054.6144161-6.970215 1.5014648s-2.13623 2.2664294-2.13623 4.1381836c0 1.4648511.443517 2.5797488 1.330566 3.3447266.887049.7649777 2.128085 1.1474609 3.723145 1.1474609zm37.720703-.7324219h-.219727c-1.871754 2.7181126-4.671205 4.0771484-8.398437 4.0771484-3.499367 0-6.221508-1.196277-8.166504-3.5888671-1.944997-2.3925901-2.917481-5.7942488-2.917481-10.2050782 0-4.4108293.976553-7.8369018 2.929688-10.2783203 1.953135-2.4414184 4.671206-3.6621094 8.154297-3.6621094 3.629575 0 6.41275 1.3183462 8.349609 3.9550782h.317383l-.170899-1.928711-.097656-1.8798828v-10.8886718h4.052735v37.9882812h-3.295899zm-8.105469.6835938c2.766941 0 4.772943-.7527594 6.018066-2.2583008 1.245124-1.5055414 1.867676-3.9347163 1.867676-7.2875977v-.8544922c0-3.7923366-.63069-6.4982015-1.89209-8.1176757-1.261399-1.6194743-3.275539-2.4291993-6.04248-2.4291993-2.376314 0-4.195144.9236562-5.456543 2.7709961-1.2614 1.84734-1.89209 4.4555496-1.89209 7.8247071 0 3.4179858.626621 5.9977126 1.879883 7.7392578 1.253261 1.7415451 3.092436 2.6123047 5.517578 2.6123047zm30.835938 3.3935546c-3.955098 0-7.075998-1.204415-9.362793-3.6132812-2.286796-2.4088662-3.430176-5.7535593-3.430176-10.0341797 0-4.3131726 1.062001-7.7392451 3.186035-10.2783203s4.976382-3.8085938 8.557129-3.8085938c3.352881 0 6.005849 1.1026908 7.958984 3.3081055s2.929688 5.114728 2.929688 8.7280274v2.5634765h-18.432617c.08138 3.1412918.874829 5.525708 2.380371 7.1533203 1.505541 1.6276123 3.625474 2.4414063 6.359863 2.4414063 2.880874 0 5.729152-.6022075 8.544922-1.8066406v3.6132812c-1.432299.6184927-2.787266 1.0620104-4.064942 1.3305664-1.277675.268556-2.819815.402832-4.626464.402832zm-1.098633-24.3408203c-2.148449 0-3.861485.6998628-5.13916 2.0996094-1.277676 1.3997466-2.030436 3.3365762-2.258301 5.8105469h13.989258c0-2.5553513-.569656-4.5125258-1.708985-5.871582-1.139328-1.3590563-2.766916-2.0385743-4.882812-2.0385743zm50.953125 23.8525391v-17.4072266c0-2.1321721-.455725-3.7312772-1.367188-4.7973632-.911463-1.0660861-2.327464-1.5991211-4.248047-1.5991211-2.522799 0-4.386387.7242766-5.59082 2.1728515-1.204433 1.448575-1.806641 3.6783704-1.806641 6.6894532v14.9414062h-4.052734v-17.4072266c0-2.1321721-.455725-3.7312772-1.367188-4.7973632-.911462-1.0660861-2.335602-1.5991211-4.27246-1.5991211-2.539076 0-4.398595.7608973-5.578614 2.2827148s-1.770019 4.016096-1.770019 7.4829102v14.0380859h-4.052735v-26.7578125h3.295899l.659179 3.6621094h.195313c.764978-1.3020899 1.843255-2.3193323 3.234863-3.0517578 1.391609-.7324256 2.950024-1.0986329 4.675293-1.0986329 4.182964 0 6.917312 1.5136568 8.203125 4.5410157h.195313c.79753-1.3997466 1.953117-2.5065064 3.466797-3.3203125 1.513679-.8138062 3.238922-1.2207032 5.175781-1.2207032 3.027359 0 5.293775.7771733 6.799316 2.331543 1.505542 1.5543698 2.258301 4.0405103 2.258301 7.4584961v17.4560547zm7.154297-26.7578125h4.345703l5.859375 15.2587891c1.285813 3.4830903 2.083331 5.9977136 2.392578 7.5439453h.195312c.21159-.8300823.655108-2.2501527 1.330567-4.2602539s2.884909-8.1908662 6.628418-18.5424805h4.345703l-11.499024 30.46875c-1.139328 3.0110828-2.469881 5.1472919-3.991699 6.4086914-1.521817 1.2613995-3.389474 1.8920899-5.603027 1.8920899-1.236986 0-2.457676-.138345-3.66211-.4150391v-3.2470703c.895187.1953135 1.896154.2929687 3.00293.2929687 2.783217 0 4.768874-1.5624843 5.957031-4.6875l1.489258-3.8085937z"/></g></g></svg>