<svg enable-background="new 0 0 310.2 67" viewBox="0 0 310.2 67" xmlns="http://www.w3.org/2000/svg"><path d="m78.4 9.8c-1.5 6-1.7 12.2-.7 18.3-1.6-.3-3.2-.6-4.9-.9-35.1-5.7-45.6 11.6-41.5 25.6-10.8 4-21.2 8.7-31.3 14.2 13.8-33 43.7-62 68.9-65.8 8.3-1.1 10.6 4.2 9.5 8.6zm73.8 26.5s-1.5 2.7-2.2 3.8-2.8 1.7-4.7.8c-.9-.4-8.8-5.1-11.9-4.8-15.4 1.3-19.6-5-20.1-5.6s-1.4-.3-.8.8c3.4 5.8 13.4 8.5 13.4 8.5 1.5 3.4 2.5 7 2.9 10.7-2.6-2-5.4-3.7-8.4-5.2-11.4-7.5-24.1-12.9-37.4-16 1-13.6 7.8-33.3 39.9-28.6 0 0 6.4 1 10.7 4 0 0-1 1.1-2.4 2.4-.6.4-.7 1.2-.3 1.8.1.2.3.3.5.4l6.8 5.3c.1 2.8.2 3.6 2.3 6.2s10.4 11.2 11.4 12.3c.7.9.8 2.2.3 3.2zm-16.1-19.3-.2-.1c-1.3-.6-2.9-.2-3.9.8l-.2.2 3.5 1.7z" fill="#fff"/><path d="m81.3 40.1c-15.3 1.5-33.4 6.4-50.1 12.7-4.1-14 6.5-31.3 41.5-25.6 1.7.3 3.3.6 4.9.9.9 4.1 2.1 8.2 3.7 12zm2-.1c13.7-1.1 26.6.3 37.2 5.4-11.5-7.5-24.2-13-37.5-16.1-.2 3.5-.2 7.1.3 10.7z" fill="#00a6a7"/><path d="m210.1 35.5h15.5v-7h-15.5v-7.6h19.3v-7h-27.1v36h27.4v-7h-19.5v-7.4zm29.5-17.6c-3.7 3.6-5.8 8.7-5.7 13.9-.1 5.2 1.9 10.2 5.6 13.8s8.7 5.6 13.8 5.4c6.5 0 11.6-2 15.1-5.8l.2-.2v-16.6h-15.7v6.7h8.2v6.8c-2.4 1.3-5.1 2-7.9 1.9-6.3.1-11.5-4.8-11.6-11.1 0-.3 0-.6 0-.9-.1-3.3 1.1-6.5 3.5-8.8 2.3-2.2 5.5-3.4 8.7-3.3 1.6 0 3.2.2 4.7.7 1.4.5 2.7 1.2 3.8 2.2l4.4-5.5c-2.3-2-6.5-4.7-13.4-4.7-5.1-.1-10.1 1.9-13.7 5.5zm-56.9-4h-14.7v36h7.9v-10.8h6c8.1 0 14.6-4.3 14.6-12.6v-.1c0-7.4-5.2-12.5-13.8-12.5zm5.7 12.7c0 3.1-2.3 5.5-6.3 5.5h-6.3v-11.1h6.1c4.1 0 6.5 1.9 6.5 5.6zm99.2-12.7-15.3 36h8l3.3-8h15.1l3.3 8h8.2l-15.3-36zm-1.2 21 4.8-11.6 4.8 11.6z" fill="#fff"/></svg>