<svg enable-background="new 0 0 250 250" viewBox="0 0 250 250" xmlns="http://www.w3.org/2000/svg"><path d="m128.5 48.5c-2.4 9.8-2.8 20.1-1.1 30.1-2.7-.5-5.3-1.1-7.8-1.5-57.8-9.4-75.1 19-68.4 41.9-17.6 6.6-34.7 14.5-51.2 23.5 22.6-54.2 71.6-101.9 112.9-108.1 13.6-1.8 17.4 6.9 15.6 14.1zm121 43.5s-2.6 4.5-3.7 6.2c-2.1 2.1-5.2 2.6-7.8 1.2-6-3.7-12.6-6.3-19.4-7.8-25.3 2.3-32.2-8.2-33-9.1s-2.3-.5-1.2 1.3c5.5 9.5 21.9 14 21.9 14 2.4 5.6 3.9 11.5 4.6 17.5-4.3-3.3-8.9-6.1-13.7-8.4-18.8-12.3-39.6-21.2-61.5-26.3 1.6-22.3 12.9-54.7 65.4-46.9 6.2 1.1 12.2 3.4 17.7 6.6l-3.9 4c-1 .6-1.3 1.9-.7 2.9.2.3.4.5.7.7l11.7 8.7c-.4 3.8 1 7.5 3.7 10.1 3.5 4.1 16.9 18.3 18.7 20.2 1.1 1.4 1.3 3.4.5 5.1zm-26.4-31.3c-2.2-.9-4.7-.4-6.4 1.3h-.4l5.8 2.8z" fill="#3e67bb"/><path d="m133.3 98.3c-28.1 3.4-55.7 10.4-82.1 20.8-6.6-23 10.6-51.3 68.1-41.9 2.8.4 5.5.9 7.8 1.5 1.3 6.7 3.4 13.3 6.2 19.6zm3.2 0c20.7-2.4 41.8.6 61 8.7-18.8-12.3-39.6-21.2-61.5-26.3-.4 5.8-.2 11.6.5 17.3z" fill="#abc2f2"/><path d="m80.8 193.8h23.4v-10.8h-23.4v-11.2h29.4v-11h-41.5v54.7h41.9v-10.5h-29.8zm44.9-26.9c-11.4 11.8-11.4 30.5 0 42.3 5.7 5.5 13.3 8.5 21.2 8.3 8.6.5 17-2.7 23-8.9v-25.5h-23.7v10.2h12.4v10.3c-3.7 2-7.8 3-12 2.9-10.3-.4-18.2-9.1-17.8-19.4.2-4.6 2.1-9 5.3-12.3 3.6-3.4 8.4-5.2 13.3-5.1 2.4-.1 4.9.3 7.2 1 2.2.7 4.1 1.9 5.9 3.4l6.6-8.4c-5.6-4.9-12.9-7.5-20.4-7.2-7.9-.1-15.4 2.9-21 8.4zm-86.6-6.1h-22.7v54.7h12.1v-16.2h9.1c12.3 0 22.3-6.6 22.3-19.3.2-10.4-8-19-18.4-19.2-.8-.1-1.6 0-2.4 0zm8.5 19.4c-.1 4.7-4 8.4-8.7 8.3-.3 0-.6 0-.9-.1h-9.5v-16.6h9.3c6.1.1 9.8 3 9.8 8.4zm151.5-19.4-23.4 54.7h12.3l5-12.2h23.4l4.9 12.2h12.3l-23.4-54.7zm-1.9 32.2 7.3-17.7 7.3 17.7z" fill="#3e67bb"/></svg>