<?xml version="1.0" encoding="UTF-8"?>
<svg width="594px" height="67px" viewBox="0 0 594 67" version="1.1" xmlns="http://www.w3.org/2000/svg" xmlns:xlink="http://www.w3.org/1999/xlink">
    <!-- Generator: Sketch 49.3 (51167) - http://www.bohemiancoding.com/sketch -->
    <title>Pega Community</title>
    <desc>Created with Sketch.</desc>
    <defs>
        <polygon id="path-1" points="0 0.949 152.533162 0.949 152.533162 68 0 68"></polygon>
    </defs>
    <g id="Pega-Community" stroke="none" stroke-width="1" fill="none" fill-rule="evenodd">
        <g id="Page-1" transform="translate(0.000000, -1.000000)">
            <g id="Group-3" transform="translate(0.000000, 0.051000)">
                <mask id="mask-2" fill="white">
                    <use xlink:href="#path-1"></use>
                </mask>
                <g id="Clip-2"></g>
                <path d="M136.1455,17.9363 L135.9585,17.8473 C135.9395,17.8363 133.7455,16.8483 132.0305,18.6533 L131.8115,18.8843 L135.3245,20.6053 L136.1455,17.9363 Z M152.2275,37.2283 C152.2275,37.2283 150.6955,39.9683 150.0095,40.9813 C149.3205,42.0023 147.1655,42.6363 145.3025,41.7463 C144.4505,41.3413 136.4795,36.6913 133.4295,36.9583 C117.9905,38.3043 113.7845,31.9433 113.2885,31.3653 C112.7915,30.7873 111.8625,31.0563 112.5255,32.1923 C115.9125,38.0013 125.9365,40.6933 125.9365,40.6933 C128.5565,47.0103 128.8705,51.4353 128.8705,51.4353 C126.2745,49.4123 123.4725,47.7073 120.4995,46.2913 C112.5535,40.9593 100.1145,34.3563 82.9935,30.2173 C83.9765,16.6343 90.8295,-2.9997 122.8775,1.6443 C122.8775,1.6443 129.3085,2.6983 133.5945,5.6623 C133.5945,5.6623 132.5645,6.7423 131.2105,8.0943 C129.8565,9.4433 131.3545,10.3093 131.3545,10.3093 L138.1235,15.6303 C138.2025,18.4453 138.3185,19.2333 140.4365,21.7813 C142.5545,24.3253 150.7895,32.9503 151.8665,34.1033 C153.1145,35.4373 152.2275,37.2283 152.2275,37.2283 Z M78.4185,10.7523 C76.7245,17.7353 76.8535,23.8873 77.7245,29.0593 C76.1165,28.7383 74.4825,28.4323 72.7995,28.1583 C37.7255,22.4503 27.1465,39.7363 31.2415,53.7533 C19.6455,58.1123 8.7485,63.1013 -0.0005,68.0003 C13.7655,34.9833 43.6815,5.9253 68.9315,2.1053 C77.1755,1.0193 79.4935,6.3673 78.4185,10.7523 Z" id="Fill-1" fill="#1F2555" mask="url(#mask-2)"></path>
            </g>
            <path d="M83.2778,40.979 C96.9428,39.899 109.8398,41.27 120.4988,46.342 C112.5528,41.01 100.1138,34.408 82.9918,30.269 C82.6498,35 83.0158,38.996 83.2778,40.979 M81.3048,41.151 C65.9948,42.613 47.8908,47.552 31.2408,53.805 C27.1468,39.789 37.7268,22.5 72.7998,28.209 C74.4828,28.483 76.1158,28.791 77.7238,29.11 C78.5558,34.055 80.0618,38.117 81.3048,41.151" id="Fill-4" fill="#00A6A7"></path>
            <path d="M286.4155,35.9283 L291.1645,24.3353 L295.9145,35.9283 L286.4155,35.9283 Z M287.6405,14.8893 L272.3215,50.8893 L280.3395,50.8893 L283.6045,42.8743 L298.7245,42.8743 L301.9895,50.8893 L310.2125,50.8893 L294.8935,14.8893 L287.6405,14.8893 Z M188.4325,27.5933 C188.4325,30.6763 186.1215,33.0423 182.1605,33.0423 L175.8865,33.0423 L175.8865,22.0383 L182.0055,22.0383 C185.9665,22.0383 188.4325,23.9413 188.4325,27.4903 L188.4325,27.5933 Z M182.6745,14.8893 L167.9655,14.8893 L167.9655,50.8893 L175.8865,50.8893 L175.8865,40.0893 L181.9015,40.0893 C189.9765,40.0893 196.4585,35.7673 196.4585,27.4363 L196.4585,27.3333 C196.4585,19.9793 191.2655,14.8893 182.6745,14.8893 Z M239.5495,18.9093 C235.7745,22.5963 233.8605,27.2643 233.8605,32.7853 C233.8605,38.3103 235.7385,42.9433 239.4485,46.5643 C243.1515,50.1813 247.8075,52.0123 253.2885,52.0123 C259.7775,52.0123 264.8505,50.0483 268.3725,46.1733 L268.5545,45.9683 L268.5545,29.4453 L252.8975,29.4453 L252.8975,36.1333 L261.0635,36.1333 L261.0635,42.8823 C258.9495,44.1413 256.3105,44.7813 253.2145,44.7813 C250.0065,44.7813 247.2395,43.6813 244.9885,41.5083 C242.7435,39.3473 241.6045,36.4163 241.6045,32.8153 C241.6045,29.2113 242.7775,26.2673 245.0895,24.0693 C247.4095,21.8613 250.3235,20.7413 253.7515,20.7413 C255.5545,20.7413 257.1515,20.9633 258.4965,21.4013 C259.7585,21.8113 261.0365,22.5563 262.3025,23.6013 L266.6825,18.0723 C264.3715,16.0363 260.2125,13.3563 253.2885,13.3563 C247.9475,13.3563 243.3245,15.2253 239.5495,18.9093 Z M210.1215,36.4933 L225.6275,36.4933 L225.6275,29.4463 L210.1215,29.4463 L210.1215,21.9313 L229.4085,21.9313 L229.4085,14.8893 L202.2515,14.8893 L202.2515,50.8893 L229.6645,50.8893 L229.6645,43.8443 L210.1215,43.8443 L210.1215,36.4933 Z" id="Fill-6" fill="#1F2555"></path>
            <path d="M346.19043,18.5048828 C342.267884,18.5048828 339.171398,19.8110221 336.900879,22.4233398 C334.63036,25.0356576 333.495117,28.612282 333.495117,33.1533203 C333.495117,37.8245676 334.58967,41.4337438 336.778809,43.980957 C338.967947,46.5281703 342.088847,47.8017578 346.141602,47.8017578 C348.631848,47.8017578 351.471989,47.3541711 354.662109,46.4589844 L354.662109,50.0966797 C352.188139,51.0244187 349.136411,51.4882812 345.506836,51.4882812 C340.249648,51.4882812 336.192885,49.8932451 333.336426,46.703125 C330.479966,43.5130049 329.051758,38.9801726 329.051758,33.1044922 C329.051758,29.4260884 329.739414,26.2034644 331.114746,23.4365234 C332.490078,20.6695825 334.475736,18.5374424 337.071777,17.0400391 C339.667819,15.5426357 342.723615,14.7939453 346.239258,14.7939453 C349.982766,14.7939453 353.254218,15.4775322 356.053711,16.8447266 L354.295898,20.4091797 C351.594062,19.1396421 348.892266,18.5048828 346.19043,18.5048828 Z M383.935547,37.5966797 C383.935547,41.9586807 382.836925,45.3644083 380.639648,47.8139648 C378.442372,50.2635214 375.40692,51.4882812 371.533203,51.4882812 C369.140613,51.4882812 367.016611,50.9267634 365.161133,49.8037109 C363.305655,48.6806584 361.873377,47.0693464 360.864258,44.9697266 C359.855138,42.8701067 359.350586,40.412449 359.350586,37.5966797 C359.350586,33.2346787 360.44107,29.837089 362.62207,27.4038086 C364.803071,24.9705282 367.830384,23.7539062 371.704102,23.7539062 C375.44761,23.7539062 378.422027,24.999011 380.627441,27.4892578 C382.832856,29.9795046 383.935547,33.3486116 383.935547,37.5966797 Z M363.549805,37.5966797 C363.549805,41.0146655 364.233392,43.6188062 365.600586,45.4091797 C366.96778,47.1995532 368.977851,48.0947266 371.630859,48.0947266 C374.283867,48.0947266 376.298007,47.2036222 377.67334,45.4213867 C379.048672,43.6391512 379.736328,41.0309417 379.736328,37.5966797 C379.736328,34.19497 379.048672,31.6111742 377.67334,29.8452148 C376.298007,28.0792555 374.267592,27.1962891 371.582031,27.1962891 C368.929023,27.1962891 366.92709,28.0670486 365.576172,29.8085938 C364.225254,31.5501389 363.549805,34.1461416 363.549805,37.5966797 Z M424.146484,51 L424.146484,33.5927734 C424.146484,31.4606013 423.69076,29.8614962 422.779297,28.7954102 C421.867834,27.7293241 420.451833,27.1962891 418.53125,27.1962891 C416.008451,27.1962891 414.144863,27.9205657 412.94043,29.3691406 C411.735997,30.8177156 411.133789,33.047511 411.133789,36.0585938 L411.133789,51 L407.081055,51 L407.081055,33.5927734 C407.081055,31.4606013 406.62533,29.8614962 405.713867,28.7954102 C404.802404,27.7293241 403.378265,27.1962891 401.441406,27.1962891 C398.902331,27.1962891 397.042812,27.9571864 395.862793,29.4790039 C394.682774,31.0008214 394.092773,33.4950999 394.092773,36.9619141 L394.092773,51 L390.040039,51 L390.040039,24.2421875 L393.335938,24.2421875 L393.995117,27.9042969 L394.19043,27.9042969 C394.955407,26.602207 396.033684,25.5849646 397.425293,24.8525391 C398.816901,24.1201135 400.375317,23.7539062 402.100586,23.7539062 C406.28355,23.7539062 409.017897,25.267563 410.303711,28.2949219 L410.499023,28.2949219 C411.296553,26.8951753 412.452141,25.7884155 413.96582,24.9746094 C415.4795,24.1608032 417.204743,23.7539062 419.141602,23.7539062 C422.16896,23.7539062 424.435377,24.5310795 425.940918,26.0854492 C427.446459,27.639819 428.199219,30.1259595 428.199219,33.5439453 L428.199219,51 L424.146484,51 Z M469.655273,51 L469.655273,33.5927734 C469.655273,31.4606013 469.199549,29.8614962 468.288086,28.7954102 C467.376623,27.7293241 465.960622,27.1962891 464.040039,27.1962891 C461.51724,27.1962891 459.653652,27.9205657 458.449219,29.3691406 C457.244786,30.8177156 456.642578,33.047511 456.642578,36.0585938 L456.642578,51 L452.589844,51 L452.589844,33.5927734 C452.589844,31.4606013 452.134119,29.8614962 451.222656,28.7954102 C450.311193,27.7293241 448.887054,27.1962891 446.950195,27.1962891 C444.41112,27.1962891 442.551601,27.9571864 441.371582,29.4790039 C440.191563,31.0008214 439.601562,33.4950999 439.601562,36.9619141 L439.601562,51 L435.548828,51 L435.548828,24.2421875 L438.844727,24.2421875 L439.503906,27.9042969 L439.699219,27.9042969 C440.464197,26.602207 441.542474,25.5849646 442.934082,24.8525391 C444.325691,24.1201135 445.884106,23.7539062 447.609375,23.7539062 C451.792339,23.7539062 454.526686,25.267563 455.8125,28.2949219 L456.007812,28.2949219 C456.805343,26.8951753 457.96093,25.7884155 459.474609,24.9746094 C460.988289,24.1608032 462.713532,23.7539062 464.650391,23.7539062 C467.67775,23.7539062 469.944166,24.5310795 471.449707,26.0854492 C472.955248,27.639819 473.708008,30.1259595 473.708008,33.5439453 L473.708008,51 L469.655273,51 Z M484.866211,24.2421875 L484.866211,41.6005859 C484.866211,43.7815864 485.362625,45.4091743 486.355469,46.4833984 C487.348312,47.5576226 488.902659,48.0947266 491.018555,48.0947266 C493.818048,48.0947266 495.86474,47.3297603 497.158691,45.7998047 C498.452643,44.2698491 499.099609,41.7715017 499.099609,38.3046875 L499.099609,24.2421875 L503.152344,24.2421875 L503.152344,51 L499.807617,51 L499.22168,47.4111328 L499.001953,47.4111328 C498.171871,48.7294988 497.020352,49.7386033 495.547363,50.4384766 C494.074374,51.1383499 492.39389,51.4882812 490.505859,51.4882812 C487.250635,51.4882812 484.813322,50.715177 483.193848,49.1689453 C481.574373,47.6227136 480.764648,45.14878 480.764648,41.7470703 L480.764648,24.2421875 L484.866211,24.2421875 Z M529.056641,51 L529.056641,33.6904297 C529.056641,31.5094292 528.560226,29.8818413 527.567383,28.8076172 C526.574539,27.7333931 525.020193,27.1962891 522.904297,27.1962891 C520.104804,27.1962891 518.054043,27.9531174 516.751953,29.4667969 C515.449863,30.9804763 514.798828,33.4788237 514.798828,36.9619141 L514.798828,51 L510.746094,51 L510.746094,24.2421875 L514.041992,24.2421875 L514.701172,27.9042969 L514.896484,27.9042969 C515.726567,26.5859309 516.890292,25.5646195 518.387695,24.840332 C519.885099,24.1160446 521.553376,23.7539062 523.392578,23.7539062 C526.61525,23.7539062 529.040356,24.5310795 530.667969,26.0854492 C532.295581,27.639819 533.109375,30.1259595 533.109375,33.5439453 L533.109375,51 L529.056641,51 Z M544.487305,51 L540.43457,51 L540.43457,24.2421875 L544.487305,24.2421875 L544.487305,51 Z M540.092773,16.9912109 C540.092773,16.0634719 540.320636,15.383954 540.776367,14.9526367 C541.232099,14.5213195 541.801754,14.3056641 542.485352,14.3056641 C543.136396,14.3056641 543.697914,14.5253884 544.169922,14.9648438 C544.641929,15.4042991 544.87793,16.079748 544.87793,16.9912109 C544.87793,17.9026738 544.641929,18.5821918 544.169922,19.0297852 C543.697914,19.4773785 543.136396,19.7011719 542.485352,19.7011719 C541.801754,19.7011719 541.232099,19.4773785 540.776367,19.0297852 C540.320636,18.5821918 540.092773,17.9026738 540.092773,16.9912109 Z M560.723633,48.1435547 C561.439782,48.1435547 562.131507,48.0906581 562.798828,47.9848633 C563.466149,47.8790685 563.995115,47.7692063 564.385742,47.6552734 L564.385742,50.7558594 C563.946287,50.967449 563.299321,51.1424147 562.444824,51.2807617 C561.590328,51.4191088 560.821292,51.4882812 560.137695,51.4882812 C554.961888,51.4882812 552.374023,48.7620715 552.374023,43.3095703 L552.374023,27.3916016 L548.541016,27.3916016 L548.541016,25.4384766 L552.374023,23.7539062 L554.083008,18.0410156 L556.426758,18.0410156 L556.426758,24.2421875 L564.19043,24.2421875 L564.19043,27.3916016 L556.426758,27.3916016 L556.426758,43.1386719 C556.426758,44.7500081 556.809241,45.9869749 557.574219,46.8496094 C558.339197,47.7122439 559.388991,48.1435547 560.723633,48.1435547 Z M564.484375,24.2421875 L568.830078,24.2421875 L574.689453,39.5009766 C575.975267,42.9840669 576.772785,45.4986902 577.082031,47.0449219 L577.277344,47.0449219 C577.488933,46.2148396 577.932451,44.7947692 578.60791,42.784668 C579.283369,40.7745668 581.49282,34.5938018 585.236328,24.2421875 L589.582031,24.2421875 L578.083008,54.7109375 C576.943679,57.7220203 575.613126,59.8582294 574.091309,61.1196289 C572.569491,62.3810284 570.701834,63.0117188 568.488281,63.0117188 C567.251296,63.0117188 566.030605,62.8733738 564.826172,62.5966797 L564.826172,59.3496094 C565.721359,59.5449229 566.722325,59.6425781 567.829102,59.6425781 C570.612319,59.6425781 572.597976,58.0800938 573.786133,54.9550781 L575.275391,51.1464844 L564.484375,24.2421875 Z" id="Community" fill="#1F2555"></path>
        </g>
    </g>
</svg>