<?xml version="1.0" encoding="utf-8"?>
<!-- Generator: Adobe Illustrator 24.0.3, SVG Export Plug-In . SVG Version: 6.00 Build 0)  -->
<svg version="1.1" id="Layer_1" xmlns="http://www.w3.org/2000/svg" xmlns:xlink="http://www.w3.org/1999/xlink" x="0px" y="0px"
	 viewBox="0 0 811 76" style="enable-background:new 0 0 811 76;" xml:space="preserve">
<style type="text/css">
	.st0{fill:#1F2555;}
	.st1{fill:#00A6A7;}
	.st2{enable-background:new    ;}
</style>
<title>Artboard 1</title>
<path class="st0" d="M89.4,18.8c-1.5,6-1.7,12.2-0.7,18.3c-1.6-0.3-3.2-0.6-4.9-0.9c-35.1-5.7-45.6,11.6-41.5,25.6
	C31.5,65.8,21.1,70.5,11,76c13.8-33,43.7-62,68.9-65.8C88.2,9.1,90.5,14.4,89.4,18.8z M163.2,45.3c0,0-1.5,2.7-2.2,3.8
	s-2.8,1.7-4.7,0.8c-0.9-0.4-8.8-5.1-11.9-4.8c-15.4,1.3-19.6-5-20.1-5.6s-1.4-0.3-0.8,0.8c3.4,5.8,13.4,8.5,13.4,8.5
	c1.5,3.4,2.5,7,2.9,10.7c-2.6-2-5.4-3.7-8.4-5.2c-11.4-7.5-24.1-12.9-37.4-16c1-13.6,7.8-33.3,39.9-28.6c0,0,6.4,1,10.7,4
	c0,0-1,1.1-2.4,2.4c-0.6,0.4-0.7,1.2-0.3,1.8c0.1,0.2,0.3,0.3,0.5,0.4l6.8,5.3c0.1,2.8,0.2,3.6,2.3,6.2s10.4,11.2,11.4,12.3
	C163.6,43,163.7,44.3,163.2,45.3z M147.1,26l-0.2-0.1c-1.3-0.6-2.9-0.2-3.9,0.8l-0.2,0.2l3.5,1.7L147.1,26z"/>
<path class="st1" d="M92.3,49.1C77,50.6,58.9,55.5,42.2,61.8c-4.1-14,6.5-31.3,41.5-25.6c1.7,0.3,3.3,0.6,4.9,0.9
	C89.5,41.2,90.7,45.3,92.3,49.1z M94.3,49c13.7-1.1,26.6,0.3,37.2,5.4c-11.5-7.5-24.2-13-37.5-16.1C93.8,41.8,93.8,45.4,94.3,49
	L94.3,49z"/>
<path class="st0" d="M221.1,44.5h15.5v-7h-15.5v-7.6h19.3v-7h-27.1v36h27.4v-7h-19.5L221.1,44.5L221.1,44.5z M250.6,26.9
	c-3.7,3.6-5.8,8.7-5.7,13.9c-0.1,5.2,1.9,10.2,5.6,13.8c3.7,3.6,8.7,5.6,13.8,5.4c6.5,0,11.6-2,15.1-5.8l0.2-0.2V37.4h-15.7v6.7h8.2
	v6.8c-2.4,1.3-5.1,2-7.9,1.9c-6.3,0.1-11.5-4.8-11.6-11.1c0-0.3,0-0.6,0-0.9c-0.1-3.3,1.1-6.5,3.5-8.8c2.3-2.2,5.5-3.4,8.7-3.3
	c1.6,0,3.2,0.2,4.7,0.7c1.4,0.5,2.7,1.2,3.8,2.2l4.4-5.5c-2.3-2-6.5-4.7-13.4-4.7C259.2,21.3,254.2,23.3,250.6,26.9z M193.7,22.9
	H179v36h7.9V48.1h6c8.1,0,14.6-4.3,14.6-12.6v-0.1C207.5,28,202.3,22.9,193.7,22.9L193.7,22.9z M199.4,35.6c0,3.1-2.3,5.5-6.3,5.5
	h-6.3V30h6.1C197,30,199.4,31.9,199.4,35.6L199.4,35.6z M298.6,22.9l-15.3,36h8l3.3-8h15.1l3.3,8h8.2l-15.3-36
	C305.9,22.9,298.6,22.9,298.6,22.9z M297.4,43.9l4.8-11.6l4.8,11.6H297.4z"/>
<g class="st2">
	<path class="st0" d="M356.1,26.9c-3.9,0-6.9,1.3-9.1,3.9c-2.2,2.6-3.4,6.1-3.4,10.6c0,4.6,1.1,8.1,3.2,10.7
		c2.2,2.5,5.2,3.8,9.2,3.8c2.5,0,5.2-0.4,8.4-1.3V58c-2.4,0.9-5.4,1.4-9,1.4c-5.2,0-9.2-1.6-12-4.7c-2.8-3.1-4.2-7.6-4.2-13.4
		c0-3.6,0.7-6.8,2-9.5c1.4-2.7,3.3-4.8,5.9-6.3c2.6-1.5,5.6-2.2,9-2.2c3.7,0,6.9,0.7,9.7,2l-1.7,3.5
		C361.5,27.5,358.8,26.9,356.1,26.9z"/>
	<path class="st0" d="M394.3,45.7c0,4.3-1.1,7.6-3.2,10.1s-5.2,3.6-9,3.6c-2.4,0-4.4-0.6-6.3-1.7c-1.8-1.1-3.2-2.7-4.2-4.8
		s-1.5-4.5-1.5-7.3c0-4.3,1.1-7.6,3.2-10c2.1-2.4,5.1-3.6,8.9-3.6c3.7,0,6.6,1.2,8.8,3.7C393.2,38.2,394.3,41.5,394.3,45.7z
		 M374.2,45.7c0,3.4,0.7,5.9,2,7.7c1.3,1.8,3.3,2.6,5.9,2.6c2.6,0,4.6-0.9,5.9-2.6s2-4.3,2-7.7c0-3.3-0.7-5.9-2-7.6s-3.4-2.6-6-2.6
		c-2.6,0-4.6,0.9-5.9,2.6C374.9,39.7,374.2,42.3,374.2,45.7z"/>
	<path class="st0" d="M405.3,58.9h-4V21.5h4V58.9z"/>
	<path class="st0" d="M417.7,58.9h-4V21.5h4V58.9z"/>
	<path class="st0" d="M442.4,58.9l-0.8-3.7h-0.2c-1.3,1.6-2.6,2.8-3.9,3.4s-2.9,0.9-4.9,0.9c-2.6,0-4.7-0.7-6.1-2
		c-1.5-1.3-2.2-3.3-2.2-5.7c0-5.3,4.3-8.1,12.8-8.4l4.5-0.1v-1.6c0-2.1-0.4-3.6-1.3-4.6c-0.9-1-2.3-1.5-4.3-1.5
		c-2.2,0-4.7,0.7-7.4,2l-1.2-3.1c1.3-0.7,2.7-1.3,4.3-1.7s3.1-0.6,4.6-0.6c3.1,0,5.5,0.7,7,2.1s2.3,3.6,2.3,6.7v18H442.4z
		 M433.3,56.1c2.5,0,4.4-0.7,5.9-2c1.4-1.4,2.1-3.3,2.1-5.7v-2.4l-4,0.2c-3.2,0.1-5.5,0.6-6.9,1.5c-1.4,0.9-2.1,2.2-2.1,4.1
		c0,1.4,0.4,2.5,1.3,3.3S431.8,56.1,433.3,56.1z"/>
	<path class="st0" d="M465.8,32.1c3.5,0,6.1,1.2,8.1,3.5c1.9,2.4,2.9,5.7,2.9,10s-1,7.7-2.9,10.1s-4.6,3.6-8,3.6
		c-1.7,0-3.3-0.3-4.7-0.9c-1.4-0.6-2.6-1.6-3.6-2.9h-0.3l-0.8,3.4h-2.9V21.5h4v9.1c0,2-0.1,3.9-0.2,5.5h0.2
		C459.4,33.4,462.1,32.1,465.8,32.1z M465.2,35.5c-2.7,0-4.7,0.8-5.9,2.3s-1.8,4.2-1.8,7.9s0.6,6.3,1.8,7.9s3.2,2.4,5.9,2.4
		c2.5,0,4.3-0.9,5.5-2.7c1.2-1.8,1.8-4.4,1.8-7.7c0-3.4-0.6-6-1.8-7.7C469.6,36.3,467.7,35.5,465.2,35.5z"/>
	<path class="st0" d="M506.4,45.7c0,4.3-1.1,7.6-3.2,10.1c-2.2,2.4-5.2,3.6-9,3.6c-2.4,0-4.4-0.6-6.3-1.7c-1.8-1.1-3.2-2.7-4.2-4.8
		s-1.5-4.5-1.5-7.3c0-4.3,1.1-7.6,3.2-10c2.1-2.4,5.1-3.6,8.9-3.6c3.7,0,6.6,1.2,8.8,3.7C505.3,38.2,506.4,41.5,506.4,45.7z
		 M486.4,45.7c0,3.4,0.7,5.9,2,7.7c1.3,1.8,3.3,2.6,5.9,2.6c2.6,0,4.6-0.9,5.9-2.6c1.4-1.8,2-4.3,2-7.7c0-3.3-0.7-5.9-2-7.6
		c-1.4-1.7-3.4-2.6-6-2.6c-2.6,0-4.6,0.9-5.9,2.6C487,39.7,486.4,42.3,486.4,45.7z"/>
	<path class="st0" d="M525.4,32.1c1.2,0,2.2,0.1,3.1,0.3l-0.6,3.7c-1.1-0.2-2.1-0.4-2.9-0.4c-2.1,0-4,0.9-5.5,2.6
		c-1.5,1.7-2.3,3.9-2.3,6.5v14.1h-4V32.5h3.3l0.5,4.9h0.2c1-1.7,2.2-3,3.5-4C522.3,32.5,523.8,32.1,525.4,32.1z"/>
	<path class="st0" d="M549.7,58.9l-0.8-3.7h-0.2c-1.3,1.6-2.6,2.8-3.9,3.4c-1.3,0.6-2.9,0.9-4.9,0.9c-2.6,0-4.7-0.7-6.1-2
		c-1.5-1.3-2.2-3.3-2.2-5.7c0-5.3,4.3-8.1,12.8-8.4l4.5-0.1v-1.6c0-2.1-0.4-3.6-1.3-4.6s-2.3-1.5-4.3-1.5c-2.2,0-4.7,0.7-7.4,2
		l-1.2-3.1c1.3-0.7,2.7-1.3,4.3-1.7c1.5-0.4,3.1-0.6,4.6-0.6c3.1,0,5.5,0.7,7,2.1c1.5,1.4,2.3,3.6,2.3,6.7v18H549.7z M540.7,56.1
		c2.5,0,4.4-0.7,5.9-2c1.4-1.4,2.1-3.3,2.1-5.7v-2.4l-4,0.2c-3.2,0.1-5.5,0.6-6.9,1.5c-1.4,0.9-2.1,2.2-2.1,4.1
		c0,1.4,0.4,2.5,1.3,3.3S539.1,56.1,540.7,56.1z"/>
	<path class="st0" d="M569.4,56.1c0.7,0,1.4-0.1,2-0.2c0.7-0.1,1.2-0.2,1.6-0.3v3.1c-0.4,0.2-1.1,0.4-1.9,0.5
		c-0.8,0.1-1.6,0.2-2.3,0.2c-5.1,0-7.6-2.7-7.6-8V35.6h-3.8v-1.9l3.8-1.7l1.7-5.6h2.3v6.1h7.6v3.1h-7.6v15.5c0,1.6,0.4,2.8,1.1,3.7
		C567,55.6,568.1,56.1,569.4,56.1z"/>
	<path class="st0" d="M577.9,25.4c0-0.9,0.2-1.6,0.7-2s1-0.6,1.7-0.6c0.6,0,1.2,0.2,1.7,0.6s0.7,1.1,0.7,2c0,0.9-0.2,1.6-0.7,2
		s-1,0.7-1.7,0.7c-0.7,0-1.2-0.2-1.7-0.7S577.9,26.3,577.9,25.4z M582.2,58.9h-4V32.5h4V58.9z"/>
	<path class="st0" d="M613.4,45.7c0,4.3-1.1,7.6-3.2,10.1c-2.2,2.4-5.2,3.6-9,3.6c-2.4,0-4.4-0.6-6.3-1.7c-1.8-1.1-3.2-2.7-4.2-4.8
		s-1.5-4.5-1.5-7.3c0-4.3,1.1-7.6,3.2-10c2.1-2.4,5.1-3.6,8.9-3.6c3.7,0,6.6,1.2,8.8,3.7C612.3,38.2,613.4,41.5,613.4,45.7z
		 M593.4,45.7c0,3.4,0.7,5.9,2,7.7c1.3,1.8,3.3,2.6,5.9,2.6c2.6,0,4.6-0.9,5.9-2.6c1.4-1.8,2-4.3,2-7.7c0-3.3-0.7-5.9-2-7.6
		c-1.4-1.7-3.4-2.6-6-2.6c-2.6,0-4.6,0.9-5.9,2.6C594,39.7,593.4,42.3,593.4,45.7z"/>
	<path class="st0" d="M638.4,58.9v-17c0-2.1-0.5-3.7-1.5-4.8c-1-1.1-2.5-1.6-4.6-1.6c-2.8,0-4.8,0.7-6.1,2.2
		c-1.3,1.5-1.9,3.9-1.9,7.4v13.8h-4V32.5h3.2l0.6,3.6h0.2c0.8-1.3,2-2.3,3.4-3c1.5-0.7,3.1-1.1,4.9-1.1c3.2,0,5.6,0.8,7.2,2.3
		c1.6,1.5,2.4,4,2.4,7.3v17.2H638.4z"/>
	<path class="st0" d="M679,26.9c-3.9,0-6.9,1.3-9.1,3.9s-3.4,6.1-3.4,10.6c0,4.6,1.1,8.1,3.2,10.7s5.2,3.8,9.2,3.8
		c2.5,0,5.2-0.4,8.4-1.3V58c-2.4,0.9-5.4,1.4-9,1.4c-5.2,0-9.2-1.6-12-4.7s-4.2-7.6-4.2-13.4c0-3.6,0.7-6.8,2-9.5
		c1.4-2.7,3.3-4.8,5.9-6.3c2.6-1.5,5.6-2.2,9-2.2c3.7,0,6.9,0.7,9.7,2l-1.7,3.5C684.4,27.5,681.7,26.9,679,26.9z"/>
	<path class="st0" d="M705.6,59.4c-3.9,0-7-1.2-9.2-3.6c-2.3-2.4-3.4-5.7-3.4-9.9c0-4.2,1-7.6,3.1-10.1c2.1-2.5,4.9-3.7,8.4-3.7
		c3.3,0,5.9,1.1,7.8,3.3c1.9,2.2,2.9,5,2.9,8.6v2.5h-18.1c0.1,3.1,0.9,5.4,2.3,7c1.5,1.6,3.6,2.4,6.3,2.4c2.8,0,5.6-0.6,8.4-1.8v3.6
		c-1.4,0.6-2.7,1-4,1.3S707.3,59.4,705.6,59.4z M704.5,35.4c-2.1,0-3.8,0.7-5.1,2.1s-2,3.3-2.2,5.7H711c0-2.5-0.6-4.4-1.7-5.8
		C708.2,36.1,706.6,35.4,704.5,35.4z"/>
	<path class="st0" d="M740.1,58.9v-17c0-2.1-0.5-3.7-1.5-4.8c-1-1.1-2.5-1.6-4.6-1.6c-2.8,0-4.8,0.7-6.1,2.2
		c-1.3,1.5-1.9,3.9-1.9,7.4v13.8h-4V32.5h3.2l0.6,3.6h0.2c0.8-1.3,2-2.3,3.4-3c1.5-0.7,3.1-1.1,4.9-1.1c3.2,0,5.6,0.8,7.2,2.3
		c1.6,1.5,2.4,4,2.4,7.3v17.2H740.1z"/>
	<path class="st0" d="M760.8,56.1c0.7,0,1.4-0.1,2-0.2c0.7-0.1,1.2-0.2,1.6-0.3v3.1c-0.4,0.2-1.1,0.4-1.9,0.5
		c-0.8,0.1-1.6,0.2-2.3,0.2c-5.1,0-7.6-2.7-7.6-8V35.6h-3.8v-1.9l3.8-1.7l1.7-5.6h2.3v6.1h7.6v3.1h-7.6v15.5c0,1.6,0.4,2.8,1.1,3.7
		C758.4,55.6,759.4,56.1,760.8,56.1z"/>
	<path class="st0" d="M780.7,59.4c-3.9,0-7-1.2-9.2-3.6c-2.3-2.4-3.4-5.7-3.4-9.9c0-4.2,1-7.6,3.1-10.1c2.1-2.5,4.9-3.7,8.4-3.7
		c3.3,0,5.9,1.1,7.8,3.3c1.9,2.2,2.9,5,2.9,8.6v2.5h-18.1c0.1,3.1,0.9,5.4,2.3,7c1.5,1.6,3.6,2.4,6.3,2.4c2.8,0,5.6-0.6,8.4-1.8v3.6
		c-1.4,0.6-2.7,1-4,1.3S782.5,59.4,780.7,59.4z M779.7,35.4c-2.1,0-3.8,0.7-5.1,2.1s-2,3.3-2.2,5.7h13.8c0-2.5-0.6-4.4-1.7-5.8
		C783.4,36.1,781.7,35.4,779.7,35.4z"/>
	<path class="st0" d="M809.2,32.1c1.2,0,2.2,0.1,3.1,0.3l-0.6,3.7c-1.1-0.2-2.1-0.4-2.9-0.4c-2.1,0-4,0.9-5.5,2.6
		c-1.5,1.7-2.3,3.9-2.3,6.5v14.1h-4V32.5h3.3l0.5,4.9h0.2c1-1.7,2.2-3,3.5-4C806.1,32.5,807.6,32.1,809.2,32.1z"/>
</g>
</svg>
