<svg viewBox="0 0 310.21 67.05" xmlns="http://www.w3.org/2000/svg"><g fill-rule="evenodd" transform="translate(-.21 -.11)"><path d="m136.36 17.1-.19-.09a3.54 3.54 0 0 0 -3.93.81l-.21.23 3.51 1.72zm16.08 19.29s-1.53 2.74-2.22 3.75-2.84 1.66-4.7.77c-.86-.41-8.83-5.06-11.88-4.79-15.43 1.35-19.64-5-20.14-5.59s-1.42-.31-.76.82c3.39 5.81 13.41 8.51 13.41 8.51a38.24 38.24 0 0 1 2.94 10.74 45 45 0 0 0 -8.38-5.15 116.2 116.2 0 0 0 -37.5-16.07c.98-13.58 7.79-33.22 39.88-28.57 0 0 6.43 1.05 10.72 4 0 0-1 1.08-2.38 2.44a1.29 1.29 0 0 0 .14 2.21l6.77 5.32c.08 2.82.19 3.61 2.31 6.15s10.35 11.18 11.43 12.34a2.91 2.91 0 0 1 .36 3.12zm-73.81-26.48a45.15 45.15 0 0 0 -.69 18.31c-1.61-.32-3.24-.63-4.93-.9-35.07-5.71-45.65 11.58-41.56 25.6a233.79 233.79 0 0 0 -31.24 14.24c13.79-33.01 43.69-62.07 68.93-65.89 8.25-1.09 10.57 4.26 9.49 8.64z" fill="#1f2555"/><path d="m83.49 40.09c13.67-1.08 26.56.29 37.22 5.36a116.2 116.2 0 0 0 -37.5-16.07 54.21 54.21 0 0 0 .28 10.71zm-2 .17c-15.31 1.46-33.42 6.4-50.07 12.66-4.09-14 6.49-31.31 41.56-25.6 1.69.27 3.32.58 4.93.9a55.52 55.52 0 0 0 3.58 12z" fill="#00a6a7"/><path d="m286.63 35 4.75-11.59 4.75 11.59zm1.22-21-15.31 36h8l3.27-8h15.12l3.26 8h8.23l-15.31-36zm-99.2 12.7c0 3.09-2.31 5.45-6.27 5.45h-6.28v-11h6.12c4 0 6.43 1.9 6.43 5.45zm-5.76-12.7h-14.71v36h7.92v-10.8h6c8.07 0 14.55-4.32 14.55-12.65v-.11c.02-7.35-5.17-12.44-13.76-12.44zm56.87 4a18.72 18.72 0 0 0 -5.69 13.88 18.5 18.5 0 0 0 5.59 13.77 19.11 19.11 0 0 0 13.84 5.45c6.49 0 11.56-2 15.09-5.84l.18-.2v-16.5h-15.66v6.68h8.17v6.76a15.19 15.19 0 0 1 -7.85 1.9 11.38 11.38 0 0 1 -11.61-12 11.57 11.57 0 0 1 3.48-8.75 12.14 12.14 0 0 1 8.7-3.3 15.33 15.33 0 0 1 4.74.66 12 12 0 0 1 3.81 2.2l4.38-5.53c-2.31-2-6.47-4.71-13.4-4.71a19.06 19.06 0 0 0 -13.77 5.53zm-29.42 17.6h15.5v-7h-15.5v-7.6h19.28v-7h-27.15v36h27.41v-7h-19.54z" fill="#1f2555"/></g></svg>