<svg viewBox="0 0 801.3 67.01" xmlns="http://www.w3.org/2000/svg"><path d="m78.4 9.81a45.15 45.15 0 0 0 -.7 18.3c-1.6-.3-3.2-.6-4.9-.9-35.1-5.7-45.6 11.6-41.5 25.6a238.21 238.21 0 0 0 -31.3 14.19c13.8-33 43.7-62 68.9-65.79 8.3-1.1 10.6 4.2 9.5 8.6zm73.8 26.5s-1.5 2.7-2.2 3.8-2.8 1.7-4.7.8c-.9-.4-8.8-5.1-11.9-4.8-15.4 1.3-19.6-5-20.1-5.6s-1.4-.3-.8.8c3.4 5.8 13.4 8.5 13.4 8.5a36.14 36.14 0 0 1 2.9 10.7 51.3 51.3 0 0 0 -8.4-5.2 116 116 0 0 0 -37.4-16c1-13.6 7.8-33.31 39.9-28.6 0 0 6.4 1 10.7 4 0 0-1 1.1-2.4 2.4a1.28 1.28 0 0 0 -.3 1.8 1 1 0 0 0 .5.4l6.8 5.3c.1 2.8.2 3.6 2.3 6.2s10.4 11.2 11.4 12.3a3.09 3.09 0 0 1 .3 3.2zm-16.1-19.31-.2-.1a3.55 3.55 0 0 0 -3.9.8l-.2.2 3.5 1.7z" fill="#1f2555"/><path d="m81.3 40.11c-15.3 1.5-33.4 6.4-50.1 12.7-4.1-14 6.5-31.3 41.5-25.6 1.7.3 3.3.6 4.9.9a69.55 69.55 0 0 0 3.7 12zm2-.1c13.7-1.1 26.6.3 37.2 5.4a117.69 117.69 0 0 0 -37.5-16.1 54.93 54.93 0 0 0 .3 10.69z" fill="#00a6a7"/><g fill="#1f2555"><path d="m210.1 35.51h15.5v-7h-15.5v-7.6h19.3v-7h-27.1v36h27.4v-7h-19.5zm29.5-17.6a19 19 0 0 0 -5.7 13.9 18.8 18.8 0 0 0 19.4 19.19c6.5 0 11.6-2 15.1-5.8l.2-.2v-16.59h-15.7v6.7h8.2v6.8a15.4 15.4 0 0 1 -7.9 1.9 11.31 11.31 0 0 1 -11.6-11.1v-.9a11.61 11.61 0 0 1 3.5-8.8 12.15 12.15 0 0 1 8.7-3.3 14.87 14.87 0 0 1 4.7.7 11.13 11.13 0 0 1 3.8 2.2l4.4-5.5a19.66 19.66 0 0 0 -13.4-4.7 18.94 18.94 0 0 0 -13.7 5.5zm-56.9-4h-14.7v36h7.9v-10.8h6c8.1 0 14.6-4.3 14.6-12.6v-.1c0-7.4-5.2-12.5-13.8-12.5zm5.7 12.7c0 3.1-2.3 5.5-6.3 5.5h-6.3v-11.11h6.1c4.1 0 6.5 1.9 6.5 5.6zm99.2-12.7-15.3 36h8l3.3-8h15.1l3.3 8h8.2l-15.3-36zm-1.2 21 4.8-11.6 4.8 11.6z"/><path d="m345.1 17.91a11.24 11.24 0 0 0 -9.1 3.9c-2.2 2.6-3.4 6.1-3.4 10.6s1.1 8.1 3.2 10.7 5.2 3.8 9.2 3.8a30.77 30.77 0 0 0 8.4-1.3v3.39a25.77 25.77 0 0 1 -9 1.4c-5.2 0-9.2-1.6-12-4.7s-4.2-7.6-4.2-13.4a21.78 21.78 0 0 1 2-9.5 15 15 0 0 1 5.9-6.3 17.66 17.66 0 0 1 9-2.2 22.7 22.7 0 0 1 9.7 2l-1.7 3.5a17.73 17.73 0 0 0 -8-1.89z"/><path d="m383.3 36.71c0 4.3-1.1 7.6-3.2 10.1s-5.2 3.6-9 3.6a12.12 12.12 0 0 1 -6.3-1.7 11 11 0 0 1 -4.2-4.8 16.7 16.7 0 0 1 -1.5-7.3c0-4.3 1.1-7.6 3.2-10s5.1-3.6 8.9-3.6a11.06 11.06 0 0 1 8.8 3.7c2.2 2.5 3.3 5.8 3.3 10zm-20.1 0c0 3.4.7 5.9 2 7.7s3.3 2.6 5.9 2.6a7 7 0 0 0 5.9-2.6c1.3-1.7 2-4.3 2-7.7s-.7-5.9-2-7.6a7.23 7.23 0 0 0 -6-2.6 7 7 0 0 0 -5.9 2.6c-1.2 1.6-1.9 4.2-1.9 7.6z"/><path d="m394.3 49.91h-4v-37.4h4z"/><path d="m406.7 49.91h-4v-37.4h4z"/><path d="m431.4 49.91-.8-3.7h-.2a11.87 11.87 0 0 1 -3.9 3.4 11.59 11.59 0 0 1 -4.9.9 8.78 8.78 0 0 1 -6.1-2 7.24 7.24 0 0 1 -2.2-5.7c0-5.3 4.3-8.1 12.8-8.4l4.5-.1v-1.6c0-2.1-.4-3.6-1.3-4.6a5.47 5.47 0 0 0 -4.3-1.5 17.52 17.52 0 0 0 -7.4 2l-1.2-3.1a18.37 18.37 0 0 1 4.3-1.7 18.76 18.76 0 0 1 4.6-.6c3.1 0 5.5.7 7 2.1s2.3 3.6 2.3 6.7v17.99h-3.2zm-9.1-2.8a8.59 8.59 0 0 0 5.9-2 7.7 7.7 0 0 0 2.1-5.7v-2.41l-4 .2q-4.8.15-6.9 1.5a4.47 4.47 0 0 0 -2.1 4.1 4.16 4.16 0 0 0 1.3 3.3 5.42 5.42 0 0 0 3.7 1.01z"/><path d="m454.8 23.11a10.08 10.08 0 0 1 8.1 3.5c1.9 2.4 2.9 5.7 2.9 10s-1 7.7-2.9 10.1a9.67 9.67 0 0 1 -8 3.6 11.93 11.93 0 0 1 -4.7-.9 9.09 9.09 0 0 1 -3.6-2.9h-.3l-.8 3.4h-2.9v-37.4h4v9.1c0 2-.1 3.9-.2 5.5h.2c1.8-2.7 4.5-4 8.2-4zm-.6 3.4c-2.7 0-4.7.8-5.9 2.3s-1.8 4.2-1.8 7.9.6 6.3 1.8 7.9 3.2 2.4 5.9 2.4a6.12 6.12 0 0 0 5.5-2.7c1.2-1.8 1.8-4.4 1.8-7.7s-.6-6-1.8-7.7-3-2.4-5.5-2.4z"/><path d="m495.4 36.71c0 4.3-1.1 7.6-3.2 10.1a11.6 11.6 0 0 1 -9 3.6 12.12 12.12 0 0 1 -6.3-1.7 11 11 0 0 1 -4.2-4.8 16.7 16.7 0 0 1 -1.5-7.3c0-4.3 1.1-7.6 3.2-10s5.1-3.6 8.9-3.6a11.06 11.06 0 0 1 8.8 3.7c2.2 2.5 3.3 5.8 3.3 10zm-20 0c0 3.4.7 5.9 2 7.7s3.3 2.6 5.9 2.6a7 7 0 0 0 5.9-2.6c1.4-1.8 2-4.3 2-7.7s-.7-5.9-2-7.6a7.36 7.36 0 0 0 -6-2.6 7 7 0 0 0 -5.9 2.6c-1.3 1.6-1.9 4.2-1.9 7.6z"/><path d="m514.4 23.11a14.16 14.16 0 0 1 3.1.3l-.6 3.7a18.08 18.08 0 0 0 -2.9-.4 7.21 7.21 0 0 0 -5.5 2.6 9.55 9.55 0 0 0 -2.3 6.5v14.1h-4v-26.4h3.3l.5 4.9h.2a13.81 13.81 0 0 1 3.5-4 9.29 9.29 0 0 1 4.7-1.3z"/><path d="m538.7 49.91-.8-3.7h-.2a11.87 11.87 0 0 1 -3.9 3.4 11.59 11.59 0 0 1 -4.9.9 8.78 8.78 0 0 1 -6.1-2 7.24 7.24 0 0 1 -2.2-5.7c0-5.3 4.3-8.1 12.8-8.4l4.5-.1v-1.6c0-2.1-.4-3.6-1.3-4.6a5.47 5.47 0 0 0 -4.3-1.5 17.52 17.52 0 0 0 -7.4 2l-1.2-3.1a18.37 18.37 0 0 1 4.3-1.7 18.16 18.16 0 0 1 4.6-.6c3.1 0 5.5.7 7 2.1s2.3 3.6 2.3 6.7v17.99h-3.2zm-9-2.8a8.59 8.59 0 0 0 5.9-2 7.7 7.7 0 0 0 2.1-5.7v-2.41l-4 .2q-4.8.15-6.9 1.5a4.47 4.47 0 0 0 -2.1 4.1 4.16 4.16 0 0 0 1.3 3.3 5.27 5.27 0 0 0 3.7 1.01z"/><path d="m558.4 47.11a12.31 12.31 0 0 0 2-.2 15.69 15.69 0 0 0 1.6-.3v3.1a6.4 6.4 0 0 1 -1.9.5 19.53 19.53 0 0 1 -2.3.2c-5.1 0-7.6-2.7-7.6-8v-15.8h-3.8v-1.9l3.8-1.7 1.7-5.6h2.3v6.1h7.6v3.1h-7.6v15.5a5.82 5.82 0 0 0 1.1 3.7 4.06 4.06 0 0 0 3.1 1.3z"/><path d="m566.9 16.41a2.44 2.44 0 0 1 .7-2 2.52 2.52 0 0 1 1.7-.6 2.72 2.72 0 0 1 1.7.6 2.44 2.44 0 0 1 .7 2 2.44 2.44 0 0 1 -.7 2 2.61 2.61 0 0 1 -1.7.7 2.19 2.19 0 0 1 -1.7-.7 2.58 2.58 0 0 1 -.7-2zm4.3 33.5h-4v-26.4h4z"/><path d="m602.4 36.71c0 4.3-1.1 7.6-3.2 10.1a11.6 11.6 0 0 1 -9 3.6 12.12 12.12 0 0 1 -6.3-1.7 11 11 0 0 1 -4.2-4.8 16.7 16.7 0 0 1 -1.5-7.3c0-4.3 1.1-7.6 3.2-10s5.1-3.6 8.9-3.6a11.06 11.06 0 0 1 8.8 3.7c2.2 2.5 3.3 5.8 3.3 10zm-20 0c0 3.4.7 5.9 2 7.7s3.3 2.6 5.9 2.6a7 7 0 0 0 5.9-2.6c1.4-1.8 2-4.3 2-7.7s-.7-5.9-2-7.6a7.36 7.36 0 0 0 -6-2.6 7 7 0 0 0 -5.9 2.6c-1.3 1.6-1.9 4.2-1.9 7.6z"/><path d="m627.4 49.91v-17a6.9 6.9 0 0 0 -1.5-4.8c-1-1.1-2.5-1.6-4.6-1.6-2.8 0-4.8.7-6.1 2.2s-1.9 3.9-1.9 7.4v13.8h-4v-26.4h3.2l.6 3.6h.2a8.25 8.25 0 0 1 3.4-3 11.36 11.36 0 0 1 4.9-1.1c3.2 0 5.6.8 7.2 2.3s2.4 4 2.4 7.3v17.2h-3.8z"/><path d="m668 17.91a11.24 11.24 0 0 0 -9.1 3.9c-2.2 2.6-3.4 6.1-3.4 10.6s1.1 8.1 3.2 10.7 5.2 3.8 9.2 3.8a30.77 30.77 0 0 0 8.4-1.3v3.39a25.77 25.77 0 0 1 -9 1.4c-5.2 0-9.2-1.6-12-4.7s-4.2-7.6-4.2-13.4a21.78 21.78 0 0 1 2-9.5 15 15 0 0 1 5.9-6.3 17.66 17.66 0 0 1 9-2.2 22.7 22.7 0 0 1 9.7 2l-1.7 3.5a17.73 17.73 0 0 0 -8-1.89z"/><path d="m694.6 50.41c-3.9 0-7-1.2-9.2-3.6s-3.4-5.7-3.4-9.9 1-7.6 3.1-10.1a10.38 10.38 0 0 1 8.4-3.7 9.77 9.77 0 0 1 7.8 3.3 12.6 12.6 0 0 1 2.9 8.6v2.5h-18.1c.1 3.1.9 5.4 2.3 7a8.21 8.21 0 0 0 6.3 2.4 21.18 21.18 0 0 0 8.4-1.8v3.6a23.2 23.2 0 0 1 -4 1.3 20.34 20.34 0 0 1 -4.5.4zm-1.1-24a6.64 6.64 0 0 0 -5.1 2.1 9.2 9.2 0 0 0 -2.2 5.7h13.8a9.1 9.1 0 0 0 -1.7-5.8 6 6 0 0 0 -4.8-2z"/><path d="m729.1 49.91v-17a6.9 6.9 0 0 0 -1.5-4.8c-1-1.1-2.5-1.6-4.6-1.6-2.8 0-4.8.7-6.1 2.2s-1.9 3.9-1.9 7.4v13.8h-4v-26.4h3.2l.6 3.6h.2a8.25 8.25 0 0 1 3.4-3 11.36 11.36 0 0 1 4.9-1.1c3.2 0 5.6.8 7.2 2.3s2.4 4 2.4 7.3v17.2h-3.8z"/><path d="m749.8 47.11a12.31 12.31 0 0 0 2-.2 15.69 15.69 0 0 0 1.6-.3v3.1a6.4 6.4 0 0 1 -1.9.5 19.53 19.53 0 0 1 -2.3.2c-5.1 0-7.6-2.7-7.6-8v-15.8h-3.8v-1.9l3.8-1.7 1.7-5.6h2.3v6.1h7.6v3.1h-7.6v15.5a5.82 5.82 0 0 0 1.1 3.7 3.91 3.91 0 0 0 3.1 1.3z"/><path d="m769.7 50.41c-3.9 0-7-1.2-9.2-3.6s-3.4-5.7-3.4-9.9 1-7.6 3.1-10.1a10.38 10.38 0 0 1 8.4-3.7 9.77 9.77 0 0 1 7.8 3.3 12.6 12.6 0 0 1 2.9 8.6v2.5h-18.1c.1 3.1.9 5.4 2.3 7a8.21 8.21 0 0 0 6.3 2.4 21.18 21.18 0 0 0 8.4-1.8v3.6a23.2 23.2 0 0 1 -4 1.3 19.77 19.77 0 0 1 -4.5.4zm-1-24a6.64 6.64 0 0 0 -5.1 2.1 9.2 9.2 0 0 0 -2.2 5.7h13.8a9.1 9.1 0 0 0 -1.7-5.8 6.11 6.11 0 0 0 -4.8-2z"/><path d="m798.2 23.11a14.16 14.16 0 0 1 3.1.3l-.6 3.7a18.08 18.08 0 0 0 -2.9-.4 7.21 7.21 0 0 0 -5.5 2.6 9.55 9.55 0 0 0 -2.3 6.5v14.1h-4v-26.4h3.3l.5 4.9h.2a13.81 13.81 0 0 1 3.5-4 9.29 9.29 0 0 1 4.7-1.3z"/></g></svg>