<svg id="bd3d65c7-aa58-4ed5-884d-e514f4d5f8d9" data-name="Layer 1" xmlns="http://www.w3.org/2000/svg" xmlns:xlink="http://www.w3.org/1999/xlink" viewBox="0 0 589.58 67.05"><defs><mask id="b498c061-0c1d-40c3-af98-76caaee17ae7" x="0" y="0" width="152.53" height="67.05" maskUnits="userSpaceOnUse"><g transform="translate(0 0)"><g id="fa738eed-a242-403c-8004-10ff03b959d2" data-name="mask-2"><polygon id="a66b701f-f193-42ca-8932-13883a3dbc80" data-name="path-1" points="0 0 152.53 0 152.53 67.05 0 67.05 0 0" fill="#fff" fill-rule="evenodd"/></g></g></mask></defs><g id="eac90feb-611c-41a6-94ca-92b7de1d5651" data-name="Pega-Community"><g id="f6e73629-86a7-4e4e-a41f-9e3a4b1e3e28" data-name="Page-1"><g id="a5db32de-639f-4fdc-ba2b-b9e88795dbfb" data-name="Group-3"><g mask="url(#b498c061-0c1d-40c3-af98-76caaee17ae7)"><path id="bf38b424-c21f-43fe-91e3-6374aec502f9" data-name="Fill-1" d="M136.15,17,136,16.9a3.55,3.55,0,0,0-3.93.8l-.22.24,3.51,1.72Zm16.08,19.29S150.7,39,150,40s-2.84,1.66-4.71.77c-.85-.41-8.82-5.06-11.87-4.79-15.44,1.35-19.65-5-20.14-5.59s-1.43-.31-.76.82c3.38,5.81,13.41,8.5,13.41,8.5a38.07,38.07,0,0,1,2.93,10.75,45.26,45.26,0,0,0-8.37-5.15A116.37,116.37,0,0,0,83,29.27C84,15.69,90.83-3.95,122.88.7c0,0,6.43,1.05,10.71,4,0,0-1,1.08-2.38,2.44a1.29,1.29,0,0,0,.14,2.21l6.77,5.32c.08,2.82.2,3.6,2.32,6.15S150.79,32,151.87,33.15A2.94,2.94,0,0,1,152.23,36.28ZM78.42,9.8a45,45,0,0,0-.7,18.31c-1.6-.32-3.24-.63-4.92-.9C37.73,21.5,27.15,38.79,31.24,52.8A235,235,0,0,0,0,67.05C13.77,34,43.68,5,68.93,1.16,77.18.07,79.49,5.42,78.42,9.8Z" transform="translate(0 0)" fill="#1f2555" fill-rule="evenodd"/></g></g><path id="b05145c6-9a5b-412e-a629-2207070a5c3a" data-name="Fill-4" d="M83.28,40c13.66-1.08,26.56.29,37.22,5.36A116.37,116.37,0,0,0,83,29.27,54.81,54.81,0,0,0,83.28,40m-2,.17C66,41.61,47.89,46.55,31.24,52.81c-4.09-14,6.49-31.31,41.56-25.6,1.68.27,3.32.58,4.92.9a56.09,56.09,0,0,0,3.58,12" transform="translate(0 0)" fill="#00a6a7" fill-rule="evenodd"/><path id="fd51c184-7ef9-483e-b811-b7d52824afbd" data-name="Fill-6" d="M286.42,34.93l4.74-11.59,4.75,11.59Zm1.22-21-15.32,36h8l3.26-8h15.12l3.27,8h8.22l-15.32-36Zm-99.21,12.7c0,3.09-2.31,5.45-6.27,5.45h-6.27V21H182c4,0,6.42,1.9,6.42,5.45Zm-5.76-12.7H168v36h7.92V39.09h6c8.08,0,14.56-4.32,14.56-12.65v-.11C196.46,19,191.27,13.89,182.67,13.89Zm56.88,4a18.66,18.66,0,0,0-5.69,13.88,18.5,18.5,0,0,0,5.59,13.77A19.09,19.09,0,0,0,253.29,51c6.49,0,11.56-2,15.08-5.84l.18-.2V28.45H252.9v6.68h8.16v6.75a15.14,15.14,0,0,1-7.85,1.9,11.4,11.4,0,0,1-11.61-12,11.57,11.57,0,0,1,3.49-8.75,12.12,12.12,0,0,1,8.66-3.33,15.44,15.44,0,0,1,4.75.66,11.86,11.86,0,0,1,3.8,2.2l4.38-5.53c-2.31-2-6.47-4.71-13.39-4.71A19,19,0,0,0,239.55,17.91ZM210.12,35.49h15.51v-7H210.12V20.93h19.29v-7H202.25v36h27.41v-7H210.12Z" transform="translate(0 0)" fill="#1f2555" fill-rule="evenodd"/><path id="b083901f-9eeb-4d21-8f8f-2a75fa0444fe" data-name="Community" d="M346.19,17.5a11.68,11.68,0,0,0-9.29,3.92q-3.4,3.93-3.4,10.73,0,7,3.28,10.83t9.36,3.82a32.16,32.16,0,0,0,8.52-1.34V49.1a26.37,26.37,0,0,1-9.15,1.39q-7.89,0-12.17-4.79t-4.29-13.6a21.5,21.5,0,0,1,2.06-9.66,14.89,14.89,0,0,1,6-6.4,18,18,0,0,1,9.17-2.25,22.21,22.21,0,0,1,9.81,2.05l-1.75,3.57A19,19,0,0,0,346.19,17.5Zm37.75,19.1q0,6.54-3.3,10.21t-9.11,3.68a12,12,0,0,1-6.37-1.69,11.13,11.13,0,0,1-4.3-4.83,17,17,0,0,1-1.51-7.37c0-4.37,1.09-7.76,3.27-10.2s5.21-3.65,9.08-3.65a11.33,11.33,0,0,1,8.93,3.74Q383.93,30.23,383.94,36.6Zm-20.39,0c0,3.41.68,6,2.05,7.81a8.15,8.15,0,0,0,12.07,0q2.07-2.67,2.07-7.82t-2.07-7.75a7.22,7.22,0,0,0-6.09-2.65,7.13,7.13,0,0,0-6,2.61Q363.56,31.42,363.55,36.6ZM424.15,50V32.59a7.2,7.2,0,0,0-1.37-4.79,5.28,5.28,0,0,0-4.25-1.6c-2.52,0-4.39.72-5.59,2.17s-1.81,3.68-1.81,6.69V50h-4.05V32.59a7.15,7.15,0,0,0-1.37-4.79,5.3,5.3,0,0,0-4.27-1.6q-3.81,0-5.58,2.28c-1.18,1.52-1.77,4-1.77,7.48V50h-4V23.24h3.3L394,26.9h.19a8,8,0,0,1,3.24-3,9.9,9.9,0,0,1,4.67-1.1q6.27,0,8.2,4.54h.2A8.62,8.62,0,0,1,414,24a10.76,10.76,0,0,1,5.17-1.22q4.55,0,6.8,2.34c1.51,1.55,2.26,4,2.26,7.45V50Zm45.51,0V32.59a7.2,7.2,0,0,0-1.37-4.79A5.28,5.28,0,0,0,464,26.2c-2.52,0-4.39.72-5.59,2.17s-1.81,3.68-1.81,6.69V50h-4.05V32.59a7.2,7.2,0,0,0-1.37-4.79A5.3,5.3,0,0,0,447,26.2q-3.81,0-5.58,2.28c-1.18,1.52-1.77,4-1.77,7.48V50h-4.05V23.24h3.29l.66,3.66h.2a7.92,7.92,0,0,1,3.23-3,9.94,9.94,0,0,1,4.68-1.1q6.27,0,8.2,4.54h.2A8.66,8.66,0,0,1,459.47,24a10.83,10.83,0,0,1,5.18-1.22c3,0,5.29.78,6.8,2.34s2.26,4,2.26,7.45V50Zm15.21-26.76V40.6a6.94,6.94,0,0,0,1.49,4.88A6,6,0,0,0,491,47.09c2.8,0,4.84-.76,6.14-2.29s1.94-4,1.94-7.5V23.24h4V50h-3.34l-.59-3.59H499a8.08,8.08,0,0,1-3.45,3,11.65,11.65,0,0,1-5,1.05q-4.89,0-7.32-2.32t-2.43-7.42V23.24ZM529.06,50V32.69a7,7,0,0,0-1.49-4.88,6.07,6.07,0,0,0-4.67-1.61c-2.8,0-4.85.75-6.15,2.27s-2,4-2,7.49V50h-4V23.24H514l.66,3.66h.2a8.27,8.27,0,0,1,3.49-3.06,11.39,11.39,0,0,1,5-1.09c3.23,0,5.65.78,7.28,2.34s2.44,4,2.44,7.45V50Zm15.43,0h-4.06V23.24h4.06Zm-4.4-34a2.68,2.68,0,0,1,.69-2,2.37,2.37,0,0,1,1.71-.64,2.41,2.41,0,0,1,1.68.65,2.66,2.66,0,0,1,.71,2,2.7,2.7,0,0,1-.71,2,2.34,2.34,0,0,1-1.68.67,2.31,2.31,0,0,1-1.71-.67A2.74,2.74,0,0,1,540.09,16Zm20.63,31.15A12.8,12.8,0,0,0,562.8,47a13.28,13.28,0,0,0,1.59-.32v3.1a7.59,7.59,0,0,1-1.95.52,14.32,14.32,0,0,1-2.3.21q-7.77,0-7.77-8.18V26.39h-3.83V24.44l3.83-1.69L554.08,17h2.35v6.2h7.76v3.15h-7.76V42.14a5.44,5.44,0,0,0,1.14,3.71A4,4,0,0,0,560.72,47.14Zm3.76-23.9h4.35l5.86,15.26A57.52,57.52,0,0,1,577.08,46h.2c.21-.83.65-2.25,1.33-4.26s2.88-8.19,6.63-18.54h4.34l-11.5,30.47a15.23,15.23,0,0,1-4,6.41,8.49,8.49,0,0,1-5.6,1.89,16.63,16.63,0,0,1-3.66-.41V58.35a14.4,14.4,0,0,0,3,.29q4.17,0,6-4.68l1.49-3.81Z" transform="translate(0 0)" fill="#1f2555" fill-rule="evenodd"/></g></g></svg>