<svg enable-background="new 0 0 686.5 67" viewBox="0 0 686.5 67" xmlns="http://www.w3.org/2000/svg"><path d="m78.4 9.8c-1.5 6-1.7 12.2-.7 18.3-1.6-.3-3.2-.6-4.9-.9-35.1-5.7-45.6 11.6-41.5 25.6-10.8 4-21.2 8.7-31.3 14.2 13.8-33 43.7-62 68.9-65.8 8.3-1.1 10.6 4.2 9.5 8.6zm73.8 26.5s-1.5 2.7-2.2 3.8-2.8 1.7-4.7.8c-.9-.4-8.8-5.1-11.9-4.8-15.4 1.3-19.6-5-20.1-5.6s-1.4-.3-.8.8c3.4 5.8 13.4 8.5 13.4 8.5 1.5 3.4 2.5 7 2.9 10.7-2.6-2-5.4-3.7-8.4-5.2-11.4-7.5-24.1-12.9-37.4-16 1-13.6 7.8-33.3 39.9-28.6 0 0 6.4 1 10.7 4 0 0-1 1.1-2.4 2.4-.6.4-.7 1.2-.3 1.8.1.2.3.3.5.4l6.8 5.3c.1 2.8.2 3.6 2.3 6.2s10.4 11.2 11.4 12.3c.7.9.8 2.2.3 3.2zm-16.1-19.3-.2-.1c-1.3-.6-2.9-.2-3.9.8l-.2.2 3.5 1.7z" fill="#fff"/><path d="m81.3 40.1c-15.3 1.5-33.4 6.4-50.1 12.7-4.1-14 6.5-31.3 41.5-25.6 1.7.3 3.3.6 4.9.9.9 4.1 2.1 8.2 3.7 12zm2-.1c13.7-1.1 26.6.3 37.2 5.4-11.5-7.5-24.2-13-37.5-16.1-.2 3.5-.2 7.1.3 10.7z" fill="#00a6a7"/><g fill="#fff"><path d="m210.1 35.5h15.5v-7h-15.5v-7.6h19.3v-7h-27.1v36h27.4v-7h-19.5zm29.5-17.6c-3.7 3.6-5.8 8.7-5.7 13.9-.1 5.2 1.9 10.2 5.6 13.8s8.7 5.6 13.8 5.4c6.5 0 11.6-2 15.1-5.8l.2-.2v-16.6h-15.7v6.7h8.2v6.8c-2.4 1.3-5.1 2-7.9 1.9-6.3.1-11.5-4.8-11.6-11.1 0-.3 0-.6 0-.9-.1-3.3 1.1-6.5 3.5-8.8 2.3-2.2 5.5-3.4 8.7-3.3 1.6 0 3.2.2 4.7.7 1.4.5 2.7 1.2 3.8 2.2l4.4-5.5c-2.3-2-6.5-4.7-13.4-4.7-5.1-.1-10.1 1.9-13.7 5.5zm-56.9-4h-14.7v36h7.9v-10.8h6c8.1 0 14.6-4.3 14.6-12.6v-.1c0-7.4-5.2-12.5-13.8-12.5zm5.7 12.7c0 3.1-2.3 5.5-6.3 5.5h-6.3v-11.1h6.1c4.1 0 6.5 1.9 6.5 5.6zm99.2-12.7-15.3 36h8l3.3-8h15.1l3.3 8h8.2l-15.3-36zm-1.2 21 4.8-11.6 4.8 11.6z"/><path d="m359.7 31.2c0 6.1-1.6 10.7-4.9 13.9s-8 4.8-14.2 4.8h-10.2v-36.7h11.3c5.7 0 10.2 1.6 13.3 4.8 3.1 3.1 4.7 7.5 4.7 13.2zm-4.6.2c0-4.8-1.2-8.4-3.6-10.9s-6-3.7-10.7-3.7h-6.2v29.4h5.2c5.1 0 8.9-1.3 11.5-3.8 2.5-2.4 3.8-6.1 3.8-11z"/><path d="m390.3 36.2c0 4.5-1.1 8-3.4 10.5s-5.4 3.8-9.4 3.8c-2.5 0-4.7-.6-6.6-1.7-1.9-1.2-3.4-2.8-4.4-5s-1.6-4.7-1.6-7.6c0-4.5 1.1-8 3.4-10.5 2.2-2.5 5.4-3.8 9.4-3.8 3.9 0 6.9 1.3 9.2 3.9s3.4 6 3.4 10.4zm-21 0c0 3.5.7 6.2 2.1 8.1 1.4 1.8 3.5 2.8 6.2 2.8s4.8-.9 6.2-2.8c1.4-1.8 2.1-4.5 2.1-8.1 0-3.5-.7-6.2-2.1-8s-3.5-2.7-6.3-2.7c-2.7 0-4.8.9-6.2 2.7s-2 4.4-2 8z"/><path d="m407.9 50.5c-4 0-7.1-1.2-9.3-3.7s-3.3-5.9-3.3-10.4c0-4.6 1.1-8.2 3.3-10.7s5.4-3.8 9.5-3.8c1.3 0 2.7.1 4 .4s2.4.6 3.1 1l-1.3 3.6c-.9-.4-1.9-.7-3-.9s-2.1-.4-2.9-.4c-5.6 0-8.4 3.6-8.4 10.7 0 3.4.7 6 2.1 7.8s3.4 2.7 6.1 2.7c2.3 0 4.7-.5 7.1-1.5v3.7c-1.8 1-4.2 1.5-7 1.5z"/><path d="m424.6 22.4v17.9c0 2.2.5 3.9 1.5 5s2.6 1.7 4.8 1.7c2.9 0 5-.8 6.3-2.4s2-4.2 2-7.7v-14.5h4.2v27.6h-3.4l-.6-3.7h-.2c-.9 1.4-2 2.4-3.6 3.1s-3.3 1.1-5.2 1.1c-3.4 0-5.9-.8-7.5-2.4-1.7-1.6-2.5-4.1-2.5-7.7v-18z"/><path d="m486.4 50v-18c0-2.2-.5-3.8-1.4-4.9s-2.4-1.6-4.4-1.6c-2.6 0-4.5.7-5.8 2.2-1.2 1.5-1.9 3.8-1.9 6.9v15.4h-4.2v-18c0-2.2-.5-3.8-1.4-4.9s-2.4-1.6-4.4-1.6c-2.6 0-4.5.8-5.8 2.4-1.2 1.6-1.8 4.1-1.8 7.7v14.4h-4.2v-27.6h3.4l.7 3.8h.2c.8-1.3 1.9-2.4 3.3-3.1 1.4-.8 3-1.1 4.8-1.1 4.3 0 7.1 1.6 8.5 4.7h.2c.8-1.4 2-2.6 3.6-3.4s3.3-1.3 5.3-1.3c3.1 0 5.5.8 7 2.4 1.6 1.6 2.3 4.2 2.3 7.7v18z"/><path d="m509.9 50.5c-4.1 0-7.3-1.2-9.7-3.7s-3.5-5.9-3.5-10.4c0-4.4 1.1-8 3.3-10.6s5.1-3.9 8.8-3.9c3.5 0 6.2 1.1 8.2 3.4s3 5.3 3 9v2.7h-19c.1 3.2.9 5.7 2.5 7.4s3.7 2.5 6.6 2.5c3 0 5.9-.6 8.8-1.9v3.7c-1.5.6-2.9 1.1-4.2 1.4s-2.9.4-4.8.4zm-1.1-25.1c-2.2 0-4 .7-5.3 2.2-1.3 1.4-2.1 3.4-2.3 6h14.4c0-2.6-.6-4.7-1.8-6.1-1.1-1.4-2.8-2.1-5-2.1z"/><path d="m545.2 50v-17.9c0-2.2-.5-3.9-1.5-5s-2.6-1.7-4.8-1.7c-2.9 0-5 .8-6.3 2.3-1.3 1.6-2 4.1-2 7.7v14.6h-4.2v-27.6h3.4l.7 3.8h.2c.9-1.4 2.1-2.4 3.6-3.2 1.5-.7 3.3-1.1 5.2-1.1 3.3 0 5.8.8 7.5 2.4s2.5 4.2 2.5 7.7v18z"/><path d="m566 47.1c.7 0 1.5-.1 2.1-.2s1.2-.2 1.6-.3v3.2c-.5.2-1.1.4-2 .5s-1.7.2-2.4.2c-5.3 0-8-2.8-8-8.4v-16.5h-4v-2l4-1.7 1.8-5.9h2.4v6.4h8v3.2h-8v16.2c0 1.7.4 2.9 1.2 3.8.9 1 2 1.5 3.3 1.5z"/><path d="m592.5 50-.8-3.9h-.2c-1.4 1.7-2.8 2.9-4.1 3.5-1.4.6-3.1.9-5.1.9-2.7 0-4.9-.7-6.4-2.1-1.6-1.4-2.3-3.4-2.3-6 0-5.6 4.5-8.5 13.4-8.8l4.7-.2v-1.7c0-2.2-.5-3.8-1.4-4.8s-2.4-1.5-4.5-1.5c-2.3 0-4.9.7-7.8 2.1l-1.3-3.2c1.4-.7 2.9-1.3 4.5-1.7s3.2-.6 4.9-.6c3.3 0 5.7.7 7.3 2.2s2.4 3.8 2.4 7v18.8zm-9.4-2.9c2.6 0 4.6-.7 6.1-2.1s2.2-3.4 2.2-6v-2.5l-4.2.2c-3.3.1-5.7.6-7.2 1.5s-2.2 2.3-2.2 4.3c0 1.5.5 2.7 1.4 3.5s2.2 1.1 3.9 1.1z"/><path d="m612.4 47.1c.7 0 1.5-.1 2.1-.2s1.2-.2 1.6-.3v3.2c-.5.2-1.1.4-2 .5s-1.7.2-2.4.2c-5.3 0-8-2.8-8-8.4v-16.5h-4v-2l4-1.7 1.8-5.9h2.4v6.4h8v3.2h-8v16.2c0 1.7.4 2.9 1.2 3.8.8 1 1.9 1.5 3.3 1.5z"/><path d="m620.8 14.9c0-1 .2-1.7.7-2.1s1.1-.7 1.8-.7 1.3.2 1.7.7c.5.5.7 1.2.7 2.1s-.2 1.6-.7 2.1-1.1.7-1.7.7c-.7 0-1.3-.2-1.8-.7-.5-.4-.7-1.1-.7-2.1zm4.5 35.1h-4.2v-27.6h4.2z"/><path d="m656.9 36.2c0 4.5-1.1 8-3.4 10.5s-5.4 3.8-9.4 3.8c-2.5 0-4.7-.6-6.6-1.7-1.9-1.2-3.4-2.8-4.4-5s-1.6-4.7-1.6-7.6c0-4.5 1.1-8 3.4-10.5 2.2-2.5 5.4-3.8 9.4-3.8 3.9 0 6.9 1.3 9.2 3.9s3.4 6 3.4 10.4zm-21 0c0 3.5.7 6.2 2.1 8.1 1.4 1.8 3.5 2.8 6.2 2.8s4.8-.9 6.2-2.8c1.4-1.8 2.1-4.5 2.1-8.1 0-3.5-.7-6.2-2.1-8s-3.5-2.7-6.3-2.7c-2.7 0-4.8.9-6.2 2.7s-2 4.4-2 8z"/><path d="m682.2 50v-17.9c0-2.2-.5-3.9-1.5-5s-2.6-1.7-4.8-1.7c-2.9 0-5 .8-6.3 2.3-1.3 1.6-2 4.1-2 7.7v14.6h-4.2v-27.6h3.4l.7 3.8h.2c.9-1.4 2.1-2.4 3.6-3.2 1.5-.7 3.3-1.1 5.2-1.1 3.3 0 5.8.8 7.5 2.4s2.5 4.2 2.5 7.7v18z"/></g></svg>