<svg enable-background="new 0 0 250 250" viewBox="0 0 250 250" xmlns="http://www.w3.org/2000/svg"><g fill="#3e67bb"><path d="m60.9 54.8c.5-7.4-2.4-14.7-7.8-19.8-6.4-4.9-14.5-7.3-22.6-6.7-8.1-.7-16.2 1.6-22.6 6.6-5.4 5.2-8.3 12.4-7.9 19.9-.8 11.9 7.4 22.6 19.1 25h-11.1c-3.8 0-6.8 3-6.9 6.7v.2 128.3c0 3.8 3 6.8 6.7 6.9h.2 44.4c3.8 0 6.9-3 7-6.8v-.1-128.2c0-3.8-3.1-6.9-6.9-6.9h-.1-10c11.5-2.6 19.4-13.3 18.5-25.1zm-15.6 152.9h-30.2v-114h30.3v114zm-15-140.5c-15 .2-16.3-6.2-16.3-12.4-.4-3.5.8-7 3.2-9.6 3.9-2.5 8.6-3.7 13.3-3.1 4.7-.5 9.5.7 13.4 3.3 2.4 2.5 3.5 6 3.1 9.5 0 6.2-1.2 12.7-16.6 12.7z"/><path d="m243 42.7h-39.9c-3.8 0-7 3.1-7 7v74.7 10.5l-46-88.5c-1.2-2.3-3.5-3.7-6.1-3.7h-58c-3.8 0-6.9 3.1-6.9 6.9v.1 165.3c0 3.8 3 6.8 6.7 6.9h.2 39c3.8 0 6.8-3 6.9-6.7 0-.1 0-.1 0-.2v-74.2c0-3.4 0-7.3 0-11.9l46.5 89.2c1.2 2.3 3.6 3.8 6.2 3.7h58.4c3.8 0 6.9-3 7-6.8v-.1-165.3c0-3.8-3.1-6.9-7-6.9zm-6.8 165.1h-47.4l-58.5-112.6c-1.2-2.3-3.6-3.7-6.2-3.7h-1c-3.8-.1-6.8 2.9-6.9 6.7v.7c1.4 18.1 2.1 32 2.1 41.4v67.6h-25.6v-151.3h46.9l58.2 111.1c2.3 3.6 7.1 4.7 10.8 2.4.4-.2.8-.5 1.1-.8 1.3-1.4 2-3.3 1.9-5.2-1.1-16.5-1.6-29.8-1.6-39.7v-67.8h25.9z"/></g></svg>