<svg viewBox="0 0 1526.1 1986.3" xmlns="http://www.w3.org/2000/svg"><mask id="a" height="46" maskUnits="userSpaceOnUse" width="46" x="0" y="510.7"><path clip-rule="evenodd" d="M-896 492.7H544v1000H-896z" fill="#fff" fill-rule="evenodd"/></mask><mask id="b" height="14" maskUnits="userSpaceOnUse" width="14" x="343" y="1270.7"><path clip-rule="evenodd" d="M-896 492.7H544v1000H-896z" fill="#fff" fill-rule="evenodd"/></mask><mask id="c" height="69" maskUnits="userSpaceOnUse" width="69" x="23" y="1314.7"><path clip-rule="evenodd" d="M-896 492.7H544v1000H-896z" fill="#fff" fill-rule="evenodd"/></mask><mask id="d" height="14" maskUnits="userSpaceOnUse" width="14" x="373" y="1104.7"><path clip-rule="evenodd" d="M-896 492.7H544v1000H-896z" fill="#fff" fill-rule="evenodd"/></mask><mask id="e" height="26" maskUnits="userSpaceOnUse" width="26" x="420" y="1288.7"><path clip-rule="evenodd" d="M-896 492.7H544v1000H-896z" fill="#fff" fill-rule="evenodd"/></mask><mask id="f" height="26" maskUnits="userSpaceOnUse" width="26" x="495" y="1208.7"><path clip-rule="evenodd" d="M-896 492.7H544v1000H-896z" fill="#fff" fill-rule="evenodd"/></mask><mask id="g" height="194.7" maskUnits="userSpaceOnUse" width="195.1" x="500.6" y="672.6"><path clip-rule="evenodd" d="M-896 492.7H544v1000H-896z" fill="#fff" fill-rule="evenodd"/></mask><g clip-rule="evenodd" fill-rule="evenodd"><path d="M468.2 1272c-21 19.2-44.8 33.9-69 46.4-63.4 32.6-129.9 50.2-157.9 93.8-38.6 60.3-3.7 170.7 46.6 291.5 50.1 120.9 115.3 252.4 199 277.3 83.8 25 185.8-56.4 282.6-102.8 96.6-46.3 188.2-57.8 230-113.1 41.8-55.5 34.1-155 26.5-269.6-.8-12.5-22.4-254.6-82.4-338.6-67-94.3-193.7-153.1-276.8-118-83 34.8-122.7 163.6-198.6 233.1" fill="#fff"/><path d="M197.4 1351.3l.7-8 179.4 15.7-.7 8zm-2 19l.7-8 179.4 15.7-.7 8zm-2 19l.7-8 179.4 15.7-.7 8zm-1 19l.7-8 179.4 15.7-.7 8zm-2 19l.7-8 179.4 15.7-.7 8zm-2 19l.7-8 179.4 15.7-.7 8zm-1 19l.7-8 179.4 15.7-.7 8zm-2 19l.7-8 179.4 15.7-.7 8zm-2 19l.7-8 179.4 15.7-.7 8zm-1 19l.7-8 179.4 15.7-.7 8z" fill="#f76923"/><path d="M307.2 1360.9c4.6-2.3 9.4-4.5 14.2-6.8l56.1 4.9-.7 8zm-29.6 16.6c3.7-2.4 7.5-4.7 11.5-7l86.4 7.6-.7 8zm-22 17.3c2.6-2.5 5.4-5 8.3-7.3l109.7 9.6-.7 8zm-14.6 17.8l.3-.4c1.6-2.4 3.3-4.8 5.1-7.1l126.2 11-.7 8zm-8.9 18.4c.9-2.6 2-5.2 3.1-7.7l135.3 11.8-.7 8zm-4.9 18.7c.5-2.7 1-5.3 1.7-7.9l139.7 12.2-.7 8zm-2.2 18.9c.1-2.7.3-5.4.6-8l141.9 12.4-.7 8zm0 19.2c-.1-2.7-.2-5.4-.2-8l140.8 12.3-.7 8zm1.6 19.3l-.9-8.1 137.8 12.1-.7 8zm2.9 19.3c-.5-2.7-.9-5.5-1.4-8.1l134.4 11.8-.7 8z" fill="#ffc836"/><path d="M1521.2 371.3c11.8 185.6 21.9 401.5-215.4 372.3-297.4-36.6-277.4 91.3-284.7 255.5-7.3 164.3-40.2 321.2-255.5 215.4-215.4-105.9-248.2-116.8-441.7-51.1-193.5 65.8-368.7-47.4-314-233.6C64.7 743.7 145 703.5 123.1 517.3s120.5-175.2 262.8-94.9C528.3 502.7 707.1 528.3 729 364S842.2 28.2 999.1 207s255.5 7.3 306.6-142.4c51.2-149.6 193.6-36.4 215.5 306.7" fill="#f76923"/><path d="M320.8 573.7c-66 0-121.9 20.2-166.7 60.3C92.4 689.1 57 779.4 57 881.7c0 100.7 49.4 204.4 125.9 264.2 37.9 29.6 99 60.9 175.2 42C645.7 1116.3 668 935.4 668 881.7c0-159.6-126.4-285.3-307.5-305.7-13.6-1.5-26.8-2.3-39.7-2.3m-8.2 656c-52.8 0-105.3-18.8-151.8-55.2C75.9 1108.1 21 993.2 21 881.8c0-112.6 39.8-212.7 109.1-274.7 60.7-54.2 141.7-77.4 234.4-66.9C564.4 562.7 704 703.2 704 881.8c0 161-126 288.6-337.2 341.2-17.9 4.5-36.1 6.7-54.2 6.7" fill="#10a5ac"/><g fill="#ffc836"><path d="M57 881.7c0 100.7 49.4 204.4 125.9 264.2 16.2 12.7 36.7 25.7 60.8 34.9-27.4 2.6-53.7 1.6-78.3-2.8l-4.8-3.6C78.9 1110.5 25 1001.7 21.1 894.3c15.8-46.2 33-82.9 48.7-116C61.5 810.6 57 845.4 57 881.7zm307.5-341.5C564.4 562.7 704 703.2 704 881.8c0 99.1-47.7 185.5-133.5 249.5-17.7-4.5-34.5-7.3-51.4-8.3C654.9 1038.9 668 922.9 668 881.7c0-159.6-126.4-285.3-307.5-305.7-13.6-1.5-26.8-2.3-39.6-2.3-66 0-121.9 20.2-166.7 60.3-17 15.2-32.1 33.1-44.9 53.2 7.7-23.2 13.4-47.6 16-75.6 1.6-1.5 3.3-3 4.9-4.5 60.6-54.3 141.6-77.4 234.3-66.9z"/><path d="M23 510.9c12.6 1.4 23 10.3 23 22.9 0 12.7-10.3 22.9-23 22.9S0 546.4 0 533.8c0-12.7 7.6-24.7 23-22.9" mask="url(#a)"/><path d="M350 1270.7c3.8.4 7 3.1 7 7s-3.1 7-7 7-7-3.1-7-7c0-3.8 2.3-7.5 7-7" mask="url(#b)"/><path d="M57.5 1314.9c18.9 2.1 34.5 15.4 34.5 34.4s-15.4 34.4-34.5 34.4-34.5-15.4-34.5-34.4 11.3-37 34.5-34.4" mask="url(#c)"/><path d="M380 1104.7c3.8.4 7 3.1 7 7s-3.1 7-7 7-7-3.1-7-7c0-3.8 2.3-7.5 7-7" mask="url(#d)"/><path d="M433 1288.8c7.1.8 13 5.8 13 13s-5.8 13-13 13-13-5.8-13-13 4.3-14 13-13" mask="url(#e)"/><path d="M508 1208.8c7.1.8 13 5.8 13 13s-5.8 13-13 13-13-5.8-13-13 4.3-14 13-13" mask="url(#f)"/></g><path d="M515.6 680.5l.7-8 179.4 15.7-.7 8zm-2 19l.7-8 179.4 15.7-.7 8zm-2 19l.7-8 179.4 15.7-.7 8zm-1 19l.7-8 179.4 15.7-.7 8zm-2 19l.7-8 179.4 15.7-.7 8zm-2 19l.7-8 179.4 15.7-.7 8zm-1 19l.7-8 179.4 15.7-.7 8zm-2 19l.7-8 179.4 15.7-.7 8zm-2 19l.7-8 179.4 15.7-.7 8zm-1 19l.7-8 179.4 15.7-.7 8z" fill="#e8af17" mask="url(#g)"/></g></svg>