<svg viewBox="0 0 2338.2 826.6" xmlns="http://www.w3.org/2000/svg"><mask id="a" height="3.2" maskUnits="userSpaceOnUse" width="3.2" x="408.2" y="394.6"><path clip-rule="evenodd" d="M407.9 394.3h3.8v3.6h-3.8z" fill="#fff" fill-rule="evenodd"/></mask><mask id="b" height="3.2" maskUnits="userSpaceOnUse" width="3.2" x="391.1" y="394.6"><path clip-rule="evenodd" d="M390.8 394.3h3.8v3.6h-3.8z" fill="#fff" fill-rule="evenodd"/></mask><mask id="c" height="3.2" maskUnits="userSpaceOnUse" width="3.2" x="356.9" y="394.6"><path clip-rule="evenodd" d="M356.6 394.3h3.8v3.6h-3.8z" fill="#fff" fill-rule="evenodd"/></mask><mask id="d" height="3.2" maskUnits="userSpaceOnUse" width="3.2" x="374" y="394.6"><path clip-rule="evenodd" d="M373.7 394.3h3.8v3.6h-3.8z" fill="#fff" fill-rule="evenodd"/></mask><mask id="e" height="3.2" maskUnits="userSpaceOnUse" width="3.2" x="425.3" y="394.6"><path clip-rule="evenodd" d="M425 394.3h3.8v3.6H425z" fill="#fff" fill-rule="evenodd"/></mask><mask id="f" height="3.2" maskUnits="userSpaceOnUse" width="3.2" x="374" y="64.1"><path clip-rule="evenodd" d="M373.7 64.1h3.8v3.6h-3.8z" fill="#fff" fill-rule="evenodd"/></mask><mask id="g" height="3.2" maskUnits="userSpaceOnUse" width="3.2" x="356.9" y="64.1"><path clip-rule="evenodd" d="M356.6 64.1h3.8v3.6h-3.8z" fill="#fff" fill-rule="evenodd"/></mask><mask id="h" height="3.2" maskUnits="userSpaceOnUse" width="3.2" x="391.1" y="64.1"><path clip-rule="evenodd" d="M390.8 64.1h3.8v3.6h-3.8z" fill="#fff" fill-rule="evenodd"/></mask><mask id="i" height="3.2" maskUnits="userSpaceOnUse" width="3.2" x="425.3" y="64.1"><path clip-rule="evenodd" d="M425 64.1h3.8v3.6H425z" fill="#fff" fill-rule="evenodd"/></mask><mask id="j" height="3.2" maskUnits="userSpaceOnUse" width="3.2" x="408.2" y="64.1"><path clip-rule="evenodd" d="M407.9 64.1h3.8v3.6h-3.8z" fill="#fff" fill-rule="evenodd"/></mask><mask id="k" height="3.2" maskUnits="userSpaceOnUse" width="3.2" x="442.4" y="394.6"><path clip-rule="evenodd" d="M442.1 394.3h3.8v3.6h-3.8z" fill="#fff" fill-rule="evenodd"/></mask><g clip-rule="evenodd" fill-rule="evenodd"><path d="M1972.3 63c-609.9-163.5-583.2 322.1-1391.5 41.5C-227.5-176-103 920.1 411.6 808.8s1834-101.4 1834-101.4S2582.2 226.5 1972.3 63z" fill="#b7e4e6"/><path d="M1461.8 84.7C1353.6 47.9 1239.3 22.3 1121.3 9c-229.4-25.9-426 5.6-590.1 79.1 16.8 4.8 34 10.3 51.6 16.4 491.4 170.5 674.2 57.9 879-19.8z" fill="#fff"/><path d="M1461.1 84.2C1255.8 162 1073.2 275.3 581 104.5c-17.3-6-34.2-11.4-50.7-16.2C305 189.5 140.9 370.1 37.2 590.3 98 737.5 230.8 847.8 411.8 808.6 881.5 707.1 2021.9 706.5 2217 707.2l-5-9.5c-150.9-288-423.1-502.2-750.9-613.5z" fill="#fff1cc"/><g fill="#ffc836"><path d="M408.2 396.2c0 .9.7 1.6 1.6 1.6s1.6-.7 1.6-1.6-.7-1.6-1.6-1.6-1.6.7-1.6 1.6" mask="url(#a)"/><path d="M391.1 396.2c0 .9.7 1.6 1.6 1.6s1.6-.7 1.6-1.6-.7-1.6-1.6-1.6-1.6.7-1.6 1.6" mask="url(#b)"/><path d="M356.9 396.2c0 .5.2.9.5 1.2.5.1 1.1.2 1.6.3.6-.2 1.1-.8 1.1-1.5 0-.9-.7-1.6-1.6-1.6s-1.6.7-1.6 1.6" mask="url(#c)"/><path d="M374 396.2v.5c0 .1.1.2.1.3v.1c0 .1.1.2.2.2.3.3.7.6 1.2.6s.9-.2 1.2-.6c.1-.1.2-.3.2-.4v-.1c0-.2.1-.3.1-.5 0-.9-.7-1.6-1.6-1.6-.7-.1-1.4.6-1.4 1.5" mask="url(#d)"/><path d="M425.3 396.2c0 .2 0 .3.1.5v.1c.1.1.1.3.2.4.3.4.7.6 1.2.6s.9-.2 1.2-.6c.1-.1.1-.2.2-.2v-.1c0-.1.1-.2.1-.3v-.1-.4c0-.9-.7-1.6-1.6-1.6-.7.1-1.4.8-1.4 1.7" mask="url(#e)"/><path d="M322.7 374.2c0 .9.7 1.6 1.6 1.6s1.6-.7 1.6-1.6-.7-1.6-1.6-1.6-1.6.7-1.6 1.6M339.8 374.2c0 .9.7 1.6 1.6 1.6s1.6-.7 1.6-1.6-.7-1.6-1.6-1.6-1.6.7-1.6 1.6M305.6 374.2c0 .9.7 1.6 1.6 1.6s1.6-.7 1.6-1.6-.7-1.6-1.6-1.6-1.6.7-1.6 1.6M408.2 374.2c0 .9.7 1.6 1.6 1.6s1.6-.7 1.6-1.6-.7-1.6-1.6-1.6-1.6.7-1.6 1.6M425.3 374.2c0 .9.7 1.6 1.6 1.6s1.6-.7 1.6-1.6-.7-1.6-1.6-1.6-1.6.7-1.6 1.6M356.9 374.2c0 .9.7 1.6 1.6 1.6s1.6-.7 1.6-1.6-.7-1.6-1.6-1.6-1.6.7-1.6 1.6M391.1 374.2c0 .9.7 1.6 1.6 1.6s1.6-.7 1.6-1.6-.7-1.6-1.6-1.6-1.6.7-1.6 1.6M374 374.2c0 .9.7 1.6 1.6 1.6s1.6-.7 1.6-1.6-.7-1.6-1.6-1.6-1.6.7-1.6 1.6M356.9 352.2c0 .9.7 1.6 1.6 1.6s1.6-.7 1.6-1.6-.7-1.6-1.6-1.6c-.9-.1-1.6.7-1.6 1.6M391.1 352.2c0 .9.7 1.6 1.6 1.6s1.6-.7 1.6-1.6-.7-1.6-1.6-1.6c-.9-.1-1.6.7-1.6 1.6M374 352.2c0 .9.7 1.6 1.6 1.6s1.6-.7 1.6-1.6-.7-1.6-1.6-1.6c-.9-.1-1.6.7-1.6 1.6M305.6 352.2c0 .9.7 1.6 1.6 1.6s1.6-.7 1.6-1.6-.7-1.6-1.6-1.6c-.9-.1-1.6.7-1.6 1.6M339.8 352.2c0 .9.7 1.6 1.6 1.6s1.6-.7 1.6-1.6-.7-1.6-1.6-1.6c-.9-.1-1.6.7-1.6 1.6M408.2 352.2c0 .9.7 1.6 1.6 1.6s1.6-.7 1.6-1.6-.7-1.6-1.6-1.6c-.9-.1-1.6.7-1.6 1.6M322.7 352.2c0 .9.7 1.6 1.6 1.6s1.6-.7 1.6-1.6-.7-1.6-1.6-1.6c-.9-.1-1.6.7-1.6 1.6M274.2 353.2c.3-.3.4-.7.4-1.1 0-.9-.7-1.6-1.6-1.6-.4 0-.8.2-1.1.4.7.8 1.5 1.6 2.3 2.3M288.5 352.2c0 .9.7 1.6 1.6 1.6s1.6-.7 1.6-1.6-.7-1.6-1.6-1.6c-.9-.1-1.6.7-1.6 1.6M425.3 352.2c0 .9.7 1.6 1.6 1.6s1.6-.7 1.6-1.6-.7-1.6-1.6-1.6c-.9-.1-1.6.7-1.6 1.6M356.9 330.1c0 .9.7 1.6 1.6 1.6s1.6-.7 1.6-1.6-.7-1.6-1.6-1.6-1.6.7-1.6 1.6M391.1 330.1c0 .9.7 1.6 1.6 1.6s1.6-.7 1.6-1.6-.7-1.6-1.6-1.6-1.6.7-1.6 1.6M374 330.1c0 .9.7 1.6 1.6 1.6s1.6-.7 1.6-1.6-.7-1.6-1.6-1.6-1.6.7-1.6 1.6M322.7 330.1c0 .9.7 1.6 1.6 1.6s1.6-.7 1.6-1.6-.7-1.6-1.6-1.6-1.6.7-1.6 1.6M271.4 330.1c0 .9.7 1.6 1.6 1.6s1.6-.7 1.6-1.6-.7-1.6-1.6-1.6-1.6.7-1.6 1.6M288.5 330.1c0 .9.7 1.6 1.6 1.6s1.6-.7 1.6-1.6-.7-1.6-1.6-1.6-1.6.7-1.6 1.6M305.6 330.1c0 .9.7 1.6 1.6 1.6s1.6-.7 1.6-1.6-.7-1.6-1.6-1.6-1.6.7-1.6 1.6M339.8 330.1c0 .9.7 1.6 1.6 1.6s1.6-.7 1.6-1.6-.7-1.6-1.6-1.6-1.6.7-1.6 1.6M425.3 330.1c0 .9.7 1.6 1.6 1.6s1.6-.7 1.6-1.6-.7-1.6-1.6-1.6-1.6.7-1.6 1.6M408.2 330.1c0 .9.7 1.6 1.6 1.6s1.6-.7 1.6-1.6-.7-1.6-1.6-1.6-1.6.7-1.6 1.6M254.3 330.1v.2c.3.4.6.8.9 1.3.2.1.4.2.7.2.9 0 1.6-.7 1.6-1.6s-.7-1.6-1.6-1.6c-.9-.1-1.6.6-1.6 1.5M425.3 308.1c0 .9.7 1.6 1.6 1.6s1.6-.7 1.6-1.6-.7-1.6-1.6-1.6-1.6.7-1.6 1.6M408.2 308.1c0 .9.7 1.6 1.6 1.6s1.6-.7 1.6-1.6-.7-1.6-1.6-1.6-1.6.7-1.6 1.6M305.6 308.1c0 .9.7 1.6 1.6 1.6s1.6-.7 1.6-1.6-.7-1.6-1.6-1.6-1.6.7-1.6 1.6M288.5 308.1c0 .9.7 1.6 1.6 1.6s1.6-.7 1.6-1.6-.7-1.6-1.6-1.6-1.6.7-1.6 1.6M322.7 308.1c0 .9.7 1.6 1.6 1.6s1.6-.7 1.6-1.6-.7-1.6-1.6-1.6-1.6.7-1.6 1.6M391.1 308.1c0 .9.7 1.6 1.6 1.6s1.6-.7 1.6-1.6-.7-1.6-1.6-1.6-1.6.7-1.6 1.6M374 308.1c0 .9.7 1.6 1.6 1.6s1.6-.7 1.6-1.6-.7-1.6-1.6-1.6-1.6.7-1.6 1.6M356.9 308.1c0 .9.7 1.6 1.6 1.6s1.6-.7 1.6-1.6-.7-1.6-1.6-1.6-1.6.7-1.6 1.6M339.8 308.1c0 .9.7 1.6 1.6 1.6s1.6-.7 1.6-1.6-.7-1.6-1.6-1.6-1.6.7-1.6 1.6M271.4 308.1c0 .9.7 1.6 1.6 1.6s1.6-.7 1.6-1.6-.7-1.6-1.6-1.6-1.6.7-1.6 1.6M254.3 308.1c0 .9.7 1.6 1.6 1.6s1.6-.7 1.6-1.6-.7-1.6-1.6-1.6-1.6.7-1.6 1.6M408.2 286.1c0 .9.7 1.6 1.6 1.6s1.6-.7 1.6-1.6-.7-1.6-1.6-1.6-1.6.7-1.6 1.6M391.1 286.1c0 .9.7 1.6 1.6 1.6s1.6-.7 1.6-1.6-.7-1.6-1.6-1.6-1.6.7-1.6 1.6M425.3 286.1c0 .9.7 1.6 1.6 1.6s1.6-.7 1.6-1.6-.7-1.6-1.6-1.6-1.6.7-1.6 1.6M356.9 286.1c0 .9.7 1.6 1.6 1.6s1.6-.7 1.6-1.6-.7-1.6-1.6-1.6-1.6.7-1.6 1.6M374 286.1c0 .9.7 1.6 1.6 1.6s1.6-.7 1.6-1.6-.7-1.6-1.6-1.6-1.6.7-1.6 1.6M339.8 286.1c0 .9.7 1.6 1.6 1.6s1.6-.7 1.6-1.6-.7-1.6-1.6-1.6-1.6.7-1.6 1.6M271.4 286.1c0 .9.7 1.6 1.6 1.6s1.6-.7 1.6-1.6-.7-1.6-1.6-1.6-1.6.7-1.6 1.6M237.2 286.1c0 .9.7 1.6 1.6 1.6s1.6-.7 1.6-1.6-.7-1.6-1.6-1.6-1.6.7-1.6 1.6M254.3 286.1c0 .9.7 1.6 1.6 1.6s1.6-.7 1.6-1.6-.7-1.6-1.6-1.6-1.6.7-1.6 1.6M322.7 286.1c0 .9.7 1.6 1.6 1.6s1.6-.7 1.6-1.6-.7-1.6-1.6-1.6-1.6.7-1.6 1.6M288.5 286.1c0 .9.7 1.6 1.6 1.6s1.6-.7 1.6-1.6-.7-1.6-1.6-1.6-1.6.7-1.6 1.6M305.6 286.1c0 .9.7 1.6 1.6 1.6s1.6-.7 1.6-1.6-.7-1.6-1.6-1.6-1.6.7-1.6 1.6M356.9 264c0 .9.7 1.6 1.6 1.6s1.6-.7 1.6-1.6-.7-1.6-1.6-1.6-1.6.8-1.6 1.6M339.8 264c0 .9.7 1.6 1.6 1.6s1.6-.7 1.6-1.6-.7-1.6-1.6-1.6-1.6.8-1.6 1.6M237.2 264c0 .9.7 1.6 1.6 1.6s1.6-.7 1.6-1.6-.7-1.6-1.6-1.6-1.6.8-1.6 1.6M322.7 264c0 .9.7 1.6 1.6 1.6s1.6-.7 1.6-1.6-.7-1.6-1.6-1.6-1.6.8-1.6 1.6M391.1 264c0 .9.7 1.6 1.6 1.6s1.6-.7 1.6-1.6-.7-1.6-1.6-1.6-1.6.8-1.6 1.6M288.5 264c0 .9.7 1.6 1.6 1.6s1.6-.7 1.6-1.6-.7-1.6-1.6-1.6-1.6.8-1.6 1.6M271.4 264c0 .9.7 1.6 1.6 1.6s1.6-.7 1.6-1.6-.7-1.6-1.6-1.6-1.6.8-1.6 1.6M305.6 264c0 .9.7 1.6 1.6 1.6s1.6-.7 1.6-1.6-.7-1.6-1.6-1.6-1.6.8-1.6 1.6M408.2 264c0 .9.7 1.6 1.6 1.6s1.6-.7 1.6-1.6-.7-1.6-1.6-1.6-1.6.8-1.6 1.6M374 264c0 .9.7 1.6 1.6 1.6s1.6-.7 1.6-1.6-.7-1.6-1.6-1.6-1.6.8-1.6 1.6M425.3 264c0 .9.7 1.6 1.6 1.6s1.6-.7 1.6-1.6-.7-1.6-1.6-1.6-1.6.8-1.6 1.6M254.3 264c0 .9.7 1.6 1.6 1.6s1.6-.7 1.6-1.6-.7-1.6-1.6-1.6-1.6.8-1.6 1.6M391.1 242c0 .9.7 1.6 1.6 1.6s1.6-.7 1.6-1.6-.7-1.6-1.6-1.6-1.6.7-1.6 1.6M374 242c0 .9.7 1.6 1.6 1.6s1.6-.7 1.6-1.6-.7-1.6-1.6-1.6-1.6.7-1.6 1.6M356.9 242c0 .9.7 1.6 1.6 1.6s1.6-.7 1.6-1.6-.7-1.6-1.6-1.6-1.6.7-1.6 1.6M408.2 242c0 .9.7 1.6 1.6 1.6s1.6-.7 1.6-1.6-.7-1.6-1.6-1.6-1.6.7-1.6 1.6M425.3 242c0 .9.7 1.6 1.6 1.6s1.6-.7 1.6-1.6-.7-1.6-1.6-1.6-1.6.7-1.6 1.6M237.2 242c0 .9.7 1.6 1.6 1.6s1.6-.7 1.6-1.6-.7-1.6-1.6-1.6-1.6.7-1.6 1.6M254.3 242c0 .9.7 1.6 1.6 1.6s1.6-.7 1.6-1.6-.7-1.6-1.6-1.6-1.6.7-1.6 1.6M288.5 242c0 .9.7 1.6 1.6 1.6s1.6-.7 1.6-1.6-.7-1.6-1.6-1.6-1.6.7-1.6 1.6M305.6 242c0 .9.7 1.6 1.6 1.6s1.6-.7 1.6-1.6-.7-1.6-1.6-1.6-1.6.7-1.6 1.6M322.7 242c0 .9.7 1.6 1.6 1.6s1.6-.7 1.6-1.6-.7-1.6-1.6-1.6-1.6.7-1.6 1.6M339.8 242c0 .9.7 1.6 1.6 1.6s1.6-.7 1.6-1.6-.7-1.6-1.6-1.6-1.6.7-1.6 1.6M271.4 242c0 .9.7 1.6 1.6 1.6s1.6-.7 1.6-1.6-.7-1.6-1.6-1.6-1.6.7-1.6 1.6M374 220c0 .9.7 1.6 1.6 1.6s1.6-.7 1.6-1.6-.7-1.6-1.6-1.6-1.6.7-1.6 1.6M356.9 220c0 .9.7 1.6 1.6 1.6s1.6-.7 1.6-1.6-.7-1.6-1.6-1.6-1.6.7-1.6 1.6M322.7 220c0 .9.7 1.6 1.6 1.6s1.6-.7 1.6-1.6-.7-1.6-1.6-1.6-1.6.7-1.6 1.6M305.6 220c0 .9.7 1.6 1.6 1.6s1.6-.7 1.6-1.6-.7-1.6-1.6-1.6-1.6.7-1.6 1.6M288.5 220c0 .9.7 1.6 1.6 1.6s1.6-.7 1.6-1.6-.7-1.6-1.6-1.6-1.6.7-1.6 1.6M408.2 220c0 .9.7 1.6 1.6 1.6s1.6-.7 1.6-1.6-.7-1.6-1.6-1.6-1.6.7-1.6 1.6M391.1 220c0 .9.7 1.6 1.6 1.6s1.6-.7 1.6-1.6-.7-1.6-1.6-1.6-1.6.7-1.6 1.6M425.3 220c0 .9.7 1.6 1.6 1.6s1.6-.7 1.6-1.6-.7-1.6-1.6-1.6-1.6.7-1.6 1.6M271.4 220c0 .9.7 1.6 1.6 1.6s1.6-.7 1.6-1.6-.7-1.6-1.6-1.6-1.6.7-1.6 1.6M339.8 220c0 .9.7 1.6 1.6 1.6s1.6-.7 1.6-1.6-.7-1.6-1.6-1.6-1.6.7-1.6 1.6M254.3 220c0 .9.7 1.6 1.6 1.6s1.6-.7 1.6-1.6-.7-1.6-1.6-1.6-1.6.7-1.6 1.6M237.2 220c0 .9.7 1.6 1.6 1.6s1.6-.7 1.6-1.6-.7-1.6-1.6-1.6-1.6.7-1.6 1.6M425.3 198c0 .9.7 1.6 1.6 1.6s1.6-.7 1.6-1.6-.7-1.6-1.6-1.6c-.9-.1-1.6.7-1.6 1.6M356.9 198c0 .9.7 1.6 1.6 1.6s1.6-.7 1.6-1.6-.7-1.6-1.6-1.6c-.9-.1-1.6.7-1.6 1.6M408.2 198c0 .9.7 1.6 1.6 1.6s1.6-.7 1.6-1.6-.7-1.6-1.6-1.6c-.9-.1-1.6.7-1.6 1.6M374 198c0 .9.7 1.6 1.6 1.6s1.6-.7 1.6-1.6-.7-1.6-1.6-1.6c-.9-.1-1.6.7-1.6 1.6M339.8 198c0 .9.7 1.6 1.6 1.6s1.6-.7 1.6-1.6-.7-1.6-1.6-1.6c-.9-.1-1.6.7-1.6 1.6M391.1 198c0 .9.7 1.6 1.6 1.6s1.6-.7 1.6-1.6-.7-1.6-1.6-1.6c-.9-.1-1.6.7-1.6 1.6M271.4 198c0 .9.7 1.6 1.6 1.6s1.6-.7 1.6-1.6-.7-1.6-1.6-1.6c-.9-.1-1.6.7-1.6 1.6M237.2 198c0 .9.7 1.6 1.6 1.6s1.6-.7 1.6-1.6-.7-1.6-1.6-1.6c-.9-.1-1.6.7-1.6 1.6M322.7 198c0 .9.7 1.6 1.6 1.6s1.6-.7 1.6-1.6-.7-1.6-1.6-1.6c-.9-.1-1.6.7-1.6 1.6M254.3 198c0 .9.7 1.6 1.6 1.6s1.6-.7 1.6-1.6-.7-1.6-1.6-1.6c-.9-.1-1.6.7-1.6 1.6M288.5 198c0 .9.7 1.6 1.6 1.6s1.6-.7 1.6-1.6-.7-1.6-1.6-1.6c-.9-.1-1.6.7-1.6 1.6M305.6 198c0 .9.7 1.6 1.6 1.6s1.6-.7 1.6-1.6-.7-1.6-1.6-1.6c-.9-.1-1.6.7-1.6 1.6M237.2 175.9c0 .9.7 1.6 1.6 1.6s1.6-.7 1.6-1.6-.7-1.6-1.6-1.6-1.6.7-1.6 1.6M288.5 175.9c0 .9.7 1.6 1.6 1.6s1.6-.7 1.6-1.6-.7-1.6-1.6-1.6-1.6.7-1.6 1.6M271.4 175.9c0 .9.7 1.6 1.6 1.6s1.6-.7 1.6-1.6-.7-1.6-1.6-1.6-1.6.7-1.6 1.6M254.3 175.9c0 .9.7 1.6 1.6 1.6s1.6-.7 1.6-1.6-.7-1.6-1.6-1.6-1.6.7-1.6 1.6M339.8 175.9c0 .9.7 1.6 1.6 1.6s1.6-.7 1.6-1.6-.7-1.6-1.6-1.6-1.6.7-1.6 1.6M425.3 175.9c0 .9.7 1.6 1.6 1.6s1.6-.7 1.6-1.6-.7-1.6-1.6-1.6-1.6.7-1.6 1.6M322.7 175.9c0 .9.7 1.6 1.6 1.6s1.6-.7 1.6-1.6-.7-1.6-1.6-1.6-1.6.7-1.6 1.6M305.6 175.9c0 .9.7 1.6 1.6 1.6s1.6-.7 1.6-1.6-.7-1.6-1.6-1.6-1.6.7-1.6 1.6M408.2 175.9c0 .9.7 1.6 1.6 1.6s1.6-.7 1.6-1.6-.7-1.6-1.6-1.6-1.6.7-1.6 1.6M391.1 175.9c0 .9.7 1.6 1.6 1.6s1.6-.7 1.6-1.6-.7-1.6-1.6-1.6-1.6.7-1.6 1.6M374 175.9c0 .9.7 1.6 1.6 1.6s1.6-.7 1.6-1.6-.7-1.6-1.6-1.6-1.6.7-1.6 1.6M356.9 175.9c0 .9.7 1.6 1.6 1.6s1.6-.7 1.6-1.6-.7-1.6-1.6-1.6-1.6.7-1.6 1.6M374 153.9c0 .9.7 1.6 1.6 1.6s1.6-.7 1.6-1.6-.7-1.6-1.6-1.6-1.6.7-1.6 1.6M339.8 153.9c0 .9.7 1.6 1.6 1.6s1.6-.7 1.6-1.6-.7-1.6-1.6-1.6-1.6.7-1.6 1.6M356.9 153.9c0 .9.7 1.6 1.6 1.6s1.6-.7 1.6-1.6-.7-1.6-1.6-1.6-1.6.7-1.6 1.6M305.6 153.9c0 .9.7 1.6 1.6 1.6s1.6-.7 1.6-1.6-.7-1.6-1.6-1.6-1.6.7-1.6 1.6M322.7 153.9c0 .9.7 1.6 1.6 1.6s1.6-.7 1.6-1.6-.7-1.6-1.6-1.6-1.6.7-1.6 1.6M288.5 153.9c0 .9.7 1.6 1.6 1.6s1.6-.7 1.6-1.6-.7-1.6-1.6-1.6-1.6.7-1.6 1.6M254.3 153.9c0 .9.7 1.6 1.6 1.6s1.6-.7 1.6-1.6-.7-1.6-1.6-1.6-1.6.7-1.6 1.6M240.4 153.9c0-.5-.2-.9-.5-1.2-.5.9-.9 1.8-1.4 2.8h.2c1 0 1.7-.7 1.7-1.6M271.4 153.9c0 .9.7 1.6 1.6 1.6s1.6-.7 1.6-1.6-.7-1.6-1.6-1.6-1.6.7-1.6 1.6M391.1 153.9c0 .9.7 1.6 1.6 1.6s1.6-.7 1.6-1.6-.7-1.6-1.6-1.6-1.6.7-1.6 1.6M408.2 153.9c0 .9.7 1.6 1.6 1.6s1.6-.7 1.6-1.6-.7-1.6-1.6-1.6-1.6.7-1.6 1.6M425.3 153.9c0 .9.7 1.6 1.6 1.6s1.6-.7 1.6-1.6-.7-1.6-1.6-1.6-1.6.7-1.6 1.6M288.5 131.9c0 .9.7 1.6 1.6 1.6s1.6-.7 1.6-1.6-.7-1.6-1.6-1.6c-.9-.1-1.6.7-1.6 1.6M425.3 131.9c0 .9.7 1.6 1.6 1.6s1.6-.7 1.6-1.6-.7-1.6-1.6-1.6c-.9-.1-1.6.7-1.6 1.6M408.2 131.9c0 .9.7 1.6 1.6 1.6s1.6-.7 1.6-1.6-.7-1.6-1.6-1.6c-.9-.1-1.6.7-1.6 1.6M322.7 131.9c0 .9.7 1.6 1.6 1.6s1.6-.7 1.6-1.6-.7-1.6-1.6-1.6c-.9-.1-1.6.7-1.6 1.6M271.4 131.9c0 .9.7 1.6 1.6 1.6s1.6-.7 1.6-1.6-.7-1.6-1.6-1.6c-.9-.1-1.6.7-1.6 1.6M391.1 131.9c0 .9.7 1.6 1.6 1.6s1.6-.7 1.6-1.6-.7-1.6-1.6-1.6c-.9-.1-1.6.7-1.6 1.6M254.3 131.9c0 .9.7 1.6 1.6 1.6s1.6-.7 1.6-1.6-.7-1.6-1.6-1.6c-.9-.1-1.6.7-1.6 1.6M305.6 131.9c0 .9.7 1.6 1.6 1.6s1.6-.7 1.6-1.6-.7-1.6-1.6-1.6c-.9-.1-1.6.7-1.6 1.6M356.9 131.9c0 .9.7 1.6 1.6 1.6s1.6-.7 1.6-1.6-.7-1.6-1.6-1.6c-.9-.1-1.6.7-1.6 1.6M339.8 131.9c0 .9.7 1.6 1.6 1.6s1.6-.7 1.6-1.6-.7-1.6-1.6-1.6c-.9-.1-1.6.7-1.6 1.6M374 131.9c0 .9.7 1.6 1.6 1.6s1.6-.7 1.6-1.6-.7-1.6-1.6-1.6c-.9-.1-1.6.7-1.6 1.6M374 109.8c0 .9.7 1.6 1.6 1.6s1.6-.7 1.6-1.6-.7-1.6-1.6-1.6-1.6.7-1.6 1.6M356.9 109.8c0 .9.7 1.6 1.6 1.6s1.6-.7 1.6-1.6-.7-1.6-1.6-1.6-1.6.7-1.6 1.6M305.6 109.8c0 .9.7 1.6 1.6 1.6s1.6-.7 1.6-1.6-.7-1.6-1.6-1.6-1.6.7-1.6 1.6M271.4 109.8c0 .9.7 1.6 1.6 1.6s1.6-.7 1.6-1.6-.7-1.6-1.6-1.6-1.6.7-1.6 1.6M288.5 109.8c0 .9.7 1.6 1.6 1.6s1.6-.7 1.6-1.6-.7-1.6-1.6-1.6-1.6.7-1.6 1.6M339.8 109.8c0 .9.7 1.6 1.6 1.6s1.6-.7 1.6-1.6-.7-1.6-1.6-1.6-1.6.7-1.6 1.6M425.3 109.8c0 .9.7 1.6 1.6 1.6s1.6-.7 1.6-1.6-.7-1.6-1.6-1.6-1.6.7-1.6 1.6M322.7 109.8c0 .9.7 1.6 1.6 1.6s1.6-.7 1.6-1.6-.7-1.6-1.6-1.6-1.6.7-1.6 1.6M408.2 109.8c0 .9.7 1.6 1.6 1.6s1.6-.7 1.6-1.6-.7-1.6-1.6-1.6-1.6.7-1.6 1.6M391.1 109.8c0 .9.7 1.6 1.6 1.6s1.6-.7 1.6-1.6-.7-1.6-1.6-1.6-1.6.7-1.6 1.6M339.8 87.8c0 .9.7 1.6 1.6 1.6s1.6-.7 1.6-1.6-.7-1.6-1.6-1.6-1.6.7-1.6 1.6M374 87.8c0 .9.7 1.6 1.6 1.6s1.6-.7 1.6-1.6-.7-1.6-1.6-1.6-1.6.7-1.6 1.6M425.3 87.8c0 .9.7 1.6 1.6 1.6s1.6-.7 1.6-1.6-.7-1.6-1.6-1.6-1.6.7-1.6 1.6M391.1 87.8c0 .9.7 1.6 1.6 1.6s1.6-.7 1.6-1.6-.7-1.6-1.6-1.6-1.6.7-1.6 1.6M305.6 87.8c0 .9.7 1.6 1.6 1.6s1.6-.7 1.6-1.6-.7-1.6-1.6-1.6-1.6.7-1.6 1.6M322.7 87.8c0 .9.7 1.6 1.6 1.6s1.6-.7 1.6-1.6-.7-1.6-1.6-1.6-1.6.7-1.6 1.6M356.9 87.8c0 .9.7 1.6 1.6 1.6s1.6-.7 1.6-1.6-.7-1.6-1.6-1.6-1.6.7-1.6 1.6M408.2 87.8c0 .9.7 1.6 1.6 1.6s1.6-.7 1.6-1.6-.7-1.6-1.6-1.6-1.6.7-1.6 1.6"/><path d="M374 65.8c0 .9.7 1.6 1.6 1.6s1.6-.7 1.6-1.6-.7-1.6-1.6-1.6c-.9-.1-1.6.7-1.6 1.6" mask="url(#f)"/><path d="M360.1 65.8c0-.9-.7-1.6-1.6-1.6s-1.6.7-1.6 1.6.7 1.6 1.6 1.6 1.6-.7 1.6-1.6" mask="url(#g)"/><path d="M391.1 65.8c0 .9.7 1.6 1.6 1.6s1.6-.7 1.6-1.6-.7-1.6-1.6-1.6c-.9-.1-1.6.7-1.6 1.6" mask="url(#h)"/><path d="M425.3 65.8c0 .9.7 1.6 1.6 1.6s1.6-.7 1.6-1.6-.7-1.6-1.6-1.6c-.9-.1-1.6.7-1.6 1.6" mask="url(#i)"/><path d="M408.2 65.8c0 .9.7 1.6 1.6 1.6s1.6-.7 1.6-1.6-.7-1.6-1.6-1.6c-.9-.1-1.6.7-1.6 1.6" mask="url(#j)"/><path d="M343 65.8c-1 .3-2 .6-2.9.9.3.4.8.7 1.3.7.9 0 1.6-.7 1.6-1.6"/><path d="M442.4 396.2c0 .7.5 1.3 1.1 1.5.5-.1 1.1-.2 1.6-.3.3-.3.5-.7.5-1.2 0-.9-.7-1.6-1.6-1.6s-1.6.7-1.6 1.6" mask="url(#k)"/><path d="M476.6 374.2c0 .9.7 1.6 1.6 1.6s1.6-.7 1.6-1.6-.7-1.6-1.6-1.6c-.8 0-1.6.7-1.6 1.6M459.5 374.2c0 .9.7 1.6 1.6 1.6s1.6-.7 1.6-1.6-.7-1.6-1.6-1.6-1.6.7-1.6 1.6M493.7 374.2c0 .9.7 1.6 1.6 1.6s1.6-.7 1.6-1.6-.7-1.6-1.6-1.6c-.8 0-1.6.7-1.6 1.6M442.4 374.2c0 .9.7 1.6 1.6 1.6s1.6-.7 1.6-1.6-.7-1.6-1.6-1.6-1.6.7-1.6 1.6M442.4 352.2c0 .9.7 1.6 1.6 1.6s1.6-.7 1.6-1.6-.7-1.6-1.6-1.6c-.9-.1-1.6.7-1.6 1.6M493.7 352.2c0 .9.7 1.6 1.6 1.6s1.6-.7 1.6-1.6-.7-1.6-1.6-1.6c-.8-.1-1.6.7-1.6 1.6M459.5 352.2c0 .9.7 1.6 1.6 1.6s1.6-.7 1.6-1.6-.7-1.6-1.6-1.6c-.9-.1-1.6.7-1.6 1.6M476.6 352.2c0 .9.7 1.6 1.6 1.6s1.6-.7 1.6-1.6-.7-1.6-1.6-1.6c-.8-.1-1.6.7-1.6 1.6M527.9 352.2c0 .4.2.8.4 1.1.8-.8 1.6-1.5 2.3-2.3-.3-.3-.7-.4-1.1-.4-.8-.1-1.6.7-1.6 1.6M510.8 352.2c0 .9.7 1.6 1.6 1.6s1.6-.7 1.6-1.6-.7-1.6-1.6-1.6c-.8-.1-1.6.7-1.6 1.6M442.4 330.1c0 .9.7 1.6 1.6 1.6s1.6-.7 1.6-1.6-.7-1.6-1.6-1.6-1.6.7-1.6 1.6M476.6 330.1c0 .9.7 1.6 1.6 1.6s1.6-.7 1.6-1.6-.7-1.6-1.6-1.6c-.8 0-1.6.7-1.6 1.6M527.9 330.1c0 .9.7 1.6 1.6 1.6s1.6-.7 1.6-1.6-.7-1.6-1.6-1.6c-.8 0-1.6.7-1.6 1.6M510.8 330.1c0 .9.7 1.6 1.6 1.6s1.6-.7 1.6-1.6-.7-1.6-1.6-1.6c-.8 0-1.6.7-1.6 1.6M493.7 330.1c0 .9.7 1.6 1.6 1.6s1.6-.7 1.6-1.6-.7-1.6-1.6-1.6c-.8 0-1.6.7-1.6 1.6M459.5 330.1c0 .9.7 1.6 1.6 1.6s1.6-.7 1.6-1.6-.7-1.6-1.6-1.6-1.6.7-1.6 1.6M545 330.1c0 .9.7 1.6 1.6 1.6.2 0 .5-.1.7-.2.3-.4.6-.8.9-1.3v-.2c0-.9-.7-1.6-1.6-1.6-.8.1-1.6.8-1.6 1.7M493.7 308.1c0 .9.7 1.6 1.6 1.6s1.6-.7 1.6-1.6-.7-1.6-1.6-1.6c-.8 0-1.6.7-1.6 1.6M510.8 308.1c0 .9.7 1.6 1.6 1.6s1.6-.7 1.6-1.6-.7-1.6-1.6-1.6c-.8 0-1.6.7-1.6 1.6M476.6 308.1c0 .9.7 1.6 1.6 1.6s1.6-.7 1.6-1.6-.7-1.6-1.6-1.6c-.8 0-1.6.7-1.6 1.6M442.4 308.1c0 .9.7 1.6 1.6 1.6s1.6-.7 1.6-1.6-.7-1.6-1.6-1.6-1.6.7-1.6 1.6M459.5 308.1c0 .9.7 1.6 1.6 1.6s1.6-.7 1.6-1.6-.7-1.6-1.6-1.6-1.6.7-1.6 1.6M527.9 308.1c0 .9.7 1.6 1.6 1.6s1.6-.7 1.6-1.6-.7-1.6-1.6-1.6c-.8 0-1.6.7-1.6 1.6M545 308.1c0 .9.7 1.6 1.6 1.6s1.6-.7 1.6-1.6-.7-1.6-1.6-1.6c-.8 0-1.6.7-1.6 1.6M442.4 286.1c0 .9.7 1.6 1.6 1.6s1.6-.7 1.6-1.6-.7-1.6-1.6-1.6-1.6.7-1.6 1.6M459.5 286.1c0 .9.7 1.6 1.6 1.6s1.6-.7 1.6-1.6-.7-1.6-1.6-1.6-1.6.7-1.6 1.6M527.9 286.1c0 .9.7 1.6 1.6 1.6s1.6-.7 1.6-1.6-.7-1.6-1.6-1.6c-.8 0-1.6.7-1.6 1.6M562.2 286.1c0 .9.7 1.6 1.6 1.6s1.6-.7 1.6-1.6-.7-1.6-1.6-1.6-1.6.7-1.6 1.6M545 286.1c0 .9.7 1.6 1.6 1.6s1.6-.7 1.6-1.6-.7-1.6-1.6-1.6c-.8 0-1.6.7-1.6 1.6M476.6 286.1c0 .9.7 1.6 1.6 1.6s1.6-.7 1.6-1.6-.7-1.6-1.6-1.6c-.8 0-1.6.7-1.6 1.6M510.8 286.1c0 .9.7 1.6 1.6 1.6s1.6-.7 1.6-1.6-.7-1.6-1.6-1.6c-.8 0-1.6.7-1.6 1.6M493.7 286.1c0 .9.7 1.6 1.6 1.6s1.6-.7 1.6-1.6-.7-1.6-1.6-1.6c-.8 0-1.6.7-1.6 1.6M442.4 264c0 .9.7 1.6 1.6 1.6s1.6-.7 1.6-1.6-.7-1.6-1.6-1.6-1.6.8-1.6 1.6M459.5 264c0 .9.7 1.6 1.6 1.6s1.6-.7 1.6-1.6-.7-1.6-1.6-1.6-1.6.8-1.6 1.6M562.2 264c0 .9.7 1.6 1.6 1.6s1.6-.7 1.6-1.6-.7-1.6-1.6-1.6-1.6.8-1.6 1.6M476.6 264c0 .9.7 1.6 1.6 1.6s1.6-.7 1.6-1.6-.7-1.6-1.6-1.6c-.8 0-1.6.8-1.6 1.6M510.8 264c0 .9.7 1.6 1.6 1.6s1.6-.7 1.6-1.6-.7-1.6-1.6-1.6c-.8 0-1.6.8-1.6 1.6M527.9 264c0 .9.7 1.6 1.6 1.6s1.6-.7 1.6-1.6-.7-1.6-1.6-1.6c-.8 0-1.6.8-1.6 1.6M493.7 264c0 .9.7 1.6 1.6 1.6s1.6-.7 1.6-1.6-.7-1.6-1.6-1.6c-.8 0-1.6.8-1.6 1.6M545 264c0 .9.7 1.6 1.6 1.6s1.6-.7 1.6-1.6-.7-1.6-1.6-1.6c-.8 0-1.6.8-1.6 1.6M579.3 242c0 .4.2.8.5 1.2.2.2.4.3.6.4.1-1 .1-2.1.2-3.1-.3.1-.6.2-.8.4-.4.3-.5.7-.5 1.1M442.4 242c0 .9.7 1.6 1.6 1.6s1.6-.7 1.6-1.6-.7-1.6-1.6-1.6-1.6.7-1.6 1.6M562.2 242c0 .9.7 1.6 1.6 1.6s1.6-.7 1.6-1.6-.7-1.6-1.6-1.6-1.6.7-1.6 1.6M545 242c0 .9.7 1.6 1.6 1.6s1.6-.7 1.6-1.6-.7-1.6-1.6-1.6c-.8 0-1.6.7-1.6 1.6M510.8 242c0 .9.7 1.6 1.6 1.6s1.6-.7 1.6-1.6-.7-1.6-1.6-1.6c-.8 0-1.6.7-1.6 1.6M493.7 242c0 .9.7 1.6 1.6 1.6s1.6-.7 1.6-1.6-.7-1.6-1.6-1.6c-.8 0-1.6.7-1.6 1.6M476.6 242c0 .9.7 1.6 1.6 1.6s1.6-.7 1.6-1.6-.7-1.6-1.6-1.6c-.8 0-1.6.7-1.6 1.6M459.5 242c0 .9.7 1.6 1.6 1.6s1.6-.7 1.6-1.6-.7-1.6-1.6-1.6-1.6.7-1.6 1.6M527.9 242c0 .9.7 1.6 1.6 1.6s1.6-.7 1.6-1.6-.7-1.6-1.6-1.6c-.8 0-1.6.7-1.6 1.6M579.3 220c0 .4.2.8.5 1.2.3.3.6.4.9.5 0-1.1-.1-2.1-.2-3.2-.3.1-.6.2-.8.4-.3.2-.4.7-.4 1.1M442.4 220c0 .9.7 1.6 1.6 1.6s1.6-.7 1.6-1.6-.7-1.6-1.6-1.6-1.6.7-1.6 1.6M476.6 220c0 .9.7 1.6 1.6 1.6s1.6-.7 1.6-1.6-.7-1.6-1.6-1.6c-.8 0-1.6.7-1.6 1.6M493.7 220c0 .9.7 1.6 1.6 1.6s1.6-.7 1.6-1.6-.7-1.6-1.6-1.6c-.8 0-1.6.7-1.6 1.6M510.8 220c0 .9.7 1.6 1.6 1.6s1.6-.7 1.6-1.6-.7-1.6-1.6-1.6c-.8 0-1.6.7-1.6 1.6M527.9 220c0 .9.7 1.6 1.6 1.6s1.6-.7 1.6-1.6-.7-1.6-1.6-1.6c-.8 0-1.6.7-1.6 1.6M459.5 220c0 .9.7 1.6 1.6 1.6s1.6-.7 1.6-1.6-.7-1.6-1.6-1.6-1.6.7-1.6 1.6M545 220c0 .9.7 1.6 1.6 1.6s1.6-.7 1.6-1.6-.7-1.6-1.6-1.6c-.8 0-1.6.7-1.6 1.6M562.2 220c0 .9.7 1.6 1.6 1.6s1.6-.7 1.6-1.6-.7-1.6-1.6-1.6-1.6.7-1.6 1.6M442.4 198c0 .9.7 1.6 1.6 1.6s1.6-.7 1.6-1.6-.7-1.6-1.6-1.6c-.9-.1-1.6.7-1.6 1.6M459.5 198c0 .9.7 1.6 1.6 1.6s1.6-.7 1.6-1.6-.7-1.6-1.6-1.6c-.9-.1-1.6.7-1.6 1.6M527.9 198c0 .9.7 1.6 1.6 1.6s1.6-.7 1.6-1.6-.7-1.6-1.6-1.6c-.8-.1-1.6.7-1.6 1.6M562.2 198c0 .9.7 1.6 1.6 1.6s1.6-.7 1.6-1.6-.7-1.6-1.6-1.6c-.9-.1-1.6.7-1.6 1.6M476.6 198c0 .9.7 1.6 1.6 1.6s1.6-.7 1.6-1.6-.7-1.6-1.6-1.6c-.8-.1-1.6.7-1.6 1.6M545 198c0 .9.7 1.6 1.6 1.6s1.6-.7 1.6-1.6-.7-1.6-1.6-1.6c-.8-.1-1.6.7-1.6 1.6M510.8 198c0 .9.7 1.6 1.6 1.6s1.6-.7 1.6-1.6-.7-1.6-1.6-1.6c-.8-.1-1.6.7-1.6 1.6M493.7 198c0 .9.7 1.6 1.6 1.6s1.6-.7 1.6-1.6-.7-1.6-1.6-1.6c-.8-.1-1.6.7-1.6 1.6M562.2 175.9c0 .9.7 1.6 1.6 1.6s1.6-.7 1.6-1.6-.7-1.6-1.6-1.6-1.6.7-1.6 1.6M510.8 175.9c0 .9.7 1.6 1.6 1.6s1.6-.7 1.6-1.6-.7-1.6-1.6-1.6c-.8 0-1.6.7-1.6 1.6M527.9 175.9c0 .9.7 1.6 1.6 1.6s1.6-.7 1.6-1.6-.7-1.6-1.6-1.6c-.8 0-1.6.7-1.6 1.6M545 175.9c0 .9.7 1.6 1.6 1.6s1.6-.7 1.6-1.6-.7-1.6-1.6-1.6c-.8 0-1.6.7-1.6 1.6M459.5 175.9c0 .9.7 1.6 1.6 1.6s1.6-.7 1.6-1.6-.7-1.6-1.6-1.6-1.6.7-1.6 1.6M476.6 175.9c0 .9.7 1.6 1.6 1.6s1.6-.7 1.6-1.6-.7-1.6-1.6-1.6c-.8 0-1.6.7-1.6 1.6M493.7 175.9c0 .9.7 1.6 1.6 1.6s1.6-.7 1.6-1.6-.7-1.6-1.6-1.6c-.8 0-1.6.7-1.6 1.6M442.4 175.9c0 .9.7 1.6 1.6 1.6s1.6-.7 1.6-1.6-.7-1.6-1.6-1.6-1.6.7-1.6 1.6M459.5 153.9c0 .9.7 1.6 1.6 1.6s1.6-.7 1.6-1.6-.7-1.6-1.6-1.6-1.6.7-1.6 1.6M442.4 153.9c0 .9.7 1.6 1.6 1.6s1.6-.7 1.6-1.6-.7-1.6-1.6-1.6-1.6.7-1.6 1.6M493.7 153.9c0 .9.7 1.6 1.6 1.6s1.6-.7 1.6-1.6-.7-1.6-1.6-1.6c-.8 0-1.6.7-1.6 1.6M476.6 153.9c0 .9.7 1.6 1.6 1.6s1.6-.7 1.6-1.6-.7-1.6-1.6-1.6c-.8 0-1.6.7-1.6 1.6M510.8 153.9c0 .9.7 1.6 1.6 1.6s1.6-.7 1.6-1.6-.7-1.6-1.6-1.6c-.8 0-1.6.7-1.6 1.6M545 153.9c0 .9.7 1.6 1.6 1.6s1.6-.7 1.6-1.6-.7-1.6-1.6-1.6c-.8 0-1.6.7-1.6 1.6M563.8 155.5h.2c-.4-.9-.9-1.8-1.4-2.8-.3.3-.5.7-.5 1.2.1.9.8 1.6 1.7 1.6M527.9 153.9c0 .9.7 1.6 1.6 1.6s1.6-.7 1.6-1.6-.7-1.6-1.6-1.6c-.8 0-1.6.7-1.6 1.6M510.8 131.9c0 .9.7 1.6 1.6 1.6s1.6-.7 1.6-1.6-.7-1.6-1.6-1.6c-.8-.1-1.6.7-1.6 1.6M476.6 131.9c0 .9.7 1.6 1.6 1.6s1.6-.7 1.6-1.6-.7-1.6-1.6-1.6c-.8-.1-1.6.7-1.6 1.6M527.9 131.9c0 .9.7 1.6 1.6 1.6s1.6-.7 1.6-1.6-.7-1.6-1.6-1.6c-.8-.1-1.6.7-1.6 1.6M545 131.9c0 .9.7 1.6 1.6 1.6s1.6-.7 1.6-1.6-.7-1.6-1.6-1.6c-.8-.1-1.6.7-1.6 1.6M493.7 131.9c0 .9.7 1.6 1.6 1.6s1.6-.7 1.6-1.6-.7-1.6-1.6-1.6c-.8-.1-1.6.7-1.6 1.6M442.4 131.9c0 .9.7 1.6 1.6 1.6s1.6-.7 1.6-1.6-.7-1.6-1.6-1.6c-.9-.1-1.6.7-1.6 1.6M459.5 131.9c0 .9.7 1.6 1.6 1.6s1.6-.7 1.6-1.6-.7-1.6-1.6-1.6c-.9-.1-1.6.7-1.6 1.6M442.4 109.8c0 .9.7 1.6 1.6 1.6s1.6-.7 1.6-1.6-.7-1.6-1.6-1.6-1.6.7-1.6 1.6M493.7 109.8c0 .9.7 1.6 1.6 1.6s1.6-.7 1.6-1.6-.7-1.6-1.6-1.6c-.8 0-1.6.7-1.6 1.6M527.9 109.8c0 .9.7 1.6 1.6 1.6s1.6-.7 1.6-1.6-.7-1.6-1.6-1.6c-.8 0-1.6.7-1.6 1.6M510.8 109.8c0 .9.7 1.6 1.6 1.6s1.6-.7 1.6-1.6-.7-1.6-1.6-1.6c-.8 0-1.6.7-1.6 1.6M459.5 109.8c0 .9.7 1.6 1.6 1.6s1.6-.7 1.6-1.6-.7-1.6-1.6-1.6-1.6.7-1.6 1.6M476.6 109.8c0 .9.7 1.6 1.6 1.6s1.6-.7 1.6-1.6-.7-1.6-1.6-1.6c-.8 0-1.6.7-1.6 1.6M459.5 87.8c0 .9.7 1.6 1.6 1.6s1.6-.7 1.6-1.6-.7-1.6-1.6-1.6-1.6.7-1.6 1.6M493.7 87.8c0 .9.7 1.6 1.6 1.6s1.6-.7 1.6-1.6-.7-1.6-1.6-1.6c-.8 0-1.6.7-1.6 1.6M476.6 87.8c0 .9.7 1.6 1.6 1.6s1.6-.7 1.6-1.6-.7-1.6-1.6-1.6c-.8 0-1.6.7-1.6 1.6M442.4 87.8c0 .9.7 1.6 1.6 1.6s1.6-.7 1.6-1.6-.7-1.6-1.6-1.6-1.6.7-1.6 1.6M442.4 65.8c0 .9.7 1.6 1.6 1.6s1.6-.7 1.6-1.6-.7-1.6-1.6-1.6c-.9-.1-1.6.7-1.6 1.6M461.1 67.4c.5 0 1-.3 1.3-.7-1-.3-1.9-.6-2.9-.9 0 .9.8 1.6 1.6 1.6"/></g></g></svg>