<svg viewBox="0 0 1957.5 1131.2" xmlns="http://www.w3.org/2000/svg"><mask id="a" height="3.2" maskUnits="userSpaceOnUse" width="3.2" x="856.9" y="426"><path clip-rule="evenodd" d="M856.6 425.7h3.9v3.5h-3.9z" fill="#fff" fill-rule="evenodd"/></mask><mask id="b" height="3.2" maskUnits="userSpaceOnUse" width="3.2" x="839.8" y="426"><path clip-rule="evenodd" d="M839.5 425.7h3.9v3.5h-3.9z" fill="#fff" fill-rule="evenodd"/></mask><mask id="c" height="3.2" maskUnits="userSpaceOnUse" width="3.2" x="805.6" y="426"><path clip-rule="evenodd" d="M805.3 425.6h3.8v3.6h-3.8z" fill="#fff" fill-rule="evenodd"/></mask><mask id="d" height="3.2" maskUnits="userSpaceOnUse" width="3.2" x="822.7" y="426"><path clip-rule="evenodd" d="M822.4 425.7h3.8v3.5h-3.8z" fill="#fff" fill-rule="evenodd"/></mask><mask id="e" height="3.2" maskUnits="userSpaceOnUse" width="3.2" x="874" y="426"><path clip-rule="evenodd" d="M873.8 425.7h3.8v3.5h-3.8z" fill="#fff" fill-rule="evenodd"/></mask><mask id="f" height="3.1" maskUnits="userSpaceOnUse" width="1.3" x="670.7" y="271.8"><path clip-rule="evenodd" d="M670.6 271.4h2.7v3.9h-2.7z" fill="#fff" fill-rule="evenodd"/></mask><mask id="g" height="3.2" maskUnits="userSpaceOnUse" width="1.4" x="670.6" y="249.8"><path clip-rule="evenodd" d="M670.6 249.5h2.6v3.8h-2.6z" fill="#fff" fill-rule="evenodd"/></mask><mask id="h" height="3.2" maskUnits="userSpaceOnUse" width="3.2" x="822.7" y="95.5"><path clip-rule="evenodd" d="M822.4 95.5h3.8V99h-3.8z" fill="#fff" fill-rule="evenodd"/></mask><mask id="i" height="3.2" maskUnits="userSpaceOnUse" width="3.2" x="805.6" y="95.5"><path clip-rule="evenodd" d="M805.3 95.5h3.8V99h-3.8z" fill="#fff" fill-rule="evenodd"/></mask><mask id="j" height="3.2" maskUnits="userSpaceOnUse" width="3.2" x="839.8" y="95.5"><path clip-rule="evenodd" d="M839.5 95.5h3.9V99h-3.9z" fill="#fff" fill-rule="evenodd"/></mask><mask id="k" height="3.2" maskUnits="userSpaceOnUse" width="3.2" x="874" y="95.5"><path clip-rule="evenodd" d="M873.8 95.5h3.8V99h-3.8z" fill="#fff" fill-rule="evenodd"/></mask><mask id="l" height="3.2" maskUnits="userSpaceOnUse" width="3.2" x="856.9" y="95.5"><path clip-rule="evenodd" d="M856.6 95.5h3.9V99h-3.9z" fill="#fff" fill-rule="evenodd"/></mask><mask id="m" height="3.2" maskUnits="userSpaceOnUse" width="3.2" x="891.1" y="426"><path clip-rule="evenodd" d="M890.9 425.6h3.8v3.6h-3.8z" fill="#fff" fill-rule="evenodd"/></mask><g clip-rule="evenodd" fill="#5f67b9" fill-rule="evenodd"><path d="M551 .2C180.9-42.7 0 253.4 0 565.7s246.7 565.5 551 565.5 551-253.2 551-565.5S853.4 35.2 551 .2z" opacity=".277"/><path d="M1650.9 248.1c-449.3-40.4-370.3 306.8-973.7 207.1-603.4-99.6-379.8 675.8-31.7 530C993.7 839.3 1923 678.6 1923 678.6s177.3-390.1-272.1-430.5z" opacity=".3"/><path d="M856.9 427.6c0 .9.7 1.6 1.6 1.6s1.6-.7 1.6-1.6-.7-1.6-1.6-1.6c-.8 0-1.6.7-1.6 1.6" mask="url(#a)"/><path d="M839.8 427.6c0 .9.7 1.6 1.6 1.6s1.6-.7 1.6-1.6-.7-1.6-1.6-1.6c-.8 0-1.6.7-1.6 1.6" mask="url(#b)"/><path d="M805.6 427.6c0 .5.2.9.5 1.2.5.1 1.1.2 1.6.3.6-.2 1.1-.8 1.1-1.5 0-.9-.7-1.6-1.6-1.6s-1.6.7-1.6 1.6" mask="url(#c)"/><path d="M822.7 427.6v.5c0 .1.1.2.1.3v.1c0 .1.1.2.2.2.3.3.7.6 1.2.6s.9-.2 1.2-.6c.1-.1.2-.3.2-.4v-.1c0-.2.1-.3.1-.5 0-.9-.7-1.6-1.6-1.6-.7-.1-1.4.6-1.4 1.5" mask="url(#d)"/><path d="M874 427.6c0 .2 0 .3.1.5v.1c.1.1.1.3.2.4.3.4.7.6 1.2.6s.9-.2 1.2-.6c.1-.1.1-.2.2-.2v-.1c0-.1.1-.2.1-.3v-.1-.4c0-.9-.7-1.6-1.6-1.6-.6.1-1.4.8-1.4 1.7" mask="url(#e)"/><path d="M771.4 405.6c0 .9.7 1.6 1.6 1.6s1.6-.7 1.6-1.6-.7-1.6-1.6-1.6c-.9-.1-1.6.7-1.6 1.6M788.5 405.6c0 .9.7 1.6 1.6 1.6s1.6-.7 1.6-1.6-.7-1.6-1.6-1.6c-.9-.1-1.6.7-1.6 1.6M754.3 405.6c0 .9.7 1.6 1.6 1.6s1.6-.7 1.6-1.6-.7-1.6-1.6-1.6c-.9-.1-1.6.7-1.6 1.6M856.9 405.6c0 .9.7 1.6 1.6 1.6s1.6-.7 1.6-1.6-.7-1.6-1.6-1.6c-.8-.1-1.6.7-1.6 1.6M874 405.6c0 .9.7 1.6 1.6 1.6s1.6-.7 1.6-1.6-.7-1.6-1.6-1.6c-.8-.1-1.6.7-1.6 1.6M805.6 405.6c0 .9.7 1.6 1.6 1.6s1.6-.7 1.6-1.6-.7-1.6-1.6-1.6c-.9-.1-1.6.7-1.6 1.6M839.8 405.6c0 .9.7 1.6 1.6 1.6s1.6-.7 1.6-1.6-.7-1.6-1.6-1.6c-.8-.1-1.6.7-1.6 1.6M822.7 405.6c0 .9.7 1.6 1.6 1.6s1.6-.7 1.6-1.6-.7-1.6-1.6-1.6c-.9-.1-1.6.7-1.6 1.6M805.6 383.5c0 .9.7 1.6 1.6 1.6s1.6-.7 1.6-1.6-.7-1.6-1.6-1.6-1.6.7-1.6 1.6M839.8 383.5c0 .9.7 1.6 1.6 1.6s1.6-.7 1.6-1.6-.7-1.6-1.6-1.6c-.8 0-1.6.7-1.6 1.6M822.7 383.5c0 .9.7 1.6 1.6 1.6s1.6-.7 1.6-1.6-.7-1.6-1.6-1.6-1.6.7-1.6 1.6M754.3 383.5c0 .9.7 1.6 1.6 1.6s1.6-.7 1.6-1.6-.7-1.6-1.6-1.6-1.6.7-1.6 1.6M788.5 383.5c0 .9.7 1.6 1.6 1.6s1.6-.7 1.6-1.6-.7-1.6-1.6-1.6-1.6.7-1.6 1.6M856.9 383.5c0 .9.7 1.6 1.6 1.6s1.6-.7 1.6-1.6-.7-1.6-1.6-1.6c-.8 0-1.6.7-1.6 1.6M771.4 383.5c0 .9.7 1.6 1.6 1.6s1.6-.7 1.6-1.6-.7-1.6-1.6-1.6-1.6.7-1.6 1.6M722.9 384.6c.3-.3.4-.7.4-1.1 0-.9-.7-1.6-1.6-1.6-.4 0-.8.2-1.1.4.8.8 1.5 1.6 2.3 2.3M737.2 383.5c0 .9.7 1.6 1.6 1.6s1.6-.7 1.6-1.6-.7-1.6-1.6-1.6-1.6.7-1.6 1.6M874 383.5c0 .9.7 1.6 1.6 1.6s1.6-.7 1.6-1.6-.7-1.6-1.6-1.6c-.8 0-1.6.7-1.6 1.6M805.6 361.5c0 .9.7 1.6 1.6 1.6s1.6-.7 1.6-1.6-.7-1.6-1.6-1.6-1.6.7-1.6 1.6M839.8 361.5c0 .9.7 1.6 1.6 1.6s1.6-.7 1.6-1.6-.7-1.6-1.6-1.6c-.8 0-1.6.7-1.6 1.6M822.7 361.5c0 .9.7 1.6 1.6 1.6s1.6-.7 1.6-1.6-.7-1.6-1.6-1.6-1.6.7-1.6 1.6M771.4 361.5c0 .9.7 1.6 1.6 1.6s1.6-.7 1.6-1.6-.7-1.6-1.6-1.6-1.6.7-1.6 1.6M720.1 361.5c0 .9.7 1.6 1.6 1.6s1.6-.7 1.6-1.6-.7-1.6-1.6-1.6-1.6.7-1.6 1.6M737.2 361.5c0 .9.7 1.6 1.6 1.6s1.6-.7 1.6-1.6-.7-1.6-1.6-1.6-1.6.7-1.6 1.6M754.3 361.5c0 .9.7 1.6 1.6 1.6s1.6-.7 1.6-1.6-.7-1.6-1.6-1.6-1.6.7-1.6 1.6M788.5 361.5c0 .9.7 1.6 1.6 1.6s1.6-.7 1.6-1.6-.7-1.6-1.6-1.6-1.6.7-1.6 1.6M874 361.5c0 .9.7 1.6 1.6 1.6s1.6-.7 1.6-1.6-.7-1.6-1.6-1.6c-.8 0-1.6.7-1.6 1.6M856.9 361.5c0 .9.7 1.6 1.6 1.6s1.6-.7 1.6-1.6-.7-1.6-1.6-1.6c-.8 0-1.6.7-1.6 1.6M703 361.5v.2c.3.4.6.8.9 1.3.2.1.4.2.7.2.9 0 1.6-.7 1.6-1.6s-.7-1.6-1.6-1.6c-.9-.1-1.6.6-1.6 1.5M874 339.5c0 .9.7 1.6 1.6 1.6s1.6-.7 1.6-1.6-.7-1.6-1.6-1.6c-.8 0-1.6.7-1.6 1.6M856.9 339.5c0 .9.7 1.6 1.6 1.6s1.6-.7 1.6-1.6-.7-1.6-1.6-1.6c-.8 0-1.6.7-1.6 1.6M754.3 339.5c0 .9.7 1.6 1.6 1.6s1.6-.7 1.6-1.6-.7-1.6-1.6-1.6-1.6.7-1.6 1.6M737.2 339.5c0 .9.7 1.6 1.6 1.6s1.6-.7 1.6-1.6-.7-1.6-1.6-1.6-1.6.7-1.6 1.6M771.4 339.5c0 .9.7 1.6 1.6 1.6s1.6-.7 1.6-1.6-.7-1.6-1.6-1.6-1.6.7-1.6 1.6M839.8 339.5c0 .9.7 1.6 1.6 1.6s1.6-.7 1.6-1.6-.7-1.6-1.6-1.6c-.8 0-1.6.7-1.6 1.6M822.7 339.5c0 .9.7 1.6 1.6 1.6s1.6-.7 1.6-1.6-.7-1.6-1.6-1.6-1.6.7-1.6 1.6M805.6 339.5c0 .9.7 1.6 1.6 1.6s1.6-.7 1.6-1.6-.7-1.6-1.6-1.6-1.6.7-1.6 1.6M788.5 339.5c0 .9.7 1.6 1.6 1.6s1.6-.7 1.6-1.6-.7-1.6-1.6-1.6-1.6.7-1.6 1.6M720.1 339.5c0 .9.7 1.6 1.6 1.6s1.6-.7 1.6-1.6-.7-1.6-1.6-1.6-1.6.7-1.6 1.6M703 339.5c0 .9.7 1.6 1.6 1.6s1.6-.7 1.6-1.6-.7-1.6-1.6-1.6-1.6.7-1.6 1.6M856.9 317.4c0 .9.7 1.6 1.6 1.6s1.6-.7 1.6-1.6-.7-1.6-1.6-1.6c-.8 0-1.6.8-1.6 1.6M839.8 317.4c0 .9.7 1.6 1.6 1.6s1.6-.7 1.6-1.6-.7-1.6-1.6-1.6c-.8 0-1.6.8-1.6 1.6M874 317.4c0 .9.7 1.6 1.6 1.6s1.6-.7 1.6-1.6-.7-1.6-1.6-1.6c-.8 0-1.6.8-1.6 1.6M805.6 317.4c0 .9.7 1.6 1.6 1.6s1.6-.7 1.6-1.6-.7-1.6-1.6-1.6-1.6.8-1.6 1.6M822.7 317.4c0 .9.7 1.6 1.6 1.6s1.6-.7 1.6-1.6-.7-1.6-1.6-1.6-1.6.8-1.6 1.6M788.5 317.4c0 .9.7 1.6 1.6 1.6s1.6-.7 1.6-1.6-.7-1.6-1.6-1.6-1.6.8-1.6 1.6M720.1 317.4c0 .9.7 1.6 1.6 1.6s1.6-.7 1.6-1.6-.7-1.6-1.6-1.6-1.6.8-1.6 1.6M685.9 317.4c0 .9.7 1.6 1.6 1.6s1.6-.7 1.6-1.6-.7-1.6-1.6-1.6-1.6.8-1.6 1.6M703 317.4c0 .9.7 1.6 1.6 1.6s1.6-.7 1.6-1.6-.7-1.6-1.6-1.6-1.6.8-1.6 1.6M771.4 317.4c0 .9.7 1.6 1.6 1.6s1.6-.7 1.6-1.6-.7-1.6-1.6-1.6-1.6.8-1.6 1.6M737.2 317.4c0 .9.7 1.6 1.6 1.6s1.6-.7 1.6-1.6-.7-1.6-1.6-1.6-1.6.8-1.6 1.6M754.3 317.4c0 .9.7 1.6 1.6 1.6s1.6-.7 1.6-1.6-.7-1.6-1.6-1.6-1.6.8-1.6 1.6M805.6 295.4c0 .9.7 1.6 1.6 1.6s1.6-.7 1.6-1.6-.7-1.6-1.6-1.6-1.6.7-1.6 1.6M788.5 295.4c0 .9.7 1.6 1.6 1.6s1.6-.7 1.6-1.6-.7-1.6-1.6-1.6-1.6.7-1.6 1.6M685.9 295.4c0 .9.7 1.6 1.6 1.6s1.6-.7 1.6-1.6-.7-1.6-1.6-1.6-1.6.7-1.6 1.6M771.4 295.4c0 .9.7 1.6 1.6 1.6s1.6-.7 1.6-1.6-.7-1.6-1.6-1.6-1.6.7-1.6 1.6M839.8 295.4c0 .9.7 1.6 1.6 1.6s1.6-.7 1.6-1.6-.7-1.6-1.6-1.6c-.8 0-1.6.7-1.6 1.6M737.2 295.4c0 .9.7 1.6 1.6 1.6s1.6-.7 1.6-1.6-.7-1.6-1.6-1.6-1.6.7-1.6 1.6M720.1 295.4c0 .9.7 1.6 1.6 1.6s1.6-.7 1.6-1.6-.7-1.6-1.6-1.6-1.6.7-1.6 1.6M754.3 295.4c0 .9.7 1.6 1.6 1.6s1.6-.7 1.6-1.6-.7-1.6-1.6-1.6-1.6.7-1.6 1.6M856.9 295.4c0 .9.7 1.6 1.6 1.6s1.6-.7 1.6-1.6-.7-1.6-1.6-1.6c-.8 0-1.6.7-1.6 1.6M822.7 295.4c0 .9.7 1.6 1.6 1.6s1.6-.7 1.6-1.6-.7-1.6-1.6-1.6-1.6.7-1.6 1.6M874 295.4c0 .9.7 1.6 1.6 1.6s1.6-.7 1.6-1.6-.7-1.6-1.6-1.6c-.8 0-1.6.7-1.6 1.6M703 295.4c0 .9.7 1.6 1.6 1.6s1.6-.7 1.6-1.6-.7-1.6-1.6-1.6-1.6.7-1.6 1.6"/><path d="M672 273.4c0-.4-.2-.8-.5-1.2-.2-.2-.5-.4-.8-.4.1 1 .1 2.1.2 3.1.2-.1.4-.2.6-.4.3-.3.5-.7.5-1.1" mask="url(#f)"/><path d="M839.8 273.4c0 .9.7 1.6 1.6 1.6s1.6-.7 1.6-1.6-.7-1.6-1.6-1.6c-.8 0-1.6.7-1.6 1.6M822.7 273.4c0 .9.7 1.6 1.6 1.6s1.6-.7 1.6-1.6-.7-1.6-1.6-1.6-1.6.7-1.6 1.6M805.6 273.4c0 .9.7 1.6 1.6 1.6s1.6-.7 1.6-1.6-.7-1.6-1.6-1.6-1.6.7-1.6 1.6M856.9 273.4c0 .9.7 1.6 1.6 1.6s1.6-.7 1.6-1.6-.7-1.6-1.6-1.6c-.8 0-1.6.7-1.6 1.6M874 273.4c0 .9.7 1.6 1.6 1.6s1.6-.7 1.6-1.6-.7-1.6-1.6-1.6c-.8 0-1.6.7-1.6 1.6M685.9 273.4c0 .9.7 1.6 1.6 1.6s1.6-.7 1.6-1.6-.7-1.6-1.6-1.6-1.6.7-1.6 1.6M703 273.4c0 .9.7 1.6 1.6 1.6s1.6-.7 1.6-1.6-.7-1.6-1.6-1.6-1.6.7-1.6 1.6M737.2 273.4c0 .9.7 1.6 1.6 1.6s1.6-.7 1.6-1.6-.7-1.6-1.6-1.6-1.6.7-1.6 1.6M754.3 273.4c0 .9.7 1.6 1.6 1.6s1.6-.7 1.6-1.6-.7-1.6-1.6-1.6-1.6.7-1.6 1.6M771.4 273.4c0 .9.7 1.6 1.6 1.6s1.6-.7 1.6-1.6-.7-1.6-1.6-1.6-1.6.7-1.6 1.6M788.5 273.4c0 .9.7 1.6 1.6 1.6s1.6-.7 1.6-1.6-.7-1.6-1.6-1.6-1.6.7-1.6 1.6M720.1 273.4c0 .9.7 1.6 1.6 1.6s1.6-.7 1.6-1.6-.7-1.6-1.6-1.6-1.6.7-1.6 1.6"/><path d="M672 251.4c0-.4-.2-.8-.5-1.1-.2-.2-.5-.4-.8-.4-.1 1.1-.1 2.1-.2 3.2.4 0 .7-.2.9-.5.4-.4.6-.8.6-1.2" mask="url(#g)"/><path d="M822.7 251.4c0 .9.7 1.6 1.6 1.6s1.6-.7 1.6-1.6-.7-1.6-1.6-1.6c-.9-.1-1.6.7-1.6 1.6M805.6 251.4c0 .9.7 1.6 1.6 1.6s1.6-.7 1.6-1.6-.7-1.6-1.6-1.6c-.9-.1-1.6.7-1.6 1.6M771.4 251.4c0 .9.7 1.6 1.6 1.6s1.6-.7 1.6-1.6-.7-1.6-1.6-1.6c-.9-.1-1.6.7-1.6 1.6M754.3 251.4c0 .9.7 1.6 1.6 1.6s1.6-.7 1.6-1.6-.7-1.6-1.6-1.6c-.9-.1-1.6.7-1.6 1.6M737.2 251.4c0 .9.7 1.6 1.6 1.6s1.6-.7 1.6-1.6-.7-1.6-1.6-1.6c-.9-.1-1.6.7-1.6 1.6M856.9 251.4c0 .9.7 1.6 1.6 1.6s1.6-.7 1.6-1.6-.7-1.6-1.6-1.6c-.8-.1-1.6.7-1.6 1.6M839.8 251.4c0 .9.7 1.6 1.6 1.6s1.6-.7 1.6-1.6-.7-1.6-1.6-1.6c-.8-.1-1.6.7-1.6 1.6M874 251.4c0 .9.7 1.6 1.6 1.6s1.6-.7 1.6-1.6-.7-1.6-1.6-1.6c-.8-.1-1.6.7-1.6 1.6M720.1 251.4c0 .9.7 1.6 1.6 1.6s1.6-.7 1.6-1.6-.7-1.6-1.6-1.6c-.9-.1-1.6.7-1.6 1.6M788.5 251.4c0 .9.7 1.6 1.6 1.6s1.6-.7 1.6-1.6-.7-1.6-1.6-1.6c-.9-.1-1.6.7-1.6 1.6M703 251.4c0 .9.7 1.6 1.6 1.6s1.6-.7 1.6-1.6-.7-1.6-1.6-1.6c-.9-.1-1.6.7-1.6 1.6M685.9 251.4c0 .9.7 1.6 1.6 1.6s1.6-.7 1.6-1.6-.7-1.6-1.6-1.6c-.9-.1-1.6.7-1.6 1.6M874 229.3c0 .9.7 1.6 1.6 1.6s1.6-.7 1.6-1.6-.7-1.6-1.6-1.6c-.8 0-1.6.7-1.6 1.6M805.6 229.3c0 .9.7 1.6 1.6 1.6s1.6-.7 1.6-1.6-.7-1.6-1.6-1.6-1.6.7-1.6 1.6M856.9 229.3c0 .9.7 1.6 1.6 1.6s1.6-.7 1.6-1.6-.7-1.6-1.6-1.6c-.8 0-1.6.7-1.6 1.6M822.7 229.3c0 .9.7 1.6 1.6 1.6s1.6-.7 1.6-1.6-.7-1.6-1.6-1.6-1.6.7-1.6 1.6M788.5 229.3c0 .9.7 1.6 1.6 1.6s1.6-.7 1.6-1.6-.7-1.6-1.6-1.6-1.6.7-1.6 1.6M839.8 229.3c0 .9.7 1.6 1.6 1.6s1.6-.7 1.6-1.6-.7-1.6-1.6-1.6c-.8 0-1.6.7-1.6 1.6M720.1 229.3c0 .9.7 1.6 1.6 1.6s1.6-.7 1.6-1.6-.7-1.6-1.6-1.6-1.6.7-1.6 1.6M685.9 229.3c0 .9.7 1.6 1.6 1.6s1.6-.7 1.6-1.6-.7-1.6-1.6-1.6-1.6.7-1.6 1.6M771.4 229.3c0 .9.7 1.6 1.6 1.6s1.6-.7 1.6-1.6-.7-1.6-1.6-1.6-1.6.7-1.6 1.6M703 229.3c0 .9.7 1.6 1.6 1.6s1.6-.7 1.6-1.6-.7-1.6-1.6-1.6-1.6.7-1.6 1.6M737.2 229.3c0 .9.7 1.6 1.6 1.6s1.6-.7 1.6-1.6-.7-1.6-1.6-1.6-1.6.7-1.6 1.6M754.3 229.3c0 .9.7 1.6 1.6 1.6s1.6-.7 1.6-1.6-.7-1.6-1.6-1.6-1.6.7-1.6 1.6M685.9 207.3c0 .9.7 1.6 1.6 1.6s1.6-.7 1.6-1.6-.7-1.6-1.6-1.6-1.6.7-1.6 1.6M737.2 207.3c0 .9.7 1.6 1.6 1.6s1.6-.7 1.6-1.6-.7-1.6-1.6-1.6-1.6.7-1.6 1.6M720.1 207.3c0 .9.7 1.6 1.6 1.6s1.6-.7 1.6-1.6-.7-1.6-1.6-1.6-1.6.7-1.6 1.6M703 207.3c0 .9.7 1.6 1.6 1.6s1.6-.7 1.6-1.6-.7-1.6-1.6-1.6-1.6.7-1.6 1.6M788.5 207.3c0 .9.7 1.6 1.6 1.6s1.6-.7 1.6-1.6-.7-1.6-1.6-1.6-1.6.7-1.6 1.6M874 207.3c0 .9.7 1.6 1.6 1.6s1.6-.7 1.6-1.6-.7-1.6-1.6-1.6c-.8 0-1.6.7-1.6 1.6M771.4 207.3c0 .9.7 1.6 1.6 1.6s1.6-.7 1.6-1.6-.7-1.6-1.6-1.6-1.6.7-1.6 1.6M754.3 207.3c0 .9.7 1.6 1.6 1.6s1.6-.7 1.6-1.6-.7-1.6-1.6-1.6-1.6.7-1.6 1.6M856.9 207.3c0 .9.7 1.6 1.6 1.6s1.6-.7 1.6-1.6-.7-1.6-1.6-1.6c-.8 0-1.6.7-1.6 1.6M839.8 207.3c0 .9.7 1.6 1.6 1.6s1.6-.7 1.6-1.6-.7-1.6-1.6-1.6c-.8 0-1.6.7-1.6 1.6M822.7 207.3c0 .9.7 1.6 1.6 1.6s1.6-.7 1.6-1.6-.7-1.6-1.6-1.6-1.6.7-1.6 1.6M805.6 207.3c0 .9.7 1.6 1.6 1.6s1.6-.7 1.6-1.6-.7-1.6-1.6-1.6-1.6.7-1.6 1.6M822.7 185.3c0 .9.7 1.6 1.6 1.6s1.6-.7 1.6-1.6-.7-1.6-1.6-1.6c-.9-.1-1.6.7-1.6 1.6M788.5 185.3c0 .9.7 1.6 1.6 1.6s1.6-.7 1.6-1.6-.7-1.6-1.6-1.6c-.9-.1-1.6.7-1.6 1.6M805.6 185.3c0 .9.7 1.6 1.6 1.6s1.6-.7 1.6-1.6-.7-1.6-1.6-1.6c-.9-.1-1.6.7-1.6 1.6M754.3 185.3c0 .9.7 1.6 1.6 1.6s1.6-.7 1.6-1.6-.7-1.6-1.6-1.6c-.9-.1-1.6.7-1.6 1.6M771.4 185.3c0 .9.7 1.6 1.6 1.6s1.6-.7 1.6-1.6-.7-1.6-1.6-1.6c-.9-.1-1.6.7-1.6 1.6M737.2 185.3c0 .9.7 1.6 1.6 1.6s1.6-.7 1.6-1.6-.7-1.6-1.6-1.6c-.9-.1-1.6.7-1.6 1.6M703 185.3c0 .9.7 1.6 1.6 1.6s1.6-.7 1.6-1.6-.7-1.6-1.6-1.6c-.9-.1-1.6.7-1.6 1.6M689.1 185.3c0-.5-.2-.9-.5-1.2-.5.9-.9 1.8-1.4 2.8h.2c1 0 1.7-.7 1.7-1.6M720.1 185.3c0 .9.7 1.6 1.6 1.6s1.6-.7 1.6-1.6-.7-1.6-1.6-1.6c-.9-.1-1.6.7-1.6 1.6M839.8 185.3c0 .9.7 1.6 1.6 1.6s1.6-.7 1.6-1.6-.7-1.6-1.6-1.6c-.8-.1-1.6.7-1.6 1.6M856.9 185.3c0 .9.7 1.6 1.6 1.6s1.6-.7 1.6-1.6-.7-1.6-1.6-1.6c-.8-.1-1.6.7-1.6 1.6M874 185.3c0 .9.7 1.6 1.6 1.6s1.6-.7 1.6-1.6-.7-1.6-1.6-1.6c-.8-.1-1.6.7-1.6 1.6M737.2 163.2c0 .9.7 1.6 1.6 1.6s1.6-.7 1.6-1.6-.7-1.6-1.6-1.6-1.6.7-1.6 1.6M874 163.2c0 .9.7 1.6 1.6 1.6s1.6-.7 1.6-1.6-.7-1.6-1.6-1.6c-.8 0-1.6.7-1.6 1.6M856.9 163.2c0 .9.7 1.6 1.6 1.6s1.6-.7 1.6-1.6-.7-1.6-1.6-1.6c-.8 0-1.6.7-1.6 1.6M771.4 163.2c0 .9.7 1.6 1.6 1.6s1.6-.7 1.6-1.6-.7-1.6-1.6-1.6-1.6.7-1.6 1.6M720.1 163.2c0 .9.7 1.6 1.6 1.6s1.6-.7 1.6-1.6-.7-1.6-1.6-1.6-1.6.7-1.6 1.6M839.8 163.2c0 .9.7 1.6 1.6 1.6s1.6-.7 1.6-1.6-.7-1.6-1.6-1.6c-.8 0-1.6.7-1.6 1.6M703 163.2c0 .9.7 1.6 1.6 1.6s1.6-.7 1.6-1.6-.7-1.6-1.6-1.6-1.6.7-1.6 1.6M754.3 163.2c0 .9.7 1.6 1.6 1.6s1.6-.7 1.6-1.6-.7-1.6-1.6-1.6-1.6.7-1.6 1.6M805.6 163.2c0 .9.7 1.6 1.6 1.6s1.6-.7 1.6-1.6-.7-1.6-1.6-1.6-1.6.7-1.6 1.6M788.5 163.2c0 .9.7 1.6 1.6 1.6s1.6-.7 1.6-1.6-.7-1.6-1.6-1.6-1.6.7-1.6 1.6M822.7 163.2c0 .9.7 1.6 1.6 1.6s1.6-.7 1.6-1.6-.7-1.6-1.6-1.6-1.6.7-1.6 1.6M822.7 141.2c0 .9.7 1.6 1.6 1.6s1.6-.7 1.6-1.6-.7-1.6-1.6-1.6-1.6.7-1.6 1.6M805.6 141.2c0 .9.7 1.6 1.6 1.6s1.6-.7 1.6-1.6-.7-1.6-1.6-1.6-1.6.7-1.6 1.6M754.3 141.2c0 .9.7 1.6 1.6 1.6s1.6-.7 1.6-1.6-.7-1.6-1.6-1.6-1.6.7-1.6 1.6M720.1 141.2c0 .9.7 1.6 1.6 1.6s1.6-.7 1.6-1.6-.7-1.6-1.6-1.6-1.6.7-1.6 1.6M737.2 141.2c0 .9.7 1.6 1.6 1.6s1.6-.7 1.6-1.6-.7-1.6-1.6-1.6-1.6.7-1.6 1.6M788.5 141.2c0 .9.7 1.6 1.6 1.6s1.6-.7 1.6-1.6-.7-1.6-1.6-1.6-1.6.7-1.6 1.6M874 141.2c0 .9.7 1.6 1.6 1.6s1.6-.7 1.6-1.6-.7-1.6-1.6-1.6c-.8 0-1.6.7-1.6 1.6M771.4 141.2c0 .9.7 1.6 1.6 1.6s1.6-.7 1.6-1.6-.7-1.6-1.6-1.6-1.6.7-1.6 1.6M856.9 141.2c0 .9.7 1.6 1.6 1.6s1.6-.7 1.6-1.6-.7-1.6-1.6-1.6c-.8 0-1.6.7-1.6 1.6M839.8 141.2c0 .9.7 1.6 1.6 1.6s1.6-.7 1.6-1.6-.7-1.6-1.6-1.6c-.8 0-1.6.7-1.6 1.6M788.5 119.2c0 .9.7 1.6 1.6 1.6s1.6-.7 1.6-1.6-.7-1.6-1.6-1.6c-.9-.1-1.6.7-1.6 1.6M822.7 119.2c0 .9.7 1.6 1.6 1.6s1.6-.7 1.6-1.6-.7-1.6-1.6-1.6c-.9-.1-1.6.7-1.6 1.6M874 119.2c0 .9.7 1.6 1.6 1.6s1.6-.7 1.6-1.6-.7-1.6-1.6-1.6c-.8-.1-1.6.7-1.6 1.6M839.8 119.2c0 .9.7 1.6 1.6 1.6s1.6-.7 1.6-1.6-.7-1.6-1.6-1.6c-.8-.1-1.6.7-1.6 1.6M754.3 119.2c0 .9.7 1.6 1.6 1.6s1.6-.7 1.6-1.6-.7-1.6-1.6-1.6c-.9-.1-1.6.7-1.6 1.6M771.4 119.2c0 .9.7 1.6 1.6 1.6s1.6-.7 1.6-1.6-.7-1.6-1.6-1.6c-.9-.1-1.6.7-1.6 1.6M805.6 119.2c0 .9.7 1.6 1.6 1.6s1.6-.7 1.6-1.6-.7-1.6-1.6-1.6c-.9-.1-1.6.7-1.6 1.6M856.9 119.2c0 .9.7 1.6 1.6 1.6s1.6-.7 1.6-1.6-.7-1.6-1.6-1.6c-.8-.1-1.6.7-1.6 1.6"/><path d="M822.7 97.1c0 .9.7 1.6 1.6 1.6s1.6-.7 1.6-1.6-.7-1.6-1.6-1.6-1.6.7-1.6 1.6" mask="url(#h)"/><path d="M808.9 97.1c0-.9-.7-1.6-1.6-1.6s-1.6.7-1.6 1.6.7 1.6 1.6 1.6c.8.1 1.6-.7 1.6-1.6" mask="url(#i)"/><path d="M839.8 97.1c0 .9.7 1.6 1.6 1.6s1.6-.7 1.6-1.6-.7-1.6-1.6-1.6c-.8 0-1.6.7-1.6 1.6" mask="url(#j)"/><path d="M874 97.1c0 .9.7 1.6 1.6 1.6s1.6-.7 1.6-1.6-.7-1.6-1.6-1.6c-.8 0-1.6.7-1.6 1.6" mask="url(#k)"/><path d="M856.9 97.1c0 .9.7 1.6 1.6 1.6s1.6-.7 1.6-1.6-.7-1.6-1.6-1.6c-.8 0-1.6.7-1.6 1.6" mask="url(#l)"/><path d="M791.8 97.2c-1 .3-2 .6-2.9.9.3.4.8.7 1.3.7.8 0 1.5-.8 1.6-1.6"/><path d="M891.1 427.6c0 .7.5 1.3 1.1 1.5.5-.1 1.1-.2 1.6-.3.3-.3.5-.7.5-1.2 0-.9-.7-1.6-1.6-1.6-.8 0-1.6.7-1.6 1.6" mask="url(#m)"/><path d="M925.4 405.6c0 .9.7 1.6 1.6 1.6s1.6-.7 1.6-1.6-.7-1.6-1.6-1.6c-.9-.1-1.6.7-1.6 1.6M908.2 405.6c0 .9.7 1.6 1.6 1.6s1.6-.7 1.6-1.6-.7-1.6-1.6-1.6c-.8-.1-1.6.7-1.6 1.6M942.5 405.6c0 .9.7 1.6 1.6 1.6s1.6-.7 1.6-1.6-.7-1.6-1.6-1.6c-.9-.1-1.6.7-1.6 1.6M891.1 405.6c0 .9.7 1.6 1.6 1.6s1.6-.7 1.6-1.6-.7-1.6-1.6-1.6c-.8-.1-1.6.7-1.6 1.6M891.1 383.5c0 .9.7 1.6 1.6 1.6s1.6-.7 1.6-1.6-.7-1.6-1.6-1.6c-.8 0-1.6.7-1.6 1.6M942.5 383.5c0 .9.7 1.6 1.6 1.6s1.6-.7 1.6-1.6-.7-1.6-1.6-1.6-1.6.7-1.6 1.6M908.2 383.5c0 .9.7 1.6 1.6 1.6s1.6-.7 1.6-1.6-.7-1.6-1.6-1.6c-.8 0-1.6.7-1.6 1.6M925.4 383.5c0 .9.7 1.6 1.6 1.6s1.6-.7 1.6-1.6-.7-1.6-1.6-1.6-1.6.7-1.6 1.6M976.7 383.5c0 .4.2.8.4 1.1.8-.8 1.6-1.5 2.3-2.3-.3-.3-.7-.4-1.1-.4-.9 0-1.6.7-1.6 1.6M959.6 383.5c0 .9.7 1.6 1.6 1.6s1.6-.7 1.6-1.6-.7-1.6-1.6-1.6-1.6.7-1.6 1.6M891.1 361.5c0 .9.7 1.6 1.6 1.6s1.6-.7 1.6-1.6-.7-1.6-1.6-1.6c-.8 0-1.6.7-1.6 1.6M925.4 361.5c0 .9.7 1.6 1.6 1.6s1.6-.7 1.6-1.6-.7-1.6-1.6-1.6-1.6.7-1.6 1.6M976.7 361.5c0 .9.7 1.6 1.6 1.6s1.6-.7 1.6-1.6-.7-1.6-1.6-1.6-1.6.7-1.6 1.6M959.6 361.5c0 .9.7 1.6 1.6 1.6s1.6-.7 1.6-1.6-.7-1.6-1.6-1.6-1.6.7-1.6 1.6M942.5 361.5c0 .9.7 1.6 1.6 1.6s1.6-.7 1.6-1.6-.7-1.6-1.6-1.6-1.6.7-1.6 1.6M908.2 361.5c0 .9.7 1.6 1.6 1.6s1.6-.7 1.6-1.6-.7-1.6-1.6-1.6c-.8 0-1.6.7-1.6 1.6M993.8 361.5c0 .9.7 1.6 1.6 1.6.2 0 .5-.1.7-.2.3-.4.6-.8.9-1.3v-.2c0-.9-.7-1.6-1.6-1.6-.9.1-1.6.8-1.6 1.7M942.5 339.5c0 .9.7 1.6 1.6 1.6s1.6-.7 1.6-1.6-.7-1.6-1.6-1.6-1.6.7-1.6 1.6M959.6 339.5c0 .9.7 1.6 1.6 1.6s1.6-.7 1.6-1.6-.7-1.6-1.6-1.6-1.6.7-1.6 1.6M925.4 339.5c0 .9.7 1.6 1.6 1.6s1.6-.7 1.6-1.6-.7-1.6-1.6-1.6-1.6.7-1.6 1.6M891.1 339.5c0 .9.7 1.6 1.6 1.6s1.6-.7 1.6-1.6-.7-1.6-1.6-1.6c-.8 0-1.6.7-1.6 1.6M908.2 339.5c0 .9.7 1.6 1.6 1.6s1.6-.7 1.6-1.6-.7-1.6-1.6-1.6c-.8 0-1.6.7-1.6 1.6M976.7 339.5c0 .9.7 1.6 1.6 1.6s1.6-.7 1.6-1.6-.7-1.6-1.6-1.6-1.6.7-1.6 1.6M993.8 339.5c0 .9.7 1.6 1.6 1.6s1.6-.7 1.6-1.6-.7-1.6-1.6-1.6-1.6.7-1.6 1.6M891.1 317.4c0 .9.7 1.6 1.6 1.6s1.6-.7 1.6-1.6-.7-1.6-1.6-1.6c-.8 0-1.6.8-1.6 1.6M908.2 317.4c0 .9.7 1.6 1.6 1.6s1.6-.7 1.6-1.6-.7-1.6-1.6-1.6c-.8 0-1.6.8-1.6 1.6M976.7 317.4c0 .9.7 1.6 1.6 1.6s1.6-.7 1.6-1.6-.7-1.6-1.6-1.6-1.6.8-1.6 1.6M1010.9 317.4c0 .9.7 1.6 1.6 1.6s1.6-.7 1.6-1.6-.7-1.6-1.6-1.6-1.6.8-1.6 1.6M993.8 317.4c0 .9.7 1.6 1.6 1.6s1.6-.7 1.6-1.6-.7-1.6-1.6-1.6-1.6.8-1.6 1.6M925.4 317.4c0 .9.7 1.6 1.6 1.6s1.6-.7 1.6-1.6-.7-1.6-1.6-1.6-1.6.8-1.6 1.6M959.6 317.4c0 .9.7 1.6 1.6 1.6s1.6-.7 1.6-1.6-.7-1.6-1.6-1.6-1.6.8-1.6 1.6M942.5 317.4c0 .9.7 1.6 1.6 1.6s1.6-.7 1.6-1.6-.7-1.6-1.6-1.6-1.6.8-1.6 1.6M891.1 295.4c0 .9.7 1.6 1.6 1.6s1.6-.7 1.6-1.6-.7-1.6-1.6-1.6c-.8 0-1.6.7-1.6 1.6M908.2 295.4c0 .9.7 1.6 1.6 1.6s1.6-.7 1.6-1.6-.7-1.6-1.6-1.6c-.8 0-1.6.7-1.6 1.6M1010.9 295.4c0 .9.7 1.6 1.6 1.6s1.6-.7 1.6-1.6-.7-1.6-1.6-1.6-1.6.7-1.6 1.6M925.4 295.4c0 .9.7 1.6 1.6 1.6s1.6-.7 1.6-1.6-.7-1.6-1.6-1.6-1.6.7-1.6 1.6M959.6 295.4c0 .9.7 1.6 1.6 1.6s1.6-.7 1.6-1.6-.7-1.6-1.6-1.6-1.6.7-1.6 1.6M976.7 295.4c0 .9.7 1.6 1.6 1.6s1.6-.7 1.6-1.6-.7-1.6-1.6-1.6-1.6.7-1.6 1.6M942.5 295.4c0 .9.7 1.6 1.6 1.6s1.6-.7 1.6-1.6-.7-1.6-1.6-1.6-1.6.7-1.6 1.6M993.8 295.4c0 .9.7 1.6 1.6 1.6s1.6-.7 1.6-1.6-.7-1.6-1.6-1.6-1.6.7-1.6 1.6M1028 273.4c0 .4.2.8.5 1.2.2.2.4.3.6.4.1-1 .1-2.1.2-3.1-.3.1-.6.2-.8.4-.3.2-.5.7-.5 1.1M891.1 273.4c0 .9.7 1.6 1.6 1.6s1.6-.7 1.6-1.6-.7-1.6-1.6-1.6c-.8 0-1.6.7-1.6 1.6M1010.9 273.4c0 .9.7 1.6 1.6 1.6s1.6-.7 1.6-1.6-.7-1.6-1.6-1.6-1.6.7-1.6 1.6M993.8 273.4c0 .9.7 1.6 1.6 1.6s1.6-.7 1.6-1.6-.7-1.6-1.6-1.6-1.6.7-1.6 1.6M959.6 273.4c0 .9.7 1.6 1.6 1.6s1.6-.7 1.6-1.6-.7-1.6-1.6-1.6-1.6.7-1.6 1.6M942.5 273.4c0 .9.7 1.6 1.6 1.6s1.6-.7 1.6-1.6-.7-1.6-1.6-1.6-1.6.7-1.6 1.6M925.4 273.4c0 .9.7 1.6 1.6 1.6s1.6-.7 1.6-1.6-.7-1.6-1.6-1.6-1.6.7-1.6 1.6M908.2 273.4c0 .9.7 1.6 1.6 1.6s1.6-.7 1.6-1.6-.7-1.6-1.6-1.6c-.8 0-1.6.7-1.6 1.6M976.7 273.4c0 .9.7 1.6 1.6 1.6s1.6-.7 1.6-1.6-.7-1.6-1.6-1.6-1.6.7-1.6 1.6M1028 251.4c0 .4.2.8.5 1.2.3.3.6.4.9.5 0-1.1-.1-2.1-.2-3.2-.3.1-.6.2-.8.4s-.4.6-.4 1.1M891.1 251.4c0 .9.7 1.6 1.6 1.6s1.6-.7 1.6-1.6-.7-1.6-1.6-1.6c-.8-.1-1.6.7-1.6 1.6M925.4 251.4c0 .9.7 1.6 1.6 1.6s1.6-.7 1.6-1.6-.7-1.6-1.6-1.6c-.9-.1-1.6.7-1.6 1.6M942.5 251.4c0 .9.7 1.6 1.6 1.6s1.6-.7 1.6-1.6-.7-1.6-1.6-1.6c-.9-.1-1.6.7-1.6 1.6M959.6 251.4c0 .9.7 1.6 1.6 1.6s1.6-.7 1.6-1.6-.7-1.6-1.6-1.6c-.9-.1-1.6.7-1.6 1.6M976.7 251.4c0 .9.7 1.6 1.6 1.6s1.6-.7 1.6-1.6-.7-1.6-1.6-1.6c-.9-.1-1.6.7-1.6 1.6M908.2 251.4c0 .9.7 1.6 1.6 1.6s1.6-.7 1.6-1.6-.7-1.6-1.6-1.6c-.8-.1-1.6.7-1.6 1.6M993.8 251.4c0 .9.7 1.6 1.6 1.6s1.6-.7 1.6-1.6-.7-1.6-1.6-1.6c-.9-.1-1.6.7-1.6 1.6M1010.9 251.4c0 .9.7 1.6 1.6 1.6s1.6-.7 1.6-1.6-.7-1.6-1.6-1.6c-.9-.1-1.6.7-1.6 1.6M891.1 229.3c0 .9.7 1.6 1.6 1.6s1.6-.7 1.6-1.6-.7-1.6-1.6-1.6c-.8 0-1.6.7-1.6 1.6M908.2 229.3c0 .9.7 1.6 1.6 1.6s1.6-.7 1.6-1.6-.7-1.6-1.6-1.6c-.8 0-1.6.7-1.6 1.6M976.7 229.3c0 .9.7 1.6 1.6 1.6s1.6-.7 1.6-1.6-.7-1.6-1.6-1.6-1.6.7-1.6 1.6M1010.9 229.3c0 .9.7 1.6 1.6 1.6s1.6-.7 1.6-1.6-.7-1.6-1.6-1.6-1.6.7-1.6 1.6M925.4 229.3c0 .9.7 1.6 1.6 1.6s1.6-.7 1.6-1.6-.7-1.6-1.6-1.6-1.6.7-1.6 1.6M993.8 229.3c0 .9.7 1.6 1.6 1.6s1.6-.7 1.6-1.6-.7-1.6-1.6-1.6-1.6.7-1.6 1.6M959.6 229.3c0 .9.7 1.6 1.6 1.6s1.6-.7 1.6-1.6-.7-1.6-1.6-1.6-1.6.7-1.6 1.6M942.5 229.3c0 .9.7 1.6 1.6 1.6s1.6-.7 1.6-1.6-.7-1.6-1.6-1.6-1.6.7-1.6 1.6M1010.9 207.3c0 .9.7 1.6 1.6 1.6s1.6-.7 1.6-1.6-.7-1.6-1.6-1.6-1.6.7-1.6 1.6M959.6 207.3c0 .9.7 1.6 1.6 1.6s1.6-.7 1.6-1.6-.7-1.6-1.6-1.6-1.6.7-1.6 1.6M976.7 207.3c0 .9.7 1.6 1.6 1.6s1.6-.7 1.6-1.6-.7-1.6-1.6-1.6-1.6.7-1.6 1.6M993.8 207.3c0 .9.7 1.6 1.6 1.6s1.6-.7 1.6-1.6-.7-1.6-1.6-1.6-1.6.7-1.6 1.6M908.2 207.3c0 .9.7 1.6 1.6 1.6s1.6-.7 1.6-1.6-.7-1.6-1.6-1.6c-.8 0-1.6.7-1.6 1.6M925.4 207.3c0 .9.7 1.6 1.6 1.6s1.6-.7 1.6-1.6-.7-1.6-1.6-1.6-1.6.7-1.6 1.6M942.5 207.3c0 .9.7 1.6 1.6 1.6s1.6-.7 1.6-1.6-.7-1.6-1.6-1.6-1.6.7-1.6 1.6M891.1 207.3c0 .9.7 1.6 1.6 1.6s1.6-.7 1.6-1.6-.7-1.6-1.6-1.6c-.8 0-1.6.7-1.6 1.6M908.2 185.3c0 .9.7 1.6 1.6 1.6s1.6-.7 1.6-1.6-.7-1.6-1.6-1.6c-.8-.1-1.6.7-1.6 1.6M891.1 185.3c0 .9.7 1.6 1.6 1.6s1.6-.7 1.6-1.6-.7-1.6-1.6-1.6c-.8-.1-1.6.7-1.6 1.6M942.5 185.3c0 .9.7 1.6 1.6 1.6s1.6-.7 1.6-1.6-.7-1.6-1.6-1.6c-.9-.1-1.6.7-1.6 1.6M925.4 185.3c0 .9.7 1.6 1.6 1.6s1.6-.7 1.6-1.6-.7-1.6-1.6-1.6c-.9-.1-1.6.7-1.6 1.6M959.6 185.3c0 .9.7 1.6 1.6 1.6s1.6-.7 1.6-1.6-.7-1.6-1.6-1.6c-.9-.1-1.6.7-1.6 1.6M993.8 185.3c0 .9.7 1.6 1.6 1.6s1.6-.7 1.6-1.6-.7-1.6-1.6-1.6c-.9-.1-1.6.7-1.6 1.6M1012.5 186.9h.2c-.4-.9-.9-1.8-1.4-2.8-.3.3-.5.7-.5 1.2.1.9.8 1.6 1.7 1.6M976.7 185.3c0 .9.7 1.6 1.6 1.6s1.6-.7 1.6-1.6-.7-1.6-1.6-1.6c-.9-.1-1.6.7-1.6 1.6M959.6 163.2c0 .9.7 1.6 1.6 1.6s1.6-.7 1.6-1.6-.7-1.6-1.6-1.6-1.6.7-1.6 1.6M925.4 163.2c0 .9.7 1.6 1.6 1.6s1.6-.7 1.6-1.6-.7-1.6-1.6-1.6-1.6.7-1.6 1.6M976.7 163.2c0 .9.7 1.6 1.6 1.6s1.6-.7 1.6-1.6-.7-1.6-1.6-1.6-1.6.7-1.6 1.6M993.8 163.2c0 .9.7 1.6 1.6 1.6s1.6-.7 1.6-1.6-.7-1.6-1.6-1.6-1.6.7-1.6 1.6M942.5 163.2c0 .9.7 1.6 1.6 1.6s1.6-.7 1.6-1.6-.7-1.6-1.6-1.6-1.6.7-1.6 1.6M891.1 163.2c0 .9.7 1.6 1.6 1.6s1.6-.7 1.6-1.6-.7-1.6-1.6-1.6c-.8 0-1.6.7-1.6 1.6M908.2 163.2c0 .9.7 1.6 1.6 1.6s1.6-.7 1.6-1.6-.7-1.6-1.6-1.6c-.8 0-1.6.7-1.6 1.6M891.1 141.2c0 .9.7 1.6 1.6 1.6s1.6-.7 1.6-1.6-.7-1.6-1.6-1.6c-.8 0-1.6.7-1.6 1.6M942.5 141.2c0 .9.7 1.6 1.6 1.6s1.6-.7 1.6-1.6-.7-1.6-1.6-1.6-1.6.7-1.6 1.6M976.7 141.2c0 .9.7 1.6 1.6 1.6s1.6-.7 1.6-1.6-.7-1.6-1.6-1.6-1.6.7-1.6 1.6M959.6 141.2c0 .9.7 1.6 1.6 1.6s1.6-.7 1.6-1.6-.7-1.6-1.6-1.6-1.6.7-1.6 1.6M908.2 141.2c0 .9.7 1.6 1.6 1.6s1.6-.7 1.6-1.6-.7-1.6-1.6-1.6c-.8 0-1.6.7-1.6 1.6M925.4 141.2c0 .9.7 1.6 1.6 1.6s1.6-.7 1.6-1.6-.7-1.6-1.6-1.6-1.6.7-1.6 1.6M908.2 119.2c0 .9.7 1.6 1.6 1.6s1.6-.7 1.6-1.6-.7-1.6-1.6-1.6c-.8-.1-1.6.7-1.6 1.6M942.5 119.2c0 .9.7 1.6 1.6 1.6s1.6-.7 1.6-1.6-.7-1.6-1.6-1.6c-.9-.1-1.6.7-1.6 1.6M925.4 119.2c0 .9.7 1.6 1.6 1.6s1.6-.7 1.6-1.6-.7-1.6-1.6-1.6c-.9-.1-1.6.7-1.6 1.6M891.1 119.2c0 .9.7 1.6 1.6 1.6s1.6-.7 1.6-1.6-.7-1.6-1.6-1.6c-.8-.1-1.6.7-1.6 1.6M891.1 97.1c0 .9.7 1.6 1.6 1.6s1.6-.7 1.6-1.6-.7-1.6-1.6-1.6c-.8 0-1.6.7-1.6 1.6M909.9 98.8c.5 0 1-.3 1.3-.7-1-.3-1.9-.6-2.9-.9 0 .8.7 1.6 1.6 1.6"/></g></svg>