<svg class="{{ classes|join(' ')|trim }}" viewBox="0 0 32 32" xmlns="http://www.w3.org/2000/svg"><g fill="#1f2555"><path d="m16.41 21.61a4.49 4.49 0 1 0 -4.49-4.49 4.49 4.49 0 0 0 4.49 4.49zm0-7.16a2.67 2.67 0 1 1 -2.67 2.67 2.68 2.68 0 0 1 2.67-2.67z"/><path d="m19.5 2.79a3.15 3.15 0 0 0 -6.19 0 14.67 14.67 0 1 0 6.19 0zm-3.09-1.09a1.67 1.67 0 1 1 -1.67 1.67 1.67 1.67 0 0 1 1.67-1.67zm0 28.26a12.84 12.84 0 0 1 -2.89-25.35 3.14 3.14 0 0 0 5.78 0 12.84 12.84 0 0 1 -2.89 25.39z"/><path d="m16.41 7.89a9.22 9.22 0 0 0 -7.87 14 2.26 2.26 0 0 0 .38 2.68 2.29 2.29 0 0 0 2.68.43 9.23 9.23 0 1 0 4.81-17.1zm-4.28 13.51a2.3 2.3 0 0 0 -2.13-.58 7.4 7.4 0 1 1 2.72 2.72 2.26 2.26 0 0 0 -.59-2.14zm-2.38.83a1.13 1.13 0 0 1 1.55 0 1.09 1.09 0 0 1 0 1.55 1.15 1.15 0 0 1 -1.55 0 1.09 1.09 0 0 1 0-1.55z"/></g></svg>
