<svg class="{{ classes|join(' ')|trim }}" viewBox="0 0 32 32" xmlns="http://www.w3.org/2000/svg"><path d="m16.9 19.8 8.6-11.2-11.2 8.6a1.82 1.82 0 0 0 -.1 2.7 1.91 1.91 0 0 0 2.7-.1zm2.5-15.8a11.8 11.8 0 0 0 -2-.4l-.2 1.9 1.7.3zm-5.5 1.7-.4-1.9a6 6 0 0 0 -1.9.6l.7 1.8a4.28 4.28 0 0 1 1.6-.5zm10.7 1.3a10.1 10.1 0 0 0 -1.6-1.3l-1 1.6a6.89 6.89 0 0 1 1.3 1.1zm-15.3.9-1.2-1.5a9.27 9.27 0 0 0 -1.4 1.4l1.4 1.2a12 12 0 0 1 1.2-1.1zm18.5 4.1a9.82 9.82 0 0 0 -.8-1.8l-1.7.9a7.74 7.74 0 0 1 .7 1.6zm-21.5-.1-1.8-.7a7 7 0 0 0 -.6 1.9l1.9.5a6.87 6.87 0 0 1 .5-1.7zm22.2 4.1h-1.9a9.7 9.7 0 0 1 -.1 1.7l1.9.3c0-.7.1-1.3.1-2zm-22.7 2.5c-.1-.5-.2-1.1-.3-1.7l-1.9.2c.1.7.2 1.3.3 2zm21.2 3.3-1.7-.9c-.3.5-.6 1-.9 1.4l1.5 1.2a8.16 8.16 0 0 0 1.1-1.7zm-18.9 1.2a7.1 7.1 0 0 1 -1-1.4l-1.6 1c.4.6.8 1.1 1.2 1.6zm7.9-21a14 14 0 1 0 14 14 14 14 0 0 0 -14-14zm0 30a16 16 0 1 1 16-16 16 16 0 0 1 -16 16z" fill="#1f2555" fill-rule="evenodd"/></svg>
